  0
SECTION
  2
HEADER
  9
$ACADVER
  1
AC1018
  9
$ACADMAINTVER
 70
     0
  9
$DWGCODEPAGE
  3
ANSI_949
  9
$INSBASE
 10
0.0
 20
0.0
 30
0.0
  9
$EXTMIN
 10
6.817574218942979
 20
67.66295096393625
 30
0.0
  9
$EXTMAX
 10
11802.12455978315
 20
10914.99144417155
 30
0.0
  9
$LIMMIN
 10
0.0
 20
0.0
  9
$LIMMAX
 10
420.0
 20
297.0
  9
$ORTHOMODE
 70
     0
  9
$REGENMODE
 70
     1
  9
$FILLMODE
 70
     1
  9
$QTEXTMODE
 70
     0
  9
$MIRRTEXT
 70
     0
  9
$LTSCALE
 40
1.0
  9
$ATTMODE
 70
     1
  9
$TEXTSIZE
 40
2.5
  9
$TRACEWID
 40
1.0
  9
$TEXTSTYLE
  7
Standard
  9
$CLAYER
  8
0
  9
$CELTYPE
  6
ByLayer
  9
$CECOLOR
 62
   256
  9
$CELTSCALE
 40
1.0
  9
$DISPSILH
 70
     0
  9
$DIMSCALE
 40
1.0
  9
$DIMASZ
 40
2.5
  9
$DIMEXO
 40
0.625
  9
$DIMDLI
 40
3.75
  9
$DIMRND
 40
0.0
  9
$DIMDLE
 40
0.0
  9
$DIMEXE
 40
1.25
  9
$DIMTP
 40
0.0
  9
$DIMTM
 40
0.0
  9
$DIMTXT
 40
2.5
  9
$DIMCEN
 40
2.5
  9
$DIMTSZ
 40
0.0
  9
$DIMTOL
 70
     0
  9
$DIMLIM
 70
     0
  9
$DIMTIH
 70
     0
  9
$DIMTOH
 70
     0
  9
$DIMSE1
 70
     0
  9
$DIMSE2
 70
     0
  9
$DIMTAD
 70
     1
  9
$DIMZIN
 70
     8
  9
$DIMBLK
  1

  9
$DIMASO
 70
     1
  9
$DIMSHO
 70
     1
  9
$DIMPOST
  1

  9
$DIMAPOST
  1

  9
$DIMALT
 70
     0
  9
$DIMALTD
 70
     3
  9
$DIMALTF
 40
0.03937007874016
  9
$DIMLFAC
 40
1.0
  9
$DIMTOFL
 70
     1
  9
$DIMTVP
 40
0.0
  9
$DIMTIX
 70
     0
  9
$DIMSOXD
 70
     0
  9
$DIMSAH
 70
     0
  9
$DIMBLK1
  1

  9
$DIMBLK2
  1

  9
$DIMSTYLE
  2
ISO-25
  9
$DIMCLRD
 70
     0
  9
$DIMCLRE
 70
     0
  9
$DIMCLRT
 70
     0
  9
$DIMTFAC
 40
1.0
  9
$DIMGAP
 40
0.625
  9
$DIMJUST
 70
     0
  9
$DIMSD1
 70
     0
  9
$DIMSD2
 70
     0
  9
$DIMTOLJ
 70
     0
  9
$DIMTZIN
 70
     8
  9
$DIMALTZ
 70
     0
  9
$DIMALTTZ
 70
     0
  9
$DIMUPT
 70
     0
  9
$DIMDEC
 70
     2
  9
$DIMTDEC
 70
     2
  9
$DIMALTU
 70
     2
  9
$DIMALTTD
 70
     3
  9
$DIMTXSTY
  7
Standard
  9
$DIMAUNIT
 70
     0
  9
$DIMADEC
 70
     0
  9
$DIMALTRND
 40
0.0
  9
$DIMAZIN
 70
     0
  9
$DIMDSEP
 70
    44
  9
$DIMATFIT
 70
     3
  9
$DIMFRAC
 70
     0
  9
$DIMLDRBLK
  1

  9
$DIMLUNIT
 70
     2
  9
$DIMLWD
 70
    -2
  9
$DIMLWE
 70
    -2
  9
$DIMTMOVE
 70
     0
  9
$LUNITS
 70
     2
  9
$LUPREC
 70
     4
  9
$SKETCHINC
 40
1.0
  9
$FILLETRAD
 40
0.0
  9
$AUNITS
 70
     0
  9
$AUPREC
 70
     0
  9
$MENU
  1
.
  9
$ELEVATION
 40
0.0
  9
$PELEVATION
 40
0.0
  9
$THICKNESS
 40
0.0
  9
$LIMCHECK
 70
     0
  9
$CHAMFERA
 40
0.0
  9
$CHAMFERB
 40
0.0
  9
$CHAMFERC
 40
0.0
  9
$CHAMFERD
 40
0.0
  9
$SKPOLY
 70
     0
  9
$TDCREATE
 40
2453470.485982523
  9
$TDUCREATE
 40
2453470.110982523
  9
$TDUPDATE
 40
2453470.486149444
  9
$TDUUPDATE
 40
2453470.111149444
  9
$TDINDWG
 40
0.0001671065
  9
$TDUSRTIMER
 40
0.0001671065
  9
$USRTIMER
 70
     1
  9
$ANGBASE
 50
0.0
  9
$ANGDIR
 70
     0
  9
$PDMODE
 70
     0
  9
$PDSIZE
 40
0.0
  9
$PLINEWID
 40
0.0
  9
$SPLFRAME
 70
     0
  9
$SPLINETYPE
 70
     6
  9
$SPLINESEGS
 70
     8
  9
$HANDSEED
  5
13D
  9
$SURFTAB1
 70
     6
  9
$SURFTAB2
 70
     6
  9
$SURFTYPE
 70
     6
  9
$SURFU
 70
     6
  9
$SURFV
 70
     6
  9
$UCSBASE
  2

  9
$UCSNAME
  2

  9
$UCSORG
 10
0.0
 20
0.0
 30
0.0
  9
$UCSXDIR
 10
1.0
 20
0.0
 30
0.0
  9
$UCSYDIR
 10
0.0
 20
1.0
 30
0.0
  9
$UCSORTHOREF
  2

  9
$UCSORTHOVIEW
 70
     0
  9
$UCSORGTOP
 10
0.0
 20
0.0
 30
0.0
  9
$UCSORGBOTTOM
 10
0.0
 20
0.0
 30
0.0
  9
$UCSORGLEFT
 10
0.0
 20
0.0
 30
0.0
  9
$UCSORGRIGHT
 10
0.0
 20
0.0
 30
0.0
  9
$UCSORGFRONT
 10
0.0
 20
0.0
 30
0.0
  9
$UCSORGBACK
 10
0.0
 20
0.0
 30
0.0
  9
$PUCSBASE
  2

  9
$PUCSNAME
  2

  9
$PUCSORG
 10
0.0
 20
0.0
 30
0.0
  9
$PUCSXDIR
 10
1.0
 20
0.0
 30
0.0
  9
$PUCSYDIR
 10
0.0
 20
1.0
 30
0.0
  9
$PUCSORTHOREF
  2

  9
$PUCSORTHOVIEW
 70
     0
  9
$PUCSORGTOP
 10
0.0
 20
0.0
 30
0.0
  9
$PUCSORGBOTTOM
 10
0.0
 20
0.0
 30
0.0
  9
$PUCSORGLEFT
 10
0.0
 20
0.0
 30
0.0
  9
$PUCSORGRIGHT
 10
0.0
 20
0.0
 30
0.0
  9
$PUCSORGFRONT
 10
0.0
 20
0.0
 30
0.0
  9
$PUCSORGBACK
 10
0.0
 20
0.0
 30
0.0
  9
$USERI1
 70
     0
  9
$USERI2
 70
     0
  9
$USERI3
 70
     0
  9
$USERI4
 70
     0
  9
$USERI5
 70
     0
  9
$USERR1
 40
0.0
  9
$USERR2
 40
0.0
  9
$USERR3
 40
0.0
  9
$USERR4
 40
0.0
  9
$USERR5
 40
0.0
  9
$WORLDVIEW
 70
     1
  9
$SHADEDGE
 70
     3
  9
$SHADEDIF
 70
    70
  9
$TILEMODE
 70
     1
  9
$MAXACTVP
 70
    64
  9
$PINSBASE
 10
0.0
 20
0.0
 30
0.0
  9
$PLIMCHECK
 70
     0
  9
$PEXTMIN
 10
0.0
 20
0.0
 30
0.0
  9
$PEXTMAX
 10
0.0
 20
0.0
 30
0.0
  9
$PLIMMIN
 10
0.0
 20
0.0
  9
$PLIMMAX
 10
12.0
 20
9.0
  9
$UNITMODE
 70
     0
  9
$VISRETAIN
 70
     1
  9
$PLINEGEN
 70
     0
  9
$PSLTSCALE
 70
     1
  9
$TREEDEPTH
 70
  3020
  9
$CMLSTYLE
  2
Standard
  9
$CMLJUST
 70
     0
  9
$CMLSCALE
 40
20.0
  9
$PROXYGRAPHICS
 70
     1
  9
$MEASUREMENT
 70
     1
  9
$CELWEIGHT
370
    -1
  9
$ENDCAPS
280
     0
  9
$JOINSTYLE
280
     0
  9
$LWDISPLAY
290
     0
  9
$INSUNITS
 70
     4
  9
$HYPERLINKBASE
  1

  9
$STYLESHEET
  1

  9
$XEDIT
290
     1
  9
$CEPSNTYPE
380
     0
  9
$PSTYLEMODE
290
     1
  9
$FINGERPRINTGUID
  2
{FDEAD578-A652-11D2-9A35-0060089B3A3F}
  9
$VERSIONGUID
  2
{B38D9AE0-81CE-4056-A881-204E6FC9A053}
  9
$EXTNAMES
290
     1
  9
$PSVPSCALE
 40
0.0
  9
$OLESTARTUP
290
     0
  9
$SORTENTS
280
   127
  9
$INDEXCTL
280
     0
  9
$HIDETEXT
280
     1
  9
$XCLIPFRAME
290
     0
  9
$HALOGAP
280
     0
  9
$OBSCOLOR
 70
   257
  9
$OBSLTYPE
280
     0
  9
$INTERSECTIONDISPLAY
280
     0
  9
$INTERSECTIONCOLOR
 70
   257
  9
$DIMASSOC
280
     2
  9
$PROJECTNAME
  1

  0
ENDSEC
  0
SECTION
  2
CLASSES
  0
CLASS
  1
ACDBDICTIONARYWDFLT
  2
AcDbDictionaryWithDefault
  3
ObjectDBX Classes
 90
        0
 91
        1
280
     0
281
     0
  0
CLASS
  1
DICTIONARYVAR
  2
AcDbDictionaryVar
  3
ObjectDBX Classes
 90
        0
 91
        2
280
     0
281
     0
  0
ENDSEC
  0
SECTION
  2
TABLES
  0
TABLE
  2
VPORT
  5
8
330
0
100
AcDbSymbolTable
 70
     2
  0
VPORT
  5
13C
330
8
100
AcDbSymbolTableRecord
100
AcDbViewportTableRecord
  2
*Active
 70
     0
 10
0.0
 20
0.0
 11
1.0
 21
1.0
 12
5904.47106700105
 22
5491.327197567744
 13
0.0
 23
0.0
 14
10.0
 24
10.0
 15
10.0
 25
10.0
 16
0.0
 26
0.0
 36
1.0
 17
0.0
 27
0.0
 37
0.0
 40
10938.35502601775
 41
1.712885154061624
 42
50.0
 43
0.0
 44
0.0
 50
0.0
 51
0.0
 71
     0
 72
  1000
 73
     1
 74
     3
 75
     0
 76
     0
 77
     0
 78
     0
281
     0
 65
     1
110
0.0
120
0.0
130
0.0
111
1.0
121
0.0
131
0.0
112
0.0
122
1.0
132
0.0
 79
     0
146
0.0
  0
ENDTAB
  0
TABLE
  2
LTYPE
  5
5
330
0
100
AcDbSymbolTable
 70
     2
  0
LTYPE
  5
14
330
5
100
AcDbSymbolTableRecord
100
AcDbLinetypeTableRecord
  2
ByBlock
 70
     0
  3

 72
    65
 73
     0
 40
0.0
  0
LTYPE
  5
15
330
5
100
AcDbSymbolTableRecord
100
AcDbLinetypeTableRecord
  2
ByLayer
 70
     0
  3

 72
    65
 73
     0
 40
0.0
  0
LTYPE
  5
16
330
5
100
AcDbSymbolTableRecord
100
AcDbLinetypeTableRecord
  2
Continuous
 70
     0
  3
Solid line
 72
    65
 73
     0
 40
0.0
  0
LTYPE
  5
8B
330
5
100
AcDbSymbolTableRecord
100
AcDbLinetypeTableRecord
  2
HIDDEN
 70
     0
  3
Hidden __ __ __ __ __ __ __ 
 72
    65
 73
     2
 40
0.375
 49
0.25
 74
     0
 49
-0.125
 74
     0
  0
ENDTAB
  0
TABLE
  2
LAYER
  5
2
102
{ACAD_XDICTIONARY
360
95
102
}
330
0
100
AcDbSymbolTable
 70
     6
  0
LAYER
  5
10
330
2
100
AcDbSymbolTableRecord
100
AcDbLayerTableRecord
  2
0
 70
     0
 62
     7
  6
Continuous
370
    -3
390
F
  0
LAYER
  5
8C
330
2
100
AcDbSymbolTableRecord
100
AcDbLayerTableRecord
  2
1
 70
     0
 62
     1
  6
Continuous
370
    -3
390
F
1001
RAK
1000
{ACET-LAYISO
1070
     0
1070
     1
1000
Continuous
1071
       -3
1071
        1
1005
F
1000
ACET-LAYISO}
  0
LAYER
  5
8D
330
2
100
AcDbSymbolTableRecord
100
AcDbLayerTableRecord
  2
3
 70
     0
 62
     3
  6
Continuous
370
    -3
390
F
1001
RAK
1000
{ACET-LAYISO
1070
     0
1070
     3
1000
Continuous
1071
       -3
1071
        1
1005
F
1000
ACET-LAYISO}
  0
LAYER
  5
8E
330
2
100
AcDbSymbolTableRecord
100
AcDbLayerTableRecord
  2
BAR
 70
     0
 62
     6
  6
Continuous
370
    -3
390
F
1001
RAK
1000
{ACET-LAYISO
1070
     0
1070
     6
1000
Continuous
1071
       -3
1071
        1
1005
F
1000
ACET-LAYISO}
  0
LAYER
  5
8F
330
2
100
AcDbSymbolTableRecord
100
AcDbLayerTableRecord
  2
DLINE
 70
     0
 62
     2
  6
Continuous
370
    -3
390
F
1001
RAK
1000
{ACET-LAYISO
1070
     0
1070
     2
1000
Continuous
1071
       -3
1071
        1
1005
F
1000
ACET-LAYISO}
  0
LAYER
  5
90
330
2
100
AcDbSymbolTableRecord
100
AcDbLayerTableRecord
  2
DTXT
 70
     0
 62
     7
  6
Continuous
370
    -3
390
F
1001
RAK
1000
{ACET-LAYISO
1070
     0
1070
     7
1000
Continuous
1071
       -3
1071
        1
1005
F
1000
ACET-LAYISO}
  0
ENDTAB
  0
TABLE
  2
STYLE
  5
3
330
0
100
AcDbSymbolTable
 70
     4
  0
STYLE
  5
11
330
3
100
AcDbSymbolTableRecord
100
AcDbTextStyleTableRecord
  2
Standard
 70
     0
 40
0.0
 41
1.0
 50
0.0
 71
     0
 42
2.5
  3
txt
  4

  0
STYLE
  5
91
330
3
100
AcDbSymbolTableRecord
100
AcDbTextStyleTableRecord
  2
돋움체
 70
     0
 40
0.0
 41
1.0
 50
0.0
 71
     0
 42
2.5
  3
DotumChe.ttf
  4

1001
ACAD
1000
DotumChe
1071
    33073
  0
STYLE
  5
92
330
3
100
AcDbSymbolTableRecord
100
AcDbTextStyleTableRecord
  2
일반문자
 70
     0
 40
0.0
 41
1.0
 50
0.0
 71
     0
 42
0.0
  3
돋움체
  4

  0
STYLE
  5
93
330
3
100
AcDbSymbolTableRecord
100
AcDbTextStyleTableRecord
  2
D
 70
     0
 40
0.0
 41
1.0
 50
0.0
 71
     0
 42
500.0
  3
DotumChe.ttf
  4

1001
ACAD
1000
DotumChe
1071
    33073
  0
ENDTAB
  0
TABLE
  2
VIEW
  5
6
330
0
100
AcDbSymbolTable
 70
     0
  0
ENDTAB
  0
TABLE
  2
UCS
  5
7
330
0
100
AcDbSymbolTable
 70
     0
  0
ENDTAB
  0
TABLE
  2
APPID
  5
9
330
0
100
AcDbSymbolTable
 70
     2
  0
APPID
  5
12
330
9
100
AcDbSymbolTableRecord
100
AcDbRegAppTableRecord
  2
ACAD
 70
     0
  0
APPID
  5
94
330
9
100
AcDbSymbolTableRecord
100
AcDbRegAppTableRecord
  2
RAK
 70
     0
  0
ENDTAB
  0
TABLE
  2
DIMSTYLE
  5
A
330
0
100
AcDbSymbolTable
 70
     1
100
AcDbDimStyleTable
 71
     0
  0
DIMSTYLE
105
27
330
A
100
AcDbSymbolTableRecord
100
AcDbDimStyleTableRecord
  2
ISO-25
 70
     0
 41
2.5
 42
0.625
 43
3.75
 44
1.25
 73
     0
 74
     0
 77
     1
 78
     8
140
2.5
141
2.5
143
0.03937007874016
147
0.625
171
     3
172
     1
271
     2
272
     2
274
     3
278
    44
283
     0
284
     8
340
11
  0
ENDTAB
  0
TABLE
  2
BLOCK_RECORD
  5
1
330
0
100
AcDbSymbolTable
 70
     3
  0
BLOCK_RECORD
  5
1F
330
1
100
AcDbSymbolTableRecord
100
AcDbBlockTableRecord
  2
*Model_Space
340
22
  0
BLOCK_RECORD
  5
50
330
1
100
AcDbSymbolTableRecord
100
AcDbBlockTableRecord
  2
*Paper_Space
340
51
  0
BLOCK_RECORD
  5
55
330
1
100
AcDbSymbolTableRecord
100
AcDbBlockTableRecord
  2
*Paper_Space0
340
56
  0
BLOCK_RECORD
  5
86
330
1
100
AcDbSymbolTableRecord
100
AcDbBlockTableRecord
  2
_Dot
340
0
310
2800000020000000200000000100080000000000000400000000000000000000000000000000000000000000000080000080000000808000800000008000800080800000C0C0C000C0DCC000F0CAA6000020400000206000002080000020A0000020C0000020E00000400000004020000040400000406000004080000040A0
310
000040C0000040E00000600000006020000060400000606000006080000060A0000060C0000060E00000800000008020000080400000806000008080000080A0000080C0000080E00000A0000000A0200000A0400000A0600000A0800000A0A00000A0C00000A0E00000C0000000C0200000C0400000C0600000C0800000C0
310
A00000C0C00000C0E00000E0000000E0200000E0400000E0600000E0800000E0A00000E0C00000E0E00040000000400020004000400040006000400080004000A0004000C0004000E00040200000402020004020400040206000402080004020A0004020C0004020E000404000004040200040404000404060004040800040
310
40A0004040C0004040E00040600000406020004060400040606000406080004060A0004060C0004060E00040800000408020004080400040806000408080004080A0004080C0004080E00040A0000040A0200040A0400040A0600040A0800040A0A00040A0C00040A0E00040C0000040C0200040C0400040C0600040C08000
310
40C0A00040C0C00040C0E00040E0000040E0200040E0400040E0600040E0800040E0A00040E0C00040E0E00080000000800020008000400080006000800080008000A0008000C0008000E00080200000802020008020400080206000802080008020A0008020C0008020E00080400000804020008040400080406000804080
310
008040A0008040C0008040E00080600000806020008060400080606000806080008060A0008060C0008060E00080800000808020008080400080806000808080008080A0008080C0008080E00080A0000080A0200080A0400080A0600080A0800080A0A00080A0C00080A0E00080C0000080C0200080C0400080C0600080C0
310
800080C0A00080C0C00080C0E00080E0000080E0200080E0400080E0600080E0800080E0A00080E0C00080E0E000C0000000C0002000C0004000C0006000C0008000C000A000C000C000C000E000C0200000C0202000C0204000C0206000C0208000C020A000C020C000C020E000C0400000C0402000C0404000C0406000C0
310
408000C040A000C040C000C040E000C0600000C0602000C0604000C0606000C0608000C060A000C060C000C060E000C0800000C0802000C0804000C0806000C0808000C080A000C080C000C080E000C0A00000C0A02000C0A04000C0A06000C0A08000C0A0A000C0A0C000C0A0E000C0C00000C0C02000C0C04000C0C06000
310
C0C08000C0C0A000F0FBFF00A4A0A000808080000000FF0000FF000000FFFF00FF000000FF00FF00FFFF0000FFFFFF0000000000000000000000000000000000000000000000000000000000000000000000000000000000000000000000000000000000000000000000000000000000000000000000000000000000000000
310
000000000000000000FF000000000000000000000000000000000000000000000000000000000000FFFFFF00000000000000000000000000000000000000000000000000000000FF00FF00FF0000000000000000000000000000000000000000000000000000FF0000FF0000FF000000000000000000000000000000000000
310
000000000000FF000000FF000000FF00000000000000000000000000000000000000000000FF00000000FF00000000FF0000000000000000000000000000000000000000FF0000000000FF0000000000FF000000000000000000000000000000000000FF000000000000FF000000000000FF00000000000000000000000000
310
000000FF00000000000000FF00000000000000000000000000000000000000000000FF0000000000000000FF000000000000000000000000000000000000000000FF000000000000000000FF0000000000000000000000000000000000000000FF00000000000000000000FF00000000000000000000000000000000000000
310
FF00000000000000000000FFFFFF0000000000000000000000000000000000FF00000000000000000000FFFFFFFFFFFFFFFFFFFF00FFFFFFFFFFFFFFFFFFFFFFFFFFFFFFFFFFFFFFFFFFFFFFFFFFFF00000000000000000000000000000000FF0000000000000000000000FFFFFF0000000000000000000000000000000000
310
00FF0000000000000000000000FF0000000000000000000000000000000000000000FF00000000000000000000FF000000000000000000000000000000000000000000FF000000000000000000FF00000000000000000000000000000000000000000000FF0000000000000000FF0000000000000000000000000000000000
310
000000000000FFFF000000000000FF000000000000FF000000000000000000000000000000000000FF0000000000FF0000000000FF0000000000000000000000000000000000000000FF00000000FF00000000FF00000000000000000000000000000000000000000000FF000000FF000000FF000000000000000000000000
310
000000000000000000000000FF0000FF0000FF0000000000000000000000000000000000000000000000000000FF00FF00FF00000000000000000000000000000000000000000000000000000000FFFFFF000000000000000000000000000000000000000000000000000000000000FF000000000000000000000000000000
310
0000000000000000000000000000000000000000000000000000000000000000000000000000000000000000000000000000000000000000
102
{BLKREFS
331
9F
331
A7
331
A9
331
AB
331
AF
331
BD
331
BF
331
CE
331
F3
331
FB
331
FD
331
FF
331
103
331
111
331
113
331
122
102
}
  0
ENDTAB
  0
ENDSEC
  0
SECTION
  2
BLOCKS
  0
BLOCK
  5
20
330
1F
100
AcDbEntity
  8
0
100
AcDbBlockBegin
  2
*Model_Space
 70
     0
 10
0.0
 20
0.0
 30
0.0
  3
*Model_Space
  1

  0
ENDBLK
  5
21
330
1F
100
AcDbEntity
  8
0
100
AcDbBlockEnd
  0
BLOCK
  5
52
330
50
100
AcDbEntity
 67
     1
  8
0
100
AcDbBlockBegin
  2
*Paper_Space
 70
     0
 10
0.0
 20
0.0
 30
0.0
  3
*Paper_Space
  1

  0
ENDBLK
  5
53
330
50
100
AcDbEntity
 67
     1
  8
0
100
AcDbBlockEnd
  0
BLOCK
  5
57
330
55
100
AcDbEntity
  8
0
100
AcDbBlockBegin
  2
*Paper_Space0
 70
     0
 10
0.0
 20
0.0
 30
0.0
  3
*Paper_Space0
  1

  0
ENDBLK
  5
58
330
55
100
AcDbEntity
  8
0
100
AcDbBlockEnd
  0
BLOCK
  5
87
330
86
100
AcDbEntity
  8
0
100
AcDbBlockBegin
  2
_Dot
 70
     0
 10
0.0
 20
0.0
 30
0.0
  3
_Dot
  1

  0
LWPOLYLINE
  5
88
330
86
100
AcDbEntity
  8
0
  6
ByBlock
 62
     0
100
AcDbPolyline
 90
        2
 70
     1
 43
0.5
 10
-0.25
 20
0.0
 42
1.0
 10
0.25
 20
0.0
 42
1.0
  0
LINE
  5
89
330
86
100
AcDbEntity
  8
0
  6
ByBlock
 62
     0
370
    -2
100
AcDbLine
 10
-0.5
 20
0.0
 30
0.0
 11
-1.0
 21
0.0
 31
0.0
  0
ENDBLK
  5
8A
330
86
100
AcDbEntity
  8
0
100
AcDbBlockEnd
  0
ENDSEC
  0
SECTION
  2
ENTITIES
  0
LINE
  5
EC
330
1F
100
AcDbEntity
  8
BAR
100
AcDbLine
 10
1549.029447040578
 20
6980.893874792528
 30
0.0
 11
9592.421814669448
 21
6980.893878620263
 31
0.0
  0
LINE
  5
ED
330
1F
100
AcDbEntity
  8
DLINE
  6
Continuous
100
AcDbLine
 10
4082.721379967697
 20
7121.392829977587
 30
0.0
 11
3843.719287813001
 21
7360.39492190504
 31
0.0
  0
LINE
  5
EE
330
1F
100
AcDbEntity
  8
DLINE
  6
Continuous
100
AcDbLine
 10
4082.721380091563
 20
6861.392829977588
 30
0.0
 11
3843.719287936634
 21
7100.394921905041
 31
0.0
  0
LINE
  5
EF
330
1F
100
AcDbEntity
  8
DLINE
  6
Continuous
100
AcDbLine
 10
4082.721379843831
 20
7381.392829977587
 30
0.0
 11
3843.719287689135
 21
7620.394921905042
 31
0.0
  0
LINE
  5
F0
330
1F
100
AcDbEntity
  8
BAR
100
AcDbLine
 10
1549.02944679308
 20
7500.893874792528
 30
0.0
 11
6328.75927176961
 21
7500.893877067283
 31
0.0
  0
LINE
  5
F1
330
1F
100
AcDbEntity
  8
BAR
100
AcDbLine
 10
1549.029446916946
 20
7240.893874792527
 30
0.0
 11
10811.71059524763
 21
7240.893879200477
 31
0.0
  0
LINE
  5
F2
330
1F
100
AcDbEntity
  8
BAR
100
AcDbLine
 10
6328.759271864837
 20
7300.893877067283
 30
0.0
 11
5254.284916723671
 21
7300.893876555521
 31
0.0
  0
INSERT
  5
F3
330
1F
100
AcDbEntity
  8
DLINE
  6
ByBlock
100
AcDbBlockReference
  2
_Dot
 10
5254.284915557422
 20
9751.755996267457
 30
0.0
 41
80.0
 42
80.0
 43
80.0
 50
180.000000027264
  0
LINE
  5
F4
330
1F
100
AcDbEntity
  8
BAR
100
AcDbLine
 10
6328.759272607335
 20
5740.893877067283
 30
0.0
 11
5254.284917466168
 21
5740.893876555521
 31
0.0
  0
LINE
  5
F5
330
1F
100
AcDbEntity
  8
BAR
100
AcDbLine
 10
1549.02944765921
 20
5680.893874792527
 30
0.0
 11
10811.71059598989
 21
5680.893879200477
 31
0.0
  0
LINE
  5
F6
330
1F
100
AcDbEntity
  8
BAR
100
AcDbLine
 10
1549.029447535577
 20
5940.893874792528
 30
0.0
 11
6328.759272512106
 21
5940.893877067283
 31
0.0
  0
LINE
  5
F7
330
1F
100
AcDbEntity
  8
BAR
100
AcDbLine
 10
9592.421815012174
 20
6260.893878620263
 30
0.0
 11
8517.947459870542
 21
6260.893878108968
 31
0.0
  0
LINE
  5
F8
330
1F
100
AcDbEntity
  8
BAR
100
AcDbLine
 10
6328.759272112336
 20
6780.893877067282
 30
0.0
 11
5254.28491697117
 21
6780.893876555521
 31
0.0
  0
LINE
  5
F9
330
1F
100
AcDbEntity
  8
BAR
100
AcDbLine
 10
6328.7592728546
 20
5220.893877067283
 30
0.0
 11
5254.284917713434
 21
5220.893876555521
 31
0.0
  0
LINE
  5
FA
330
1F
100
AcDbEntity
  8
BAR
100
AcDbLine
 10
9592.421815754672
 20
4700.893878620263
 30
0.0
 11
8517.947460613038
 21
4700.893878108967
 31
0.0
  0
INSERT
  5
FB
330
1F
100
AcDbEntity
  8
DLINE
  6
ByBlock
100
AcDbBlockReference
  2
_Dot
 10
399.4274274975178
 20
6717.224977603793
 30
0.0
 41
-80.0
 42
80.0
 43
80.0
 50
270.0000000271806
  0
LINE
  5
FC
330
1F
100
AcDbEntity
  8
DLINE
  6
ByBlock
100
AcDbLine
 10
9592.421814027535
 20
8330.006676945515
 30
0.0
 11
9592.421813751396
 21
8909.72165376335
 31
0.0
  0
INSERT
  5
FD
330
1F
100
AcDbEntity
  8
DLINE
  6
ByBlock
100
AcDbBlockReference
  2
_Dot
 10
9592.421813799125
 20
8809.72165376335
 30
0.0
 41
80.0
 42
80.0
 43
80.0
 50
0.0000000272640608
  0
LINE
  5
FE
330
1F
100
AcDbEntity
  8
DLINE
  6
ByBlock
100
AcDbLine
 10
8517.947458885901
 20
8330.006676434219
 30
0.0
 11
8517.947458609764
 21
8909.721653252054
 31
0.0
  0
INSERT
  5
FF
330
1F
100
AcDbEntity
  8
DLINE
  6
ByBlock
100
AcDbBlockReference
  2
_Dot
 10
8517.947458657493
 20
8809.721653252054
 30
0.0
 41
80.0
 42
80.0
 43
80.0
 50
180.000000027264
  0
TEXT
  5
100
330
1F
100
AcDbEntity
  8
DTXT
100
AcDbText
 10
8574.954936461116
 20
8898.614760788769
 30
0.0
 40
250.0
  1
겹이음
 50
0.0000000266804264
  7
돋움체
100
AcDbText
  0
LINE
  5
101
330
1F
100
AcDbEntity
  8
DLINE
  6
ByBlock
100
AcDbLine
 10
8597.947458657493
 20
8809.721653290237
 30
0.0
 11
9512.421813799127
 21
8809.721653725167
 31
0.0
  0
LINE
  5
102
330
1F
100
AcDbEntity
  8
DLINE
  6
ByBlock
100
AcDbLine
 10
1003.153788433235
 20
6717.224977891106
 30
0.0
 11
299.4274274975178
 21
6717.224977555829
 31
0.0
  0
INSERT
  5
103
330
1F
100
AcDbEntity
  8
DLINE
  6
ByBlock
100
AcDbBlockReference
  2
_Dot
 10
399.427428485651
 20
4640.893874245375
 30
0.0
 41
-80.0
 42
80.0
 43
80.0
 50
90.0000000273474
  0
LINE
  5
104
330
1F
100
AcDbEntity
  8
DLINE
  6
ByBlock
100
AcDbLine
 10
9552.421816459682
 20
3219.369390397478
 30
0.0
 11
9512.421816459683
 21
3219.369390378386
 31
0.0
  0
POLYLINE
  5
105
330
1F
100
AcDbEntity
  8
DLINE
  6
ByBlock
100
AcDb2dPolyline
 66
     1
 10
0.0
 20
0.0
 30
0.0
 70
     1
 40
40.0
 41
40.0
  0
VERTEX
  5
106
330
105
100
AcDbEntity
  8
DLINE
  6
ByBlock
100
AcDbVertex
100
AcDb2dVertex
 10
9572.421816459682
 20
3219.369390407257
 30
0.0
 42
1.0
  0
VERTEX
  5
107
330
105
100
AcDbEntity
  8
DLINE
  6
ByBlock
100
AcDbVertex
100
AcDb2dVertex
 10
9612.421816459683
 20
3219.369390425884
 30
0.0
 42
1.0
  0
SEQEND
  5
108
330
105
100
AcDbEntity
  8
DLINE
  6
ByBlock
  0
LINE
  5
109
330
1F
100
AcDbEntity
  8
DLINE
  6
ByBlock
100
AcDbLine
 10
9592.421816132555
 20
3906.679675363616
 30
0.0
 11
9592.421816459681
 21
3219.36939041657
 31
0.0
  0
LINE
  5
10A
330
1F
100
AcDbEntity
  8
DLINE
  6
ByBlock
100
AcDbLine
 10
1003.153789421369
 20
4640.893874532689
 30
0.0
 11
299.427428485651
 21
4640.893874197412
 31
0.0
  0
LINE
  5
10B
330
1F
100
AcDbEntity
  8
DLINE
  6
ByBlock
100
AcDbLine
 10
399.427427535702
 20
6637.224977603793
 30
0.0
 11
399.4274284476997
 21
4720.893874245375
 31
0.0
  0
TEXT
  5
10C
330
1F
100
AcDbEntity
  8
DTXT
  6
Continuous
100
AcDbText
 10
299.4274283825071
 20
4857.630854447983
 30
0.0
 40
250.0
  1
C.T.C125
 50
90.0000000266804
  7
돋움체
100
AcDbText
  0
LINE
  5
10D
330
1F
100
AcDbEntity
  8
DLINE
  6
Continuous
100
AcDbLine
 10
4082.721380586328
 20
5821.392829977587
 30
0.0
 11
3843.719288431632
 21
6060.394921905041
 31
0.0
  0
LINE
  5
10E
330
1F
100
AcDbEntity
  8
DLINE
  6
Continuous
100
AcDbLine
 10
4082.721380833827
 20
5301.392829977586
 30
0.0
 11
3843.719288679131
 21
5540.394921905041
 31
0.0
  0
LINE
  5
10F
330
1F
100
AcDbEntity
  8
DLINE
  6
Continuous
100
AcDbLine
 10
4082.721380709961
 20
5561.392829977587
 30
0.0
 11
3843.719288555265
 21
5800.394921905041
 31
0.0
  0
LINE
  5
110
330
1F
100
AcDbEntity
  8
DLINE
  6
ByBlock
100
AcDbLine
 10
6328.759271375195
 20
8330.006675392535
 30
0.0
 11
6328.759271099057
 21
8909.72165221037
 31
0.0
  0
INSERT
  5
111
330
1F
100
AcDbEntity
  8
DLINE
  6
ByBlock
100
AcDbBlockReference
  2
_Dot
 10
6328.759271146788
 20
8809.72165221037
 30
0.0
 41
80.0
 42
80.0
 43
80.0
 50
0.0000000272640608
  0
LINE
  5
112
330
1F
100
AcDbEntity
  8
DLINE
  6
ByBlock
100
AcDbLine
 10
5254.284916234028
 20
8330.006674880774
 30
0.0
 11
5254.284916005621
 21
8809.721651698607
 31
0.0
  0
INSERT
  5
113
330
1F
100
AcDbEntity
  8
DLINE
  6
ByBlock
100
AcDbBlockReference
  2
_Dot
 10
5254.284916005621
 20
8809.721651698607
 30
0.0
 41
80.0
 42
80.0
 43
80.0
 50
180.000000027264
  0
TEXT
  5
114
330
1F
100
AcDbEntity
  8
DTXT
100
AcDbText
 10
5311.292393808777
 20
8898.614759235789
 30
0.0
 40
250.0
  1
겹이음
 50
0.0000000266804264
  7
돋움체
100
AcDbText
  0
SOLID
  5
115
330
1F
100
AcDbEntity
  8
1
100
AcDbTrace
 10
6811.888201479625
 20
9751.755997008791
 30
0.0
 11
6435.177129178367
 21
9852.695424419508
 31
0.0
 12
6435.177129226563
 22
9751.75599682951
 32
0.0
 13
6435.177129226563
 23
9751.75599682951
 33
0.0
  0
LINE
  5
116
330
1F
100
AcDbEntity
  8
DLINE
  6
ByBlock
100
AcDbLine
 10
6811.888201479625
 20
9751.755997008791
 30
0.0
 11
5254.284915557422
 21
9751.755996267457
 31
0.0
  0
LINE
  5
117
330
1F
100
AcDbEntity
  8
DLINE
  6
ByBlock
100
AcDbLine
 10
5334.284916005621
 20
8809.721651736792
 30
0.0
 11
6248.759271146788
 21
8809.721652172186
 31
0.0
  0
SOLID
  5
118
330
1F
100
AcDbEntity
  8
1
100
AcDbTrace
 10
3829.836935941421
 20
9751.75599558992
 30
0.0
 11
4206.548008145822
 21
9852.695423359197
 31
0.0
 12
4206.548008194018
 22
9751.755995769201
 32
0.0
 13
4206.548008194018
 23
9751.755995769201
 33
0.0
  0
TEXT
  5
119
330
1F
100
AcDbEntity
  8
DTXT
100
AcDbText
 10
2298.697112940543
 20
9592.045951280889
 30
0.0
 40
250.0
  1
(인장측)
 50
0.0000000266804264
  7
돋움체
100
AcDbText
  0
LINE
  5
11A
330
1F
100
AcDbEntity
  8
DLINE
  6
Continuous
100
AcDbLine
 10
4082.72138033883
 20
6341.392829977587
 30
0.0
 11
3843.719288184133
 21
6580.394921905041
 31
0.0
  0
LINE
  5
11B
330
1F
100
AcDbEntity
  8
DLINE
  6
Continuous
100
AcDbLine
 10
4082.721380462696
 20
6081.392829977588
 30
0.0
 11
3843.719288307767
 21
6320.394921905041
 31
0.0
  0
LINE
  5
11C
330
1F
100
AcDbEntity
  8
DLINE
  6
Continuous
100
AcDbLine
 10
4082.721380215196
 20
6601.392829977587
 30
0.0
 11
3843.719288060267
 21
6840.394921905041
 31
0.0
  0
LINE
  5
11D
330
1F
100
AcDbEntity
  8
DLINE
  6
ByBlock
100
AcDbLine
 10
3829.836935941421
 20
9751.75599558992
 30
0.0
 11
5254.284915557422
 21
9751.755996267457
 31
0.0
  0
LINE
  5
11E
330
1F
100
AcDbEntity
  8
BAR
100
AcDbLine
 10
1549.029447906709
 20
5160.893874792527
 30
0.0
 11
10811.71059623739
 21
5160.893879200478
 31
0.0
  0
LINE
  5
11F
330
1F
100
AcDbEntity
  8
BAR
100
AcDbLine
 10
1549.029447288078
 20
6460.893874792528
 30
0.0
 11
6328.759272264608
 21
6460.893877067284
 31
0.0
  0
LINE
  5
120
330
1F
100
AcDbEntity
  8
BAR
100
AcDbLine
 10
1549.029447164212
 20
6720.893874792527
 30
0.0
 11
10811.71059549489
 21
6720.893879200477
 31
0.0
  0
LINE
  5
121
330
1F
100
AcDbEntity
  8
DLINE
  6
Continuous
100
AcDbLine
 10
3963.220336130646
 20
2532.603300440737
 30
0.0
 11
1759.844938584894
 21
2532.603299392067
 31
0.0
  0
INSERT
  5
122
330
1F
100
AcDbEntity
  8
DLINE
  6
ByBlock
100
AcDbBlockReference
  2
_Dot
 10
5254.284918666177
 20
3219.369388351828
 30
0.0
 41
80.0
 42
80.0
 43
80.0
 50
180.000000027264
  0
LINE
  5
123
330
1F
100
AcDbEntity
  8
DLINE
  6
ByBlock
100
AcDbLine
 10
5254.28491833905
 20
3906.679673298874
 30
0.0
 11
5254.284918666177
 21
3219.369388351828
 31
0.0
  0
LINE
  5
124
330
1F
100
AcDbEntity
  8
DLINE
  6
Continuous
100
AcDbLine
 10
4082.721381081326
 20
4781.392829977587
 30
0.0
 11
3843.719288926397
 21
5020.39492190504
 31
0.0
  0
LINE
  5
125
330
1F
100
AcDbEntity
  8
DLINE
  6
Continuous
100
AcDbLine
 10
4082.721381204959
 20
4521.392829977587
 30
0.0
 11
3843.719289050263
 21
4760.394921905041
 31
0.0
  0
LINE
  5
126
330
1F
100
AcDbEntity
  8
3
100
AcDbLine
 10
2536.691115973809
 20
4262.502951846603
 30
0.0
 11
2085.279785975174
 21
3811.091621418629
 31
0.0
  0
LINE
  5
127
330
1F
100
AcDbEntity
  8
3
100
AcDbLine
 10
2085.279785975174
 20
3811.091621418629
 30
0.0
 11
2988.102446402714
 21
3811.091621847504
 31
0.0
  0
LINE
  5
128
330
1F
100
AcDbEntity
  8
3
100
AcDbLine
 10
2988.102446402714
 20
3811.091621847504
 30
0.0
 11
2536.691115973809
 21
4262.502951846603
 31
0.0
  0
TEXT
  5
129
330
1F
100
AcDbEntity
  8
DTXT
100
AcDbText
 10
2099.406096107385
 20
3345.075423204486
 30
0.0
 40
250.0
  1
PIER
 50
0.0000000266804264
  7
돋움체
100
AcDbText
  0
TEXT
  5
12A
330
1F
100
AcDbEntity
  8
DTXT
100
AcDbText
 10
1927.514815101225
 20
2695.586466886715
 30
0.0
 40
250.0
  1
주장율 철근
 50
0.0000000266804264
  7
돋움체
100
AcDbText
  0
LINE
  5
12B
330
1F
100
AcDbEntity
  8
BAR
100
AcDbLine
 10
1549.029448030575
 20
4900.893874792528
 30
0.0
 11
6328.759273007104
 21
4900.893877067283
 31
0.0
  0
TEXT
  5
12C
330
1F
100
AcDbEntity
  8
DTXT
100
AcDbText
 10
919.5857067611651
 20
638.9752033740806
 30
0.0
 40
250.0
  1
한곳에 1/2 이상되지 않도록 감독관의 승인을 득한후 시공할 것.
 50
0.0000000266804264
  7
돋움체
100
AcDbText
  0
TEXT
  5
12D
330
1F
100
AcDbEntity
  8
DTXT
100
AcDbText
 10
456.6319333839346
 20
115.9319256643357
 30
0.0
 40
250.0
  1
* 콘크리트 구조 설계기준 226P 참조
 50
0.0000000266804264
  7
돋움체
100
AcDbText
  0
LINE
  5
12E
330
1F
100
AcDbEntity
  8
DLINE
100
AcDbLine
 10
5254.284918169782
 20
4262.502953139745
 30
0.0
 11
5254.284915394441
 21
10093.96127471948
 31
0.0
  0
LINE
  5
12F
330
1F
100
AcDbEntity
  8
DLINE
100
AcDbLine
 10
2536.691115973809
 20
4262.502951846603
 30
0.0
 11
2536.6911143412
 21
7692.855960135029
 31
0.0
  0
LINE
  5
130
330
1F
100
AcDbEntity
  8
DLINE
  6
Continuous
100
AcDbLine
 10
3963.220333766484
 20
7500.893875941314
 30
0.0
 11
3963.220336130646
 21
2532.603300440737
 31
0.0
  0
LINE
  5
131
330
1F
100
AcDbEntity
  8
DLINE
  6
Continuous
100
AcDbLine
 10
4082.721380957693
 20
5041.392829977588
 30
0.0
 11
3843.719288802764
 21
5280.394921905041
 31
0.0
  0
TEXT
  5
132
330
1F
100
AcDbEntity
  8
DTXT
100
AcDbText
 10
7056.417234092776
 20
9592.045953544934
 30
0.0
 40
250.0
  1
(압축측)
 50
0.0000000266804264
  7
돋움체
100
AcDbText
  0
TEXT
  5
133
330
1F
100
AcDbEntity
  8
DTXT
100
AcDbText
 10
6293.569039478257
 20
3426.512245990017
 30
0.0
 40
250.0
  1
1/16이상
 50
0.0000000266804264
  7
돋움체
100
AcDbText
  0
LINE
  5
134
330
1F
100
AcDbEntity
  8
DLINE
  6
ByBlock
100
AcDbLine
 10
5334.284918666178
 20
3219.369388390012
 30
0.0
 11
9512.421816459683
 21
3219.369390378386
 31
0.0
  0
LINE
  5
135
330
1F
100
AcDbEntity
  8
BAR
100
AcDbLine
 10
1549.029447411944
 20
6200.893874792527
 30
0.0
 11
10811.71059574262
 21
6200.893879200478
 31
0.0
  0
LINE
  5
136
330
1F
100
AcDbEntity
  8
BAR
100
AcDbLine
 10
1549.029447783076
 20
5420.893874792528
 30
0.0
 11
9592.421815411944
 21
5420.893878620264
 31
0.0
  0
LINE
  5
137
330
1F
100
AcDbEntity
  8
BAR
100
AcDbLine
 10
1549.029448154208
 20
4640.893874792527
 30
0.0
 11
10811.71059648489
 21
4640.893879200477
 31
0.0
  0
TEXT
  5
138
330
1F
100
AcDbEntity
  8
DTXT
100
AcDbText
 10
456.631932678225
 20
1598.754277738888
 30
0.0
 40
250.0
  1
* 고정하중에 대한 부모멘트 저항철근(주장율철근)은 변곡점을 지나 
 50
0.0000000266804264
  7
돋움체
100
AcDbText
  0
TEXT
  5
139
330
1F
100
AcDbEntity
  8
DTXT
100
AcDbText
 10
894.0020564317819
 20
1125.608180454612
 30
0.0
 40
250.0
  1
총 철근량의 1/3을 순지간의 1/16 연장하여 배근하고 철근의 이음은 
 50
0.0000000266804264
  7
돋움체
100
AcDbText
  0
LWPOLYLINE
  5
13A
330
1F
100
AcDbEntity
  8
3
100
AcDbPolyline
 90
        4
 70
     1
 43
0.0
 10
4511.094574891788
 20
10914.99144346421
 10
5997.475255115714
 20
10914.99144417155
 10
5997.475255362981
 20
10395.24788369253
 10
4511.094575139053
 20
10395.24788298519
  0
TEXT
  5
13B
330
1F
100
AcDbEntity
  8
DTXT
100
AcDbText
 10
4744.735756005917
 20
10514.92448154106
 30
0.0
 40
250.0
  1
변곡점
 50
0.0000000266804264
  7
돋움체
100
AcDbText
  0
ENDSEC
  0
SECTION
  2
OBJECTS
  0
DICTIONARY
  5
C
330
0
100
AcDbDictionary
281
     1
  3
ACAD_COLOR
350
6B
  3
ACAD_GROUP
350
D
  3
ACAD_LAYOUT
350
1A
  3
ACAD_MATERIAL
350
6A
  3
ACAD_MLINESTYLE
350
17
  3
ACAD_PLOTSETTINGS
350
19
  3
ACAD_PLOTSTYLENAME
350
E
  3
AcDbVariableDictionary
350
5E
  0
DICTIONARY
  5
95
330
2
100
AcDbDictionary
280
     1
281
     1
  3
ACAD_LAYERSTATES
360
96
  0
DICTIONARY
  5
6B
102
{ACAD_REACTORS
330
C
102
}
330
C
100
AcDbDictionary
281
     1
  0
DICTIONARY
  5
D
102
{ACAD_REACTORS
330
C
102
}
330
C
100
AcDbDictionary
281
     1
  0
DICTIONARY
  5
1A
102
{ACAD_REACTORS
330
C
102
}
330
C
100
AcDbDictionary
281
     1
  3
Model
350
22
  3
배치1
350
51
  3
배치2
350
56
  0
DICTIONARY
  5
6A
102
{ACAD_REACTORS
330
C
102
}
330
C
100
AcDbDictionary
281
     1
  0
DICTIONARY
  5
17
102
{ACAD_REACTORS
330
C
102
}
330
C
100
AcDbDictionary
281
     1
  3
Standard
350
18
  0
DICTIONARY
  5
19
102
{ACAD_REACTORS
330
C
102
}
330
C
100
AcDbDictionary
281
     1
  0
ACDBDICTIONARYWDFLT
  5
E
102
{ACAD_REACTORS
330
C
102
}
330
C
100
AcDbDictionary
281
     1
  3
Normal
350
F
100
AcDbDictionaryWithDefault
340
F
  0
DICTIONARY
  5
5E
102
{ACAD_REACTORS
330
C
102
}
330
C
100
AcDbDictionary
281
     1
  3
DIMASSOC
350
5F
  3
HIDETEXT
350
63
  0
DICTIONARY
  5
96
102
{ACAD_REACTORS
330
95
102
}
330
95
100
AcDbDictionary
281
     1
  0
LAYOUT
  5
22
102
{ACAD_REACTORS
330
1A
102
}
330
1A
100
AcDbPlotSettings
  1

  2
none_device
  4
ANSI_A_(8.50_x_11.00_Inches)
  6

 40
6.349999904632568
 41
19.04999923706055
 42
6.350006103515625
 43
19.04998779296875
 44
215.8999938964844
 45
279.3999938964844
 46
0.0
 47
0.0
 48
0.0
 49
0.0
140
0.0
141
0.0
142
1.0
143
78.436453180766
 70
 11952
 72
     0
 73
     1
 74
     0
  7

 75
     0
147
0.0127491741332998
 76
     0
 77
     2
 78
   300
148
0.0
149
0.0
100
AcDbLayout
  1
Model
 70
     1
 71
     0
 10
0.0
 20
0.0
 11
12.0
 21
9.0
 12
0.0
 22
0.0
 32
0.0
 14
0.0
 24
0.0
 34
0.0
 15
0.0
 25
0.0
 35
0.0
146
0.0
 13
0.0
 23
0.0
 33
0.0
 16
1.0
 26
0.0
 36
0.0
 17
0.0
 27
1.0
 37
0.0
 76
     0
330
1F
  0
LAYOUT
  5
51
102
{ACAD_REACTORS
330
1A
102
}
330
1A
100
AcDbPlotSettings
  1

  2
None
  4

  6

 40
0.0
 41
0.0
 42
0.0
 43
0.0
 44
0.0
 45
0.0
 46
0.0
 47
0.0
 48
0.0
 49
0.0
140
0.0
141
0.0
142
1.0
143
1.0
 70
   688
 72
     0
 73
     0
 74
     5
  7

 75
    16
147
1.0
 76
     0
 77
     2
 78
   300
148
0.0
149
0.0
100
AcDbLayout
  1
배치1
 70
     1
 71
     1
 10
0.0
 20
0.0
 11
12.0
 21
9.0
 12
0.0
 22
0.0
 32
0.0
 14
0.0
 24
0.0
 34
0.0
 15
0.0
 25
0.0
 35
0.0
146
0.0
 13
0.0
 23
0.0
 33
0.0
 16
1.0
 26
0.0
 36
0.0
 17
0.0
 27
1.0
 37
0.0
 76
     0
330
50
  0
LAYOUT
  5
56
102
{ACAD_REACTORS
330
1A
102
}
330
1A
100
AcDbPlotSettings
  1

  2
None
  4

  6

 40
0.0
 41
0.0
 42
0.0
 43
0.0
 44
0.0
 45
0.0
 46
0.0
 47
0.0
 48
0.0
 49
0.0
140
0.0
141
0.0
142
1.0
143
1.0
 70
   688
 72
     0
 73
     0
 74
     5
  7

 75
    16
147
1.0
 76
     0
 77
     2
 78
   300
148
0.0
149
0.0
100
AcDbLayout
  1
배치2
 70
     1
 71
     2
 10
0.0
 20
0.0
 11
12.0
 21
9.0
 12
0.0
 22
0.0
 32
0.0
 14
0.0
 24
0.0
 34
0.0
 15
0.0
 25
0.0
 35
0.0
146
0.0
 13
0.0
 23
0.0
 33
0.0
 16
1.0
 26
0.0
 36
0.0
 17
0.0
 27
1.0
 37
0.0
 76
     0
330
55
  0
MLINESTYLE
  5
18
102
{ACAD_REACTORS
330
17
102
}
330
17
100
AcDbMlineStyle
  2
STANDARD
 70
     0
  3

 62
   256
 51
90.0
 52
90.0
 71
     2
 49
0.5
 62
   256
  6
BYLAYER
 49
-0.5
 62
   256
  6
BYLAYER
  0
ACDBPLACEHOLDER
  5
F
102
{ACAD_REACTORS
330
E
102
}
330
E
  0
DICTIONARYVAR
  5
5F
102
{ACAD_REACTORS
330
5E
102
}
330
5E
100
DictionaryVariables
280
     0
  1
2
  0
DICTIONARYVAR
  5
63
102
{ACAD_REACTORS
330
5E
102
}
330
5E
100
DictionaryVariables
280
     0
  1
1
  0
ENDSEC
  0
EOF
