  0
SECTION
  2
HEADER
  9
$ACADVER
  1
AC1014
  9
$ACADMAINTVER
 70
     9
  9
$DWGCODEPAGE
  3
ANSI_949
  9
$INSBASE
 10
84257.87859709723
 20
-67895.77371823088
 30
0.0
  9
$EXTMIN
 10
1301.990618758427
 20
1346.221183589226
 30
-8.352984743710372
  9
$EXTMAX
 10
15517.63242980217
 20
10533.97632336937
 30
14.12436931922083
  9
$LIMMIN
 10
-198.8358466511128
 20
-118.7484196373064
  9
$LIMMAX
 10
-186.8358466511128
 20
-109.7484196373061
  9
$ORTHOMODE
 70
     1
  9
$REGENMODE
 70
     1
  9
$FILLMODE
 70
     1
  9
$QTEXTMODE
 70
     0
  9
$MIRRTEXT
 70
     0
  9
$DRAGMODE
 70
     2
  9
$LTSCALE
 40
1000.0
  9
$OSMODE
 70
    37
  9
$ATTMODE
 70
     1
  9
$TEXTSIZE
 40
0.35
  9
$TRACEWID
 40
0.05
  9
$TEXTSTYLE
  7
STANDARD
  9
$CLAYER
  8
1
  9
$CELTYPE
  6
BYLAYER
  9
$CECOLOR
 62
     3
  9
$CELTSCALE
 40
1.0
  9
$DELOBJ
 70
     1
  9
$DISPSILH
 70
     0
  9
$DIMSCALE
 40
1.0
  9
$DIMASZ
 40
0.18
  9
$DIMEXO
 40
0.0625
  9
$DIMDLI
 40
0.38
  9
$DIMRND
 40
0.0
  9
$DIMDLE
 40
0.0
  9
$DIMEXE
 40
0.18
  9
$DIMTP
 40
0.0
  9
$DIMTM
 40
0.0
  9
$DIMTXT
 40
0.18
  9
$DIMCEN
 40
0.09
  9
$DIMTSZ
 40
0.0
  9
$DIMTOL
 70
     0
  9
$DIMLIM
 70
     0
  9
$DIMTIH
 70
     1
  9
$DIMTOH
 70
     1
  9
$DIMSE1
 70
     0
  9
$DIMSE2
 70
     0
  9
$DIMTAD
 70
     0
  9
$DIMZIN
 70
     0
  9
$DIMBLK
  1

  9
$DIMASO
 70
     1
  9
$DIMSHO
 70
     1
  9
$DIMPOST
  1

  9
$DIMAPOST
  1

  9
$DIMALT
 70
     0
  9
$DIMALTD
 70
     2
  9
$DIMALTF
 40
25.4
  9
$DIMLFAC
 40
1.0
  9
$DIMTOFL
 70
     0
  9
$DIMTVP
 40
0.0
  9
$DIMTIX
 70
     0
  9
$DIMSOXD
 70
     0
  9
$DIMSAH
 70
     0
  9
$DIMBLK1
  1

  9
$DIMBLK2
  1

  9
$DIMSTYLE
  2
STANDARD
  9
$DIMCLRD
 70
     0
  9
$DIMCLRE
 70
     0
  9
$DIMCLRT
 70
     0
  9
$DIMTFAC
 40
1.0
  9
$DIMGAP
 40
0.09
  9
$DIMJUST
 70
     0
  9
$DIMSD1
 70
     0
  9
$DIMSD2
 70
     0
  9
$DIMTOLJ
 70
     1
  9
$DIMTZIN
 70
     0
  9
$DIMALTZ
 70
     0
  9
$DIMALTTZ
 70
     0
  9
$DIMFIT
 70
     5
  9
$DIMUPT
 70
     0
  9
$DIMUNIT
 70
     2
  9
$DIMDEC
 70
     4
  9
$DIMTDEC
 70
     4
  9
$DIMALTU
 70
     2
  9
$DIMALTTD
 70
     2
  9
$DIMTXSTY
  7
GHS
  9
$DIMAUNIT
 70
     0
  9
$LUNITS
 70
     2
  9
$LUPREC
 70
     4
  9
$SKETCHINC
 40
0.05
  9
$FILLETRAD
 40
0.0
  9
$AUNITS
 70
     0
  9
$AUPREC
 70
     0
  9
$MENU
  1
C:\ACAD\ACAD
  9
$ELEVATION
 40
0.0
  9
$PELEVATION
 40
0.0
  9
$THICKNESS
 40
0.0
  9
$LIMCHECK
 70
     0
  9
$BLIPMODE
 70
     0
  9
$CHAMFERA
 40
0.05
  9
$CHAMFERB
 40
0.05
  9
$CHAMFERC
 40
0.0
  9
$CHAMFERD
 40
0.0
  9
$SKPOLY
 70
     0
  9
$TDCREATE
 40
2451208.645406944
  9
$TDUPDATE
 40
2454055.604783703
  9
$TDINDWG
 40
0.6972099421
  9
$TDUSRTIMER
 40
0.6972088194
  9
$USRTIMER
 70
     1
  9
$ANGBASE
 50
0.0
  9
$ANGDIR
 70
     0
  9
$PDMODE
 70
     0
  9
$PDSIZE
 40
0.0
  9
$PLINEWID
 40
0.0
  9
$COORDS
 70
     1
  9
$SPLFRAME
 70
     0
  9
$SPLINETYPE
 70
     6
  9
$SPLINESEGS
 70
     8
  9
$ATTDIA
 70
     0
  9
$ATTREQ
 70
     1
  9
$HANDLING
 70
 22529
  9
$HANDSEED
  5
35C5
  9
$SURFTAB1
 70
     6
  9
$SURFTAB2
 70
     6
  9
$SURFTYPE
 70
     6
  9
$SURFU
 70
     6
  9
$SURFV
 70
     6
  9
$UCSNAME
  2

  9
$UCSORG
 10
0.0
 20
0.0
 30
0.0
  9
$UCSXDIR
 10
1.0
 20
0.0
 30
0.0
  9
$UCSYDIR
 10
0.0
 20
1.0
 30
0.0
  9
$PUCSNAME
  2

  9
$PUCSORG
 10
0.0
 20
0.0
 30
0.0
  9
$PUCSXDIR
 10
1.0
 20
0.0
 30
0.0
  9
$PUCSYDIR
 10
0.0
 20
1.0
 30
0.0
  9
$USERI1
 70
     0
  9
$USERI2
 70
     0
  9
$USERI3
 70
     0
  9
$USERI4
 70
     0
  9
$USERI5
 70
  1000
  9
$USERR1
 40
0.0
  9
$USERR2
 40
0.0
  9
$USERR3
 40
0.0
  9
$USERR4
 40
0.0
  9
$USERR5
 40
0.0
  9
$WORLDVIEW
 70
     1
  9
$SHADEDGE
 70
     3
  9
$SHADEDIF
 70
    70
  9
$TILEMODE
 70
     1
  9
$MAXACTVP
 70
    16
  9
$PINSBASE
 10
90.06626261290426
 20
-0.8445861947217526
 30
54.2874285811987
  9
$PLIMCHECK
 70
     0
  9
$PEXTMIN
 10
1.000000000000000E+20
 20
1.000000000000000E+20
 30
1.000000000000000E+20
  9
$PEXTMAX
 10
-1.000000000000000E+20
 20
-1.000000000000000E+20
 30
-1.000000000000000E+20
  9
$PLIMMIN
 10
-198.8358466511128
 20
-118.7484196373064
  9
$PLIMMAX
 10
-186.8358466511128
 20
-109.7484196373061
  9
$UNITMODE
 70
     0
  9
$VISRETAIN
 70
     0
  9
$PLINEGEN
 70
     0
  9
$PSLTSCALE
 70
     0
  9
$TREEDEPTH
 70
  3020
  9
$PICKSTYLE
 70
     1
  9
$CMLSTYLE
  2
STANDARD
  9
$CMLJUST
 70
     0
  9
$CMLSCALE
 40
1.0
  9
$PROXYGRAPHICS
 70
     1
  9
$MEASUREMENT
 70
     0
  0
ENDSEC
  0
SECTION
  2
CLASSES
  0
CLASS
  1
DICTIONARYVAR
  2
AcDbDictionaryVar
  3
AutoCAD 2000
 90
        0
280
     0
281
     0
  0
CLASS
  1
ACDBDICTIONARYWDFLT
  2
AcDbDictionaryWithDefault
  3
AutoCAD 2000
 90
        0
280
     0
281
     0
  0
CLASS
  1
ACDBPLACEHOLDER
  2
AcDbPlaceHolder
  3
AutoCAD 2000
 90
        0
280
     0
281
     0
  0
CLASS
  1
LAYOUT
  2
AcDbLayout
  3
AutoCAD 2000
 90
        0
280
     0
281
     0
  0
CLASS
  1
LONG_TRANSACTION
  2
AcDbLongTransaction
  3
AutoCAD 2000
 90
        0
280
     0
281
     0
  0
CLASS
  1
LWPOLYLINE
  2
AcDbPolyline
  3
AutoCAD 2000
 90
        0
280
     0
281
     1
  0
CLASS
  1
HATCH
  2
AcDbHatch
  3
AutoCAD 2000
 90
        0
280
     0
281
     1
  0
CLASS
  1
XRECORD
  2
AcDbXrecord
  3
AutoCAD 2000
 90
        0
280
     0
281
     0
  0
ENDSEC
  0
SECTION
  2
TABLES
  0
TABLE
  2
VPORT
  5
12
330
0
100
AcDbSymbolTable
 70
     2
  0
VPORT
  5
35A1
330
12
100
AcDbSymbolTableRecord
100
AcDbViewportTableRecord
  2
*ACTIVE
 70
     0
 10
0.0
 20
0.0
 11
1.0
 21
1.0
 12
8608.647370931416
 22
6058.847173116606
 13
0.0
 23
0.0
 14
1.0
 24
1.0
 15
0.0
 25
0.0
 16
0.0
 26
0.0
 36
1.0
 17
-198.8358466511128
 27
-118.7484196373064
 37
0.0
 40
9260.194733523483
 41
1.584210526315789
 42
50.0
 43
0.0
 44
0.0
 50
0.0
 51
0.0
 71
     0
 72
   100
 73
     1
 74
     1
 75
     0
 76
     0
 77
     0
 78
     2
  0
ENDTAB
  0
TABLE
  2
LTYPE
  5
D
330
0
100
AcDbSymbolTable
 70
     2
  0
LTYPE
  5
E
330
D
100
AcDbSymbolTableRecord
100
AcDbLinetypeTableRecord
  2
BYBLOCK
 70
     0
  3

 72
    65
 73
     0
 40
0.0
  0
LTYPE
  5
F
330
D
100
AcDbSymbolTableRecord
100
AcDbLinetypeTableRecord
  2
BYLAYER
 70
     0
  3

 72
    65
 73
     0
 40
0.0
  0
LTYPE
  5
5
330
D
100
AcDbSymbolTableRecord
100
AcDbLinetypeTableRecord
  2
CONTINUOUS
 70
     0
  3
Solid line
 72
    65
 73
     0
 40
0.0
  0
LTYPE
  5
14F
330
D
100
AcDbSymbolTableRecord
100
AcDbLinetypeTableRecord
  2
HIDDEN
 70
     0
  3
__ __ __ __ __ __ __ __ __ __ __ __ __ __ __ __
 72
    65
 73
     2
 40
0.375
 49
0.25
 74
     0
 49
-0.125
 74
     0
  0
ENDTAB
  0
TABLE
  2
LAYER
  5
A
102
{ACAD_XDICTIONARY
360
9D0
102
}
330
0
100
AcDbSymbolTable
 70
     9
  0
LAYER
  5
4
330
A
100
AcDbSymbolTableRecord
100
AcDbLayerTableRecord
  2
0
 70
     0
 62
     7
  6
CONTINUOUS
1001
RAK
1000
{ACET-LAYISO
1070
     0
1070
     7
1000
CONTINUOUS
1071
       -3
1071
        1
1005
9BF
1000
ACET-LAYISO}
  0
LAYER
  5
20
330
A
100
AcDbSymbolTableRecord
100
AcDbLayerTableRecord
  2
1
 70
     0
 62
     1
  6
CONTINUOUS
1001
RAK
1000
{ACET-LAYISO
1070
     0
1070
     1
1000
CONTINUOUS
1071
       -3
1071
        1
1005
9BF
1000
ACET-LAYISO}
  0
LAYER
  5
25
330
A
100
AcDbSymbolTableRecord
100
AcDbLayerTableRecord
  2
T25
 70
     0
 62
     7
  6
CONTINUOUS
1001
RAK
1000
{ACET-LAYISO
1070
     0
1070
     7
1000
CONTINUOUS
1071
       -3
1071
        1
1005
9BF
1000
ACET-LAYISO}
  0
LAYER
  5
34
330
A
100
AcDbSymbolTableRecord
100
AcDbLayerTableRecord
  2
3
 70
     0
 62
     3
  6
CONTINUOUS
1001
RAK
1000
{ACET-LAYISO
1070
     0
1070
     3
1000
CONTINUOUS
1071
       -3
1071
        1
1005
9BF
1000
ACET-LAYISO}
  0
LAYER
  5
2E
330
A
100
AcDbSymbolTableRecord
100
AcDbLayerTableRecord
  2
4
 70
     0
 62
     1
  6
CONTINUOUS
1001
RAK
1000
{ACET-LAYISO
1070
     0
1070
     1
1000
CONTINUOUS
1071
       -3
1071
        1
1005
9BF
1000
ACET-LAYISO}
  0
LAYER
  5
19E
330
A
100
AcDbSymbolTableRecord
100
AcDbLayerTableRecord
  2
9
 70
     0
 62
     9
  6
CONTINUOUS
1001
RAK
1000
{ACET-LAYISO
1070
     0
1070
     9
1000
CONTINUOUS
1071
       -3
1071
        1
1005
9BF
1000
ACET-LAYISO}
  0
LAYER
  5
542
330
A
100
AcDbSymbolTableRecord
100
AcDbLayerTableRecord
  2
7
 70
     0
 62
     7
  6
CONTINUOUS
1001
RAK
1000
{ACET-LAYISO
1070
     0
1070
     7
1000
CONTINUOUS
1071
       -3
1071
        1
1005
9BF
1000
ACET-LAYISO}
  0
LAYER
  5
34AD
330
A
100
AcDbSymbolTableRecord
100
AcDbLayerTableRecord
  2
A_0
 70
     0
 62
     7
  6
CONTINUOUS
1001
RAK
1000
{ACET-LAYISO
1070
     0
1070
     7
1000
CONTINUOUS
1071
       -3
1071
        1
1005
9BF
1000
ACET-LAYISO}
  0
LAYER
  5
34AF
330
A
100
AcDbSymbolTableRecord
100
AcDbLayerTableRecord
  2
A_6
 70
     0
 62
     6
  6
CONTINUOUS
1001
RAK
1000
{ACET-LAYISO
1070
     0
1070
     6
1000
CONTINUOUS
1071
       -3
1071
        1
1005
9BF
1000
ACET-LAYISO}
  0
ENDTAB
  0
TABLE
  2
STYLE
  5
B
330
0
100
AcDbSymbolTable
 70
     5
  0
STYLE
  5
C
330
B
100
AcDbSymbolTableRecord
100
AcDbTextStyleTableRecord
  2
STANDARD
 70
     0
 40
0.0
 41
1.0
 50
0.0
 71
     0
 42
0.35
  3
romans.shx
  4
ghs.shx
  0
STYLE
  5
1C
330
B
100
AcDbSymbolTableRecord
100
AcDbTextStyleTableRecord
  2
GHS
 70
     0
 40
0.0
 41
1.0
 50
0.0
 71
     0
 42
3.0
  3
romans
  4
ghs
  0
STYLE
  5
73
330
B
100
AcDbSymbolTableRecord
100
AcDbTextStyleTableRecord
  2
DS
 70
     0
 40
135.0
 41
1.0
 50
0.0
 71
     0
 42
135.0
  3
romans
  4
hbrds
  0
STYLE
  5
34B0
330
B
100
AcDbSymbolTableRecord
100
AcDbTextStyleTableRecord
  2
A_STANDARD
 70
     0
 40
0.0
 41
1.0
 50
0.0
 71
     0
 42
0.0
  3
romans.shx
  4
ghs.shx
  0
STYLE
  5
34B1
330
B
100
AcDbSymbolTableRecord
100
AcDbTextStyleTableRecord
  2
TITLE1
 70
     0
 40
0.0
 41
1.0
 50
0.0
 71
     0
 42
0.0
  3
Dotum.ttf
  4

1001
ACAD
1000
Dotum
1071
    33074
  0
ENDTAB
  0
TABLE
  2
VIEW
  5
10
330
0
100
AcDbSymbolTable
 70
     0
  0
ENDTAB
  0
TABLE
  2
UCS
  5
11
330
0
100
AcDbSymbolTable
 70
     0
  0
ENDTAB
  0
TABLE
  2
APPID
  5
14
330
0
100
AcDbSymbolTable
 70
     4
  0
APPID
  5
15
330
14
100
AcDbSymbolTableRecord
100
AcDbRegAppTableRecord
  2
ACAD
 70
     0
  0
APPID
  5
2143
330
14
100
AcDbSymbolTableRecord
100
AcDbRegAppTableRecord
  2
GOUNGUL
 70
     0
  0
APPID
  5
3424
330
14
100
AcDbSymbolTableRecord
100
AcDbRegAppTableRecord
  2
RAK
 70
     0
  0
APPID
  5
34F8
330
14
100
AcDbSymbolTableRecord
100
AcDbRegAppTableRecord
  2
CONTENTBLOCKICON
 70
     0
  0
ENDTAB
  0
TABLE
  2
DIMSTYLE
  5
16
330
0
100
AcDbSymbolTable
 70
     1
  0
DIMSTYLE
105
1E
330
16
100
AcDbSymbolTableRecord
100
AcDbDimStyleTableRecord
  2
STANDARD
 70
     0
  3

  4

  5

  6

  7

 40
1.0
 41
0.18
 42
0.0625
 43
0.38
 44
0.18
 45
0.0
 46
0.0
 47
0.0
 48
0.0
140
0.18
141
0.09
142
0.0
143
25.4
144
1.0
145
0.0
146
1.0
147
0.09
 71
     0
 72
     0
 73
     1
 74
     1
 75
     0
 76
     0
 77
     0
 78
     0
170
     0
171
     2
172
     0
173
     0
174
     0
175
     0
176
     0
177
     0
178
     0
270
     2
271
     4
272
     4
273
     2
274
     2
340
1C
275
     0
280
     0
281
     0
282
     0
283
     1
284
     0
285
     0
286
     0
287
     5
288
     0
  0
ENDTAB
  0
TABLE
  2
BLOCK_RECORD
  5
1
330
0
100
AcDbSymbolTable
 70
     0
  0
BLOCK_RECORD
  5
2
102
{ACAD_XDICTIONARY
360
34EE
102
}
330
1
100
AcDbSymbolTableRecord
100
AcDbBlockTableRecord
  2
*MODEL_SPACE
  0
BLOCK_RECORD
  5
7
102
{ACAD_XDICTIONARY
360
34F0
102
}
330
1
100
AcDbSymbolTableRecord
100
AcDbBlockTableRecord
  2
*PAPER_SPACE
  0
ENDTAB
  0
ENDSEC
  0
SECTION
  2
BLOCKS
  0
BLOCK
  5
3
330
2
100
AcDbEntity
  8
0
100
AcDbBlockBegin
  2
*MODEL_SPACE
 70
     0
 10
0.0
 20
0.0
 30
0.0
  3
*MODEL_SPACE
  1

  0
ENDBLK
  5
6
330
2
100
AcDbEntity
  8
0
100
AcDbBlockEnd
  0
BLOCK
  5
8
330
7
100
AcDbEntity
 67
     1
  8
0
100
AcDbBlockBegin
  2
*PAPER_SPACE
 70
     0
 10
0.0
 20
0.0
 30
0.0
  3
*PAPER_SPACE
  1

  0
ENDBLK
  5
9
330
7
100
AcDbEntity
 67
     1
  8
0
100
AcDbBlockEnd
  0
ENDSEC
  0
SECTION
  2
ENTITIES
  0
LINE
  5
764
330
2
100
AcDbEntity
  8
A_0
100
AcDbLine
 10
15517.39253868484
 20
1346.42427175348
 30
0.0
 11
15517.39253868484
 21
10533.57572792372
 31
0.0
  0
LINE
  5
765
330
2
100
AcDbEntity
  8
4
100
AcDbLine
 10
3970.842669128666
 20
9906.189170337244
 30
0.0
 11
3970.842669128666
 21
1628.556227496369
 31
0.0
  0
LINE
  5
766
330
2
100
AcDbEntity
  8
4
100
AcDbLine
 10
1941.184891764773
 20
9906.189170337244
 30
0.0
 11
1941.184891764773
 21
1628.556227496369
 31
0.0
  0
LINE
  5
767
330
2
100
AcDbEntity
  8
4
100
AcDbLine
 10
5840.358026784123
 20
9906.189170337244
 30
0.0
 11
5840.358026784123
 21
1628.556227496369
 31
0.0
  0
LWPOLYLINE
  5
768
330
2
100
AcDbEntity
  8
A_0
100
AcDbPolyline
 90
        2
 70
     0
 43
0.0
 10
6500.971000231212
 20
10533.57572792321
 10
6500.971000231212
 20
1346.424271753229
  0
LWPOLYLINE
  5
769
330
2
100
AcDbEntity
  8
A_0
100
AcDbPolyline
 90
        2
 70
     0
 43
0.0
 10
1302.607437969831
 20
10533.57572792321
 10
1302.607437969831
 20
1346.424271753229
  0
LINE
  5
76A
330
2
100
AcDbEntity
  8
A_0
100
AcDbLine
 10
12866.61898956687
 20
1346.42427175348
 30
0.0
 11
12866.61898956687
 21
10533.57572792372
 31
0.0
  0
TEXT
  5
76C
330
2
100
AcDbEntity
  8
1
 62
     4
100
AcDbText
 10
7072.323502473567
 20
3124.685855074072
 30
-8.352642017711284
 40
54.0
  1
* NOTE :
  7
A_STANDARD
100
AcDbText
  0
TEXT
  5
76D
330
2
100
AcDbEntity
  8
1
 62
     4
100
AcDbText
 10
7217.008917419288
 20
2954.300940157138
 30
-8.352642017711284
 40
54.0
  1
1. 필렛용접은 동치수로 하는 것을 원칙으로 한다.
  7
A_STANDARD
100
AcDbText
  0
TEXT
  5
76E
330
2
100
AcDbEntity
  8
1
 62
     4
100
AcDbText
 10
7406.661008899252
 20
2542.492289286936
 30
-8.352642017711284
 40
54.0
  1
용접치수를 8mm, 
  7
A_STANDARD
100
AcDbText
  0
TEXT
  5
76F
330
2
100
AcDbEntity
  8
1
 62
     4
100
AcDbText
 10
7421.470196385651
 20
2242.015979652715
 30
-8.352642017711284
 40
54.0
  1
최대 용접목두께(8mm)로 한다.
  7
A_STANDARD
100
AcDbText
  0
TEXT
  5
770
330
2
100
AcDbEntity
  8
1
 62
     4
100
AcDbText
 10
7406.661008899252
 20
2669.113822747255
 30
-8.352642017711284
 40
54.0
  1
18mm 초과 24.5mm 이하는 용접치수를 7mm로, 24.5mm 초과 32mm 이하는
  7
A_STANDARD
100
AcDbText
  0
TEXT
  5
771
330
2
100
AcDbEntity
  8
1
 62
     4
100
AcDbText
 10
7234.149315116484
 20
2382.677677396094
 30
-8.352642017711284
 40
54.0
  1
3. 한 seg에서 용접목두께가 변화하는 경우(6mm, 7mm, 8mm)에는 한 층으로 할 수 있는
  7
A_STANDARD
100
AcDbText
  0
TEXT
  5
772
330
2
100
AcDbEntity
  8
1
 62
     4
100
AcDbText
 10
7229.252703163344
 20
2802.229998480047
 30
-8.352642017711284
 40
54.0
  1
2. 접합되는 두 모재중 두꺼운 쪽의 모재 두께가 18mm 이하는 용접치수를 6mm 로
  7
A_STANDARD
100
AcDbText
  0
LINE
  5
773
330
2
100
AcDbEntity
  8
A_0
100
AcDbLine
 10
1302.607437969831
 20
1346.424271753229
 30
0.0
 11
15517.39253868484
 21
1346.42427175348
 31
0.0
  0
LINE
  5
774
330
2
100
AcDbEntity
  8
4
100
AcDbLine
 10
1941.184891764773
 20
1628.556227496369
 30
0.0
 11
5840.358026784123
 21
1628.556227496369
 31
0.0
  0
LINE
  5
775
330
2
100
AcDbEntity
  8
7
100
AcDbLine
 10
3377.795253034892
 20
2201.315674252767
 30
-8.352642017711284
 11
3377.795253034892
 21
2116.157205501875
 31
-8.352642017711284
  0
LWPOLYLINE
  5
776
330
2
100
AcDbEntity
  8
7
100
AcDbPolyline
 90
        2
 70
     1
 43
8.515846875199992
 38
-8.35264201771284
 10
3373.537329599411
 20
2116.157205501177
 42
1.0
 10
3382.05317647461
 20
2116.157205501177
 42
1.0
  0
ARC
  5
777
330
2
100
AcDbEntity
  8
1
100
AcDbCircle
 10
3214.004718342089
 20
2110.458168118277
 30
0.0
 40
99.5744627251382
100
AcDbArc
 50
148.3619328953739
 51
208.6243031498856
  0
TEXT
  5
778
330
2
100
AcDbEntity
  8
1
 62
     4
100
AcDbText
 10
3344.712707078768
 20
2004.334272442867
 30
-8.352642017711284
 40
54.0
  1
32mm 초과
 50
90.0
  7
A_STANDARD
100
AcDbText
  0
TEXT
  5
779
330
2
100
AcDbEntity
  8
1
 62
     4
100
AcDbText
 10
3439.998574897329
 20
2004.334272442867
 30
-8.352642017711284
 40
54.0
  1
40mm 이하
 50
90.0
  7
A_STANDARD
100
AcDbText
  0
LINE
  5
77A
330
2
100
AcDbEntity
  8
3
 62
     2
100
AcDbLine
 10
2195.116816942811
 20
2201.315674252767
 30
0.0
 11
2195.116816942811
 21
2116.157205501875
 31
0.0
  0
LINE
  5
77B
330
2
100
AcDbEntity
  8
3
 62
     2
100
AcDbLine
 10
3114.593478541116
 20
2116.157205501875
 30
0.0
 11
2195.116816942811
 21
2116.157205501875
 31
0.0
  0
LWPOLYLINE
  5
77C
330
2
100
AcDbEntity
  8
7
100
AcDbPolyline
 90
        2
 70
     1
 43
8.515846875199992
 38
-8.35264201771284
 10
2630.092215652652
 20
1924.988581331961
 42
1.0
 10
2638.608062527846
 20
1924.988581331961
 42
1.0
  0
LINE
  5
77D
330
2
100
AcDbEntity
  8
7
100
AcDbLine
 10
2572.055785804753
 20
1924.988581331927
 30
-8.352642017711284
 11
2634.350139093346
 21
1924.988581331927
 31
-8.352642017711284
  0
LWPOLYLINE
  5
77E
330
2
100
AcDbEntity
  8
7
100
AcDbPolyline
 90
        2
 70
     1
 43
8.515846875199992
 38
-8.35264201771284
 10
2567.797862364844
 20
1924.988581331961
 42
1.0
 10
2576.31370924005
 20
1924.988581331961
 42
1.0
  0
TEXT
  5
77F
330
2
100
AcDbEntity
  8
1
 62
     4
100
AcDbText
 10
2577.18566342233
 20
1947.477226027766
 30
0.0
 40
54.0
  1
9
  7
DS
100
AcDbText
  0
LINE
  5
780
330
2
100
AcDbEntity
  8
7
  6
BYBLOCK
100
AcDbLine
 10
2572.055785804753
 20
2091.067403486591
 30
0.0
 11
2572.055785804753
 21
1900.407583026462
 31
0.0
  0
LINE
  5
781
330
2
100
AcDbEntity
  8
7
  6
BYBLOCK
100
AcDbLine
 10
2634.350139093346
 20
2091.067403486591
 30
0.0
 11
2634.350139093346
 21
1900.407583026462
 31
0.0
  0
LINE
  5
782
330
2
100
AcDbEntity
  8
7
  6
BYBLOCK
100
AcDbLine
 10
3180.642344469436
 20
2116.157205501875
 30
0.0
 11
3399.084870230625
 21
2116.157205501875
 31
0.0
  0
POINT
  5
783
330
2
100
AcDbEntity
  8
1
  6
BYBLOCK
100
AcDbPoint
 10
3180.62903845425
 20
2116.157205501875
 30
0.0
  0
LINE
  5
784
330
2
100
AcDbEntity
  8
3
 62
     2
100
AcDbLine
 10
2572.055785804753
 20
2952.383430204723
 30
0.0
 11
2572.055785804753
 21
2201.315674252767
 31
0.0
  0
LINE
  5
785
330
2
100
AcDbEntity
  8
3
 62
     2
100
AcDbLine
 10
2486.897317045127
 20
2980.935206891524
 30
0.0
 11
2486.897317045127
 21
2201.315674252767
 31
0.0
  0
TEXT
  5
786
330
2
100
AcDbEntity
  8
1
 62
     4
100
AcDbText
 10
2824.168388515012
 20
2203.840002411816
 30
0.0
 40
54.0
  1
9
 50
90.0
  7
DS
100
AcDbText
  0
LINE
  5
787
330
2
100
AcDbEntity
  8
7
  6
BYBLOCK
100
AcDbLine
 10
2678.210718875987
 20
2263.610027541365
 30
0.0
 11
2869.393222317788
 21
2263.610027541365
 31
0.0
  0
LINE
  5
788
330
2
100
AcDbEntity
  8
3
 62
     2
100
AcDbLine
 10
3143.094038886256
 20
2201.315674252767
 30
0.0
 11
2195.116816942811
 21
2201.315674252767
 31
0.0
  0
LWPOLYLINE
  5
789
330
2
100
AcDbEntity
  8
1
100
AcDbPolyline
 90
        2
 70
     0
 43
51.09508125119996
 10
2461.34977642511
 20
2201.315674253172
 42
-0.4142135623730951
 10
2486.897317050716
 20
2226.863214878775
  0
LWPOLYLINE
  5
78A
330
2
100
AcDbEntity
  8
1
100
AcDbPolyline
 90
        2
 70
     0
 43
51.09508125119996
 10
2597.603326428049
 20
2201.315674253172
 42
0.4142135623730951
 10
2572.055785802449
 20
2226.863214878775
  0
LINE
  5
78B
330
2
100
AcDbEntity
  8
7
  6
BYBLOCK
100
AcDbLine
 10
3209.142904814548
 20
2201.315674252767
 30
0.0
 11
3399.084870230625
 21
2201.315674252767
 31
0.0
  0
ARC
  5
78C
330
2
100
AcDbEntity
  8
1
100
AcDbCircle
 10
3044.453582637693
 20
2214.922070440735
 30
0.0
 40
99.5744627251382
100
AcDbArc
 50
328.3619328953736
 51
28.62430314988564
  0
POINT
  5
78D
330
2
100
AcDbEntity
  8
1
  6
BYBLOCK
100
AcDbPoint
 10
3209.129598811033
 20
2201.315674252767
 30
0.0
  0
LWPOLYLINE
  5
78E
330
2
100
AcDbEntity
  8
7
100
AcDbPolyline
 90
        2
 70
     1
 43
8.515846875199992
 38
-8.35264201771284
 10
2836.881292082972
 20
2201.315674253172
 42
1.0
 10
2845.397138958169
 20
2201.315674253172
 42
1.0
  0
LWPOLYLINE
  5
78F
330
2
100
AcDbEntity
  8
7
100
AcDbPolyline
 90
        2
 70
     1
 43
8.515846875199992
 38
-8.35264201771284
 10
2836.881292082948
 20
2263.610027540813
 42
1.0
 10
2845.397138958152
 20
2263.610027540813
 42
1.0
  0
LINE
  5
790
330
2
100
AcDbEntity
  8
7
100
AcDbLine
 10
2841.139215514767
 20
2201.315674252767
 30
-8.352642017711284
 11
2841.139215514767
 21
2263.610027541365
 31
-8.352642017711284
  0
LWPOLYLINE
  5
791
330
2
100
AcDbEntity
  8
7
100
AcDbPolyline
 90
        2
 70
     1
 43
8.515846875199992
 38
-8.35264201771284
 10
3373.537329599411
 20
2201.315674253172
 42
1.0
 10
3382.05317647461
 20
2201.315674253172
 42
1.0
  0
ARC
  5
792
330
2
100
AcDbEntity
  8
1
100
AcDbCircle
 10
2480.501435922688
 20
2881.566367049603
 30
0.0
 40
99.5744627251382
100
AcDbArc
 50
58.36193289537392
 51
118.6243031498855
  0
ARC
  5
793
330
2
100
AcDbEntity
  8
1
100
AcDbCircle
 10
2584.965338248076
 20
3051.117502755444
 30
0.0
 40
99.5744627251382
100
AcDbArc
 50
238.3619328953739
 51
298.6243031498856
  0
LINE
  5
794
330
2
100
AcDbEntity
  8
7
100
AcDbLine
 10
5409.021790993628
 20
2194.161379989309
 30
-8.352642017711284
 11
5409.021790993628
 21
2109.002911236967
 31
-8.352642017711284
  0
LWPOLYLINE
  5
795
330
2
100
AcDbEntity
  8
7
100
AcDbPolyline
 90
        2
 70
     1
 43
8.515846875199992
 38
-8.35264201771284
 10
5404.763867552252
 20
2109.002911237395
 42
1.0
 10
5413.279714427448
 20
2109.002911237395
 42
1.0
  0
ARC
  5
796
330
2
100
AcDbEntity
  8
1
100
AcDbCircle
 10
5223.496382641344
 20
2103.303873854817
 30
0.0
 40
99.5744627251382
100
AcDbArc
 50
148.3619328953739
 51
208.6243031498856
  0
TEXT
  5
797
330
2
100
AcDbEntity
  8
1
 62
     4
100
AcDbText
 10
5471.092168023989
 20
2004.334272442867
 30
-8.352642017711284
 40
54.0
  1
40mm 이하
 50
90.0
  7
A_STANDARD
100
AcDbText
  0
TEXT
  5
798
330
2
100
AcDbEntity
  8
1
 62
     4
100
AcDbText
 10
5375.806300205432
 20
2004.334272442867
 30
-8.352642017711284
 40
54.0
  1
32mm 초과
 50
90.0
  7
A_STANDARD
100
AcDbText
  0
LINE
  5
799
330
2
100
AcDbEntity
  8
3
 62
     2
100
AcDbLine
 10
4204.608481230432
 20
2194.161379989309
 30
0.0
 11
4204.608481230432
 21
2109.002911236967
 31
0.0
  0
LINE
  5
79A
330
2
100
AcDbEntity
  8
3
 62
     2
100
AcDbLine
 10
5124.085142828751
 20
2109.002911236967
 30
0.0
 11
4204.608481230432
 21
2109.002911236967
 31
0.0
  0
POINT
  5
79B
330
2
100
AcDbEntity
  8
1
  6
BYBLOCK
100
AcDbPoint
 10
5190.120702753532
 20
2109.002911236967
 30
0.0
  0
LINE
  5
79C
330
2
100
AcDbEntity
  8
7
  6
BYBLOCK
100
AcDbLine
 10
5190.134008757052
 20
2109.002911236967
 30
0.0
 11
5430.311408177716
 21
2109.002911236967
 31
0.0
  0
LINE
  5
79D
330
2
100
AcDbEntity
  8
3
 62
     2
100
AcDbLine
 10
4581.547450092368
 20
2945.229135941267
 30
0.0
 11
4581.547450092368
 21
2194.161379989309
 31
0.0
  0
LINE
  5
79E
330
2
100
AcDbEntity
  8
3
 62
     2
100
AcDbLine
 10
4496.388981344392
 20
2973.780912628067
 30
0.0
 11
4496.388981344392
 21
2194.161379989309
 31
0.0
  0
LINE
  5
79F
330
2
100
AcDbEntity
  8
7
100
AcDbLine
 10
4581.547450092368
 20
2194.161379986398
 30
0.0
 11
4721.789072539868
 21
2400.272086900148
 31
0.0
  0
LINE
  5
7A0
330
2
100
AcDbEntity
  8
3
 62
     2
100
AcDbLine
 10
5152.585703185512
 20
2194.161379989309
 30
0.0
 11
4204.608481230432
 21
2194.161379989309
 31
0.0
  0
LINE
  5
7A1
330
2
100
AcDbEntity
  8
7
100
AcDbLine
 10
4926.536504509607
 20
2336.403235336256
 30
0.0
 11
4926.536504509607
 21
2464.140938464045
 31
0.0
  0
LINE
  5
7A2
330
2
100
AcDbEntity
  8
7
100
AcDbLine
 10
4990.405356073488
 20
2400.272086900148
 30
0.0
 11
4926.536504509607
 21
2336.403235336256
 31
0.0
  0
LWPOLYLINE
  5
7A3
330
2
100
AcDbEntity
  8
7
100
AcDbPolyline
 90
        2
 70
     1
 43
8.515846875199992
 38
-8.35264201771284
 10
5404.763867552252
 20
2194.161379989707
 42
1.0
 10
5413.279714427448
 20
2194.161379989707
 42
1.0
  0
ARC
  5
7A4
330
2
100
AcDbEntity
  8
1
100
AcDbCircle
 10
5053.945246925324
 20
2207.767776177277
 30
0.0
 40
99.5744627251382
100
AcDbArc
 50
328.3619328953736
 51
28.62430314988564
  0
POINT
  5
7A5
330
2
100
AcDbEntity
  8
4
  6
BYBLOCK
100
AcDbPoint
 10
5218.621263098648
 20
2194.161379989309
 30
0.0
  0
LINE
  5
7A6
330
2
100
AcDbEntity
  8
7
  6
BYBLOCK
100
AcDbLine
 10
5218.634569113832
 20
2194.161379989309
 30
0.0
 11
5430.311408177716
 21
2194.161379989309
 31
0.0
  0
LINE
  5
7A7
330
2
100
AcDbEntity
  8
7
100
AcDbLine
 10
4721.789072539868
 20
2400.272086900148
 30
0.0
 11
5069.478956090512
 21
2400.272086900148
 31
0.0
  0
LINE
  5
7A8
330
2
100
AcDbEntity
  8
7
100
AcDbLine
 10
4926.536504509607
 20
2464.140938464045
 30
0.0
 11
4990.405356073488
 21
2400.272086900148
 31
0.0
  0
TEXT
  5
7A9
330
2
100
AcDbEntity
  8
1
 62
     4
100
AcDbText
 10
4796.609760871828
 20
2429.395067966905
 30
0.0
 40
54.0
  1
9
  7
DS
100
AcDbText
  0
ARC
  5
7AA
330
2
100
AcDbEntity
  8
1
100
AcDbCircle
 10
4594.457002547327
 20
3043.963208491987
 30
0.0
 40
99.5744627251382
100
AcDbArc
 50
238.3619328953739
 51
298.6243031498856
  0
ARC
  5
7AB
330
2
100
AcDbEntity
  8
1
100
AcDbCircle
 10
4489.993100221948
 20
2874.412072784689
 30
0.0
 40
99.5744627251382
100
AcDbArc
 50
58.36193289537392
 51
118.6243031498855
  0
LINE
  5
7AC
330
2
100
AcDbEntity
  8
4
100
AcDbLine
 10
1941.184891764773
 20
3734.656081064974
 30
0.0
 11
5840.358026784123
 21
3734.656081064974
 31
0.0
  0
ARC
  5
7AD
330
2
100
AcDbEntity
  8
1
100
AcDbCircle
 10
3254.920913364951
 20
4355.549651972324
 30
0.0
 40
99.5744627251382
100
AcDbArc
 50
148.3619328953739
 51
208.6243031498856
  0
TEXT
  5
7AE
330
2
100
AcDbEntity
  8
1
 62
     4
100
AcDbText
 10
3430.010443196845
 20
4239.952393291764
 30
-8.352642017711284
 40
54.0
  1
32mm 이하
 50
90.0
  7
A_STANDARD
100
AcDbText
  0
TEXT
  5
7AF
330
2
100
AcDbEntity
  8
1
 62
     4
100
AcDbText
 10
3362.291277867971
 20
4242.046580778043
 30
-8.352642017711284
 40
54.0
  1
24.5mm 초과 
 50
90.0
  7
A_STANDARD
100
AcDbText
  0
LINE
  5
7B0
330
2
100
AcDbEntity
  8
4
  6
BYBLOCK
100
AcDbLine
 10
2612.97198081599
 20
4345.40016990366
 30
0.0
 11
2612.97198081599
 21
4154.740349443532
 31
0.0
  0
LINE
  5
7B1
330
2
100
AcDbEntity
  8
4
  6
BYBLOCK
100
AcDbLine
 10
2675.266334104586
 20
4345.40016990366
 30
0.0
 11
2675.266334104586
 21
4154.740349443532
 31
0.0
  0
TEXT
  5
7B2
330
2
100
AcDbEntity
  8
3
 62
     4
100
AcDbText
 10
2308.676368631192
 20
3375.303398486066
 30
-8.352642017711284
 40
63.86885156399996
  1
두꺼운 쪽의 두께가
  7
A_STANDARD
100
AcDbText
  0
TEXT
  5
7B3
330
2
100
AcDbEntity
  8
3
 62
     4
100
AcDbText
 10
2309.477582671449
 20
3248.958032055889
 30
-8.352642017711284
 40
63.86885156399996
  1
34mm 이상인 경우
  7
A_STANDARD
100
AcDbText
  0
LWPOLYLINE
  5
7B4
330
2
100
AcDbEntity
  8
4
100
AcDbPolyline
 90
        2
 70
     1
 43
8.515846875199992
 38
-8.35264201771284
 10
2671.008410670129
 20
4190.198887780844
 42
1.0
 10
2679.524257545309
 20
4190.198887780844
 42
1.0
  0
LWPOLYLINE
  5
7B5
330
2
100
AcDbEntity
  8
4
100
AcDbPolyline
 90
        2
 70
     1
 43
8.515846875199992
 38
-8.35264201771284
 10
2608.714057382389
 20
4190.198887780844
 42
1.0
 10
2617.229904257573
 20
4190.198887780844
 42
1.0
  0
LINE
  5
7B6
330
2
100
AcDbEntity
  8
4
100
AcDbLine
 10
2612.97198081599
 20
4190.198887781376
 30
-8.352642017711284
 11
2675.266334104586
 21
4190.198887781376
 31
-8.352642017711284
  0
TEXT
  5
7B7
330
2
100
AcDbEntity
  8
1
 62
     4
100
AcDbText
 10
2618.101858433572
 20
4212.771406800388
 30
0.0
 40
54.0
  1
8
  7
DS
100
AcDbText
  0
LINE
  5
7B8
330
2
100
AcDbEntity
  8
3
 62
     2
100
AcDbLine
 10
2612.97198081599
 20
5197.474914057316
 30
0.0
 11
2612.97198081599
 21
4446.40715810681
 31
0.0
  0
LINE
  5
7B9
330
2
100
AcDbEntity
  8
3
 62
     2
100
AcDbLine
 10
2527.813512068014
 20
5226.026690745568
 30
0.0
 11
2527.813512068014
 21
4446.40715810681
 31
0.0
  0
LINE
  5
7BA
330
2
100
AcDbEntity
  8
7
  6
BYBLOCK
100
AcDbLine
 10
2719.126913887214
 20
4508.701511393956
 30
0.0
 11
2910.30941732903
 21
4508.701511393956
 31
0.0
  0
TEXT
  5
7BB
330
2
100
AcDbEntity
  8
1
 62
     4
100
AcDbText
 10
2863.249020690329
 20
4448.931486264412
 30
0.0
 40
54.0
  1
8
 50
90.0
  7
DS
100
AcDbText
  0
LINE
  5
7BC
330
2
100
AcDbEntity
  8
3
 62
     2
100
AcDbLine
 10
3155.509673552328
 20
4361.248689354474
 30
0.0
 11
2236.033011954036
 21
4361.248689354474
 31
0.0
  0
LINE
  5
7BD
330
2
100
AcDbEntity
  8
3
 62
     2
100
AcDbLine
 10
3184.01023390911
 20
4446.40715810681
 30
0.0
 11
2236.033011954036
 21
4446.40715810681
 31
0.0
  0
LINE
  5
7BE
330
2
100
AcDbEntity
  8
3
 62
     2
100
AcDbLine
 10
2236.033011954036
 20
4446.40715810681
 30
0.0
 11
2236.033011954036
 21
4361.248689354474
 31
0.0
  0
LWPOLYLINE
  5
7BF
330
2
100
AcDbEntity
  8
4
100
AcDbPolyline
 90
        2
 70
     0
 43
51.09508125119996
 10
2502.265971442628
 20
4446.407158106468
 42
-0.4142135623730951
 10
2527.813512068219
 20
4471.954698732068
 42
-1.0
  0
LWPOLYLINE
  5
7C0
330
2
100
AcDbEntity
  8
4
100
AcDbPolyline
 90
        2
 70
     0
 43
51.09508125119996
 10
2638.519521445576
 20
4446.407158106468
 42
0.4142135623730951
 10
2612.97198081997
 20
4471.954698732068
 42
1.0
  0
LINE
  5
7C1
330
2
100
AcDbEntity
  8
7
  6
BYBLOCK
100
AcDbLine
 10
3221.558539480648
 20
4361.248689354474
 30
0.0
 11
3479.571102005166
 21
4361.248689354474
 31
0.0
  0
LINE
  5
7C2
330
2
100
AcDbEntity
  8
7
  6
BYBLOCK
100
AcDbLine
 10
3250.059099837429
 20
4446.40715810681
 30
0.0
 11
3479.571102005166
 21
4446.40715810681
 31
0.0
  0
ARC
  5
7C3
330
2
100
AcDbEntity
  8
1
100
AcDbCircle
 10
3085.369777660579
 20
4460.013554293328
 30
0.0
 40
99.5744627251382
100
AcDbArc
 50
328.3619328953736
 51
28.62430314988564
  0
POINT
  5
7C4
330
2
100
AcDbEntity
  8
4
  6
BYBLOCK
100
AcDbPoint
 10
3221.545233477127
 20
4361.248689354474
 30
0.0
  0
POINT
  5
7C5
330
2
100
AcDbEntity
  8
4
  6
BYBLOCK
100
AcDbPoint
 10
3250.045793822256
 20
4446.40715810681
 30
0.0
  0
LWPOLYLINE
  5
7C6
330
2
100
AcDbEntity
  8
7
100
AcDbPolyline
 90
        2
 70
     1
 43
8.515846875199992
 38
-8.35264201771284
 10
2883.809971908037
 20
4446.407158106468
 42
1.0
 10
2892.325818783229
 20
4446.407158106468
 42
1.0
  0
LWPOLYLINE
  5
7C7
330
2
100
AcDbEntity
  8
7
100
AcDbPolyline
 90
        2
 70
     1
 43
8.515846875199992
 38
-8.35264201771284
 10
2883.809971908037
 20
4508.701511394104
 42
1.0
 10
2892.325818783229
 20
4508.701511394104
 42
1.0
  0
LINE
  5
7C8
330
2
100
AcDbEntity
  8
7
100
AcDbLine
 10
2888.067895341436
 20
4508.701511393956
 30
-8.352642017711284
 11
2888.067895341436
 21
4446.40715810681
 31
-8.352642017711284
  0
LINE
  5
7C9
330
2
100
AcDbEntity
  8
7
100
AcDbLine
 10
3458.281484809445
 20
4446.40715810681
 30
-8.352642017711284
 11
3458.281484809445
 21
4361.248689354474
 31
-8.352642017711284
  0
LWPOLYLINE
  5
7CA
330
2
100
AcDbEntity
  8
7
100
AcDbPolyline
 90
        2
 70
     1
 43
8.515846875199992
 38
-8.35264201771284
 10
3454.023561376692
 20
4361.248689354467
 42
1.0
 10
3462.539408251892
 20
4361.248689354467
 42
1.0
  0
LWPOLYLINE
  5
7CB
330
2
100
AcDbEntity
  8
7
100
AcDbPolyline
 90
        2
 70
     1
 43
8.515846875199992
 38
-8.35264201771284
 10
3454.023561376692
 20
4446.407158106468
 42
1.0
 10
3462.539408251892
 20
4446.407158106468
 42
1.0
  0
ARC
  5
7CC
330
2
100
AcDbEntity
  8
1
100
AcDbCircle
 10
2521.417630945553
 20
5126.657850902192
 30
0.0
 40
99.5744627251382
100
AcDbArc
 50
58.36193289537392
 51
118.6243031498855
  0
ARC
  5
7CD
330
2
100
AcDbEntity
  8
1
100
AcDbCircle
 10
2625.881533270931
 20
5296.208986609492
 30
0.0
 40
99.5744627251382
100
AcDbArc
 50
238.3619328953739
 51
298.6243031498856
  0
ARC
  5
7CE
330
2
100
AcDbEntity
  8
1
100
AcDbCircle
 10
5243.994955152484
 20
4352.303617997748
 30
0.0
 40
99.5744627251382
100
AcDbArc
 50
148.3619328953739
 51
208.6243031498856
  0
TEXT
  5
7CF
330
2
100
AcDbEntity
  8
1
 62
     4
100
AcDbText
 10
5403.014755800592
 20
4204.598538049392
 30
-8.352642017711284
 40
54.0
  1
 32mm 이하
 50
90.0
  7
A_STANDARD
100
AcDbText
  0
TEXT
  5
7D0
330
2
100
AcDbEntity
  8
1
 62
     4
100
AcDbText
 10
5335.295590460072
 20
4242.046580778043
 30
-8.352642017711284
 40
54.0
  1
24.5mm 초과 
 50
90.0
  7
A_STANDARD
100
AcDbText
  0
LINE
  5
7D1
330
2
100
AcDbEntity
  8
3
 62
     2
100
AcDbLine
 10
4602.046022603512
 20
5194.228880084192
 30
0.0
 11
4602.046022603512
 21
4443.16112413224
 31
0.0
  0
LINE
  5
7D2
330
2
100
AcDbEntity
  8
3
 62
     2
100
AcDbLine
 10
4516.887553855536
 20
5222.780656770996
 30
0.0
 11
4516.887553855536
 21
4443.16112413224
 31
0.0
  0
LINE
  5
7D3
330
2
100
AcDbEntity
  8
7
100
AcDbLine
 10
4602.046022603512
 20
4443.161124127871
 30
0.0
 11
4742.287645039364
 21
4649.27183104308
 31
0.0
  0
LINE
  5
7D4
330
2
100
AcDbEntity
  8
3
 62
     2
100
AcDbLine
 10
5144.583715339868
 20
4358.002655379896
 30
0.0
 11
4225.107053741568
 21
4358.002655379896
 31
0.0
  0
LINE
  5
7D5
330
2
100
AcDbEntity
  8
3
 62
     2
100
AcDbLine
 10
5173.084275696652
 20
4443.16112413224
 30
0.0
 11
4225.107053741568
 21
4443.16112413224
 31
0.0
  0
LINE
  5
7D6
330
2
100
AcDbEntity
  8
3
 62
     2
100
AcDbLine
 10
4225.107053741568
 20
4443.16112413224
 30
0.0
 11
4225.107053741568
 21
4358.002655379896
 31
0.0
  0
LINE
  5
7D7
330
2
100
AcDbEntity
  8
7
100
AcDbLine
 10
4947.035077020748
 20
4585.402979479184
 30
0.0
 11
4947.035077020748
 21
4713.140682606976
 31
0.0
  0
LINE
  5
7D8
330
2
100
AcDbEntity
  8
7
100
AcDbLine
 10
5010.903928584648
 20
4649.27183104308
 30
0.0
 11
4947.035077020748
 21
4585.402979479184
 31
0.0
  0
LINE
  5
7D9
330
2
100
AcDbEntity
  8
7
100
AcDbLine
 10
5433.716606679124
 20
4443.16112413224
 30
-8.352642017711284
 11
5433.716606679124
 21
4358.002655379896
 31
-8.352642017711284
  0
LWPOLYLINE
  5
7DA
330
2
100
AcDbEntity
  8
7
100
AcDbPolyline
 90
        2
 70
     1
 43
8.515846875199992
 38
-8.35264201771284
 10
5429.458683240228
 20
4443.161124132276
 42
1.0
 10
5437.974530115428
 20
4443.161124132276
 42
1.0
  0
LWPOLYLINE
  5
7DB
330
2
100
AcDbEntity
  8
7
100
AcDbPolyline
 90
        2
 70
     1
 43
8.515846875199992
 10
5429.458683240228
 20
4358.002655380268
 42
-1.0
 10
5437.974530115428
 20
4358.002655380268
 42
-1.0
  0
ARC
  5
7DC
330
2
100
AcDbEntity
  8
1
100
AcDbCircle
 10
5074.443819436472
 20
4456.767520320208
 30
0.0
 40
99.5744627251382
100
AcDbArc
 50
328.3619328953736
 51
28.62430314988564
  0
POINT
  5
7DD
330
2
100
AcDbEntity
  8
1
  6
BYBLOCK
100
AcDbPoint
 10
5210.619275264668
 20
4358.002655379896
 30
0.0
  0
POINT
  5
7DE
330
2
100
AcDbEntity
  8
4
  6
BYBLOCK
100
AcDbPoint
 10
5239.119835609796
 20
4443.16112413224
 30
0.0
  0
LINE
  5
7DF
330
2
100
AcDbEntity
  8
7
  6
BYBLOCK
100
AcDbLine
 10
5210.632581268193
 20
4358.002655379896
 30
0.0
 11
5455.006223863216
 21
4358.002655379896
 31
0.0
  0
LINE
  5
7E0
330
2
100
AcDbEntity
  8
7
  6
BYBLOCK
100
AcDbLine
 10
5239.133141624948
 20
4443.16112413224
 30
0.0
 11
5455.006223863216
 21
4443.16112413224
 31
0.0
  0
LINE
  5
7E1
330
2
100
AcDbEntity
  8
7
100
AcDbLine
 10
4742.287645039364
 20
4649.27183104308
 30
0.0
 11
5089.977528601624
 21
4649.27183104308
 31
0.0
  0
LINE
  5
7E2
330
2
100
AcDbEntity
  8
7
100
AcDbLine
 10
4947.035077020748
 20
4713.140682606976
 30
0.0
 11
5010.903928584648
 21
4649.27183104308
 31
0.0
  0
TEXT
  5
7E3
330
2
100
AcDbEntity
  8
1
 62
     4
100
AcDbText
 10
4817.108333382988
 20
4678.394812109835
 30
0.0
 40
54.0
  1
8
  7
DS
100
AcDbText
  0
ARC
  5
7E4
330
2
100
AcDbEntity
  8
1
100
AcDbCircle
 10
4614.955575058448
 20
5292.96295263492
 30
0.0
 40
99.5744627251382
100
AcDbArc
 50
238.3619328953739
 51
298.6243031498856
  0
ARC
  5
7E5
330
2
100
AcDbEntity
  8
1
100
AcDbCircle
 10
4510.491672733084
 20
5123.41181692762
 30
0.0
 40
99.5744627251382
100
AcDbArc
 50
58.36193289537392
 51
118.6243031498855
  0
TEXT
  5
81A
330
2
100
AcDbEntity
  8
1
 62
     4
100
AcDbText
 10
8349.331911669258
 20
2525.669239732351
 30
-8.352642017711284
 40
54.0
  1
 32mm 초과 40mm 이하는 용접치수를 9mm로 한다.
  7
A_STANDARD
100
AcDbText
  0
LINE
  5
832
330
2
100
AcDbEntity
  8
A_0
100
AcDbLine
 10
15517.39253868484
 20
10533.57572792372
 30
0.0
 11
1302.607437967293
 21
10533.57572792372
 31
0.0
  0
LINE
  5
833
330
2
100
AcDbEntity
  8
A_0
100
AcDbLine
 10
1302.607437967293
 20
10132.13428648229
 30
0.0
 11
15517.39253868484
 21
10132.13428648229
 31
0.0
  0
TEXT
  5
834
330
2
100
AcDbEntity
  8
9
 62
     4
100
AcDbText
 10
7065.020455479452
 20
9303.338260522632
 30
4.708008759736252
 40
85.15846875199995
  1
* 필렛용접
  7
A_STANDARD
100
AcDbText
  0
TEXT
  5
836
330
2
100
AcDbEntity
  8
3
 62
     4
100
AcDbText
 10
4630.912238806248
 20
9756.145258707773
 30
-8.352642017711284
 40
79.99999999999996
  1
표   기
  7
A_STANDARD
100
AcDbText
  0
TEXT
  5
837
330
2
100
AcDbEntity
  8
3
 62
     4
100
AcDbText
 10
2699.63434748793
 20
9756.145258707773
 30
-8.352642017711284
 40
79.99999999999996
  1
모   양
  7
A_STANDARD
100
AcDbText
  0
TEXT
  5
838
330
2
100
AcDbEntity
  8
3
 62
     4
100
AcDbText
 10
2291.592422376611
 20
5488.999540598964
 30
-8.352642017711284
 40
63.86885156399996
  1
24.5mm 초과 34mm이하인 경우
  7
A_STANDARD
100
AcDbText
  0
LINE
  5
839
330
2
100
AcDbEntity
  8
4
100
AcDbLine
 10
1941.184891764773
 20
5888.97259493686
 30
0.0
 11
5840.358026784123
 21
5888.97259493686
 31
0.0
  0
TEXT
  5
83A
330
2
100
AcDbEntity
  8
3
 62
     4
100
AcDbText
 10
2291.592422376611
 20
7391.159742359085
 30
-8.352642017711284
 40
63.86885156399996
  1
18mm 초과 24.5mm이하인 경우
  7
A_STANDARD
100
AcDbText
  0
TEXT
  5
83B
330
2
100
AcDbEntity
  8
1
 62
     4
100
AcDbText
 10
3430.010443196845
 20
6106.758739809524
 30
-8.352642017711284
 40
54.0
  1
 24.5mm 이하
 50
90.0
  7
A_STANDARD
100
AcDbText
  0
LINE
  5
83C
330
2
100
AcDbEntity
  8
3
 62
     2
100
AcDbLine
 10
2527.813512068014
 20
7128.186892505692
 30
0.0
 11
2527.813512068014
 21
6348.567359866945
 31
0.0
  0
LINE
  5
83D
330
2
100
AcDbEntity
  8
3
 62
     2
100
AcDbLine
 10
2612.97198081599
 20
7099.635115817441
 30
0.0
 11
2612.97198081599
 21
6348.567359866945
 31
0.0
  0
TEXT
  5
83E
330
2
100
AcDbEntity
  8
3
 62
     4
100
AcDbText
 10
2303.392925071295
 20
5620.394882340121
 30
-8.352642017711284
 40
63.86885156399996
  1
두꺼운 쪽의 두께가
  7
A_STANDARD
100
AcDbText
  0
TEXT
  5
83F
330
2
100
AcDbEntity
  8
1
 62
     4
100
AcDbText
 10
2863.249020690329
 20
6351.091688024536
 30
0.0
 40
54.0
  1
7
 50
90.0
  7
DS
100
AcDbText
  0
LINE
  5
840
330
2
100
AcDbEntity
  8
7
  6
BYBLOCK
100
AcDbLine
 10
2719.126913887214
 20
6410.861713154083
 30
0.0
 11
2910.30941732903
 21
6410.861713154083
 31
0.0
  0
LINE
  5
841
330
2
100
AcDbEntity
  8
3
 62
     2
100
AcDbLine
 10
3184.01023390911
 20
6348.567359866945
 30
0.0
 11
2236.033011954036
 21
6348.567359866945
 31
0.0
  0
LINE
  5
842
330
2
100
AcDbEntity
  8
3
 62
     2
100
AcDbLine
 10
3155.509673552328
 20
6263.4088911146
 30
0.0
 11
2236.033011954036
 21
6263.4088911146
 31
0.0
  0
LINE
  5
843
330
2
100
AcDbEntity
  8
7
  6
BYBLOCK
100
AcDbLine
 10
2612.97198081599
 20
6247.560371663792
 30
0.0
 11
2612.97198081599
 21
6056.90055120366
 31
0.0
  0
LINE
  5
844
330
2
100
AcDbEntity
  8
7
  6
BYBLOCK
100
AcDbLine
 10
2675.266334104586
 20
6247.560371663792
 30
0.0
 11
2675.266334104586
 21
6056.90055120366
 31
0.0
  0
LWPOLYLINE
  5
845
330
2
100
AcDbEntity
  8
7
100
AcDbPolyline
 90
        2
 70
     1
 43
8.515846875199992
 38
-8.35264201771284
 10
2671.008410670129
 20
6092.359089540972
 42
1.0
 10
2679.524257545309
 20
6092.359089540972
 42
1.0
  0
LWPOLYLINE
  5
846
330
2
100
AcDbEntity
  8
7
100
AcDbPolyline
 90
        2
 70
     1
 43
8.515846875199992
 38
-8.35264201771284
 10
2608.714057382389
 20
6092.359089540972
 42
1.0
 10
2617.229904257573
 20
6092.359089540972
 42
1.0
  0
LINE
  5
847
330
2
100
AcDbEntity
  8
7
100
AcDbLine
 10
2612.97198081599
 20
6092.3590895415
 30
-8.352642017711284
 11
2675.266334104586
 21
6092.3590895415
 31
-8.352642017711284
  0
TEXT
  5
848
330
2
100
AcDbEntity
  8
1
 62
     4
100
AcDbText
 10
2618.101858433572
 20
6114.931608560516
 30
0.0
 40
54.0
  1
7
  7
DS
100
AcDbText
  0
LINE
  5
849
330
2
100
AcDbEntity
  8
3
 62
     2
100
AcDbLine
 10
2236.033011954036
 20
6348.567359866945
 30
0.0
 11
2236.033011954036
 21
6263.4088911146
 31
0.0
  0
LWPOLYLINE
  5
84A
330
2
100
AcDbEntity
  8
1
100
AcDbPolyline
 90
        2
 70
     0
 43
51.09508125119996
 10
2502.265971442628
 20
6348.567359866592
 42
-0.4142135623730951
 10
2527.813512068219
 20
6374.114900492187
 42
-1.0
  0
LWPOLYLINE
  5
84B
330
2
100
AcDbEntity
  8
1
100
AcDbPolyline
 90
        2
 70
     0
 43
51.09508125119996
 10
2638.519521445576
 20
6348.567359866592
 42
0.4142135623730951
 10
2612.97198081997
 20
6374.114900492187
 42
1.0
  0
ARC
  5
84C
330
2
100
AcDbEntity
  8
1
100
AcDbCircle
 10
3254.920913364951
 20
6257.709853732453
 30
0.0
 40
99.5744627251382
100
AcDbArc
 50
148.3619328953739
 51
208.6243031498856
  0
TEXT
  5
84D
330
2
100
AcDbEntity
  8
1
 62
     4
100
AcDbText
 10
3362.291277867971
 20
6144.206782538168
 30
-8.352642017711284
 40
54.0
  1
18mm 초과 
 50
90.0
  7
A_STANDARD
100
AcDbText
  0
LINE
  5
84E
330
2
100
AcDbEntity
  8
7
  6
BYBLOCK
100
AcDbLine
 10
3250.059099837429
 20
6348.567359866945
 30
0.0
 11
3479.571102005166
 21
6348.567359866945
 31
0.0
  0
LINE
  5
84F
330
2
100
AcDbEntity
  8
7
  6
BYBLOCK
100
AcDbLine
 10
3221.558539480648
 20
6263.4088911146
 30
0.0
 11
3479.571102005166
 21
6263.4088911146
 31
0.0
  0
ARC
  5
850
330
2
100
AcDbEntity
  8
1
100
AcDbCircle
 10
3085.369777660579
 20
6362.173756053454
 30
0.0
 40
99.5744627251382
100
AcDbArc
 50
328.3619328953736
 51
28.62430314988564
  0
POINT
  5
851
330
2
100
AcDbEntity
  8
4
  6
BYBLOCK
100
AcDbPoint
 10
3250.045793822256
 20
6348.567359866945
 30
0.0
  0
POINT
  5
852
330
2
100
AcDbEntity
  8
4
  6
BYBLOCK
100
AcDbPoint
 10
3221.545233477127
 20
6263.4088911146
 30
0.0
  0
LWPOLYLINE
  5
853
330
2
100
AcDbEntity
  8
7
100
AcDbPolyline
 90
        2
 70
     1
 43
8.515846875199992
 38
-8.35264201771284
 10
2883.809971908037
 20
6410.861713154229
 42
1.0
 10
2892.325818783229
 20
6410.861713154229
 42
1.0
  0
LINE
  5
854
330
2
100
AcDbEntity
  8
7
100
AcDbLine
 10
2888.067895341436
 20
6410.861713154083
 30
-8.352642017711284
 11
2888.067895341436
 21
6348.567359866945
 31
-8.352642017711284
  0
LWPOLYLINE
  5
855
330
2
100
AcDbEntity
  8
7
100
AcDbPolyline
 90
        2
 70
     1
 43
8.515846875199992
 38
-8.35264201771284
 10
2883.809971908037
 20
6348.567359866592
 42
1.0
 10
2892.325818783229
 20
6348.567359866592
 42
1.0
  0
LWPOLYLINE
  5
856
330
2
100
AcDbEntity
  8
7
100
AcDbPolyline
 90
        2
 70
     1
 43
8.515846875199992
 38
-8.35264201771284
 10
3454.023561376692
 20
6263.408891114587
 42
1.0
 10
3462.539408251892
 20
6263.408891114587
 42
1.0
  0
LWPOLYLINE
  5
857
330
2
100
AcDbEntity
  8
7
100
AcDbPolyline
 90
        2
 70
     1
 43
8.515846875199992
 38
-8.35264201771284
 10
3454.023561376692
 20
6348.567359866592
 42
1.0
 10
3462.539408251892
 20
6348.567359866592
 42
1.0
  0
LINE
  5
858
330
2
100
AcDbEntity
  8
7
100
AcDbLine
 10
3458.281484809445
 20
6348.567359866945
 30
-8.352642017711284
 11
3458.281484809445
 21
6263.4088911146
 31
-8.352642017711284
  0
TEXT
  5
859
330
2
100
AcDbEntity
  8
3
 62
     4
100
AcDbText
 10
2303.392925071295
 20
7522.555084100244
 30
-8.352642017711284
 40
63.86885156399996
  1
두꺼운 쪽의 두께가
  7
A_STANDARD
100
AcDbText
  0
ARC
  5
85A
330
2
100
AcDbEntity
  8
1
100
AcDbCircle
 10
2521.417630945553
 20
7028.818052662325
 30
0.0
 40
99.5744627251382
100
AcDbArc
 50
58.36193289537392
 51
118.6243031498855
  0
ARC
  5
85B
330
2
100
AcDbEntity
  8
1
100
AcDbCircle
 10
2625.881533270931
 20
7198.369188369622
 30
0.0
 40
99.5744627251382
100
AcDbArc
 50
238.3619328953739
 51
298.6243031498856
  0
LINE
  5
85C
330
2
100
AcDbEntity
  8
7
100
AcDbLine
 10
5010.903928584648
 20
6551.432032803198
 30
0.0
 11
4947.035077020748
 21
6487.563181239311
 31
0.0
  0
LINE
  5
85D
330
2
100
AcDbEntity
  8
7
100
AcDbLine
 10
4947.035077020748
 20
6487.563181239311
 30
0.0
 11
4947.035077020748
 21
6615.3008843671
 31
0.0
  0
LINE
  5
85E
330
2
100
AcDbEntity
  8
7
100
AcDbLine
 10
4602.046022603512
 20
6345.321325888001
 30
0.0
 11
4742.287645039364
 21
6551.432032803198
 31
0.0
  0
LINE
  5
85F
330
2
100
AcDbEntity
  8
3
 62
     2
100
AcDbLine
 10
4516.887553855536
 20
7124.94085853112
 30
0.0
 11
4516.887553855536
 21
6345.321325892371
 31
0.0
  0
LINE
  5
860
330
2
100
AcDbEntity
  8
3
 62
     2
100
AcDbLine
 10
4602.046022603512
 20
7096.389081844323
 30
0.0
 11
4602.046022603512
 21
6345.321325892371
 31
0.0
  0
TEXT
  5
861
330
2
100
AcDbEntity
  8
1
 62
     4
100
AcDbText
 10
5403.014755800592
 20
6106.758739809524
 30
-8.352642017711284
 40
54.0
  1
 24.5mm 이하
 50
90.0
  7
A_STANDARD
100
AcDbText
  0
LINE
  5
862
330
2
100
AcDbEntity
  8
3
 62
     2
100
AcDbLine
 10
5173.084275696652
 20
6345.321325892371
 30
0.0
 11
4225.107053741568
 21
6345.321325892371
 31
0.0
  0
LINE
  5
863
330
2
100
AcDbEntity
  8
3
 62
     2
100
AcDbLine
 10
5144.583715339868
 20
6260.162857140024
 30
0.0
 11
4225.107053741568
 21
6260.162857140024
 31
0.0
  0
LINE
  5
864
330
2
100
AcDbEntity
  8
3
 62
     2
100
AcDbLine
 10
4225.107053741568
 20
6345.321325892371
 30
0.0
 11
4225.107053741568
 21
6260.162857140024
 31
0.0
  0
ARC
  5
865
330
2
100
AcDbEntity
  8
1
100
AcDbCircle
 10
5243.994955152484
 20
6254.46381975788
 30
0.0
 40
99.5744627251382
100
AcDbArc
 50
148.3619328953739
 51
208.6243031498856
  0
TEXT
  5
866
330
2
100
AcDbEntity
  8
1
 62
     4
100
AcDbText
 10
5335.295590460072
 20
6144.206782538168
 30
-8.352642017711284
 40
54.0
  1
18mm 초과 
 50
90.0
  7
A_STANDARD
100
AcDbText
  0
LINE
  5
867
330
2
100
AcDbEntity
  8
7
100
AcDbLine
 10
5433.716606679124
 20
6345.321325892371
 30
-8.352642017711284
 11
5433.716606679124
 21
6260.162857140024
 31
-8.352642017711284
  0
LWPOLYLINE
  5
868
330
2
100
AcDbEntity
  8
7
100
AcDbPolyline
 90
        2
 70
     1
 43
8.515846875199992
 38
-8.35264201771284
 10
5429.458683240228
 20
6345.321325892403
 42
1.0
 10
5437.974530115428
 20
6345.321325892403
 42
1.0
  0
LWPOLYLINE
  5
869
330
2
100
AcDbEntity
  8
7
100
AcDbPolyline
 90
        2
 70
     1
 43
8.515846875199992
 10
5429.458683240228
 20
6260.1628571404
 42
-1.0
 10
5437.974530115428
 20
6260.1628571404
 42
-1.0
  0
ARC
  5
86A
330
2
100
AcDbEntity
  8
1
100
AcDbCircle
 10
5074.443819436472
 20
6358.927722080336
 30
0.0
 40
99.5744627251382
100
AcDbArc
 50
328.3619328953736
 51
28.62430314988564
  0
POINT
  5
86B
330
2
100
AcDbEntity
  8
4
  6
BYBLOCK
100
AcDbPoint
 10
5210.619275264668
 20
6260.162857140024
 30
0.0
  0
POINT
  5
86C
330
2
100
AcDbEntity
  8
4
  6
BYBLOCK
100
AcDbPoint
 10
5239.119835609796
 20
6345.321325892371
 30
0.0
  0
LINE
  5
86D
330
2
100
AcDbEntity
  8
7
  6
BYBLOCK
100
AcDbLine
 10
5210.632581268193
 20
6260.162857140024
 30
0.0
 11
5455.006223863216
 21
6260.162857140024
 31
0.0
  0
LINE
  5
86E
330
2
100
AcDbEntity
  8
7
  6
BYBLOCK
100
AcDbLine
 10
5239.133141624948
 20
6345.321325892371
 30
0.0
 11
5455.006223863216
 21
6345.321325892371
 31
0.0
  0
LINE
  5
86F
330
2
100
AcDbEntity
  8
7
100
AcDbLine
 10
4742.287645039364
 20
6551.432032803198
 30
0.0
 11
5089.977528601624
 21
6551.432032803198
 31
0.0
  0
LINE
  5
870
330
2
100
AcDbEntity
  8
7
100
AcDbLine
 10
4947.035077020748
 20
6615.3008843671
 30
0.0
 11
5010.903928584648
 21
6551.432032803198
 31
0.0
  0
TEXT
  5
871
330
2
100
AcDbEntity
  8
1
 62
     4
100
AcDbText
 10
4817.108333382988
 20
6580.555013869965
 30
0.0
 40
54.0
  1
7
  7
DS
100
AcDbText
  0
ARC
  5
872
330
2
100
AcDbEntity
  8
1
100
AcDbCircle
 10
4614.955575058448
 20
7195.123154395044
 30
0.0
 40
99.5744627251382
100
AcDbArc
 50
238.3619328953739
 51
298.6243031498856
  0
ARC
  5
873
330
2
100
AcDbEntity
  8
1
100
AcDbCircle
 10
4510.491672733084
 20
7025.572018687751
 30
0.0
 40
99.5744627251382
100
AcDbArc
 50
58.36193289537392
 51
118.6243031498855
  0
LINE
  5
874
330
2
100
AcDbEntity
  8
4
100
AcDbLine
 10
1941.184891764773
 20
9693.292998457115
 30
0.0
 11
5840.358026784123
 21
9693.292998457115
 31
0.0
  0
LINE
  5
875
330
2
100
AcDbEntity
  8
4
100
AcDbLine
 10
1941.184891764773
 20
7791.132796696992
 30
0.0
 11
5840.358026784123
 21
7791.132796696992
 31
0.0
  0
LINE
  5
876
330
2
100
AcDbEntity
  8
3
 62
     2
100
AcDbLine
 10
2507.379671097485
 20
9134.436390416592
 30
0.0
 11
2507.379671097485
 21
8354.816857777848
 31
0.0
  0
LINE
  5
877
330
2
100
AcDbEntity
  8
3
 62
     2
100
AcDbLine
 10
2592.538139845468
 20
9105.8846137298
 30
0.0
 11
2592.538139845468
 21
8354.816857777848
 31
0.0
  0
TEXT
  5
878
330
2
100
AcDbEntity
  8
1
 62
     4
100
AcDbText
 10
3430.010443196845
 20
8101.457798373376
 30
-8.352642017711284
 40
54.0
  1
 18mm 이하
 50
90.0
  7
A_STANDARD
100
AcDbText
  0
LINE
  5
879
330
2
100
AcDbEntity
  8
7
  6
BYBLOCK
100
AcDbLine
 10
2592.538139845468
 20
8251.737087946169
 30
0.0
 11
2592.538139845468
 21
8061.077267486037
 31
0.0
  0
LINE
  5
87A
330
2
100
AcDbEntity
  8
7
  6
BYBLOCK
100
AcDbLine
 10
2654.832493134072
 20
8251.737087946169
 30
0.0
 11
2654.832493134072
 21
8061.077267486037
 31
0.0
  0
LINE
  5
87B
330
2
100
AcDbEntity
  8
7
100
AcDbLine
 10
2592.538139845468
 20
8089.459188688564
 30
-8.352642017711284
 11
2654.832493134072
 21
8089.459188688564
 31
-8.352642017711284
  0
LWPOLYLINE
  5
87C
330
2
100
AcDbEntity
  8
7
100
AcDbPolyline
 90
        2
 70
     1
 43
8.515846875199992
 38
-8.35264201771284
 10
2588.280216410049
 20
8089.459188689273
 42
1.0
 10
2596.796063285256
 20
8089.459188689273
 42
1.0
  0
LWPOLYLINE
  5
87D
330
2
100
AcDbEntity
  8
7
100
AcDbPolyline
 90
        2
 70
     1
 43
8.515846875199992
 38
-8.35264201771284
 10
2650.574569698166
 20
8089.459188689273
 42
1.0
 10
2659.090416573391
 20
8089.459188689273
 42
1.0
  0
TEXT
  5
87E
330
2
100
AcDbEntity
  8
1
 62
     4
100
AcDbText
 10
2597.668017463051
 20
8109.209738236753
 30
0.0
 40
54.0
  1
6
  7
DS
100
AcDbText
  0
LINE
  5
87F
330
2
100
AcDbEntity
  8
7
  6
BYBLOCK
100
AcDbLine
 10
2698.693072916718
 20
8417.111211066446
 30
0.0
 11
2889.875576358538
 21
8417.111211066446
 31
0.0
  0
TEXT
  5
880
330
2
100
AcDbEntity
  8
1
 62
     4
100
AcDbText
 10
2847.701363945127
 20
8357.341185936896
 30
0.0
 40
54.0
  1
6
 50
90.0
  7
DS
100
AcDbText
  0
LINE
  5
881
330
2
100
AcDbEntity
  8
3
 62
     2
100
AcDbLine
 10
3242.17094920317
 20
8354.816857777848
 30
0.0
 11
2215.599170983534
 21
8354.816857777848
 31
0.0
  0
LINE
  5
882
330
2
100
AcDbEntity
  8
3
 62
     2
100
AcDbLine
 10
3213.670388846409
 20
8269.658389025504
 30
0.0
 11
2215.599170983534
 21
8269.658389025504
 31
0.0
  0
LINE
  5
883
330
2
100
AcDbEntity
  8
3
 62
     2
100
AcDbLine
 10
2215.599170983534
 20
8354.816857777848
 30
0.0
 11
2215.599170983534
 21
8269.658389025504
 31
0.0
  0
LWPOLYLINE
  5
884
330
2
100
AcDbEntity
  8
1
100
AcDbPolyline
 90
        2
 70
     0
 43
51.09508125119996
 10
2618.085680473258
 20
8354.816857778137
 42
0.4142135623730951
 10
2592.538139847652
 20
8380.364398403738
 42
1.0
  0
LWPOLYLINE
  5
885
330
2
100
AcDbEntity
  8
1
100
AcDbPolyline
 90
        2
 70
     0
 43
51.09508125119996
 10
2481.832130470304
 20
8354.816857778137
 42
-0.4142135623730951
 10
2507.379671095907
 20
8380.364398403738
 42
-1.0
  0
ARC
  5
886
330
2
100
AcDbEntity
  8
1
100
AcDbCircle
 10
3313.081628659033
 20
8263.959351643356
 30
0.0
 40
99.5744627251382
100
AcDbArc
 50
148.3619328953739
 51
208.6243031498856
  0
ARC
  5
887
330
2
100
AcDbEntity
  8
1
100
AcDbCircle
 10
3143.530492954628
 20
8368.423253965811
 30
0.0
 40
99.5744627251382
100
AcDbArc
 50
328.3619328953736
 51
28.62430314988564
  0
LWPOLYLINE
  5
888
330
2
100
AcDbEntity
  8
7
100
AcDbPolyline
 90
        2
 70
     1
 43
8.515846875199992
 38
-8.35264201771284
 10
2860.45815868039
 20
8417.111211065796
 42
1.0
 10
2868.974005555587
 20
8417.111211065796
 42
1.0
  0
LWPOLYLINE
  5
889
330
2
100
AcDbEntity
  8
7
100
AcDbPolyline
 90
        2
 70
     1
 43
8.515846875199992
 38
-8.35264201771284
 10
2860.45815868039
 20
8354.816857778137
 42
1.0
 10
2868.974005555587
 20
8354.816857778137
 42
1.0
  0
LINE
  5
88A
330
2
100
AcDbEntity
  8
7
100
AcDbLine
 10
2864.716082117291
 20
8354.816857777848
 30
-8.352642017711284
 11
2864.716082117291
 21
8417.111211066446
 31
-8.352642017711284
  0
LWPOLYLINE
  5
88B
330
2
100
AcDbEntity
  8
7
100
AcDbPolyline
 90
        2
 70
     1
 43
8.515846875199992
 38
-8.35264201771284
 10
3484.119884359652
 20
8354.816857778137
 42
1.0
 10
3492.635731234828
 20
8354.816857778137
 42
1.0
  0
LINE
  5
88C
330
2
100
AcDbEntity
  8
7
100
AcDbLine
 10
3488.377807794346
 20
8354.816857777848
 30
-8.352642017711284
 11
3488.377807794346
 21
8269.658389025504
 31
-8.352642017711284
  0
LINE
  5
88D
330
2
100
AcDbEntity
  8
7
  6
BYBLOCK
100
AcDbLine
 10
3280.326746408589
 20
8354.816857777848
 30
0.0
 11
3509.66742499009
 21
8354.816857777848
 31
0.0
  0
LINE
  5
88E
330
2
100
AcDbEntity
  8
7
  6
BYBLOCK
100
AcDbLine
 10
3279.719254786368
 20
8269.658389025504
 30
0.0
 11
3509.66742499009
 21
8269.658389025504
 31
0.0
  0
POINT
  5
88F
330
2
100
AcDbEntity
  8
4
  6
BYBLOCK
100
AcDbPoint
 10
3280.313440393408
 20
8354.816857777848
 30
0.0
  0
POINT
  5
890
330
2
100
AcDbEntity
  8
4
  6
BYBLOCK
100
AcDbPoint
 10
3279.70594877119
 20
8269.658389025504
 30
0.0
  0
LWPOLYLINE
  5
891
330
2
100
AcDbEntity
  8
7
100
AcDbPolyline
 90
        2
 70
     1
 43
8.515846875199992
 10
3484.119884359652
 20
8269.658389026139
 42
-1.0
 10
3492.635731234828
 20
8269.658389026139
 42
-1.0
  0
ARC
  5
892
330
2
100
AcDbEntity
  8
1
100
AcDbCircle
 10
2500.983789975046
 20
9035.067550573227
 30
0.0
 40
99.5744627251382
100
AcDbArc
 50
58.36193289537392
 51
118.6243031498855
  0
ARC
  5
893
330
2
100
AcDbEntity
  8
1
100
AcDbCircle
 10
2605.447692300433
 20
9204.618686280523
 30
0.0
 40
99.5744627251382
100
AcDbArc
 50
238.3619328953739
 51
298.6243031498856
  0
TEXT
  5
894
330
2
100
AcDbEntity
  8
3
 62
     4
100
AcDbText
 10
2302.22641694569
 20
9292.251589865269
 30
-8.352642017711284
 40
63.86885156399996
  1
18mm 이하인 경우
  7
A_STANDARD
100
AcDbText
  0
TEXT
  5
895
330
2
100
AcDbEntity
  8
3
 62
     4
100
AcDbText
 10
2331.767473967969
 20
9428.696877173281
 30
-8.352642017711284
 40
63.86885156399996
  1
두꺼운 쪽의 두께가
  7
A_STANDARD
100
AcDbText
  0
LINE
  5
896
330
2
100
AcDbEntity
  8
7
100
AcDbLine
 10
4919.262199725256
 20
8746.055129735108
 30
0.0
 11
4983.131051289132
 21
8682.186278171212
 31
0.0
  0
LINE
  5
897
330
2
100
AcDbEntity
  8
7
100
AcDbLine
 10
4919.262199725256
 20
8618.317426607324
 30
0.0
 11
4919.262199725256
 21
8746.055129735108
 31
0.0
  0
TEXT
  5
898
330
2
100
AcDbEntity
  8
1
 62
     4
100
AcDbText
 10
4789.335456087473
 20
8711.309259237976
 30
0.0
 40
54.0
  1
6
  7
DS
100
AcDbText
  0
LINE
  5
899
330
2
100
AcDbEntity
  8
3
 62
     2
100
AcDbLine
 10
4489.114676560031
 20
9255.695103899123
 30
0.0
 11
4489.114676560031
 21
8476.075571260377
 31
0.0
  0
LINE
  5
89A
330
2
100
AcDbEntity
  8
3
 62
     2
100
AcDbLine
 10
4574.273145319652
 20
9227.143327212329
 30
0.0
 11
4574.273145319652
 21
8476.075571260377
 31
0.0
  0
LINE
  5
89B
330
2
100
AcDbEntity
  8
7
100
AcDbLine
 10
4574.273145308008
 20
8476.075571257466
 30
0.0
 11
4714.514767755512
 21
8682.186278171212
 31
0.0
  0
LINE
  5
89C
330
2
100
AcDbEntity
  8
3
 62
     2
100
AcDbLine
 10
5181.570889700433
 20
8476.075571260377
 30
0.0
 11
4197.334176446076
 21
8476.075571260377
 31
0.0
  0
LINE
  5
89D
330
2
100
AcDbEntity
  8
3
 62
     2
100
AcDbLine
 10
5153.070329343652
 20
8390.917102508032
 30
0.0
 11
4197.334176446076
 21
8390.917102508032
 31
0.0
  0
LINE
  5
89E
330
2
100
AcDbEntity
  8
3
 62
     2
100
AcDbLine
 10
4197.334176446076
 20
8476.075571260377
 30
0.0
 11
4197.334176446076
 21
8390.917102508032
 31
0.0
  0
LINE
  5
89F
330
2
100
AcDbEntity
  8
7
100
AcDbLine
 10
5442.203220682908
 20
8476.075571260377
 30
-8.352642017711284
 11
5442.203220682908
 21
8390.917102508032
 31
-8.352642017711284
  0
ARC
  5
8A0
330
2
100
AcDbEntity
  8
4
100
AcDbCircle
 10
5082.930433451892
 20
8489.681967448348
 30
0.0
 40
99.5744627251382
100
AcDbArc
 50
328.3619328953736
 51
28.62430314988564
  0
TEXT
  5
8A1
330
2
100
AcDbEntity
  8
1
 62
     4
100
AcDbText
 10
5403.014755800592
 20
8217.347317033349
 30
-8.352642017711284
 40
54.0
  1
 18mm 이하
 50
90.0
  7
A_STANDARD
100
AcDbText
  0
POINT
  5
8A2
330
2
100
AcDbEntity
  8
4
  6
BYBLOCK
100
AcDbPoint
 10
5219.105889268432
 20
8390.917102508032
 30
0.0
  0
LINE
  5
8A3
330
2
100
AcDbEntity
  8
7
  6
BYBLOCK
100
AcDbLine
 10
5219.119195271975
 20
8390.917102508032
 30
0.0
 11
5463.492837866988
 21
8390.917102508032
 31
0.0
  0
ARC
  5
8A4
330
2
100
AcDbEntity
  8
4
100
AcDbCircle
 10
5252.481569156268
 20
8385.218065125888
 30
0.0
 40
99.5744627251382
100
AcDbArc
 50
148.3619328953739
 51
208.6243031498856
  0
LWPOLYLINE
  5
8A5
330
2
100
AcDbEntity
  8
7
100
AcDbPolyline
 90
        2
 70
     1
 43
8.515846875199992
 10
5437.945297245488
 20
8390.917102508669
 42
-1.0
 10
5446.461144120693
 20
8390.917102508669
 42
-1.0
  0
LINE
  5
8A6
330
2
100
AcDbEntity
  8
7
100
AcDbLine
 10
4714.514767755512
 20
8682.186278171212
 30
0.0
 11
5062.204651317768
 21
8682.186278171212
 31
0.0
  0
LINE
  5
8A7
330
2
100
AcDbEntity
  8
7
100
AcDbLine
 10
4983.131051289132
 20
8682.186278171212
 30
0.0
 11
4919.262199725256
 21
8618.317426607324
 31
0.0
  0
LWPOLYLINE
  5
8A8
330
2
100
AcDbEntity
  8
7
100
AcDbPolyline
 90
        2
 70
     1
 43
8.515846875199992
 38
-8.35264201771284
 10
5437.945297245488
 20
8476.075571260668
 42
1.0
 10
5446.461144120693
 20
8476.075571260668
 42
1.0
  0
POINT
  5
8A9
330
2
100
AcDbEntity
  8
4
  6
BYBLOCK
100
AcDbPoint
 10
5247.606449613571
 20
8476.075571260377
 30
0.0
  0
LINE
  5
8AA
330
2
100
AcDbEntity
  8
7
  6
BYBLOCK
100
AcDbLine
 10
5247.619755628751
 20
8476.075571260377
 30
0.0
 11
5463.492837866988
 21
8476.075571260377
 31
0.0
  0
ARC
  5
8AB
330
2
100
AcDbEntity
  8
1
100
AcDbCircle
 10
4587.182697762948
 20
9325.877399763049
 30
0.0
 40
99.5744627251382
100
AcDbArc
 50
238.3619328953739
 51
298.6243031498856
  0
ARC
  5
8AC
330
2
100
AcDbEntity
  8
1
100
AcDbCircle
 10
4482.718795437587
 20
9156.326264055751
 30
0.0
 40
99.5744627251382
100
AcDbArc
 50
58.36193289537392
 51
118.6243031498855
  0
LINE
  5
8AE
330
2
100
AcDbEntity
  8
4
100
AcDbLine
 10
1941.184891764773
 20
9906.189170337244
 30
0.0
 11
5840.358026784123
 21
9906.189170337244
 31
0.0
  0
TEXT
  5
8AF
330
2
100
AcDbEntity
  8
T25
 62
     6
100
AcDbText
 10
2291.772449446932
 20
10239.93462258327
 30
0.0
 40
140.0
  1
필렛 용접 (FILLET WELDING)
  7
A_STANDARD
100
AcDbText
  0
LINE
  5
8CE
330
2
100
AcDbEntity
  8
3
 62
     2
100
AcDbLine
 10
10962.11487648665
 20
7069.924527988508
 30
4.708008759736252
 11
10962.11487648665
 21
7434.711981609608
 31
4.708008759736252
  0
LINE
  5
8CF
330
2
100
AcDbEntity
  8
3
 62
     2
100
AcDbLine
 10
9412.276254001849
 20
7432.878477009683
 30
4.708008759736252
 11
9412.276254001849
 21
7127.498255794955
 31
4.708008759736252
  0
LINE
  5
8D0
330
2
100
AcDbEntity
  8
3
 62
     2
100
AcDbLine
 10
9351.10027050957
 20
7432.878477009683
 30
4.708008759736252
 11
9351.10027050957
 21
7127.498255794955
 31
4.708008759736252
  0
LINE
  5
8D1
330
2
100
AcDbEntity
  8
4
  6
HIDDEN
 62
     2
100
AcDbLine
 10
8548.875128665295
 20
7690.031233532967
 30
4.708008759736252
 11
8548.875128665295
 21
7402.006661530788
 31
4.708008759736252
  0
LINE
  5
8D2
330
2
100
AcDbEntity
  8
3
 62
     2
100
AcDbLine
 10
8610.051112145944
 20
7690.031233532967
 30
4.708008759736252
 11
8610.051112145944
 21
7402.006661530788
 31
4.708008759736252
  0
LINE
  5
8D3
330
2
100
AcDbEntity
  8
3
 62
     2
100
AcDbLine
 10
7918.710806478128
 20
7416.82221428174
 30
4.708008759736252
 11
7918.710806478128
 21
7172.506094202725
 31
4.708008759736252
  0
LINE
  5
8D4
330
2
100
AcDbEntity
  8
3
 62
     2
100
AcDbLine
 10
7979.886789970414
 20
7416.82221428174
 30
4.708008759736252
 11
7979.886789970414
 21
7127.498255794955
 31
4.708008759736252
  0
LINE
  5
8D5
330
2
100
AcDbEntity
  8
4
  6
HIDDEN
 62
     2
100
AcDbLine
 10
7918.710806478128
 20
7172.506094202725
 30
4.708008759736252
 11
8548.875128665295
 21
7445.715113453944
 31
4.708008759736252
  0
LINE
  5
8D6
330
2
100
AcDbEntity
  8
3
 62
     2
100
AcDbLine
 10
10232.21317785917
 20
7434.711981609608
 30
4.708008759736252
 11
10232.21317785917
 21
7069.924527988508
 31
4.708008759736252
  0
LINE
  5
8D7
330
2
100
AcDbEntity
  8
7
100
AcDbLine
 10
10705.3794857709
 20
6963.913083853284
 30
4.708008759736252
 11
10909.39462266522
 21
6963.913083853284
 31
4.708008759736252
  0
LINE
  5
8D8
330
2
100
AcDbEntity
  8
7
100
AcDbLine
 10
10832.90112108348
 20
7016.460455901425
 30
4.708008759736252
 11
10874.76115500445
 21
6963.913083853284
 31
4.708008759736252
  0
LINE
  5
8D9
330
2
100
AcDbEntity
  8
7
100
AcDbLine
 10
10832.90112108348
 20
5429.089593345956
 30
4.708008759736252
 11
10874.76115500445
 21
5376.54222129782
 31
4.708008759736252
  0
LINE
  5
8DA
330
2
100
AcDbEntity
  8
7
100
AcDbLine
 10
10832.90112108348
 20
5323.994849251132
 30
4.708008759736252
 11
10874.76115500445
 21
5376.54222129782
 31
4.708008759736252
  0
LINE
  5
8DB
330
2
100
AcDbEntity
  8
7
100
AcDbLine
 10
10705.3794857709
 20
5376.54222129782
 30
4.708008759736252
 11
10909.39462266522
 21
5376.54222129782
 31
4.708008759736252
  0
LINE
  5
8DC
330
2
100
AcDbEntity
  8
3
 62
     2
100
AcDbLine
 10
10232.21317785917
 20
5482.55366543304
 30
4.708008759736252
 11
10962.11487648665
 21
5482.55366543304
 31
4.708008759736252
  0
LINE
  5
8DD
330
2
100
AcDbEntity
  8
3
 62
     2
100
AcDbLine
 10
10232.21317785917
 20
5540.127393239482
 30
4.708008759736252
 11
10962.11487648665
 21
5540.127393239482
 31
4.708008759736252
  0
LINE
  5
8DE
330
2
100
AcDbEntity
  8
3
 62
     2
100
AcDbLine
 10
10962.11487648665
 20
5847.341119054135
 30
4.708008759736252
 11
10232.21317785917
 21
5847.341119054135
 31
4.708008759736252
  0
LINE
  5
8DF
330
2
100
AcDbEntity
  8
3
 62
     2
100
AcDbLine
 10
10232.21317785917
 20
7127.498255794955
 30
4.708008759736252
 11
10962.11487648665
 21
7127.498255794955
 31
4.708008759736252
  0
LINE
  5
8E0
330
2
100
AcDbEntity
  8
3
 62
     2
100
AcDbLine
 10
10232.21317785917
 20
7069.924527988508
 30
4.708008759736252
 11
10962.11487648665
 21
7069.924527988508
 31
4.708008759736252
  0
LINE
  5
8E1
330
2
100
AcDbEntity
  8
3
 62
     2
100
AcDbLine
 10
7979.886789970414
 20
5845.507614454212
 30
4.708008759736252
 11
7979.886789970414
 21
5582.706627614932
 31
4.708008759736252
  0
LINE
  5
8E2
330
2
100
AcDbEntity
  8
3
 62
     2
100
AcDbLine
 10
7918.710806478128
 20
5845.507614454212
 30
4.708008759736252
 11
7918.710806478128
 21
5569.921426322212
 31
4.708008759736252
  0
LINE
  5
8E3
330
2
100
AcDbEntity
  8
3
 62
     2
100
AcDbLine
 10
8205.373491196729
 20
5482.55366543304
 30
4.708008759736252
 11
8875.569108653655
 21
5773.118333896811
 31
4.708008759736252
  0
LINE
  5
8E4
330
2
100
AcDbEntity
  8
3
 62
     2
100
AcDbLine
 10
8205.373491196729
 20
5540.127393239482
 30
4.708008759736252
 11
8875.569108653655
 21
5830.69206170326
 31
4.708008759736252
  0
LINE
  5
8E5
330
2
100
AcDbEntity
  8
3
 62
     2
100
AcDbLine
 10
7979.886789970414
 20
5582.706627614932
 30
4.708008759736252
 11
8610.051112145944
 21
5855.915646866152
 31
4.708008759736252
  0
LINE
  5
8E6
330
2
100
AcDbEntity
  8
3
 62
     2
100
AcDbLine
 10
8022.466024350213
 20
5540.127393239482
 30
4.708008759736252
 11
8692.661641807145
 21
5830.69206170326
 31
4.708008759736252
  0
LINE
  5
8E7
330
2
100
AcDbEntity
  8
3
 62
     2
100
AcDbLine
 10
8022.466024350213
 20
5540.127393239482
 30
4.708008759736252
 11
8205.373491196729
 21
5540.127393239482
 31
4.708008759736252
  0
LINE
  5
8E8
330
2
100
AcDbEntity
  8
3
 62
     2
100
AcDbLine
 10
7735.917807173755
 20
5482.55366543304
 30
4.708008759736252
 11
8205.373491196729
 21
5482.55366543304
 31
4.708008759736252
  0
LINE
  5
8E9
330
2
100
AcDbEntity
  8
3
 62
     2
100
AcDbLine
 10
7735.917807173755
 20
5540.127393239482
 30
4.708008759736252
 11
7735.917807173755
 21
5482.55366543304
 31
4.708008759736252
  0
LINE
  5
8EA
330
2
100
AcDbEntity
  8
3
 62
     2
100
AcDbLine
 10
7869.943009585904
 20
5540.127393239482
 30
4.708008759736252
 11
7735.917807173755
 21
5540.127393239482
 31
4.708008759736252
  0
LINE
  5
8EB
330
2
100
AcDbEntity
  8
3
 62
     2
100
AcDbLine
 10
7735.917807173755
 20
5540.127393239482
 30
4.708008759736252
 11
7918.710806478128
 21
5619.377668618064
 31
4.708008759736252
  0
ARC
  5
8EC
330
2
100
AcDbEntity
  8
4
 62
     2
100
AcDbCircle
 10
7909.707714222668
 20
5565.131851049912
 30
4.708008759736252
 40
46.97291395417104
100
AcDbArc
 50
212.1621063741395
 51
311.916659327296
  0
ARC
  5
8ED
330
2
100
AcDbEntity
  8
4
 62
     2
100
AcDbCircle
 10
8006.652288733812
 20
5505.741116126552
 30
4.708008759736252
 40
81.48669758341132
100
AcDbArc
 50
109.175611844579
 51
143.5718465780317
  0
ARC
  5
8EE
330
2
100
AcDbEntity
  8
4
 62
     2
100
AcDbCircle
 10
7908.540026949548
 20
5531.759936174744
 30
4.708008759736252
 40
39.49359551392856
100
AcDbArc
 50
34.49952238818141
 51
167.768114161035
  0
ARC
  5
8EF
330
2
100
AcDbEntity
  8
4
 62
     2
100
AcDbCircle
 10
7973.621603405408
 20
5601.860651239944
 30
4.708008759736252
 40
78.71958206685052
100
AcDbArc
 50
245.5885900023973
 51
308.3516542007647
  0
LINE
  5
8F0
330
2
100
AcDbEntity
  8
4
 62
     2
100
AcDbLine
 10
7979.886789970414
 20
5582.706627614932
 30
4.708008759736252
 11
8022.466024350213
 21
5540.127393239482
 31
4.708008759736252
  0
LINE
  5
8F1
330
2
100
AcDbEntity
  8
3
 62
     2
100
AcDbLine
 10
8205.373491196729
 20
5540.127393239482
 30
4.708008759736252
 11
8205.373491196729
 21
5482.55366543304
 31
4.708008759736252
  0
LINE
  5
8F2
330
2
100
AcDbEntity
  8
3
 62
     2
100
AcDbLine
 10
7979.886789970414
 20
5845.507614454212
 30
4.708008759736252
 11
8610.051112145944
 21
6118.716633705435
 31
4.708008759736252
  0
LINE
  5
8F3
330
2
100
AcDbEntity
  8
3
 62
     2
100
AcDbLine
 10
7918.710806478128
 20
5845.507614454212
 30
4.708008759736252
 11
8548.875128665295
 21
6118.716633705435
 31
4.708008759736252
  0
LINE
  5
8F4
330
2
100
AcDbEntity
  8
3
 62
     2
100
AcDbLine
 10
7918.710806478128
 20
5845.507614454212
 30
4.708008759736252
 11
7979.886789970414
 21
5845.507614454212
 31
4.708008759736252
  0
LINE
  5
8F5
330
2
100
AcDbEntity
  8
3
 62
     2
100
AcDbLine
 10
8610.051112145944
 20
6118.716633705435
 30
4.708008759736252
 11
8610.051112145944
 21
5855.915646866152
 31
4.708008759736252
  0
LINE
  5
8F6
330
2
100
AcDbEntity
  8
3
 62
     2
100
AcDbLine
 10
8610.051112145944
 20
5855.915646866152
 30
4.708008759736252
 11
8692.661641807145
 21
5830.69206170326
 31
4.708008759736252
  0
LINE
  5
8F7
330
2
100
AcDbEntity
  8
3
 62
     2
100
AcDbLine
 10
8692.661641807145
 20
5830.69206170326
 30
4.708008759736252
 11
8875.569108653655
 21
5830.69206170326
 31
4.708008759736252
  0
LINE
  5
8F8
330
2
100
AcDbEntity
  8
3
 62
     2
100
AcDbLine
 10
8875.569108653655
 20
5830.69206170326
 30
4.708008759736252
 11
8875.569108653655
 21
5773.118333896811
 31
4.708008759736252
  0
LINE
  5
8F9
330
2
100
AcDbEntity
  8
3
 62
     2
100
AcDbLine
 10
8548.875128665295
 20
6118.716633705435
 30
4.708008759736252
 11
8610.051112145944
 21
6118.716633705435
 31
4.708008759736252
  0
LINE
  5
8FA
330
2
100
AcDbEntity
  8
3
 62
     2
100
AcDbLine
 10
9412.276254001849
 20
5845.507614454212
 30
4.708008759736252
 11
9412.276254001849
 21
5540.127393239482
 31
4.708008759736252
  0
LINE
  5
8FB
330
2
100
AcDbEntity
  8
3
 62
     2
100
AcDbLine
 10
10232.21317785917
 20
5847.341119054135
 30
4.708008759736252
 11
10232.21317785917
 21
5482.55366543304
 31
4.708008759736252
  0
LINE
  5
8FC
330
2
100
AcDbEntity
  8
3
 62
     2
100
AcDbLine
 10
9351.10027050957
 20
5845.507614454212
 30
4.708008759736252
 11
9351.10027050957
 21
5540.127393239482
 31
4.708008759736252
  0
LINE
  5
8FD
330
2
100
AcDbEntity
  8
3
 62
     2
100
AcDbLine
 10
9637.762955228176
 20
5540.127393239482
 30
4.708008759736252
 11
9637.762955228176
 21
5482.55366543304
 31
4.708008759736252
  0
LINE
  5
8FE
330
2
100
AcDbEntity
  8
3
 62
     2
100
AcDbLine
 10
9168.307271205192
 20
5540.127393239482
 30
4.708008759736252
 11
9168.307271205192
 21
5482.55366543304
 31
4.708008759736252
  0
LINE
  5
8FF
330
2
100
AcDbEntity
  8
3
 62
     2
100
AcDbLine
 10
9168.307271205192
 20
5482.55366543304
 30
4.708008759736252
 11
9637.762955228176
 21
5482.55366543304
 31
4.708008759736252
  0
LINE
  5
900
330
2
100
AcDbEntity
  8
3
 62
     2
100
AcDbLine
 10
9412.276254001849
 20
5540.127393239482
 30
4.708008759736252
 11
9637.762955228176
 21
5540.127393239482
 31
4.708008759736252
  0
LINE
  5
901
330
2
100
AcDbEntity
  8
7
100
AcDbLine
 10
9448.914042267793
 20
5578.734014711475
 30
4.708008759736252
 11
9532.108095964732
 21
5665.626364106676
 31
4.708008759736252
  0
SOLID
  5
902
330
2
100
AcDbEntity
  8
7
100
AcDbTrace
 10
9455.348479178583
 20
5572.627716667152
 30
4.708008759736252
 11
9442.47960535702
 21
5584.84031275434
 31
4.708008759736252
 12
9412.276254001849
 22
5540.127393239482
 32
4.708008759736252
 13
9412.276254001849
 23
5540.127393239482
 33
4.708008759736252
  0
LINE
  5
903
330
2
100
AcDbEntity
  8
3
 62
     2
100
AcDbLine
 10
9412.276254001849
 20
5540.127393239482
 30
4.708008759736252
 11
9168.307271205192
 21
5540.127393239482
 31
4.708008759736252
  0
LINE
  5
904
330
2
100
AcDbEntity
  8
7
100
AcDbLine
 10
9644.033583103537
 20
5613.078992059992
 30
4.708008759736252
 11
9685.893617024493
 21
5665.626364106676
 31
4.708008759736252
  0
LINE
  5
905
330
2
100
AcDbEntity
  8
7
100
AcDbLine
 10
9644.033583103537
 20
5665.626364106676
 30
4.708008759736252
 11
9644.033583103537
 21
5613.078992059992
 31
4.708008759736252
  0
LINE
  5
906
330
2
100
AcDbEntity
  8
7
100
AcDbLine
 10
9532.108095964732
 20
5665.626364106676
 30
4.708008759736252
 11
9714.439447679412
 21
5665.626364106676
 31
4.708008759736252
  0
TEXT
  5
907
330
2
100
AcDbEntity
  8
4
 62
     4
100
AcDbText
 10
9568.517863099769
 20
5676.505345104633
 30
4.708008759736252
 40
53.22404296999996
  1
6
  7
A_STANDARD
100
AcDbText
  0
LINE
  5
908
330
2
100
AcDbEntity
  8
7
100
AcDbLine
 10
9644.033583103537
 20
5665.626364106676
 30
4.708008759736252
 11
9644.033583103537
 21
5718.173736154816
 31
4.708008759736252
  0
LINE
  5
909
330
2
100
AcDbEntity
  8
7
100
AcDbLine
 10
9644.033583103537
 20
5718.173736154816
 30
4.708008759736252
 11
9685.893617024493
 21
5665.626364106676
 31
4.708008759736252
  0
LINE
  5
90A
330
2
100
AcDbEntity
  8
7
100
AcDbLine
 10
10591.24476717677
 20
5619.51125917108
 30
4.708008759736252
 11
10705.3794857709
 21
5376.54222129782
 31
4.708008759736252
  0
LINE
  5
90B
330
2
100
AcDbEntity
  8
7
100
AcDbLine
 10
10832.90112108348
 20
5376.54222129782
 30
4.708008759736252
 11
10832.90112108348
 21
5429.089593345956
 31
4.708008759736252
  0
LINE
  5
90C
330
2
100
AcDbEntity
  8
7
100
AcDbLine
 10
10832.90112108348
 20
5376.54222129782
 30
4.708008759736252
 11
10832.90112108348
 21
5323.994849251132
 31
4.708008759736252
  0
TEXT
  5
90D
330
2
100
AcDbEntity
  8
1
 62
     4
100
AcDbText
 10
10754.19313563159
 20
5399.130227898378
 30
4.708008759736252
 40
54.0
  1
6
  7
A_STANDARD
100
AcDbText
  0
LINE
  5
90E
330
2
100
AcDbEntity
  8
7
100
AcDbLine
 10
10549.49598295039
 20
5577.762474946169
 30
4.708008759736252
 11
10591.24476717677
 21
5619.51125917108
 31
4.708008759736252
  0
SOLID
  5
90F
330
2
100
AcDbEntity
  8
7
100
AcDbTrace
 10
10555.76849656769
 20
5571.489961328874
 30
4.708008759736252
 11
10543.2234693331
 21
5584.034988563464
 31
4.708008759736252
 12
10511.86090124663
 22
5540.127393239482
 32
4.708008759736252
 13
10511.86090124663
 23
5540.127393239482
 33
4.708008759736252
  0
LINE
  5
910
330
2
100
AcDbEntity
  8
3
 62
     2
100
AcDbLine
 10
9351.10027050957
 20
5845.507614454212
 30
4.708008759736252
 11
9412.276254001849
 21
5845.507614454212
 31
4.708008759736252
  0
LINE
  5
911
330
2
100
AcDbEntity
  8
3
 62
     2
100
AcDbLine
 10
7979.886789970414
 20
7127.498255794955
 30
4.708008759736252
 11
8205.373491196729
 21
7127.498255794955
 31
4.708008759736252
  0
LINE
  5
912
330
2
100
AcDbEntity
  8
4
  6
HIDDEN
 62
     2
100
AcDbLine
 10
7918.710806478128
 20
7209.129428272456
 30
4.708008759736252
 11
8363.58759456904
 21
7402.006661530788
 31
4.708008759736252
  0
LINE
  5
913
330
2
100
AcDbEntity
  8
4
  6
HIDDEN
 62
     2
100
AcDbLine
 10
7955.363777350936
 20
7143.389225611205
 30
4.708008759736252
 11
8551.872200298893
 21
7402.006661530788
 31
4.708008759736252
  0
LINE
  5
914
330
2
100
AcDbEntity
  8
3
 62
     2
100
AcDbLine
 10
7730.426200748252
 20
7069.924527988508
 30
4.708008759736252
 11
8205.373491196729
 21
7069.924527988508
 31
4.708008759736252
  0
LINE
  5
915
330
2
100
AcDbEntity
  8
3
 62
     2
100
AcDbLine
 10
7730.426200748252
 20
7127.498255794955
 30
4.708008759736252
 11
7918.710806478128
 21
7209.129428272456
 31
4.708008759736252
  0
ARC
  5
916
330
2
100
AcDbEntity
  8
4
 62
     2
100
AcDbCircle
 10
7925.446353539659
 20
7141.340737051824
 30
4.708008759736259
 40
31.94210106967958
100
AcDbArc
 50
334.3189118708683
 51
205.6810881291279
  0
LINE
  5
917
330
2
100
AcDbEntity
  8
3
 62
     2
100
AcDbLine
 10
7954.233217450159
 20
7127.498255794955
 30
4.708008759736252
 11
7730.426200748252
 21
7127.498255794955
 31
4.708008759736252
  0
LINE
  5
918
330
2
100
AcDbEntity
  8
3
 62
     2
100
AcDbLine
 10
7730.426200748252
 20
7127.498255794955
 30
4.708008759736252
 11
7730.426200748252
 21
7069.924527988508
 31
4.708008759736252
  0
LINE
  5
919
330
2
100
AcDbEntity
  8
3
 62
     2
100
AcDbLine
 10
8205.373491196729
 20
7127.498255794955
 30
4.708008759736252
 11
8838.534885017509
 21
7402.006661530788
 31
4.708008759736252
  0
LINE
  5
91A
330
2
100
AcDbEntity
  8
3
 62
     2
100
AcDbLine
 10
8205.373491196729
 20
7069.924527988508
 30
4.708008759736252
 11
8838.534885017509
 21
7344.432933724336
 31
4.708008759736252
  0
LINE
  5
91B
330
2
100
AcDbEntity
  8
3
 62
     2
100
AcDbLine
 10
8205.373491196729
 20
7127.498255794955
 30
4.708008759736252
 11
8205.373491196729
 21
7069.924527988508
 31
4.708008759736252
  0
LINE
  5
91C
330
2
100
AcDbEntity
  8
3
 62
     2
100
AcDbLine
 10
8548.875128665295
 20
7402.006661530788
 30
4.708008759736252
 11
8838.534885017509
 21
7402.006661530788
 31
4.708008759736252
  0
LINE
  5
91D
330
2
100
AcDbEntity
  8
4
  6
HIDDEN
 62
     2
100
AcDbLine
 10
8548.875128665295
 20
7402.006661530788
 30
4.708008759736252
 11
8363.58759456904
 21
7402.006661530788
 31
4.708008759736252
  0
LINE
  5
91E
330
2
100
AcDbEntity
  8
3
 62
     2
100
AcDbLine
 10
8838.534885017509
 20
7402.006661530788
 30
4.708008759736252
 11
8838.534885017509
 21
7344.432933724336
 31
4.708008759736252
  0
SOLID
  5
91F
330
2
100
AcDbEntity
  8
7
100
AcDbTrace
 10
9455.348479178583
 20
7159.998579222625
 30
4.708008759736252
 11
9442.47960535702
 21
7172.211175309813
 31
4.708008759736252
 12
9412.276254001849
 22
7127.498255794955
 32
4.708008759736252
 13
9412.276254001849
 23
7127.498255794955
 33
4.708008759736252
  0
LINE
  5
920
330
2
100
AcDbEntity
  8
3
 62
     2
100
AcDbLine
 10
9412.276254001849
 20
7127.498255794955
 30
4.708008759736252
 11
9637.762955228176
 21
7127.498255794955
 31
4.708008759736252
  0
LINE
  5
921
330
2
100
AcDbEntity
  8
3
 62
     2
100
AcDbLine
 10
9168.307271205192
 20
7069.924527988508
 30
4.708008759736252
 11
9637.762955228176
 21
7069.924527988508
 31
4.708008759736252
  0
LINE
  5
922
330
2
100
AcDbEntity
  8
3
 62
     2
100
AcDbLine
 10
9412.276254001849
 20
7127.498255794955
 30
4.708008759736252
 11
9168.307271205192
 21
7127.498255794955
 31
4.708008759736252
  0
LINE
  5
923
330
2
100
AcDbEntity
  8
3
 62
     2
100
AcDbLine
 10
9168.307271205192
 20
7127.498255794955
 30
4.708008759736252
 11
9168.307271205192
 21
7069.924527988508
 31
4.708008759736252
  0
LINE
  5
924
330
2
100
AcDbEntity
  8
3
 62
     2
100
AcDbLine
 10
9637.762955228176
 20
7127.498255794955
 30
4.708008759736252
 11
9637.762955228176
 21
7069.924527988508
 31
4.708008759736252
  0
LINE
  5
925
330
2
100
AcDbEntity
  8
7
100
AcDbLine
 10
9448.914042267793
 20
7166.104877266945
 30
4.708008759736252
 11
9532.108095964732
 21
7252.997226662149
 31
4.708008759736252
  0
TEXT
  5
926
330
2
100
AcDbEntity
  8
1
 62
     4
100
AcDbText
 10
9568.517863099769
 20
7263.876207660096
 30
4.708008759736252
 40
54.0
  1
6
  7
A_STANDARD
100
AcDbText
  0
LINE
  5
927
330
2
100
AcDbEntity
  8
7
100
AcDbLine
 10
9532.108095964732
 20
7252.997226662149
 30
4.708008759736252
 11
9714.439447679412
 21
7252.997226662149
 31
4.708008759736252
  0
LINE
  5
928
330
2
100
AcDbEntity
  8
7
100
AcDbLine
 10
9644.033583103537
 20
7305.544598710286
 30
4.708008759736252
 11
9685.893617024493
 21
7252.997226662149
 31
4.708008759736252
  0
LINE
  5
929
330
2
100
AcDbEntity
  8
7
100
AcDbLine
 10
9644.033583103537
 20
7252.997226662149
 30
4.708008759736252
 11
9644.033583103537
 21
7305.544598710286
 31
4.708008759736252
  0
SOLID
  5
92A
330
2
100
AcDbEntity
  8
7
100
AcDbTrace
 10
10555.76849656769
 20
7158.860823884345
 30
4.708008759736252
 11
10543.2234693331
 21
7171.405851118937
 31
4.708008759736252
 12
10511.86090124663
 22
7127.498255794955
 32
4.708008759736252
 13
10511.86090124663
 23
7127.498255794955
 33
4.708008759736252
  0
LINE
  5
92B
330
2
100
AcDbEntity
  8
7
100
AcDbLine
 10
10591.24476717677
 20
7206.882121726548
 30
4.708008759736252
 11
10705.3794857709
 21
6963.913083853284
 31
4.708008759736252
  0
TEXT
  5
92C
330
2
100
AcDbEntity
  8
1
 62
     4
100
AcDbText
 10
10754.19313563159
 20
6976.376720367728
 30
4.708008759736252
 40
54.0
  1
6
  7
A_STANDARD
100
AcDbText
  0
LINE
  5
92D
330
2
100
AcDbEntity
  8
7
100
AcDbLine
 10
10832.90112108348
 20
6963.913083853284
 30
4.708008759736252
 11
10832.90112108348
 21
7016.460455901425
 31
4.708008759736252
  0
LINE
  5
92E
330
2
100
AcDbEntity
  8
7
100
AcDbLine
 10
10549.49598295039
 20
7165.13333750164
 30
4.708008759736252
 11
10591.24476717677
 21
7206.882121726548
 31
4.708008759736252
  0
LINE
  5
92F
330
2
100
AcDbEntity
  8
3
 62
     2
100
AcDbLine
 10
10962.11487648665
 20
5482.55366543304
 30
4.708008759736252
 11
10962.11487648665
 21
5847.341119054135
 31
4.708008759736252
  0
TEXT
  5
930
330
2
100
AcDbEntity
  8
1
 62
     4
100
AcDbText
 10
11428.78446345109
 20
5657.295695767932
 30
4.708008759736252
 40
54.0
  1
양  쭉
  7
A_STANDARD
100
AcDbText
  0
TEXT
  5
932
330
2
100
AcDbEntity
  8
1
 62
     4
100
AcDbText
 10
11262.12353976567
 20
7349.026697189865
 30
4.708008759736252
 40
54.0
  1
화살표쪽 반대쪽
  7
A_STANDARD
100
AcDbText
  0
TEXT
  5
933
330
2
100
AcDbEntity
  8
1
 62
     4
100
AcDbText
 10
11375.04499831825
 20
7143.961678539668
 30
4.708008759736252
 40
54.0
  1
맞은편 쪽
  7
A_STANDARD
100
AcDbText
  0
TEXT
  5
934
330
2
100
AcDbEntity
  8
1
 62
     4
100
AcDbText
 10
11479.00373770514
 20
7250.006974700696
 30
4.708008759736252
 40
54.0
  1
또는
  7
A_STANDARD
100
AcDbText
  0
LINE
  5
936
330
2
100
AcDbEntity
  8
7
100
AcDbLine
 10
10705.3794857709
 20
8511.478762461392
 30
4.708008759736252
 11
10909.39462266522
 21
8511.478762461392
 31
4.708008759736252
  0
LINE
  5
937
330
2
100
AcDbEntity
  8
7
100
AcDbLine
 10
10832.90112108348
 20
8458.931390413253
 30
4.708008759736252
 11
10874.76115500445
 21
8511.478762461392
 31
4.708008759736252
  0
LINE
  5
938
330
2
100
AcDbEntity
  8
3
 62
     2
100
AcDbLine
 10
10962.11487648665
 20
7434.711981609608
 30
4.708008759736252
 11
10232.21317785917
 21
7434.711981609608
 31
4.708008759736252
  0
LINE
  5
939
330
2
100
AcDbEntity
  8
3
 62
     2
100
AcDbLine
 10
10232.21317785917
 20
8617.490206595155
 30
4.708008759736252
 11
10962.11487648665
 21
8617.490206595155
 31
4.708008759736252
  0
LINE
  5
93A
330
2
100
AcDbEntity
  8
3
 62
     2
100
AcDbLine
 10
10232.21317785917
 20
8675.063934403063
 30
4.708008759736252
 11
10962.11487648665
 21
8675.063934403063
 31
4.708008759736252
  0
LINE
  5
93B
330
2
100
AcDbEntity
  8
3
 62
     2
100
AcDbLine
 10
10962.11487648665
 20
8982.277660216256
 30
4.708008759736252
 11
10232.21317785917
 21
8982.277660216256
 31
4.708008759736252
  0
LINE
  5
93C
330
2
100
AcDbEntity
  8
7
100
AcDbLine
 10
10591.24476717677
 20
8754.447800333199
 30
4.708008759736252
 11
10705.3794857709
 21
8511.478762461392
 31
4.708008759736252
  0
LINE
  5
93D
330
2
100
AcDbEntity
  8
3
 62
     2
100
AcDbLine
 10
7979.886789970414
 20
7416.82221428174
 30
4.708008759736252
 11
8610.051112145944
 21
7690.031233532967
 31
4.708008759736252
  0
LINE
  5
93E
330
2
100
AcDbEntity
  8
3
 62
     2
100
AcDbLine
 10
7918.710806478128
 20
7416.82221428174
 30
4.708008759736252
 11
8548.875128665295
 21
7690.031233532967
 31
4.708008759736252
  0
TEXT
  5
93F
330
2
100
AcDbEntity
  8
1
  6
BYBLOCK
 62
     4
100
AcDbText
 10
7903.035851803903
 20
7651.008755425711
 30
4.708008759736252
 40
54.0
  1
6
  7
DS
 72
     4
 11
7930.035851803904
 21
7678.008755425712
 31
4.708008759736252
100
AcDbText
  0
LINE
  5
940
330
2
100
AcDbEntity
  8
3
 62
     2
100
AcDbLine
 10
7918.710806478128
 20
7416.82221428174
 30
4.708008759736252
 11
7979.886789970414
 21
7416.82221428174
 31
4.708008759736252
  0
LINE
  5
941
330
2
100
AcDbEntity
  8
7
100
AcDbLine
 10
7954.233217450159
 20
7622.988567707679
 30
4.708008759736252
 11
7896.659489640796
 21
7622.988567707679
 31
4.708008759736259
  0
LWPOLYLINE
  5
942
330
2
100
AcDbEntity
  8
7
100
AcDbPolyline
 90
        2
 70
     1
 43
8.515846875199992
 38
4.708008759736252
 10
7896.659489641031
 20
7627.246491145112
 42
-1.0
 10
7896.659489641031
 20
7618.730644269961
 42
-1.0
  0
LWPOLYLINE
  5
943
330
2
100
AcDbEntity
  8
7
100
AcDbPolyline
 90
        2
 70
     1
 43
8.515846875199992
 38
4.708008759736252
 10
7954.233217448217
 20
7627.246491145112
 42
-1.0
 10
7954.233217448217
 20
7618.730644269961
 42
-1.0
  0
LINE
  5
944
330
2
100
AcDbEntity
  8
7
100
AcDbLine
 10
7954.233217450159
 20
7494.833958157426
 30
4.708008759736252
 11
7954.233217450159
 21
7654.852131992552
 31
4.708008759736252
  0
LINE
  5
945
330
2
100
AcDbEntity
  8
7
100
AcDbLine
 10
7896.659489640796
 20
7493.840033955088
 30
4.708008759736259
 11
7896.659489640796
 21
7654.852131992552
 31
4.708008759736259
  0
LINE
  5
946
330
2
100
AcDbEntity
  8
3
 62
     2
100
AcDbLine
 10
8548.875128665295
 20
7690.031233532967
 30
4.708008759736252
 11
8610.051112145944
 21
7690.031233532967
 31
4.708008759736252
  0
LINE
  5
947
330
2
100
AcDbEntity
  8
3
 62
     2
100
AcDbLine
 10
9351.10027050957
 20
7432.878477009683
 30
4.708008759736252
 11
9412.276254001849
 21
7432.878477009683
 31
4.708008759736252
  0
LINE
  5
948
330
2
100
AcDbEntity
  8
7
100
AcDbLine
 10
10832.90112108348
 20
8511.478762461392
 30
4.708008759736252
 11
10832.90112108348
 21
8458.931390413253
 31
4.708008759736252
  0
TEXT
  5
949
330
2
100
AcDbEntity
  8
1
 62
     4
100
AcDbText
 10
10754.19313563159
 20
8440.283224454088
 30
4.708008759736252
 40
54.0
  1
6
  7
A_STANDARD
100
AcDbText
  0
LINE
  5
94A
330
2
100
AcDbEntity
  8
3
 62
     2
100
AcDbLine
 10
8610.051112145944
 20
9269.865732366795
 30
4.708008759736252
 11
8610.051112145944
 21
9007.064745527513
 31
4.708008759736252
  0
LINE
  5
94B
330
2
100
AcDbEntity
  8
3
 62
     2
100
AcDbLine
 10
7918.710806478128
 20
8996.656713115571
 30
4.708008759736252
 11
8548.875128665295
 21
9269.865732366795
 31
4.708008759736252
  0
LINE
  5
94C
330
2
100
AcDbEntity
  8
3
 62
     2
100
AcDbLine
 10
7979.886789970414
 20
8996.656713115571
 30
4.708008759736252
 11
8610.051112145944
 21
9269.865732366795
 31
4.708008759736252
  0
LINE
  5
94D
330
2
100
AcDbEntity
  8
3
 62
     2
100
AcDbLine
 10
8022.466024350213
 20
8691.276491900843
 30
4.708008759736252
 11
8205.373491196729
 21
8691.276491900843
 31
4.708008759736252
  0
LINE
  5
94E
330
2
100
AcDbEntity
  8
3
 62
     2
100
AcDbLine
 10
7735.917807173755
 20
8633.702764092939
 30
4.708008759736252
 11
8205.373491196729
 21
8633.702764092939
 31
4.708008759736252
  0
LINE
  5
94F
330
2
100
AcDbEntity
  8
4
 62
     2
100
AcDbLine
 10
7979.886789970414
 20
8733.855726276287
 30
4.708008759736252
 11
8610.051112145944
 21
9007.064745527513
 31
4.708008759736252
  0
LINE
  5
950
330
2
100
AcDbEntity
  8
4
 62
     2
100
AcDbLine
 10
8022.466024350213
 20
8691.276491900843
 30
4.708008759736252
 11
8692.661641807145
 21
8981.841160364616
 31
4.708008759736252
  0
LINE
  5
951
330
2
100
AcDbEntity
  8
3
 62
     2
100
AcDbLine
 10
7979.886789970414
 20
8996.656713115571
 30
4.708008759736252
 11
7979.886789970414
 21
8733.855726276287
 31
4.708008759736252
  0
LINE
  5
952
330
2
100
AcDbEntity
  8
3
 62
     2
100
AcDbLine
 10
7918.710806478128
 20
8996.656713115571
 30
4.708008759736252
 11
7918.710806478128
 21
8691.276491900843
 31
4.708008759736252
  0
TEXT
  5
953
330
2
100
AcDbEntity
  8
1
  6
BYBLOCK
 62
     4
100
AcDbText
 10
7440.59015776666
 20
8640.079126254597
 30
4.708008759736252
 40
54.0
  1
6
 50
90.0
  7
DS
 72
     4
 11
7413.590157766659
 21
8667.079126254597
 31
4.708008759736252
100
AcDbText
  0
LINE
  5
954
330
2
100
AcDbEntity
  8
7
100
AcDbLine
 10
7468.610345491971
 20
8691.276491900843
 30
4.708008759736252
 11
7468.610345491971
 21
8633.702764092939
 31
4.708008759736259
  0
LWPOLYLINE
  5
955
330
2
100
AcDbEntity
  8
7
100
AcDbPolyline
 90
        2
 70
     1
 43
8.515846875199992
 38
4.708008759736252
 10
7464.352422050898
 20
8633.702764093342
 42
-1.0
 10
7472.868268926031
 20
8633.702764093342
 42
-1.0
  0
LWPOLYLINE
  5
956
330
2
100
AcDbEntity
  8
7
100
AcDbPolyline
 90
        2
 70
     1
 43
8.515846875199992
 38
4.708008759736252
 10
7464.352422050898
 20
8691.276491900524
 42
-1.0
 10
7472.868268926031
 20
8691.276491900524
 42
-1.0
  0
LINE
  5
957
330
2
100
AcDbEntity
  8
7
100
AcDbLine
 10
7655.376094918526
 20
8633.702764092939
 30
4.708008759736259
 11
7436.746781204218
 21
8633.702764092939
 31
4.708008759736259
  0
LINE
  5
958
330
2
100
AcDbEntity
  8
7
100
AcDbLine
 10
7654.382170714732
 20
8691.276491900843
 30
4.708008759736252
 11
7436.746781204218
 21
8691.276491900843
 31
4.708008759736252
  0
LINE
  5
959
330
2
100
AcDbEntity
  8
3
 62
     2
100
AcDbLine
 10
7918.710806478128
 20
8691.276491900843
 30
4.708008759736252
 11
7735.917807173755
 21
8691.276491900843
 31
4.708008759736252
  0
LINE
  5
95A
330
2
100
AcDbEntity
  8
3
 62
     2
100
AcDbLine
 10
7735.917807173755
 20
8691.276491900843
 30
4.708008759736252
 11
7735.917807173755
 21
8633.702764092939
 31
4.708008759736252
  0
LINE
  5
95B
330
2
100
AcDbEntity
  8
3
 62
     2
100
AcDbLine
 10
7735.917807173755
 20
8691.276491900843
 30
4.708008759736252
 11
7918.710806478128
 21
8770.526767277969
 31
4.708008759736252
  0
LINE
  5
95C
330
2
100
AcDbEntity
  8
3
 62
     2
100
AcDbLine
 10
7979.886789970414
 20
8733.855726276287
 30
4.708008759736252
 11
8022.466024350213
 21
8691.276491900843
 31
4.708008759736252
  0
LINE
  5
95D
330
2
100
AcDbEntity
  8
3
 62
     2
100
AcDbLine
 10
7918.710806478128
 20
8996.656713115571
 30
4.708008759736252
 11
7979.886789970414
 21
8996.656713115571
 31
4.708008759736252
  0
LINE
  5
95E
330
2
100
AcDbEntity
  8
3
 62
     2
100
AcDbLine
 10
8205.373491196729
 20
8633.702764092939
 30
4.708008759736252
 11
8875.569108653655
 21
8924.267432556716
 31
4.708008759736252
  0
LINE
  5
95F
330
2
100
AcDbEntity
  8
3
 62
     2
100
AcDbLine
 10
8205.373491196729
 20
8691.276491900843
 30
4.708008759736252
 11
8875.569108653655
 21
8981.841160364616
 31
4.708008759736252
  0
LINE
  5
960
330
2
100
AcDbEntity
  8
3
 62
     2
100
AcDbLine
 10
8205.373491196729
 20
8691.276491900843
 30
4.708008759736252
 11
8205.373491196729
 21
8633.702764092939
 31
4.708008759736252
  0
LINE
  5
961
330
2
100
AcDbEntity
  8
3
 62
     2
100
AcDbLine
 10
8610.051112145944
 20
9007.064745527513
 30
4.708008759736252
 11
8692.661641807145
 21
8981.841160364616
 31
4.708008759736252
  0
LINE
  5
962
330
2
100
AcDbEntity
  8
3
 62
     2
100
AcDbLine
 10
8692.661641807145
 20
8981.841160364616
 30
4.708008759736252
 11
8875.569108653655
 21
8981.841160364616
 31
4.708008759736252
  0
LINE
  5
963
330
2
100
AcDbEntity
  8
3
 62
     2
100
AcDbLine
 10
8875.569108653655
 20
8981.841160364616
 30
4.708008759736252
 11
8875.569108653655
 21
8924.267432556716
 31
4.708008759736252
  0
LINE
  5
964
330
2
100
AcDbEntity
  8
3
 62
     2
100
AcDbLine
 10
8548.875128665295
 20
9269.865732366795
 30
4.708008759736252
 11
8610.051112145944
 21
9269.865732366795
 31
4.708008759736252
  0
LINE
  5
965
330
2
100
AcDbEntity
  8
7
100
AcDbLine
 10
9634.884567117616
 20
8748.015533222112
 30
4.708008759736252
 11
9676.744601038613
 21
8800.562905270252
 31
4.708008759736252
  0
LINE
  5
966
330
2
100
AcDbEntity
  8
7
100
AcDbLine
 10
9634.884567117616
 20
8800.562905270252
 30
4.708008759736252
 11
9634.884567117616
 21
8748.015533222112
 31
4.708008759736252
  0
LINE
  5
967
330
2
100
AcDbEntity
  8
3
 62
     2
100
AcDbLine
 10
9412.276254001849
 20
8980.444155617787
 30
4.708008759736252
 11
9412.276254001849
 21
8675.063934403063
 31
4.708008759736252
  0
LINE
  5
968
330
2
100
AcDbEntity
  8
3
 62
     2
100
AcDbLine
 10
9351.10027050957
 20
8980.444155617787
 30
4.708008759736252
 11
9351.10027050957
 21
8675.063934403063
 31
4.708008759736252
  0
LINE
  5
969
330
2
100
AcDbEntity
  8
7
100
AcDbLine
 10
9448.914042267793
 20
8713.670555873592
 30
4.708008759736252
 11
9532.108095964732
 21
8800.562905270252
 31
4.708008759736252
  0
LINE
  5
96A
330
2
100
AcDbEntity
  8
3
 62
     2
100
AcDbLine
 10
9412.276254001849
 20
8675.063934403063
 30
4.708008759736252
 11
9637.762955228176
 21
8675.063934403063
 31
4.708008759736252
  0
LINE
  5
96B
330
2
100
AcDbEntity
  8
3
 62
     2
100
AcDbLine
 10
9168.307271205192
 20
8617.490206595155
 30
4.708008759736252
 11
9637.762955228176
 21
8617.490206595155
 31
4.708008759736252
  0
SOLID
  5
96C
330
2
100
AcDbEntity
  8
7
100
AcDbTrace
 10
9455.348479178583
 20
8707.564257830723
 30
4.708008759736252
 11
9442.47960535702
 21
8719.776853917919
 31
4.708008759736252
 12
9412.276254001849
 22
8675.063934403063
 32
4.708008759736252
 13
9412.276254001849
 23
8675.063934403063
 33
4.708008759736252
  0
LINE
  5
96D
330
2
100
AcDbEntity
  8
3
 62
     2
100
AcDbLine
 10
9168.307271205192
 20
8675.063934403063
 30
4.708008759736252
 11
9168.307271205192
 21
8617.490206595155
 31
4.708008759736252
  0
LINE
  5
96E
330
2
100
AcDbEntity
  8
3
 62
     2
100
AcDbLine
 10
9412.276254001849
 20
8675.063934403063
 30
4.708008759736252
 11
9168.307271205192
 21
8675.063934403063
 31
4.708008759736252
  0
TEXT
  5
96F
330
2
100
AcDbEntity
  8
1
 62
     4
100
AcDbText
 10
9560.736388551392
 20
8733.872857924481
 30
4.708008759736252
 40
54.0
  1
6
  7
A_STANDARD
100
AcDbText
  0
LINE
  5
970
330
2
100
AcDbEntity
  8
3
 62
     2
100
AcDbLine
 10
9637.762955228176
 20
8675.063934403063
 30
4.708008759736252
 11
9637.762955228176
 21
8617.490206595155
 31
4.708008759736252
  0
LINE
  5
971
330
2
100
AcDbEntity
  8
3
 62
     2
100
AcDbLine
 10
9351.10027050957
 20
8980.444155617787
 30
4.708008759736252
 11
9412.276254001849
 21
8980.444155617787
 31
4.708008759736252
  0
LINE
  5
972
330
2
100
AcDbEntity
  8
7
100
AcDbLine
 10
9532.108095964732
 20
8800.562905270252
 30
4.708008759736252
 11
9703.76627809726
 21
8800.562905270252
 31
4.708008759736252
  0
LINE
  5
973
330
2
100
AcDbEntity
  8
3
 62
     2
100
AcDbLine
 10
10232.21317785917
 20
8982.277660216256
 30
4.708008759736252
 11
10232.21317785917
 21
8617.490206595155
 31
4.708008759736252
  0
SOLID
  5
974
330
2
100
AcDbEntity
  8
7
100
AcDbTrace
 10
10555.76849656769
 20
8706.426502490993
 30
4.708008759736252
 11
10543.2234693331
 21
8718.971529727044
 31
4.708008759736252
 12
10511.86090124663
 22
8675.063934403063
 32
4.708008759736252
 13
10511.86090124663
 23
8675.063934403063
 33
4.708008759736252
  0
LINE
  5
975
330
2
100
AcDbEntity
  8
7
100
AcDbLine
 10
10549.49598295039
 20
8712.699016108283
 30
4.708008759736252
 11
10591.24476717677
 21
8754.447800333199
 31
4.708008759736252
  0
TEXT
  5
977
330
2
100
AcDbEntity
  8
1
 62
     4
100
AcDbText
 10
11083.02930328189
 20
8756.461288866173
 30
4.708008759736252
 40
54.0
  1
다리 길이 6mm인 경우
  7
A_STANDARD
100
AcDbText
  0
TEXT
  5
978
330
2
100
AcDbEntity
  8
1
 62
     4
100
AcDbText
 10
11125.85025106215
 20
8858.739150464296
 30
4.708008759736252
 40
54.0
  1
화살표쪽 또는 앞쪽의
  7
A_STANDARD
100
AcDbText
  0
LINE
  5
979
330
2
100
AcDbEntity
  8
3
 62
     2
100
AcDbLine
 10
10962.11487648665
 20
8617.490206595155
 30
4.708008759736252
 11
10962.11487648665
 21
8982.277660216256
 31
4.708008759736252
  0
TEXT
  5
97F
330
2
100
AcDbEntity
  8
T25
 62
     6
100
AcDbText
 10
13443.63088858212
 20
10239.93462258275
 30
0.0
 40
140.0
  1
주 의 사 항
  7
A_STANDARD
100
AcDbText
  0
TEXT
  5
980
330
2
100
AcDbEntity
  8
T25
 62
     6
100
AcDbText
 10
8633.183078914788
 20
10239.93462258275
 30
0.0
 40
140.0
  1
용  접  기  호
  7
A_STANDARD
100
AcDbText
  0
TEXT
  5
9B1
330
2
100
AcDbEntity
  8
1
 62
     4
100
AcDbText
 10
7234.149315116484
 20
2080.101571287928
 30
-8.352642017711284
 40
54.0
  1
4. 용접봉 및 볼트,넛트의 전위는 모재보다 높은 재료를 사용하여야 한다.
  7
A_STANDARD
100
AcDbText
  0
TEXT
  5
3425
330
2
100
AcDbEntity
  8
1
 62
     4
100
AcDbText
 10
13523.32680609571
 20
7039.891168765368
 30
14.12402627920875
 40
54.0
  1
단, 완전한 수동용접 비이드가 선행시는 
100
AcDbText
  0
TEXT
  5
3426
330
2
100
AcDbEntity
  8
1
 62
     4
100
AcDbText
 10
13342.73382884205
 20
3013.987934963728
 30
14.12402627920875
 40
54.0
  1
8. 필렛 용접시 도로교 표준 시방서에 
100
AcDbText
  0
TEXT
  5
3427
330
2
100
AcDbEntity
  8
1
 62
     4
100
AcDbText
 10
13342.73382884205
 20
1928.104801545871
 30
14.12402627920875
 40
54.0
  1
9. 맞대기 용접시 얇은쪽의 모재의 두께
100
AcDbText
  0
TEXT
  5
3428
330
2
100
AcDbEntity
  8
1
 62
     4
100
AcDbText
 10
13523.32680609571
 20
2205.249860452363
 30
14.12402627920875
 40
54.0
  1
T  : 각장 크기
100
AcDbText
  0
TEXT
  5
3429
330
2
100
AcDbEntity
  8
1
 62
     4
100
AcDbText
 10
13591.62121605639
 20
2208.235491951778
 30
14.12402627920875
 40
54.0
  1
2
100
AcDbText
  0
TEXT
  5
342A
330
2
100
AcDbEntity
  8
1
 62
     4
100
AcDbText
 10
13523.32680609571
 20
1671.522134879205
 30
14.12402627920875
 40
54.0
  1
용접을 하고, 18mm이하일 때는 V-형 
100
AcDbText
  0
TEXT
  5
342B
330
2
100
AcDbEntity
  8
1
 62
     4
100
AcDbText
 10
13523.32680609571
 20
1543.230801545875
 30
14.12402627920875
 40
54.0
  1
용접을 한다.
100
AcDbText
  0
TEXT
  5
342C
330
2
100
AcDbEntity
  8
1
 62
     4
100
AcDbText
 10
13523.32680609571
 20
1799.81346821254
 30
14.12402627920875
 40
54.0
  1
가 18mm를 초과할 때는 X-형 
100
AcDbText
  0
TEXT
  5
342D
330
2
100
AcDbEntity
  8
1
 62
     4
100
AcDbText
 10
13509.04680609572
 20
2748.123268297064
 30
14.12402627920875
 40
54.0
  1
(단 최소 각장은 6mm임)
100
AcDbText
  0
TEXT
  5
342E
330
2
100
AcDbEntity
  8
1
 62
     4
100
AcDbText
 10
13523.32680609571
 20
2471.883103926398
 30
14.12402627920875
 40
54.0
  1
T  : 얇은쪽의 판두께
100
AcDbText
  0
TEXT
  5
342F
330
2
100
AcDbEntity
  8
1
 62
     4
100
AcDbText
 10
13593.6630427425
 20
2473.570375980367
 30
14.12402627920875
 40
54.0
  1
1
100
AcDbText
  0
TEXT
  5
3430
330
2
100
AcDbEntity
  8
1
 62
     4
100
AcDbText
 10
13523.32680609571
 20
2336.688783291673
 30
14.12402627920875
 40
54.0
  1
T  : 두꺼운쪽의 판두께
100
AcDbText
  0
TEXT
  5
3431
330
2
100
AcDbEntity
  8
1
 62
     4
100
AcDbText
 10
13593.6630427425
 20
2339.882409965489
 30
14.12402627920875
 40
54.0
  1
1
100
AcDbText
  0
TEXT
  5
3432
330
2
100
AcDbEntity
  8
1
 62
     4
100
AcDbText
 10
13512.61680609572
 20
2600.174437259727
 30
14.12402627920875
 40
54.0
  1
T > S > 2T
100
AcDbText
  0
LWPOLYLINE
  5
3433
330
2
100
AcDbEntity
  8
1
 62
     4
100
AcDbPolyline
 90
        4
 70
     0
 43
0.0
 38
14.12402627920875
 10
14066.44635380922
 20
2616.80247496077
 10
14093.3697377913
 20
2587.646916665938
 10
14114.68408605623
 20
2695.298277289532
 10
14271.22985841845
 20
2695.298277289532
  0
LINE
  5
3434
330
2
100
AcDbEntity
  8
1
 62
     4
100
AcDbLine
 10
13961.48118888355
 20
2588.990790947834
 30
14.12402627920875
 11
14027.35577438695
 21
2588.990790947834
 31
14.12402627920875
  0
TEXT
  5
3435
330
2
100
AcDbEntity
  8
1
 62
     4
100
AcDbText
 10
14236.32664418476
 20
2602.553447076249
 30
14.12402627920875
 40
54.0
  1
2
100
AcDbText
  0
TEXT
  5
3436
330
2
100
AcDbEntity
  8
1
 62
     4
100
AcDbText
 10
13523.32680609571
 20
2885.696601630398
 30
14.12402627920875
 40
54.0
  1
기준하여 용접해야 한다.
100
AcDbText
  0
TEXT
  5
3437
330
2
100
AcDbEntity
  8
1
 62
     4
100
AcDbText
 10
13342.73382884205
 20
6658.349168765365
 30
14.12402627920875
 40
54.0
  1
4. 필렛용접 및 부분 용해 홈 용접의 시
100
AcDbText
  0
TEXT
  5
3438
330
2
100
AcDbEntity
  8
1
 62
     4
100
AcDbText
 10
13342.73382884205
 20
5051.655268297064
 30
14.12402627920875
 40
54.0
  1
5. 용접의 검사는 시방서의 규정에 따라 
100
AcDbText
  0
TEXT
  5
3439
330
2
100
AcDbEntity
  8
1
 62
     4
100
AcDbText
 10
13339.16382884205
 20
4415.196601630392
 30
14.12402627920875
 40
54.0
  1
6. 운반, 가설등에 쓰이는 고리, 공구등
100
AcDbText
  0
TEXT
  5
343A
330
2
100
AcDbEntity
  8
1
 62
     4
100
AcDbText
 10
13342.73382884205
 20
3778.737934963726
 30
14.12402627920875
 40
54.0
  1
7. 용접에 의해서 생긴 부재의 변형은 
100
AcDbText
  0
TEXT
  5
343B
330
2
100
AcDbEntity
  8
1
 62
     4
100
AcDbText
 10
13523.32680609571
 20
4158.613934963727
 30
14.12402627920875
 40
54.0
  1
서 하고 그 조건은 공장용접과 동등이상
100
AcDbText
  0
TEXT
  5
343C
330
2
100
AcDbEntity
  8
1
 62
     4
100
AcDbText
 10
13523.32680609571
 20
3650.446601630399
 30
14.12402627920875
 40
54.0
  1
가스염 가열법등에 의하여 교정할 수 있
100
AcDbText
  0
TEXT
  5
343D
330
2
100
AcDbEntity
  8
1
 62
     4
100
AcDbText
 10
13758.94680609572
 20
3393.863934963729
 30
14.12402627920875
 40
54.0
  1
 이하로 하고 적열상태에서의 수냉
100
AcDbText
  0
TEXT
  5
343E
330
2
100
AcDbEntity
  8
1
 62
     4
100
AcDbText
 10
13523.32680609571
 20
3522.155268297064
 30
14.12402627920875
 40
54.0
  1
다. 그러나 가열시 강재의 표면온도는 
100
AcDbText
  0
TEXT
  5
343F
330
2
100
AcDbEntity
  8
1
 62
     4
100
AcDbText
 10
13512.61680609572
 20
3393.863934963729
 30
14.12402627920875
 40
54.0
  1
900%%dC
100
AcDbText
  0
TEXT
  5
3440
330
2
100
AcDbEntity
  8
1
 62
     4
100
AcDbText
 10
13523.32680609571
 20
3265.572601630396
 30
14.12402627920875
 40
54.0
  1
을 피해야 한다.
100
AcDbText
  0
TEXT
  5
3441
330
2
100
AcDbEntity
  8
1
 62
     4
100
AcDbText
 10
13523.32680609571
 20
4030.322601630396
 30
14.12402627920875
 40
54.0
  1
인 것이라야 한다.
100
AcDbText
  0
TEXT
  5
3442
330
2
100
AcDbEntity
  8
1
 62
     4
100
AcDbText
 10
13523.32680609571
 20
4666.78126829706
 30
14.12402627920875
 40
54.0
  1
법에 따라 보수하여야 한다.
100
AcDbText
  0
TEXT
  5
3443
330
2
100
AcDbEntity
  8
1
 62
     4
100
AcDbText
 10
13523.32680609571
 20
4286.905268297056
 30
14.12402627920875
 40
54.0
  1
을 붙일때의 용접은 원칙적으로 공장내에
100
AcDbText
  0
TEXT
  5
3444
330
2
100
AcDbEntity
  8
1
 62
     4
100
AcDbText
 10
13523.32680609571
 20
4923.363934963724
 30
14.12402627920875
 40
54.0
  1
시행하고 도로교 표준 시방서 시공 및 
100
AcDbText
  0
TEXT
  5
3445
330
2
100
AcDbEntity
  8
1
 62
     4
100
AcDbText
 10
13523.32680609571
 20
4795.072601630396
 30
14.12402627920875
 40
54.0
  1
유지관리편 표 2.3.10의 결함부 보수방
100
AcDbText
  0
TEXT
  5
3446
330
2
100
AcDbEntity
  8
1
 62
     4
100
AcDbText
 10
13512.61680609572
 20
5607.504502098696
 30
14.12402627920875
 40
54.0
  1
3)SMAW에서 수평 필렛용접을 할 때는 
100
AcDbText
  0
TEXT
  5
3447
330
2
100
AcDbEntity
  8
1
 62
     4
100
AcDbText
 10
13501.90680609573
 20
5478.380168765368
 30
14.12402627920875
 40
54.0
  1
1층 치수의 최대값은 8mm를 원칙으로 
100
AcDbText
  0
TEXT
  5
3448
330
2
100
AcDbEntity
  8
1
 62
     4
100
AcDbText
 10
13523.32680609571
 20
5350.088835432032
 30
14.12402627920875
 40
54.0
  1
한다.
100
AcDbText
  0
TEXT
  5
3449
330
2
100
AcDbEntity
  8
1
 62
     4
100
AcDbText
 10
13523.32680609571
 20
5873.369168765364
 30
14.12402627920875
 40
54.0
  1
자동, 반자동 용접법을 사용할 때는 이음
100
AcDbText
  0
TEXT
  5
344A
330
2
100
AcDbEntity
  8
1
 62
     4
100
AcDbText
 10
13523.32680609571
 20
5745.077835432033
 30
14.12402627920875
 40
54.0
  1
도중에서 아크를 끊지 않는다.
100
AcDbText
  0
TEXT
  5
344B
330
2
100
AcDbEntity
  8
1
 62
     4
100
AcDbText
 10
13512.61680609572
 20
6001.660502098697
 30
14.12402627920875
 40
54.0
  1
2)서브머지드 아크 용접법 또는 기타의 
100
AcDbText
  0
TEXT
  5
344C
330
2
100
AcDbEntity
  8
1
 62
     4
100
AcDbText
 10
13523.32680609571
 20
6533.389835432027
 30
14.12402627920875
 40
54.0
  1
공
100
AcDbText
  0
TEXT
  5
344D
330
2
100
AcDbEntity
  8
1
 62
     4
100
AcDbText
 10
13501.90680609573
 20
6395.816502098696
 30
14.12402627920875
 40
54.0
  1
1)재편의 모서리부에서 끝나는 필렛용접
100
AcDbText
  0
TEXT
  5
344E
330
2
100
AcDbEntity
  8
1
 62
     4
100
AcDbText
 10
13523.32680609571
 20
6267.525168765363
 30
14.12402627920875
 40
54.0
  1
은 모서리부를 들면서 연속적으로 시공하
100
AcDbText
  0
TEXT
  5
344F
330
2
100
AcDbEntity
  8
1
 62
     4
100
AcDbText
 10
13523.32680609571
 20
6139.233835432033
 30
14.12402627920875
 40
54.0
  1
여야 한다.
100
AcDbText
  0
TEXT
  5
3450
330
2
100
AcDbEntity
  8
1
 62
     4
100
AcDbText
 10
13523.32680609571
 20
6911.599835432027
 30
14.12402627920875
 40
54.0
  1
이에 준하지 않는다.
100
AcDbText
  0
TEXT
  5
3451
330
2
100
AcDbEntity
  8
1
 62
     4
100
AcDbText
 10
13332.02382884205
 20
9902.046502098698
 30
14.12402627920875
 40
54.0
  1
1. 강교의 용접시공은 도로교설계기
100
AcDbText
  0
TEXT
  5
3452
330
2
100
AcDbEntity
  8
1
 62
     4
100
AcDbText
 10
13342.73382884205
 20
7553.056502098695
 30
14.12402627920875
 40
54.0
  1
3. 부분 용해 홈용접의 시공에서 연속된 
100
AcDbText
  0
TEXT
  5
3453
330
2
100
AcDbEntity
  8
1
 62
     4
100
AcDbText
 10
13342.73382884205
 20
8990.441168765372
 30
14.12402627920875
 40
54.0
  1
2. 엔드탭(END TAB) 
100
AcDbText
  0
TEXT
  5
3454
330
2
100
AcDbEntity
  8
1
 62
     4
100
AcDbText
 10
13512.61680609572
 20
8062.889835432033
 30
14.12402627920875
 40
54.0
  1
3)엔드탭은 용접종료후 가스절단법에 따
100
AcDbText
  0
TEXT
  5
3455
330
2
100
AcDbEntity
  8
1
 62
     4
100
AcDbText
 10
13523.32680609571
 20
7168.182502098696
 30
14.12402627920875
 40
54.0
  1
이 없는 것을 확인한 다음 용접을 한다. 
100
AcDbText
  0
TEXT
  5
3456
330
2
100
AcDbEntity
  8
1
 62
     4
100
AcDbText
 10
13523.32680609571
 20
7296.473835432033
 30
14.12402627920875
 40
54.0
  1
는 앞의 비이드의 단부를 깍아내고 결함
100
AcDbText
  0
TEXT
  5
3457
330
2
100
AcDbEntity
  8
1
 62
     4
100
AcDbText
 10
13523.32680609571
 20
7424.765168765363
 30
14.12402627920875
 40
54.0
  1
용접선을 2종의 용접법으로 시공할 때에
100
AcDbText
  0
TEXT
  5
3458
330
2
100
AcDbEntity
  8
1
 62
     4
100
AcDbText
 10
13523.32680609571
 20
7934.598502098696
 30
14.12402627920875
 40
54.0
  1
라 제거하고 그 뒤를 그라인더 다듬질을 
100
AcDbText
  0
TEXT
  5
3459
330
2
100
AcDbEntity
  8
1
 62
     4
100
AcDbText
 10
13523.32680609571
 20
7806.307168765368
 30
14.12402627920875
 40
54.0
  1
하여야 한다.
100
AcDbText
  0
TEXT
  5
345A
330
2
100
AcDbEntity
  8
1
 62
     4
100
AcDbText
 10
13523.32680609571
 20
8328.754502098696
 30
14.12402627920875
 40
54.0
  1
상 50mm이상의 클레이터가 들어가지 
100
AcDbText
  0
TEXT
  5
345B
330
2
100
AcDbEntity
  8
1
 62
     4
100
AcDbText
 10
13512.61680609572
 20
8457.045835432028
 30
14.12402627920875
 40
54.0
  1
2)용접의 시단 및 종단의 처리는 엔드탭
100
AcDbText
  0
TEXT
  5
345C
330
2
100
AcDbEntity
  8
1
 62
     4
100
AcDbText
 10
13523.32680609571
 20
8200.463168765367
 30
14.12402627920875
 40
54.0
  1
않는 범위로 하여야 한다.
100
AcDbText
  0
TEXT
  5
345D
330
2
100
AcDbEntity
  8
1
 62
     4
100
AcDbText
 10
13501.90680609573
 20
8852.867835432036
 30
14.12402627920875
 40
54.0
  1
1)홈용접 및 주형의 플랜지와 복부판의 
100
AcDbText
  0
TEXT
  5
345E
330
2
100
AcDbEntity
  8
1
 62
     4
100
AcDbText
 10
13523.32680609571
 20
8594.619168765367
 30
14.12402627920875
 40
54.0
  1
등한 홈을 가진 엔드탭을 붙여야 한다.
100
AcDbText
  0
TEXT
  5
345F
330
2
100
AcDbEntity
  8
1
 62
     4
100
AcDbText
 10
13523.32680609571
 20
8724.576502098697
 30
14.12402627920875
 40
54.0
  1
필렛용접등의 시공에 있어서는 부재와 동
100
AcDbText
  0
TEXT
  5
3460
330
2
100
AcDbEntity
  8
1
 62
     4
100
AcDbText
 10
13523.32680609571
 20
9507.890502098696
 30
14.12402627920875
 40
54.0
  1
이음성능을 만족할 수 있도록 제시된 사
100
AcDbText
  0
TEXT
  5
3461
330
2
100
AcDbEntity
  8
1
 62
     4
100
AcDbText
 10
13523.32680609571
 20
9379.599168765365
 30
14.12402627920875
 40
54.0
  1
항을 확인하여 신중하게 시공하여야 한
100
AcDbText
  0
TEXT
  5
3462
330
2
100
AcDbEntity
  8
1
 62
     4
100
AcDbText
 10
13523.32680609571
 20
9251.307835432024
 30
14.12402627920875
 40
54.0
  1
다.
100
AcDbText
  0
TEXT
  5
3463
330
2
100
AcDbEntity
  8
1
 62
     4
100
AcDbText
 10
13523.32680609571
 20
9764.473168765373
 30
14.12402627920875
 40
54.0
  1
준(2000. 건설교통부)시공 및 유지관리
100
AcDbText
  0
TEXT
  5
3464
330
2
100
AcDbEntity
  8
1
 62
     4
100
AcDbText
 10
13523.32680609571
 20
9636.181835432036
 30
14.12402627920875
 40
54.0
  1
편에 제시된 자격의 용접기술자가 필요한 
100
AcDbText
  0
ENDSEC
  0
SECTION
  2
OBJECTS
  0
DICTIONARY
  5
1A
330
0
100
AcDbDictionary
  3
ACAD_COLOR
350
353A
  3
ACAD_GROUP
350
18
  3
ACAD_LAYOUT
350
9C0
  3
ACAD_MATERIAL
350
3539
  3
ACAD_MLINESTYLE
350
19
  3
ACAD_PLOTSETTINGS
350
9C1
  3
ACAD_PLOTSTYLENAME
350
9BE
  3
ACDBHEADERROUNDTRIPXREC
350
35A2
  3
ACDBVARIABLEDICTIONARY
350
3504
  0
DICTIONARY
  5
9D0
330
A
100
AcDbDictionary
280
     1
  3
ACAD_LAYERFILTERS
360
9D1
  0
DICTIONARY
  5
34EE
330
2
100
AcDbDictionary
280
     1
  3
ACAD_LAYOUTSELFREF
360
35C3
  0
DICTIONARY
  5
34F0
330
7
100
AcDbDictionary
280
     1
  3
ACAD_LAYOUTSELFREF
360
35C4
  0
DICTIONARY
  5
353A
102
{ACAD_REACTORS
330
1A
102
}
330
1A
100
AcDbDictionary
  0
DICTIONARY
  5
18
102
{ACAD_REACTORS
330
1A
102
}
330
1A
100
AcDbDictionary
  0
DICTIONARY
  5
9C0
102
{ACAD_REACTORS
330
1A
102
}
330
1A
100
AcDbDictionary
  0
DICTIONARY
  5
3539
102
{ACAD_REACTORS
330
1A
102
}
330
1A
100
AcDbDictionary
  0
DICTIONARY
  5
19
102
{ACAD_REACTORS
330
1A
102
}
330
1A
100
AcDbDictionary
  3
STANDARD
350
1D
  0
DICTIONARY
  5
9C1
102
{ACAD_REACTORS
330
1A
102
}
330
1A
100
AcDbDictionary
  0
ACDBDICTIONARYWDFLT
  5
9BE
102
{ACAD_REACTORS
330
1A
102
}
330
1A
100
AcDbDictionary
281
     1
  3
Normal
350
9BF
100
AcDbDictionaryWithDefault
340
9BF
  0
DICTIONARY
  5
35A2
102
{ACAD_REACTORS
330
1A
102
}
330
1A
100
AcDbDictionary
  3
CEPSNTYPE
350
35AC
  3
DIMSTYLEDATA
350
35B0
  3
FINGERPRINTGUID
350
35AD
  3
HYPERLINKBASE
350
35A5
  3
INSUNITS
350
35AB
  3
LAYOUTDICT
350
35A7
  3
LWETCUNION
350
35AA
  3
PLOTSETDICT
350
35A8
  3
PLOTSTYLNAMDICT
350
35A9
  3
PSVPSCALE
350
35AF
  3
PUCSBASE
350
35B3
  3
PUCSORGBACK
350
35B9
  3
PUCSORGBOTTOM
350
35B5
  3
PUCSORGFRONT
350
35B8
  3
PUCSORGLEFT
350
35B6
  3
PUCSORGRIGHT
350
35B7
  3
PUCSORGTOP
350
35B4
  3
PUCSORTHOREF
350
35B1
  3
PUCSORTHOVIEW
350
35B2
  3
STYLESHEET
350
35A6
  3
TSTACKALIGN
350
35A3
  3
TSTACKSIZE
350
35A4
  3
UCSBASE
350
35BC
  3
UCSORGBACK
350
35C2
  3
UCSORGBOTTOM
350
35BE
  3
UCSORGFRONT
350
35C1
  3
UCSORGLEFT
350
35BF
  3
UCSORGRIGHT
350
35C0
  3
UCSORGTOP
350
35BD
  3
UCSORTHOREF
350
35BA
  3
UCSORTHOVIEW
350
35BB
  3
VERSIONGUID
350
35AE
  0
DICTIONARY
  5
3504
102
{ACAD_REACTORS
330
1A
102
}
330
1A
100
AcDbDictionary
  3
DIMASSOC
350
3505
  3
PROJECTNAME
350
3541
  0
DICTIONARY
  5
9D1
102
{ACAD_REACTORS
330
9D0
102
}
330
9D0
100
AcDbDictionary
280
     1
  3
2
360
9D2
  3
COLOR
360
9D3
  3
DOR-H
360
9D4
  3
FROZEN
360
9D5
  3
KCK
360
9D6
  3
MRKCK
360
9D7
  3
실박스
360
9D8
  3
주차
360
9D9
  0
XRECORD
  5
35C3
102
{ACAD_REACTORS
330
34EE
102
}
330
34EE
100
AcDbXrecord
340
2
  0
XRECORD
  5
35C4
102
{ACAD_REACTORS
330
34F0
102
}
330
34F0
100
AcDbXrecord
340
7
  0
MLINESTYLE
  5
1D
102
{ACAD_REACTORS
330
19
102
}
330
19
100
AcDbMlineStyle
  2
STANDARD
 70
     0
  3

 62
   256
 51
90.0
 52
90.0
 71
     2
 49
0.5
 62
   256
  6
BYLAYER
 49
-0.5
 62
   256
  6
BYLAYER
  0
ACDBPLACEHOLDER
  5
9BF
102
{ACAD_REACTORS
330
9BE
102
}
330
9BE
100
AcDbPlaceHolder
280
     0
  0
XRECORD
  5
35AC
102
{ACAD_REACTORS
330
35A2
102
}
330
35A2
100
AcDbXrecord
 90
        0
  0
XRECORD
  5
35B0
102
{ACAD_REACTORS
330
35A2
102
}
330
35A2
100
AcDbXrecord
1000
DSTYLE
1002
{
1070
   279
 70
     2
1002
}
  0
XRECORD
  5
35AD
102
{ACAD_REACTORS
330
35A2
102
}
330
35A2
100
AcDbXrecord
  1
{E46947D5-6B18-11D6-9F6E-000423111849}
  0
XRECORD
  5
35A5
102
{ACAD_REACTORS
330
35A2
102
}
330
35A2
100
AcDbXrecord
  1

  0
XRECORD
  5
35AB
102
{ACAD_REACTORS
330
35A2
102
}
330
35A2
100
AcDbXrecord
 90
        0
  0
XRECORD
  5
35A7
102
{ACAD_REACTORS
330
35A2
102
}
330
35A2
100
AcDbXrecord
340
9C0
  0
XRECORD
  5
35AA
102
{ACAD_REACTORS
330
35A2
102
}
330
35A2
100
AcDbXrecord
 90
    10781
  0
XRECORD
  5
35A8
102
{ACAD_REACTORS
330
35A2
102
}
330
35A2
100
AcDbXrecord
340
9C1
  0
XRECORD
  5
35A9
102
{ACAD_REACTORS
330
35A2
102
}
330
35A2
100
AcDbXrecord
340
9BE
  0
XRECORD
  5
35AF
102
{ACAD_REACTORS
330
35A2
102
}
330
35A2
100
AcDbXrecord
 40
0.0
  0
XRECORD
  5
35B3
102
{ACAD_REACTORS
330
35A2
102
}
330
35A2
100
AcDbXrecord
340
0
  0
XRECORD
  5
35B9
102
{ACAD_REACTORS
330
35A2
102
}
330
35A2
100
AcDbXrecord
 10
0.0
 20
0.0
 30
0.0
  0
XRECORD
  5
35B5
102
{ACAD_REACTORS
330
35A2
102
}
330
35A2
100
AcDbXrecord
 10
0.0
 20
0.0
 30
0.0
  0
XRECORD
  5
35B8
102
{ACAD_REACTORS
330
35A2
102
}
330
35A2
100
AcDbXrecord
 10
0.0
 20
0.0
 30
0.0
  0
XRECORD
  5
35B6
102
{ACAD_REACTORS
330
35A2
102
}
330
35A2
100
AcDbXrecord
 10
0.0
 20
0.0
 30
0.0
  0
XRECORD
  5
35B7
102
{ACAD_REACTORS
330
35A2
102
}
330
35A2
100
AcDbXrecord
 10
0.0
 20
0.0
 30
0.0
  0
XRECORD
  5
35B4
102
{ACAD_REACTORS
330
35A2
102
}
330
35A2
100
AcDbXrecord
 10
0.0
 20
0.0
 30
0.0
  0
XRECORD
  5
35B1
102
{ACAD_REACTORS
330
35A2
102
}
330
35A2
100
AcDbXrecord
340
0
  0
XRECORD
  5
35B2
102
{ACAD_REACTORS
330
35A2
102
}
330
35A2
100
AcDbXrecord
 70
     0
  0
XRECORD
  5
35A6
102
{ACAD_REACTORS
330
35A2
102
}
330
35A2
100
AcDbXrecord
  1
A3일반도.CTB
  0
XRECORD
  5
35A3
102
{ACAD_REACTORS
330
35A2
102
}
330
35A2
100
AcDbXrecord
 90
        1
  0
XRECORD
  5
35A4
102
{ACAD_REACTORS
330
35A2
102
}
330
35A2
100
AcDbXrecord
 90
       70
  0
XRECORD
  5
35BC
102
{ACAD_REACTORS
330
35A2
102
}
330
35A2
100
AcDbXrecord
340
0
  0
XRECORD
  5
35C2
102
{ACAD_REACTORS
330
35A2
102
}
330
35A2
100
AcDbXrecord
 10
0.0
 20
0.0
 30
0.0
  0
XRECORD
  5
35BE
102
{ACAD_REACTORS
330
35A2
102
}
330
35A2
100
AcDbXrecord
 10
0.0
 20
0.0
 30
0.0
  0
XRECORD
  5
35C1
102
{ACAD_REACTORS
330
35A2
102
}
330
35A2
100
AcDbXrecord
 10
0.0
 20
0.0
 30
0.0
  0
XRECORD
  5
35BF
102
{ACAD_REACTORS
330
35A2
102
}
330
35A2
100
AcDbXrecord
 10
0.0
 20
0.0
 30
0.0
  0
XRECORD
  5
35C0
102
{ACAD_REACTORS
330
35A2
102
}
330
35A2
100
AcDbXrecord
 10
0.0
 20
0.0
 30
0.0
  0
XRECORD
  5
35BD
102
{ACAD_REACTORS
330
35A2
102
}
330
35A2
100
AcDbXrecord
 10
0.0
 20
0.0
 30
0.0
  0
XRECORD
  5
35BA
102
{ACAD_REACTORS
330
35A2
102
}
330
35A2
100
AcDbXrecord
340
0
  0
XRECORD
  5
35BB
102
{ACAD_REACTORS
330
35A2
102
}
330
35A2
100
AcDbXrecord
 70
     0
  0
XRECORD
  5
35AE
102
{ACAD_REACTORS
330
35A2
102
}
330
35A2
100
AcDbXrecord
  1
{87020ABB-D735-4120-8687-FDB6EFAEC518}
  0
DICTIONARYVAR
  5
3505
102
{ACAD_REACTORS
330
3504
102
}
330
3504
100
DictionaryVariables
280
     0
  1
1
  0
DICTIONARYVAR
  5
3541
102
{ACAD_REACTORS
330
3504
102
}
330
3504
100
DictionaryVariables
280
     0
  1

  0
XRECORD
  5
9D2
102
{ACAD_REACTORS
330
9D1
102
}
330
9D1
100
AcDbXrecord
  1
2
  1
*
  1
2
  1
*
 70
     0
  1
*
  1
*
  0
XRECORD
  5
9D3
102
{ACAD_REACTORS
330
9D1
102
}
330
9D1
100
AcDbXrecord
  1
COLOR
  1
*
  1
253
  1
*
 70
     0
  1
*
  1
*
  0
XRECORD
  5
9D4
102
{ACAD_REACTORS
330
9D1
102
}
330
9D1
100
AcDbXrecord
  1
DOR-H
  1
*
  1
7
  1
*
 70
     0
  1
*
  1
*
  0
XRECORD
  5
9D5
102
{ACAD_REACTORS
330
9D1
102
}
330
9D1
100
AcDbXrecord
  1
FROZEN
  1
*
  1
*
  1
*
 70
     0
  1
*
  1
*
  0
XRECORD
  5
9D6
102
{ACAD_REACTORS
330
9D1
102
}
330
9D1
100
AcDbXrecord
  1
kck
  1
*
  1
*
  1
*
 70
     0
  1
*
  1
*
  0
XRECORD
  5
9D7
102
{ACAD_REACTORS
330
9D1
102
}
330
9D1
100
AcDbXrecord
  1
MRKCK
  1
*
  1
*
  1
*
 70
     0
  1
*
  1
*
  0
XRECORD
  5
9D8
102
{ACAD_REACTORS
330
9D1
102
}
330
9D1
100
AcDbXrecord
  1
실박스
  1
BLO,SYM,SYM1,SYM2
  1
*
  1
*
 70
     0
  1
*
  1
*
  0
XRECORD
  5
9D9
102
{ACAD_REACTORS
330
9D1
102
}
330
9D1
100
AcDbXrecord
  1
주차
  1
car*
  1
*
  1
*
 70
     0
  1
*
  1
*
  0
ENDSEC
  0
EOF
