  0
SECTION
  2
HEADER
  9
$ACADVER
  1
AC1014
  9
$ACADMAINTVER
 70
     9
  9
$DWGCODEPAGE
  3
ANSI_949
  9
$INSBASE
 10
0.0
 20
0.0
 30
0.0
  9
$EXTMIN
 10
1505.529984931403
 20
1630.269213880296
 30
-0.000000000000013
  9
$EXTMAX
 10
15316.25988368908
 20
10248.67884276138
 30
0.0000000000000023
  9
$LIMMIN
 10
-2100.0
 20
-472.972973
  9
$LIMMAX
 10
81900.0
 20
59902.87923300001
  9
$ORTHOMODE
 70
     1
  9
$REGENMODE
 70
     1
  9
$FILLMODE
 70
     1
  9
$QTEXTMODE
 70
     0
  9
$MIRRTEXT
 70
     1
  9
$DRAGMODE
 70
     2
  9
$LTSCALE
 40
1.0
  9
$OSMODE
 70
    37
  9
$ATTMODE
 70
     1
  9
$TEXTSIZE
 40
0.0
  9
$TRACEWID
 40
0.05
  9
$TEXTSTYLE
  7
A_STANDARD
  9
$CLAYER
  8
0
  9
$CELTYPE
  6
CONTINUOUS
  9
$CECOLOR
 62
   256
  9
$CELTSCALE
 40
1.0
  9
$DELOBJ
 70
     1
  9
$DISPSILH
 70
     0
  9
$DIMSCALE
 40
1.0
  9
$DIMASZ
 40
1.0
  9
$DIMEXO
 40
0.0
  9
$DIMDLI
 40
0.38
  9
$DIMRND
 40
0.0
  9
$DIMDLE
 40
0.0
  9
$DIMEXE
 40
1.0
  9
$DIMTP
 40
0.0
  9
$DIMTM
 40
0.0
  9
$DIMTXT
 40
2.5
  9
$DIMCEN
 40
0.09
  9
$DIMTSZ
 40
0.0
  9
$DIMTOL
 70
     0
  9
$DIMLIM
 70
     0
  9
$DIMTIH
 70
     0
  9
$DIMTOH
 70
     0
  9
$DIMSE1
 70
     0
  9
$DIMSE2
 70
     0
  9
$DIMTAD
 70
     0
  9
$DIMZIN
 70
     0
  9
$DIMBLK
  1

  9
$DIMASO
 70
     1
  9
$DIMSHO
 70
     1
  9
$DIMPOST
  1

  9
$DIMAPOST
  1

  9
$DIMALT
 70
     0
  9
$DIMALTD
 70
     2
  9
$DIMALTF
 40
25.4
  9
$DIMLFAC
 40
1.0
  9
$DIMTOFL
 70
     1
  9
$DIMTVP
 40
1.0
  9
$DIMTIX
 70
     1
  9
$DIMSOXD
 70
     0
  9
$DIMSAH
 70
     1
  9
$DIMBLK1
  1
DOT
  9
$DIMBLK2
  1
DOT
  9
$DIMSTYLE
  2
DIMPUT
  9
$DIMCLRD
 70
     2
  9
$DIMCLRE
 70
     2
  9
$DIMCLRT
 70
     7
  9
$DIMTFAC
 40
1.0
  9
$DIMGAP
 40
1.0
  9
$DIMJUST
 70
     0
  9
$DIMSD1
 70
     0
  9
$DIMSD2
 70
     0
  9
$DIMTOLJ
 70
     1
  9
$DIMTZIN
 70
     0
  9
$DIMALTZ
 70
     0
  9
$DIMALTTZ
 70
     0
  9
$DIMFIT
 70
     3
  9
$DIMUPT
 70
     0
  9
$DIMUNIT
 70
     2
  9
$DIMDEC
 70
     4
  9
$DIMTDEC
 70
     4
  9
$DIMALTU
 70
     2
  9
$DIMALTTD
 70
     2
  9
$DIMTXSTY
  7
GHS
  9
$DIMAUNIT
 70
     0
  9
$LUNITS
 70
     2
  9
$LUPREC
 70
     4
  9
$SKETCHINC
 40
0.1
  9
$FILLETRAD
 40
0.0
  9
$AUNITS
 70
     0
  9
$AUPREC
 70
     0
  9
$MENU
  1
.
  9
$ELEVATION
 40
0.0
  9
$PELEVATION
 40
0.0
  9
$THICKNESS
 40
0.0
  9
$LIMCHECK
 70
     0
  9
$BLIPMODE
 70
     0
  9
$CHAMFERA
 40
0.0
  9
$CHAMFERB
 40
0.0
  9
$CHAMFERC
 40
0.0
  9
$CHAMFERD
 40
0.0
  9
$SKPOLY
 70
     0
  9
$TDCREATE
 40
2452307.463767593
  9
$TDUPDATE
 40
2454055.604413333
  9
$TDINDWG
 40
0.7014919329
  9
$TDUSRTIMER
 40
0.7014868519
  9
$USRTIMER
 70
     1
  9
$ANGBASE
 50
0.0
  9
$ANGDIR
 70
     0
  9
$PDMODE
 70
     0
  9
$PDSIZE
 40
0.0
  9
$PLINEWID
 40
0.0
  9
$COORDS
 70
     1
  9
$SPLFRAME
 70
     0
  9
$SPLINETYPE
 70
     6
  9
$SPLINESEGS
 70
     8
  9
$ATTDIA
 70
     0
  9
$ATTREQ
 70
     1
  9
$HANDLING
 70
 22529
  9
$HANDSEED
  5
18078
  9
$SURFTAB1
 70
     6
  9
$SURFTAB2
 70
     6
  9
$SURFTYPE
 70
     6
  9
$SURFU
 70
     6
  9
$SURFV
 70
     6
  9
$UCSNAME
  2

  9
$UCSORG
 10
0.0
 20
0.0
 30
0.0
  9
$UCSXDIR
 10
1.0
 20
0.0
 30
0.0
  9
$UCSYDIR
 10
0.0
 20
1.0
 30
0.0
  9
$PUCSNAME
  2

  9
$PUCSORG
 10
0.0
 20
0.0
 30
0.0
  9
$PUCSXDIR
 10
1.0
 20
0.0
 30
0.0
  9
$PUCSYDIR
 10
0.0
 20
1.0
 30
0.0
  9
$USERI1
 70
     0
  9
$USERI2
 70
     0
  9
$USERI3
 70
     0
  9
$USERI4
 70
     0
  9
$USERI5
 70
     0
  9
$USERR1
 40
0.0
  9
$USERR2
 40
0.0
  9
$USERR3
 40
0.0
  9
$USERR4
 40
0.0
  9
$USERR5
 40
0.0
  9
$WORLDVIEW
 70
     1
  9
$SHADEDGE
 70
     3
  9
$SHADEDIF
 70
    70
  9
$TILEMODE
 70
     1
  9
$MAXACTVP
 70
    48
  9
$PINSBASE
 10
0.0
 20
0.0
 30
0.0
  9
$PLIMCHECK
 70
     0
  9
$PEXTMIN
 10
1.000000000000000E+20
 20
1.000000000000000E+20
 30
1.000000000000000E+20
  9
$PEXTMAX
 10
-1.000000000000000E+20
 20
-1.000000000000000E+20
 30
-1.000000000000000E+20
  9
$PLIMMIN
 10
0.0
 20
0.0
  9
$PLIMMAX
 10
12.0
 20
9.0
  9
$UNITMODE
 70
     0
  9
$VISRETAIN
 70
     1
  9
$PLINEGEN
 70
     0
  9
$PSLTSCALE
 70
     1
  9
$TREEDEPTH
 70
  3020
  9
$PICKSTYLE
 70
     1
  9
$CMLSTYLE
  2
STANDARD
  9
$CMLJUST
 70
     0
  9
$CMLSCALE
 40
1.0
  9
$PROXYGRAPHICS
 70
     1
  9
$MEASUREMENT
 70
     0
  0
ENDSEC
  0
SECTION
  2
CLASSES
  0
CLASS
  1
ACDBDICTIONARYWDFLT
  2
AcDbDictionaryWithDefault
  3
AutoCAD 2000
 90
        0
280
     0
281
     0
  0
CLASS
  1
ACDBPLACEHOLDER
  2
AcDbPlaceHolder
  3
AutoCAD 2000
 90
        0
280
     0
281
     0
  0
CLASS
  1
LAYOUT
  2
AcDbLayout
  3
AutoCAD 2000
 90
        0
280
     0
281
     0
  0
CLASS
  1
DICTIONARYVAR
  2
AcDbDictionaryVar
  3
AutoCAD 2000
 90
        0
280
     0
281
     0
  0
CLASS
  1
LONG_TRANSACTION
  2
AcDbLongTransaction
  3
AutoCAD 2000
 90
        0
280
     0
281
     0
  0
CLASS
  1
LWPOLYLINE
  2
AcDbPolyline
  3
AutoCAD 2000
 90
        0
280
     0
281
     1
  0
CLASS
  1
HATCH
  2
AcDbHatch
  3
AutoCAD 2000
 90
        0
280
     0
281
     1
  0
CLASS
  1
XRECORD
  2
AcDbXrecord
  3
AutoCAD 2000
 90
        0
280
     0
281
     0
  0
CLASS
  1
LONG_TRANSACTION
  2
AcDbLongTransaction
  3
AutoCAD 2000
 90
        0
280
     0
281
     0
  0
CLASS
  1
LWPOLYLINE
  2
AcDbPolyline
  3
AutoCAD 2000
 90
        0
280
     0
281
     1
  0
CLASS
  1
HATCH
  2
AcDbHatch
  3
AutoCAD 2000
 90
        0
280
     0
281
     1
  0
CLASS
  1
XRECORD
  2
AcDbXrecord
  3
AutoCAD 2000
 90
        0
280
     0
281
     0
  0
CLASS
  1
LONG_TRANSACTION
  2
AcDbLongTransaction
  3
AutoCAD 2000
 90
        0
280
     0
281
     0
  0
CLASS
  1
LWPOLYLINE
  2
AcDbPolyline
  3
AutoCAD 2000
 90
        0
280
     0
281
     1
  0
CLASS
  1
HATCH
  2
AcDbHatch
  3
AutoCAD 2000
 90
        0
280
     0
281
     1
  0
CLASS
  1
XRECORD
  2
AcDbXrecord
  3
AutoCAD 2000
 90
        0
280
     0
281
     0
  0
CLASS
  1
LONG_TRANSACTION
  2
AcDbLongTransaction
  3
AutoCAD 2000
 90
        0
280
     0
281
     0
  0
CLASS
  1
LWPOLYLINE
  2
AcDbPolyline
  3
AutoCAD 2000
 90
        0
280
     0
281
     1
  0
CLASS
  1
HATCH
  2
AcDbHatch
  3
AutoCAD 2000
 90
        0
280
     0
281
     1
  0
CLASS
  1
XRECORD
  2
AcDbXrecord
  3
AutoCAD 2000
 90
        0
280
     0
281
     0
  0
ENDSEC
  0
SECTION
  2
TABLES
  0
TABLE
  2
VPORT
  5
182
330
0
100
AcDbSymbolTable
 70
     2
  0
VPORT
  5
18054
330
182
100
AcDbSymbolTableRecord
100
AcDbViewportTableRecord
  2
*ACTIVE
 70
     0
 10
0.0
 20
0.0
 11
1.0
 21
1.0
 12
8410.894934310244
 22
5939.474028320837
 13
0.0
 23
0.0
 14
10.0
 24
10.0
 15
10.0
 25
10.0
 16
0.0
 26
0.0
 36
1.0
 17
0.0
 27
0.0
 37
0.0
 40
8761.123262579173
 41
1.584210526315789
 42
50.0
 43
0.0
 44
0.0
 50
0.0
 51
0.0
 71
     0
 72
   100
 73
     1
 74
     3
 75
     0
 76
     0
 77
     0
 78
     0
  0
ENDTAB
  0
TABLE
  2
LTYPE
  5
100
330
0
100
AcDbSymbolTable
 70
     1
  0
LTYPE
  5
101
330
100
100
AcDbSymbolTableRecord
100
AcDbLinetypeTableRecord
  2
BYBLOCK
 70
     0
  3

 72
    65
 73
     0
 40
0.0
  0
LTYPE
  5
102
330
100
100
AcDbSymbolTableRecord
100
AcDbLinetypeTableRecord
  2
BYLAYER
 70
     0
  3

 72
    65
 73
     0
 40
0.0
  0
LTYPE
  5
103
330
100
100
AcDbSymbolTableRecord
100
AcDbLinetypeTableRecord
  2
CONTINUOUS
 70
     0
  3
Solid Line
 72
    65
 73
     0
 40
0.0
  0
ENDTAB
  0
TABLE
  2
LAYER
  5
117
102
{ACAD_XDICTIONARY
360
15CFE
102
}
330
0
100
AcDbSymbolTable
 70
    10
  0
LAYER
  5
10
330
117
100
AcDbSymbolTableRecord
100
AcDbLayerTableRecord
  2
0
 70
     0
 62
     7
  6
CONTINUOUS
  0
LAYER
  5
118
330
117
100
AcDbSymbolTableRecord
100
AcDbLayerTableRecord
  2
A_0
 70
     0
 62
     7
  6
CONTINUOUS
  0
LAYER
  5
119
330
117
100
AcDbSymbolTableRecord
100
AcDbLayerTableRecord
  2
A_1
 70
     0
 62
     1
  6
CONTINUOUS
  0
LAYER
  5
120
330
117
100
AcDbSymbolTableRecord
100
AcDbLayerTableRecord
  2
A_2
 70
     0
 62
     2
  6
CONTINUOUS
  0
LAYER
  5
122
330
117
100
AcDbSymbolTableRecord
100
AcDbLayerTableRecord
  2
A_4
 70
     0
 62
     4
  6
CONTINUOUS
  0
LAYER
  5
123
330
117
100
AcDbSymbolTableRecord
100
AcDbLayerTableRecord
  2
A_5
 70
     0
 62
     5
  6
CONTINUOUS
  0
LAYER
  5
124
330
117
100
AcDbSymbolTableRecord
100
AcDbLayerTableRecord
  2
A_6
 70
     0
 62
     6
  6
CONTINUOUS
  0
LAYER
  5
125
330
117
100
AcDbSymbolTableRecord
100
AcDbLayerTableRecord
  2
A_7
 70
     0
 62
     7
  6
CONTINUOUS
  0
LAYER
  5
17E7E
330
117
100
AcDbSymbolTableRecord
100
AcDbLayerTableRecord
  2
CS-STEL-MAJR
 70
     0
 62
     4
  6
CONTINUOUS
  0
LAYER
  5
17E85
330
117
100
AcDbSymbolTableRecord
100
AcDbLayerTableRecord
  2
CS-DIML
 70
     0
 62
     1
  6
CONTINUOUS
  0
ENDTAB
  0
TABLE
  2
STYLE
  5
170
330
0
100
AcDbSymbolTable
 70
     4
  0
STYLE
  5
171
330
170
100
AcDbSymbolTableRecord
100
AcDbTextStyleTableRecord
  2
A_STANDARD
 70
     0
 40
0.0
 41
1.0
 50
0.0
 71
     0
 42
0.0
  3
romans.shx
  4
ghs.shx
  0
STYLE
  5
12238
330
170
100
AcDbSymbolTableRecord
100
AcDbTextStyleTableRecord
  2
STANDARD
 70
     0
 40
0.0
 41
1.0
 50
0.0
 71
     0
 42
0.2
  3

  4

  0
STYLE
  5
134F0
330
170
100
AcDbSymbolTableRecord
100
AcDbTextStyleTableRecord
  2
GHS
 70
     0
 40
0.0
 41
1.0
 50
0.0
 71
     0
 42
300.0
  3
romans
  4
ghs
  0
STYLE
  5
17AE8
330
170
100
AcDbSymbolTableRecord
100
AcDbTextStyleTableRecord
  2
TITLE1
 70
     0
 40
0.0
 41
1.0
 50
0.0
 71
     0
 42
0.0
  3
Dotum.ttf
  4

1001
ACAD
1000
Dotum
1071
    33074
  0
ENDTAB
  0
TABLE
  2
VIEW
  5
194
330
0
100
AcDbSymbolTable
 70
     0
  0
ENDTAB
  0
TABLE
  2
UCS
  5
205
330
0
100
AcDbSymbolTable
 70
     0
  0
ENDTAB
  0
TABLE
  2
APPID
  5
227
330
0
100
AcDbSymbolTable
 70
     5
  0
APPID
  5
228
330
227
100
AcDbSymbolTableRecord
100
AcDbRegAppTableRecord
  2
ACAD
 70
     0
  0
APPID
  5
149DF
330
227
100
AcDbSymbolTableRecord
100
AcDbRegAppTableRecord
  2
GOUNGUL
 70
     0
  0
APPID
  5
17467
330
227
100
AcDbSymbolTableRecord
100
AcDbRegAppTableRecord
  2
AUTOCAD_POSTSCRIPT_FIGURE
 70
     0
  0
APPID
  5
17468
330
227
100
AcDbSymbolTableRecord
100
AcDbRegAppTableRecord
  2
CONTENTBLOCKICON
 70
     0
  0
APPID
  5
17469
330
227
100
AcDbSymbolTableRecord
100
AcDbRegAppTableRecord
  2
RAK
 70
     0
  0
ENDTAB
  0
TABLE
  2
DIMSTYLE
  5
216
330
0
100
AcDbSymbolTable
 70
     2
  0
DIMSTYLE
105
27
330
216
100
AcDbSymbolTableRecord
100
AcDbDimStyleTableRecord
  2
STANDARD
 70
     0
  3

  4

  5

  6

  7

 40
1.0
 41
0.18
 42
0.0625
 43
0.38
 44
0.18
 45
0.0
 46
0.0
 47
0.0
 48
0.0
140
0.18
141
0.09
142
0.0
143
25.4
144
1.0
145
0.0
146
1.0
147
0.09
 71
     0
 72
     0
 73
     1
 74
     1
 75
     0
 76
     0
 77
     0
 78
     0
170
     0
171
     2
172
     0
173
     0
174
     0
175
     0
176
     0
177
     0
178
     0
270
     2
271
     4
272
     4
273
     2
274
     2
340
171
275
     0
280
     0
281
     0
282
     0
283
     1
284
     0
285
     0
286
     0
287
     3
288
     0
  0
DIMSTYLE
105
17B62
330
216
100
AcDbSymbolTableRecord
100
AcDbDimStyleTableRecord
  2
DIMPUT
 70
     0
  3

  4

  5

  6
DOT
  7
DOT
 40
1.0
 41
1.0
 42
0.0
 43
0.38
 44
1.0
 45
0.0
 46
0.0
 47
0.0
 48
0.0
140
2.5
141
0.09
142
0.0
143
25.4
144
1.0
145
1.0
146
1.0
147
1.0
 71
     0
 72
     0
 73
     0
 74
     0
 75
     0
 76
     0
 77
     0
 78
     0
170
     0
171
     2
172
     1
173
     1
174
     1
175
     0
176
     2
177
     2
178
     7
270
     2
271
     4
272
     4
273
     2
274
     2
340
134F0
275
     0
280
     0
281
     0
282
     0
283
     1
284
     0
285
     0
286
     0
287
     3
288
     0
  0
ENDTAB
  0
TABLE
  2
BLOCK_RECORD
  5
239
330
0
100
AcDbSymbolTable
 70
     1
  0
BLOCK_RECORD
  5
240
102
{ACAD_XDICTIONARY
360
17B33
102
}
330
239
100
AcDbSymbolTableRecord
100
AcDbBlockTableRecord
  2
*MODEL_SPACE
  0
BLOCK_RECORD
  5
241
102
{ACAD_XDICTIONARY
360
17B35
102
}
330
239
100
AcDbSymbolTableRecord
100
AcDbBlockTableRecord
  2
*PAPER_SPACE
  0
BLOCK_RECORD
  5
17B5D
330
239
100
AcDbSymbolTableRecord
100
AcDbBlockTableRecord
  2
_DOT
  0
ENDTAB
  0
ENDSEC
  0
SECTION
  2
BLOCKS
  0
BLOCK
  5
252
330
240
100
AcDbEntity
  8
A_0
100
AcDbBlockBegin
  2
*MODEL_SPACE
 70
     0
 10
0.0
 20
0.0
 30
0.0
  3
*MODEL_SPACE
  1

  0
ENDBLK
  5
253
330
240
100
AcDbEntity
  8
0
100
AcDbBlockEnd
  0
BLOCK
  5
254
330
241
100
AcDbEntity
 67
     1
  8
A_0
100
AcDbBlockBegin
  2
*PAPER_SPACE
 70
     0
 10
0.0
 20
0.0
 30
0.0
  3
*PAPER_SPACE
  1

  0
ENDBLK
  5
255
330
241
100
AcDbEntity
 67
     1
  8
0
100
AcDbBlockEnd
  0
BLOCK
  5
17B60
330
17B5D
100
AcDbEntity
  8
0
100
AcDbBlockBegin
  2
_DOT
 70
     0
 10
0.0
 20
0.0
 30
0.0
  3
_DOT
  1

  0
LWPOLYLINE
  5
17B5E
330
17B5D
100
AcDbEntity
  8
0
  6
BYBLOCK
 62
     0
100
AcDbPolyline
 90
        2
 70
     1
 43
0.5
 10
-0.25
 20
0.0
 42
1.0
 10
0.25
 20
0.0
 42
1.0
  0
LINE
  5
17B5F
330
17B5D
100
AcDbEntity
  8
0
  6
BYBLOCK
 62
     0
100
AcDbLine
 10
-0.5
 20
0.0
 30
0.0
 11
-1.0
 21
0.0
 31
0.0
  0
ENDBLK
  5
17B61
330
17B5D
100
AcDbEntity
  8
0
100
AcDbBlockEnd
  0
ENDSEC
  0
SECTION
  2
ENTITIES
  0
LINE
  5
10358
330
240
100
AcDbEntity
  8
A_0
100
AcDbLine
 10
6109.999989299016
 20
1632.000006456102
 30
0.0
 11
6109.999989299016
 21
10248.00000645609
 31
0.0
  0
LINE
  5
10359
330
240
100
AcDbEntity
  8
A_0
100
AcDbLine
 10
10709.999989199
 20
1632.000006456102
 30
0.0
 11
10709.999989199
 21
10248.00000645609
 31
0.0
  0
LINE
  5
10360
330
240
100
AcDbEntity
  8
A_0
100
AcDbLine
 10
1509.999989299017
 20
5940.000006456092
 30
0.0
 11
15309.99998919899
 21
5940.000006456092
 31
0.0
  0
LINE
  5
10361
330
240
100
AcDbEntity
  8
A_0
100
AcDbLine
 10
1509.999989299017
 20
5632.0000064561
 30
0.0
 11
15309.99998919899
 21
5632.0000064561
 31
0.0
  0
LINE
  5
10362
330
240
100
AcDbEntity
  8
A_0
100
AcDbLine
 10
1509.999989299017
 20
9940.000006456102
 30
0.0
 11
15309.99998919899
 21
9940.000006456102
 31
0.0
  0
LINE
  5
10433
330
240
100
AcDbEntity
  8
A_1
100
AcDbLine
 10
3682.499989299012
 20
4506.000006556096
 30
0.0
 11
3937.499989299016
 21
4506.000006556096
 31
0.0
  0
LINE
  5
10434
330
240
100
AcDbEntity
  8
A_1
100
AcDbLine
 10
3682.499989299012
 20
4406.00000655609
 30
0.0
 11
3937.499989299016
 21
4406.000006556094
 31
0.0
  0
LINE
  5
10435
330
240
100
AcDbEntity
  8
A_1
100
AcDbLine
 10
3682.499989299012
 20
4306.000006556096
 30
0.0
 11
3937.499989299016
 21
4306.000006556096
 31
0.0
  0
LINE
  5
10436
330
240
100
AcDbEntity
  8
A_1
100
AcDbLine
 10
3767.499989299006
 20
4506.000006556096
 30
0.0
 11
3767.499989299006
 21
2876.000006556099
 31
0.0
  0
LINE
  5
10437
330
240
100
AcDbEntity
  8
A_1
100
AcDbLine
 10
3852.499989299016
 20
4506.000006556096
 30
0.0
 11
3852.499989299016
 21
2876.000006556099
 31
0.0
  0
LINE
  5
10438
330
240
100
AcDbEntity
  8
A_1
100
AcDbLine
 10
3682.499989299012
 20
4506.000006556096
 30
0.0
 11
3682.499989299012
 21
2876.000006556099
 31
0.0
  0
LINE
  5
10439
330
240
100
AcDbEntity
  8
A_1
100
AcDbLine
 10
3937.499989299016
 20
4506.000006556096
 30
0.0
 11
3937.499989299016
 21
2876.000006556099
 31
0.0
  0
LINE
  5
10442
330
240
100
AcDbEntity
  8
A_1
100
AcDbLine
 10
3682.499989299012
 20
4191.00000655609
 30
0.0
 11
3937.499989299016
 21
4191.000006556087
 31
0.0
  0
LINE
  5
10443
330
240
100
AcDbEntity
  8
A_1
100
AcDbLine
 10
3682.499989299012
 20
4091.000006556095
 30
0.0
 11
3937.499989299016
 21
4091.000006556096
 31
0.0
  0
LINE
  5
10444
330
240
100
AcDbEntity
  8
A_1
100
AcDbLine
 10
3682.499989299012
 20
3991.000006556093
 30
0.0
 11
3937.499989299016
 21
3991.00000655609
 31
0.0
  0
LINE
  5
10445
330
240
100
AcDbEntity
  8
A_1
100
AcDbLine
 10
3682.499989299012
 20
3891.000006556092
 30
0.0
 11
3937.499989299016
 21
3891.00000655609
 31
0.0
  0
LINE
  5
10446
330
240
100
AcDbEntity
  8
A_1
100
AcDbLine
 10
3682.499989299012
 20
3791.000006556091
 30
0.0
 11
3937.499989299016
 21
3791.000006556091
 31
0.0
  0
LINE
  5
10447
330
240
100
AcDbEntity
  8
A_1
100
AcDbLine
 10
3682.499989299012
 20
3691.000006556098
 30
0.0
 11
3937.499989299016
 21
3691.000006556098
 31
0.0
  0
LINE
  5
10448
330
240
100
AcDbEntity
  8
A_1
100
AcDbLine
 10
3682.499989299012
 20
3591.000006556101
 30
0.0
 11
3937.499989299016
 21
3591.000006556101
 31
0.0
  0
LINE
  5
10449
330
240
100
AcDbEntity
  8
A_1
100
AcDbLine
 10
3682.499989299012
 20
3491.000006556092
 30
0.0
 11
3937.499989299016
 21
3491.00000655609
 31
0.0
  0
LINE
  5
10450
330
240
100
AcDbEntity
  8
A_1
100
AcDbLine
 10
3682.499989299012
 20
3391.0000065561
 30
0.0
 11
3937.499989299016
 21
3391.0000065561
 31
0.0
  0
LINE
  5
10451
330
240
100
AcDbEntity
  8
A_1
100
AcDbLine
 10
3682.499989299012
 20
3291.0000065561
 30
0.0
 11
3937.499989299016
 21
3291.000006556099
 31
0.0
  0
LINE
  5
10452
330
240
100
AcDbEntity
  8
A_1
100
AcDbLine
 10
3682.499989299012
 20
3191.000006556102
 30
0.0
 11
3937.499989299016
 21
3191.000006556103
 31
0.0
  0
LINE
  5
10457
330
240
100
AcDbEntity
  8
A_1
100
AcDbLine
 10
3682.499989299012
 20
3076.000006556101
 30
0.0
 11
3937.499989299016
 21
3076.000006556101
 31
0.0
  0
LINE
  5
10458
330
240
100
AcDbEntity
  8
A_1
100
AcDbLine
 10
3682.499989299012
 20
2976.0000065561
 30
0.0
 11
3937.499989299016
 21
2976.0000065561
 31
0.0
  0
LINE
  5
10459
330
240
100
AcDbEntity
  8
A_1
100
AcDbLine
 10
3682.499989299012
 20
2876.000006556099
 30
0.0
 11
3937.499989299016
 21
2876.000006556099
 31
0.0
  0
LINE
  5
10466
330
240
100
AcDbEntity
  8
A_1
100
AcDbLine
 10
3404.999989299016
 20
4759.0000065561
 30
0.0
 11
3404.999989299016
 21
4981.000006556092
 31
0.0
  0
LINE
  5
10467
330
240
100
AcDbEntity
  8
A_1
100
AcDbLine
 10
3269.999989299016
 20
4959.0000065561
 30
0.0
 11
3404.999989299016
 21
4959.0000065561
 31
0.0
  0
LINE
  5
10468
330
240
100
AcDbEntity
  8
A_1
100
AcDbLine
 10
3454.999989299006
 20
4759.0000065561
 30
0.0
 11
3454.999989299006
 21
4981.000006556092
 31
0.0
  0
LINE
  5
10469
330
240
100
AcDbEntity
  8
A_1
100
AcDbLine
 10
3404.999989299016
 20
4959.0000065561
 30
0.0
 11
3454.999989299006
 21
4959.0000065561
 31
0.0
  0
LINE
  5
10470
330
240
100
AcDbEntity
  8
A_1
100
AcDbLine
 10
4164.999989299011
 20
4759.0000065561
 30
0.0
 11
4164.999989299011
 21
4981.000006556092
 31
0.0
  0
LINE
  5
10471
330
240
100
AcDbEntity
  8
A_1
100
AcDbLine
 10
4214.999989299012
 20
4759.0000065561
 30
0.0
 11
4214.999989299012
 21
4981.000006556092
 31
0.0
  0
LINE
  5
10472
330
240
100
AcDbEntity
  8
A_1
100
AcDbLine
 10
4164.999989299011
 20
4959.0000065561
 30
0.0
 11
4214.999989299012
 21
4959.0000065561
 31
0.0
  0
LINE
  5
10473
330
240
100
AcDbEntity
  8
A_1
100
AcDbLine
 10
4214.999989299012
 20
4959.0000065561
 30
0.0
 11
4376.999989299012
 21
4959.0000065561
 31
0.0
  0
LINE
  5
10474
330
240
100
AcDbEntity
  8
A_1
100
AcDbLine
 10
3749.999989299016
 20
4759.0000065561
 30
0.0
 11
3749.999989299016
 21
4981.000006556092
 31
0.0
  0
LINE
  5
10475
330
240
100
AcDbEntity
  8
A_1
100
AcDbLine
 10
3869.999989299017
 20
4759.0000065561
 30
0.0
 11
3869.999989299017
 21
4981.000006556092
 31
0.0
  0
LINE
  5
10476
330
240
100
AcDbEntity
  8
A_1
100
AcDbLine
 10
3749.999989299016
 20
4959.0000065561
 30
0.0
 11
3869.999989299017
 21
4959.0000065561
 31
0.0
  0
LINE
  5
10477
330
240
100
AcDbEntity
  8
A_1
100
AcDbLine
 10
4225.999989299016
 20
4679.000006556096
 30
0.0
 11
4225.999989299016
 21
4679.000006556096
 31
0.0
  0
LINE
  5
10478
330
240
100
AcDbEntity
  8
A_1
100
AcDbLine
 10
4225.999989299016
 20
4679.000006556096
 30
0.0
 11
4525.999989299016
 21
4679.000006556096
 31
0.0
  0
LINE
  5
10583
330
240
100
AcDbEntity
  8
A_1
100
AcDbLine
 10
3732.688005799012
 20
8801.000006556099
 30
0.0
 11
3732.688005799012
 21
9023.000006556101
 31
0.0
  0
LINE
  5
10584
330
240
100
AcDbEntity
  8
A_1
100
AcDbLine
 10
4052.688005799016
 20
8801.000006556099
 30
0.0
 11
4052.688005799016
 21
9023.000006556101
 31
0.0
  0
LINE
  5
10585
330
240
100
AcDbEntity
  8
A_1
100
AcDbLine
 10
3732.688005799012
 20
9001.000006556093
 30
0.0
 11
4052.688005799016
 21
9001.000006556093
 31
0.0
  0
LINE
  5
10586
330
240
100
AcDbEntity
  8
A_1
100
AcDbLine
 10
4227.688005799012
 20
7101.000006556096
 30
0.0
 11
4449.688005799012
 21
7101.000006556096
 31
0.0
  0
LINE
  5
10587
330
240
100
AcDbEntity
  8
A_1
100
AcDbLine
 10
4227.688005799012
 20
8501.0000065561
 30
0.0
 11
4449.688005799012
 21
8501.0000065561
 31
0.0
  0
LINE
  5
10588
330
240
100
AcDbEntity
  8
A_1
100
AcDbLine
 10
4427.688005799008
 20
7101.000006556096
 30
0.0
 11
4427.688005799008
 21
8501.0000065561
 31
0.0
  0
LINE
  5
10589
330
240
100
AcDbEntity
  8
A_1
100
AcDbLine
 10
4227.688005799012
 20
8601.0000065561
 30
0.0
 11
4449.688005799012
 21
8601.0000065561
 31
0.0
  0
LINE
  5
10590
330
240
100
AcDbEntity
  8
A_1
100
AcDbLine
 10
4427.688005799008
 20
8501.0000065561
 30
0.0
 11
4427.688005799008
 21
8601.0000065561
 31
0.0
  0
LINE
  5
10591
330
240
100
AcDbEntity
  8
A_1
100
AcDbLine
 10
4427.688005799008
 20
8601.0000065561
 30
0.0
 11
4427.688005799008
 21
8763.000006556096
 31
0.0
  0
LINE
  5
10592
330
240
100
AcDbEntity
  8
A_1
100
AcDbLine
 10
4427.688005799008
 20
7101.000006556096
 30
0.0
 11
4649.688005799012
 21
7101.000006556096
 31
0.0
  0
LINE
  5
10593
330
240
100
AcDbEntity
  8
A_1
100
AcDbLine
 10
4427.688005799008
 20
8601.0000065561
 30
0.0
 11
4649.688005799012
 21
8601.0000065561
 31
0.0
  0
LINE
  5
10594
330
240
100
AcDbEntity
  8
A_1
100
AcDbLine
 10
4627.688005799008
 20
7101.000006556096
 30
0.0
 11
4627.688005799008
 21
8601.0000065561
 31
0.0
  0
LINE
  5
10595
330
240
100
AcDbEntity
  8
A_1
100
AcDbLine
 10
3782.688005799008
 20
6901.000006556093
 30
0.0
 11
3782.688005799008
 21
6679.000006556093
 31
0.0
  0
LINE
  5
10596
330
240
100
AcDbEntity
  8
A_1
100
AcDbLine
 10
4002.688005799008
 20
6901.000006556093
 30
0.0
 11
4002.688005799008
 21
6679.000006556093
 31
0.0
  0
LINE
  5
10597
330
240
100
AcDbEntity
  8
A_1
100
AcDbLine
 10
3782.688005799008
 20
6701.0000065561
 30
0.0
 11
4002.688005799008
 21
6701.0000065561
 31
0.0
  0
LINE
  5
10598
330
240
100
AcDbEntity
  8
A_1
100
AcDbLine
 10
3782.688005799008
 20
7101.000006556096
 30
0.0
 11
3690.311972799018
 21
7261.000006556097
 31
0.0
  0
LINE
  5
10599
330
240
100
AcDbEntity
  8
A_1
100
AcDbLine
 10
3690.311972799018
 20
7261.000006556097
 30
0.0
 11
2970.311972799016
 21
7261.000006556097
 31
0.0
  0
LINE
  5
10600
330
240
100
AcDbEntity
  8
A_1
100
AcDbLine
 10
3768.975999069724
 20
8485.397412626692
 30
0.0
 11
3676.599966069733
 21
8325.397412626688
 31
0.0
  0
LINE
  5
10601
330
240
100
AcDbEntity
  8
A_1
100
AcDbLine
 10
3676.599966069733
 20
8325.397412626688
 30
0.0
 11
3256.599966069732
 21
8325.397412626688
 31
0.0
  0
LINE
  5
10602
330
240
100
AcDbEntity
  8
A_1
100
AcDbLine
 10
7816.188005699015
 20
9026.000006556094
 30
0.0
 11
7816.188005699015
 21
9248.0000065561
 31
0.0
  0
LINE
  5
10603
330
240
100
AcDbEntity
  8
A_1
100
AcDbLine
 10
8426.188005699016
 20
9026.000006556094
 30
0.0
 11
8426.188005699016
 21
9248.0000065561
 31
0.0
  0
LINE
  5
10604
330
240
100
AcDbEntity
  8
A_1
100
AcDbLine
 10
7816.188005699015
 20
9226.0000065561
 30
0.0
 11
8426.188005699016
 21
9226.0000065561
 31
0.0
  0
LINE
  5
10605
330
240
100
AcDbEntity
  8
A_1
100
AcDbLine
 10
8826.188005699012
 20
9026.000006556094
 30
0.0
 11
8826.188005699012
 21
9248.0000065561
 31
0.0
  0
LINE
  5
10606
330
240
100
AcDbEntity
  8
A_1
100
AcDbLine
 10
9136.188005699017
 20
9026.000006556094
 30
0.0
 11
9136.188005699017
 21
9248.0000065561
 31
0.0
  0
LINE
  5
10607
330
240
100
AcDbEntity
  8
A_1
100
AcDbLine
 10
8826.188005699012
 20
9226.0000065561
 30
0.0
 11
9136.188005699017
 21
9226.0000065561
 31
0.0
  0
LINE
  5
10608
330
240
100
AcDbEntity
  8
A_1
100
AcDbLine
 10
7706.188005699016
 20
8026.000006556094
 30
0.0
 11
7613.811972899012
 21
8186.000006556097
 31
0.0
  0
LINE
  5
10609
330
240
100
AcDbEntity
  8
A_1
100
AcDbLine
 10
7613.811972899012
 20
8186.000006556097
 30
0.0
 11
7353.811972899013
 21
8186.000006556097
 31
0.0
  0
LINE
  5
10610
330
240
100
AcDbEntity
  8
A_1
100
AcDbLine
 10
8426.188005699016
 20
7226.000006556096
 30
0.0
 11
8333.811972899008
 21
7066.000006556092
 31
0.0
  0
LINE
  5
10611
330
240
100
AcDbEntity
  8
A_1
100
AcDbLine
 10
8333.811972899008
 20
7066.000006556092
 30
0.0
 11
7873.811972899012
 21
7066.000006556092
 31
0.0
  0
LINE
  5
10612
330
240
100
AcDbEntity
  8
A_1
100
AcDbLine
 10
8526.188005699012
 20
7226.000006556096
 30
0.0
 11
8618.564038699012
 21
7066.000006556092
 31
0.0
  0
LINE
  5
10613
330
240
100
AcDbEntity
  8
A_1
100
AcDbLine
 10
8618.564038699012
 20
7066.000006556092
 30
0.0
 11
9178.564038699013
 21
7066.000006556092
 31
0.0
  0
LINE
  5
10614
330
240
100
AcDbEntity
  8
A_1
100
AcDbLine
 10
7385.999989199017
 20
2464.0000065561
 30
0.0
 11
7185.999989199017
 21
2464.0000065561
 31
0.0
  0
LINE
  5
10615
330
240
100
AcDbEntity
  8
A_1
100
AcDbLine
 10
7385.999989199017
 20
2584.000006556097
 30
0.0
 11
7185.999989199017
 21
2584.000006556097
 31
0.0
  0
LINE
  5
10616
330
240
100
AcDbEntity
  8
A_1
100
AcDbLine
 10
7209.999989199028
 20
2464.0000065561
 30
0.0
 11
7209.999989199028
 21
2584.000006556097
 31
0.0
  0
LINE
  5
10617
330
240
100
AcDbEntity
  8
A_1
100
AcDbLine
 10
8409.99998919902
 20
2464.0000065561
 30
0.0
 11
8621.999989199016
 21
2586.398263556096
 31
0.0
  0
LINE
  5
10618
330
240
100
AcDbEntity
  8
A_1
100
AcDbLine
 10
8609.999989199017
 20
2579.470060356097
 30
0.0
 11
8609.999989199017
 21
2739.470060356099
 31
0.0
  0
LINE
  5
10619
330
240
100
AcDbEntity
  8
A_1
100
AcDbLine
 10
8409.99998919902
 20
2624.000006556097
 30
0.0
 11
8621.999989199016
 21
2746.398263556096
 31
0.0
  0
LINE
  5
10620
330
240
100
AcDbEntity
  8
A_1
100
AcDbLine
 10
9433.999989199016
 20
2464.0000065561
 30
0.0
 11
9633.999989199018
 21
2464.0000065561
 31
0.0
  0
LINE
  5
10621
330
240
100
AcDbEntity
  8
A_1
100
AcDbLine
 10
9433.999989199016
 20
2664.000006556097
 30
0.0
 11
9633.999989199018
 21
2664.000006556097
 31
0.0
  0
LINE
  5
10622
330
240
100
AcDbEntity
  8
A_1
100
AcDbLine
 10
9609.999989199016
 20
2464.0000065561
 30
0.0
 11
9609.999989199016
 21
2664.000006556097
 31
0.0
  0
LINE
  5
10623
330
240
100
AcDbEntity
  8
A_1
100
AcDbLine
 10
7609.999989199017
 20
2224.000006556097
 30
0.0
 11
7609.999989199017
 21
2040.000006556097
 31
0.0
  0
LINE
  5
10624
330
240
100
AcDbEntity
  8
A_1
100
AcDbLine
 10
9209.999989199015
 20
2224.000006556097
 30
0.0
 11
9209.999989199015
 21
2040.000006556097
 31
0.0
  0
LINE
  5
10625
330
240
100
AcDbEntity
  8
A_1
100
AcDbLine
 10
7609.999989199017
 20
2064.000006556101
 30
0.0
 11
9209.999989199015
 21
2064.000006556101
 31
0.0
  0
LINE
  5
10626
330
240
100
AcDbEntity
  8
A_1
100
AcDbLine
 10
8375.999989199009
 20
2636.300006556094
 30
0.0
 11
8075.999989199029
 21
2621.300006556098
 31
0.0
  0
LINE
  5
10627
330
240
100
AcDbEntity
  8
A_1
100
AcDbLine
 10
7609.999989199017
 20
3224.000006556092
 30
0.0
 11
7609.999989199017
 21
3040.000006556097
 31
0.0
  0
LINE
  5
10628
330
240
100
AcDbEntity
  8
A_1
100
AcDbLine
 10
9209.999989199015
 20
3224.000006556092
 30
0.0
 11
9209.999989199015
 21
3040.000006556097
 31
0.0
  0
LINE
  5
10629
330
240
100
AcDbEntity
  8
A_1
100
AcDbLine
 10
7609.999989199017
 20
3064.000006556093
 30
0.0
 11
9209.999989199015
 21
3064.000006556093
 31
0.0
  0
LINE
  5
10630
330
240
100
AcDbEntity
  8
A_1
100
AcDbLine
 10
9433.999989199016
 20
3464.000006556094
 30
0.0
 11
9633.999989199018
 21
3464.000006556094
 31
0.0
  0
LINE
  5
10631
330
240
100
AcDbEntity
  8
A_1
100
AcDbLine
 10
9433.999989199016
 20
5064.000006556089
 30
0.0
 11
9633.999989199018
 21
5064.000006556089
 31
0.0
  0
LINE
  5
10632
330
240
100
AcDbEntity
  8
A_1
100
AcDbLine
 10
9609.999989199016
 20
3464.000006556094
 30
0.0
 11
9609.999989199016
 21
5064.000006556089
 31
0.0
  0
LINE
  5
10633
330
240
100
AcDbEntity
  8
A_1
100
AcDbLine
 10
8669.999989199018
 20
4264.000006556101
 30
0.0
 11
8669.999989199018
 21
4264.000006556101
 31
0.0
  0
LINE
  5
10634
330
240
100
AcDbEntity
  8
A_1
100
AcDbLine
 10
8669.999989199018
 20
4264.000006556101
 30
0.0
 11
8169.999989199018
 21
4264.000006556101
 31
0.0
  0
LINE
  5
10637
330
240
100
AcDbEntity
  8
A_2
100
AcDbLine
 10
3454.999989299006
 20
4619.000006556096
 30
0.0
 11
4164.999989299011
 21
4619.000006556096
 31
0.0
  0
LINE
  5
10638
330
240
100
AcDbEntity
  8
A_2
100
AcDbLine
 10
3454.999989299006
 20
4619.000006556096
 30
0.0
 11
3454.999989299006
 21
4609.000006556096
 31
0.0
  0
LINE
  5
10639
330
240
100
AcDbEntity
  8
A_2
100
AcDbLine
 10
4164.999989299011
 20
4619.000006556096
 30
0.0
 11
4164.999989299011
 21
4609.000006556096
 31
0.0
  0
LINE
  5
10640
330
240
100
AcDbEntity
  8
A_2
100
AcDbLine
 10
3154.999989299017
 20
4609.000006556096
 30
0.0
 11
4464.999989299012
 21
4609.000006556096
 31
0.0
  0
LINE
  5
10641
330
240
100
AcDbEntity
  8
A_2
100
AcDbLine
 10
3154.999989299017
 20
4591.000006556096
 30
0.0
 11
4464.999989299012
 21
4591.000006556096
 31
0.0
  0
LINE
  5
10642
330
240
100
AcDbEntity
  8
A_2
100
AcDbLine
 10
3454.999989299006
 20
4581.0000065561
 30
0.0
 11
4164.999989299011
 21
4581.0000065561
 31
0.0
  0
LINE
  5
10643
330
240
100
AcDbEntity
  8
A_2
100
AcDbLine
 10
3454.999989299006
 20
4591.000006556096
 30
0.0
 11
3454.999989299006
 21
4581.0000065561
 31
0.0
  0
LINE
  5
10644
330
240
100
AcDbEntity
  8
A_2
100
AcDbLine
 10
4164.999989299011
 20
4591.000006556096
 30
0.0
 11
4164.999989299011
 21
4581.0000065561
 31
0.0
  0
LINE
  5
10645
330
240
100
AcDbEntity
  8
A_2
100
AcDbLine
 10
3494.999989299017
 20
4629.0000065561
 30
0.0
 11
3494.999989299017
 21
4571.000006556092
 31
0.0
  0
LINE
  5
10646
330
240
100
AcDbEntity
  8
A_2
100
AcDbLine
 10
3869.999989299017
 20
4629.0000065561
 30
0.0
 11
3869.999989299017
 21
4571.000006556092
 31
0.0
  0
LINE
  5
10647
330
240
100
AcDbEntity
  8
A_2
100
AcDbLine
 10
3579.999989299006
 20
4629.0000065561
 30
0.0
 11
3579.999989299006
 21
4571.000006556092
 31
0.0
  0
LINE
  5
10648
330
240
100
AcDbEntity
  8
A_2
100
AcDbLine
 10
3954.999989299006
 20
4629.0000065561
 30
0.0
 11
3954.999989299006
 21
4571.000006556092
 31
0.0
  0
LINE
  5
10649
330
240
100
AcDbEntity
  8
A_2
100
AcDbLine
 10
3664.999989299011
 20
4629.0000065561
 30
0.0
 11
3664.999989299011
 21
4571.000006556092
 31
0.0
  0
LINE
  5
10650
330
240
100
AcDbEntity
  8
A_2
100
AcDbLine
 10
4039.999989299011
 20
4629.0000065561
 30
0.0
 11
4039.999989299011
 21
4571.000006556092
 31
0.0
  0
LINE
  5
10651
330
240
100
AcDbEntity
  8
A_2
100
AcDbLine
 10
3749.999989299016
 20
4629.0000065561
 30
0.0
 11
3749.999989299016
 21
4571.000006556092
 31
0.0
  0
LINE
  5
10652
330
240
100
AcDbEntity
  8
A_2
100
AcDbLine
 10
4124.999989299012
 20
4629.0000065561
 30
0.0
 11
4124.999989299012
 21
4571.000006556092
 31
0.0
  0
LINE
  5
10653
330
240
100
AcDbEntity
  8
A_2
100
AcDbLine
 10
3642.499989299013
 20
4551.000006556097
 30
0.0
 11
3977.499989299007
 21
4551.000006556097
 31
0.0
  0
LINE
  5
10654
330
240
100
AcDbEntity
  8
A_2
100
AcDbLine
 10
3977.499989299007
 20
4551.000006556097
 30
0.0
 11
3977.499989299007
 21
2831.0000065561
 31
0.0
  0
LINE
  5
10656
330
240
100
AcDbEntity
  8
A_2
100
AcDbLine
 10
3642.499989299013
 20
2831.000006556099
 30
0.0
 11
3642.499989299013
 21
4551.000006556097
 31
0.0
  0
LINE
  5
10662
330
240
100
AcDbEntity
  8
A_2
100
AcDbLine
 10
3642.499989299013
 20
2831.000006556099
 30
0.0
 11
3977.499989299007
 21
2831.0000065561
 31
0.0
  0
LINE
  5
10665
330
240
100
AcDbEntity
  8
A_2
100
AcDbLine
 10
3472.499989299016
 20
2803.0000065561
 30
0.0
 11
4147.499989299012
 21
2803.0000065561
 31
0.0
  0
LINE
  5
10666
330
240
100
AcDbEntity
  8
A_2
100
AcDbLine
 10
3472.499989299016
 20
2803.0000065561
 30
0.0
 11
3472.499989299016
 21
2791.0000065561
 31
0.0
  0
LINE
  5
10667
330
240
100
AcDbEntity
  8
A_2
100
AcDbLine
 10
4147.499989299012
 20
2803.0000065561
 30
0.0
 11
4147.499989299012
 21
2791.0000065561
 31
0.0
  0
LINE
  5
10668
330
240
100
AcDbEntity
  8
A_2
100
AcDbLine
 10
3172.499989299016
 20
2791.0000065561
 30
0.0
 11
4447.499989299016
 21
2791.0000065561
 31
0.0
  0
LINE
  5
10669
330
240
100
AcDbEntity
  8
A_2
100
AcDbLine
 10
3172.499989299016
 20
2773.000006556102
 30
0.0
 11
4447.499989299016
 21
2773.000006556102
 31
0.0
  0
LINE
  5
10670
330
240
100
AcDbEntity
  8
A_2
100
AcDbLine
 10
3472.499989299016
 20
2761.000006556102
 30
0.0
 11
4147.499989299012
 21
2761.000006556102
 31
0.0
  0
LINE
  5
10671
330
240
100
AcDbEntity
  8
A_2
100
AcDbLine
 10
3472.499989299016
 20
2761.000006556102
 30
0.0
 11
3472.499989299016
 21
2773.000006556102
 31
0.0
  0
LINE
  5
10672
330
240
100
AcDbEntity
  8
A_2
100
AcDbLine
 10
4147.499989299012
 20
2761.000006556102
 30
0.0
 11
4147.499989299012
 21
2773.000006556102
 31
0.0
  0
LINE
  5
10673
330
240
100
AcDbEntity
  8
A_2
100
AcDbLine
 10
3512.499989299012
 20
2815.0000065561
 30
0.0
 11
3512.499989299012
 21
2749.0000065561
 31
0.0
  0
LINE
  5
10674
330
240
100
AcDbEntity
  8
A_2
100
AcDbLine
 10
3852.499989299016
 20
2815.0000065561
 30
0.0
 11
3852.499989299016
 21
2749.0000065561
 31
0.0
  0
LINE
  5
10675
330
240
100
AcDbEntity
  8
A_2
100
AcDbLine
 10
3597.499989299008
 20
2815.0000065561
 30
0.0
 11
3597.499989299008
 21
2749.0000065561
 31
0.0
  0
LINE
  5
10676
330
240
100
AcDbEntity
  8
A_2
100
AcDbLine
 10
3937.499989299016
 20
2815.0000065561
 30
0.0
 11
3937.499989299016
 21
2749.0000065561
 31
0.0
  0
LINE
  5
10677
330
240
100
AcDbEntity
  8
A_2
100
AcDbLine
 10
3682.499989299012
 20
2815.0000065561
 30
0.0
 11
3682.499989299012
 21
2749.0000065561
 31
0.0
  0
LINE
  5
10678
330
240
100
AcDbEntity
  8
A_2
100
AcDbLine
 10
4022.499989299012
 20
2815.0000065561
 30
0.0
 11
4022.499989299012
 21
2749.0000065561
 31
0.0
  0
LINE
  5
10679
330
240
100
AcDbEntity
  8
A_2
100
AcDbLine
 10
3767.499989299006
 20
2815.0000065561
 30
0.0
 11
3767.499989299006
 21
2749.0000065561
 31
0.0
  0
LINE
  5
10680
330
240
100
AcDbEntity
  8
A_2
100
AcDbLine
 10
4107.499989299012
 20
2815.0000065561
 30
0.0
 11
4107.499989299012
 21
2749.0000065561
 31
0.0
  0
LINE
  5
10681
330
240
100
AcDbEntity
  8
A_2
100
AcDbLine
 10
7486.188005699016
 20
7326.0000065561
 30
0.0
 11
8426.188005699016
 21
7326.0000065561
 31
0.0
  0
LINE
  5
10682
330
240
100
AcDbEntity
  8
A_2
100
AcDbLine
 10
7486.188005699016
 20
7226.000006556096
 30
0.0
 11
8426.188005699016
 21
7226.000006556096
 31
0.0
  0
LINE
  5
10683
330
240
100
AcDbEntity
  8
A_2
100
AcDbLine
 10
8426.188005699016
 20
7326.0000065561
 30
0.0
 11
8826.188005699012
 21
7406.000006556097
 31
0.0
  0
LINE
  5
10684
330
240
100
AcDbEntity
  8
A_2
100
AcDbLine
 10
8426.188005699016
 20
7226.000006556096
 30
0.0
 11
8826.188005699012
 21
7226.000006556096
 31
0.0
  0
LINE
  5
10685
330
240
100
AcDbEntity
  8
A_2
100
AcDbLine
 10
8426.188005699016
 20
7386.000006556097
 30
0.0
 11
8426.188005699016
 21
7466.000006556098
 31
0.0
  0
LINE
  5
10686
330
240
100
AcDbEntity
  8
A_2
100
AcDbLine
 10
8426.188005699016
 20
7466.000006556098
 30
0.0
 11
8826.188005699012
 21
7466.000006556098
 31
0.0
  0
LINE
  5
10687
330
240
100
AcDbEntity
  8
A_2
100
AcDbLine
 10
8826.188005699012
 20
7466.000006556098
 30
0.0
 11
8426.188005699016
 21
7386.000006556097
 31
0.0
  0
LINE
  5
10688
330
240
100
AcDbEntity
  8
A_2
100
AcDbLine
 10
8826.188005699012
 20
7406.000006556097
 30
0.0
 11
9466.188005699015
 21
7406.000006556097
 31
0.0
  0
LINE
  5
10689
330
240
100
AcDbEntity
  8
A_2
100
AcDbLine
 10
8826.188005699012
 20
7226.000006556096
 30
0.0
 11
9466.188005699015
 21
7226.000006556096
 31
0.0
  0
LINE
  5
10690
330
240
100
AcDbEntity
  8
A_2
100
AcDbLine
 10
7609.999989199017
 20
2464.0000065561
 30
0.0
 11
9209.999989199015
 21
2464.0000065561
 31
0.0
  0
LINE
  5
10691
330
240
100
AcDbEntity
  8
A_2
100
AcDbLine
 10
9209.999989199015
 20
2464.0000065561
 30
0.0
 11
9209.999989199015
 21
2664.000006556097
 31
0.0
  0
LINE
  5
10692
330
240
100
AcDbEntity
  8
A_2
100
AcDbLine
 10
9209.999989199015
 20
2664.000006556097
 30
0.0
 11
7609.999989199017
 21
2584.000006556097
 31
0.0
  0
LINE
  5
10693
330
240
100
AcDbEntity
  8
A_2
100
AcDbLine
 10
7609.999989199017
 20
2584.000006556097
 30
0.0
 11
7609.999989199017
 21
2464.0000065561
 31
0.0
  0
LINE
  5
10715
330
240
100
AcDbEntity
  8
A_7
100
AcDbLine
 10
3809.999989299008
 20
4659.00000655609
 30
0.0
 11
3809.999989299008
 21
2721.000006556101
 31
0.0
  0
LINE
  5
10716
330
240
100
AcDbEntity
  8
A_7
100
AcDbLine
 10
3154.999989299017
 20
4659.00000655609
 30
0.0
 11
3154.999989299017
 21
3786.900006556098
 31
0.0
  0
LINE
  5
10717
330
240
100
AcDbEntity
  8
A_7
100
AcDbLine
 10
3154.999989299017
 20
3593.100006556099
 30
0.0
 11
3154.999989299017
 21
2721.000006556101
 31
0.0
  0
LINE
  5
10718
330
240
100
AcDbEntity
  8
A_7
100
AcDbLine
 10
3154.999989299017
 20
3786.900006556098
 30
0.0
 11
3219.599989299016
 21
3883.800006556099
 31
0.0
  0
LINE
  5
10719
330
240
100
AcDbEntity
  8
A_7
100
AcDbLine
 10
3219.599989299016
 20
3883.800006556099
 30
0.0
 11
3090.399989299017
 21
3496.2000065561
 31
0.0
  0
LINE
  5
10720
330
240
100
AcDbEntity
  8
A_7
100
AcDbLine
 10
3090.399989299017
 20
3496.2000065561
 30
0.0
 11
3154.999989299017
 21
3593.100006556099
 31
0.0
  0
LINE
  5
10721
330
240
100
AcDbEntity
  8
A_7
100
AcDbLine
 10
4464.999989299012
 20
4659.00000655609
 30
0.0
 11
4464.999989299012
 21
3786.900006556098
 31
0.0
  0
LINE
  5
10722
330
240
100
AcDbEntity
  8
A_7
100
AcDbLine
 10
4464.999989299012
 20
3593.100006556099
 30
0.0
 11
4464.999989299012
 21
2721.000006556101
 31
0.0
  0
LINE
  5
10723
330
240
100
AcDbEntity
  8
A_7
100
AcDbLine
 10
4464.999989299012
 20
3786.900006556098
 30
0.0
 11
4529.599989299016
 21
3883.800006556099
 31
0.0
  0
LINE
  5
10724
330
240
100
AcDbEntity
  8
A_7
100
AcDbLine
 10
4529.599989299016
 20
3883.800006556099
 30
0.0
 11
4400.399989299008
 21
3496.2000065561
 31
0.0
  0
LINE
  5
10725
330
240
100
AcDbEntity
  8
A_7
100
AcDbLine
 10
4400.399989299008
 20
3496.2000065561
 30
0.0
 11
4464.999989299012
 21
3593.100006556099
 31
0.0
  0
LWPOLYLINE
  5
11119
330
240
100
AcDbEntity
  8
A_0
100
AcDbPolyline
 90
        4
 70
     1
 43
0.0
 10
1509.999989299016
 20
1632.000006456102
 10
15309.99998919899
 20
1632.000006456102
 10
15309.99998919899
 20
10248.00000645609
 10
1509.999989299016
 20
10248.00000645609
  0
LWPOLYLINE
  5
11125
330
240
100
AcDbEntity
  8
A_2
100
AcDbPolyline
 90
        4
 70
     1
 43
0.0
 10
3793.999989299008
 20
4759.0000065561
 10
3825.999989299008
 20
4759.0000065561
 10
3825.999989299008
 20
4769.000006556097
 10
3793.999989299008
 20
4769.000006556097
  0
LWPOLYLINE
  5
11128
330
240
100
AcDbEntity
  8
A_2
100
AcDbPolyline
 90
        4
 70
     1
 43
0.0
 10
3798.999989299012
 20
4619.000006556096
 10
3820.999989299008
 20
4619.000006556096
 10
3820.999989299008
 20
4759.0000065561
 10
3798.999989299012
 20
4759.0000065561
  0
LWPOLYLINE
  5
11131
330
240
100
AcDbEntity
  8
A_2
100
AcDbPolyline
 90
        4
 70
     1
 43
0.0
 10
4198.999989299012
 20
4749.0000065561
 10
4230.999989299016
 20
4749.0000065561
 10
4230.999989299016
 20
4759.0000065561
 10
4198.999989299012
 20
4759.0000065561
  0
LWPOLYLINE
  5
11134
330
240
100
AcDbEntity
  8
A_2
100
AcDbPolyline
 90
        4
 70
     1
 43
0.0
 10
4203.999989299012
 20
4609.000006556096
 10
4225.999989299016
 20
4609.000006556096
 10
4225.999989299016
 20
4749.0000065561
 10
4203.999989299012
 20
4749.0000065561
  0
LWPOLYLINE
  5
11137
330
240
100
AcDbEntity
  8
A_2
100
AcDbPolyline
 90
        4
 70
     1
 43
0.0
 10
3388.999989299016
 20
4749.0000065561
 10
3420.999989299016
 20
4749.0000065561
 10
3420.999989299016
 20
4759.0000065561
 10
3388.999989299016
 20
4759.0000065561
  0
LWPOLYLINE
  5
11140
330
240
100
AcDbEntity
  8
A_2
100
AcDbPolyline
 90
        4
 70
     1
 43
0.0
 10
3393.999989299016
 20
4609.000006556096
 10
3415.999989299017
 20
4609.000006556096
 10
3415.999989299017
 20
4749.0000065561
 10
3393.999989299016
 20
4749.0000065561
  0
LWPOLYLINE
  5
11143
330
240
100
AcDbEntity
  8
A_2
100
AcDbPolyline
 90
        4
 70
     1
 43
0.0
 10
3732.688005799012
 20
8501.0000065561
 10
4052.688005799016
 20
8501.0000065561
 10
4052.688005799016
 20
8601.0000065561
 10
3732.688005799012
 20
8601.0000065561
  0
LWPOLYLINE
  5
11149
330
240
100
AcDbEntity
  8
A_2
100
AcDbPolyline
 90
        4
 70
     1
 43
0.0
 10
8976.188005699016
 20
8806.0000065561
 10
9296.188005699015
 20
8806.0000065561
 10
9296.188005699015
 20
8906.0000065561
 10
8976.188005699016
 20
8906.0000065561
  0
LWPOLYLINE
  5
11152
330
240
100
AcDbEntity
  8
A_2
100
AcDbPolyline
 90
        4
 70
     1
 43
0.0
 10
9026.188005699012
 20
7406.000006556097
 10
9246.188005699016
 20
7406.000006556097
 10
9246.188005699016
 20
8806.0000065561
 10
9026.188005699012
 20
8806.0000065561
  0
LWPOLYLINE
  5
11155
330
240
100
AcDbEntity
  8
A_2
100
AcDbPolyline
 90
        4
 70
     1
 43
0.0
 10
7656.188005699016
 20
8726.0000065561
 10
7976.188005699012
 20
8726.0000065561
 10
7976.188005699012
 20
8826.0000065561
 10
7656.188005699016
 20
8826.0000065561
  0
LWPOLYLINE
  5
11158
330
240
100
AcDbEntity
  8
A_2
100
AcDbPolyline
 90
        4
 70
     1
 43
0.0
 10
7706.188005699016
 20
7326.0000065561
 10
7926.188005699017
 20
7326.0000065561
 10
7926.188005699017
 20
8726.0000065561
 10
7706.188005699016
 20
8726.0000065561
  0
LWPOLYLINE
  5
11161
330
240
100
AcDbEntity
  8
A_2
100
AcDbPolyline
 90
        4
 70
     1
 43
0.0
 10
7609.999989199017
 20
3464.000006556094
 10
9209.999989199015
 20
3464.000006556094
 10
9209.999989199015
 20
5064.000006556089
 10
7609.999989199017
 20
5064.000006556089
  0
LWPOLYLINE
  5
11674
330
240
100
AcDbEntity
  8
A_1
100
AcDbPolyline
 90
        2
 70
     1
 43
12.5
 10
3773.749989299011
 20
4506.000006556096
 42
1.0
 10
3761.249989299016
 20
4506.000006556096
 42
1.0
  0
LWPOLYLINE
  5
11676
330
240
100
AcDbEntity
  8
A_1
100
AcDbPolyline
 90
        2
 70
     1
 43
12.5
 10
3858.749989299012
 20
4506.000006556096
 42
1.0
 10
3846.249989299016
 20
4506.000006556096
 42
1.0
  0
LWPOLYLINE
  5
11678
330
240
100
AcDbEntity
  8
A_1
100
AcDbPolyline
 90
        2
 70
     1
 43
12.5
 10
3688.749989299012
 20
4506.000006556096
 42
1.0
 10
3676.249989299017
 20
4506.000006556096
 42
1.0
  0
LWPOLYLINE
  5
11680
330
240
100
AcDbEntity
  8
A_1
100
AcDbPolyline
 90
        2
 70
     1
 43
12.5
 10
3943.749989299006
 20
4506.000006556096
 42
1.0
 10
3931.249989299016
 20
4506.000006556096
 42
1.0
  0
LWPOLYLINE
  5
11686
330
240
100
AcDbEntity
  8
A_1
100
AcDbPolyline
 90
        2
 70
     1
 43
12.5
 10
3773.749989299011
 20
4406.000006556092
 42
1.0
 10
3761.249989299016
 20
4406.000006556092
 42
1.0
  0
LWPOLYLINE
  5
11688
330
240
100
AcDbEntity
  8
A_1
100
AcDbPolyline
 90
        2
 70
     1
 43
12.5
 10
3858.749989299012
 20
4406.000006556092
 42
1.0
 10
3846.249989299016
 20
4406.000006556092
 42
1.0
  0
LWPOLYLINE
  5
11690
330
240
100
AcDbEntity
  8
A_1
100
AcDbPolyline
 90
        2
 70
     1
 43
12.5
 10
3688.749989299012
 20
4406.000006556092
 42
1.0
 10
3676.249989299017
 20
4406.000006556092
 42
1.0
  0
LWPOLYLINE
  5
11692
330
240
100
AcDbEntity
  8
A_1
100
AcDbPolyline
 90
        2
 70
     1
 43
12.5
 10
3943.749989299006
 20
4406.000006556092
 42
1.0
 10
3931.249989299016
 20
4406.000006556092
 42
1.0
  0
LWPOLYLINE
  5
11698
330
240
100
AcDbEntity
  8
A_1
100
AcDbPolyline
 90
        2
 70
     1
 43
12.5
 10
3773.749989299011
 20
4306.000006556096
 42
1.0
 10
3761.249989299016
 20
4306.000006556096
 42
1.0
  0
LWPOLYLINE
  5
11700
330
240
100
AcDbEntity
  8
A_1
100
AcDbPolyline
 90
        2
 70
     1
 43
12.5
 10
3858.749989299012
 20
4306.000006556096
 42
1.0
 10
3846.249989299016
 20
4306.000006556096
 42
1.0
  0
LWPOLYLINE
  5
11702
330
240
100
AcDbEntity
  8
A_1
100
AcDbPolyline
 90
        2
 70
     1
 43
12.5
 10
3688.749989299012
 20
4306.000006556096
 42
1.0
 10
3676.249989299017
 20
4306.000006556096
 42
1.0
  0
LWPOLYLINE
  5
11704
330
240
100
AcDbEntity
  8
A_1
100
AcDbPolyline
 90
        2
 70
     1
 43
12.5
 10
3943.749989299006
 20
4306.000006556096
 42
1.0
 10
3931.249989299016
 20
4306.000006556096
 42
1.0
  0
LWPOLYLINE
  5
11798
330
240
100
AcDbEntity
  8
A_1
100
AcDbPolyline
 90
        2
 70
     1
 43
12.5
 10
3773.749989299011
 20
3076.000006556101
 42
1.0
 10
3761.249989299016
 20
3076.000006556101
 42
1.0
  0
LWPOLYLINE
  5
11800
330
240
100
AcDbEntity
  8
A_1
100
AcDbPolyline
 90
        2
 70
     1
 43
12.5
 10
3858.749989299012
 20
3076.000006556101
 42
1.0
 10
3846.249989299016
 20
3076.000006556101
 42
1.0
  0
LWPOLYLINE
  5
11802
330
240
100
AcDbEntity
  8
A_1
100
AcDbPolyline
 90
        2
 70
     1
 43
12.5
 10
3688.749989299012
 20
3076.000006556101
 42
1.0
 10
3676.249989299017
 20
3076.000006556101
 42
1.0
  0
LWPOLYLINE
  5
11804
330
240
100
AcDbEntity
  8
A_1
100
AcDbPolyline
 90
        2
 70
     1
 43
12.5
 10
3943.749989299006
 20
3076.000006556101
 42
1.0
 10
3931.249989299016
 20
3076.000006556101
 42
1.0
  0
LWPOLYLINE
  5
11810
330
240
100
AcDbEntity
  8
A_1
100
AcDbPolyline
 90
        2
 70
     1
 43
12.5
 10
3773.749989299011
 20
2976.0000065561
 42
1.0
 10
3761.249989299016
 20
2976.0000065561
 42
1.0
  0
LWPOLYLINE
  5
11812
330
240
100
AcDbEntity
  8
A_1
100
AcDbPolyline
 90
        2
 70
     1
 43
12.5
 10
3858.749989299012
 20
2976.0000065561
 42
1.0
 10
3846.249989299016
 20
2976.0000065561
 42
1.0
  0
LWPOLYLINE
  5
11814
330
240
100
AcDbEntity
  8
A_1
100
AcDbPolyline
 90
        2
 70
     1
 43
12.5
 10
3688.749989299012
 20
2976.0000065561
 42
1.0
 10
3676.249989299017
 20
2976.0000065561
 42
1.0
  0
LWPOLYLINE
  5
11816
330
240
100
AcDbEntity
  8
A_1
100
AcDbPolyline
 90
        2
 70
     1
 43
12.5
 10
3943.749989299006
 20
2976.0000065561
 42
1.0
 10
3931.249989299016
 20
2976.0000065561
 42
1.0
  0
LWPOLYLINE
  5
11822
330
240
100
AcDbEntity
  8
A_1
100
AcDbPolyline
 90
        2
 70
     1
 43
12.5
 10
3773.749989299011
 20
2876.000006556099
 42
1.0
 10
3761.249989299016
 20
2876.000006556099
 42
1.0
  0
LWPOLYLINE
  5
11824
330
240
100
AcDbEntity
  8
A_1
100
AcDbPolyline
 90
        2
 70
     1
 43
12.5
 10
3858.749989299012
 20
2876.000006556099
 42
1.0
 10
3846.249989299016
 20
2876.000006556099
 42
1.0
  0
LWPOLYLINE
  5
11826
330
240
100
AcDbEntity
  8
A_1
100
AcDbPolyline
 90
        2
 70
     1
 43
12.5
 10
3688.749989299012
 20
2876.000006556099
 42
1.0
 10
3676.249989299017
 20
2876.000006556099
 42
1.0
  0
LWPOLYLINE
  5
11828
330
240
100
AcDbEntity
  8
A_1
100
AcDbPolyline
 90
        2
 70
     1
 43
12.5
 10
3943.749989299006
 20
2876.000006556099
 42
1.0
 10
3931.249989299016
 20
2876.000006556099
 42
1.0
  0
LWPOLYLINE
  5
11834
330
240
100
AcDbEntity
  8
A_1
100
AcDbPolyline
 90
        2
 70
     1
 43
12.0
 10
3410.999989299016
 20
4959.0000065561
 42
1.0
 10
3398.999989299016
 20
4959.0000065561
 42
1.0
  0
LWPOLYLINE
  5
11836
330
240
100
AcDbEntity
  8
A_1
100
AcDbPolyline
 90
        2
 70
     1
 43
12.0
 10
3460.999989299017
 20
4959.0000065561
 42
1.0
 10
3448.999989299017
 20
4959.0000065561
 42
1.0
  0
LWPOLYLINE
  5
11838
330
240
100
AcDbEntity
  8
A_1
100
AcDbPolyline
 90
        2
 70
     1
 43
12.0
 10
4170.999989299016
 20
4959.0000065561
 42
1.0
 10
4158.999989299012
 20
4959.0000065561
 42
1.0
  0
LWPOLYLINE
  5
11840
330
240
100
AcDbEntity
  8
A_1
100
AcDbPolyline
 90
        2
 70
     1
 43
12.0
 10
4220.999989299008
 20
4959.0000065561
 42
1.0
 10
4208.999989299008
 20
4959.0000065561
 42
1.0
  0
LWPOLYLINE
  5
11842
330
240
100
AcDbEntity
  8
A_1
100
AcDbPolyline
 90
        2
 70
     1
 43
12.0
 10
3755.999989299008
 20
4959.0000065561
 42
1.0
 10
3743.999989299011
 20
4959.0000065561
 42
1.0
  0
LWPOLYLINE
  5
11844
330
240
100
AcDbEntity
  8
A_1
100
AcDbPolyline
 90
        2
 70
     1
 43
12.0
 10
3875.999989299016
 20
4959.0000065561
 42
1.0
 10
3863.999989299008
 20
4959.0000065561
 42
1.0
  0
LWPOLYLINE
  5
11846
330
240
100
AcDbEntity
  8
A_1
100
AcDbPolyline
 90
        2
 70
     1
 43
12.0
 10
3738.688005799017
 20
9001.000006556093
 42
1.0
 10
3726.688005799012
 20
9001.000006556093
 42
1.0
  0
LWPOLYLINE
  5
11848
330
240
100
AcDbEntity
  8
A_1
100
AcDbPolyline
 90
        2
 70
     1
 43
12.0
 10
4058.688005799024
 20
9001.000006556093
 42
1.0
 10
4046.688005799019
 20
9001.000006556093
 42
1.0
  0
LWPOLYLINE
  5
11850
330
240
100
AcDbEntity
  8
A_1
100
AcDbPolyline
 90
        2
 70
     1
 43
12.0
 10
4433.688005799016
 20
7101.000006556096
 42
1.0
 10
4421.688005799008
 20
7101.000006556096
 42
1.0
  0
LWPOLYLINE
  5
11852
330
240
100
AcDbEntity
  8
A_1
100
AcDbPolyline
 90
        2
 70
     1
 43
12.0
 10
4433.688005799016
 20
8501.0000065561
 42
1.0
 10
4421.688005799008
 20
8501.0000065561
 42
1.0
  0
LWPOLYLINE
  5
11854
330
240
100
AcDbEntity
  8
A_1
100
AcDbPolyline
 90
        2
 70
     1
 43
12.0
 10
4433.688005799016
 20
8601.0000065561
 42
1.0
 10
4421.688005799008
 20
8601.0000065561
 42
1.0
  0
LWPOLYLINE
  5
11856
330
240
100
AcDbEntity
  8
A_1
100
AcDbPolyline
 90
        2
 70
     1
 43
12.0
 10
4633.688005799016
 20
7101.000006556096
 42
1.0
 10
4621.688005799017
 20
7101.000006556096
 42
1.0
  0
LWPOLYLINE
  5
11858
330
240
100
AcDbEntity
  8
A_1
100
AcDbPolyline
 90
        2
 70
     1
 43
12.0
 10
4633.688005799016
 20
8601.0000065561
 42
1.0
 10
4621.688005799017
 20
8601.0000065561
 42
1.0
  0
LWPOLYLINE
  5
11860
330
240
100
AcDbEntity
  8
A_1
100
AcDbPolyline
 90
        2
 70
     1
 43
12.0
 10
3788.688005799008
 20
6701.0000065561
 42
1.0
 10
3776.688005799016
 20
6701.0000065561
 42
1.0
  0
LWPOLYLINE
  5
11862
330
240
100
AcDbEntity
  8
A_1
100
AcDbPolyline
 90
        2
 70
     1
 43
12.0
 10
4008.688005799016
 20
6701.0000065561
 42
1.0
 10
3996.688005799011
 20
6701.0000065561
 42
1.0
  0
LWPOLYLINE
  5
11864
330
240
100
AcDbEntity
  8
A_1
100
AcDbPolyline
 90
        2
 70
     1
 43
12.0
 10
7822.188005699016
 20
9226.0000065561
 42
1.0
 10
7810.188005699015
 20
9226.0000065561
 42
1.0
  0
LWPOLYLINE
  5
11866
330
240
100
AcDbEntity
  8
A_1
100
AcDbPolyline
 90
        2
 70
     1
 43
12.0
 10
8432.188005699016
 20
9226.0000065561
 42
1.0
 10
8420.188005699012
 20
9226.0000065561
 42
1.0
  0
LWPOLYLINE
  5
11868
330
240
100
AcDbEntity
  8
A_1
100
AcDbPolyline
 90
        2
 70
     1
 43
12.0
 10
8832.188005699014
 20
9226.0000065561
 42
1.0
 10
8820.188005699016
 20
9226.0000065561
 42
1.0
  0
LWPOLYLINE
  5
11870
330
240
100
AcDbEntity
  8
A_1
100
AcDbPolyline
 90
        2
 70
     1
 43
12.0
 10
9142.188005699011
 20
9226.0000065561
 42
1.0
 10
9130.188005699016
 20
9226.0000065561
 42
1.0
  0
LWPOLYLINE
  5
11872
330
240
100
AcDbEntity
  8
A_1
100
AcDbPolyline
 90
        2
 70
     1
 43
12.0
 10
7215.999989199018
 20
2464.0000065561
 42
1.0
 10
7203.999989199018
 20
2464.0000065561
 42
1.0
  0
LWPOLYLINE
  5
11874
330
240
100
AcDbEntity
  8
A_1
100
AcDbPolyline
 90
        2
 70
     1
 43
12.0
 10
7215.999989199018
 20
2584.000006556097
 42
1.0
 10
7203.999989199018
 20
2584.000006556097
 42
1.0
  0
LWPOLYLINE
  5
11876
330
240
100
AcDbEntity
  8
A_1
100
AcDbPolyline
 90
        2
 70
     1
 43
10.0
 10
8614.999989199018
 20
2579.470060356097
 42
1.0
 10
8604.999989199017
 20
2579.470060356097
 42
1.0
  0
LWPOLYLINE
  5
11878
330
240
100
AcDbEntity
  8
A_1
100
AcDbPolyline
 90
        2
 70
     1
 43
10.0
 10
8614.999989199018
 20
2739.470060356099
 42
1.0
 10
8604.999989199017
 20
2739.470060356099
 42
1.0
  0
LWPOLYLINE
  5
11880
330
240
100
AcDbEntity
  8
A_1
100
AcDbPolyline
 90
        2
 70
     1
 43
12.0
 10
9615.999989199009
 20
2464.0000065561
 42
1.0
 10
9603.999989199017
 20
2464.0000065561
 42
1.0
  0
LWPOLYLINE
  5
11882
330
240
100
AcDbEntity
  8
A_1
100
AcDbPolyline
 90
        2
 70
     1
 43
12.0
 10
9615.999989199009
 20
2664.000006556097
 42
1.0
 10
9603.999989199017
 20
2664.000006556097
 42
1.0
  0
LWPOLYLINE
  5
11884
330
240
100
AcDbEntity
  8
A_1
100
AcDbPolyline
 90
        2
 70
     1
 43
12.0
 10
7615.999989199028
 20
2064.000006556101
 42
1.0
 10
7603.999989199017
 20
2064.000006556101
 42
1.0
  0
LWPOLYLINE
  5
11886
330
240
100
AcDbEntity
  8
A_1
100
AcDbPolyline
 90
        2
 70
     1
 43
12.0
 10
9215.999989199016
 20
2064.000006556101
 42
1.0
 10
9203.999989199017
 20
2064.000006556101
 42
1.0
  0
LWPOLYLINE
  5
11888
330
240
100
AcDbEntity
  8
A_1
100
AcDbPolyline
 90
        2
 70
     1
 43
12.0
 10
7615.999989199028
 20
3064.000006556093
 42
1.0
 10
7603.999989199017
 20
3064.000006556093
 42
1.0
  0
LWPOLYLINE
  5
11890
330
240
100
AcDbEntity
  8
A_1
100
AcDbPolyline
 90
        2
 70
     1
 43
12.0
 10
9215.999989199016
 20
3064.000006556093
 42
1.0
 10
9203.999989199017
 20
3064.000006556093
 42
1.0
  0
LWPOLYLINE
  5
11892
330
240
100
AcDbEntity
  8
A_1
100
AcDbPolyline
 90
        2
 70
     1
 43
12.0
 10
9615.999989199009
 20
3464.000006556094
 42
1.0
 10
9603.999989199017
 20
3464.000006556094
 42
1.0
  0
LWPOLYLINE
  5
11894
330
240
100
AcDbEntity
  8
A_1
100
AcDbPolyline
 90
        2
 70
     1
 43
12.0
 10
9615.999989199009
 20
5064.000006556089
 42
1.0
 10
9603.999989199017
 20
5064.000006556089
 42
1.0
  0
ARC
  5
11944
330
240
100
AcDbEntity
  8
A_2
100
AcDbCircle
 10
7706.188005699016
 20
7326.0000065561
 30
0.0
 40
10.0
100
AcDbArc
 50
90.0
 51
180.0
  0
ARC
  5
11945
330
240
100
AcDbEntity
  8
A_2
100
AcDbCircle
 10
7926.188005699017
 20
7326.0000065561
 30
0.0
 40
10.0
100
AcDbArc
 50
0.0
 51
90.0
  0
ARC
  5
11946
330
240
100
AcDbEntity
  8
A_2
100
AcDbCircle
 10
9026.188005699012
 20
7406.000006556097
 30
0.0
 40
10.0
100
AcDbArc
 50
90.0
 51
180.0
  0
ARC
  5
11947
330
240
100
AcDbEntity
  8
A_2
100
AcDbCircle
 10
9246.188005699016
 20
7406.000006556097
 30
0.0
 40
10.0
100
AcDbArc
 50
0.0
 51
90.0
  0
ARC
  5
11948
330
240
100
AcDbEntity
  8
A_2
100
AcDbCircle
 10
7706.188005699016
 20
7326.0000065561
 30
0.0
 40
20.0
100
AcDbArc
 50
90.0
 51
180.0
  0
ARC
  5
11949
330
240
100
AcDbEntity
  8
A_2
100
AcDbCircle
 10
7926.188005699017
 20
7326.0000065561
 30
0.0
 40
20.0
100
AcDbArc
 50
0.0
 51
90.0
  0
ARC
  5
11950
330
240
100
AcDbEntity
  8
A_2
100
AcDbCircle
 10
9026.188005699012
 20
7406.000006556097
 30
0.0
 40
20.0
100
AcDbArc
 50
90.0
 51
180.0
  0
ARC
  5
11951
330
240
100
AcDbEntity
  8
A_2
100
AcDbCircle
 10
9246.188005699016
 20
7406.000006556097
 30
0.0
 40
20.0
100
AcDbArc
 50
0.0
 51
90.0
  0
ARC
  5
11952
330
240
100
AcDbEntity
  8
A_2
100
AcDbCircle
 10
7706.188005699016
 20
7326.0000065561
 30
0.0
 40
30.0
100
AcDbArc
 50
90.0
 51
180.0
  0
ARC
  5
11953
330
240
100
AcDbEntity
  8
A_2
100
AcDbCircle
 10
7926.188005699017
 20
7326.0000065561
 30
0.0
 40
30.0
100
AcDbArc
 50
0.0
 51
90.0
  0
ARC
  5
11954
330
240
100
AcDbEntity
  8
A_2
100
AcDbCircle
 10
9026.188005699012
 20
7406.000006556097
 30
0.0
 40
30.0
100
AcDbArc
 50
90.0
 51
180.0
  0
ARC
  5
11955
330
240
100
AcDbEntity
  8
A_2
100
AcDbCircle
 10
9246.188005699016
 20
7406.000006556097
 30
0.0
 40
30.0
100
AcDbArc
 50
0.0
 51
90.0
  0
ARC
  5
11956
330
240
100
AcDbEntity
  8
A_2
100
AcDbCircle
 10
7706.188005699016
 20
7326.0000065561
 30
0.0
 40
40.0
100
AcDbArc
 50
90.0
 51
180.0
  0
ARC
  5
11957
330
240
100
AcDbEntity
  8
A_2
100
AcDbCircle
 10
7926.188005699017
 20
7326.0000065561
 30
0.0
 40
40.0
100
AcDbArc
 50
0.0
 51
90.0
  0
ARC
  5
11958
330
240
100
AcDbEntity
  8
A_2
100
AcDbCircle
 10
9026.188005699012
 20
7406.000006556097
 30
0.0
 40
40.0
100
AcDbArc
 50
90.0
 51
180.0
  0
ARC
  5
11959
330
240
100
AcDbEntity
  8
A_2
100
AcDbCircle
 10
9246.188005699016
 20
7406.000006556097
 30
0.0
 40
40.0
100
AcDbArc
 50
0.0
 51
90.0
  0
ARC
  5
11960
330
240
100
AcDbEntity
  8
A_2
100
AcDbCircle
 10
7706.188005699016
 20
7326.0000065561
 30
0.0
 40
50.0
100
AcDbArc
 50
90.0
 51
180.0
  0
ARC
  5
11961
330
240
100
AcDbEntity
  8
A_2
100
AcDbCircle
 10
7926.188005699017
 20
7326.0000065561
 30
0.0
 40
50.0
100
AcDbArc
 50
0.0
 51
90.0
  0
ARC
  5
11962
330
240
100
AcDbEntity
  8
A_2
100
AcDbCircle
 10
9026.188005699012
 20
7406.000006556097
 30
0.0
 40
50.0
100
AcDbArc
 50
90.0
 51
180.0
  0
ARC
  5
11963
330
240
100
AcDbEntity
  8
A_2
100
AcDbCircle
 10
9246.188005699016
 20
7406.000006556097
 30
0.0
 40
50.0
100
AcDbArc
 50
0.0
 51
90.0
  0
ARC
  5
11964
330
240
100
AcDbEntity
  8
A_2
100
AcDbCircle
 10
7706.188005699016
 20
7326.0000065561
 30
0.0
 40
60.0
100
AcDbArc
 50
90.0
 51
180.0
  0
ARC
  5
11965
330
240
100
AcDbEntity
  8
A_2
100
AcDbCircle
 10
7926.188005699017
 20
7326.0000065561
 30
0.0
 40
60.0
100
AcDbArc
 50
0.0
 51
90.0
  0
ARC
  5
11966
330
240
100
AcDbEntity
  8
A_2
100
AcDbCircle
 10
9026.188005699012
 20
7406.000006556097
 30
0.0
 40
60.0
100
AcDbArc
 50
90.0
 51
180.0
  0
ARC
  5
11967
330
240
100
AcDbEntity
  8
A_2
100
AcDbCircle
 10
9246.188005699016
 20
7406.000006556097
 30
0.0
 40
60.0
100
AcDbArc
 50
0.0
 51
90.0
  0
ARC
  5
11968
330
240
100
AcDbEntity
  8
A_2
100
AcDbCircle
 10
7706.188005699016
 20
7326.0000065561
 30
0.0
 40
70.0
100
AcDbArc
 50
90.0
 51
180.0
  0
ARC
  5
11969
330
240
100
AcDbEntity
  8
A_2
100
AcDbCircle
 10
7926.188005699017
 20
7326.0000065561
 30
0.0
 40
70.0
100
AcDbArc
 50
0.0
 51
90.0
  0
ARC
  5
11970
330
240
100
AcDbEntity
  8
A_2
100
AcDbCircle
 10
9026.188005699012
 20
7406.000006556097
 30
0.0
 40
70.0
100
AcDbArc
 50
90.0
 51
180.0
  0
ARC
  5
11971
330
240
100
AcDbEntity
  8
A_2
100
AcDbCircle
 10
9246.188005699016
 20
7406.000006556097
 30
0.0
 40
70.0
100
AcDbArc
 50
0.0
 51
90.0
  0
ARC
  5
11972
330
240
100
AcDbEntity
  8
A_2
100
AcDbCircle
 10
7706.188005699016
 20
7326.0000065561
 30
0.0
 40
80.0
100
AcDbArc
 50
90.0
 51
180.0
  0
ARC
  5
11973
330
240
100
AcDbEntity
  8
A_2
100
AcDbCircle
 10
7926.188005699017
 20
7326.0000065561
 30
0.0
 40
80.0
100
AcDbArc
 50
0.0
 51
90.0
  0
ARC
  5
11974
330
240
100
AcDbEntity
  8
A_2
100
AcDbCircle
 10
9026.188005699012
 20
7406.000006556097
 30
0.0
 40
80.0
100
AcDbArc
 50
90.0
 51
180.0
  0
ARC
  5
11975
330
240
100
AcDbEntity
  8
A_2
100
AcDbCircle
 10
9246.188005699016
 20
7406.000006556097
 30
0.0
 40
80.0
100
AcDbArc
 50
0.0
 51
90.0
  0
ARC
  5
11976
330
240
100
AcDbEntity
  8
A_2
100
AcDbCircle
 10
7706.188005699016
 20
7326.0000065561
 30
0.0
 40
90.0
100
AcDbArc
 50
90.0
 51
180.0
  0
ARC
  5
11977
330
240
100
AcDbEntity
  8
A_2
100
AcDbCircle
 10
7926.188005699017
 20
7326.0000065561
 30
0.0
 40
90.0
100
AcDbArc
 50
0.0
 51
90.0
  0
ARC
  5
11978
330
240
100
AcDbEntity
  8
A_2
100
AcDbCircle
 10
9026.188005699012
 20
7406.000006556097
 30
0.0
 40
90.0
100
AcDbArc
 50
90.0
 51
180.0
  0
ARC
  5
11979
330
240
100
AcDbEntity
  8
A_2
100
AcDbCircle
 10
9246.188005699016
 20
7406.000006556097
 30
0.0
 40
90.0
100
AcDbArc
 50
0.0
 51
90.0
  0
ARC
  5
11980
330
240
100
AcDbEntity
  8
A_2
100
AcDbCircle
 10
7706.188005699016
 20
7326.0000065561
 30
0.0
 40
100.0
100
AcDbArc
 50
90.0
 51
180.0
  0
ARC
  5
11981
330
240
100
AcDbEntity
  8
A_2
100
AcDbCircle
 10
7926.188005699017
 20
7326.0000065561
 30
0.0
 40
100.0
100
AcDbArc
 50
0.0
 51
90.0
  0
ARC
  5
11982
330
240
100
AcDbEntity
  8
A_2
100
AcDbCircle
 10
9026.188005699012
 20
7406.000006556097
 30
0.0
 40
100.0
100
AcDbArc
 50
90.0
 51
180.0
  0
ARC
  5
11983
330
240
100
AcDbEntity
  8
A_2
100
AcDbCircle
 10
9246.188005699016
 20
7406.000006556097
 30
0.0
 40
100.0
100
AcDbArc
 50
0.0
 51
90.0
  0
SOLID
  5
11986
330
240
100
AcDbEntity
  8
A_1
100
AcDbTrace
 10
4225.999989299016
 20
4679.000006556096
 30
0.0
 11
4265.999989299016
 21
4671.000006556096
 31
0.0
 12
4225.999989299016
 22
4679.000006556096
 32
0.0
 13
4265.999989299016
 23
4687.000006556096
 33
0.0
  0
SOLID
  5
11987
330
240
100
AcDbEntity
  8
A_1
100
AcDbTrace
 10
3782.688005799008
 20
7101.000006556096
 30
0.0
 11
3749.027751799011
 21
7139.3012765561
 31
0.0
 12
3782.688005799008
 22
7101.000006556096
 32
0.0
 13
3766.348259799016
 23
7149.3012767561
 33
0.0
  0
SOLID
  5
11988
330
240
100
AcDbEntity
  8
A_1
100
AcDbTrace
 10
3768.975999069724
 20
8485.397412626692
 30
0.0
 11
3735.315745069727
 21
8447.096142426685
 31
0.0
 12
3768.975999069724
 22
8485.397412626692
 32
0.0
 13
3752.636253069729
 23
8437.096142426694
 33
0.0
  0
SOLID
  5
11989
330
240
100
AcDbEntity
  8
A_1
100
AcDbTrace
 10
7706.188005699016
 20
8026.000006556094
 30
0.0
 11
7672.527751699013
 21
8064.301276556104
 31
0.0
 12
7706.188005699016
 22
8026.000006556094
 32
0.0
 13
7689.848259899012
 23
8074.301276756095
 33
0.0
  0
SOLID
  5
11990
330
240
100
AcDbEntity
  8
A_1
100
AcDbTrace
 10
8426.188005699016
 20
7226.000006556096
 30
0.0
 11
8392.527751699015
 21
7187.698736356097
 31
0.0
 12
8426.188005699016
 22
7226.000006556096
 32
0.0
 13
8409.848259899012
 23
7177.6987363561
 33
0.0
  0
SOLID
  5
11991
330
240
100
AcDbEntity
  8
A_1
100
AcDbTrace
 10
8526.188005699012
 20
7226.000006556096
 30
0.0
 11
8559.848259899011
 21
7187.698736356097
 31
0.0
 12
8526.188005699012
 22
7226.000006556096
 32
0.0
 13
8542.527751699012
 23
7177.6987363561
 33
0.0
  0
SOLID
  5
11992
330
240
100
AcDbEntity
  8
A_1
100
AcDbTrace
 10
8375.999989199009
 20
2636.300006556094
 30
0.0
 11
8319.999989199031
 21
2642.833339756093
 31
0.0
 12
8375.999989199009
 22
2636.300006556094
 32
0.0
 13
8319.999989199031
 23
2633.500006556097
 33
0.0
  0
SOLID
  5
11993
330
240
100
AcDbEntity
  8
A_1
100
AcDbTrace
 10
8669.999989199018
 20
4264.000006556101
 30
0.0
 11
8629.999989199017
 21
4272.000006556095
 31
0.0
 12
8669.999989199018
 22
4264.000006556101
 32
0.0
 13
8629.999989199017
 23
4256.000006556095
 33
0.0
  0
SOLID
  5
11994
330
240
100
AcDbEntity
  8
A_2
100
AcDbTrace
 10
3672.68800579901
 20
7101.000006556096
 30
0.0
 11
4112.688005799012
 21
7101.000006556096
 31
0.0
 12
3672.68800579901
 22
6961.000006556097
 32
0.0
 13
4112.688005799012
 23
6961.000006556097
 33
0.0
  0
SOLID
  5
11995
330
240
100
AcDbEntity
  8
A_2
100
AcDbTrace
 10
8426.188005699016
 20
7226.000006556096
 30
0.0
 11
8386.188005699017
 21
7326.0000065561
 31
0.0
 12
8466.188005699015
 22
7334.0000065561
 32
0.0
 13
8426.188005699016
 23
7326.0000065561
 33
0.0
  0
TEXT
  5
11999
330
240
100
AcDbEntity
  8
A_4
100
AcDbText
 10
8256.502737051226
 20
2643.925144334429
 30
0.0
 40
50.0
  1
S%
 50
2.862404999999998
 72
     2
 11
8353.999989199017
 21
2648.800006556094
 31
0.0
100
AcDbText
  0
TEXT
  5
12001
330
240
100
AcDbEntity
  8
A_4
100
AcDbText
 10
3289.999989299011
 20
4969.000006556097
 30
0.0
 40
54.0
  1
50
100
AcDbText
  0
TEXT
  5
12002
330
240
100
AcDbEntity
  8
A_4
100
AcDbText
 10
3154.999989299017
 20
2607.000006556102
 30
0.0
 40
54.0
  1
*    50mm  .
100
AcDbText
  0
TEXT
  5
12003
330
240
100
AcDbEntity
  8
A_4
100
AcDbText
 10
3154.999989299017
 20
2499.0000065561
 30
0.0
 40
54.0
  1
*      
100
AcDbText
  0
TEXT
  5
12004
330
240
100
AcDbEntity
  8
A_4
100
AcDbText
 10
3154.999989299017
 20
2391.0000065561
 30
0.0
 40
54.0
  1
       120mm
100
AcDbText
  0
TEXT
  5
12005
330
240
100
AcDbEntity
  8
A_4
100
AcDbText
 10
3154.999989299017
 20
2283.0000065561
 30
0.0
 40
54.0
  1
   
100
AcDbText
  0
TEXT
  5
12006
330
240
100
AcDbEntity
  8
A_4
100
AcDbText
 10
3080.688005799014
 20
7020.0000065561
 30
0.0
 40
54.0
  1
DIA-SD1MM
100
AcDbText
  0
TEXT
  5
12007
330
240
100
AcDbEntity
  8
A_4
100
AcDbText
 10
3080.688005799014
 20
6939.000006556099
 30
0.0
 40
54.0
  1
H = SHMM
100
AcDbText
  0
TEXT
  5
12008
330
240
100
AcDbEntity
  8
A_4
100
AcDbText
 10
3080.688005799014
 20
6858.0000065561
 30
0.0
 40
54.0
  1
WT = 3.04kg/m
100
AcDbText
  0
TEXT
  5
12009
330
240
100
AcDbEntity
  8
A_4
100
AcDbText
 10
8526.188005699012
 20
7476.000006556096
 30
0.0
 40
54.0
  1
5
100
AcDbText
  0
TEXT
  5
12010
330
240
100
AcDbEntity
  8
A_4
100
AcDbText
 10
7706.188005699016
 20
6956.0000065561
 30
0.0
 40
54.0
  1
*       
100
AcDbText
  0
TEXT
  5
12011
330
240
100
AcDbEntity
  8
A_4
100
AcDbText
 10
7706.188005699016
 20
6848.0000065561
 30
0.0
 40
54.0
  1
       
100
AcDbText
  0
TEXT
  5
12012
330
240
100
AcDbEntity
  8
A_4
100
AcDbText
 10
7706.188005699016
 20
6740.000006556096
 30
0.0
 40
54.0
  1
      
100
AcDbText
  0
TEXT
  5
12013
330
240
100
AcDbEntity
  8
A_4
100
AcDbText
 10
7706.188005699016
 20
6632.000006556103
 30
0.0
 40
54.0
  1
       
100
AcDbText
  0
TEXT
  5
12014
330
240
100
AcDbEntity
  8
A_4
100
AcDbText
 10
8387.902291413302
 20
7386.000006556097
 30
0.0
 40
54.0
  1
1
 72
     2
 11
8416.188005699016
 21
7386.000006556097
 31
0.0
100
AcDbText
  0
TEXT
  5
12016
330
240
100
AcDbEntity
  8
A_4
100
AcDbText
 10
15540.08672299999
 20
7328.761012999999
 30
0.0
 40
270.0
  1

 72
     1
 11
15540.08672299999
 21
7328.761012999999
 31
0.0
100
AcDbText
  0
TEXT
  5
12018
330
240
100
AcDbEntity
  8
A_4
100
AcDbText
 10
10628.82639399999
 20
9528.761012999998
 30
0.0
 40
270.0
  1

 72
     1
 11
10628.82639399999
 21
9528.761012999998
 31
0.0
100
AcDbText
  0
TEXT
  5
12019
330
240
100
AcDbEntity
  8
A_4
100
AcDbText
 10
4244.571417870445
 20
4969.000006556097
 30
0.0
 40
54.0
  1
50
 72
     1
 11
4295.999989299016
 21
4969.000006556097
 31
0.0
100
AcDbText
  0
TEXT
  5
12020
330
240
100
AcDbEntity
  8
A_4
100
AcDbText
 10
3728.999989299008
 20
4969.000006556097
 30
0.0
 40
54.0
  1
120
 72
     1
 11
3809.999989299008
 21
4969.000006556097
 31
0.0
100
AcDbText
  0
TEXT
  5
12021
330
240
100
AcDbEntity
  8
A_4
100
AcDbText
 10
4274.428560727588
 20
4689.000006556089
 30
0.0
 40
54.0
  1
STUD
 72
     1
 11
4375.999989299017
 21
4689.000006556089
 31
0.0
100
AcDbText
  0
TEXT
  5
12022
330
240
100
AcDbEntity
  8
A_4
100
AcDbText
 10
42737.551359
 20
21208.76101299999
 30
0.0
 40
270.0
  1

 72
     1
 11
42737.551359
 21
21208.76101299999
 31
0.0
100
AcDbText
  0
TEXT
  5
12082
330
240
100
AcDbEntity
  8
A_4
100
AcDbText
 10
3824.863737341241
 20
9011.0000065561
 30
0.0
 40
54.0
  1
SD2
 72
     1
 11
3903.292308769813
 21
9011.0000065561
 31
0.0
100
AcDbText
  0
TEXT
  5
12083
330
240
100
AcDbEntity
  8
A_4
100
AcDbText
 10
3821.973720084725
 20
6711.000006556097
 30
0.0
 40
54.0
  1
SD1
 72
     1
 11
3892.688005799011
 21
6711.000006556097
 31
0.0
100
AcDbText
  0
TEXT
  5
12084
330
240
100
AcDbEntity
  8
A_4
100
AcDbText
 10
2987.026258513301
 20
7271.000006556096
 30
0.0
 40
54.0
  1
STUD GUN WELD
 72
     1
 11
3330.311972799016
 21
7271.000006556096
 31
0.0
100
AcDbText
  0
TEXT
  5
12085
330
240
100
AcDbEntity
  8
A_4
100
AcDbText
 10
11529.766476
 20
37834.506914
 30
0.0
 40
270.0
  1

 72
     1
 11
11529.766476
 21
37834.506914
 31
0.0
100
AcDbText
  0
TEXT
  5
12086
330
240
100
AcDbEntity
  8
A_4
100
AcDbText
 10
3327.74282321259
 20
8335.397412626692
 30
0.0
 40
54.0
  1
R=150
 72
     1
 11
3466.599966069733
 21
8335.397412626692
 31
0.0
100
AcDbText
  0
TEXT
  5
12087
330
240
100
AcDbEntity
  8
A_4
100
AcDbText
 10
12279.766476
 20
43234.50691399998
 30
0.0
 40
270.0
  1

 72
     1
 11
12279.766476
 21
43234.50691399998
 31
0.0
100
AcDbText
  0
TEXT
  5
12088
330
240
100
AcDbEntity
  8
A_4
100
AcDbText
 10
8069.759434270444
 20
9236.0000065561
 30
0.0
 40
54.0
  1
50
 72
     1
 11
8121.188005699016
 21
9236.0000065561
 31
0.0
100
AcDbText
  0
TEXT
  5
12089
330
240
100
AcDbEntity
  8
A_4
100
AcDbText
 10
8929.759434270446
 20
9236.0000065561
 30
0.0
 40
54.0
  1
20
 72
     1
 11
8981.188005699015
 21
9236.0000065561
 31
0.0
100
AcDbText
  0
TEXT
  5
12090
330
240
100
AcDbEntity
  8
A_4
100
AcDbText
 10
7382.240544327584
 20
8196.000006556095
 30
0.0
 40
54.0
  1
STUD
 72
     1
 11
7483.811972899012
 21
8196.000006556095
 31
0.0
100
AcDbText
  0
TEXT
  5
12091
330
240
100
AcDbEntity
  8
A_4
100
AcDbText
 10
35276.61127699998
 20
42459.506914
 30
0.0
 40
270.0
  1

 72
     1
 11
35276.61127699998
 21
42459.506914
 31
0.0
100
AcDbText
  0
TEXT
  5
12092
330
240
100
AcDbEntity
  8
A_4
100
AcDbText
 10
7868.526258613298
 20
7076.0000065561
 30
0.0
 40
54.0
  1
BUTT JOINT
 72
     1
 11
8103.811972899013
 21
7076.0000065561
 31
0.0
100
AcDbText
  0
TEXT
  5
12093
330
240
100
AcDbEntity
  8
A_4
100
AcDbText
 10
38376.61127699998
 20
36859.50691399998
 30
0.0
 40
270.0
  1

 72
     1
 11
38376.61127699998
 21
36859.50691399998
 31
0.0
100
AcDbText
  0
TEXT
  5
12094
330
240
100
AcDbEntity
  8
A_4
100
AcDbText
 10
8651.278324413299
 20
7076.0000065561
 30
0.0
 40
54.0
  1
 FLANGE
 72
     1
 11
8898.564038699012
 21
7076.0000065561
 31
0.0
100
AcDbText
  0
TEXT
  5
12095
330
240
100
AcDbEntity
  8
A_4
100
AcDbText
 10
42350.371606
 20
36859.50691399998
 30
0.0
 40
270.0
  1

 72
     1
 11
42350.371606
 21
36859.50691399998
 31
0.0
100
AcDbText
  0
TEXT
  5
12096
330
240
100
AcDbEntity
  8
A_4
100
AcDbText
 10
8379.142846341876
 20
2074.000006556099
 30
0.0
 40
54.0
  1
W
 72
     1
 11
8409.99998919902
 21
2074.000006556099
 31
0.0
100
AcDbText
  0
TEXT
  5
12097
330
240
100
AcDbEntity
  8
A_4
100
AcDbText
 10
8379.142846341876
 20
3074.000006556098
 30
0.0
 40
54.0
  1
W
 72
     1
 11
8409.99998919902
 21
3074.000006556098
 31
0.0
100
AcDbText
  0
TEXT
  5
12098
330
240
100
AcDbEntity
  8
A_4
100
AcDbText
 10
8252.299989199018
 20
4274.000006556097
 30
0.0
 40
54.0
  1
 
 72
     1
 11
8419.999989199018
 21
4274.000006556097
 31
0.0
100
AcDbText
  0
TEXT
  5
12099
330
240
100
AcDbEntity
  8
A_4
100
AcDbText
 10
65936.89615899999
 20
44389.50691399999
 30
0.0
 40
270.0
  1

 72
     1
 11
65936.89615899999
 21
44389.50691399999
 31
0.0
100
AcDbText
  0
TEXT
  5
12100
330
240
100
AcDbEntity
  8
A_4
100
AcDbText
 10
4417.688005799008
 20
7721.285720841811
 30
0.0
 40
54.0
  1
SH2
 50
90.0
 72
     1
 11
4417.688005799008
 21
7801.000006556096
 31
0.0
100
AcDbText
  0
TEXT
  5
12101
330
240
100
AcDbEntity
  8
A_4
100
AcDbText
 10
4417.688005799008
 20
8610.0000065561
 30
0.0
 40
54.0
  1
SH1
 50
90.0
 72
     1
 11
4417.688005799008
 21
8682.0000065561
 31
0.0
100
AcDbText
  0
TEXT
  5
12102
330
240
100
AcDbEntity
  8
A_4
100
AcDbText
 10
4617.688005799012
 20
7771.285720841811
 30
0.0
 40
54.0
  1
SH0
 50
90.0
 72
     1
 11
4617.688005799012
 21
7851.000006556096
 31
0.0
100
AcDbText
  0
TEXT
  5
12103
330
240
100
AcDbEntity
  8
A_4
100
AcDbText
 10
7199.999989199017
 20
2488.000006556097
 30
0.0
 40
54.0
  1
T1
 50
90.0
 72
     1
 11
7199.999989199017
 21
2524.000006556097
 31
0.0
100
AcDbText
  0
TEXT
  5
12104
330
240
100
AcDbEntity
  8
A_4
100
AcDbText
 10
8599.999989199019
 20
2638.898631784666
 30
0.0
 40
54.0
  1
T
 50
90.0
 72
     1
 11
8599.999989199019
 21
2659.470060356095
 31
0.0
100
AcDbText
  0
TEXT
  5
12105
330
240
100
AcDbEntity
  8
A_4
100
AcDbText
 10
9599.999989199019
 20
2520.285720841807
 30
0.0
 40
54.0
  1
T2
 50
90.0
 72
     1
 11
9599.999989199019
 21
2564.000006556093
 31
0.0
100
AcDbText
  0
TEXT
  5
12106
330
240
100
AcDbEntity
  8
A_4
100
AcDbText
 10
9599.999989199019
 20
4235.714292270386
 30
0.0
 40
54.0
  1
H
 50
90.0
 72
     1
 11
9599.999989199019
 21
4264.000006556101
 31
0.0
100
AcDbText
  0
TEXT
  5
12108
330
240
100
AcDbEntity
  8
A_4
100
AcDbText
 10
3251.513402624405
 20
9201.0000065561
 30
0.0
 40
80.0
  1
STUD BOLT 
 72
     1
 11
3782.688005799008
 21
9201.0000065561
 31
0.0
100
AcDbText
  0
TEXT
  5
12109
330
240
100
AcDbEntity
  8
A_4
100
AcDbText
 10
8176.222211421242
 20
5224.000006556093
 30
0.0
 40
80.0
  1
  
 72
     1
 11
8409.99998919902
 21
5224.000006556093
 31
0.0
100
AcDbText
  0
TEXT
  5
12111
330
240
100
AcDbEntity
  8
A_6
100
AcDbText
 10
3016.028560727579
 20
5732.0000064561
 30
0.0
 40
108.0
  1
  <4>
 72
     1
 11
3809.999989299008
 21
5732.0000064561
 31
0.0
100
AcDbText
  0
TEXT
  5
12112
330
240
100
AcDbEntity
  8
A_6
100
AcDbText
 10
12126.19998899899
 20
5732.0000064561
 30
0.0
 40
108.0
  1
   
 72
     1
 11
13009.99998899899
 21
5732.0000064561
 31
0.0
100
AcDbText
  0
TEXT
  5
12113
330
240
100
AcDbEntity
  8
A_6
100
AcDbText
 10
3016.028560827583
 20
10040.0000064561
 30
0.0
 40
108.0
  1
  <1>
 72
     1
 11
3809.999989399012
 21
10040.0000064561
 31
0.0
100
AcDbText
  0
TEXT
  5
12114
330
240
100
AcDbEntity
  8
A_6
100
AcDbText
 10
7616.028560727584
 20
10040.0000064561
 30
0.0
 40
108.0
  1
  <2>
 72
     1
 11
8409.999989299013
 21
10040.0000064561
 31
0.0
100
AcDbText
  0
TEXT
  5
12115
330
240
100
AcDbEntity
  8
A_6
100
AcDbText
 10
7802.799989199019
 20
5732.000006456093
 30
0.0
 40
108.0
  1
  
 72
     1
 11
8409.99998919902
 21
5732.000006456093
 31
0.0
100
AcDbText
  0
TEXT
  5
1468E
330
240
100
AcDbEntity
  8
A_4
100
AcDbText
 10
6802600.923200001
 20
2088000.01
 30
0.0
 40
27000.0
  1

 72
     1
 11
6802600.923200001
 21
2088000.01
 31
0.0
100
AcDbText
  0
TEXT
  5
1468F
330
240
100
AcDbEntity
  8
A_4
100
AcDbText
 10
6796752.744499997
 20
2088000.01
 30
0.0
 40
27000.0
  1

 72
     1
 11
6796752.744499997
 21
2088000.01
 31
0.0
100
AcDbText
  0
TEXT
  5
14690
330
240
100
AcDbEntity
  8
A_4
100
AcDbText
 10
6688425.713300001
 20
2046000.01
 30
0.0
 40
27000.0
  1

 72
     1
 11
6688425.713300001
 21
2046000.01
 31
0.0
100
AcDbText
  0
TEXT
  5
14691
330
240
100
AcDbEntity
  8
A_4
100
AcDbText
 10
6572580.696400001
 20
2046000.01
 30
0.0
 40
27000.0
  1

 72
     1
 11
6572580.696400001
 21
2046000.01
 31
0.0
100
AcDbText
  0
TEXT
  5
14692
330
240
100
AcDbEntity
  8
A_4
100
AcDbText
 10
6456384.6139
 20
2046000.01
 30
0.0
 40
27000.0
  1

 72
     1
 11
6456384.6139
 21
2046000.01
 31
0.0
100
AcDbText
  0
TEXT
  5
14693
330
240
100
AcDbEntity
  8
A_4
100
AcDbText
 10
6327738.634400002
 20
2046000.01
 30
0.0
 40
27000.0
  1

 72
     1
 11
6327738.634400002
 21
2046000.01
 31
0.0
100
AcDbText
  0
TEXT
  5
14694
330
240
100
AcDbEntity
  8
A_4
100
AcDbText
 10
6211518.407100002
 20
2046000.01
 30
0.0
 40
27000.0
  1

 72
     1
 11
6211518.407100002
 21
2046000.01
 31
0.0
100
AcDbText
  0
TEXT
  5
14695
330
240
100
AcDbEntity
  8
A_4
100
AcDbText
 10
6094372.3241
 20
2046000.01
 30
0.0
 40
27000.0
  1

 72
     1
 11
6094372.3241
 21
2046000.01
 31
0.0
100
AcDbText
  0
TEXT
  5
14696
330
240
100
AcDbEntity
  8
A_4
100
AcDbText
 10
5976281.045599997
 20
2046000.01
 30
0.0
 40
27000.0
  1

 72
     1
 11
5976281.045599997
 21
2046000.01
 31
0.0
100
AcDbText
  0
TEXT
  5
14697
330
240
100
AcDbEntity
  8
A_4
100
AcDbText
 10
5857237.065499997
 20
2046000.01
 30
0.0
 40
27000.0
  1

 72
     1
 11
5857237.065499997
 21
2046000.01
 31
0.0
100
AcDbText
  0
TEXT
  5
14698
330
240
100
AcDbEntity
  8
A_4
100
AcDbText
 10
2063962.2843
 20
2046000.01
 30
0.0
 40
27000.0
  1

 72
     1
 11
2063962.2843
 21
2046000.01
 31
0.0
100
AcDbText
  0
TEXT
  5
14699
330
240
100
AcDbEntity
  8
A_4
100
AcDbText
 10
1936807.104499998
 20
2046000.01
 30
0.0
 40
27000.0
  1

 72
     1
 11
1936807.104499998
 21
2046000.01
 31
0.0
100
AcDbText
  0
TEXT
  5
1469A
330
240
100
AcDbEntity
  8
A_4
100
AcDbText
 10
6802600.923200001
 20
2188000.009999999
 30
0.0
 40
27000.0
  1

 72
     1
 11
6802600.923200001
 21
2188000.009999999
 31
0.0
100
AcDbText
  0
TEXT
  5
1469B
330
240
100
AcDbEntity
  8
A_4
100
AcDbText
 10
6796752.744499997
 20
2188000.009999999
 30
0.0
 40
27000.0
  1

 72
     1
 11
6796752.744499997
 21
2188000.009999999
 31
0.0
100
AcDbText
  0
TEXT
  5
1469C
330
240
100
AcDbEntity
  8
A_4
100
AcDbText
 10
6802600.923200001
 20
2288000.009999997
 30
0.0
 40
27000.0
  1

 72
     1
 11
6802600.923200001
 21
2288000.009999997
 31
0.0
100
AcDbText
  0
TEXT
  5
1469D
330
240
100
AcDbEntity
  8
A_4
100
AcDbText
 10
6802600.923200001
 20
1320000.01
 30
0.0
 40
27000.0
  1

 72
     1
 11
6802600.923200001
 21
1320000.01
 31
0.0
100
AcDbText
  0
TEXT
  5
1469E
330
240
100
AcDbEntity
  8
A_4
100
AcDbText
 10
6796752.744499997
 20
1320000.01
 30
0.0
 40
27000.0
  1

 72
     1
 11
6796752.744499997
 21
1320000.01
 31
0.0
100
AcDbText
  0
TEXT
  5
1469F
330
240
100
AcDbEntity
  8
A_4
100
AcDbText
 10
1929249.7947
 20
1278000.009999999
 30
0.0
 40
27000.0
  1

 72
     1
 11
1929249.7947
 21
1278000.009999999
 31
0.0
100
AcDbText
  0
TEXT
  5
146A0
330
240
100
AcDbEntity
  8
A_4
100
AcDbText
 10
2148687.8622
 20
1518000.009999999
 30
0.0
 40
27000.0
  1

 72
     1
 11
2148687.8622
 21
1518000.009999999
 31
0.0
100
AcDbText
  0
TEXT
  5
146A1
330
240
100
AcDbEntity
  8
A_4
100
AcDbText
 10
6869847.308399998
 20
3304853.197599998
 30
0.0
 40
27000.0
  1

 50
24.52472999999999
 72
     1
 11
6869847.308399998
 21
3304853.197599998
 31
0.0
100
AcDbText
  0
TEXT
  5
146A2
330
240
100
AcDbEntity
  8
A_4
100
AcDbText
 10
6935092.394600001
 20
3500004.442099998
 30
0.0
 40
27000.0
  1

 50
25.377232
 72
     1
 11
6935092.394600001
 21
3500004.442099998
 31
0.0
100
AcDbText
  0
TEXT
  5
146A3
330
240
100
AcDbEntity
  8
A_4
100
AcDbText
 10
6640572.0046
 20
4376607.000199999
 30
0.0
 40
27000.0
  1

 50
26.033815
 72
     1
 11
6640572.0046
 21
4376607.000199999
 31
0.0
100
AcDbText
  0
TEXT
  5
146A4
330
240
100
AcDbEntity
  8
A_4
100
AcDbText
 10
6596681.8521
 20
4466460.517199998
 30
0.0
 40
27000.0
  1

 50
26.033815
 72
     1
 11
6596681.8521
 21
4466460.517199998
 31
0.0
100
AcDbText
  0
TEXT
  5
146A5
330
240
100
AcDbEntity
  8
A_4
100
AcDbText
 10
7090446.067800002
 20
3455608.4512
 30
0.0
 40
27000.0
  1

 50
26.033815
 72
     1
 11
7090446.067800002
 21
3455608.4512
 31
0.0
100
AcDbText
  0
TEXT
  5
146A6
330
240
100
AcDbEntity
  8
A_4
100
AcDbText
 10
7134336.220399997
 20
3365754.934299997
 30
0.0
 40
27000.0
  1

 50
26.033815
 72
     1
 11
7134336.220399997
 21
3365754.934299997
 31
0.0
100
AcDbText
  0
TEXT
  5
146A7
330
240
100
AcDbEntity
  8
A_4
100
AcDbText
 10
6646228.096200002
 20
4379371.964699998
 30
0.0
 40
27000.0
  1

 50
26.069279
 72
     1
 11
6646228.096200002
 21
4379371.964699998
 31
0.0
100
AcDbText
  0
TEXT
  5
146A8
330
240
100
AcDbEntity
  8
A_4
100
AcDbText
 10
6602282.3368
 20
4469198.298500002
 30
0.0
 40
27000.0
  1

 50
26.069279
 72
     1
 11
6602282.3368
 21
4469198.298500002
 31
0.0
100
AcDbText
  0
TEXT
  5
146A9
330
240
100
AcDbEntity
  8
A_4
100
AcDbText
 10
6558336.577400001
 20
4559024.632199998
 30
0.0
 40
27000.0
  1

 50
26.069279
 72
     1
 11
6558336.577400001
 21
4559024.632199998
 31
0.0
100
AcDbText
  0
TEXT
  5
146AA
330
240
100
AcDbEntity
  8
A_4
100
AcDbText
 10
7096672.13
 20
3458652.043999998
 30
0.0
 40
27000.0
  1

 50
26.069279
 72
     1
 11
7096672.13
 21
3458652.043999998
 31
0.0
100
AcDbText
  0
TEXT
  5
146AB
330
240
100
AcDbEntity
  8
A_4
100
AcDbText
 10
7140617.889400001
 20
3368825.710299998
 30
0.0
 40
27000.0
  1

 50
26.069279
 72
     1
 11
7140617.889400001
 21
3368825.710299998
 31
0.0
100
AcDbText
  0
TEXT
  5
146AC
330
240
100
AcDbEntity
  8
A_4
100
AcDbText
 10
1694897.313899999
 20
1666200.01
 30
0.0
 40
27000.0
  1

 50
90.0
 72
     1
 11
1694897.313899999
 21
1666200.01
 31
0.0
100
AcDbText
  0
TEXT
  5
146AD
330
240
100
AcDbEntity
  8
A_4
100
AcDbText
 10
7107092.7997
 20
1836200.009999999
 30
0.0
 40
27000.0
  1

 50
90.0
 72
     1
 11
7107092.7997
 21
1836200.009999999
 31
0.0
100
AcDbText
  0
TEXT
  5
146AE
330
240
100
AcDbEntity
  8
A_4
100
AcDbText
 10
7018231.163500002
 20
1836200.009999999
 30
0.0
 40
27000.0
  1

 50
90.0
 72
     1
 11
7018231.163500002
 21
1836200.009999999
 31
0.0
100
AcDbText
  0
TEXT
  5
146AF
330
240
100
AcDbEntity
  8
A_4
100
AcDbText
 10
7018231.163500002
 20
1810200.01
 30
0.0
 40
27000.0
  1

 50
90.0
 72
     1
 11
7018231.163500002
 21
1810200.01
 31
0.0
100
AcDbText
  0
TEXT
  5
146B0
330
240
100
AcDbEntity
  8
A_4
100
AcDbText
 10
1680540.5357
 20
3343243.256899997
 30
0.0
 40
27000.0
  1

 50
333.2760069999999
 72
     1
 11
1680540.5357
 21
3343243.256899997
 31
0.0
100
AcDbText
  0
TEXT
  5
146B1
330
240
100
AcDbEntity
  8
A_4
100
AcDbText
 10
2017877.0932
 20
3186668.345199998
 30
0.0
 40
27000.0
  1

 50
336.927208
 72
     1
 11
2017877.0932
 21
3186668.345199998
 31
0.0
100
AcDbText
  0
TEXT
  5
146B2
330
240
100
AcDbEntity
  8
A_4
100
AcDbText
 10
3664078.9569
 20
3274945.5837
 30
0.0
 40
27000.0
  1

 50
353.077004
 72
     1
 11
3664078.9569
 21
3274945.5837
 31
0.0
100
AcDbText
  0
TEXT
  5
146B3
330
240
100
AcDbEntity
  8
A_5
100
AcDbText
 10
3194261.5117
 20
1611000.009999998
 30
0.0
 40
40000.0
  1

 72
     1
 11
3194261.5117
 21
1611000.009999998
 31
0.0
100
AcDbText
  0
TEXT
  5
146B4
330
240
100
AcDbEntity
  8
A_7
100
AcDbText
 10
6900406.342700001
 20
4117516.235299998
 30
0.0
 40
27000.0
  1

 50
129.648355
 72
     1
 11
6900406.342700001
 21
4117516.235299998
 31
0.0
100
AcDbText
  0
TEXT
  5
146B5
330
240
100
AcDbEntity
  8
A_7
100
AcDbText
 10
7122752.518700001
 20
3848956.2882
 30
0.0
 40
27000.0
  1

 50
129.9977979999999
 72
     1
 11
7122752.518700001
 21
3848956.2882
 31
0.0
100
AcDbText
  0
TEXT
  5
1746A
330
240
100
AcDbEntity
  8
A_4
100
AcDbText
 10
6802600.923200001
 20
2088000.01
 30
0.0
 40
27000.0
  1

 72
     1
 11
6802600.923200001
 21
2088000.01
 31
0.0
100
AcDbText
  0
TEXT
  5
1746B
330
240
100
AcDbEntity
  8
A_4
100
AcDbText
 10
6796752.744499997
 20
2088000.01
 30
0.0
 40
27000.0
  1

 72
     1
 11
6796752.744499997
 21
2088000.01
 31
0.0
100
AcDbText
  0
TEXT
  5
1746C
330
240
100
AcDbEntity
  8
A_4
100
AcDbText
 10
6688425.713300001
 20
2046000.01
 30
0.0
 40
27000.0
  1

 72
     1
 11
6688425.713300001
 21
2046000.01
 31
0.0
100
AcDbText
  0
TEXT
  5
1746D
330
240
100
AcDbEntity
  8
A_4
100
AcDbText
 10
6572580.696400001
 20
2046000.01
 30
0.0
 40
27000.0
  1

 72
     1
 11
6572580.696400001
 21
2046000.01
 31
0.0
100
AcDbText
  0
TEXT
  5
1746E
330
240
100
AcDbEntity
  8
A_4
100
AcDbText
 10
6456384.6139
 20
2046000.01
 30
0.0
 40
27000.0
  1

 72
     1
 11
6456384.6139
 21
2046000.01
 31
0.0
100
AcDbText
  0
TEXT
  5
1746F
330
240
100
AcDbEntity
  8
A_4
100
AcDbText
 10
6327738.634400002
 20
2046000.01
 30
0.0
 40
27000.0
  1

 72
     1
 11
6327738.634400002
 21
2046000.01
 31
0.0
100
AcDbText
  0
TEXT
  5
17470
330
240
100
AcDbEntity
  8
A_4
100
AcDbText
 10
6211518.407100002
 20
2046000.01
 30
0.0
 40
27000.0
  1

 72
     1
 11
6211518.407100002
 21
2046000.01
 31
0.0
100
AcDbText
  0
TEXT
  5
17471
330
240
100
AcDbEntity
  8
A_4
100
AcDbText
 10
6094372.3241
 20
2046000.01
 30
0.0
 40
27000.0
  1

 72
     1
 11
6094372.3241
 21
2046000.01
 31
0.0
100
AcDbText
  0
TEXT
  5
17472
330
240
100
AcDbEntity
  8
A_4
100
AcDbText
 10
5976281.045599997
 20
2046000.01
 30
0.0
 40
27000.0
  1

 72
     1
 11
5976281.045599997
 21
2046000.01
 31
0.0
100
AcDbText
  0
TEXT
  5
17473
330
240
100
AcDbEntity
  8
A_4
100
AcDbText
 10
5857237.065499997
 20
2046000.01
 30
0.0
 40
27000.0
  1

 72
     1
 11
5857237.065499997
 21
2046000.01
 31
0.0
100
AcDbText
  0
TEXT
  5
17474
330
240
100
AcDbEntity
  8
A_4
100
AcDbText
 10
2063962.2843
 20
2046000.01
 30
0.0
 40
27000.0
  1

 72
     1
 11
2063962.2843
 21
2046000.01
 31
0.0
100
AcDbText
  0
TEXT
  5
17475
330
240
100
AcDbEntity
  8
A_4
100
AcDbText
 10
1936807.104499998
 20
2046000.01
 30
0.0
 40
27000.0
  1

 72
     1
 11
1936807.104499998
 21
2046000.01
 31
0.0
100
AcDbText
  0
TEXT
  5
17476
330
240
100
AcDbEntity
  8
A_4
100
AcDbText
 10
6802600.923200001
 20
2188000.009999999
 30
0.0
 40
27000.0
  1

 72
     1
 11
6802600.923200001
 21
2188000.009999999
 31
0.0
100
AcDbText
  0
TEXT
  5
17477
330
240
100
AcDbEntity
  8
A_4
100
AcDbText
 10
6796752.744499997
 20
2188000.009999999
 30
0.0
 40
27000.0
  1

 72
     1
 11
6796752.744499997
 21
2188000.009999999
 31
0.0
100
AcDbText
  0
TEXT
  5
17478
330
240
100
AcDbEntity
  8
A_4
100
AcDbText
 10
6802600.923200001
 20
2288000.009999997
 30
0.0
 40
27000.0
  1

 72
     1
 11
6802600.923200001
 21
2288000.009999997
 31
0.0
100
AcDbText
  0
TEXT
  5
17479
330
240
100
AcDbEntity
  8
A_4
100
AcDbText
 10
6802600.923200001
 20
1320000.01
 30
0.0
 40
27000.0
  1

 72
     1
 11
6802600.923200001
 21
1320000.01
 31
0.0
100
AcDbText
  0
TEXT
  5
1747A
330
240
100
AcDbEntity
  8
A_4
100
AcDbText
 10
6796752.744499997
 20
1320000.01
 30
0.0
 40
27000.0
  1

 72
     1
 11
6796752.744499997
 21
1320000.01
 31
0.0
100
AcDbText
  0
TEXT
  5
1747B
330
240
100
AcDbEntity
  8
A_4
100
AcDbText
 10
1929249.7947
 20
1278000.009999999
 30
0.0
 40
27000.0
  1

 72
     1
 11
1929249.7947
 21
1278000.009999999
 31
0.0
100
AcDbText
  0
TEXT
  5
1747C
330
240
100
AcDbEntity
  8
A_4
100
AcDbText
 10
2148687.8622
 20
1518000.009999999
 30
0.0
 40
27000.0
  1

 72
     1
 11
2148687.8622
 21
1518000.009999999
 31
0.0
100
AcDbText
  0
TEXT
  5
1747D
330
240
100
AcDbEntity
  8
A_4
100
AcDbText
 10
6869847.308399998
 20
3304853.197599998
 30
0.0
 40
27000.0
  1

 50
24.52472999999999
 72
     1
 11
6869847.308399998
 21
3304853.197599998
 31
0.0
100
AcDbText
  0
TEXT
  5
1747E
330
240
100
AcDbEntity
  8
A_4
100
AcDbText
 10
6935092.394600001
 20
3500004.442099998
 30
0.0
 40
27000.0
  1

 50
25.377232
 72
     1
 11
6935092.394600001
 21
3500004.442099998
 31
0.0
100
AcDbText
  0
TEXT
  5
1747F
330
240
100
AcDbEntity
  8
A_4
100
AcDbText
 10
6640572.0046
 20
4376607.000199999
 30
0.0
 40
27000.0
  1

 50
26.033815
 72
     1
 11
6640572.0046
 21
4376607.000199999
 31
0.0
100
AcDbText
  0
TEXT
  5
17480
330
240
100
AcDbEntity
  8
A_4
100
AcDbText
 10
6596681.8521
 20
4466460.517199998
 30
0.0
 40
27000.0
  1

 50
26.033815
 72
     1
 11
6596681.8521
 21
4466460.517199998
 31
0.0
100
AcDbText
  0
TEXT
  5
17481
330
240
100
AcDbEntity
  8
A_4
100
AcDbText
 10
7090446.067800002
 20
3455608.4512
 30
0.0
 40
27000.0
  1

 50
26.033815
 72
     1
 11
7090446.067800002
 21
3455608.4512
 31
0.0
100
AcDbText
  0
TEXT
  5
17482
330
240
100
AcDbEntity
  8
A_4
100
AcDbText
 10
7134336.220399997
 20
3365754.934299997
 30
0.0
 40
27000.0
  1

 50
26.033815
 72
     1
 11
7134336.220399997
 21
3365754.934299997
 31
0.0
100
AcDbText
  0
TEXT
  5
17483
330
240
100
AcDbEntity
  8
A_4
100
AcDbText
 10
6646228.096200002
 20
4379371.964699998
 30
0.0
 40
27000.0
  1

 50
26.069279
 72
     1
 11
6646228.096200002
 21
4379371.964699998
 31
0.0
100
AcDbText
  0
TEXT
  5
17484
330
240
100
AcDbEntity
  8
A_4
100
AcDbText
 10
6602282.3368
 20
4469198.298500002
 30
0.0
 40
27000.0
  1

 50
26.069279
 72
     1
 11
6602282.3368
 21
4469198.298500002
 31
0.0
100
AcDbText
  0
TEXT
  5
17485
330
240
100
AcDbEntity
  8
A_4
100
AcDbText
 10
6558336.577400001
 20
4559024.632199998
 30
0.0
 40
27000.0
  1

 50
26.069279
 72
     1
 11
6558336.577400001
 21
4559024.632199998
 31
0.0
100
AcDbText
  0
TEXT
  5
17486
330
240
100
AcDbEntity
  8
A_4
100
AcDbText
 10
7096672.13
 20
3458652.043999998
 30
0.0
 40
27000.0
  1

 50
26.069279
 72
     1
 11
7096672.13
 21
3458652.043999998
 31
0.0
100
AcDbText
  0
TEXT
  5
17487
330
240
100
AcDbEntity
  8
A_4
100
AcDbText
 10
7140617.889400001
 20
3368825.710299998
 30
0.0
 40
27000.0
  1

 50
26.069279
 72
     1
 11
7140617.889400001
 21
3368825.710299998
 31
0.0
100
AcDbText
  0
TEXT
  5
17488
330
240
100
AcDbEntity
  8
A_4
100
AcDbText
 10
1694897.313899999
 20
1666200.01
 30
0.0
 40
27000.0
  1

 50
90.0
 72
     1
 11
1694897.313899999
 21
1666200.01
 31
0.0
100
AcDbText
  0
TEXT
  5
17489
330
240
100
AcDbEntity
  8
A_4
100
AcDbText
 10
7107092.7997
 20
1836200.009999999
 30
0.0
 40
27000.0
  1

 50
90.0
 72
     1
 11
7107092.7997
 21
1836200.009999999
 31
0.0
100
AcDbText
  0
TEXT
  5
1748A
330
240
100
AcDbEntity
  8
A_4
100
AcDbText
 10
7018231.163500002
 20
1836200.009999999
 30
0.0
 40
27000.0
  1

 50
90.0
 72
     1
 11
7018231.163500002
 21
1836200.009999999
 31
0.0
100
AcDbText
  0
TEXT
  5
1748B
330
240
100
AcDbEntity
  8
A_4
100
AcDbText
 10
7018231.163500002
 20
1810200.01
 30
0.0
 40
27000.0
  1

 50
90.0
 72
     1
 11
7018231.163500002
 21
1810200.01
 31
0.0
100
AcDbText
  0
TEXT
  5
1748C
330
240
100
AcDbEntity
  8
A_4
100
AcDbText
 10
1680540.5357
 20
3343243.256899997
 30
0.0
 40
27000.0
  1

 50
333.2760069999999
 72
     1
 11
1680540.5357
 21
3343243.256899997
 31
0.0
100
AcDbText
  0
TEXT
  5
1748D
330
240
100
AcDbEntity
  8
A_4
100
AcDbText
 10
2017877.0932
 20
3186668.345199997
 30
0.0
 40
27000.0
  1

 50
336.927208
 72
     1
 11
2017877.0932
 21
3186668.345199997
 31
0.0
100
AcDbText
  0
TEXT
  5
1748E
330
240
100
AcDbEntity
  8
A_4
100
AcDbText
 10
3664078.9569
 20
3274945.5837
 30
0.0
 40
27000.0
  1

 50
353.077004
 72
     1
 11
3664078.9569
 21
3274945.5837
 31
0.0
100
AcDbText
  0
TEXT
  5
1748F
330
240
100
AcDbEntity
  8
A_5
100
AcDbText
 10
3194261.5117
 20
1611000.009999998
 30
0.0
 40
40000.0
  1

 72
     1
 11
3194261.5117
 21
1611000.009999998
 31
0.0
100
AcDbText
  0
TEXT
  5
17490
330
240
100
AcDbEntity
  8
A_7
100
AcDbText
 10
6900406.342700001
 20
4117516.235299998
 30
0.0
 40
27000.0
  1

 50
129.648355
 72
     1
 11
6900406.342700001
 21
4117516.235299998
 31
0.0
100
AcDbText
  0
TEXT
  5
17491
330
240
100
AcDbEntity
  8
A_7
100
AcDbText
 10
7122752.518700001
 20
3848956.2882
 30
0.0
 40
27000.0
  1

 50
129.9977979999999
 72
     1
 11
7122752.518700001
 21
3848956.2882
 31
0.0
100
AcDbText
  0
ARC
  5
17C08
330
240
100
AcDbEntity
  8
A_2
  6
CONTINUOUS
100
AcDbCircle
 10
3732.688005799012
 20
8451.0000065561
 30
0.0
 40
50.00000000000452
100
AcDbArc
 50
0.0
 51
90.0
  0
ARC
  5
17C0C
330
240
100
AcDbEntity
  8
A_2
  6
CONTINUOUS
100
AcDbCircle
 10
4052.688005799016
 20
8451.0000065561
 30
0.0
 40
50.0
100
AcDbArc
 50
90.0
 51
180.0
  0
LINE
  5
17C0D
330
240
100
AcDbEntity
  8
A_2
100
AcDbLine
 10
3782.688005799016
 20
7101.000006556096
 30
0.0
 11
4002.688005799016
 21
7101.000006556096
 31
0.0
  0
LINE
  5
17C0E
330
240
100
AcDbEntity
  8
A_2
100
AcDbLine
 10
4002.688005799016
 20
7101.000006556096
 30
0.0
 11
4002.688005799016
 21
8451.0000065561
 31
0.0
  0
LINE
  5
17C10
330
240
100
AcDbEntity
  8
A_2
100
AcDbLine
 10
3782.688005799016
 20
8451.0000065561
 30
0.0
 11
3782.688005799016
 21
7101.000006556096
 31
0.0
  0
TEXT
  5
17F08
330
240
100
AcDbEntity
  8
CS-DIML
 62
     3
100
AcDbText
 10
19124.70126712958
 20
13119.37231790557
 30
0.0
 40
62.653192
  1

 72
     1
 11
19124.70126712958
 21
13119.37231790557
 31
0.0
100
AcDbText
  0
TEXT
  5
17F0B
330
240
100
AcDbEntity
  8
CS-DIML
 62
     3
100
AcDbText
 10
19004.70126712958
 20
13119.37231790557
 30
0.0
 40
62.653192
  1

 72
     1
 11
19004.70126712958
 21
13119.37231790557
 31
0.0
100
AcDbText
  0
TEXT
  5
17F13
330
240
100
AcDbEntity
  8
A_6
100
AcDbText
 10
12216.02856052758
 20
10040.0000064561
 30
0.0
 40
108.0
  1
  <3>
 72
     1
 11
13009.99998909901
 21
10040.0000064561
 31
0.0
100
AcDbText
  0
LINE
  5
17F73
330
240
100
AcDbEntity
  8
A_1
100
AcDbLine
 10
3682.499989299012
 20
3191.000006556102
 30
0.0
 11
3937.499989299016
 21
3191.000006556102
 31
0.0
  0
LWPOLYLINE
  5
17F75
330
240
100
AcDbEntity
  8
A_1
100
AcDbPolyline
 90
        2
 70
     1
 43
12.5
 10
3688.749989299008
 20
3191.000006556102
 42
1.0
 10
3676.249989299013
 20
3191.000006556102
 42
1.0
  0
LWPOLYLINE
  5
17F76
330
240
100
AcDbEntity
  8
A_1
100
AcDbPolyline
 90
        2
 70
     1
 43
12.5
 10
3773.749989299008
 20
3191.000006556102
 42
1.0
 10
3761.249989299013
 20
3191.000006556102
 42
1.0
  0
LWPOLYLINE
  5
17F78
330
240
100
AcDbEntity
  8
A_1
100
AcDbPolyline
 90
        2
 70
     1
 43
12.5
 10
3943.749989299002
 20
3191.000006556102
 42
1.0
 10
3931.249989299011
 20
3191.000006556102
 42
1.0
  0
LWPOLYLINE
  5
17F79
330
240
100
AcDbEntity
  8
A_1
100
AcDbPolyline
 90
        2
 70
     1
 43
12.5
 10
3858.749989299008
 20
3191.000006556102
 42
1.0
 10
3846.249989299013
 20
3191.000006556102
 42
1.0
  0
LINE
  5
17F7A
330
240
100
AcDbEntity
  8
A_1
100
AcDbLine
 10
3682.499989299012
 20
3291.0000065561
 30
0.0
 11
3937.499989299016
 21
3291.0000065561
 31
0.0
  0
LINE
  5
17F7B
330
240
100
AcDbEntity
  8
A_1
100
AcDbLine
 10
3682.499989299012
 20
3291.0000065561
 30
0.0
 11
3937.499989299016
 21
3291.0000065561
 31
0.0
  0
LWPOLYLINE
  5
17F7C
330
240
100
AcDbEntity
  8
A_1
100
AcDbPolyline
 90
        2
 70
     1
 43
12.5
 10
3773.749989299011
 20
3291.0000065561
 42
1.0
 10
3761.249989299016
 20
3291.0000065561
 42
1.0
  0
LWPOLYLINE
  5
17F7D
330
240
100
AcDbEntity
  8
A_1
100
AcDbPolyline
 90
        2
 70
     1
 43
12.5
 10
3688.749989299012
 20
3291.0000065561
 42
1.0
 10
3676.249989299017
 20
3291.0000065561
 42
1.0
  0
LWPOLYLINE
  5
17F7F
330
240
100
AcDbEntity
  8
A_1
100
AcDbPolyline
 90
        2
 70
     1
 43
12.5
 10
3858.749989299012
 20
3291.0000065561
 42
1.0
 10
3846.249989299016
 20
3291.0000065561
 42
1.0
  0
LWPOLYLINE
  5
17F80
330
240
100
AcDbEntity
  8
A_1
100
AcDbPolyline
 90
        2
 70
     1
 43
12.5
 10
3943.749989299006
 20
3291.0000065561
 42
1.0
 10
3931.249989299017
 20
3291.0000065561
 42
1.0
  0
LINE
  5
17F82
330
240
100
AcDbEntity
  8
A_1
100
AcDbLine
 10
3682.499989299012
 20
3491.000006556096
 30
0.0
 11
3937.499989299016
 21
3491.000006556096
 31
0.0
  0
LINE
  5
17F83
330
240
100
AcDbEntity
  8
A_1
100
AcDbLine
 10
3682.499989299012
 20
3491.000006556096
 30
0.0
 11
3937.499989299016
 21
3491.000006556096
 31
0.0
  0
LINE
  5
17F84
330
240
100
AcDbEntity
  8
A_1
100
AcDbLine
 10
3682.499989299012
 20
3391.0000065561
 30
0.0
 11
3937.499989299016
 21
3391.000006556099
 31
0.0
  0
LINE
  5
17F85
330
240
100
AcDbEntity
  8
A_1
100
AcDbLine
 10
3682.499989299012
 20
3391.0000065561
 30
0.0
 11
3937.499989299016
 21
3391.0000065561
 31
0.0
  0
LINE
  5
17F86
330
240
100
AcDbEntity
  8
A_1
100
AcDbLine
 10
3682.499989299012
 20
3491.000006556096
 30
0.0
 11
3937.499989299016
 21
3491.000006556096
 31
0.0
  0
LWPOLYLINE
  5
17F88
330
240
100
AcDbEntity
  8
A_1
100
AcDbPolyline
 90
        2
 70
     1
 43
12.5
 10
3688.749989299012
 20
3491.000006556096
 42
1.0
 10
3676.249989299017
 20
3491.000006556096
 42
1.0
  0
LWPOLYLINE
  5
17F89
330
240
100
AcDbEntity
  8
A_1
100
AcDbPolyline
 90
        2
 70
     1
 43
12.5
 10
3773.749989299011
 20
3491.000006556096
 42
1.0
 10
3761.249989299016
 20
3491.000006556096
 42
1.0
  0
LWPOLYLINE
  5
17F8A
330
240
100
AcDbEntity
  8
A_1
100
AcDbPolyline
 90
        2
 70
     1
 43
12.5
 10
3773.749989299008
 20
3391.0000065561
 42
1.0
 10
3761.249989299013
 20
3391.0000065561
 42
1.0
  0
LWPOLYLINE
  5
17F8B
330
240
100
AcDbEntity
  8
A_1
100
AcDbPolyline
 90
        2
 70
     1
 43
12.5
 10
3688.749989299008
 20
3391.0000065561
 42
1.0
 10
3676.249989299013
 20
3391.0000065561
 42
1.0
  0
LWPOLYLINE
  5
17F8E
330
240
100
AcDbEntity
  8
A_1
100
AcDbPolyline
 90
        2
 70
     1
 43
12.5
 10
3943.749989299006
 20
3491.000006556096
 42
1.0
 10
3931.249989299017
 20
3491.000006556096
 42
1.0
  0
LWPOLYLINE
  5
17F8F
330
240
100
AcDbEntity
  8
A_1
100
AcDbPolyline
 90
        2
 70
     1
 43
12.5
 10
3858.749989299012
 20
3491.000006556096
 42
1.0
 10
3846.249989299016
 20
3491.000006556096
 42
1.0
  0
LWPOLYLINE
  5
17F90
330
240
100
AcDbEntity
  8
A_1
100
AcDbPolyline
 90
        2
 70
     1
 43
12.5
 10
3858.749989299008
 20
3391.0000065561
 42
1.0
 10
3846.249989299013
 20
3391.0000065561
 42
1.0
  0
LWPOLYLINE
  5
17F91
330
240
100
AcDbEntity
  8
A_1
100
AcDbPolyline
 90
        2
 70
     1
 43
12.5
 10
3943.749989299002
 20
3391.0000065561
 42
1.0
 10
3931.249989299011
 20
3391.0000065561
 42
1.0
  0
LINE
  5
17F93
330
240
100
AcDbEntity
  8
A_1
100
AcDbLine
 10
3682.499989299012
 20
3691.0000065561
 30
0.0
 11
3937.499989299016
 21
3691.0000065561
 31
0.0
  0
LINE
  5
17F94
330
240
100
AcDbEntity
  8
A_1
100
AcDbLine
 10
3682.499989299012
 20
3691.0000065561
 30
0.0
 11
3937.499989299016
 21
3691.000006556099
 31
0.0
  0
LINE
  5
17F95
330
240
100
AcDbEntity
  8
A_1
100
AcDbLine
 10
3682.499989299012
 20
3591.000006556101
 30
0.0
 11
3937.499989299016
 21
3591.000006556102
 31
0.0
  0
LINE
  5
17F96
330
240
100
AcDbEntity
  8
A_1
100
AcDbLine
 10
3682.499989299012
 20
3591.000006556101
 30
0.0
 11
3937.499989299016
 21
3591.000006556102
 31
0.0
  0
LINE
  5
17F97
330
240
100
AcDbEntity
  8
A_1
100
AcDbLine
 10
3682.499989299012
 20
3691.0000065561
 30
0.0
 11
3937.499989299016
 21
3691.000006556099
 31
0.0
  0
LWPOLYLINE
  5
17F99
330
240
100
AcDbEntity
  8
A_1
100
AcDbPolyline
 90
        2
 70
     1
 43
12.5
 10
3688.749989299012
 20
3691.0000065561
 42
1.0
 10
3676.249989299017
 20
3691.0000065561
 42
1.0
  0
LWPOLYLINE
  5
17F9A
330
240
100
AcDbEntity
  8
A_1
100
AcDbPolyline
 90
        2
 70
     1
 43
12.5
 10
3773.749989299011
 20
3691.0000065561
 42
1.0
 10
3761.249989299016
 20
3691.0000065561
 42
1.0
  0
LWPOLYLINE
  5
17F9B
330
240
100
AcDbEntity
  8
A_1
100
AcDbPolyline
 90
        2
 70
     1
 43
12.5
 10
3773.749989299008
 20
3591.000006556102
 42
1.0
 10
3761.249989299013
 20
3591.000006556102
 42
1.0
  0
LWPOLYLINE
  5
17F9C
330
240
100
AcDbEntity
  8
A_1
100
AcDbPolyline
 90
        2
 70
     1
 43
12.5
 10
3688.749989299008
 20
3591.000006556102
 42
1.0
 10
3676.249989299013
 20
3591.000006556102
 42
1.0
  0
LWPOLYLINE
  5
17F9F
330
240
100
AcDbEntity
  8
A_1
100
AcDbPolyline
 90
        2
 70
     1
 43
12.5
 10
3943.749989299006
 20
3691.0000065561
 42
1.0
 10
3931.249989299017
 20
3691.0000065561
 42
1.0
  0
LWPOLYLINE
  5
17FA0
330
240
100
AcDbEntity
  8
A_1
100
AcDbPolyline
 90
        2
 70
     1
 43
12.5
 10
3858.749989299012
 20
3691.0000065561
 42
1.0
 10
3846.249989299016
 20
3691.0000065561
 42
1.0
  0
LWPOLYLINE
  5
17FA1
330
240
100
AcDbEntity
  8
A_1
100
AcDbPolyline
 90
        2
 70
     1
 43
12.5
 10
3858.749989299008
 20
3591.000006556102
 42
1.0
 10
3846.249989299013
 20
3591.000006556102
 42
1.0
  0
LWPOLYLINE
  5
17FA2
330
240
100
AcDbEntity
  8
A_1
100
AcDbPolyline
 90
        2
 70
     1
 43
12.5
 10
3943.749989299002
 20
3591.000006556102
 42
1.0
 10
3931.249989299011
 20
3591.000006556102
 42
1.0
  0
LINE
  5
17FA4
330
240
100
AcDbEntity
  8
A_1
100
AcDbLine
 10
3682.499989299012
 20
3891.00000655609
 30
0.0
 11
3937.499989299016
 21
3891.00000655609
 31
0.0
  0
LINE
  5
17FA5
330
240
100
AcDbEntity
  8
A_1
100
AcDbLine
 10
3682.499989299012
 20
3891.00000655609
 30
0.0
 11
3937.499989299016
 21
3891.00000655609
 31
0.0
  0
LINE
  5
17FA6
330
240
100
AcDbEntity
  8
A_1
100
AcDbLine
 10
3682.499989299012
 20
3791.000006556091
 30
0.0
 11
3937.499989299016
 21
3791.000006556091
 31
0.0
  0
LINE
  5
17FA7
330
240
100
AcDbEntity
  8
A_1
100
AcDbLine
 10
3682.499989299012
 20
3791.000006556091
 30
0.0
 11
3937.499989299016
 21
3791.000006556092
 31
0.0
  0
LINE
  5
17FA8
330
240
100
AcDbEntity
  8
A_1
100
AcDbLine
 10
3682.499989299012
 20
3891.00000655609
 30
0.0
 11
3937.499989299016
 21
3891.000006556089
 31
0.0
  0
LWPOLYLINE
  5
17FAA
330
240
100
AcDbEntity
  8
A_1
100
AcDbPolyline
 90
        2
 70
     1
 43
12.5
 10
3688.749989299012
 20
3891.00000655609
 42
1.0
 10
3676.249989299017
 20
3891.00000655609
 42
1.0
  0
LWPOLYLINE
  5
17FAB
330
240
100
AcDbEntity
  8
A_1
100
AcDbPolyline
 90
        2
 70
     1
 43
12.5
 10
3773.749989299011
 20
3891.00000655609
 42
1.0
 10
3761.249989299016
 20
3891.00000655609
 42
1.0
  0
LWPOLYLINE
  5
17FAC
330
240
100
AcDbEntity
  8
A_1
100
AcDbPolyline
 90
        2
 70
     1
 43
12.5
 10
3773.749989299008
 20
3791.000006556092
 42
1.0
 10
3761.249989299013
 20
3791.000006556092
 42
1.0
  0
LWPOLYLINE
  5
17FAD
330
240
100
AcDbEntity
  8
A_1
100
AcDbPolyline
 90
        2
 70
     1
 43
12.5
 10
3688.749989299008
 20
3791.000006556092
 42
1.0
 10
3676.249989299013
 20
3791.000006556092
 42
1.0
  0
LWPOLYLINE
  5
17FB0
330
240
100
AcDbEntity
  8
A_1
100
AcDbPolyline
 90
        2
 70
     1
 43
12.5
 10
3943.749989299006
 20
3891.00000655609
 42
1.0
 10
3931.249989299017
 20
3891.00000655609
 42
1.0
  0
LWPOLYLINE
  5
17FB1
330
240
100
AcDbEntity
  8
A_1
100
AcDbPolyline
 90
        2
 70
     1
 43
12.5
 10
3858.749989299012
 20
3891.00000655609
 42
1.0
 10
3846.249989299016
 20
3891.00000655609
 42
1.0
  0
LWPOLYLINE
  5
17FB2
330
240
100
AcDbEntity
  8
A_1
100
AcDbPolyline
 90
        2
 70
     1
 43
12.5
 10
3858.749989299008
 20
3791.000006556092
 42
1.0
 10
3846.249989299013
 20
3791.000006556092
 42
1.0
  0
LWPOLYLINE
  5
17FB3
330
240
100
AcDbEntity
  8
A_1
100
AcDbPolyline
 90
        2
 70
     1
 43
12.5
 10
3943.749989299002
 20
3791.000006556092
 42
1.0
 10
3931.249989299011
 20
3791.000006556092
 42
1.0
  0
LINE
  5
17FB5
330
240
100
AcDbEntity
  8
A_1
100
AcDbLine
 10
3682.499989299012
 20
4091.00000655609
 30
0.0
 11
3937.499989299016
 21
4091.000006556089
 31
0.0
  0
LINE
  5
17FB6
330
240
100
AcDbEntity
  8
A_1
100
AcDbLine
 10
3682.499989299012
 20
4091.00000655609
 30
0.0
 11
3937.499989299016
 21
4091.00000655609
 31
0.0
  0
LINE
  5
17FB7
330
240
100
AcDbEntity
  8
A_1
100
AcDbLine
 10
3682.499989299012
 20
3991.000006556092
 30
0.0
 11
3937.499989299016
 21
3991.000006556092
 31
0.0
  0
LINE
  5
17FB8
330
240
100
AcDbEntity
  8
A_1
100
AcDbLine
 10
3682.499989299012
 20
3991.00000655609
 30
0.0
 11
3937.499989299016
 21
3991.00000655609
 31
0.0
  0
LINE
  5
17FB9
330
240
100
AcDbEntity
  8
A_1
100
AcDbLine
 10
3682.499989299012
 20
4091.00000655609
 30
0.0
 11
3937.499989299016
 21
4091.000006556089
 31
0.0
  0
LWPOLYLINE
  5
17FBB
330
240
100
AcDbEntity
  8
A_1
100
AcDbPolyline
 90
        2
 70
     1
 43
12.5
 10
3688.749989299012
 20
4091.00000655609
 42
1.0
 10
3676.249989299017
 20
4091.00000655609
 42
1.0
  0
LWPOLYLINE
  5
17FBC
330
240
100
AcDbEntity
  8
A_1
100
AcDbPolyline
 90
        2
 70
     1
 43
12.5
 10
3773.749989299011
 20
4091.00000655609
 42
1.0
 10
3761.249989299016
 20
4091.00000655609
 42
1.0
  0
LWPOLYLINE
  5
17FBD
330
240
100
AcDbEntity
  8
A_1
100
AcDbPolyline
 90
        2
 70
     1
 43
12.5
 10
3773.749989299008
 20
3991.000006556092
 42
1.0
 10
3761.249989299013
 20
3991.000006556092
 42
1.0
  0
LWPOLYLINE
  5
17FBE
330
240
100
AcDbEntity
  8
A_1
100
AcDbPolyline
 90
        2
 70
     1
 43
12.5
 10
3688.749989299008
 20
3991.000006556092
 42
1.0
 10
3676.249989299013
 20
3991.000006556092
 42
1.0
  0
LWPOLYLINE
  5
17FC1
330
240
100
AcDbEntity
  8
A_1
100
AcDbPolyline
 90
        2
 70
     1
 43
12.5
 10
3943.749989299006
 20
4091.00000655609
 42
1.0
 10
3931.249989299017
 20
4091.00000655609
 42
1.0
  0
LWPOLYLINE
  5
17FC2
330
240
100
AcDbEntity
  8
A_1
100
AcDbPolyline
 90
        2
 70
     1
 43
12.5
 10
3858.749989299012
 20
4091.00000655609
 42
1.0
 10
3846.249989299016
 20
4091.00000655609
 42
1.0
  0
LWPOLYLINE
  5
17FC3
330
240
100
AcDbEntity
  8
A_1
100
AcDbPolyline
 90
        2
 70
     1
 43
12.5
 10
3858.749989299008
 20
3991.000006556092
 42
1.0
 10
3846.249989299013
 20
3991.000006556092
 42
1.0
  0
LWPOLYLINE
  5
17FC4
330
240
100
AcDbEntity
  8
A_1
100
AcDbPolyline
 90
        2
 70
     1
 43
12.5
 10
3943.749989299002
 20
3991.000006556092
 42
1.0
 10
3931.249989299011
 20
3991.000006556092
 42
1.0
  0
LINE
  5
17FC6
330
240
100
AcDbEntity
  8
A_1
100
AcDbLine
 10
3682.499989299012
 20
4191.000006556087
 30
0.0
 11
3937.499989299016
 21
4191.000006556087
 31
0.0
  0
LINE
  5
17FC7
330
240
100
AcDbEntity
  8
A_1
100
AcDbLine
 10
3682.499989299012
 20
4191.000006556087
 30
0.0
 11
3937.499989299016
 21
4191.000006556087
 31
0.0
  0
LINE
  5
17FC8
330
240
100
AcDbEntity
  8
A_1
100
AcDbLine
 10
3682.499989299012
 20
4191.000006556087
 30
0.0
 11
3937.499989299016
 21
4191.000006556087
 31
0.0
  0
LINE
  5
17FC9
330
240
100
AcDbEntity
  8
A_1
100
AcDbLine
 10
3682.499989299012
 20
4191.000006556096
 30
0.0
 11
3937.499989299016
 21
4191.000006556094
 31
0.0
  0
LWPOLYLINE
  5
17FCA
330
240
100
AcDbEntity
  8
A_1
100
AcDbPolyline
 90
        2
 70
     1
 43
12.5
 10
3773.749989299005
 20
4191.000006556087
 42
1.0
 10
3761.249989299011
 20
4191.000006556087
 42
1.0
  0
LWPOLYLINE
  5
17FCB
330
240
100
AcDbEntity
  8
A_1
100
AcDbPolyline
 90
        2
 70
     1
 43
12.5
 10
3688.749989299007
 20
4191.000006556087
 42
1.0
 10
3676.249989299012
 20
4191.000006556087
 42
1.0
  0
LWPOLYLINE
  5
17FCD
330
240
100
AcDbEntity
  8
A_1
100
AcDbPolyline
 90
        2
 70
     1
 43
12.5
 10
3858.749989299006
 20
4191.000006556087
 42
1.0
 10
3846.249989299011
 20
4191.000006556087
 42
1.0
  0
LWPOLYLINE
  5
17FCE
330
240
100
AcDbEntity
  8
A_1
100
AcDbPolyline
 90
        2
 70
     1
 43
12.5
 10
3943.749989299001
 20
4191.000006556087
 42
1.0
 10
3931.249989299011
 20
4191.000006556087
 42
1.0
  0
ENDSEC
  0
SECTION
  2
OBJECTS
  0
DICTIONARY
  5
12231
330
0
100
AcDbDictionary
  3
ACAD_COLOR
350
17BAA
  3
ACAD_GROUP
350
12232
  3
ACAD_LAYOUT
350
1223D
  3
ACAD_MATERIAL
350
17BA9
  3
ACAD_MLINESTYLE
350
12233
  3
ACAD_PLOTSETTINGS
350
1223E
  3
ACAD_PLOTSTYLENAME
350
1223B
  3
ACDBHEADERROUNDTRIPXREC
350
18055
  3
ACDBVARIABLEDICTIONARY
350
17B47
  3
DIMOPTIONS
350
17B66
  3
XRECLIST
350
17B64
  0
DICTIONARY
  5
15CFE
330
117
100
AcDbDictionary
280
     1
  3
ACAD_LAYERFILTERS
360
15CFF
  0
DICTIONARY
  5
17B33
330
240
100
AcDbDictionary
280
     1
  3
ACAD_LAYOUTSELFREF
360
18076
  0
DICTIONARY
  5
17B35
330
241
100
AcDbDictionary
280
     1
  3
ACAD_LAYOUTSELFREF
360
18077
  0
DICTIONARY
  5
17BAA
102
{ACAD_REACTORS
330
12231
102
}
330
12231
100
AcDbDictionary
  0
DICTIONARY
  5
12232
102
{ACAD_REACTORS
330
12231
102
}
330
12231
100
AcDbDictionary
  0
DICTIONARY
  5
1223D
102
{ACAD_REACTORS
330
12231
102
}
330
12231
100
AcDbDictionary
  0
DICTIONARY
  5
17BA9
102
{ACAD_REACTORS
330
12231
102
}
330
12231
100
AcDbDictionary
  0
DICTIONARY
  5
12233
102
{ACAD_REACTORS
330
12231
102
}
330
12231
100
AcDbDictionary
  3
STANDARD
350
12234
  0
DICTIONARY
  5
1223E
102
{ACAD_REACTORS
330
12231
102
}
330
12231
100
AcDbDictionary
  0
ACDBDICTIONARYWDFLT
  5
1223B
102
{ACAD_REACTORS
330
12231
102
}
330
12231
100
AcDbDictionary
281
     1
  3
Normal
350
1223C
100
AcDbDictionaryWithDefault
340
1223C
  0
DICTIONARY
  5
18055
102
{ACAD_REACTORS
330
12231
102
}
330
12231
100
AcDbDictionary
  3
CEPSNTYPE
350
1805F
  3
DIMSTYLEDATA
350
18063
  3
FINGERPRINTGUID
350
18060
  3
HYPERLINKBASE
350
18058
  3
INSUNITS
350
1805E
  3
LAYOUTDICT
350
1805A
  3
LWETCUNION
350
1805D
  3
PLOTSETDICT
350
1805B
  3
PLOTSTYLNAMDICT
350
1805C
  3
PSVPSCALE
350
18062
  3
PUCSBASE
350
18066
  3
PUCSORGBACK
350
1806C
  3
PUCSORGBOTTOM
350
18068
  3
PUCSORGFRONT
350
1806B
  3
PUCSORGLEFT
350
18069
  3
PUCSORGRIGHT
350
1806A
  3
PUCSORGTOP
350
18067
  3
PUCSORTHOREF
350
18064
  3
PUCSORTHOVIEW
350
18065
  3
STYLESHEET
350
18059
  3
TSTACKALIGN
350
18056
  3
TSTACKSIZE
350
18057
  3
UCSBASE
350
1806F
  3
UCSORGBACK
350
18075
  3
UCSORGBOTTOM
350
18071
  3
UCSORGFRONT
350
18074
  3
UCSORGLEFT
350
18072
  3
UCSORGRIGHT
350
18073
  3
UCSORGTOP
350
18070
  3
UCSORTHOREF
350
1806D
  3
UCSORTHOVIEW
350
1806E
  3
VERSIONGUID
350
18061
  0
DICTIONARY
  5
17B47
102
{ACAD_REACTORS
330
12231
102
}
330
12231
100
AcDbDictionary
  3
DIMASSOC
350
17B48
  3
PROJECTNAME
350
17BAD
  0
XRECORD
  5
17B66
102
{ACAD_REACTORS
330
12231
102
}
330
12231
100
AcDbXrecord
  1
DIMSET
 70
     2
 71
     2
 72
     7
  0
XRECORD
  5
17B64
102
{ACAD_REACTORS
330
12231
102
}
330
12231
100
AcDbXrecord
  1
DIMPUT
 10
0.0
 20
0.0
 30
0.0
 11
0.0
 21
0.0
 31
0.0
 50
57.29577951308232
 51
57.29577951308232
 40
15.0
 41
3.0
 42
1.0
 43
1.0
 44
15.0
 45
1.0
 46
1.0
 47
1.0
 48
1.0
 70
     0
 71
     0
 72
     1
 73
     0
 74
     3
 75
     0
 76
     1
 77
     1
 78
     0
  3
Dot
  0
DICTIONARY
  5
15CFF
102
{ACAD_REACTORS
330
15CFE
102
}
330
15CFE
100
AcDbDictionary
280
     1
  3
2
360
15D00
  3
COLOR
360
15D01
  3
DOR-H
360
15D02
  3
FROZEN
360
15D03
  3
KCK
360
15D04
  3
MRKCK
360
15D05
  3

360
15D06
  3

360
15D07
  0
XRECORD
  5
18076
102
{ACAD_REACTORS
330
17B33
102
}
330
17B33
100
AcDbXrecord
340
240
  0
XRECORD
  5
18077
102
{ACAD_REACTORS
330
17B35
102
}
330
17B35
100
AcDbXrecord
340
241
  0
MLINESTYLE
  5
12234
102
{ACAD_REACTORS
330
12233
102
}
330
12233
100
AcDbMlineStyle
  2
STANDARD
 70
     0
  3

 62
   256
 51
90.0
 52
90.0
 71
     2
 49
0.5
 62
   256
  6
BYLAYER
 49
-0.5
 62
   256
  6
BYLAYER
  0
ACDBPLACEHOLDER
  5
1223C
102
{ACAD_REACTORS
330
1223B
102
}
330
1223B
100
AcDbPlaceHolder
280
     0
  0
XRECORD
  5
1805F
102
{ACAD_REACTORS
330
18055
102
}
330
18055
100
AcDbXrecord
 90
        0
  0
XRECORD
  5
18063
102
{ACAD_REACTORS
330
18055
102
}
330
18055
100
AcDbXrecord
1000
DSTYLE
1002
{
1070
   341
340
17B5D
1070
   343
340
17B5D
1070
   344
340
17B5D
1002
}
  0
XRECORD
  5
18060
102
{ACAD_REACTORS
330
18055
102
}
330
18055
100
AcDbXrecord
  1
{025B7FEA-1703-11D6-BE70-00105A818BF8}
  0
XRECORD
  5
18058
102
{ACAD_REACTORS
330
18055
102
}
330
18055
100
AcDbXrecord
  1

  0
XRECORD
  5
1805E
102
{ACAD_REACTORS
330
18055
102
}
330
18055
100
AcDbXrecord
 90
        0
  0
XRECORD
  5
1805A
102
{ACAD_REACTORS
330
18055
102
}
330
18055
100
AcDbXrecord
340
1223D
  0
XRECORD
  5
1805D
102
{ACAD_REACTORS
330
18055
102
}
330
18055
100
AcDbXrecord
 90
    10781
  0
XRECORD
  5
1805B
102
{ACAD_REACTORS
330
18055
102
}
330
18055
100
AcDbXrecord
340
1223E
  0
XRECORD
  5
1805C
102
{ACAD_REACTORS
330
18055
102
}
330
18055
100
AcDbXrecord
340
1223B
  0
XRECORD
  5
18062
102
{ACAD_REACTORS
330
18055
102
}
330
18055
100
AcDbXrecord
 40
0.0
  0
XRECORD
  5
18066
102
{ACAD_REACTORS
330
18055
102
}
330
18055
100
AcDbXrecord
340
0
  0
XRECORD
  5
1806C
102
{ACAD_REACTORS
330
18055
102
}
330
18055
100
AcDbXrecord
 10
0.0
 20
0.0
 30
0.0
  0
XRECORD
  5
18068
102
{ACAD_REACTORS
330
18055
102
}
330
18055
100
AcDbXrecord
 10
0.0
 20
0.0
 30
0.0
  0
XRECORD
  5
1806B
102
{ACAD_REACTORS
330
18055
102
}
330
18055
100
AcDbXrecord
 10
0.0
 20
0.0
 30
0.0
  0
XRECORD
  5
18069
102
{ACAD_REACTORS
330
18055
102
}
330
18055
100
AcDbXrecord
 10
0.0
 20
0.0
 30
0.0
  0
XRECORD
  5
1806A
102
{ACAD_REACTORS
330
18055
102
}
330
18055
100
AcDbXrecord
 10
0.0
 20
0.0
 30
0.0
  0
XRECORD
  5
18067
102
{ACAD_REACTORS
330
18055
102
}
330
18055
100
AcDbXrecord
 10
0.0
 20
0.0
 30
0.0
  0
XRECORD
  5
18064
102
{ACAD_REACTORS
330
18055
102
}
330
18055
100
AcDbXrecord
340
0
  0
XRECORD
  5
18065
102
{ACAD_REACTORS
330
18055
102
}
330
18055
100
AcDbXrecord
 70
     0
  0
XRECORD
  5
18059
102
{ACAD_REACTORS
330
18055
102
}
330
18055
100
AcDbXrecord
  1
A3.CTB
  0
XRECORD
  5
18056
102
{ACAD_REACTORS
330
18055
102
}
330
18055
100
AcDbXrecord
 90
        1
  0
XRECORD
  5
18057
102
{ACAD_REACTORS
330
18055
102
}
330
18055
100
AcDbXrecord
 90
       70
  0
XRECORD
  5
1806F
102
{ACAD_REACTORS
330
18055
102
}
330
18055
100
AcDbXrecord
340
0
  0
XRECORD
  5
18075
102
{ACAD_REACTORS
330
18055
102
}
330
18055
100
AcDbXrecord
 10
0.0
 20
0.0
 30
0.0
  0
XRECORD
  5
18071
102
{ACAD_REACTORS
330
18055
102
}
330
18055
100
AcDbXrecord
 10
0.0
 20
0.0
 30
0.0
  0
XRECORD
  5
18074
102
{ACAD_REACTORS
330
18055
102
}
330
18055
100
AcDbXrecord
 10
0.0
 20
0.0
 30
0.0
  0
XRECORD
  5
18072
102
{ACAD_REACTORS
330
18055
102
}
330
18055
100
AcDbXrecord
 10
0.0
 20
0.0
 30
0.0
  0
XRECORD
  5
18073
102
{ACAD_REACTORS
330
18055
102
}
330
18055
100
AcDbXrecord
 10
0.0
 20
0.0
 30
0.0
  0
XRECORD
  5
18070
102
{ACAD_REACTORS
330
18055
102
}
330
18055
100
AcDbXrecord
 10
0.0
 20
0.0
 30
0.0
  0
XRECORD
  5
1806D
102
{ACAD_REACTORS
330
18055
102
}
330
18055
100
AcDbXrecord
340
0
  0
XRECORD
  5
1806E
102
{ACAD_REACTORS
330
18055
102
}
330
18055
100
AcDbXrecord
 70
     0
  0
XRECORD
  5
18061
102
{ACAD_REACTORS
330
18055
102
}
330
18055
100
AcDbXrecord
  1
{EF5D08D4-EFA2-40DC-85F1-3CF98BC5BED6}
  0
DICTIONARYVAR
  5
17B48
102
{ACAD_REACTORS
330
17B47
102
}
330
17B47
100
DictionaryVariables
280
     0
  1
1
  0
DICTIONARYVAR
  5
17BAD
102
{ACAD_REACTORS
330
17B47
102
}
330
17B47
100
DictionaryVariables
280
     0
  1

  0
XRECORD
  5
15D00
102
{ACAD_REACTORS
330
15CFF
102
}
330
15CFF
100
AcDbXrecord
  1
2
  1
*
  1
2
  1
*
 70
     0
  1
*
  1
*
  0
XRECORD
  5
15D01
102
{ACAD_REACTORS
330
15CFF
102
}
330
15CFF
100
AcDbXrecord
  1
COLOR
  1
*
  1
253
  1
*
 70
     0
  1
*
  1
*
  0
XRECORD
  5
15D02
102
{ACAD_REACTORS
330
15CFF
102
}
330
15CFF
100
AcDbXrecord
  1
DOR-H
  1
*
  1
7
  1
*
 70
     0
  1
*
  1
*
  0
XRECORD
  5
15D03
102
{ACAD_REACTORS
330
15CFF
102
}
330
15CFF
100
AcDbXrecord
  1
FROZEN
  1
*
  1
*
  1
*
 70
     0
  1
*
  1
*
  0
XRECORD
  5
15D04
102
{ACAD_REACTORS
330
15CFF
102
}
330
15CFF
100
AcDbXrecord
  1
kck
  1
*
  1
*
  1
*
 70
     0
  1
*
  1
*
  0
XRECORD
  5
15D05
102
{ACAD_REACTORS
330
15CFF
102
}
330
15CFF
100
AcDbXrecord
  1
MRKCK
  1
*
  1
*
  1
*
 70
     0
  1
*
  1
*
  0
XRECORD
  5
15D06
102
{ACAD_REACTORS
330
15CFF
102
}
330
15CFF
100
AcDbXrecord
  1

  1
BLO,SYM,SYM1,SYM2
  1
*
  1
*
 70
     0
  1
*
  1
*
  0
XRECORD
  5
15D07
102
{ACAD_REACTORS
330
15CFF
102
}
330
15CFF
100
AcDbXrecord
  1

  1
car*
  1
*
  1
*
 70
     0
  1
*
  1
*
  0
ENDSEC
  0
EOF
