  0
SECTION
  2
HEADER
  9
$ACADVER
  1
AC1014
  9
$ACADMAINTVER
 70
     9
  9
$DWGCODEPAGE
  3
ANSI_949
  9
$INSBASE
 10
0.0
 20
0.0
 30
0.0
  9
$EXTMIN
 10
1505.529984931403
 20
1630.269213880296
 30
-0.000000000000013
  9
$EXTMAX
 10
15316.25988368908
 20
10248.67884276138
 30
0.0000000000000023
  9
$LIMMIN
 10
-2100.0
 20
-472.972973
  9
$LIMMAX
 10
81900.0
 20
59902.87923300001
  9
$ORTHOMODE
 70
     1
  9
$REGENMODE
 70
     1
  9
$FILLMODE
 70
     1
  9
$QTEXTMODE
 70
     0
  9
$MIRRTEXT
 70
     1
  9
$DRAGMODE
 70
     2
  9
$LTSCALE
 40
1.0
  9
$OSMODE
 70
    37
  9
$ATTMODE
 70
     1
  9
$TEXTSIZE
 40
0.2
  9
$TRACEWID
 40
0.05
  9
$TEXTSTYLE
  7
STANDARD
  9
$CLAYER
  8
0
  9
$CELTYPE
  6
CONTINUOUS
  9
$CECOLOR
 62
   256
  9
$CELTSCALE
 40
1.0
  9
$DELOBJ
 70
     1
  9
$DISPSILH
 70
     0
  9
$DIMSCALE
 40
1.0
  9
$DIMASZ
 40
0.18
  9
$DIMEXO
 40
0.0625
  9
$DIMDLI
 40
0.38
  9
$DIMRND
 40
0.0
  9
$DIMDLE
 40
0.0
  9
$DIMEXE
 40
0.18
  9
$DIMTP
 40
0.0
  9
$DIMTM
 40
0.0
  9
$DIMTXT
 40
0.18
  9
$DIMCEN
 40
0.09
  9
$DIMTSZ
 40
0.0
  9
$DIMTOL
 70
     0
  9
$DIMLIM
 70
     0
  9
$DIMTIH
 70
     1
  9
$DIMTOH
 70
     1
  9
$DIMSE1
 70
     0
  9
$DIMSE2
 70
     0
  9
$DIMTAD
 70
     0
  9
$DIMZIN
 70
     0
  9
$DIMBLK
  1

  9
$DIMASO
 70
     1
  9
$DIMSHO
 70
     1
  9
$DIMPOST
  1

  9
$DIMAPOST
  1

  9
$DIMALT
 70
     0
  9
$DIMALTD
 70
     2
  9
$DIMALTF
 40
25.4
  9
$DIMLFAC
 40
1.0
  9
$DIMTOFL
 70
     0
  9
$DIMTVP
 40
0.0
  9
$DIMTIX
 70
     0
  9
$DIMSOXD
 70
     0
  9
$DIMSAH
 70
     0
  9
$DIMBLK1
  1

  9
$DIMBLK2
  1

  9
$DIMSTYLE
  2
STANDARD
  9
$DIMCLRD
 70
     0
  9
$DIMCLRE
 70
     0
  9
$DIMCLRT
 70
     0
  9
$DIMTFAC
 40
1.0
  9
$DIMGAP
 40
0.09
  9
$DIMJUST
 70
     0
  9
$DIMSD1
 70
     0
  9
$DIMSD2
 70
     0
  9
$DIMTOLJ
 70
     1
  9
$DIMTZIN
 70
     0
  9
$DIMALTZ
 70
     0
  9
$DIMALTTZ
 70
     0
  9
$DIMFIT
 70
     3
  9
$DIMUPT
 70
     0
  9
$DIMUNIT
 70
     2
  9
$DIMDEC
 70
     4
  9
$DIMTDEC
 70
     4
  9
$DIMALTU
 70
     2
  9
$DIMALTTD
 70
     2
  9
$DIMTXSTY
  7
STANDARD
  9
$DIMAUNIT
 70
     0
  9
$LUNITS
 70
     2
  9
$LUPREC
 70
     4
  9
$SKETCHINC
 40
0.1
  9
$FILLETRAD
 40
0.0
  9
$AUNITS
 70
     0
  9
$AUPREC
 70
     0
  9
$MENU
  1
.
  9
$ELEVATION
 40
0.0
  9
$PELEVATION
 40
0.0
  9
$THICKNESS
 40
0.0
  9
$LIMCHECK
 70
     0
  9
$BLIPMODE
 70
     0
  9
$CHAMFERA
 40
0.0
  9
$CHAMFERB
 40
0.0
  9
$CHAMFERC
 40
0.0
  9
$CHAMFERD
 40
0.0
  9
$SKPOLY
 70
     0
  9
$TDCREATE
 40
2452307.471192014
  9
$TDUPDATE
 40
2454088.433734086
  9
$TDINDWG
 40
0.2848453009
  9
$TDUSRTIMER
 40
0.2848437731
  9
$USRTIMER
 70
     1
  9
$ANGBASE
 50
0.0
  9
$ANGDIR
 70
     0
  9
$PDMODE
 70
     0
  9
$PDSIZE
 40
0.0
  9
$PLINEWID
 40
0.0
  9
$COORDS
 70
     1
  9
$SPLFRAME
 70
     0
  9
$SPLINETYPE
 70
     6
  9
$SPLINESEGS
 70
     8
  9
$ATTDIA
 70
     0
  9
$ATTREQ
 70
     1
  9
$HANDLING
 70
 22529
  9
$HANDSEED
  5
172AF
  9
$SURFTAB1
 70
     6
  9
$SURFTAB2
 70
     6
  9
$SURFTYPE
 70
     6
  9
$SURFU
 70
     6
  9
$SURFV
 70
     6
  9
$UCSNAME
  2

  9
$UCSORG
 10
0.0
 20
0.0
 30
0.0
  9
$UCSXDIR
 10
1.0
 20
0.0
 30
0.0
  9
$UCSYDIR
 10
0.0
 20
1.0
 30
0.0
  9
$PUCSNAME
  2

  9
$PUCSORG
 10
0.0
 20
0.0
 30
0.0
  9
$PUCSXDIR
 10
1.0
 20
0.0
 30
0.0
  9
$PUCSYDIR
 10
0.0
 20
1.0
 30
0.0
  9
$USERI1
 70
     0
  9
$USERI2
 70
     0
  9
$USERI3
 70
     0
  9
$USERI4
 70
     0
  9
$USERI5
 70
     0
  9
$USERR1
 40
0.0
  9
$USERR2
 40
0.0
  9
$USERR3
 40
0.0
  9
$USERR4
 40
0.0
  9
$USERR5
 40
0.0
  9
$WORLDVIEW
 70
     1
  9
$SHADEDGE
 70
     3
  9
$SHADEDIF
 70
    70
  9
$TILEMODE
 70
     1
  9
$MAXACTVP
 70
    48
  9
$PINSBASE
 10
0.0
 20
0.0
 30
0.0
  9
$PLIMCHECK
 70
     0
  9
$PEXTMIN
 10
1.000000000000000E+20
 20
1.000000000000000E+20
 30
1.000000000000000E+20
  9
$PEXTMAX
 10
-1.000000000000000E+20
 20
-1.000000000000000E+20
 30
-1.000000000000000E+20
  9
$PLIMMIN
 10
0.0
 20
0.0
  9
$PLIMMAX
 10
12.0
 20
9.0
  9
$UNITMODE
 70
     0
  9
$VISRETAIN
 70
     1
  9
$PLINEGEN
 70
     0
  9
$PSLTSCALE
 70
     1
  9
$TREEDEPTH
 70
  3020
  9
$PICKSTYLE
 70
     1
  9
$CMLSTYLE
  2
STANDARD
  9
$CMLJUST
 70
     0
  9
$CMLSCALE
 40
1.0
  9
$PROXYGRAPHICS
 70
     1
  9
$MEASUREMENT
 70
     0
  0
ENDSEC
  0
SECTION
  2
CLASSES
  0
CLASS
  1
ACDBDICTIONARYWDFLT
  2
AcDbDictionaryWithDefault
  3
AutoCAD 2000
 90
        0
280
     0
281
     0
  0
CLASS
  1
ACDBPLACEHOLDER
  2
AcDbPlaceHolder
  3
AutoCAD 2000
 90
        0
280
     0
281
     0
  0
CLASS
  1
LAYOUT
  2
AcDbLayout
  3
AutoCAD 2000
 90
        0
280
     0
281
     0
  0
CLASS
  1
DICTIONARYVAR
  2
AcDbDictionaryVar
  3
AutoCAD 2000
 90
        0
280
     0
281
     0
  0
CLASS
  1
LONG_TRANSACTION
  2
AcDbLongTransaction
  3
AutoCAD 2000
 90
        0
280
     0
281
     0
  0
CLASS
  1
LWPOLYLINE
  2
AcDbPolyline
  3
AutoCAD 2000
 90
        0
280
     0
281
     1
  0
CLASS
  1
HATCH
  2
AcDbHatch
  3
AutoCAD 2000
 90
        0
280
     0
281
     1
  0
CLASS
  1
XRECORD
  2
AcDbXrecord
  3
AutoCAD 2000
 90
        0
280
     0
281
     0
  0
CLASS
  1
LONG_TRANSACTION
  2
AcDbLongTransaction
  3
AutoCAD 2000
 90
        0
280
     0
281
     0
  0
CLASS
  1
LWPOLYLINE
  2
AcDbPolyline
  3
AutoCAD 2000
 90
        0
280
     0
281
     1
  0
CLASS
  1
HATCH
  2
AcDbHatch
  3
AutoCAD 2000
 90
        0
280
     0
281
     1
  0
CLASS
  1
XRECORD
  2
AcDbXrecord
  3
AutoCAD 2000
 90
        0
280
     0
281
     0
  0
ENDSEC
  0
SECTION
  2
TABLES
  0
TABLE
  2
VPORT
  5
182
330
0
100
AcDbSymbolTable
 70
     2
  0
VPORT
  5
1728C
330
182
100
AcDbSymbolTableRecord
100
AcDbViewportTableRecord
  2
*ACTIVE
 70
     0
 10
0.0
 20
0.0
 11
1.0
 21
1.0
 12
8410.894934310244
 22
5939.474028320837
 13
0.0
 23
0.0
 14
10.0
 24
10.0
 15
10.0
 25
10.0
 16
0.0
 26
0.0
 36
1.0
 17
0.0
 27
0.0
 37
0.0
 40
8761.123262579173
 41
1.584210526315789
 42
50.0
 43
0.0
 44
0.0
 50
0.0
 51
0.0
 71
     0
 72
   100
 73
     1
 74
     3
 75
     0
 76
     0
 77
     0
 78
     0
  0
ENDTAB
  0
TABLE
  2
LTYPE
  5
100
330
0
100
AcDbSymbolTable
 70
     2
  0
LTYPE
  5
101
330
100
100
AcDbSymbolTableRecord
100
AcDbLinetypeTableRecord
  2
BYBLOCK
 70
     0
  3

 72
    65
 73
     0
 40
0.0
  0
LTYPE
  5
102
330
100
100
AcDbSymbolTableRecord
100
AcDbLinetypeTableRecord
  2
BYLAYER
 70
     0
  3

 72
    65
 73
     0
 40
0.0
  0
LTYPE
  5
103
330
100
100
AcDbSymbolTableRecord
100
AcDbLinetypeTableRecord
  2
CONTINUOUS
 70
     0
  3
Solid Line
 72
    65
 73
     0
 40
0.0
  0
LTYPE
  5
171BC
330
100
100
AcDbSymbolTableRecord
100
AcDbLinetypeTableRecord
  2
LDASHDOT
 70
     0
  3
Hangil LType Dash Dot--- - --- - --- -
 72
    65
 73
     4
 40
2.0
 49
1.25
 74
     0
 49
-0.25
 74
     0
 49
0.25
 74
     0
 49
-0.25
 74
     0
  0
ENDTAB
  0
TABLE
  2
LAYER
  5
117
102
{ACAD_XDICTIONARY
360
1517C
102
}
330
0
100
AcDbSymbolTable
 70
    10
  0
LAYER
  5
10
330
117
100
AcDbSymbolTableRecord
100
AcDbLayerTableRecord
  2
0
 70
     0
 62
     7
  6
CONTINUOUS
  0
LAYER
  5
118
330
117
100
AcDbSymbolTableRecord
100
AcDbLayerTableRecord
  2
A_0
 70
     0
 62
     7
  6
CONTINUOUS
  0
LAYER
  5
119
330
117
100
AcDbSymbolTableRecord
100
AcDbLayerTableRecord
  2
A_1
 70
     0
 62
     1
  6
CONTINUOUS
  0
LAYER
  5
120
330
117
100
AcDbSymbolTableRecord
100
AcDbLayerTableRecord
  2
A_2
 70
     0
 62
     2
  6
CONTINUOUS
  0
LAYER
  5
122
330
117
100
AcDbSymbolTableRecord
100
AcDbLayerTableRecord
  2
A_4
 70
     0
 62
     4
  6
CONTINUOUS
  0
LAYER
  5
123
330
117
100
AcDbSymbolTableRecord
100
AcDbLayerTableRecord
  2
A_5
 70
     0
 62
     5
  6
CONTINUOUS
  0
LAYER
  5
124
330
117
100
AcDbSymbolTableRecord
100
AcDbLayerTableRecord
  2
A_6
 70
     0
 62
     6
  6
CONTINUOUS
  0
LAYER
  5
125
330
117
100
AcDbSymbolTableRecord
100
AcDbLayerTableRecord
  2
A_7
 70
     0
 62
     7
  6
CONTINUOUS
  0
LAYER
  5
1503C
330
117
100
AcDbSymbolTableRecord
100
AcDbLayerTableRecord
  2
L1
 70
     0
 62
     1
  6
CONTINUOUS
  0
LAYER
  5
16F1D
330
117
100
AcDbSymbolTableRecord
100
AcDbLayerTableRecord
  2
L-FLANGE
 70
     0
 62
     2
  6
CONTINUOUS
1001
RAK
1000
{ACET-LAYISO
1070
     0
1070
     2
1000
CONTINUOUS
1071
       -3
1071
        1
1005
1146A
1000
ACET-LAYISO}
  0
ENDTAB
  0
TABLE
  2
STYLE
  5
170
330
0
100
AcDbSymbolTable
 70
     3
  0
STYLE
  5
171
330
170
100
AcDbSymbolTableRecord
100
AcDbTextStyleTableRecord
  2
A_STANDARD
 70
     0
 40
0.0
 41
1.0
 50
0.0
 71
     0
 42
0.0
  3
romans.shx
  4
ghs.shx
  0
STYLE
  5
11466
330
170
100
AcDbSymbolTableRecord
100
AcDbTextStyleTableRecord
  2
STANDARD
 70
     0
 40
0.0
 41
1.0
 50
0.0
 71
     0
 42
0.2
  3

  4

  0
STYLE
  5
170B6
330
170
100
AcDbSymbolTableRecord
100
AcDbTextStyleTableRecord
  2
TITLE1
 70
     0
 40
0.0
 41
1.0
 50
0.0
 71
     0
 42
0.0
  3
Dotum.ttf
  4

1001
ACAD
1000
Dotum
1071
    33074
  0
ENDTAB
  0
TABLE
  2
VIEW
  5
194
330
0
100
AcDbSymbolTable
 70
     0
  0
ENDTAB
  0
TABLE
  2
UCS
  5
205
330
0
100
AcDbSymbolTable
 70
     0
  0
ENDTAB
  0
TABLE
  2
APPID
  5
227
330
0
100
AcDbSymbolTable
 70
     5
  0
APPID
  5
228
330
227
100
AcDbSymbolTableRecord
100
AcDbRegAppTableRecord
  2
ACAD
 70
     0
  0
APPID
  5
13C0D
330
227
100
AcDbSymbolTableRecord
100
AcDbRegAppTableRecord
  2
GOUNGUL
 70
     0
  0
APPID
  5
168E5
330
227
100
AcDbSymbolTableRecord
100
AcDbRegAppTableRecord
  2
AUTOCAD_POSTSCRIPT_FIGURE
 70
     0
  0
APPID
  5
168E6
330
227
100
AcDbSymbolTableRecord
100
AcDbRegAppTableRecord
  2
CONTENTBLOCKICON
 70
     0
  0
APPID
  5
168E7
330
227
100
AcDbSymbolTableRecord
100
AcDbRegAppTableRecord
  2
RAK
 70
     0
  0
ENDTAB
  0
TABLE
  2
DIMSTYLE
  5
216
330
0
100
AcDbSymbolTable
 70
     1
  0
DIMSTYLE
105
27
330
216
100
AcDbSymbolTableRecord
100
AcDbDimStyleTableRecord
  2
STANDARD
 70
     0
  3

  4

  5

  6

  7

 40
1.0
 41
0.18
 42
0.0625
 43
0.38
 44
0.18
 45
0.0
 46
0.0
 47
0.0
 48
0.0
140
0.18
141
0.09
142
0.0
143
25.4
144
1.0
145
0.0
146
1.0
147
0.09
 71
     0
 72
     0
 73
     1
 74
     1
 75
     0
 76
     0
 77
     0
 78
     0
170
     0
171
     2
172
     0
173
     0
174
     0
175
     0
176
     0
177
     0
178
     0
270
     2
271
     4
272
     4
273
     2
274
     2
340
171
275
     0
280
     0
281
     0
282
     0
283
     1
284
     0
285
     0
286
     0
287
     3
288
     0
  0
ENDTAB
  0
TABLE
  2
BLOCK_RECORD
  5
239
330
0
100
AcDbSymbolTable
 70
     0
  0
BLOCK_RECORD
  5
240
102
{ACAD_XDICTIONARY
360
17104
102
}
330
239
100
AcDbSymbolTableRecord
100
AcDbBlockTableRecord
  2
*MODEL_SPACE
  0
BLOCK_RECORD
  5
241
102
{ACAD_XDICTIONARY
360
17106
102
}
330
239
100
AcDbSymbolTableRecord
100
AcDbBlockTableRecord
  2
*PAPER_SPACE
  0
ENDTAB
  0
ENDSEC
  0
SECTION
  2
BLOCKS
  0
BLOCK
  5
252
330
240
100
AcDbEntity
  8
A_0
100
AcDbBlockBegin
  2
*MODEL_SPACE
 70
     0
 10
0.0
 20
0.0
 30
0.0
  3
*MODEL_SPACE
  1

  0
ENDBLK
  5
253
330
240
100
AcDbEntity
  8
0
100
AcDbBlockEnd
  0
BLOCK
  5
254
330
241
100
AcDbEntity
 67
     1
  8
A_0
100
AcDbBlockBegin
  2
*PAPER_SPACE
 70
     0
 10
0.0
 20
0.0
 30
0.0
  3
*PAPER_SPACE
  1

  0
ENDBLK
  5
255
330
241
100
AcDbEntity
 67
     1
  8
0
100
AcDbBlockEnd
  0
ENDSEC
  0
SECTION
  2
ENTITIES
  0
LINE
  5
10358
330
240
100
AcDbEntity
  8
A_0
100
AcDbLine
 10
6109.999988713472
 20
1632.000006456102
 30
0.0
 11
6109.999988713472
 21
10248.00000645609
 31
0.0
  0
LINE
  5
10359
330
240
100
AcDbEntity
  8
A_0
100
AcDbLine
 10
10709.99998871347
 20
1632.000006456102
 30
0.0
 11
10709.99998871347
 21
10248.00000645609
 31
0.0
  0
LINE
  5
10360
330
240
100
AcDbEntity
  8
A_0
100
AcDbLine
 10
1509.999988713474
 20
5940.000006456092
 30
0.0
 11
15309.99998871346
 21
5940.000006456092
 31
0.0
  0
LINE
  5
10361
330
240
100
AcDbEntity
  8
A_0
100
AcDbLine
 10
1509.999988713474
 20
5632.0000064561
 30
0.0
 11
15309.99998871346
 21
5632.0000064561
 31
0.0
  0
LINE
  5
10362
330
240
100
AcDbEntity
  8
A_0
100
AcDbLine
 10
1509.999988713474
 20
9940.000006456102
 30
0.0
 11
15309.99998871346
 21
9940.000006456102
 31
0.0
  0
LINE
  5
10466
330
240
100
AcDbEntity
  8
A_1
100
AcDbLine
 10
7481.999246213472
 20
8834.5153377561
 30
0.0
 11
7259.999246213472
 21
8834.5153377561
 31
0.0
  0
LINE
  5
10467
330
240
100
AcDbEntity
  8
A_1
100
AcDbLine
 10
7481.999246213472
 20
9034.515337756102
 30
0.0
 11
7259.999246213472
 21
9034.515337756102
 31
0.0
  0
LINE
  5
10468
330
240
100
AcDbEntity
  8
A_1
100
AcDbLine
 10
7281.999246213472
 20
8834.5153377561
 30
0.0
 11
7281.999246213472
 21
9034.515337756102
 31
0.0
  0
LINE
  5
10469
330
240
100
AcDbEntity
  8
A_1
100
AcDbLine
 10
7681.999246213472
 20
8510.5153377561
 30
0.0
 11
7681.999246213472
 21
8288.515337756098
 31
0.0
  0
LINE
  5
10470
330
240
100
AcDbEntity
  8
A_1
100
AcDbLine
 10
8247.684671213468
 20
8510.5153377561
 30
0.0
 11
8247.684671213468
 21
8288.515337756098
 31
0.0
  0
LINE
  5
10471
330
240
100
AcDbEntity
  8
A_1
100
AcDbLine
 10
7681.999246213472
 20
8310.515337756099
 30
0.0
 11
8247.684671213468
 21
8310.515337756099
 31
0.0
  0
LINE
  5
10472
330
240
100
AcDbEntity
  8
A_1
100
AcDbLine
 10
8647.684671213472
 20
8510.5153377561
 30
0.0
 11
8647.684671213472
 21
8288.515337756098
 31
0.0
  0
LINE
  5
10473
330
240
100
AcDbEntity
  8
A_1
100
AcDbLine
 10
8247.684671213468
 20
8310.515337756099
 30
0.0
 11
8647.684671213472
 21
8310.515337756099
 31
0.0
  0
LINE
  5
10474
330
240
100
AcDbEntity
  8
A_1
100
AcDbLine
 10
9213.370096013472
 20
8510.5153377561
 30
0.0
 11
9213.370096013472
 21
8288.515337756098
 31
0.0
  0
LINE
  5
10475
330
240
100
AcDbEntity
  8
A_1
100
AcDbLine
 10
8647.684671213472
 20
8310.515337756099
 30
0.0
 11
9213.370096013472
 21
8310.515337756099
 31
0.0
  0
LINE
  5
10476
330
240
100
AcDbEntity
  8
A_1
100
AcDbLine
 10
8825.419698013476
 20
9010.5153377561
 30
0.0
 11
8825.419698013476
 21
8960.515337756104
 31
0.0
  0
LINE
  5
10477
330
240
100
AcDbEntity
  8
A_1
100
AcDbLine
 10
8825.419698013476
 20
9010.5153377561
 30
0.0
 11
8825.419698013476
 21
9060.515337756097
 31
0.0
  0
LINE
  5
10478
330
240
100
AcDbEntity
  8
A_1
100
AcDbLine
 10
8705.419698013477
 20
9010.5153377561
 30
0.0
 11
8965.419698013471
 21
9010.5153377561
 31
0.0
  0
LINE
  5
10479
330
240
100
AcDbEntity
  8
A_1
100
AcDbLine
 10
8647.684671213472
 20
8910.5153377561
 30
0.0
 11
8705.419698013477
 21
9010.5153377561
 31
0.0
  0
LINE
  5
10480
330
240
100
AcDbEntity
  8
A_1
100
AcDbLine
 10
7735.739361613472
 20
7041.4846751561
 30
0.0
 11
7735.739361613472
 21
6819.4846751561
 31
0.0
  0
LINE
  5
10481
330
240
100
AcDbEntity
  8
A_1
100
AcDbLine
 10
8301.424786613472
 20
7041.4846751561
 30
0.0
 11
8301.424786613472
 21
6819.4846751561
 31
0.0
  0
LINE
  5
10482
330
240
100
AcDbEntity
  8
A_1
100
AcDbLine
 10
7735.739361613472
 20
6841.4846751561
 30
0.0
 11
8301.424786613472
 21
6841.4846751561
 31
0.0
  0
LINE
  5
10483
330
240
100
AcDbEntity
  8
A_1
100
AcDbLine
 10
8701.424786613472
 20
7041.4846751561
 30
0.0
 11
8701.424786613472
 21
6819.4846751561
 31
0.0
  0
LINE
  5
10484
330
240
100
AcDbEntity
  8
A_1
100
AcDbLine
 10
8301.424786613472
 20
6841.4846751561
 30
0.0
 11
8701.424786613472
 21
6841.4846751561
 31
0.0
  0
LINE
  5
10485
330
240
100
AcDbEntity
  8
A_1
100
AcDbLine
 10
9267.110211413472
 20
7041.4846751561
 30
0.0
 11
9267.110211413472
 21
6819.4846751561
 31
0.0
  0
LINE
  5
10486
330
240
100
AcDbEntity
  8
A_1
100
AcDbLine
 10
8701.424786613472
 20
6841.4846751561
 30
0.0
 11
9267.110211413472
 21
6841.4846751561
 31
0.0
  0
LINE
  5
10487
330
240
100
AcDbEntity
  8
A_1
100
AcDbLine
 10
7964.841958613472
 20
7594.587272156103
 30
0.0
 11
7907.106938013467
 21
7594.587272156103
 31
0.0
  0
LINE
  5
10488
330
240
100
AcDbEntity
  8
A_1
100
AcDbLine
 10
7907.106938013467
 20
7594.587272156103
 30
0.0
 11
7205.106938013472
 21
7594.587272156103
 31
0.0
  0
LINE
  5
10489
330
240
100
AcDbEntity
  8
A_1
100
AcDbLine
 10
8630.714108413471
 20
7436.1953531561
 30
0.0
 11
8468.079548813472
 21
7598.8299129561
 31
0.0
  0
LINE
  5
10490
330
240
100
AcDbEntity
  8
A_1
100
AcDbLine
 10
9196.39953341348
 20
8001.880778156104
 30
0.0
 11
9033.764973613472
 21
8164.5153377561
 31
0.0
  0
LINE
  5
10491
330
240
100
AcDbEntity
  8
A_1
100
AcDbLine
 10
8489.292752213469
 20
7577.616709356092
 30
0.0
 11
9054.978177213477
 21
8143.302134356098
 31
0.0
  0
LINE
  5
10541
330
240
100
AcDbEntity
  8
A_2
100
AcDbLine
 10
7681.999246213472
 20
8834.5153377561
 30
0.0
 11
9137.370096013468
 21
8834.5153377561
 31
0.0
  0
LINE
  5
10542
330
240
100
AcDbEntity
  8
A_2
100
AcDbLine
 10
9137.370096013468
 20
8834.5153377561
 30
0.0
 11
9137.370096013468
 21
8710.515337756104
 31
0.0
  0
LINE
  5
10543
330
240
100
AcDbEntity
  8
A_2
100
AcDbLine
 10
9137.370096013468
 20
8710.515337756104
 30
0.0
 11
9213.370096013472
 21
8710.515337756104
 31
0.0
  0
LINE
  5
10544
330
240
100
AcDbEntity
  8
A_2
100
AcDbLine
 10
9213.370096013472
 20
8710.515337756104
 30
0.0
 11
9213.370096013472
 21
8910.5153377561
 31
0.0
  0
LINE
  5
10545
330
240
100
AcDbEntity
  8
A_2
100
AcDbLine
 10
9213.370096013472
 20
8910.5153377561
 30
0.0
 11
7757.999246213471
 21
8910.5153377561
 31
0.0
  0
LINE
  5
10546
330
240
100
AcDbEntity
  8
A_2
100
AcDbLine
 10
7757.999246213471
 20
8910.5153377561
 30
0.0
 11
7757.999246213471
 21
9034.515337756102
 31
0.0
  0
LINE
  5
10547
330
240
100
AcDbEntity
  8
A_2
100
AcDbLine
 10
7757.999246213471
 20
9034.515337756102
 30
0.0
 11
7681.999246213472
 21
9034.515337756102
 31
0.0
  0
LINE
  5
10548
330
240
100
AcDbEntity
  8
A_2
100
AcDbLine
 10
7681.999246213472
 20
9034.515337756102
 30
0.0
 11
7681.999246213472
 21
8834.5153377561
 31
0.0
  0
LINE
  5
10549
330
240
100
AcDbEntity
  8
A_2
100
AcDbLine
 10
7399.156533813472
 20
7289.4846751561
 30
0.0
 11
9603.693039413473
 21
7289.4846751561
 31
0.0
  0
LINE
  5
10550
330
240
100
AcDbEntity
  8
A_2
100
AcDbLine
 10
7399.156533813472
 20
7241.4846751561
 30
0.0
 11
9603.693039413473
 21
7241.4846751561
 31
0.0
  0
LINE
  5
10551
330
240
100
AcDbEntity
  8
A_2
100
AcDbLine
 10
7681.999246213472
 20
7877.4299847561
 30
0.0
 11
8269.944555813472
 21
7289.4846751561
 31
0.0
  0
LINE
  5
10552
330
240
100
AcDbEntity
  8
A_2
100
AcDbLine
 10
8269.944555813472
 20
7289.4846751561
 30
0.0
 11
8732.905017213473
 21
7289.4846751561
 31
0.0
  0
LINE
  5
10553
330
240
100
AcDbEntity
  8
A_2
100
AcDbLine
 10
8732.905017213473
 20
7289.4846751561
 30
0.0
 11
9320.850326813468
 21
7877.4299847561
 31
0.0
  0
LINE
  5
10554
330
240
100
AcDbEntity
  8
A_2
100
AcDbLine
 10
7735.739361613472
 20
7931.170099956108
 30
0.0
 11
8301.424786613472
 21
7365.4846751561
 31
0.0
  0
LINE
  5
10555
330
240
100
AcDbEntity
  8
A_2
100
AcDbLine
 10
8301.424786613472
 20
7365.4846751561
 30
0.0
 11
8701.424786613472
 21
7365.4846751561
 31
0.0
  0
LINE
  5
10556
330
240
100
AcDbEntity
  8
A_2
100
AcDbLine
 10
8701.424786613472
 20
7365.4846751561
 30
0.0
 11
9267.110211413472
 21
7931.170099956108
 31
0.0
  0
LINE
  5
10613
330
240
100
AcDbEntity
  8
A_7
  6
LDASHDOT
 48
75.0
100
AcDbLine
 10
7399.156533813472
 20
7433.4846751561
 30
0.0
 11
7399.156533813472
 21
7282.2846751561
 31
0.0
  0
LINE
  5
10614
330
240
100
AcDbEntity
  8
A_7
  6
LDASHDOT
 48
75.0
100
AcDbLine
 10
7399.156533813472
 20
7248.6846751561
 30
0.0
 11
7399.156533813472
 21
7097.4846751561
 31
0.0
  0
LINE
  5
10615
330
240
100
AcDbEntity
  8
A_7
  6
LDASHDOT
 48
75.0
100
AcDbLine
 10
7399.156533813472
 20
7282.2846751561
 30
0.0
 11
7410.35653381347
 21
7299.084675156101
 31
0.0
  0
LINE
  5
10616
330
240
100
AcDbEntity
  8
A_7
  6
LDASHDOT
 48
75.0
100
AcDbLine
 10
7410.35653381347
 20
7299.084675156101
 30
0.0
 11
7387.956533813472
 21
7231.884675156099
 31
0.0
  0
LINE
  5
10617
330
240
100
AcDbEntity
  8
A_7
  6
LDASHDOT
 48
75.0
100
AcDbLine
 10
7387.956533813472
 20
7231.884675156099
 30
0.0
 11
7399.156533813472
 21
7248.6846751561
 31
0.0
  0
LINE
  5
10618
330
240
100
AcDbEntity
  8
A_7
  6
LDASHDOT
 48
75.0
100
AcDbLine
 10
9603.693039413473
 20
7433.4846751561
 30
0.0
 11
9603.693039413473
 21
7282.2846751561
 31
0.0
  0
LINE
  5
10619
330
240
100
AcDbEntity
  8
A_7
  6
LDASHDOT
 48
75.0
100
AcDbLine
 10
9603.693039413473
 20
7248.6846751561
 30
0.0
 11
9603.693039413473
 21
7097.4846751561
 31
0.0
  0
LINE
  5
10620
330
240
100
AcDbEntity
  8
A_7
  6
LDASHDOT
 48
75.0
100
AcDbLine
 10
9603.693039413473
 20
7282.2846751561
 30
0.0
 11
9614.893039413471
 21
7299.084675156101
 31
0.0
  0
LINE
  5
10621
330
240
100
AcDbEntity
  8
A_7
  6
LDASHDOT
 48
75.0
100
AcDbLine
 10
9614.893039413471
 20
7299.084675156101
 30
0.0
 11
9592.493039413472
 21
7231.884675156099
 31
0.0
  0
LINE
  5
10622
330
240
100
AcDbEntity
  8
A_7
  6
LDASHDOT
 48
75.0
100
AcDbLine
 10
9592.493039413472
 20
7231.884675156099
 30
0.0
 11
9603.693039413473
 21
7248.6846751561
 31
0.0
  0
LWPOLYLINE
  5
11016
330
240
100
AcDbEntity
  8
A_0
100
AcDbPolyline
 90
        4
 70
     1
 43
0.0
 10
1509.999988713474
 20
1632.000006456102
 10
15309.99998871346
 20
1632.000006456102
 10
15309.99998871346
 20
10248.00000645609
 10
1509.999988713474
 20
10248.00000645609
  0
LWPOLYLINE
  5
11188
330
240
100
AcDbEntity
  8
A_1
100
AcDbPolyline
 90
        2
 70
     1
 43
12.0
 10
7287.999246213472
 20
8834.5153377561
 42
1.0
 10
7275.999246213472
 20
8834.5153377561
 42
1.0
  0
LWPOLYLINE
  5
11190
330
240
100
AcDbEntity
  8
A_1
100
AcDbPolyline
 90
        2
 70
     1
 43
12.0
 10
7287.999246213472
 20
9034.515337756102
 42
1.0
 10
7275.999246213472
 20
9034.515337756102
 42
1.0
  0
LWPOLYLINE
  5
11192
330
240
100
AcDbEntity
  8
A_1
100
AcDbPolyline
 90
        2
 70
     1
 43
12.0
 10
7687.999246213472
 20
8310.515337756099
 42
1.0
 10
7675.999246213468
 20
8310.515337756099
 42
1.0
  0
LWPOLYLINE
  5
11194
330
240
100
AcDbEntity
  8
A_1
100
AcDbPolyline
 90
        2
 70
     1
 43
12.0
 10
8253.684671213472
 20
8310.515337756099
 42
1.0
 10
8241.684671213473
 20
8310.515337756099
 42
1.0
  0
LWPOLYLINE
  5
11196
330
240
100
AcDbEntity
  8
A_1
100
AcDbPolyline
 90
        2
 70
     1
 43
12.0
 10
8653.684671213476
 20
8310.515337756099
 42
1.0
 10
8641.684671213475
 20
8310.515337756099
 42
1.0
  0
LWPOLYLINE
  5
11198
330
240
100
AcDbEntity
  8
A_1
100
AcDbPolyline
 90
        2
 70
     1
 43
12.0
 10
9219.370096013472
 20
8310.515337756099
 42
1.0
 10
9207.370096013468
 20
8310.515337756099
 42
1.0
  0
ARC
  5
11200
330
240
100
AcDbEntity
  8
A_1
100
AcDbCircle
 10
8875.419698013477
 20
9010.5153377561
 30
0.0
 40
50.0
100
AcDbArc
 50
90.0
 51
270.0
  0
LWPOLYLINE
  5
11201
330
240
100
AcDbEntity
  8
A_1
100
AcDbPolyline
 90
        2
 70
     1
 43
12.0
 10
7741.739361613472
 20
6841.4846751561
 42
1.0
 10
7729.739361613471
 20
6841.4846751561
 42
1.0
  0
LWPOLYLINE
  5
11203
330
240
100
AcDbEntity
  8
A_1
100
AcDbPolyline
 90
        2
 70
     1
 43
12.0
 10
8307.424786613472
 20
6841.4846751561
 42
1.0
 10
8295.424786613471
 20
6841.4846751561
 42
1.0
  0
LWPOLYLINE
  5
11205
330
240
100
AcDbEntity
  8
A_1
100
AcDbPolyline
 90
        2
 70
     1
 43
12.0
 10
8707.424786613472
 20
6841.4846751561
 42
1.0
 10
8695.424786613472
 20
6841.4846751561
 42
1.0
  0
LWPOLYLINE
  5
11207
330
240
100
AcDbEntity
  8
A_1
100
AcDbPolyline
 90
        2
 70
     1
 43
12.0
 10
9273.110211413472
 20
6841.4846751561
 42
1.0
 10
9261.110211413472
 20
6841.4846751561
 42
1.0
  0
ARC
  5
11209
330
240
100
AcDbEntity
  8
A_1
100
AcDbCircle
 10
8732.905017213473
 20
7289.4846751561
 30
0.0
 40
100.0
100
AcDbArc
 50
0.0
 51
45.0
  0
LWPOLYLINE
  5
11210
330
240
100
AcDbEntity
  8
A_1
100
AcDbPolyline
 90
        2
 70
     1
 43
10.0
 10
8494.292752213473
 20
7577.616709356092
 42
1.0
 10
8484.292752213468
 20
7577.616709356092
 42
1.0
  0
LWPOLYLINE
  5
11212
330
240
100
AcDbEntity
  8
A_1
100
AcDbPolyline
 90
        2
 70
     1
 43
10.0
 10
9059.978177213471
 20
8143.302134356098
 42
1.0
 10
9049.978177213473
 20
8143.302134356098
 42
1.0
  0
CIRCLE
  5
11219
330
240
100
AcDbEntity
  8
A_2
100
AcDbCircle
 10
7708.869303813476
 20
7904.300042356108
 30
0.0
 40
38.0
  0
CIRCLE
  5
11220
330
240
100
AcDbEntity
  8
A_2
100
AcDbCircle
 10
9293.980269213463
 20
7904.300042356108
 30
0.0
 40
38.0
  0
SOLID
  5
11239
330
240
100
AcDbEntity
  8
A_1
100
AcDbTrace
 10
8647.684671213472
 20
8910.5153377561
 30
0.0
 11
8672.581041413472
 21
8976.9704493561
 31
0.0
 12
8647.684671213472
 22
8910.5153377561
 32
0.0
 13
8692.78830081348
 23
8965.3037827561
 33
0.0
  0
SOLID
  5
11240
330
240
100
AcDbEntity
  8
A_1
100
AcDbTrace
 10
7964.841958613472
 20
7594.587272156103
 30
0.0
 11
7924.841958613467
 21
7602.5872721561
 31
0.0
 12
7964.841958613472
 22
7594.587272156103
 32
0.0
 13
7924.841958613467
 23
7586.5872721561
 33
0.0
  0
SOLID
  5
11246
330
240
100
AcDbEntity
  8
A_2
100
AcDbTrace
 10
8247.684671213468
 20
8834.5153377561
 30
0.0
 11
8247.684671213468
 21
8815.515337756101
 31
0.0
 12
8647.684671213472
 22
8834.5153377561
 32
0.0
 13
8647.684671213472
 23
8815.515337756101
 33
0.0
  0
SOLID
  5
11247
330
240
100
AcDbEntity
  8
A_2
100
AcDbTrace
 10
8247.684671213468
 20
8910.5153377561
 30
0.0
 11
8247.684671213468
 21
8929.515337756098
 31
0.0
 12
8647.684671213472
 22
8910.5153377561
 32
0.0
 13
8647.684671213472
 23
8929.515337756098
 33
0.0
  0
TEXT
  5
11260
330
240
100
AcDbEntity
  8
A_4
100
AcDbText
 10
8872.905017213476
 20
7308.4846751561
 30
0.0
 40
54.0
  1
AAn%%d
100
AcDbText
  0
TEXT
  5
11266
330
240
100
AcDbEntity
  8
A_4
100
AcDbText
 10
8761.705412299184
 20
9020.5153377561
 30
0.0
 40
54.0
  1
7
 72
     2
 11
8805.419698013471
 21
9020.5153377561
 31
0.0
100
AcDbText
  0
TEXT
  5
11269
330
240
100
AcDbEntity
  8
A_4
100
AcDbText
 10
21180.83011199999
 20
25493.761013
 30
0.0
 40
270.0
  1

 72
     1
 11
21180.83011199999
 21
25493.761013
 31
0.0
100
AcDbText
  0
TEXT
  5
11271
330
240
100
AcDbEntity
  8
A_4
100
AcDbText
 10
17555.830112
 20
12893.761013
 30
0.0
 40
270.0
  1

 72
     1
 11
17555.830112
 21
12893.761013
 31
0.0
100
AcDbText
  0
TEXT
  5
11274
330
240
100
AcDbEntity
  8
A_4
100
AcDbText
 10
10303.61674999999
 20
25493.761013
 30
0.0
 40
270.0
  1

 72
     1
 11
10303.61674999999
 21
25493.761013
 31
0.0
100
AcDbText
  0
TEXT
  5
11276
330
240
100
AcDbEntity
  8
A_4
100
AcDbText
 10
11053.61674999999
 20
12893.761013
 30
0.0
 40
270.0
  1

 72
     1
 11
11053.61674999999
 21
12893.761013
 31
0.0
100
AcDbText
  0
TEXT
  5
11277
330
240
100
AcDbEntity
  8
A_4
100
AcDbText
 10
10593.146709
 20
20193.761013
 30
0.0
 40
270.0
  1

 72
     1
 11
10593.146709
 21
20193.761013
 31
0.0
100
AcDbText
  0
TEXT
  5
11278
330
240
100
AcDbEntity
  8
A_4
100
AcDbText
 10
10593.146709
 20
19793.76101299998
 30
0.0
 40
270.0
  1

 72
     1
 11
10593.146709
 21
19793.76101299998
 31
0.0
100
AcDbText
  0
TEXT
  5
11279
330
240
100
AcDbEntity
  8
A_4
100
AcDbText
 10
8869.386379000001
 20
20193.761013
 30
0.0
 40
270.0
  1

 72
     1
 11
8869.386379000001
 21
20193.761013
 31
0.0
100
AcDbText
  0
TEXT
  5
11280
330
240
100
AcDbEntity
  8
A_4
100
AcDbText
 10
8869.386379000001
 20
19793.76101299998
 30
0.0
 40
270.0
  1

 72
     1
 11
8869.386379000001
 21
19793.76101299998
 31
0.0
100
AcDbText
  0
TEXT
  5
11288
330
240
100
AcDbEntity
  8
A_4
100
AcDbText
 10
37356.20537099998
 20
20393.761013
 30
0.0
 40
270.0
  1

 72
     1
 11
37356.20537099998
 21
20393.761013
 31
0.0
100
AcDbText
  0
TEXT
  5
11290
330
240
100
AcDbEntity
  8
A_4
100
AcDbText
 10
69607.23792899999
 20
11625.42767899999
 30
0.0
 40
270.0
  1

 72
     1
 11
69607.23792899999
 21
11625.42767899999
 31
0.0
100
AcDbText
  0
TEXT
  5
11292
330
240
100
AcDbEntity
  8
A_4
100
AcDbText
 10
62042.23792899997
 20
18592.094346
 30
0.0
 40
270.0
  1

 72
     1
 11
62042.23792899997
 21
18592.094346
 31
0.0
100
AcDbText
  0
TEXT
  5
11304
330
240
100
AcDbEntity
  8
A_4
100
AcDbText
 10
34638.516252
 20
40683.060304
 30
0.0
 40
270.0
  1

 72
     1
 11
34638.516252
 21
40683.060304
 31
0.0
100
AcDbText
  0
TEXT
  5
11310
330
240
100
AcDbEntity
  8
A_4
100
AcDbText
 10
7899.270530042042
 20
8320.5153377561
 30
0.0
 40
54.0
  1
AB1
 72
     1
 11
7964.841958613472
 21
8320.5153377561
 31
0.0
100
AcDbText
  0
TEXT
  5
11311
330
240
100
AcDbEntity
  8
A_4
100
AcDbText
 10
8374.398956927761
 20
8320.5153377561
 30
0.0
 40
54.0
  1
AB0
 72
     1
 11
8447.684671213476
 21
8320.5153377561
 31
0.0
100
AcDbText
  0
TEXT
  5
11312
330
240
100
AcDbEntity
  8
A_4
100
AcDbText
 10
8864.955955042042
 20
8320.5153377561
 30
0.0
 40
54.0
  1
AB1
 72
     1
 11
8930.527383613471
 21
8320.5153377561
 31
0.0
100
AcDbText
  0
TEXT
  5
11313
330
240
100
AcDbEntity
  8
A_4
100
AcDbText
 10
7953.010645442041
 20
6851.484675156092
 30
0.0
 40
54.0
  1
AB1
 72
     1
 11
8018.582074013471
 21
6851.484675156092
 31
0.0
100
AcDbText
  0
TEXT
  5
11314
330
240
100
AcDbEntity
  8
A_4
100
AcDbText
 10
8428.13907232775
 20
6851.484675156092
 30
0.0
 40
54.0
  1
AB0
 72
     1
 11
8501.424786613466
 21
6851.484675156092
 31
0.0
100
AcDbText
  0
TEXT
  5
11315
330
240
100
AcDbEntity
  8
A_4
100
AcDbText
 10
8918.696070442051
 20
6851.484675156092
 30
0.0
 40
54.0
  1
AB1
 72
     1
 11
8984.26749901348
 21
6851.484675156092
 31
0.0
100
AcDbText
  0
TEXT
  5
11316
330
240
100
AcDbEntity
  8
A_4
100
AcDbText
 10
7239.821223727755
 20
7604.587272156099
 30
0.0
 40
54.0
  1
1-BAR ADx600
 72
     1
 11
7556.106938013468
 21
7604.587272156099
 31
0.0
100
AcDbText
  0
TEXT
  5
11317
330
240
100
AcDbEntity
  8
A_4
100
AcDbText
 10
61617.43090599999
 20
39502.443242
 30
0.0
 40
270.0
  1

 72
     1
 11
61617.43090599999
 21
39502.443242
 31
0.0
100
AcDbText
  0
TEXT
  5
11318
330
240
100
AcDbEntity
  8
A_4
100
AcDbText
 10
8723.04205094823
 20
7821.366008290866
 30
0.0
 40
54.0
  1
AA0
 50
45.0
 72
     1
 11
8772.135464613468
 21
7870.459421956103
 31
0.0
100
AcDbText
  0
TEXT
  5
11334
330
240
100
AcDbEntity
  8
A_4
100
AcDbText
 10
7271.999246213471
 20
8886.943909184672
 30
0.0
 40
54.0
  1
AC
 50
90.0
 72
     1
 11
7271.999246213471
 21
8934.515337756101
 31
0.0
100
AcDbText
  0
TEXT
  5
11342
330
240
100
AcDbEntity
  8
A_6
100
AcDbText
 10
2992.971417284887
 20
10040.0000064561
 30
0.0
 40
108.0
  1
Jack-Up 보강재 상세
 72
     1
 11
3809.999988713458
 21
10040.0000064561
 31
0.0
100
AcDbText
  0
TEXT
  5
11343
330
240
100
AcDbEntity
  8
A_6
100
AcDbText
 10
7752.177045351129
 20
10040.0000064561
 30
0.0
 40
108.0
  1
앵커 바 상세
 72
     1
 11
8216.610116217271
 21
10040.0000064561
 31
0.0
100
AcDbText
  0
TEXT
  5
138BE
330
240
100
AcDbEntity
  8
A_4
100
AcDbText
 10
6802600.923200001
 20
2088000.01
 30
0.0
 40
27000.0
  1

 72
     1
 11
6802600.923200001
 21
2088000.01
 31
0.0
100
AcDbText
  0
TEXT
  5
138BF
330
240
100
AcDbEntity
  8
A_4
100
AcDbText
 10
6796752.744499997
 20
2088000.01
 30
0.0
 40
27000.0
  1

 72
     1
 11
6796752.744499997
 21
2088000.01
 31
0.0
100
AcDbText
  0
TEXT
  5
138C0
330
240
100
AcDbEntity
  8
A_4
100
AcDbText
 10
6688425.713300001
 20
2046000.01
 30
0.0
 40
27000.0
  1

 72
     1
 11
6688425.713300001
 21
2046000.01
 31
0.0
100
AcDbText
  0
TEXT
  5
138C1
330
240
100
AcDbEntity
  8
A_4
100
AcDbText
 10
6572580.696400001
 20
2046000.01
 30
0.0
 40
27000.0
  1

 72
     1
 11
6572580.696400001
 21
2046000.01
 31
0.0
100
AcDbText
  0
TEXT
  5
138C2
330
240
100
AcDbEntity
  8
A_4
100
AcDbText
 10
6456384.6139
 20
2046000.01
 30
0.0
 40
27000.0
  1

 72
     1
 11
6456384.6139
 21
2046000.01
 31
0.0
100
AcDbText
  0
TEXT
  5
138C3
330
240
100
AcDbEntity
  8
A_4
100
AcDbText
 10
6327738.634400002
 20
2046000.01
 30
0.0
 40
27000.0
  1

 72
     1
 11
6327738.634400002
 21
2046000.01
 31
0.0
100
AcDbText
  0
TEXT
  5
138C4
330
240
100
AcDbEntity
  8
A_4
100
AcDbText
 10
6211518.407100002
 20
2046000.01
 30
0.0
 40
27000.0
  1

 72
     1
 11
6211518.407100002
 21
2046000.01
 31
0.0
100
AcDbText
  0
TEXT
  5
138C5
330
240
100
AcDbEntity
  8
A_4
100
AcDbText
 10
6094372.3241
 20
2046000.01
 30
0.0
 40
27000.0
  1

 72
     1
 11
6094372.3241
 21
2046000.01
 31
0.0
100
AcDbText
  0
TEXT
  5
138C6
330
240
100
AcDbEntity
  8
A_4
100
AcDbText
 10
5976281.045599997
 20
2046000.01
 30
0.0
 40
27000.0
  1

 72
     1
 11
5976281.045599997
 21
2046000.01
 31
0.0
100
AcDbText
  0
TEXT
  5
138C7
330
240
100
AcDbEntity
  8
A_4
100
AcDbText
 10
5857237.065499997
 20
2046000.01
 30
0.0
 40
27000.0
  1

 72
     1
 11
5857237.065499997
 21
2046000.01
 31
0.0
100
AcDbText
  0
TEXT
  5
138C8
330
240
100
AcDbEntity
  8
A_4
100
AcDbText
 10
2063962.2843
 20
2046000.01
 30
0.0
 40
27000.0
  1

 72
     1
 11
2063962.2843
 21
2046000.01
 31
0.0
100
AcDbText
  0
TEXT
  5
138C9
330
240
100
AcDbEntity
  8
A_4
100
AcDbText
 10
1936807.104499998
 20
2046000.01
 30
0.0
 40
27000.0
  1

 72
     1
 11
1936807.104499998
 21
2046000.01
 31
0.0
100
AcDbText
  0
TEXT
  5
138CA
330
240
100
AcDbEntity
  8
A_4
100
AcDbText
 10
6802600.923200001
 20
2188000.009999999
 30
0.0
 40
27000.0
  1

 72
     1
 11
6802600.923200001
 21
2188000.009999999
 31
0.0
100
AcDbText
  0
TEXT
  5
138CB
330
240
100
AcDbEntity
  8
A_4
100
AcDbText
 10
6796752.744499997
 20
2188000.009999999
 30
0.0
 40
27000.0
  1

 72
     1
 11
6796752.744499997
 21
2188000.009999999
 31
0.0
100
AcDbText
  0
TEXT
  5
138CC
330
240
100
AcDbEntity
  8
A_4
100
AcDbText
 10
6802600.923200001
 20
2288000.009999997
 30
0.0
 40
27000.0
  1

 72
     1
 11
6802600.923200001
 21
2288000.009999997
 31
0.0
100
AcDbText
  0
TEXT
  5
138CD
330
240
100
AcDbEntity
  8
A_4
100
AcDbText
 10
6802600.923200001
 20
1320000.01
 30
0.0
 40
27000.0
  1

 72
     1
 11
6802600.923200001
 21
1320000.01
 31
0.0
100
AcDbText
  0
TEXT
  5
138CE
330
240
100
AcDbEntity
  8
A_4
100
AcDbText
 10
6796752.744499997
 20
1320000.01
 30
0.0
 40
27000.0
  1

 72
     1
 11
6796752.744499997
 21
1320000.01
 31
0.0
100
AcDbText
  0
TEXT
  5
138CF
330
240
100
AcDbEntity
  8
A_4
100
AcDbText
 10
1929249.7947
 20
1278000.009999999
 30
0.0
 40
27000.0
  1

 72
     1
 11
1929249.7947
 21
1278000.009999999
 31
0.0
100
AcDbText
  0
TEXT
  5
138D0
330
240
100
AcDbEntity
  8
A_4
100
AcDbText
 10
2148687.8622
 20
1518000.009999999
 30
0.0
 40
27000.0
  1

 72
     1
 11
2148687.8622
 21
1518000.009999999
 31
0.0
100
AcDbText
  0
TEXT
  5
138D1
330
240
100
AcDbEntity
  8
A_4
100
AcDbText
 10
6869847.308399998
 20
3304853.197599998
 30
0.0
 40
27000.0
  1

 50
24.52472999999999
 72
     1
 11
6869847.308399998
 21
3304853.197599998
 31
0.0
100
AcDbText
  0
TEXT
  5
138D2
330
240
100
AcDbEntity
  8
A_4
100
AcDbText
 10
6935092.394600001
 20
3500004.442099998
 30
0.0
 40
27000.0
  1

 50
25.377232
 72
     1
 11
6935092.394600001
 21
3500004.442099998
 31
0.0
100
AcDbText
  0
TEXT
  5
138D3
330
240
100
AcDbEntity
  8
A_4
100
AcDbText
 10
6640572.0046
 20
4376607.000199999
 30
0.0
 40
27000.0
  1

 50
26.033815
 72
     1
 11
6640572.0046
 21
4376607.000199999
 31
0.0
100
AcDbText
  0
TEXT
  5
138D4
330
240
100
AcDbEntity
  8
A_4
100
AcDbText
 10
6596681.8521
 20
4466460.517199998
 30
0.0
 40
27000.0
  1

 50
26.033815
 72
     1
 11
6596681.8521
 21
4466460.517199998
 31
0.0
100
AcDbText
  0
TEXT
  5
138D5
330
240
100
AcDbEntity
  8
A_4
100
AcDbText
 10
7090446.067800002
 20
3455608.4512
 30
0.0
 40
27000.0
  1

 50
26.033815
 72
     1
 11
7090446.067800002
 21
3455608.4512
 31
0.0
100
AcDbText
  0
TEXT
  5
138D6
330
240
100
AcDbEntity
  8
A_4
100
AcDbText
 10
7134336.220399997
 20
3365754.934299997
 30
0.0
 40
27000.0
  1

 50
26.033815
 72
     1
 11
7134336.220399997
 21
3365754.934299997
 31
0.0
100
AcDbText
  0
TEXT
  5
138D7
330
240
100
AcDbEntity
  8
A_4
100
AcDbText
 10
6646228.096200002
 20
4379371.964699998
 30
0.0
 40
27000.0
  1

 50
26.069279
 72
     1
 11
6646228.096200002
 21
4379371.964699998
 31
0.0
100
AcDbText
  0
TEXT
  5
138D8
330
240
100
AcDbEntity
  8
A_4
100
AcDbText
 10
6602282.3368
 20
4469198.298500002
 30
0.0
 40
27000.0
  1

 50
26.069279
 72
     1
 11
6602282.3368
 21
4469198.298500002
 31
0.0
100
AcDbText
  0
TEXT
  5
138D9
330
240
100
AcDbEntity
  8
A_4
100
AcDbText
 10
6558336.577400001
 20
4559024.632199998
 30
0.0
 40
27000.0
  1

 50
26.069279
 72
     1
 11
6558336.577400001
 21
4559024.632199998
 31
0.0
100
AcDbText
  0
TEXT
  5
138DA
330
240
100
AcDbEntity
  8
A_4
100
AcDbText
 10
7096672.13
 20
3458652.043999998
 30
0.0
 40
27000.0
  1

 50
26.069279
 72
     1
 11
7096672.13
 21
3458652.043999998
 31
0.0
100
AcDbText
  0
TEXT
  5
138DB
330
240
100
AcDbEntity
  8
A_4
100
AcDbText
 10
7140617.889400001
 20
3368825.710299998
 30
0.0
 40
27000.0
  1

 50
26.069279
 72
     1
 11
7140617.889400001
 21
3368825.710299998
 31
0.0
100
AcDbText
  0
TEXT
  5
138DC
330
240
100
AcDbEntity
  8
A_4
100
AcDbText
 10
1694897.313899999
 20
1666200.01
 30
0.0
 40
27000.0
  1

 50
90.0
 72
     1
 11
1694897.313899999
 21
1666200.01
 31
0.0
100
AcDbText
  0
TEXT
  5
138DD
330
240
100
AcDbEntity
  8
A_4
100
AcDbText
 10
7107092.7997
 20
1836200.009999999
 30
0.0
 40
27000.0
  1

 50
90.0
 72
     1
 11
7107092.7997
 21
1836200.009999999
 31
0.0
100
AcDbText
  0
TEXT
  5
138DE
330
240
100
AcDbEntity
  8
A_4
100
AcDbText
 10
7018231.163500002
 20
1836200.009999999
 30
0.0
 40
27000.0
  1

 50
90.0
 72
     1
 11
7018231.163500002
 21
1836200.009999999
 31
0.0
100
AcDbText
  0
TEXT
  5
138DF
330
240
100
AcDbEntity
  8
A_4
100
AcDbText
 10
7018231.163500002
 20
1810200.01
 30
0.0
 40
27000.0
  1

 50
90.0
 72
     1
 11
7018231.163500002
 21
1810200.01
 31
0.0
100
AcDbText
  0
TEXT
  5
138E0
330
240
100
AcDbEntity
  8
A_4
100
AcDbText
 10
1680540.5357
 20
3343243.256899997
 30
0.0
 40
27000.0
  1

 50
333.2760069999999
 72
     1
 11
1680540.5357
 21
3343243.256899997
 31
0.0
100
AcDbText
  0
TEXT
  5
138E1
330
240
100
AcDbEntity
  8
A_4
100
AcDbText
 10
2017877.0932
 20
3186668.345199998
 30
0.0
 40
27000.0
  1

 50
336.927208
 72
     1
 11
2017877.0932
 21
3186668.345199998
 31
0.0
100
AcDbText
  0
TEXT
  5
138E2
330
240
100
AcDbEntity
  8
A_4
100
AcDbText
 10
3664078.9569
 20
3274945.5837
 30
0.0
 40
27000.0
  1

 50
353.077004
 72
     1
 11
3664078.9569
 21
3274945.5837
 31
0.0
100
AcDbText
  0
TEXT
  5
138E3
330
240
100
AcDbEntity
  8
A_5
100
AcDbText
 10
3194261.5117
 20
1611000.009999998
 30
0.0
 40
40000.0
  1

 72
     1
 11
3194261.5117
 21
1611000.009999998
 31
0.0
100
AcDbText
  0
TEXT
  5
138E4
330
240
100
AcDbEntity
  8
A_7
100
AcDbText
 10
6900406.342700001
 20
4117516.235299998
 30
0.0
 40
27000.0
  1

 50
129.648355
 72
     1
 11
6900406.342700001
 21
4117516.235299998
 31
0.0
100
AcDbText
  0
TEXT
  5
138E5
330
240
100
AcDbEntity
  8
A_7
100
AcDbText
 10
7122752.518700001
 20
3848956.2882
 30
0.0
 40
27000.0
  1

 50
129.9977979999999
 72
     1
 11
7122752.518700001
 21
3848956.2882
 31
0.0
100
AcDbText
  0
TEXT
  5
14FF6
330
240
100
AcDbEntity
  8
A_4
100
AcDbText
 10
3155.908322113468
 20
9220.0000065561
 30
0.0
 40
108.0
  1
측 면 도
 72
     1
 11
3469.108322113469
 21
9220.0000065561
 31
0.0
100
AcDbText
  0
TEXT
  5
15022
330
240
100
AcDbEntity
  8
A_4
100
AcDbText
 10
4842.358322113464
 20
9220.0000065561
 30
0.0
 40
108.0
  1
단 면 도
 72
     1
 11
5160.358322113464
 21
9220.0000065561
 31
0.0
100
AcDbText
  0
TEXT
  5
150E8
330
240
100
AcDbEntity
  8
A_6
100
AcDbText
 10
12064.09125279021
 20
10014.56294510895
 30
0.0
 40
108.0
  1
동바리 설치용 고리 상세
100
AcDbText
  0
TEXT
  5
168E8
330
240
100
AcDbEntity
  8
A_4
100
AcDbText
 10
6802600.923200001
 20
2088000.01
 30
0.0
 40
27000.0
  1

 72
     1
 11
6802600.923200001
 21
2088000.01
 31
0.0
100
AcDbText
  0
TEXT
  5
168E9
330
240
100
AcDbEntity
  8
A_4
100
AcDbText
 10
6796752.744499997
 20
2088000.01
 30
0.0
 40
27000.0
  1

 72
     1
 11
6796752.744499997
 21
2088000.01
 31
0.0
100
AcDbText
  0
TEXT
  5
168EA
330
240
100
AcDbEntity
  8
A_4
100
AcDbText
 10
6688425.713300001
 20
2046000.01
 30
0.0
 40
27000.0
  1

 72
     1
 11
6688425.713300001
 21
2046000.01
 31
0.0
100
AcDbText
  0
TEXT
  5
168EB
330
240
100
AcDbEntity
  8
A_4
100
AcDbText
 10
6572580.696400001
 20
2046000.01
 30
0.0
 40
27000.0
  1

 72
     1
 11
6572580.696400001
 21
2046000.01
 31
0.0
100
AcDbText
  0
TEXT
  5
168EC
330
240
100
AcDbEntity
  8
A_4
100
AcDbText
 10
6456384.6139
 20
2046000.01
 30
0.0
 40
27000.0
  1

 72
     1
 11
6456384.6139
 21
2046000.01
 31
0.0
100
AcDbText
  0
TEXT
  5
168ED
330
240
100
AcDbEntity
  8
A_4
100
AcDbText
 10
6327738.634400002
 20
2046000.01
 30
0.0
 40
27000.0
  1

 72
     1
 11
6327738.634400002
 21
2046000.01
 31
0.0
100
AcDbText
  0
TEXT
  5
168EE
330
240
100
AcDbEntity
  8
A_4
100
AcDbText
 10
6211518.407100002
 20
2046000.01
 30
0.0
 40
27000.0
  1

 72
     1
 11
6211518.407100002
 21
2046000.01
 31
0.0
100
AcDbText
  0
TEXT
  5
168EF
330
240
100
AcDbEntity
  8
A_4
100
AcDbText
 10
6094372.3241
 20
2046000.01
 30
0.0
 40
27000.0
  1

 72
     1
 11
6094372.3241
 21
2046000.01
 31
0.0
100
AcDbText
  0
TEXT
  5
168F0
330
240
100
AcDbEntity
  8
A_4
100
AcDbText
 10
5976281.045599997
 20
2046000.01
 30
0.0
 40
27000.0
  1

 72
     1
 11
5976281.045599997
 21
2046000.01
 31
0.0
100
AcDbText
  0
TEXT
  5
168F1
330
240
100
AcDbEntity
  8
A_4
100
AcDbText
 10
5857237.065499997
 20
2046000.01
 30
0.0
 40
27000.0
  1

 72
     1
 11
5857237.065499997
 21
2046000.01
 31
0.0
100
AcDbText
  0
TEXT
  5
168F2
330
240
100
AcDbEntity
  8
A_4
100
AcDbText
 10
2063962.2843
 20
2046000.01
 30
0.0
 40
27000.0
  1

 72
     1
 11
2063962.2843
 21
2046000.01
 31
0.0
100
AcDbText
  0
TEXT
  5
168F3
330
240
100
AcDbEntity
  8
A_4
100
AcDbText
 10
1936807.104499998
 20
2046000.01
 30
0.0
 40
27000.0
  1

 72
     1
 11
1936807.104499998
 21
2046000.01
 31
0.0
100
AcDbText
  0
TEXT
  5
168F4
330
240
100
AcDbEntity
  8
A_4
100
AcDbText
 10
6802600.923200001
 20
2188000.009999999
 30
0.0
 40
27000.0
  1

 72
     1
 11
6802600.923200001
 21
2188000.009999999
 31
0.0
100
AcDbText
  0
TEXT
  5
168F5
330
240
100
AcDbEntity
  8
A_4
100
AcDbText
 10
6796752.744499997
 20
2188000.009999999
 30
0.0
 40
27000.0
  1

 72
     1
 11
6796752.744499997
 21
2188000.009999999
 31
0.0
100
AcDbText
  0
TEXT
  5
168F6
330
240
100
AcDbEntity
  8
A_4
100
AcDbText
 10
6802600.923200001
 20
2288000.009999997
 30
0.0
 40
27000.0
  1

 72
     1
 11
6802600.923200001
 21
2288000.009999997
 31
0.0
100
AcDbText
  0
TEXT
  5
168F7
330
240
100
AcDbEntity
  8
A_4
100
AcDbText
 10
6802600.923200001
 20
1320000.01
 30
0.0
 40
27000.0
  1

 72
     1
 11
6802600.923200001
 21
1320000.01
 31
0.0
100
AcDbText
  0
TEXT
  5
168F8
330
240
100
AcDbEntity
  8
A_4
100
AcDbText
 10
6796752.744499997
 20
1320000.01
 30
0.0
 40
27000.0
  1

 72
     1
 11
6796752.744499997
 21
1320000.01
 31
0.0
100
AcDbText
  0
TEXT
  5
168F9
330
240
100
AcDbEntity
  8
A_4
100
AcDbText
 10
1929249.7947
 20
1278000.009999999
 30
0.0
 40
27000.0
  1

 72
     1
 11
1929249.7947
 21
1278000.009999999
 31
0.0
100
AcDbText
  0
TEXT
  5
168FA
330
240
100
AcDbEntity
  8
A_4
100
AcDbText
 10
2148687.8622
 20
1518000.009999999
 30
0.0
 40
27000.0
  1

 72
     1
 11
2148687.8622
 21
1518000.009999999
 31
0.0
100
AcDbText
  0
TEXT
  5
168FB
330
240
100
AcDbEntity
  8
A_4
100
AcDbText
 10
6869847.308399998
 20
3304853.197599998
 30
0.0
 40
27000.0
  1

 50
24.52472999999999
 72
     1
 11
6869847.308399998
 21
3304853.197599998
 31
0.0
100
AcDbText
  0
TEXT
  5
168FC
330
240
100
AcDbEntity
  8
A_4
100
AcDbText
 10
6935092.394600001
 20
3500004.442099998
 30
0.0
 40
27000.0
  1

 50
25.377232
 72
     1
 11
6935092.394600001
 21
3500004.442099998
 31
0.0
100
AcDbText
  0
TEXT
  5
168FD
330
240
100
AcDbEntity
  8
A_4
100
AcDbText
 10
6640572.0046
 20
4376607.000199999
 30
0.0
 40
27000.0
  1

 50
26.033815
 72
     1
 11
6640572.0046
 21
4376607.000199999
 31
0.0
100
AcDbText
  0
TEXT
  5
168FE
330
240
100
AcDbEntity
  8
A_4
100
AcDbText
 10
6596681.8521
 20
4466460.517199998
 30
0.0
 40
27000.0
  1

 50
26.033815
 72
     1
 11
6596681.8521
 21
4466460.517199998
 31
0.0
100
AcDbText
  0
TEXT
  5
168FF
330
240
100
AcDbEntity
  8
A_4
100
AcDbText
 10
7090446.067800002
 20
3455608.4512
 30
0.0
 40
27000.0
  1

 50
26.033815
 72
     1
 11
7090446.067800002
 21
3455608.4512
 31
0.0
100
AcDbText
  0
TEXT
  5
16900
330
240
100
AcDbEntity
  8
A_4
100
AcDbText
 10
7134336.220399997
 20
3365754.934299997
 30
0.0
 40
27000.0
  1

 50
26.033815
 72
     1
 11
7134336.220399997
 21
3365754.934299997
 31
0.0
100
AcDbText
  0
TEXT
  5
16901
330
240
100
AcDbEntity
  8
A_4
100
AcDbText
 10
6646228.096200002
 20
4379371.964699998
 30
0.0
 40
27000.0
  1

 50
26.069279
 72
     1
 11
6646228.096200002
 21
4379371.964699998
 31
0.0
100
AcDbText
  0
TEXT
  5
16902
330
240
100
AcDbEntity
  8
A_4
100
AcDbText
 10
6602282.3368
 20
4469198.298500002
 30
0.0
 40
27000.0
  1

 50
26.069279
 72
     1
 11
6602282.3368
 21
4469198.298500002
 31
0.0
100
AcDbText
  0
TEXT
  5
16903
330
240
100
AcDbEntity
  8
A_4
100
AcDbText
 10
6558336.577400001
 20
4559024.632199998
 30
0.0
 40
27000.0
  1

 50
26.069279
 72
     1
 11
6558336.577400001
 21
4559024.632199998
 31
0.0
100
AcDbText
  0
TEXT
  5
16904
330
240
100
AcDbEntity
  8
A_4
100
AcDbText
 10
7096672.13
 20
3458652.043999998
 30
0.0
 40
27000.0
  1

 50
26.069279
 72
     1
 11
7096672.13
 21
3458652.043999998
 31
0.0
100
AcDbText
  0
TEXT
  5
16905
330
240
100
AcDbEntity
  8
A_4
100
AcDbText
 10
7140617.889400001
 20
3368825.710299998
 30
0.0
 40
27000.0
  1

 50
26.069279
 72
     1
 11
7140617.889400001
 21
3368825.710299998
 31
0.0
100
AcDbText
  0
TEXT
  5
16906
330
240
100
AcDbEntity
  8
A_4
100
AcDbText
 10
1694897.313899999
 20
1666200.01
 30
0.0
 40
27000.0
  1

 50
90.0
 72
     1
 11
1694897.313899999
 21
1666200.01
 31
0.0
100
AcDbText
  0
TEXT
  5
16907
330
240
100
AcDbEntity
  8
A_4
100
AcDbText
 10
7107092.7997
 20
1836200.009999999
 30
0.0
 40
27000.0
  1

 50
90.0
 72
     1
 11
7107092.7997
 21
1836200.009999999
 31
0.0
100
AcDbText
  0
TEXT
  5
16908
330
240
100
AcDbEntity
  8
A_4
100
AcDbText
 10
7018231.163500002
 20
1836200.009999999
 30
0.0
 40
27000.0
  1

 50
90.0
 72
     1
 11
7018231.163500002
 21
1836200.009999999
 31
0.0
100
AcDbText
  0
TEXT
  5
16909
330
240
100
AcDbEntity
  8
A_4
100
AcDbText
 10
7018231.163500002
 20
1810200.01
 30
0.0
 40
27000.0
  1

 50
90.0
 72
     1
 11
7018231.163500002
 21
1810200.01
 31
0.0
100
AcDbText
  0
TEXT
  5
1690A
330
240
100
AcDbEntity
  8
A_4
100
AcDbText
 10
1680540.5357
 20
3343243.256899997
 30
0.0
 40
27000.0
  1

 50
333.2760069999999
 72
     1
 11
1680540.5357
 21
3343243.256899997
 31
0.0
100
AcDbText
  0
TEXT
  5
1690B
330
240
100
AcDbEntity
  8
A_4
100
AcDbText
 10
2017877.0932
 20
3186668.345199997
 30
0.0
 40
27000.0
  1

 50
336.927208
 72
     1
 11
2017877.0932
 21
3186668.345199997
 31
0.0
100
AcDbText
  0
TEXT
  5
1690C
330
240
100
AcDbEntity
  8
A_4
100
AcDbText
 10
3664078.9569
 20
3274945.5837
 30
0.0
 40
27000.0
  1

 50
353.077004
 72
     1
 11
3664078.9569
 21
3274945.5837
 31
0.0
100
AcDbText
  0
TEXT
  5
1690D
330
240
100
AcDbEntity
  8
A_5
100
AcDbText
 10
3194261.5117
 20
1611000.009999998
 30
0.0
 40
40000.0
  1

 72
     1
 11
3194261.5117
 21
1611000.009999998
 31
0.0
100
AcDbText
  0
TEXT
  5
1690E
330
240
100
AcDbEntity
  8
A_7
100
AcDbText
 10
6900406.342700001
 20
4117516.235299998
 30
0.0
 40
27000.0
  1

 50
129.648355
 72
     1
 11
6900406.342700001
 21
4117516.235299998
 31
0.0
100
AcDbText
  0
TEXT
  5
1690F
330
240
100
AcDbEntity
  8
A_7
100
AcDbText
 10
7122752.518700001
 20
3848956.2882
 30
0.0
 40
27000.0
  1

 50
129.9977979999999
 72
     1
 11
7122752.518700001
 21
3848956.2882
 31
0.0
100
AcDbText
  0
ENDSEC
  0
SECTION
  2
OBJECTS
  0
DICTIONARY
  5
11459
330
0
100
AcDbDictionary
  3
ACAD_COLOR
350
17173
  3
ACAD_GROUP
350
11460
  3
ACAD_LAYOUT
350
1146B
  3
ACAD_MATERIAL
350
17172
  3
ACAD_MLINESTYLE
350
11461
  3
ACAD_PLOTSETTINGS
350
1146C
  3
ACAD_PLOTSTYLENAME
350
11469
  3
ACDBHEADERROUNDTRIPXREC
350
1728D
  3
ACDBVARIABLEDICTIONARY
350
17118
  0
DICTIONARY
  5
1517C
330
117
100
AcDbDictionary
280
     1
  3
ACAD_LAYERFILTERS
360
1517D
  0
DICTIONARY
  5
17104
330
240
100
AcDbDictionary
280
     1
  3
ACAD_LAYOUTSELFREF
360
172AD
  0
DICTIONARY
  5
17106
330
241
100
AcDbDictionary
280
     1
  3
ACAD_LAYOUTSELFREF
360
172AE
  0
DICTIONARY
  5
17173
102
{ACAD_REACTORS
330
11459
102
}
330
11459
100
AcDbDictionary
  0
DICTIONARY
  5
11460
102
{ACAD_REACTORS
330
11459
102
}
330
11459
100
AcDbDictionary
  0
DICTIONARY
  5
1146B
102
{ACAD_REACTORS
330
11459
102
}
330
11459
100
AcDbDictionary
  0
DICTIONARY
  5
17172
102
{ACAD_REACTORS
330
11459
102
}
330
11459
100
AcDbDictionary
  0
DICTIONARY
  5
11461
102
{ACAD_REACTORS
330
11459
102
}
330
11459
100
AcDbDictionary
  3
STANDARD
350
11462
  0
DICTIONARY
  5
1146C
102
{ACAD_REACTORS
330
11459
102
}
330
11459
100
AcDbDictionary
  0
ACDBDICTIONARYWDFLT
  5
11469
102
{ACAD_REACTORS
330
11459
102
}
330
11459
100
AcDbDictionary
281
     1
  3
Normal
350
1146A
100
AcDbDictionaryWithDefault
340
1146A
  0
DICTIONARY
  5
1728D
102
{ACAD_REACTORS
330
11459
102
}
330
11459
100
AcDbDictionary
  3
CEPSNTYPE
350
17297
  3
FINGERPRINTGUID
350
17298
  3
HYPERLINKBASE
350
17290
  3
INSUNITS
350
17296
  3
LAYOUTDICT
350
17292
  3
LWETCUNION
350
17295
  3
PLOTSETDICT
350
17293
  3
PLOTSTYLNAMDICT
350
17294
  3
PSVPSCALE
350
1729A
  3
PUCSBASE
350
1729D
  3
PUCSORGBACK
350
172A3
  3
PUCSORGBOTTOM
350
1729F
  3
PUCSORGFRONT
350
172A2
  3
PUCSORGLEFT
350
172A0
  3
PUCSORGRIGHT
350
172A1
  3
PUCSORGTOP
350
1729E
  3
PUCSORTHOREF
350
1729B
  3
PUCSORTHOVIEW
350
1729C
  3
STYLESHEET
350
17291
  3
TSTACKALIGN
350
1728E
  3
TSTACKSIZE
350
1728F
  3
UCSBASE
350
172A6
  3
UCSORGBACK
350
172AC
  3
UCSORGBOTTOM
350
172A8
  3
UCSORGFRONT
350
172AB
  3
UCSORGLEFT
350
172A9
  3
UCSORGRIGHT
350
172AA
  3
UCSORGTOP
350
172A7
  3
UCSORTHOREF
350
172A4
  3
UCSORTHOVIEW
350
172A5
  3
VERSIONGUID
350
17299
  0
DICTIONARY
  5
17118
102
{ACAD_REACTORS
330
11459
102
}
330
11459
100
AcDbDictionary
  3
DIMASSOC
350
17119
  3
PROJECTNAME
350
1717B
  0
DICTIONARY
  5
1517D
102
{ACAD_REACTORS
330
1517C
102
}
330
1517C
100
AcDbDictionary
280
     1
  3
2
360
1517E
  3
COLOR
360
1517F
  3
DOR-H
360
15180
  3
FROZEN
360
15181
  3
KCK
360
15182
  3
MRKCK
360
15183
  3
실박스
360
15184
  3
주차
360
15185
  0
XRECORD
  5
172AD
102
{ACAD_REACTORS
330
17104
102
}
330
17104
100
AcDbXrecord
340
240
  0
XRECORD
  5
172AE
102
{ACAD_REACTORS
330
17106
102
}
330
17106
100
AcDbXrecord
340
241
  0
MLINESTYLE
  5
11462
102
{ACAD_REACTORS
330
11461
102
}
330
11461
100
AcDbMlineStyle
  2
STANDARD
 70
     0
  3

 62
   256
 51
90.0
 52
90.0
 71
     2
 49
0.5
 62
   256
  6
BYLAYER
 49
-0.5
 62
   256
  6
BYLAYER
  0
ACDBPLACEHOLDER
  5
1146A
102
{ACAD_REACTORS
330
11469
102
}
330
11469
100
AcDbPlaceHolder
280
     0
  0
XRECORD
  5
17297
102
{ACAD_REACTORS
330
1728D
102
}
330
1728D
100
AcDbXrecord
 90
        0
  0
XRECORD
  5
17298
102
{ACAD_REACTORS
330
1728D
102
}
330
1728D
100
AcDbXrecord
  1
{025B7FED-1703-11D6-BE70-00105A818BF8}
  0
XRECORD
  5
17290
102
{ACAD_REACTORS
330
1728D
102
}
330
1728D
100
AcDbXrecord
  1

  0
XRECORD
  5
17296
102
{ACAD_REACTORS
330
1728D
102
}
330
1728D
100
AcDbXrecord
 90
        0
  0
XRECORD
  5
17292
102
{ACAD_REACTORS
330
1728D
102
}
330
1728D
100
AcDbXrecord
340
1146B
  0
XRECORD
  5
17295
102
{ACAD_REACTORS
330
1728D
102
}
330
1728D
100
AcDbXrecord
 90
    10781
  0
XRECORD
  5
17293
102
{ACAD_REACTORS
330
1728D
102
}
330
1728D
100
AcDbXrecord
340
1146C
  0
XRECORD
  5
17294
102
{ACAD_REACTORS
330
1728D
102
}
330
1728D
100
AcDbXrecord
340
11469
  0
XRECORD
  5
1729A
102
{ACAD_REACTORS
330
1728D
102
}
330
1728D
100
AcDbXrecord
 40
0.0
  0
XRECORD
  5
1729D
102
{ACAD_REACTORS
330
1728D
102
}
330
1728D
100
AcDbXrecord
340
0
  0
XRECORD
  5
172A3
102
{ACAD_REACTORS
330
1728D
102
}
330
1728D
100
AcDbXrecord
 10
0.0
 20
0.0
 30
0.0
  0
XRECORD
  5
1729F
102
{ACAD_REACTORS
330
1728D
102
}
330
1728D
100
AcDbXrecord
 10
0.0
 20
0.0
 30
0.0
  0
XRECORD
  5
172A2
102
{ACAD_REACTORS
330
1728D
102
}
330
1728D
100
AcDbXrecord
 10
0.0
 20
0.0
 30
0.0
  0
XRECORD
  5
172A0
102
{ACAD_REACTORS
330
1728D
102
}
330
1728D
100
AcDbXrecord
 10
0.0
 20
0.0
 30
0.0
  0
XRECORD
  5
172A1
102
{ACAD_REACTORS
330
1728D
102
}
330
1728D
100
AcDbXrecord
 10
0.0
 20
0.0
 30
0.0
  0
XRECORD
  5
1729E
102
{ACAD_REACTORS
330
1728D
102
}
330
1728D
100
AcDbXrecord
 10
0.0
 20
0.0
 30
0.0
  0
XRECORD
  5
1729B
102
{ACAD_REACTORS
330
1728D
102
}
330
1728D
100
AcDbXrecord
340
0
  0
XRECORD
  5
1729C
102
{ACAD_REACTORS
330
1728D
102
}
330
1728D
100
AcDbXrecord
 70
     0
  0
XRECORD
  5
17291
102
{ACAD_REACTORS
330
1728D
102
}
330
1728D
100
AcDbXrecord
  1
A3일반도.CTB
  0
XRECORD
  5
1728E
102
{ACAD_REACTORS
330
1728D
102
}
330
1728D
100
AcDbXrecord
 90
        1
  0
XRECORD
  5
1728F
102
{ACAD_REACTORS
330
1728D
102
}
330
1728D
100
AcDbXrecord
 90
       70
  0
XRECORD
  5
172A6
102
{ACAD_REACTORS
330
1728D
102
}
330
1728D
100
AcDbXrecord
340
0
  0
XRECORD
  5
172AC
102
{ACAD_REACTORS
330
1728D
102
}
330
1728D
100
AcDbXrecord
 10
0.0
 20
0.0
 30
0.0
  0
XRECORD
  5
172A8
102
{ACAD_REACTORS
330
1728D
102
}
330
1728D
100
AcDbXrecord
 10
0.0
 20
0.0
 30
0.0
  0
XRECORD
  5
172AB
102
{ACAD_REACTORS
330
1728D
102
}
330
1728D
100
AcDbXrecord
 10
0.0
 20
0.0
 30
0.0
  0
XRECORD
  5
172A9
102
{ACAD_REACTORS
330
1728D
102
}
330
1728D
100
AcDbXrecord
 10
0.0
 20
0.0
 30
0.0
  0
XRECORD
  5
172AA
102
{ACAD_REACTORS
330
1728D
102
}
330
1728D
100
AcDbXrecord
 10
0.0
 20
0.0
 30
0.0
  0
XRECORD
  5
172A7
102
{ACAD_REACTORS
330
1728D
102
}
330
1728D
100
AcDbXrecord
 10
0.0
 20
0.0
 30
0.0
  0
XRECORD
  5
172A4
102
{ACAD_REACTORS
330
1728D
102
}
330
1728D
100
AcDbXrecord
340
0
  0
XRECORD
  5
172A5
102
{ACAD_REACTORS
330
1728D
102
}
330
1728D
100
AcDbXrecord
 70
     0
  0
XRECORD
  5
17299
102
{ACAD_REACTORS
330
1728D
102
}
330
1728D
100
AcDbXrecord
  1
{59775981-CBD8-4289-8C6E-FBCDD074A145}
  0
DICTIONARYVAR
  5
17119
102
{ACAD_REACTORS
330
17118
102
}
330
17118
100
DictionaryVariables
280
     0
  1
1
  0
DICTIONARYVAR
  5
1717B
102
{ACAD_REACTORS
330
17118
102
}
330
17118
100
DictionaryVariables
280
     0
  1

  0
XRECORD
  5
1517E
102
{ACAD_REACTORS
330
1517D
102
}
330
1517D
100
AcDbXrecord
  1
2
  1
*
  1
2
  1
*
 70
     0
  1
*
  1
*
  0
XRECORD
  5
1517F
102
{ACAD_REACTORS
330
1517D
102
}
330
1517D
100
AcDbXrecord
  1
COLOR
  1
*
  1
253
  1
*
 70
     0
  1
*
  1
*
  0
XRECORD
  5
15180
102
{ACAD_REACTORS
330
1517D
102
}
330
1517D
100
AcDbXrecord
  1
DOR-H
  1
*
  1
7
  1
*
 70
     0
  1
*
  1
*
  0
XRECORD
  5
15181
102
{ACAD_REACTORS
330
1517D
102
}
330
1517D
100
AcDbXrecord
  1
FROZEN
  1
*
  1
*
  1
*
 70
     0
  1
*
  1
*
  0
XRECORD
  5
15182
102
{ACAD_REACTORS
330
1517D
102
}
330
1517D
100
AcDbXrecord
  1
kck
  1
*
  1
*
  1
*
 70
     0
  1
*
  1
*
  0
XRECORD
  5
15183
102
{ACAD_REACTORS
330
1517D
102
}
330
1517D
100
AcDbXrecord
  1
MRKCK
  1
*
  1
*
  1
*
 70
     0
  1
*
  1
*
  0
XRECORD
  5
15184
102
{ACAD_REACTORS
330
1517D
102
}
330
1517D
100
AcDbXrecord
  1
실박스
  1
BLO,SYM,SYM1,SYM2
  1
*
  1
*
 70
     0
  1
*
  1
*
  0
XRECORD
  5
15185
102
{ACAD_REACTORS
330
1517D
102
}
330
1517D
100
AcDbXrecord
  1
주차
  1
car*
  1
*
  1
*
 70
     0
  1
*
  1
*
  0
ENDSEC
  0
EOF
