  0
SECTION
  2
HEADER
  9
$ACADVER
  1
AC1018
  9
$ACADMAINTVER
 70
     0
  9
$DWGCODEPAGE
  3
ANSI_949
  9
$INSBASE
 10
646416.6275045606
 20
275302.2361223559
 30
0.0
  9
$EXTMIN
 10
646427.5126204855
 20
275315.8580292125
 30
0.0
  9
$EXTMAX
 10
647234.0763705084
 20
275627.8656948877
 30
0.0
  9
$LIMMIN
 10
209179.83
 20
434736.85
  9
$LIMMAX
 10
209623.63
 20
435026.19
  9
$ORTHOMODE
 70
     0
  9
$REGENMODE
 70
     1
  9
$FILLMODE
 70
     1
  9
$QTEXTMODE
 70
     0
  9
$MIRRTEXT
 70
     0
  9
$LTSCALE
 40
3000.0
  9
$ATTMODE
 70
     1
  9
$TEXTSIZE
 40
2.0
  9
$TRACEWID
 40
0.05
  9
$TEXTSTYLE
  7
°ß°íµñ
  9
$CLAYER
  8
0
  9
$CELTYPE
  6
BYLAYER
  9
$CECOLOR
 62
   256
  9
$CELTSCALE
 40
0.3
  9
$DISPSILH
 70
     0
  9
$DIMSCALE
 40
1.0
  9
$DIMASZ
 40
1.0
  9
$DIMEXO
 40
0.0625
  9
$DIMDLI
 40
0.38
  9
$DIMRND
 40
0.0
  9
$DIMDLE
 40
0.0
  9
$DIMEXE
 40
0.18
  9
$DIMTP
 40
0.0
  9
$DIMTM
 40
0.0
  9
$DIMTXT
 40
2.0
  9
$DIMCEN
 40
0.09
  9
$DIMTSZ
 40
0.0
  9
$DIMTOL
 70
     0
  9
$DIMLIM
 70
     0
  9
$DIMTIH
 70
     1
  9
$DIMTOH
 70
     1
  9
$DIMSE1
 70
     0
  9
$DIMSE2
 70
     0
  9
$DIMTAD
 70
     1
  9
$DIMZIN
 70
     1
  9
$DIMBLK
  1
Dot
  9
$DIMASO
 70
     1
  9
$DIMSHO
 70
     1
  9
$DIMPOST
  1

  9
$DIMAPOST
  1

  9
$DIMALT
 70
     0
  9
$DIMALTD
 70
     2
  9
$DIMALTF
 40
25.4
  9
$DIMLFAC
 40
1.0
  9
$DIMTOFL
 70
     0
  9
$DIMTVP
 40
0.0
  9
$DIMTIX
 70
     0
  9
$DIMSOXD
 70
     0
  9
$DIMSAH
 70
     0
  9
$DIMBLK1
  1

  9
$DIMBLK2
  1

  9
$DIMSTYLE
  2
STANDARD
  9
$DIMCLRD
 70
     0
  9
$DIMCLRE
 70
     0
  9
$DIMCLRT
 70
     0
  9
$DIMTFAC
 40
1.0
  9
$DIMGAP
 40
0.1
  9
$DIMJUST
 70
     0
  9
$DIMSD1
 70
     0
  9
$DIMSD2
 70
     0
  9
$DIMTOLJ
 70
     1
  9
$DIMTZIN
 70
     0
  9
$DIMALTZ
 70
     0
  9
$DIMALTTZ
 70
     0
  9
$DIMUPT
 70
     0
  9
$DIMDEC
 70
     4
  9
$DIMTDEC
 70
     4
  9
$DIMALTU
 70
     2
  9
$DIMALTTD
 70
     2
  9
$DIMTXSTY
  7
Áß°íµñ
  9
$DIMAUNIT
 70
     0
  9
$DIMADEC
 70
     0
  9
$DIMALTRND
 40
0.0
  9
$DIMAZIN
 70
     0
  9
$DIMDSEP
 70
    46
  9
$DIMATFIT
 70
     3
  9
$DIMFRAC
 70
     0
  9
$DIMLDRBLK
  1
Dot
  9
$DIMLUNIT
 70
     2
  9
$DIMLWD
 70
    -2
  9
$DIMLWE
 70
    -2
  9
$DIMTMOVE
 70
     0
  9
$LUNITS
 70
     2
  9
$LUPREC
 70
     5
  9
$SKETCHINC
 40
0.1
  9
$FILLETRAD
 40
0.0
  9
$AUNITS
 70
     0
  9
$AUPREC
 70
     5
  9
$MENU
  1
.
  9
$ELEVATION
 40
0.0
  9
$PELEVATION
 40
0.0
  9
$THICKNESS
 40
0.0
  9
$LIMCHECK
 70
     0
  9
$CHAMFERA
 40
0.5
  9
$CHAMFERB
 40
0.5
  9
$CHAMFERC
 40
0.0
  9
$CHAMFERD
 40
0.0
  9
$SKPOLY
 70
     0
  9
$TDCREATE
 40
2451571.405862500
  9
$TDUCREATE
 40
2451571.030862500
  9
$TDUPDATE
 40
2453980.598774954
  9
$TDUUPDATE
 40
2453980.223774954
  9
$TDINDWG
 40
62.6580826273
  9
$TDUSRTIMER
 40
62.6580826273
  9
$USRTIMER
 70
     1
  9
$ANGBASE
 50
0.0
  9
$ANGDIR
 70
     0
  9
$PDMODE
 70
     0
  9
$PDSIZE
 40
0.0
  9
$PLINEWID
 40
50.0
  9
$SPLFRAME
 70
     0
  9
$SPLINETYPE
 70
     6
  9
$SPLINESEGS
 70
     8
  9
$HANDSEED
  5
194
  9
$SURFTAB1
 70
     6
  9
$SURFTAB2
 70
     6
  9
$SURFTYPE
 70
     6
  9
$SURFU
 70
     6
  9
$SURFV
 70
     6
  9
$UCSBASE
  2

  9
$UCSNAME
  2

  9
$UCSORG
 10
0.0
 20
0.0
 30
0.0
  9
$UCSXDIR
 10
1.0
 20
0.0
 30
0.0
  9
$UCSYDIR
 10
0.0
 20
1.0
 30
0.0
  9
$UCSORTHOREF
  2

  9
$UCSORTHOVIEW
 70
     1
  9
$UCSORGTOP
 10
0.0
 20
0.0
 30
0.0
  9
$UCSORGBOTTOM
 10
0.0
 20
0.0
 30
0.0
  9
$UCSORGLEFT
 10
0.0
 20
0.0
 30
0.0
  9
$UCSORGRIGHT
 10
0.0
 20
0.0
 30
0.0
  9
$UCSORGFRONT
 10
0.0
 20
0.0
 30
0.0
  9
$UCSORGBACK
 10
0.0
 20
0.0
 30
0.0
  9
$PUCSBASE
  2

  9
$PUCSNAME
  2

  9
$PUCSORG
 10
0.0
 20
0.0
 30
0.0
  9
$PUCSXDIR
 10
1.0
 20
0.0
 30
0.0
  9
$PUCSYDIR
 10
0.0
 20
1.0
 30
0.0
  9
$PUCSORTHOREF
  2

  9
$PUCSORTHOVIEW
 70
     0
  9
$PUCSORGTOP
 10
0.0
 20
0.0
 30
0.0
  9
$PUCSORGBOTTOM
 10
0.0
 20
0.0
 30
0.0
  9
$PUCSORGLEFT
 10
0.0
 20
0.0
 30
0.0
  9
$PUCSORGRIGHT
 10
0.0
 20
0.0
 30
0.0
  9
$PUCSORGFRONT
 10
0.0
 20
0.0
 30
0.0
  9
$PUCSORGBACK
 10
0.0
 20
0.0
 30
0.0
  9
$USERI1
 70
     0
  9
$USERI2
 70
     0
  9
$USERI3
 70
     0
  9
$USERI4
 70
     0
  9
$USERI5
 70
     0
  9
$USERR1
 40
0.0
  9
$USERR2
 40
0.0
  9
$USERR3
 40
0.0
  9
$USERR4
 40
0.0
  9
$USERR5
 40
0.0
  9
$WORLDVIEW
 70
     1
  9
$SHADEDGE
 70
     3
  9
$SHADEDIF
 70
    70
  9
$TILEMODE
 70
     1
  9
$MAXACTVP
 70
    48
  9
$PINSBASE
 10
0.0
 20
0.0
 30
0.0
  9
$PLIMCHECK
 70
     0
  9
$PEXTMIN
 10
1.000000000000000E+20
 20
1.000000000000000E+20
 30
1.000000000000000E+20
  9
$PEXTMAX
 10
-1.000000000000000E+20
 20
-1.000000000000000E+20
 30
-1.000000000000000E+20
  9
$PLIMMIN
 10
-0.2500002402958907
 20
-0.2499999962453767
  9
$PLIMMAX
 10
10.74999951940821
 20
8.249999763458731
  9
$UNITMODE
 70
     0
  9
$VISRETAIN
 70
     1
  9
$PLINEGEN
 70
     0
  9
$PSLTSCALE
 70
     1
  9
$TREEDEPTH
 70
  3020
  9
$CMLSTYLE
  2
STANDARD
  9
$CMLJUST
 70
     0
  9
$CMLSCALE
 40
1.0
  9
$PROXYGRAPHICS
 70
     1
  9
$MEASUREMENT
 70
     0
  9
$CELWEIGHT
370
    -1
  9
$ENDCAPS
280
     0
  9
$JOINSTYLE
280
     0
  9
$LWDISPLAY
290
     0
  9
$INSUNITS
 70
     0
  9
$HYPERLINKBASE
  1

  9
$STYLESHEET
  1

  9
$XEDIT
290
     1
  9
$CEPSNTYPE
380
     0
  9
$PSTYLEMODE
290
     1
  9
$FINGERPRINTGUID
  2
{CFCF0F01-D16C-490C-8FA7-06A10DE9C09C}
  9
$VERSIONGUID
  2
{AE5163E8-4D77-4A35-87B2-9FC1F7C1BFC8}
  9
$EXTNAMES
290
     1
  9
$PSVPSCALE
 40
0.0
  9
$OLESTARTUP
290
     0
  9
$SORTENTS
280
   127
  9
$INDEXCTL
280
     0
  9
$HIDETEXT
280
     1
  9
$XCLIPFRAME
290
     0
  9
$HALOGAP
280
     0
  9
$OBSCOLOR
 70
   257
  9
$OBSLTYPE
280
     0
  9
$INTERSECTIONDISPLAY
280
     0
  9
$INTERSECTIONCOLOR
 70
   257
  9
$DIMASSOC
280
     1
  9
$PROJECTNAME
  1

  0
ENDSEC
  0
SECTION
  2
CLASSES
  0
CLASS
  1
IDBUFFER
  2
AcDbIdBuffer
  3
ObjectDBX Classes
 90
        0
 91
        0
280
     0
281
     0
  0
CLASS
  1
ACDBDICTIONARYWDFLT
  2
AcDbDictionaryWithDefault
  3
ObjectDBX Classes
 90
        0
 91
        1
280
     0
281
     0
  0
CLASS
  1
DICTIONARYVAR
  2
AcDbDictionaryVar
  3
ObjectDBX Classes
 90
        0
 91
        0
280
     0
281
     0
  0
CLASS
  1
WIPEOUT
  2
AcDbWipeout
  3
"WipeOut|Product Desc: Object Enabler for WipeOut entity^I^I^I^I^I^I|Company: Autodesk, Inc.^I^I^I^I^I^I|WEB Address: www.autodesk.com"
 90
      127
 91
        0
280
     1
281
     1
  0
CLASS
  1
WIPEOUTVARIABLES
  2
AcDbWipeoutVariables
  3
"WipeOut|Product Desc:     WipeOut Dbx Application|Company:          Autodesk, Inc.|WEB Address:      www.autodesk.com"
 90
        0
 91
        0
280
     1
281
     0
  0
CLASS
  1
RASTERVARIABLES
  2
AcDbRasterVariables
  3
ISM
 90
        0
 91
        0
280
     1
281
     0
  0
CLASS
  1
IMAGEDEF
  2
AcDbRasterImageDef
  3
ISM
 90
        0
 91
        0
280
     1
281
     0
  0
CLASS
  1
SORTENTSTABLE
  2
AcDbSortentsTable
  3
ObjectDBX Classes
 90
        0
 91
        1
280
     0
281
     0
  0
CLASS
  1
SPATIAL_FILTER
  2
AcDbSpatialFilter
  3
ObjectDBX Classes
 90
        0
 91
        0
280
     0
281
     0
  0
CLASS
  1
IMAGE
  2
AcDbRasterImage
  3
ISM
 90
      127
 91
        0
280
     1
281
     1
  0
CLASS
  1
IMAGEDEF_REACTOR
  2
AcDbRasterImageDefReactor
  3
ISM
 90
        1
 91
        0
280
     1
281
     0
  0
ENDSEC
  0
SECTION
  2
TABLES
  0
TABLE
  2
VPORT
  5
23
330
0
100
AcDbSymbolTable
 70
     2
  0
VPORT
  5
193
330
23
100
AcDbSymbolTableRecord
100
AcDbViewportTableRecord
  2
*Active
 70
     0
 10
0.0
 20
0.0
 11
1.0
 21
1.0
 12
437665.5309145554
 22
129313.0554826498
 13
0.0
 23
0.0
 14
1.0
 24
1.0
 15
0.0
 25
0.0
 16
0.0
 26
0.0000000000000001
 36
1.0
 17
209215.4896080283
 27
146104.8556720757
 37
98478.50903966017
 40
668.4499791012932
 41
1.697443181818181
 42
50.0
 43
0.0
 44
0.0
 50
0.0
 51
0.0
 71
     0
 72
 20000
 73
     1
 74
     1
 75
     0
 76
     1
 77
     0
 78
     2
281
     0
 65
     1
110
0.0
120
0.0
130
0.0
111
1.0
121
0.0
131
0.0
112
0.0
122
1.0
132
0.0
 79
     0
146
0.0
  0
ENDTAB
  0
TABLE
  2
LTYPE
  5
1E
330
0
100
AcDbSymbolTable
 70
     3
  0
LTYPE
  5
1F
330
1E
100
AcDbSymbolTableRecord
100
AcDbLinetypeTableRecord
  2
BYBLOCK
 70
     0
  3

 72
    65
 73
     0
 40
0.0
  0
LTYPE
  5
20
330
1E
100
AcDbSymbolTableRecord
100
AcDbLinetypeTableRecord
  2
BYLAYER
 70
     0
  3

 72
    65
 73
     0
 40
0.0
  0
LTYPE
  5
C
330
1E
100
AcDbSymbolTableRecord
100
AcDbLinetypeTableRecord
  2
CONTINUOUS
 70
     0
  3
Solid line
 72
    65
 73
     0
 40
0.0
  0
LTYPE
  5
6F
330
1E
100
AcDbSymbolTableRecord
100
AcDbLinetypeTableRecord
  2
HIDDEN
 70
     0
  3
Hidden __ __ __ __ __ __ __ __ __ __ __ __ __ _
 72
    65
 73
     2
 40
0.375
 49
0.25
 74
     0
 49
-0.125
 74
     0
  0
LTYPE
  5
136
330
1E
100
AcDbSymbolTableRecord
100
AcDbLinetypeTableRecord
  2
CENTER
 70
     0
  3
____ _ ____ _ ____ _ ____ _ ____ _ ____ _ ____ 
 72
    65
 73
     4
 40
2.0
 49
1.25
 74
     0
 49
-0.25
 74
     0
 49
0.25
 74
     0
 49
-0.25
 74
     0
  0
ENDTAB
  0
TABLE
  2
LAYER
  5
17
102
{ACAD_XDICTIONARY
360
18
102
}
330
0
100
AcDbSymbolTable
 70
     6
  0
LAYER
  5
7
330
17
100
AcDbSymbolTableRecord
100
AcDbLayerTableRecord
  2
0
 70
     0
 62
     7
  6
CONTINUOUS
370
    -3
390
8
1001
RAK
1000
{ACET-LAYISO
1070
     0
1070
     7
1000
CONTINUOUS
1070
     1
1071
       -3
1071
        1
1005
8
1000
ACET-LAYISO}
  0
LAYER
  5
15A
330
17
100
AcDbSymbolTableRecord
100
AcDbLayerTableRecord
  2
DIM-TEXT
 70
     0
 62
     2
  6
CONTINUOUS
370
    -3
390
8
1001
RAK
1000
{ACET-LAYISO
1070
     0
1070
     2
1000
CONTINUOUS
1071
       -3
1071
        1
1005
8
1000
ACET-LAYISO}
  0
LAYER
  5
135
330
17
100
AcDbSymbolTableRecord
100
AcDbLayerTableRecord
  2
1
 70
     0
 62
     1
  6
CONTINUOUS
370
    -3
390
8
1001
RAK
1000
{ACET-LAYISO
1070
     0
1070
     1
1000
CONTINUOUS
1071
       -3
1071
        1
1005
8
1000
ACET-LAYISO}
  0
LAYER
  5
163
330
17
100
AcDbSymbolTableRecord
100
AcDbLayerTableRecord
  2
CS-STLC
 70
     0
 62
     4
  6
CONTINUOUS
370
    -3
390
8
  0
LAYER
  5
38
330
17
100
AcDbSymbolTableRecord
100
AcDbLayerTableRecord
  2
CS-DIMT
 70
     0
 62
     3
  6
CONTINUOUS
370
    -3
390
8
  0
LAYER
  5
3B
330
17
100
AcDbSymbolTableRecord
100
AcDbLayerTableRecord
  2
CS-DIML
 70
     0
 62
     1
  6
CONTINUOUS
370
    -3
390
8
  0
ENDTAB
  0
TABLE
  2
STYLE
  5
1B
330
0
100
AcDbSymbolTable
 70
     5
  0
STYLE
  5
1C
330
1B
100
AcDbSymbolTableRecord
100
AcDbTextStyleTableRecord
  2
STANDARD
 70
     0
 40
0.0
 41
1.0
 50
0.0
 71
     0
 42
0.2
  3
romans.shx
  4
ghs.shx
  0
STYLE
  5
15B
330
1B
100
AcDbSymbolTableRecord
100
AcDbTextStyleTableRecord
  2
HYÁß°íµñ
 70
     0
 40
0.0
 41
1.0
 50
0.0
 71
     0
 42
9.507145581368286
  3
H2GTRM.TTF
  4

1001
ACAD
1000
HYGothic-Medium
1071
    33042
  0
STYLE
  5
2F
330
1B
100
AcDbSymbolTableRecord
100
AcDbTextStyleTableRecord
  2
Áß°íµñ
 70
     0
 40
0.0
 41
0.85
 50
0.0
 71
     0
 42
350.0
  3
H2GTRM.TTF
  4

1001
ACAD
1000
HYGothic-Medium
1071
      257
  0
STYLE
  5
35
330
1B
100
AcDbSymbolTableRecord
100
AcDbTextStyleTableRecord
  2
°ß°íµñ
 70
     0
 40
0.0
 41
1.0
 50
0.0
 71
     0
 42
2.0
  3
H2HDRM.TTF
  4

1001
ACAD
1000
HYHeadLine-Medium
1071
    33042
  0
STYLE
  5
39
330
1B
100
AcDbSymbolTableRecord
100
AcDbTextStyleTableRecord
  2
WGTXT
 70
     0
 40
0.0
 41
1.0
 50
0.0
 71
     0
 42
2.5
  3
ROMANS.SHX
  4
WHGTXT.SHX
  0
ENDTAB
  0
TABLE
  2
VIEW
  5
21
330
0
100
AcDbSymbolTable
 70
     0
  0
ENDTAB
  0
TABLE
  2
UCS
  5
22
330
0
100
AcDbSymbolTable
 70
     0
  0
ENDTAB
  0
TABLE
  2
APPID
  5
25
330
0
100
AcDbSymbolTable
 70
     3
  0
APPID
  5
26
330
25
100
AcDbSymbolTableRecord
100
AcDbRegAppTableRecord
  2
ACAD
 70
     0
  0
APPID
  5
B
330
25
100
AcDbSymbolTableRecord
100
AcDbRegAppTableRecord
  2
ADE
 70
     0
  0
APPID
  5
D
330
25
100
AcDbSymbolTableRecord
100
AcDbRegAppTableRecord
  2
RAK
 70
     0
  0
ENDTAB
  0
TABLE
  2
DIMSTYLE
  5
27
330
0
100
AcDbSymbolTable
 70
     1
100
AcDbDimStyleTable
 71
     1
340
28
  0
DIMSTYLE
105
28
330
27
100
AcDbSymbolTableRecord
100
AcDbDimStyleTableRecord
  2
STANDARD
 70
     0
340
1C
  0
ENDTAB
  0
TABLE
  2
BLOCK_RECORD
  5
1
330
0
100
AcDbSymbolTable
 70
     1
  0
BLOCK_RECORD
  5
2
102
{ACAD_XDICTIONARY
360
3
102
}
330
1
100
AcDbSymbolTableRecord
100
AcDbBlockTableRecord
  2
*MODEL_SPACE
340
F
  0
BLOCK_RECORD
  5
11
102
{ACAD_XDICTIONARY
360
12
102
}
330
1
100
AcDbSymbolTableRecord
100
AcDbBlockTableRecord
  2
*PAPER_SPACE
340
16
  0
BLOCK_RECORD
  5
30
330
1
100
AcDbSymbolTableRecord
100
AcDbBlockTableRecord
  2
_Dot
340
0
  0
ENDTAB
  0
ENDSEC
  0
SECTION
  2
BLOCKS
  0
BLOCK
  5
6
330
2
100
AcDbEntity
  8
0
100
AcDbBlockBegin
  2
*MODEL_SPACE
 70
     0
 10
0.0
 20
0.0
 30
0.0
  3
*MODEL_SPACE
  1

  0
ENDBLK
  5
E
330
2
100
AcDbEntity
  8
0
100
AcDbBlockEnd
  0
BLOCK
  5
14
330
11
100
AcDbEntity
 67
     1
  8
0
100
AcDbBlockBegin
  2
*PAPER_SPACE
 70
     0
 10
0.0
 20
0.0
 30
0.0
  3
*PAPER_SPACE
  1

  0
ENDBLK
  5
15
330
11
100
AcDbEntity
 67
     1
  8
0
100
AcDbBlockEnd
  0
BLOCK
  5
31
330
30
100
AcDbEntity
  8
0
 62
     2
100
AcDbBlockBegin
  2
_Dot
 70
     0
 10
0.0
 20
0.0
 30
0.0
  3
_Dot
  1

  0
LWPOLYLINE
  5
32
330
30
100
AcDbEntity
  8
0
  6
ByBlock
 62
     0
100
AcDbPolyline
 90
        2
 70
     1
 43
0.5
 10
-0.25
 20
0.0
 42
1.0
 10
0.25
 20
0.0
 42
1.0
  0
LINE
  5
33
330
30
100
AcDbEntity
  8
0
  6
ByBlock
 62
     0
370
    -2
100
AcDbLine
 10
-0.5
 20
0.0
 30
0.0
 11
-1.0
 21
0.0
 31
0.0
  0
ENDBLK
  5
34
330
30
100
AcDbEntity
  8
0
 62
     2
100
AcDbBlockEnd
  0
ENDSEC
  0
SECTION
  2
ENTITIES
  0
TEXT
  5
37
330
2
100
AcDbEntity
  8
CS-DIMT
100
AcDbText
 10
647051.1950576671
 20
275490.5022333584
 30
0.0
 40
15.795
  1
FLAT SLEEVE
  7
WGTXT
100
AcDbText
  0
SOLID
  5
3A
330
2
100
AcDbEntity
  8
CS-DIML
100
AcDbTrace
 10
646993.9449634953
 20
275472.83999081
 30
0.0
 11
647004.649508489
 21
275484.4544103824
 31
0.0
 12
647006.8360448405
 22
275481.0002555882
 32
0.0
 13
647006.8360448405
 23
275481.0002555882
 33
0.0
  0
LINE
  5
3C
330
2
100
AcDbEntity
  8
CS-DIML
100
AcDbLine
 10
646993.9449634953
 20
275472.83999081
 30
0.0
 11
647034.6361968044
 21
275498.5982052792
 31
0.0
  0
LINE
  5
3D
330
2
100
AcDbEntity
  8
CS-DIML
100
AcDbLine
 10
647034.6361968044
 20
275498.5982052792
 30
0.0
 11
647049.4807542543
 21
275498.5982052792
 31
0.0
  0
LINE
  5
3E
330
2
100
AcDbEntity
  8
0
 62
     3
100
AcDbLine
 10
646760.5786673086
 20
275504.2645808891
 30
0.0
 11
646760.5786673084
 21
275414.2645813393
 31
0.0
  0
LINE
  5
3F
330
2
100
AcDbEntity
  8
0
 62
     3
100
AcDbLine
 10
646760.5786673084
 20
275414.2645813393
 30
0.0
 11
646778.9568469019
 21
275414.2645813393
 31
0.0
  0
LINE
  5
40
330
2
100
AcDbEntity
  8
0
 62
     3
100
AcDbLine
 10
646778.9568469019
 20
275414.2645813393
 30
0.0
 11
646778.9568469019
 21
275423.512137988
 31
0.0
  0
LINE
  5
41
330
2
100
AcDbEntity
  8
0
 62
     3
100
AcDbLine
 10
646786.6741317483
 20
275432.1554042676
 30
0.0
 11
646808.0844206816
 21
275434.5867701443
 31
0.0
  0
LINE
  5
42
330
2
100
AcDbEntity
  8
0
 62
     3
100
AcDbLine
 10
646813.9758172284
 20
275433.1242224666
 30
0.0
 11
646823.0494927998
 21
275426.9200393657
 31
0.0
  0
LINE
  5
43
330
2
100
AcDbEntity
  8
0
 62
     3
100
AcDbLine
 10
646827.9593545918
 20
275425.4019383663
 30
0.0
 11
646839.9943928822
 21
275425.4019383663
 31
0.0
  0
LINE
  5
44
330
2
100
AcDbEntity
  8
0
 62
     3
100
AcDbLine
 10
646841.7341568024
 20
275423.6621744461
 30
0.0
 11
646841.7341568024
 21
275419.212254018
 31
0.0
  0
LINE
  5
45
330
2
100
AcDbEntity
  8
0
 62
     3
100
AcDbLine
 10
646842.6040387623
 20
275418.3423720578
 30
0.0
 11
646853.3654335906
 21
275418.3423720578
 31
0.0
  0
LINE
  5
46
330
2
100
AcDbEntity
  8
0
 62
     3
100
AcDbLine
 10
646835.0464159567
 20
275440.8195015223
 30
0.0
 11
646835.0464159566
 21
275482.8163336931
 31
0.0
  0
LINE
  5
47
330
2
100
AcDbEntity
  8
0
 62
     3
100
AcDbLine
 10
646760.5786673086
 20
275504.2645808891
 30
0.0
 11
646777.1636294784
 21
275504.2645808891
 31
0.0
  0
LINE
  5
48
330
2
100
AcDbEntity
  8
0
 62
     3
100
AcDbLine
 10
646777.1636294784
 20
275504.2645808891
 30
0.0
 11
646777.1636294784
 21
275501.5627932622
 31
0.0
  0
LINE
  5
49
330
2
100
AcDbEntity
  8
0
 62
     3
100
AcDbLine
 10
646778.0335114385
 20
275500.6929113021
 30
0.0
 11
646858.5322494895
 21
275500.692911302
 31
0.0
  0
LINE
  5
4A
330
2
100
AcDbEntity
  8
0
 62
     3
100
AcDbLine
 10
646858.5322494895
 20
275500.692911302
 30
0.0
 11
646858.5322494895
 21
275484.9694420018
 31
0.0
  0
ARC
  5
4B
330
2
100
AcDbEntity
  8
0
 62
     3
100
AcDbCircle
 10
646871.6288715775
 20
275423.03515896
 30
0.0
 40
17.39763920225375
100
AcDbArc
 50
91.8525745412524
 51
178.7885516022081
  0
ARC
  5
4C
330
2
100
AcDbEntity
  8
0
 62
     3
100
AcDbCircle
 10
646827.9593545919
 20
275434.1007579674
 30
0.0
 40
8.698819601126876
100
AcDbArc
 50
235.6373845247444
 51
270.0
  0
ARC
  5
4D
330
2
100
AcDbEntity
  8
0
 62
     3
100
AcDbCircle
 10
646809.0659554365
 20
275425.9435038648
 30
0.0
 40
8.698819601126876
100
AcDbArc
 50
55.63738452474439
 51
96.47878969983182
  0
ARC
  5
4E
330
2
100
AcDbEntity
  8
0
 62
     3
100
AcDbCircle
 10
646787.655666503
 20
275423.512137988
 30
0.0
 40
8.698819601126876
100
AcDbArc
 50
96.47878969983182
 51
180.0
  0
LINE
  5
4F
330
2
100
AcDbEntity
  8
0
 62
     3
100
AcDbLine
 10
646837.656061837
 20
275485.4259795734
 30
0.0
 11
646837.9702202938
 21
275485.4259795734
 31
0.0
  0
LINE
  5
50
330
2
100
AcDbEntity
  8
0
 62
     3
100
AcDbLine
 10
646842.3196300943
 20
275489.775389374
 30
0.0
 11
646842.3196300943
 21
275500.6929113021
 31
0.0
  0
ARC
  5
51
330
2
100
AcDbEntity
  8
0
 62
     3
100
AcDbCircle
 10
646837.9702202938
 20
275489.775389374
 30
0.0
 40
4.349409800563438
100
AcDbArc
 50
270.0
 51
0.0
  0
ARC
  5
52
330
2
100
AcDbEntity
  8
0
 62
     3
100
AcDbCircle
 10
646837.656061837
 20
275482.816333693
 30
0.0
 40
2.609645880338062
100
AcDbArc
 50
90.0
 51
180.0
  0
ARC
  5
53
330
2
100
AcDbEntity
  8
0
 62
     3
100
AcDbCircle
 10
646839.3958257571
 20
275440.8195015223
 30
0.0
 40
4.349409800563438
100
AcDbArc
 50
180.0
 51
270.0
  0
LINE
  5
54
330
2
100
AcDbEntity
  8
0
 62
     3
100
AcDbLine
 10
646854.489531416
 20
275500.692911302
 30
0.0
 11
646854.489531416
 21
275482.2484024766
 31
0.0
  0
LINE
  5
55
330
2
100
AcDbEntity
  8
0
 62
     2
100
AcDbLine
 10
646839.0558018509
 20
275479.6417582384
 30
0.0
 11
646923.9364992086
 21
275473.4464492871
 31
0.0
  0
ARC
  5
56
330
2
100
AcDbEntity
  8
0
 62
     3
100
AcDbCircle
 10
646778.0335114385
 20
275501.5627932622
 30
0.0
 40
0.8698819601126874
100
AcDbArc
 50
180.0
 51
270.0
  0
ARC
  5
57
330
2
100
AcDbEntity
  8
0
 62
     3
100
AcDbCircle
 10
646842.6040387623
 20
275419.2122540179
 30
0.0
 40
0.8698819601126874
100
AcDbArc
 50
180.0
 51
270.0
  0
ARC
  5
58
330
2
100
AcDbEntity
  8
0
 62
     3
100
AcDbCircle
 10
646853.3654335904
 20
275419.2122540179
 30
0.0
 40
0.8698819601126874
100
AcDbArc
 50
270.0
 51
358.7885516022082
  0
LINE
  5
59
330
2
100
AcDbEntity
  8
0
 62
     3
100
AcDbLine
 10
646871.0664425806
 20
275440.4237047139
 30
0.0
 11
646923.5786671344
 21
275444.4830395179
 31
0.0
  0
ARC
  5
5A
330
2
100
AcDbEntity
  8
0
 62
     3
100
AcDbCircle
 10
646858.8389412165
 20
275483.2484024765
 30
0.0
 40
4.349409800563438
100
AcDbArc
 50
180.0
 51
264.7909074220347
  0
LINE
  5
5B
330
2
100
AcDbEntity
  8
0
 62
     3
100
AcDbLine
 10
646923.5786671344
 20
275443.1643690979
 30
0.0
 11
646923.5786671344
 21
275477.9762703546
 31
0.0
  0
LINE
  5
5C
330
2
100
AcDbEntity
  8
0
 62
     3
100
AcDbLine
 10
646903.8569682298
 20
275441.6398292514
 30
0.0
 11
646923.5786671344
 21
275443.1643690979
 31
0.0
  0
LINE
  5
5D
330
2
100
AcDbEntity
  8
0
 62
     3
100
AcDbLine
 10
646923.9364992086
 20
275447.21445411
 30
0.0
 11
646948.550275424
 21
275447.21445411
 31
0.0
  0
LINE
  5
5E
330
2
100
AcDbEntity
  8
0
 62
     3
100
AcDbLine
 10
646923.9364992086
 20
275474.4329795791
 30
0.0
 11
646948.550275424
 21
275474.4329795791
 31
0.0
  0
LINE
  5
5F
330
2
100
AcDbEntity
  8
0
 62
     3
100
AcDbLine
 10
646923.5786671344
 20
275443.1643690979
 30
0.0
 11
646927.2701287292
 21
275446.706773957
 31
0.0
  0
LINE
  5
60
330
2
100
AcDbEntity
  8
0
 62
     3
100
AcDbLine
 10
646923.9364992086
 20
275443.5077523475
 30
0.0
 11
646923.9364992086
 21
275477.6328871051
 31
0.0
  0
LINE
  5
61
330
2
100
AcDbEntity
  8
0
 62
     3
100
AcDbLine
 10
646923.9364992086
 20
275446.7648677857
 30
0.0
 11
646948.550275424
 21
275446.7648677857
 31
0.0
  0
LINE
  5
62
330
2
100
AcDbEntity
  8
0
 62
     3
100
AcDbLine
 10
646948.550275424
 20
275447.21445411
 30
0.0
 11
646948.550275424
 21
275446.7648677857
 31
0.0
  0
LINE
  5
63
330
2
100
AcDbEntity
  8
0
 62
     2
100
AcDbLine
 10
646736.5925585966
 20
275479.7495365323
 30
0.0
 11
646757.7855215572
 21
275479.7495365323
 31
0.0
  0
LINE
  5
64
330
2
100
AcDbEntity
  8
0
 62
     3
100
AcDbLine
 10
646858.4440555983
 20
275478.916955725
 30
0.0
 11
646923.9364992086
 21
275474.409236601
 31
0.0
  0
ARC
  5
65
330
2
100
AcDbEntity
  8
0
 62
     2
100
AcDbCircle
 10
646836.6864881417
 20
275453.6530777289
 30
0.0
 40
26.09645880338063
100
AcDbArc
 50
84.79090742203474
 51
90.0
  0
LINE
  5
66
330
2
100
AcDbEntity
  8
0
 62
     3
100
AcDbLine
 10
646760.5786673086
 20
275483.7670527834
 30
0.0
 11
646760.5786673086
 21
275460.3914144158
 31
0.0
  0
LINE
  5
67
330
2
100
AcDbEntity
  8
0
 62
     3
100
AcDbLine
 10
646821.2145699485
 20
275479.7495365323
 30
0.0
 11
646821.2145699485
 21
275469.6282224276
 31
0.0
  0
LINE
  5
68
330
2
100
AcDbEntity
  8
0
 62
     3
100
AcDbLine
 10
646757.7855215572
 20
275473.3840565398
 30
0.0
 11
646734.7644505173
 21
275473.3840565398
 31
0.0
  0
LINE
  5
69
330
2
100
AcDbEntity
  8
0
 62
     2
100
AcDbLine
 10
646839.0558018509
 20
275466.9107982534
 30
0.0
 11
646923.9364992086
 21
275461.8555606341
 31
0.0
  0
LINE
  5
6A
330
2
100
AcDbEntity
  8
0
 62
     2
100
AcDbLine
 10
646736.5925585966
 20
275467.0185765473
 30
0.0
 11
646757.7855215572
 21
275467.0185765473
 31
0.0
  0
ARC
  5
6B
330
2
100
AcDbEntity
  8
0
 62
     2
100
AcDbCircle
 10
646836.6864881419
 20
275440.9221177439
 30
0.0
 40
26.09645880338063
100
AcDbArc
 50
84.79090742203474
 51
90.0
  0
LINE
  5
6C
330
2
100
AcDbEntity
  8
0
 62
     2
100
AcDbLine
 10
646736.5925585966
 20
275467.0185765473
 30
0.0
 11
646736.5925585966
 21
275479.7495365323
 31
0.0
  0
LINE
  5
6D
330
2
100
AcDbEntity
  8
0
 62
     3
100
AcDbLine
 10
646903.8569682298
 20
275442.9584996714
 30
0.0
 11
646903.8569682298
 21
275441.6398292514
 31
0.0
  0
LINE
  5
6E
330
2
100
AcDbEntity
  8
0
  6
HIDDEN
 62
     3
 48
0.05
100
AcDbLine
 10
646842.3196300943
 20
275489.775389374
 30
0.0
 11
646760.5786673086
 21
275489.775389374
 31
0.0
  0
LINE
  5
70
330
2
100
AcDbEntity
  8
0
 62
     3
100
AcDbLine
 10
646802.2286579617
 20
275483.4235102226
 30
0.0
 11
646821.2145699485
 21
275479.7495365323
 31
0.0
  0
LINE
  5
71
330
2
100
AcDbEntity
  8
0
 62
     2
100
AcDbLine
 10
646821.2145699485
 20
275467.0185765472
 30
0.0
 11
646836.6864881419
 21
275467.0185765473
 31
0.0
  0
LINE
  5
72
330
2
100
AcDbEntity
  8
0
 62
     2
100
AcDbLine
 10
646821.2145699485
 20
275479.7495365323
 30
0.0
 11
646836.6864881417
 21
275479.7495365323
 31
0.0
  0
LINE
  5
73
330
2
100
AcDbEntity
  8
0
 62
     3
100
AcDbLine
 10
646757.7855215572
 20
275485.956267724
 30
0.0
 11
646757.7855215572
 21
275460.8118453556
 31
0.0
  0
LINE
  5
74
330
2
100
AcDbEntity
  8
0
 62
     3
100
AcDbLine
 10
646757.7855215572
 20
275483.7670527834
 30
0.0
 11
646757.7855215572
 21
275472.0792335996
 31
0.0
  0
LINE
  5
75
330
2
100
AcDbEntity
  8
0
 62
     3
100
AcDbLine
 10
646758.9455682433
 20
275485.956267724
 30
0.0
 11
646757.7855215572
 21
275485.956267724
 31
0.0
  0
LINE
  5
76
330
2
100
AcDbEntity
  8
0
 62
     3
100
AcDbLine
 10
646758.9455682433
 20
275485.956267724
 30
0.0
 11
646758.9455682433
 21
275460.8118453556
 31
0.0
  0
LINE
  5
77
330
2
100
AcDbEntity
  8
0
 62
     3
100
AcDbLine
 10
646760.5786673086
 20
275485.0078448652
 30
0.0
 11
646758.9455682433
 21
275485.0078448652
 31
0.0
  0
LINE
  5
78
330
2
100
AcDbEntity
  8
0
 62
     3
100
AcDbLine
 10
646821.2145699485
 20
275474.3335879242
 30
0.0
 11
646760.5786673086
 21
275474.3335879242
 31
0.0
  0
LINE
  5
79
330
2
100
AcDbEntity
  8
0
 62
     3
100
AcDbLine
 10
646821.2145699485
 20
275472.4345251553
 30
0.0
 11
646760.5786673086
 21
275472.4345251553
 31
0.0
  0
LINE
  5
7A
330
2
100
AcDbEntity
  8
0
 62
     3
100
AcDbLine
 10
646757.7855215572
 20
275471.1297022153
 30
0.0
 11
646757.7855215572
 21
275460.8118453556
 31
0.0
  0
LINE
  5
7B
330
2
100
AcDbEntity
  8
0
 62
     3
100
AcDbLine
 10
646760.5786673086
 20
275458.622630415
 30
0.0
 11
646760.5786673084
 21
275435.2469920474
 31
0.0
  0
LINE
  5
7C
330
2
100
AcDbEntity
  8
0
 62
     3
100
AcDbLine
 10
646854.2351211135
 20
275419.1938628102
 30
0.0
 11
646854.2351211135
 21
275423.4029831168
 31
0.0
  0
ARC
  5
7D
330
2
100
AcDbEntity
  8
0
 62
     3
100
AcDbCircle
 10
646839.9943928822
 20
275423.6621744461
 30
0.0
 40
1.739763920225374
100
AcDbArc
 50
0.0
 51
90.0
  0
LINE
  5
7E
330
2
100
AcDbEntity
  8
0
  6
HIDDEN
 62
     3
 48
0.05
100
AcDbLine
 10
646821.2145699485
 20
275441.8741541789
 30
0.0
 11
646835.0464159567
 21
275441.8741541789
 31
0.0
  0
LINE
  5
7F
330
2
100
AcDbEntity
  8
0
  6
HIDDEN
 62
     3
 48
0.05
100
AcDbLine
 10
646821.2145699485
 20
275454.6051141638
 30
0.0
 11
646835.0464159567
 21
275454.6051141638
 31
0.0
  0
LINE
  5
80
330
2
100
AcDbEntity
  8
0
 62
     2
100
AcDbLine
 10
646836.6864881417
 20
275454.6051141638
 30
0.0
 11
646923.9364992086
 21
275459.7737050108
 31
0.0
  0
LINE
  5
81
330
2
100
AcDbEntity
  8
0
 62
     2
100
AcDbLine
 10
646836.6864881419
 20
275441.8741541789
 30
0.0
 11
646923.9364992086
 21
275448.4361614386
 31
0.0
  0
LINE
  5
82
330
2
100
AcDbEntity
  8
0
 62
     3
100
AcDbLine
 10
646843.53785774
 20
275436.8027447311
 30
0.0
 11
646858.3035505379
 21
275442.4760103966
 31
0.0
  0
LINE
  5
83
330
2
100
AcDbEntity
  8
0
 62
     2
100
AcDbLine
 10
646821.2145699485
 20
275467.0185765472
 30
0.0
 11
646821.2145699485
 21
275479.7495365323
 31
0.0
  0
LINE
  5
84
330
2
100
AcDbEntity
  8
0
 62
     3
100
AcDbLine
 10
646760.5786673086
 20
275485.0078448652
 30
0.0
 11
646785.7021123875
 21
275485.0078448652
 31
0.0
  0
ARC
  5
85
330
2
100
AcDbEntity
  8
0
 62
     3
100
AcDbCircle
 10
646785.7021123873
 20
275398.0196488539
 30
0.0
 40
86.98819601126876
100
AcDbArc
 50
79.04802868921845
 51
90.0
  0
LINE
  5
86
330
2
100
AcDbEntity
  8
0
 62
     3
100
AcDbLine
 10
646802.2286579617
 20
275463.3446028569
 30
0.0
 11
646821.2145699485
 21
275467.0185765473
 31
0.0
  0
LINE
  5
87
330
2
100
AcDbEntity
  8
0
 62
     3
100
AcDbLine
 10
646760.5786673086
 20
275461.7602682144
 30
0.0
 11
646785.7021123875
 21
275461.7602682144
 31
0.0
  0
ARC
  5
88
330
2
100
AcDbEntity
  8
0
 62
     3
100
AcDbCircle
 10
646785.7021123875
 20
275548.7484642257
 30
0.0
 40
86.98819601126876
100
AcDbArc
 50
270.0
 51
280.9519713107815
  0
LINE
  5
89
330
2
100
AcDbEntity
  8
0
 62
     3
100
AcDbLine
 10
646758.9455682433
 20
275460.8118453556
 30
0.0
 11
646757.7855215572
 21
275460.8118453556
 31
0.0
  0
LINE
  5
8A
330
2
100
AcDbEntity
  8
0
 62
     3
100
AcDbLine
 10
646760.5786673086
 20
275461.7602682144
 30
0.0
 11
646758.9455682433
 21
275461.7602682144
 31
0.0
  0
LINE
  5
8B
330
2
100
AcDbEntity
  8
0
 62
     2
100
AcDbLine
 10
646736.5925585966
 20
275454.6051141638
 30
0.0
 11
646757.7855215572
 21
275454.6051141638
 31
0.0
  0
LINE
  5
8C
330
2
100
AcDbEntity
  8
0
 62
     3
100
AcDbLine
 10
646760.5786673086
 20
275458.622630415
 30
0.0
 11
646760.5786673084
 21
275435.2469920474
 31
0.0
  0
LINE
  5
8D
330
2
100
AcDbEntity
  8
0
  6
HIDDEN
 62
     3
 48
0.05
100
AcDbLine
 10
646821.2145699485
 20
275454.6051141638
 30
0.0
 11
646821.2145699485
 21
275444.4838000592
 31
0.0
  0
LINE
  5
8E
330
2
100
AcDbEntity
  8
0
 62
     3
100
AcDbLine
 10
646757.785521557
 20
275448.2396341714
 30
0.0
 11
646734.7644505173
 21
275448.2396341714
 31
0.0
  0
LINE
  5
8F
330
2
100
AcDbEntity
  8
0
 62
     2
100
AcDbLine
 10
646736.5925585966
 20
275441.8741541789
 30
0.0
 11
646757.7855215572
 21
275441.8741541789
 31
0.0
  0
LINE
  5
90
330
2
100
AcDbEntity
  8
0
 62
     2
100
AcDbLine
 10
646736.5925585966
 20
275441.8741541789
 30
0.0
 11
646736.5925585966
 21
275454.6051141638
 31
0.0
  0
LINE
  5
91
330
2
100
AcDbEntity
  8
0
  6
HIDDEN
 62
     3
 48
0.05
100
AcDbLine
 10
646802.2286579617
 20
275458.2790878542
 30
0.0
 11
646821.2145699485
 21
275454.6051141638
 31
0.0
  0
LINE
  5
92
330
2
100
AcDbEntity
  8
0
 62
     3
100
AcDbLine
 10
646757.7855215572
 20
275460.8118453556
 30
0.0
 11
646757.785521557
 21
275435.6674229872
 31
0.0
  0
LINE
  5
93
330
2
100
AcDbEntity
  8
0
 62
     3
100
AcDbLine
 10
646757.7855215572
 20
275458.622630415
 30
0.0
 11
646757.7855215572
 21
275446.9348112313
 31
0.0
  0
LINE
  5
94
330
2
100
AcDbEntity
  8
0
 62
     3
100
AcDbLine
 10
646758.9455682433
 20
275460.8118453556
 30
0.0
 11
646757.7855215572
 21
275460.8118453556
 31
0.0
  0
LINE
  5
95
330
2
100
AcDbEntity
  8
0
 62
     3
100
AcDbLine
 10
646758.9455682433
 20
275460.8118453556
 30
0.0
 11
646758.9455682433
 21
275435.6674229872
 31
0.0
  0
LINE
  5
96
330
2
100
AcDbEntity
  8
0
 62
     3
100
AcDbLine
 10
646760.5786673086
 20
275459.8634224968
 30
0.0
 11
646758.9455682433
 21
275459.8634224968
 31
0.0
  0
LINE
  5
97
330
2
100
AcDbEntity
  8
0
  6
HIDDEN
 62
     3
 48
0.05
100
AcDbLine
 10
646821.2145699485
 20
275449.1891655558
 30
0.0
 11
646760.5786673086
 21
275449.1891655558
 31
0.0
  0
LINE
  5
98
330
2
100
AcDbEntity
  8
0
  6
HIDDEN
 62
     3
 48
0.05
100
AcDbLine
 10
646821.2145699485
 20
275447.290102787
 30
0.0
 11
646760.5786673086
 21
275447.290102787
 31
0.0
  0
LINE
  5
99
330
2
100
AcDbEntity
  8
0
 62
     3
100
AcDbLine
 10
646757.785521557
 20
275445.9852798468
 30
0.0
 11
646757.785521557
 21
275435.6674229872
 31
0.0
  0
LINE
  5
9A
330
2
100
AcDbEntity
  8
0
  6
HIDDEN
 62
     3
 48
0.05
100
AcDbLine
 10
646821.2145699485
 20
275441.8741541789
 30
0.0
 11
646821.2145699485
 21
275454.6051141638
 31
0.0
  0
LINE
  5
9B
330
2
100
AcDbEntity
  8
0
  6
HIDDEN
 62
     3
 48
0.05
100
AcDbLine
 10
646760.5786673086
 20
275459.8634224968
 30
0.0
 11
646785.7021123875
 21
275459.8634224968
 31
0.0
  0
ARC
  5
9C
330
2
100
AcDbEntity
  8
0
  6
HIDDEN
 62
     3
 48
0.05
100
AcDbCircle
 10
646785.7021123873
 20
275372.8752264855
 30
0.0
 40
86.98819601126876
100
AcDbArc
 50
79.04802868921845
 51
90.0
  0
LINE
  5
9D
330
2
100
AcDbEntity
  8
0
  6
HIDDEN
 62
     3
 48
0.05
100
AcDbLine
 10
646802.2286579617
 20
275438.2001804886
 30
0.0
 11
646821.2145699485
 21
275441.8741541789
 31
0.0
  0
LINE
  5
9E
330
2
100
AcDbEntity
  8
0
  6
HIDDEN
 62
     3
 48
0.05
100
AcDbLine
 10
646760.5786673086
 20
275436.6158458459
 30
0.0
 11
646785.7021123875
 21
275436.6158458459
 31
0.0
  0
ARC
  5
9F
330
2
100
AcDbEntity
  8
0
  6
HIDDEN
 62
     3
 48
0.05
100
AcDbCircle
 10
646785.7021123875
 20
275523.6040418572
 30
0.0
 40
86.98819601126876
100
AcDbArc
 50
270.0
 51
280.9519713107815
  0
LINE
  5
A0
330
2
100
AcDbEntity
  8
0
 62
     3
100
AcDbLine
 10
646758.9455682433
 20
275435.6674229872
 30
0.0
 11
646757.785521557
 21
275435.6674229872
 31
0.0
  0
LINE
  5
A1
330
2
100
AcDbEntity
  8
0
 62
     3
100
AcDbLine
 10
646760.5786673086
 20
275436.6158458459
 30
0.0
 11
646758.9455682433
 21
275436.6158458459
 31
0.0
  0
LINE
  5
A2
330
2
100
AcDbEntity
  8
0
 62
     2
100
AcDbLine
 10
646836.6864881419
 20
275441.8741541789
 30
0.0
 11
646835.0464159567
 21
275441.8741541789
 31
0.0
  0
LINE
  5
A3
330
2
100
AcDbEntity
  8
0
 62
     2
100
AcDbLine
 10
646836.6864881417
 20
275454.6051141638
 30
0.0
 11
646835.0464159567
 21
275454.6051141638
 31
0.0
  0
LINE
  5
A4
330
2
100
AcDbEntity
  8
0
 62
     3
100
AcDbLine
 10
646903.8569682298
 20
275479.5008102011
 30
0.0
 11
646923.5786671344
 21
275477.9762703546
 31
0.0
  0
LINE
  5
A5
330
2
100
AcDbEntity
  8
0
 62
     3
100
AcDbLine
 10
646923.5786671344
 20
275477.9762703546
 30
0.0
 11
646927.2701287292
 21
275474.4338654955
 31
0.0
  0
LINE
  5
A6
330
2
100
AcDbEntity
  8
0
 62
     3
100
AcDbLine
 10
646923.9364992086
 20
275474.8825659033
 30
0.0
 11
646948.550275424
 21
275474.8825659033
 31
0.0
  0
LINE
  5
A7
330
2
100
AcDbEntity
  8
0
 62
     3
100
AcDbLine
 10
646948.550275424
 20
275474.4329795791
 30
0.0
 11
646948.550275424
 21
275474.8825659033
 31
0.0
  0
LINE
  5
A8
330
2
100
AcDbEntity
  8
0
 62
     3
100
AcDbLine
 10
646903.8569682298
 20
275478.1821397811
 30
0.0
 11
646903.8569682298
 21
275479.5008102011
 31
0.0
  0
LINE
  5
A9
330
2
100
AcDbEntity
  8
0
 62
     3
100
AcDbLine
 10
646863.1889213556
 20
275480.9812433498
 30
0.0
 11
646923.5786671344
 21
275476.8247331185
 31
0.0
  0
ARC
  5
AA
330
2
100
AcDbEntity
  8
0
 62
     3
100
AcDbCircle
 10
646863.5322494896
 20
275485.9694420018
 30
0.0
 40
5.0
100
AcDbArc
 50
180.0
 51
266.0626511636124
  0
LINE
  5
AB
330
2
100
AcDbEntity
  8
0
 62
     2
100
AcDbLine
 10
646923.9364992086
 20
275463.7759155568
 30
0.0
 11
646927.1889993469
 21
275449.7872604746
 31
0.0
  0
ARC
  5
AC
330
2
100
AcDbEntity
  8
0
 62
     2
100
AcDbCircle
 10
646925.5627492777
 20
275449.4091413099
 30
0.0
 40
1.669629716475384
100
AcDbArc
 50
193.0892683759475
 51
13.0892683759475
  0
LINE
  5
AD
330
2
100
AcDbEntity
  8
0
 62
     2
100
AcDbLine
 10
646923.9364992086
 20
275467.2759038716
 30
0.0
 11
646928.1786139787
 21
275449.0310221453
 31
0.0
  0
ARC
  5
AE
330
2
100
AcDbEntity
  8
0
 62
     2
100
AcDbCircle
 10
646927.6167589128
 20
275449.697506509
 30
0.0
 40
0.3963192092648612
100
AcDbArc
 50
13.0892683759475
 51
193.0892683759475
  0
LINE
  5
AF
330
2
100
AcDbEntity
  8
0
 62
     2
100
AcDbLine
 10
646926.0711271731
 20
275472.8399908102
 30
0.0
 11
646931.431114117
 21
275449.7872604746
 31
0.0
  0
ARC
  5
B0
330
2
100
AcDbEntity
  8
0
 62
     2
100
AcDbCircle
 10
646924.4448771037
 20
275472.4618716454
 30
0.0
 40
1.669629716475384
100
AcDbArc
 50
13.0892683759475
 51
107.7272078639946
  0
ARC
  5
B1
330
2
100
AcDbEntity
  8
0
 62
     2
100
AcDbCircle
 10
646929.8048640478
 20
275449.4091413099
 30
0.0
 40
1.669629716475384
100
AcDbArc
 50
193.0892683759475
 51
13.0892683759475
  0
LINE
  5
B2
330
2
100
AcDbEntity
  8
0
 62
     2
100
AcDbLine
 10
646927.0607418048
 20
275472.0837524808
 30
0.0
 11
646932.4207287488
 21
275449.0310221453
 31
0.0
  0
ARC
  5
B3
330
2
100
AcDbEntity
  8
0
 62
     2
100
AcDbCircle
 10
646926.6747196018
 20
275471.9939985151
 30
0.0
 40
0.3963192092648612
100
AcDbArc
 50
193.0892683759475
 51
13.0892683759475
  0
ARC
  5
B4
330
2
100
AcDbEntity
  8
0
 62
     2
100
AcDbCircle
 10
646931.8588736829
 20
275449.697506509
 30
0.0
 40
0.3963192092648612
100
AcDbArc
 50
13.0892683759475
 51
193.0892683759475
  0
LINE
  5
B5
330
2
100
AcDbEntity
  8
0
 62
     2
100
AcDbLine
 10
646930.3132419432
 20
275472.8399908102
 30
0.0
 11
646935.6732288871
 21
275449.7872604746
 31
0.0
  0
ARC
  5
B6
330
2
100
AcDbEntity
  8
0
 62
     2
100
AcDbCircle
 10
646928.6869918739
 20
275472.4618716454
 30
0.0
 40
1.669629716475384
100
AcDbArc
 50
13.0892683759475
 51
193.0892683759475
  0
ARC
  5
B7
330
2
100
AcDbEntity
  8
0
 62
     2
100
AcDbCircle
 10
646934.046978818
 20
275449.4091413099
 30
0.0
 40
1.669629716475384
100
AcDbArc
 50
193.0892683759475
 51
13.0892683759475
  0
LINE
  5
B8
330
2
100
AcDbEntity
  8
0
 62
     2
100
AcDbLine
 10
646931.3028565749
 20
275472.0837524808
 30
0.0
 11
646936.662843519
 21
275449.0310221453
 31
0.0
  0
ARC
  5
B9
330
2
100
AcDbEntity
  8
0
 62
     2
100
AcDbCircle
 10
646930.9168343719
 20
275471.9939985151
 30
0.0
 40
0.3963192092648612
100
AcDbArc
 50
193.0892683759475
 51
13.0892683759475
  0
ARC
  5
BA
330
2
100
AcDbEntity
  8
0
 62
     2
100
AcDbCircle
 10
646936.1009884531
 20
275449.697506509
 30
0.0
 40
0.3963192092648612
100
AcDbArc
 50
13.0892683759475
 51
193.0892683759475
  0
LINE
  5
BB
330
2
100
AcDbEntity
  8
0
 62
     2
100
AcDbLine
 10
646934.5553567134
 20
275472.8399908102
 30
0.0
 11
646939.9153436572
 21
275449.7872604746
 31
0.0
  0
ARC
  5
BC
330
2
100
AcDbEntity
  8
0
 62
     2
100
AcDbCircle
 10
646932.9291066441
 20
275472.4618716454
 30
0.0
 40
1.669629716475384
100
AcDbArc
 50
13.0892683759475
 51
193.0892683759475
  0
ARC
  5
BD
330
2
100
AcDbEntity
  8
0
 62
     2
100
AcDbCircle
 10
646938.2890935881
 20
275449.4091413099
 30
0.0
 40
1.669629716475384
100
AcDbArc
 50
193.0892683759475
 51
13.0892683759475
  0
LINE
  5
BE
330
2
100
AcDbEntity
  8
0
 62
     2
100
AcDbLine
 10
646935.5449713451
 20
275472.0837524808
 30
0.0
 11
646940.9049582892
 21
275449.0310221453
 31
0.0
  0
ARC
  5
BF
330
2
100
AcDbEntity
  8
0
 62
     2
100
AcDbCircle
 10
646935.158949142
 20
275471.9939985151
 30
0.0
 40
0.3963192092648612
100
AcDbArc
 50
193.0892683759475
 51
13.0892683759475
  0
ARC
  5
C0
330
2
100
AcDbEntity
  8
0
 62
     2
100
AcDbCircle
 10
646940.3431032232
 20
275449.697506509
 30
0.0
 40
0.3963192092648612
100
AcDbArc
 50
13.0892683759475
 51
193.0892683759475
  0
LINE
  5
C1
330
2
100
AcDbEntity
  8
0
 62
     2
100
AcDbLine
 10
646938.7974714834
 20
275472.8399908102
 30
0.0
 11
646944.1574584275
 21
275449.7872604746
 31
0.0
  0
ARC
  5
C2
330
2
100
AcDbEntity
  8
0
 62
     2
100
AcDbCircle
 10
646937.1712214142
 20
275472.4618716454
 30
0.0
 40
1.669629716475384
100
AcDbArc
 50
13.0892683759475
 51
193.0892683759475
  0
ARC
  5
C3
330
2
100
AcDbEntity
  8
0
 62
     2
100
AcDbCircle
 10
646942.5312083583
 20
275449.4091413099
 30
0.0
 40
1.669629716475384
100
AcDbArc
 50
193.0892683759475
 51
13.0892683759475
  0
LINE
  5
C4
330
2
100
AcDbEntity
  8
0
 62
     2
100
AcDbLine
 10
646939.7870861152
 20
275472.0837524808
 30
0.0
 11
646945.1470730593
 21
275449.0310221453
 31
0.0
  0
ARC
  5
C5
330
2
100
AcDbEntity
  8
0
 62
     2
100
AcDbCircle
 10
646939.4010639122
 20
275471.9939985151
 30
0.0
 40
0.3963192092648612
100
AcDbArc
 50
193.0892683759475
 51
13.0892683759475
  0
ARC
  5
C6
330
2
100
AcDbEntity
  8
0
 62
     2
100
AcDbCircle
 10
646944.5852179934
 20
275449.697506509
 30
0.0
 40
0.3963192092648612
100
AcDbArc
 50
13.0892683759475
 51
193.0892683759475
  0
LINE
  5
C7
330
2
100
AcDbEntity
  8
0
 62
     2
100
AcDbLine
 10
646943.0395862535
 20
275472.8399908102
 30
0.0
 11
646948.3995731976
 21
275449.7872604746
 31
0.0
  0
ARC
  5
C8
330
2
100
AcDbEntity
  8
0
 62
     2
100
AcDbCircle
 10
646941.4133361843
 20
275472.4618716454
 30
0.0
 40
1.669629716475384
100
AcDbArc
 50
13.0892683759475
 51
193.0892683759475
  0
ARC
  5
C9
330
2
100
AcDbEntity
  8
0
 62
     2
100
AcDbCircle
 10
646946.7733231285
 20
275449.4091413099
 30
0.0
 40
1.669629716475384
100
AcDbArc
 50
193.0892683759475
 51
13.0892683759475
  0
LINE
  5
CA
330
2
100
AcDbEntity
  8
0
 62
     2
100
AcDbLine
 10
646944.0292008854
 20
275472.0837524808
 30
0.0
 11
646949.3891878293
 21
275449.0310221453
 31
0.0
  0
ARC
  5
CB
330
2
100
AcDbEntity
  8
0
 62
     2
100
AcDbCircle
 10
646943.6431786824
 20
275471.9939985151
 30
0.0
 40
0.3963192092648612
100
AcDbArc
 50
193.0892683759475
 51
13.0892683759475
  0
ARC
  5
CC
330
2
100
AcDbEntity
  8
0
 62
     2
100
AcDbCircle
 10
646948.8273327634
 20
275449.697506509
 30
0.0
 40
0.3963192092648612
100
AcDbArc
 50
13.0892683759475
 51
193.0892683759475
  0
LINE
  5
CD
330
2
100
AcDbEntity
  8
0
 62
     2
100
AcDbLine
 10
646947.2817010236
 20
275472.8399908102
 30
0.0
 11
646952.6416879677
 21
275449.7872604746
 31
0.0
  0
ARC
  5
CE
330
2
100
AcDbEntity
  8
0
 62
     2
100
AcDbCircle
 10
646945.6554509545
 20
275472.4618716454
 30
0.0
 40
1.669629716475384
100
AcDbArc
 50
13.0892683759475
 51
193.0892683759475
  0
ARC
  5
CF
330
2
100
AcDbEntity
  8
0
 62
     2
100
AcDbCircle
 10
646951.0154378986
 20
275449.4091413099
 30
0.0
 40
1.669629716475384
100
AcDbArc
 50
193.0892683759475
 51
13.0892683759475
  0
LINE
  5
D0
330
2
100
AcDbEntity
  8
0
 62
     2
100
AcDbLine
 10
646948.2713156556
 20
275472.0837524808
 30
0.0
 11
646953.6313025996
 21
275449.0310221453
 31
0.0
  0
ARC
  5
D1
330
2
100
AcDbEntity
  8
0
 62
     2
100
AcDbCircle
 10
646947.8852934525
 20
275471.9939985151
 30
0.0
 40
0.3963192092648612
100
AcDbArc
 50
193.0892683759475
 51
13.0892683759475
  0
ARC
  5
D2
330
2
100
AcDbEntity
  8
0
 62
     2
100
AcDbCircle
 10
646953.0694475335
 20
275449.697506509
 30
0.0
 40
0.3963192092648612
100
AcDbArc
 50
13.0892683759475
 51
193.0892683759475
  0
LINE
  5
D3
330
2
100
AcDbEntity
  8
0
 62
     2
100
AcDbLine
 10
646951.5238157938
 20
275472.8399908102
 30
0.0
 11
646956.8838027377
 21
275449.7872604746
 31
0.0
  0
ARC
  5
D4
330
2
100
AcDbEntity
  8
0
 62
     2
100
AcDbCircle
 10
646949.8975657247
 20
275472.4618716454
 30
0.0
 40
1.669629716475384
100
AcDbArc
 50
13.0892683759475
 51
193.0892683759475
  0
ARC
  5
D5
330
2
100
AcDbEntity
  8
0
 62
     2
100
AcDbCircle
 10
646955.2575526687
 20
275449.4091413099
 30
0.0
 40
1.669629716475384
100
AcDbArc
 50
193.0892683759475
 51
13.0892683759475
  0
LINE
  5
D6
330
2
100
AcDbEntity
  8
0
 62
     2
100
AcDbLine
 10
646952.5134304257
 20
275472.0837524808
 30
0.0
 11
646957.8734173698
 21
275449.0310221453
 31
0.0
  0
ARC
  5
D7
330
2
100
AcDbEntity
  8
0
 62
     2
100
AcDbCircle
 10
646952.1274082225
 20
275471.9939985151
 30
0.0
 40
0.3963192092648612
100
AcDbArc
 50
193.0892683759475
 51
13.0892683759475
  0
ARC
  5
D8
330
2
100
AcDbEntity
  8
0
 62
     2
100
AcDbCircle
 10
646957.3115623036
 20
275449.697506509
 30
0.0
 40
0.3963192092648612
100
AcDbArc
 50
13.0892683759475
 51
193.0892683759475
  0
LINE
  5
D9
330
2
100
AcDbEntity
  8
0
 62
     2
100
AcDbLine
 10
646955.7659305639
 20
275472.8399908102
 30
0.0
 11
646961.125917508
 21
275449.7872604746
 31
0.0
  0
ARC
  5
DA
330
2
100
AcDbEntity
  8
0
 62
     2
100
AcDbCircle
 10
646954.1396804948
 20
275472.4618716454
 30
0.0
 40
1.669629716475384
100
AcDbArc
 50
13.0892683759475
 51
193.0892683759475
  0
ARC
  5
DB
330
2
100
AcDbEntity
  8
0
 62
     2
100
AcDbCircle
 10
646959.4996674388
 20
275449.4091413099
 30
0.0
 40
1.669629716475384
100
AcDbArc
 50
193.0892683759475
 51
13.0892683759475
  0
LINE
  5
DC
330
2
100
AcDbEntity
  8
0
 62
     2
100
AcDbLine
 10
646956.7555451958
 20
275472.0837524808
 30
0.0
 11
646962.1155321398
 21
275449.0310221453
 31
0.0
  0
ARC
  5
DD
330
2
100
AcDbEntity
  8
0
 62
     2
100
AcDbCircle
 10
646956.3695229928
 20
275471.9939985151
 30
0.0
 40
0.3963192092648612
100
AcDbArc
 50
193.0892683759475
 51
13.0892683759475
  0
ARC
  5
DE
330
2
100
AcDbEntity
  8
0
 62
     2
100
AcDbCircle
 10
646961.5536770739
 20
275449.697506509
 30
0.0
 40
0.3963192092648612
100
AcDbArc
 50
13.0892683759475
 51
193.0892683759475
  0
LINE
  5
DF
330
2
100
AcDbEntity
  8
0
 62
     2
100
AcDbLine
 10
646960.0080453341
 20
275472.8399908102
 30
0.0
 11
646965.3680322782
 21
275449.7872604746
 31
0.0
  0
ARC
  5
E0
330
2
100
AcDbEntity
  8
0
 62
     2
100
AcDbCircle
 10
646958.3817952649
 20
275472.4618716454
 30
0.0
 40
1.669629716475384
100
AcDbArc
 50
13.0892683759475
 51
193.0892683759475
  0
ARC
  5
E1
330
2
100
AcDbEntity
  8
0
 62
     2
100
AcDbCircle
 10
646963.7417822089
 20
275449.4091413099
 30
0.0
 40
1.669629716475384
100
AcDbArc
 50
193.0892683759475
 51
13.0892683759475
  0
LINE
  5
E2
330
2
100
AcDbEntity
  8
0
 62
     2
100
AcDbLine
 10
646960.9976599659
 20
275472.0837524808
 30
0.0
 11
646966.3576469101
 21
275449.0310221453
 31
0.0
  0
ARC
  5
E3
330
2
100
AcDbEntity
  8
0
 62
     2
100
AcDbCircle
 10
646960.6116377629
 20
275471.9939985151
 30
0.0
 40
0.3963192092648612
100
AcDbArc
 50
193.0892683759475
 51
13.0892683759475
  0
ARC
  5
E4
330
2
100
AcDbEntity
  8
0
 62
     2
100
AcDbCircle
 10
646965.795791844
 20
275449.697506509
 30
0.0
 40
0.3963192092648612
100
AcDbArc
 50
13.0892683759475
 51
193.0892683759475
  0
LINE
  5
E5
330
2
100
AcDbEntity
  8
0
 62
     2
100
AcDbLine
 10
646964.2501601042
 20
275472.8399908102
 30
0.0
 11
646969.6101470482
 21
275449.7872604746
 31
0.0
  0
ARC
  5
E6
330
2
100
AcDbEntity
  8
0
 62
     2
100
AcDbCircle
 10
646962.6239100351
 20
275472.4618716454
 30
0.0
 40
1.669629716475384
100
AcDbArc
 50
13.0892683759475
 51
193.0892683759475
  0
ARC
  5
E7
330
2
100
AcDbEntity
  8
0
 62
     2
100
AcDbCircle
 10
646967.9838969792
 20
275449.4091413099
 30
0.0
 40
1.669629716475384
100
AcDbArc
 50
193.0892683759475
 51
13.0892683759475
  0
LINE
  5
E8
330
2
100
AcDbEntity
  8
0
 62
     2
100
AcDbLine
 10
646965.2397747362
 20
275472.0837524808
 30
0.0
 11
646970.5997616802
 21
275449.0310221453
 31
0.0
  0
ARC
  5
E9
330
2
100
AcDbEntity
  8
0
 62
     2
100
AcDbCircle
 10
646964.853752533
 20
275471.9939985151
 30
0.0
 40
0.3963192092648612
100
AcDbArc
 50
193.0892683759475
 51
13.0892683759475
  0
ARC
  5
EA
330
2
100
AcDbEntity
  8
0
 62
     2
100
AcDbCircle
 10
646970.0379066141
 20
275449.697506509
 30
0.0
 40
0.3963192092648612
100
AcDbArc
 50
13.0892683759475
 51
193.0892683759475
  0
LINE
  5
EB
330
2
100
AcDbEntity
  8
0
 62
     2
100
AcDbLine
 10
646968.4922748744
 20
275472.8399908102
 30
0.0
 11
646973.8522618183
 21
275449.7872604746
 31
0.0
  0
ARC
  5
EC
330
2
100
AcDbEntity
  8
0
 62
     2
100
AcDbCircle
 10
646966.8660248053
 20
275472.4618716454
 30
0.0
 40
1.669629716475384
100
AcDbArc
 50
13.0892683759475
 51
193.0892683759475
  0
ARC
  5
ED
330
2
100
AcDbEntity
  8
0
 62
     2
100
AcDbCircle
 10
646972.2260117492
 20
275449.4091413099
 30
0.0
 40
1.669629716475384
100
AcDbArc
 50
193.0892683759475
 51
13.0892683759475
  0
LINE
  5
EE
330
2
100
AcDbEntity
  8
0
 62
     2
100
AcDbLine
 10
646969.4818895063
 20
275472.0837524808
 30
0.0
 11
646974.8418764503
 21
275449.0310221453
 31
0.0
  0
ARC
  5
EF
330
2
100
AcDbEntity
  8
0
 62
     2
100
AcDbCircle
 10
646969.0958673031
 20
275471.9939985151
 30
0.0
 40
0.3963192092648612
100
AcDbArc
 50
193.0892683759475
 51
13.0892683759475
  0
ARC
  5
F0
330
2
100
AcDbEntity
  8
0
 62
     2
100
AcDbCircle
 10
646974.2800213842
 20
275449.697506509
 30
0.0
 40
0.3963192092648612
100
AcDbArc
 50
13.0892683759475
 51
193.0892683759475
  0
LINE
  5
F1
330
2
100
AcDbEntity
  8
0
 62
     2
100
AcDbLine
 10
646972.7343896446
 20
275472.8399908102
 30
0.0
 11
646978.0943765886
 21
275449.7872604746
 31
0.0
  0
ARC
  5
F2
330
2
100
AcDbEntity
  8
0
 62
     2
100
AcDbCircle
 10
646971.1081395754
 20
275472.4618716454
 30
0.0
 40
1.669629716475384
100
AcDbArc
 50
13.0892683759475
 51
193.0892683759475
  0
ARC
  5
F3
330
2
100
AcDbEntity
  8
0
 62
     2
100
AcDbCircle
 10
646976.4681265195
 20
275449.4091413099
 30
0.0
 40
1.669629716475384
100
AcDbArc
 50
193.0892683759475
 51
13.0892683759475
  0
LINE
  5
F4
330
2
100
AcDbEntity
  8
0
 62
     2
100
AcDbLine
 10
646973.7240042764
 20
275472.0837524808
 30
0.0
 11
646979.0839912204
 21
275449.0310221453
 31
0.0
  0
ARC
  5
F5
330
2
100
AcDbEntity
  8
0
 62
     2
100
AcDbCircle
 10
646973.3379820734
 20
275471.9939985151
 30
0.0
 40
0.3963192092648612
100
AcDbArc
 50
193.0892683759475
 51
13.0892683759475
  0
ARC
  5
F6
330
2
100
AcDbEntity
  8
0
 62
     2
100
AcDbCircle
 10
646978.5221361544
 20
275449.697506509
 30
0.0
 40
0.3963192092648612
100
AcDbArc
 50
13.0892683759475
 51
193.0892683759475
  0
LINE
  5
F7
330
2
100
AcDbEntity
  8
0
 62
     2
100
AcDbLine
 10
646976.9765044147
 20
275472.8399908102
 30
0.0
 11
646982.3364913587
 21
275449.7872604746
 31
0.0
  0
ARC
  5
F8
330
2
100
AcDbEntity
  8
0
 62
     2
100
AcDbCircle
 10
646975.3502543454
 20
275472.4618716454
 30
0.0
 40
1.669629716475384
100
AcDbArc
 50
13.0892683759475
 51
193.0892683759475
  0
ARC
  5
F9
330
2
100
AcDbEntity
  8
0
 62
     2
100
AcDbCircle
 10
646980.7102412897
 20
275449.4091413099
 30
0.0
 40
1.669629716475384
100
AcDbArc
 50
193.0892683759475
 51
13.0892683759475
  0
LINE
  5
FA
330
2
100
AcDbEntity
  8
0
 62
     2
100
AcDbLine
 10
646977.9661190464
 20
275472.0837524808
 30
0.0
 11
646983.3261059905
 21
275449.0310221453
 31
0.0
  0
ARC
  5
FB
330
2
100
AcDbEntity
  8
0
 62
     2
100
AcDbCircle
 10
646977.5800968434
 20
275471.9939985151
 30
0.0
 40
0.3963192092648612
100
AcDbArc
 50
193.0892683759475
 51
13.0892683759475
  0
ARC
  5
FC
330
2
100
AcDbEntity
  8
0
 62
     2
100
AcDbCircle
 10
646982.7642509246
 20
275449.697506509
 30
0.0
 40
0.3963192092648612
100
AcDbArc
 50
13.0892683759475
 51
193.0892683759475
  0
LINE
  5
FD
330
2
100
AcDbEntity
  8
0
 62
     2
100
AcDbLine
 10
646981.2186191848
 20
275472.8399908102
 30
0.0
 11
646986.5786061288
 21
275449.7872604746
 31
0.0
  0
ARC
  5
FE
330
2
100
AcDbEntity
  8
0
 62
     2
100
AcDbCircle
 10
646979.5923691157
 20
275472.4618716454
 30
0.0
 40
1.669629716475384
100
AcDbArc
 50
13.0892683759475
 51
193.0892683759475
  0
ARC
  5
FF
330
2
100
AcDbEntity
  8
0
 62
     2
100
AcDbCircle
 10
646984.9523560597
 20
275449.4091413099
 30
0.0
 40
1.669629716475384
100
AcDbArc
 50
193.0892683759475
 51
13.0892683759475
  0
LINE
  5
100
330
2
100
AcDbEntity
  8
0
 62
     2
100
AcDbLine
 10
646982.2082338168
 20
275472.0837524808
 30
0.0
 11
646987.5682207606
 21
275449.0310221453
 31
0.0
  0
ARC
  5
101
330
2
100
AcDbEntity
  8
0
 62
     2
100
AcDbCircle
 10
646981.8222116136
 20
275471.9939985151
 30
0.0
 40
0.3963192092648612
100
AcDbArc
 50
193.0892683759475
 51
13.0892683759475
  0
ARC
  5
102
330
2
100
AcDbEntity
  8
0
 62
     2
100
AcDbCircle
 10
646987.0063656947
 20
275449.697506509
 30
0.0
 40
0.3963192092648612
100
AcDbArc
 50
13.0892683759475
 51
193.0892683759475
  0
LINE
  5
103
330
2
100
AcDbEntity
  8
0
 62
     2
100
AcDbLine
 10
646985.4607339549
 20
275472.8399908102
 30
0.0
 11
646990.8207208991
 21
275449.7872604746
 31
0.0
  0
ARC
  5
104
330
2
100
AcDbEntity
  8
0
 62
     2
100
AcDbCircle
 10
646983.8344838859
 20
275472.4618716454
 30
0.0
 40
1.669629716475384
100
AcDbArc
 50
13.0892683759475
 51
193.0892683759475
  0
ARC
  5
105
330
2
100
AcDbEntity
  8
0
 62
     2
100
AcDbCircle
 10
646989.1944708298
 20
275449.4091413099
 30
0.0
 40
1.669629716475384
100
AcDbArc
 50
193.0892683759475
 51
13.0892683759475
  0
LINE
  5
106
330
2
100
AcDbEntity
  8
0
 62
     2
100
AcDbLine
 10
646986.4503485869
 20
275472.0837524808
 30
0.0
 11
646991.8103355308
 21
275449.0310221453
 31
0.0
  0
ARC
  5
107
330
2
100
AcDbEntity
  8
0
 62
     2
100
AcDbCircle
 10
646986.0643263839
 20
275471.9939985151
 30
0.0
 40
0.3963192092648612
100
AcDbArc
 50
193.0892683759475
 51
13.0892683759475
  0
ARC
  5
108
330
2
100
AcDbEntity
  8
0
 62
     2
100
AcDbCircle
 10
646991.2484804648
 20
275449.697506509
 30
0.0
 40
0.3963192092648612
100
AcDbArc
 50
13.0892683759475
 51
193.0892683759475
  0
LINE
  5
109
330
2
100
AcDbEntity
  8
0
 62
     2
100
AcDbLine
 10
646989.7028487252
 20
275472.8399908102
 30
0.0
 11
646995.0628356691
 21
275449.7872604746
 31
0.0
  0
ARC
  5
10A
330
2
100
AcDbEntity
  8
0
 62
     2
100
AcDbCircle
 10
646988.0765986559
 20
275472.4618716454
 30
0.0
 40
1.669629716475384
100
AcDbArc
 50
13.0892683759475
 51
193.0892683759475
  0
ARC
  5
10B
330
2
100
AcDbEntity
  8
0
 62
     2
100
AcDbCircle
 10
646993.4365856001
 20
275449.4091413099
 30
0.0
 40
1.669629716475384
100
AcDbArc
 50
193.0892683759475
 51
13.0892683759475
  0
LINE
  5
10C
330
2
100
AcDbEntity
  8
0
 62
     2
100
AcDbLine
 10
646990.6924633569
 20
275472.0837524808
 30
0.0
 11
646996.052450301
 21
275449.0310221453
 31
0.0
  0
ARC
  5
10D
330
2
100
AcDbEntity
  8
0
 62
     2
100
AcDbCircle
 10
646990.3064411539
 20
275471.9939985151
 30
0.0
 40
0.3963192092648612
100
AcDbArc
 50
193.0892683759475
 51
13.0892683759475
  0
ARC
  5
10E
330
2
100
AcDbEntity
  8
0
 62
     2
100
AcDbCircle
 10
646995.490595235
 20
275449.697506509
 30
0.0
 40
0.3963192092648612
100
AcDbArc
 50
13.0892683759475
 51
193.0892683759475
  0
LINE
  5
10F
330
2
100
AcDbEntity
  8
0
 62
     2
100
AcDbLine
 10
646993.9449634953
 20
275472.8399908102
 30
0.0
 11
646999.3049504393
 21
275449.7872604746
 31
0.0
  0
ARC
  5
110
330
2
100
AcDbEntity
  8
0
 62
     2
100
AcDbCircle
 10
646992.3187134262
 20
275472.4618716454
 30
0.0
 40
1.669629716475384
100
AcDbArc
 50
13.0892683759475
 51
193.0892683759475
  0
ARC
  5
111
330
2
100
AcDbEntity
  8
0
 62
     2
100
AcDbCircle
 10
646997.6787003701
 20
275449.4091413099
 30
0.0
 40
1.669629716475384
100
AcDbArc
 50
193.0892683759475
 51
13.0892683759475
  0
LINE
  5
112
330
2
100
AcDbEntity
  8
0
 62
     3
100
AcDbLine
 10
646948.550275424
 20
275474.4329795791
 30
0.0
 11
646948.550275424
 21
275473.4480117146
 31
0.0
  0
LINE
  5
113
330
2
100
AcDbEntity
  8
0
 62
     3
100
AcDbLine
 10
646948.550275424
 20
275447.21445411
 30
0.0
 11
646948.550275424
 21
275449.9808934288
 31
0.0
  0
LINE
  5
114
330
2
100
AcDbEntity
  8
0
 62
     3
100
AcDbLine
 10
646859.7535076764
 20
275442.7968620579
 30
0.0
 11
646923.9364992086
 21
275447.21445411
 31
0.0
  0
LINE
  5
115
330
2
100
AcDbEntity
  8
0
 62
     2
100
AcDbLine
 10
646839.3958257571
 20
275436.4700917218
 30
0.0
 11
646841.7445724674
 21
275436.4700917218
 31
0.0
  0
ARC
  5
116
330
2
100
AcDbEntity
  8
0
 62
     2
100
AcDbCircle
 10
646841.7445724674
 20
275441.4700917218
 30
0.0
 40
5.0
100
AcDbArc
 50
270.0
 51
291.0177440291172
  0
ARC
  5
117
330
2
100
AcDbEntity
  8
0
 62
     3
100
AcDbCircle
 10
646860.0968358103
 20
275437.8086634059
 30
0.0
 40
5.0
100
AcDbArc
 50
93.93734883638758
 51
111.0177440291172
  0
LINE
  5
118
330
2
100
AcDbEntity
  8
0
 62
     3
100
AcDbLine
 10
646439.5836882975
 20
275504.2645808891
 30
0.0
 11
646649.5836882974
 21
275504.2645808891
 31
0.0
  0
LINE
  5
119
330
2
100
AcDbEntity
  8
0
 62
     3
100
AcDbLine
 10
646659.5836882975
 20
275494.2645808891
 30
0.0
 11
646659.5836882975
 21
275424.2645808891
 31
0.0
  0
LINE
  5
11A
330
2
100
AcDbEntity
  8
0
 62
     3
100
AcDbLine
 10
646649.5836882974
 20
275414.2645808891
 30
0.0
 11
646439.5836882975
 21
275414.2645808891
 31
0.0
  0
LINE
  5
11B
330
2
100
AcDbEntity
  8
0
 62
     3
100
AcDbLine
 10
646429.5836882975
 20
275424.2645808891
 30
0.0
 11
646429.5836882975
 21
275494.2645808891
 31
0.0
  0
ARC
  5
11C
330
2
100
AcDbEntity
  8
0
 62
     3
100
AcDbCircle
 10
646439.5836882975
 20
275494.2645808891
 30
0.0
 40
10.0
100
AcDbArc
 50
90.0
 51
180.0
  0
ARC
  5
11D
330
2
100
AcDbEntity
  8
0
 62
     3
100
AcDbCircle
 10
646439.5836882975
 20
275424.2645808891
 30
0.0
 40
10.0
100
AcDbArc
 50
180.0
 51
270.0
  0
ARC
  5
11E
330
2
100
AcDbEntity
  8
0
 62
     3
100
AcDbCircle
 10
646649.5836882974
 20
275424.2645808891
 30
0.0
 40
10.0
100
AcDbArc
 50
270.0
 51
0.0
  0
ARC
  5
11F
330
2
100
AcDbEntity
  8
0
 62
     3
100
AcDbCircle
 10
646649.5836882974
 20
275494.2645808891
 30
0.0
 40
10.0
100
AcDbArc
 50
0.0
 51
90.0
  0
LINE
  5
120
330
2
100
AcDbEntity
  8
0
 62
     3
100
AcDbLine
 10
646479.5836882974
 20
275500.2645808891
 30
0.0
 11
646609.5836882974
 21
275500.2645808891
 31
0.0
  0
LINE
  5
121
330
2
100
AcDbEntity
  8
0
 62
     3
100
AcDbLine
 10
646479.5836882974
 20
275498.2645808891
 30
0.0
 11
646609.5836882974
 21
275498.2645808891
 31
0.0
  0
LINE
  5
122
330
2
100
AcDbEntity
  8
0
 62
     3
100
AcDbLine
 10
646479.5836882974
 20
275418.2645808891
 30
0.0
 11
646609.5836882974
 21
275418.2645808891
 31
0.0
  0
LINE
  5
123
330
2
100
AcDbEntity
  8
0
 62
     3
100
AcDbLine
 10
646479.5836882974
 20
275420.2645808891
 30
0.0
 11
646609.5836882974
 21
275420.2645808891
 31
0.0
  0
ARC
  5
124
330
2
100
AcDbEntity
  8
0
 62
     3
100
AcDbCircle
 10
646550.6336882974
 20
275459.2645808891
 30
0.0
 40
81.04999999999979
100
AcDbArc
 50
151.2372108175431
 51
208.7627891824569
  0
ARC
  5
125
330
2
100
AcDbEntity
  8
0
 62
     3
100
AcDbCircle
 10
646543.625354964
 20
275459.2645808891
 30
0.0
 40
76.04166666664731
100
AcDbArc
 50
147.3722951466474
 51
212.6277048533526
  0
ARC
  5
126
330
2
100
AcDbEntity
  8
0
 62
     3
100
AcDbCircle
 10
646538.5336882974
 20
275459.2645808891
 30
0.0
 40
81.04999999996659
100
AcDbArc
 50
331.2372108175431
 51
28.76278918245691
  0
ARC
  5
127
330
2
100
AcDbEntity
  8
0
 62
     3
100
AcDbCircle
 10
646545.5420216307
 20
275459.2645808891
 30
0.0
 40
76.0416666666578
100
AcDbArc
 50
327.3722951466475
 51
32.6277048533526
  0
CIRCLE
  5
128
330
2
100
AcDbEntity
  8
0
 62
     2
100
AcDbCircle
 10
646644.5836882974
 20
275489.2645808891
 30
0.0
 40
5.0
  0
CIRCLE
  5
129
330
2
100
AcDbEntity
  8
0
 62
     2
100
AcDbCircle
 10
646644.5836882974
 20
275489.2645808891
 30
0.0
 40
4.0
  0
CIRCLE
  5
12A
330
2
100
AcDbEntity
  8
0
 62
     2
100
AcDbCircle
 10
646444.5836882974
 20
275429.2645808891
 30
0.0
 40
5.0
  0
CIRCLE
  5
12B
330
2
100
AcDbEntity
  8
0
 62
     2
100
AcDbCircle
 10
646444.5836882974
 20
275429.2645808891
 30
0.0
 40
4.0
  0
CIRCLE
  5
12C
330
2
100
AcDbEntity
  8
0
 62
     2
100
AcDbCircle
 10
646534.5836882974
 20
275472.2645808891
 30
0.0
 40
10.0
  0
CIRCLE
  5
12D
330
2
100
AcDbEntity
  8
0
 62
     2
100
AcDbCircle
 10
646534.5836882974
 20
275472.2645808891
 30
0.0
 40
8.0
  0
CIRCLE
  5
12E
330
2
100
AcDbEntity
  8
0
 62
     2
100
AcDbCircle
 10
646554.5836882974
 20
275446.2645808891
 30
0.0
 40
10.0
  0
CIRCLE
  5
12F
330
2
100
AcDbEntity
  8
0
 62
     2
100
AcDbCircle
 10
646554.5836882974
 20
275446.2645808891
 30
0.0
 40
8.0
  0
CIRCLE
  5
130
330
2
100
AcDbEntity
  8
0
 62
     2
100
AcDbCircle
 10
646514.5836882975
 20
275446.2645808891
 30
0.0
 40
10.0
  0
CIRCLE
  5
131
330
2
100
AcDbEntity
  8
0
 62
     2
100
AcDbCircle
 10
646514.5836882975
 20
275446.2645808891
 30
0.0
 40
8.0
  0
CIRCLE
  5
132
330
2
100
AcDbEntity
  8
0
 62
     2
100
AcDbCircle
 10
646574.5836882975
 20
275472.2645808891
 30
0.0
 40
10.0
  0
CIRCLE
  5
133
330
2
100
AcDbEntity
  8
0
 62
     2
100
AcDbCircle
 10
646574.5836882975
 20
275472.2645808891
 30
0.0
 40
8.0
  0
LINE
  5
134
330
2
100
AcDbEntity
  8
1
  6
CENTER
 62
     1
 48
0.1
100
AcDbLine
 10
646520.2097992779
 20
275472.2645808891
 30
0.0
 11
646548.9575773168
 21
275472.2645808891
 31
0.0
  0
LINE
  5
137
330
2
100
AcDbEntity
  8
1
  6
CENTER
 62
     1
 48
0.1
100
AcDbLine
 10
646534.5836882974
 20
275457.8906918697
 30
0.0
 11
646534.5836882974
 21
275486.6384699086
 31
0.0
  0
LINE
  5
138
330
2
100
AcDbEntity
  8
1
  6
CENTER
 62
     1
 48
0.1
100
AcDbLine
 10
646560.209799278
 20
275472.2645808891
 30
0.0
 11
646588.9575773168
 21
275472.2645808891
 31
0.0
  0
LINE
  5
139
330
2
100
AcDbEntity
  8
1
  6
CENTER
 62
     1
 48
0.1
100
AcDbLine
 10
646574.5836882975
 20
275457.8906918697
 30
0.0
 11
646574.5836882975
 21
275486.6384699086
 31
0.0
  0
LINE
  5
13A
330
2
100
AcDbEntity
  8
1
  6
CENTER
 62
     1
 48
0.1
100
AcDbLine
 10
646540.2097992779
 20
275446.2645808891
 30
0.0
 11
646568.9575773168
 21
275446.2645808891
 31
0.0
  0
LINE
  5
13B
330
2
100
AcDbEntity
  8
1
  6
CENTER
 62
     1
 48
0.1
100
AcDbLine
 10
646554.5836882974
 20
275431.8906918697
 30
0.0
 11
646554.5836882974
 21
275460.6384699086
 31
0.0
  0
LINE
  5
13C
330
2
100
AcDbEntity
  8
1
  6
CENTER
 62
     1
 48
0.1
100
AcDbLine
 10
646500.209799278
 20
275446.2645808891
 30
0.0
 11
646528.9575773168
 21
275446.2645808891
 31
0.0
  0
LINE
  5
13D
330
2
100
AcDbEntity
  8
1
  6
CENTER
 62
     1
 48
0.1
100
AcDbLine
 10
646514.5836882975
 20
275431.8906918697
 30
0.0
 11
646514.5836882975
 21
275460.6384699086
 31
0.0
  0
LINE
  5
13E
330
2
100
AcDbEntity
  8
0
 48
0.3
100
AcDbLine
 10
647111.4475044778
 20
275470.6332995563
 30
0.0
 11
646923.9364992086
 21
275470.6332995563
 31
0.0
  0
LINE
  5
13F
330
2
100
AcDbEntity
  8
0
 48
0.3
100
AcDbLine
 10
647111.4475044778
 20
275450.6332995563
 30
0.0
 11
646923.9364992086
 21
275450.6332995563
 31
0.0
  0
LINE
  5
140
330
2
100
AcDbEntity
  8
0
 48
0.3
100
AcDbLine
 10
647040.5786673087
 20
275525.2645811142
 30
0.0
 11
647040.5786673087
 21
275512.2645811142
 31
0.0
  0
CIRCLE
  5
141
330
2
100
AcDbEntity
  8
0
 48
0.3
100
AcDbCircle
 10
646800.5786673086
 20
275531.7645811142
 30
0.0
 40
6.5
  0
CIRCLE
  5
142
330
2
100
AcDbEntity
  8
0
 48
0.3
100
AcDbCircle
 10
646800.5786673086
 20
275386.7645811142
 30
0.0
 40
6.5
  0
LINE
  5
143
330
2
100
AcDbEntity
  8
0
 48
0.3
100
AcDbLine
 10
646794.0786673086
 20
275531.7645811142
 30
0.0
 11
646794.0786673086
 21
275386.7645811142
 31
0.0
  0
LINE
  5
144
330
2
100
AcDbEntity
  8
0
 48
0.3
100
AcDbLine
 10
646807.0786673085
 20
275531.7645811142
 30
0.0
 11
646807.0786673085
 21
275386.7645811142
 31
0.0
  0
LINE
  5
145
330
2
100
AcDbEntity
  8
0
 48
0.3
100
AcDbLine
 10
646770.5786673085
 20
275393.2645811141
 30
0.0
 11
647040.5786673087
 21
275393.2645811141
 31
0.0
  0
LINE
  5
146
330
2
100
AcDbEntity
  8
0
 48
0.3
100
AcDbLine
 10
646770.5786673085
 20
275525.2645811141
 30
0.0
 11
647040.5786673087
 21
275525.2645811141
 31
0.0
  0
CIRCLE
  5
147
330
2
100
AcDbEntity
  8
0
 48
0.3
100
AcDbCircle
 10
646870.5786673085
 20
275531.7645811142
 30
0.0
 40
6.5
  0
CIRCLE
  5
148
330
2
100
AcDbEntity
  8
0
 48
0.3
100
AcDbCircle
 10
646870.5786673085
 20
275386.7645811142
 30
0.0
 40
6.5
  0
LINE
  5
149
330
2
100
AcDbEntity
  8
0
 48
0.3
100
AcDbLine
 10
646864.0786673086
 20
275531.7645811142
 30
0.0
 11
646864.0786673086
 21
275386.7645811142
 31
0.0
  0
LINE
  5
14A
330
2
100
AcDbEntity
  8
0
 48
0.3
100
AcDbLine
 10
646877.0786673086
 20
275531.7645811142
 30
0.0
 11
646877.0786673086
 21
275386.7645811142
 31
0.0
  0
CIRCLE
  5
14B
330
2
100
AcDbEntity
  8
0
 48
0.3
100
AcDbCircle
 10
646940.5786673085
 20
275531.7645811142
 30
0.0
 40
6.5
  0
CIRCLE
  5
14C
330
2
100
AcDbEntity
  8
0
 48
0.3
100
AcDbCircle
 10
646940.5786673085
 20
275386.7645811142
 30
0.0
 40
6.5
  0
LINE
  5
14D
330
2
100
AcDbEntity
  8
0
 48
0.3
100
AcDbLine
 10
646934.0786673086
 20
275531.7645811142
 30
0.0
 11
646934.0786673086
 21
275386.7645811142
 31
0.0
  0
LINE
  5
14E
330
2
100
AcDbEntity
  8
0
 48
0.3
100
AcDbLine
 10
646947.0786673085
 20
275531.7645811142
 30
0.0
 11
646947.0786673085
 21
275386.7645811142
 31
0.0
  0
CIRCLE
  5
14F
330
2
100
AcDbEntity
  8
0
 48
0.3
100
AcDbCircle
 10
647010.5786673086
 20
275531.7645811142
 30
0.0
 40
6.5
  0
CIRCLE
  5
150
330
2
100
AcDbEntity
  8
0
 48
0.3
100
AcDbCircle
 10
647010.5786673086
 20
275386.7645811142
 30
0.0
 40
6.5
  0
LINE
  5
151
330
2
100
AcDbEntity
  8
0
 48
0.3
100
AcDbLine
 10
647004.0786673085
 20
275531.7645811142
 30
0.0
 11
647004.0786673085
 21
275386.7645811142
 31
0.0
  0
LINE
  5
152
330
2
100
AcDbEntity
  8
0
 48
0.3
100
AcDbLine
 10
647017.0786673086
 20
275531.7645811142
 30
0.0
 11
647017.0786673086
 21
275386.7645811142
 31
0.0
  0
LINE
  5
153
330
2
100
AcDbEntity
  8
0
 48
0.3
100
AcDbLine
 10
646770.5786673085
 20
275406.2645811141
 30
0.0
 11
647040.5786673087
 21
275406.2645811141
 31
0.0
  0
LINE
  5
154
330
2
100
AcDbEntity
  8
0
 48
0.3
100
AcDbLine
 10
646770.5786673085
 20
275512.2645811142
 30
0.0
 11
647040.5786673087
 21
275512.2645811142
 31
0.0
  0
LINE
  5
155
330
2
100
AcDbEntity
  8
0
 48
0.3
100
AcDbLine
 10
646770.5786673088
 20
275525.2645811142
 30
0.0
 11
646770.5786673088
 21
275512.2645811142
 31
0.0
  0
LINE
  5
156
330
2
100
AcDbEntity
  8
0
 48
0.3
100
AcDbLine
 10
646770.5786673088
 20
275406.2645811142
 30
0.0
 11
646770.5786673085
 21
275393.2645811141
 31
0.0
  0
LINE
  5
157
330
2
100
AcDbEntity
  8
0
 48
0.3
100
AcDbLine
 10
647040.5786673087
 20
275406.2645811142
 30
0.0
 11
647040.5786673087
 21
275393.2645811142
 31
0.0
  0
LINE
  5
158
330
2
100
AcDbEntity
  8
1
100
AcDbLine
 10
646942.7925310404
 20
275338.6052890749
 30
0.0
 11
646989.3843170395
 21
275338.6052890749
 31
0.0
  0
TEXT
  5
159
330
2
100
AcDbEntity
  8
DIM-TEXT
100
AcDbText
 10
646954.5970468776
 20
275348.6144788577
 30
0.0
 40
13.0
  1
1
  7
HYÁß°íµñ
100
AcDbText
  0
LINE
  5
15C
330
2
100
AcDbEntity
  8
1
100
AcDbLine
 10
646911.98980437
 20
275395.576533886
 30
0.0
 11
646942.7925310404
 21
275338.6052890749
 31
0.0
  0
CIRCLE
  5
15D
330
2
100
AcDbEntity
  8
0
 48
0.3
100
AcDbCircle
 10
646959.2709153832
 20
275355.0836734178
 30
0.0
 40
16.47838434289443
  0
LINE
  5
15E
330
2
100
AcDbEntity
  8
1
100
AcDbLine
 10
646837.1271169203
 20
275315.8580292125
 30
0.0
 11
646884.484797592
 21
275315.8580292125
 31
0.0
  0
TEXT
  5
15F
330
2
100
AcDbEntity
  8
DIM-TEXT
100
AcDbText
 10
646848.9316327576
 20
275325.8672189952
 30
0.0
 40
13.0
  1
2
  7
HYÁß°íµñ
100
AcDbText
  0
LINE
  5
160
330
2
100
AcDbEntity
  8
1
100
AcDbLine
 10
646800.5786673086
 20
275386.7645811142
 30
0.0
 11
646837.1271169203
 21
275315.8580292125
 31
0.0
  0
CIRCLE
  5
161
330
2
100
AcDbEntity
  8
0
 48
0.3
100
AcDbCircle
 10
646853.6055012632
 20
275332.3364135554
 30
0.0
 40
16.47838434289443
  0
LINE
  5
162
330
2
100
AcDbEntity
  8
CS-STLC
100
AcDbLine
 10
646842.3196300943
 20
275568.7886437027
 30
0.0
 11
646842.3196300943
 21
275500.6929113021
 31
0.0
  0
LINE
  5
164
330
2
100
AcDbEntity
  8
CS-STLC
100
AcDbLine
 10
646854.489531416
 20
275568.7886437027
 30
0.0
 11
646854.489531416
 21
275500.6929113021
 31
0.0
  0
ARC
  5
165
330
2
100
AcDbEntity
  8
CS-STLC
100
AcDbCircle
 10
646849.3118072398
 20
275568.7886437027
 30
0.0
 40
0.9072263717550439
100
AcDbArc
 50
142.1379199998439
 51
180.0
  0
ARC
  5
166
330
2
100
AcDbEntity
  8
CS-STLC
100
AcDbCircle
 10
646850.3269036261
 20
275567.9994910404
 30
0.0
 40
2.192987860299809
100
AcDbArc
 50
118.049042001302
 51
142.1379199998439
  0
ARC
  5
167
330
2
100
AcDbEntity
  8
CS-STLC
100
AcDbCircle
 10
646851.0024612107
 20
275566.7315712492
 30
0.0
 40
3.629650234534663
100
AcDbArc
 50
102.4454629974777
 51
118.049042001302
  0
ARC
  5
168
330
2
100
AcDbEntity
  8
CS-STLC
100
AcDbCircle
 10
646851.4470560858
 20
275564.7170609019
 30
0.0
 40
5.692637602266283
100
AcDbArc
 50
90.0
 51
102.4454629974777
  0
ARC
  5
169
330
2
100
AcDbEntity
  8
CS-STLC
100
AcDbCircle
 10
646851.4470560858
 20
275564.7170609019
 30
0.0
 40
5.692637602266283
100
AcDbArc
 50
77.55453700252225
 51
90.0
  0
ARC
  5
16A
330
2
100
AcDbEntity
  8
CS-STLC
100
AcDbCircle
 10
646851.8916509609
 20
275566.7315712492
 30
0.0
 40
3.629650234534663
100
AcDbArc
 50
61.95095799869801
 51
77.55453700252225
  0
ARC
  5
16B
330
2
100
AcDbEntity
  8
CS-STLC
100
AcDbCircle
 10
646852.5672086579
 20
275567.9994910404
 30
0.0
 40
2.192987860299809
100
AcDbArc
 50
37.86208000015602
 51
61.95095799869801
  0
ARC
  5
16C
330
2
100
AcDbEntity
  8
CS-STLC
100
AcDbCircle
 10
646853.5823050443
 20
275568.7886437027
 30
0.0
 40
0.9072263717550439
100
AcDbArc
 50
0.0
 51
37.86208000015602
  0
ARC
  5
16D
330
2
100
AcDbEntity
  8
CS-STLC
100
AcDbCircle
 10
646843.2268564662
 20
275568.7886437027
 30
0.0
 40
0.9072263717550439
100
AcDbArc
 50
180.0
 51
217.862080000156
  0
ARC
  5
16E
330
2
100
AcDbEntity
  8
CS-STLC
100
AcDbCircle
 10
646844.2419529655
 20
275569.5777962522
 30
0.0
 40
2.192987860299809
100
AcDbArc
 50
217.862080000156
 51
241.950957998698
  0
ARC
  5
16F
330
2
100
AcDbEntity
  8
CS-STLC
100
AcDbCircle
 10
646844.9175105497
 20
275570.8457160435
 30
0.0
 40
3.629650234534663
100
AcDbArc
 50
241.950957998698
 51
257.5545370025223
  0
ARC
  5
170
330
2
100
AcDbEntity
  8
CS-STLC
100
AcDbCircle
 10
646845.3621054249
 20
275572.8602265036
 30
0.0
 40
5.692637602266283
100
AcDbArc
 50
257.5545370025223
 51
270.0
  0
ARC
  5
171
330
2
100
AcDbEntity
  8
CS-STLC
100
AcDbCircle
 10
646845.3621054249
 20
275572.8602265036
 30
0.0
 40
5.692637602266283
100
AcDbArc
 50
270.0
 51
282.4454629974777
  0
ARC
  5
172
330
2
100
AcDbEntity
  8
CS-STLC
100
AcDbCircle
 10
646845.8067003002
 20
275570.8457160435
 30
0.0
 40
3.629650234534663
100
AcDbArc
 50
282.4454629974777
 51
298.049042001302
  0
ARC
  5
173
330
2
100
AcDbEntity
  8
CS-STLC
100
AcDbCircle
 10
646846.4822579972
 20
275569.5777962522
 30
0.0
 40
2.192987860299809
100
AcDbArc
 50
298.049042001302
 51
322.137919999844
  0
ARC
  5
174
330
2
100
AcDbEntity
  8
CS-STLC
100
AcDbCircle
 10
646847.4973543838
 20
275568.7886437027
 30
0.0
 40
0.9072263717550439
100
AcDbArc
 50
322.137919999844
 51
0.0
  0
ARC
  5
175
330
2
100
AcDbEntity
  8
CS-STLC
100
AcDbCircle
 10
646847.4973543838
 20
275568.7886437027
 30
0.0
 40
0.9072263717550439
100
AcDbArc
 50
0.0
 51
37.86208000015602
  0
ARC
  5
176
330
2
100
AcDbEntity
  8
CS-STLC
100
AcDbCircle
 10
646846.4822579972
 20
275567.9994910404
 30
0.0
 40
2.192987860299809
100
AcDbArc
 50
37.86208000015602
 51
61.95095799869801
  0
ARC
  5
177
330
2
100
AcDbEntity
  8
CS-STLC
100
AcDbCircle
 10
646845.8067003002
 20
275566.7315712492
 30
0.0
 40
3.629650234534663
100
AcDbArc
 50
61.95095799869801
 51
77.55453700252225
  0
ARC
  5
178
330
2
100
AcDbEntity
  8
CS-STLC
100
AcDbCircle
 10
646845.3621054249
 20
275564.7170609019
 30
0.0
 40
5.692637602266283
100
AcDbArc
 50
77.55453700252225
 51
90.0
  0
ARC
  5
179
330
2
100
AcDbEntity
  8
CS-STLC
100
AcDbCircle
 10
646845.3621054249
 20
275564.7170609019
 30
0.0
 40
5.692637602266283
100
AcDbArc
 50
90.0
 51
102.4454629974777
  0
ARC
  5
17A
330
2
100
AcDbEntity
  8
CS-STLC
100
AcDbCircle
 10
646844.9175105497
 20
275566.7315712492
 30
0.0
 40
3.629650234534663
100
AcDbArc
 50
102.4454629974777
 51
118.049042001302
  0
ARC
  5
17B
330
2
100
AcDbEntity
  8
CS-STLC
100
AcDbCircle
 10
646844.2419529655
 20
275567.9994910404
 30
0.0
 40
2.192987860299809
100
AcDbArc
 50
118.049042001302
 51
142.1379199998439
  0
ARC
  5
17C
330
2
100
AcDbEntity
  8
CS-STLC
100
AcDbCircle
 10
646843.2268564662
 20
275568.7886437027
 30
0.0
 40
0.9072263717550439
100
AcDbArc
 50
142.1379199998439
 51
180.0
  0
LINE
  5
17D
330
2
100
AcDbEntity
  8
CS-DIML
100
AcDbLine
 10
647063.9370070587
 20
275560.8793059142
 30
0.0
 11
647078.7815645086
 21
275560.8793059142
 31
0.0
  0
LINE
  5
17E
330
2
100
AcDbEntity
  8
CS-DIML
100
AcDbLine
 10
647040.5786673087
 20
275518.7645811142
 30
0.0
 11
647063.9370070587
 21
275560.8793059142
 31
0.0
  0
SOLID
  5
17F
330
2
100
AcDbEntity
  8
CS-DIML
100
AcDbTrace
 10
647040.5786673087
 20
275518.7645811142
 30
0.0
 11
647044.4036552947
 21
275534.0894462826
 31
0.0
 12
647047.9786459616
 22
275532.1066280126
 32
0.0
 13
647047.9786459616
 23
275532.1066280126
 33
0.0
  0
TEXT
  5
180
330
2
100
AcDbEntity
  8
CS-DIMT
100
AcDbText
 10
647085.6691830086
 20
275555.3296354356
 30
0.0
 40
15.795
  1
Á¤ÂøºÎ º¸°­Ã¶±Ù
  7
WGTXT
100
AcDbText
  0
LINE
  5
181
330
2
100
AcDbEntity
  8
CS-DIML
100
AcDbLine
 10
647051.6736270465
 20
275450.6332995563
 30
0.0
 11
647073.3176182965
 21
275411.9619899063
 31
0.0
  0
SOLID
  5
182
330
2
100
AcDbEntity
  8
CS-DIML
100
AcDbTrace
 10
647051.6736270465
 20
275450.6332995563
 30
0.0
 11
647062.6923350966
 21
275439.3164935563
 31
0.0
 12
647059.1250200965
 22
275437.3198988063
 32
0.0
 13
647059.1250200965
 23
275437.3198988063
 33
0.0
  0
TEXT
  5
183
330
2
100
AcDbEntity
  8
CS-DIMT
100
AcDbText
 10
647094.7220288966
 20
275406.8811478563
 30
0.0
 40
15.795
  1
FLAT DUCT
  7
WGTXT
100
AcDbText
  0
LINE
  5
184
330
2
100
AcDbEntity
  8
CS-DIML
100
AcDbLine
 10
647073.3176182965
 20
275411.9619899063
 30
0.0
 11
647088.9296963466
 21
275411.9619899063
 31
0.0
  0
TEXT
  5
185
330
2
100
AcDbEntity
  8
CS-DIMT
100
AcDbText
 10
646492.7948142499
 20
275556.0189418369
 30
0.0
 40
23.6925
  1
Á¤ Âø ÆÇ 
  7
WGTXT
100
AcDbText
  0
TEXT
  5
186
330
2
100
AcDbEntity
  8
CS-DIMT
100
AcDbText
 10
646783.5794191846
 20
275604.1731948876
 30
0.0
 40
23.6925
  1
Á¤ÂøºÎ º¸°­Ã¶±Ù 
  7
WGTXT
100
AcDbText
  0
ENDSEC
  0
SECTION
  2
OBJECTS
  0
DICTIONARY
  5
A
330
0
100
AcDbDictionary
281
     1
  3
ACAD_COLOR
350
2E
  3
ACAD_GROUP
350
2A
  3
ACAD_LAYOUT
350
10
  3
ACAD_MATERIAL
350
2D
  3
ACAD_MLINESTYLE
350
2B
  3
ACAD_PLOTSETTINGS
350
2C
  3
ACAD_PLOTSTYLENAME
350
9
1001
ADE
1000
ADE02C004
1000
[Query]
1000
CaseSensitiveMatch=0
1000
SaveCurrQueryInSession=1
1000
MkSelSetWithQryObj=0
1000
ShowBlockAsInsPt=0
1000
CreateAssociativeHatchObjects=0
1000
ReferenceBoundaryForAreaLocation=1
1000
ShowImageAsBoundary=1
1000
DefaultJoinOperator=2
1000
ColorForAdd=red
1000
ColorForRemove=red
1000
BlockLocnForQuery=1
1000
TextLocnForQuery=1
1000
[Save Back]
1000
RedefineBlockDefinitions=1
1000
RedefineLayerDefinitions=1
1000
RedefineTextStyleDefinitions=1
1000
RemoveUnusedGroups=1
1000
EraseSavedBackObjects=1
1000
RemoveLockAfterSave=1
1000
CreateHistoryFileOfChanges=0
1000
CreateBackupFileOfSourceDwg=1
1000
DontAddObjectsToSaveSet=0
1000
MarkObjectsForEditingWithoutPrompting=0
1000
[Coordinate Transformation]
1000
RestoreLastActiveDwgsOnStartup=1
1000
ActivateDwgsOnAttach=1
1000
AdjustSizesAndScalesForChangesInUnits=1
1000
AdjustRotationsForMapDistortions=1
1000
AdjustSizesAndScalesForMapDistortions=1
1000
AdjustElevations=1
1000
AdjustZeroRotationObjects=1
1000
ReconnectDbOnWSOpen=1
1000
NoOfSQLConditionsInHistory=10
  0
DICTIONARY
  5
18
330
17
100
AcDbDictionary
280
     1
281
     1
  3
ACAD_LAYERFILTERS
360
19
  3
ACAD_LAYERSTATES
360
1A
  0
DICTIONARY
  5
3
330
2
100
AcDbDictionary
280
     1
281
     1
  3
ACAD_LAYOUTSELFREF
360
4
  3
ACAD_SORTENTS
360
5
  0
DICTIONARY
  5
12
330
11
100
AcDbDictionary
280
     1
281
     1
  3
ACAD_LAYOUTSELFREF
360
13
  0
DICTIONARY
  5
2E
102
{ACAD_REACTORS
330
A
102
}
330
A
100
AcDbDictionary
281
     1
  0
DICTIONARY
  5
2A
102
{ACAD_REACTORS
330
A
102
}
330
A
100
AcDbDictionary
281
     1
  0
DICTIONARY
  5
10
102
{ACAD_REACTORS
330
A
102
}
330
A
100
AcDbDictionary
281
     1
  3
Model
350
F
  3
¹èÄ¡1
350
16
  0
DICTIONARY
  5
2D
102
{ACAD_REACTORS
330
A
102
}
330
A
100
AcDbDictionary
281
     1
  0
DICTIONARY
  5
2B
102
{ACAD_REACTORS
330
A
102
}
330
A
100
AcDbDictionary
281
     1
  3
STANDARD
350
36
  0
DICTIONARY
  5
2C
102
{ACAD_REACTORS
330
A
102
}
330
A
100
AcDbDictionary
281
     1
  0
ACDBDICTIONARYWDFLT
  5
9
102
{ACAD_REACTORS
330
A
102
}
330
A
100
AcDbDictionary
281
     1
  3
Normal
350
8
100
AcDbDictionaryWithDefault
340
8
  0
DICTIONARY
  5
19
102
{ACAD_REACTORS
330
18
102
}
330
18
100
AcDbDictionary
280
     1
281
     1
  0
DICTIONARY
  5
1A
102
{ACAD_REACTORS
330
18
102
}
330
18
100
AcDbDictionary
281
     1
  0
XRECORD
  5
4
102
{ACAD_REACTORS
330
3
102
}
330
3
100
AcDbXrecord
280
     1
340
2
  0
SORTENTSTABLE
  5
5
102
{ACAD_REACTORS
330
3
102
}
330
3
100
AcDbSortentsTable
330
2
  0
XRECORD
  5
13
102
{ACAD_REACTORS
330
12
102
}
330
12
100
AcDbXrecord
280
     1
340
11
  0
LAYOUT
  5
F
102
{ACAD_REACTORS
330
10
102
}
330
10
100
AcDbPlotSettings
  1

  2
FX Document Centre 285 PCL 6 K
  4
A4
  6

 40
5.111750125885009
 41
5.11176061630249
 42
5.111740112304687
 43
5.11175537109375
 44
209.9733276367187
 45
296.9259948730469
 46
25.04
 47
0.0
 48
438267.2490756199
 49
128252.135275635
140
439400.000013625
141
128843.4761185499
142
1.0
143
3.95096318109212
 70
 11956
 72
     1
 73
     1
 74
     4
  7
black.ctb
 75
     0
147
0.2531028395267356
 76
     0
 77
     2
 78
   300
148
-438267.2490756199
149
-128252.135275635
100
AcDbLayout
  1
Model
 70
     1
 71
     0
 10
0.0
 20
0.0
 11
12.0
 21
9.0
 12
0.0
 22
0.0
 32
0.0
 14
0.0
 24
0.0
 34
0.0
 15
0.0
 25
0.0
 35
0.0
146
0.0
 13
0.0
 23
0.0
 33
0.0
 16
1.0
 26
0.0
 36
0.0
 17
0.0
 27
1.0
 37
0.0
 76
     0
330
2
  0
LAYOUT
  5
16
102
{ACAD_REACTORS
330
10
102
}
330
10
100
AcDbPlotSettings
  1

  2
none_device
  4
Letter_(8.50_x_11.00_Inches)
  6

 40
6.349999904632568
 41
6.349999904632568
 42
6.350006103515625
 43
6.350006103515625
 44
215.8999938964844
 45
279.3999938964844
 46
0.0
 47
0.0
 48
0.0
 49
0.0
140
0.0
141
0.0
142
1.0
143
1.0
 70
   688
 72
     0
 73
     1
 74
     5
  7
À¯Ä¡~ÀÌ¾çÀ½¿µ.ctb
 75
    16
147
1.0
 76
     0
 77
     2
 78
   300
148
0.0
149
0.0
100
AcDbLayout
  1
¹èÄ¡1
 70
     1
 71
     1
 10
-0.2500002402958907
 20
-0.2499999962453767
 11
10.74999951940821
 21
8.249999763458731
 12
0.0
 22
0.0
 32
0.0
 14
1.000000000000000E+20
 24
1.000000000000000E+20
 34
1.000000000000000E+20
 15
-1.000000000000000E+20
 25
-1.000000000000000E+20
 35
-1.000000000000000E+20
146
0.0
 13
0.0
 23
0.0
 33
0.0
 16
1.0
 26
0.0
 36
0.0
 17
0.0
 27
1.0
 37
0.0
 76
     0
330
11
  0
MLINESTYLE
  5
36
102
{ACAD_REACTORS
330
2B
102
}
330
2B
100
AcDbMlineStyle
  2
STANDARD
 70
     0
  3

 62
   256
 51
90.0
 52
90.0
 71
     2
 49
0.5
 62
   256
  6
BYLAYER
 49
-0.5
 62
   256
  6
BYLAYER
  0
ACDBPLACEHOLDER
  5
8
102
{ACAD_REACTORS
330
9
102
}
330
9
  0
ENDSEC
  0
EOF
