  0
SECTION
  2
HEADER
  9
$ACADVER
  1
AC1014
  9
$ACADMAINTVER
 70
     9
  9
$DWGCODEPAGE
  3
ANSI_949
  9
$INSBASE
 10
0.0
 20
0.0
 30
0.0
  9
$EXTMIN
 10
1004.28257206954
 20
6977.796056291314
 30
-0.0000000349181948
  9
$EXTMAX
 10
14422.09262670261
 20
10381.22317044672
 30
0.0000000814935747
  9
$LIMMIN
 10
0.0
 20
0.0
  9
$LIMMAX
 10
16820.0
 20
11880.0
  9
$ORTHOMODE
 70
     1
  9
$REGENMODE
 70
     1
  9
$FILLMODE
 70
     1
  9
$QTEXTMODE
 70
     0
  9
$MIRRTEXT
 70
     0
  9
$DRAGMODE
 70
     2
  9
$LTSCALE
 40
110.0
  9
$OSMODE
 70
    37
  9
$ATTMODE
 70
     1
  9
$TEXTSIZE
 40
0.2
  9
$TRACEWID
 40
0.05
  9
$TEXTSTYLE
  7
STANDARD
  9
$CLAYER
  8
0
  9
$CELTYPE
  6
CONTINUOUS
  9
$CECOLOR
 62
   256
  9
$CELTSCALE
 40
1.0
  9
$DELOBJ
 70
     1
  9
$DISPSILH
 70
     0
  9
$DIMSCALE
 40
20.0
  9
$DIMASZ
 40
1.0
  9
$DIMEXO
 40
0.0
  9
$DIMDLI
 40
0.0
  9
$DIMRND
 40
0.0
  9
$DIMDLE
 40
0.0
  9
$DIMEXE
 40
0.0
  9
$DIMTP
 40
0.0
  9
$DIMTM
 40
0.0
  9
$DIMTXT
 40
2.799999999999998
  9
$DIMCEN
 40
1.0
  9
$DIMTSZ
 40
0.0
  9
$DIMTOL
 70
     0
  9
$DIMLIM
 70
     0
  9
$DIMTIH
 70
     0
  9
$DIMTOH
 70
     0
  9
$DIMSE1
 70
     0
  9
$DIMSE2
 70
     0
  9
$DIMTAD
 70
     3
  9
$DIMZIN
 70
     8
  9
$DIMBLK
  1

  9
$DIMASO
 70
     1
  9
$DIMSHO
 70
     1
  9
$DIMPOST
  1

  9
$DIMAPOST
  1

  9
$DIMALT
 70
     0
  9
$DIMALTD
 70
     2
  9
$DIMALTF
 40
25.4
  9
$DIMLFAC
 40
1.0
  9
$DIMTOFL
 70
     1
  9
$DIMTVP
 40
0.0
  9
$DIMTIX
 70
     1
  9
$DIMSOXD
 70
     0
  9
$DIMSAH
 70
     0
  9
$DIMBLK1
  1

  9
$DIMBLK2
  1

  9
$DIMSTYLE
  2
STANDARD
  9
$DIMCLRD
 70
     1
  9
$DIMCLRE
 70
     1
  9
$DIMCLRT
 70
     4
  9
$DIMTFAC
 40
1.0
  9
$DIMGAP
 40
1.0
  9
$DIMJUST
 70
     0
  9
$DIMSD1
 70
     0
  9
$DIMSD2
 70
     0
  9
$DIMTOLJ
 70
     1
  9
$DIMTZIN
 70
     0
  9
$DIMALTZ
 70
     0
  9
$DIMALTTZ
 70
     0
  9
$DIMFIT
 70
     3
  9
$DIMUPT
 70
     0
  9
$DIMUNIT
 70
     2
  9
$DIMDEC
 70
     1
  9
$DIMTDEC
 70
     4
  9
$DIMALTU
 70
     2
  9
$DIMALTTD
 70
     2
  9
$DIMTXSTY
  7
STANDARD
  9
$DIMAUNIT
 70
     0
  9
$LUNITS
 70
     2
  9
$LUPREC
 70
     4
  9
$SKETCHINC
 40
0.1
  9
$FILLETRAD
 40
0.0
  9
$AUNITS
 70
     0
  9
$AUPREC
 70
     0
  9
$MENU
  1
.
  9
$ELEVATION
 40
0.0
  9
$PELEVATION
 40
0.0
  9
$THICKNESS
 40
0.0
  9
$LIMCHECK
 70
     0
  9
$BLIPMODE
 70
     0
  9
$CHAMFERA
 40
0.0
  9
$CHAMFERB
 40
0.0
  9
$CHAMFERC
 40
0.0
  9
$CHAMFERD
 40
0.0
  9
$SKPOLY
 70
     0
  9
$TDCREATE
 40
2452807.472497685
  9
$TDUPDATE
 40
2454055.438534791
  9
$TDINDWG
 40
0.0251445255
  9
$TDUSRTIMER
 40
0.0251442245
  9
$USRTIMER
 70
     1
  9
$ANGBASE
 50
0.0
  9
$ANGDIR
 70
     0
  9
$PDMODE
 70
     0
  9
$PDSIZE
 40
0.0
  9
$PLINEWID
 40
0.0
  9
$COORDS
 70
     1
  9
$SPLFRAME
 70
     0
  9
$SPLINETYPE
 70
     6
  9
$SPLINESEGS
 70
     8
  9
$ATTDIA
 70
     0
  9
$ATTREQ
 70
     1
  9
$HANDLING
 70
 22529
  9
$HANDSEED
  5
128AC
  9
$SURFTAB1
 70
     6
  9
$SURFTAB2
 70
     6
  9
$SURFTYPE
 70
     6
  9
$SURFU
 70
     6
  9
$SURFV
 70
     6
  9
$UCSNAME
  2

  9
$UCSORG
 10
0.0
 20
0.0
 30
0.0
  9
$UCSXDIR
 10
1.0
 20
0.0
 30
0.0
  9
$UCSYDIR
 10
0.0
 20
1.0
 30
0.0
  9
$PUCSNAME
  2

  9
$PUCSORG
 10
0.0
 20
0.0
 30
0.0
  9
$PUCSXDIR
 10
1.0
 20
0.0
 30
0.0
  9
$PUCSYDIR
 10
0.0
 20
1.0
 30
0.0
  9
$USERI1
 70
     0
  9
$USERI2
 70
     0
  9
$USERI3
 70
     0
  9
$USERI4
 70
     0
  9
$USERI5
 70
     0
  9
$USERR1
 40
0.0
  9
$USERR2
 40
0.0
  9
$USERR3
 40
0.0
  9
$USERR4
 40
0.0
  9
$USERR5
 40
0.0
  9
$WORLDVIEW
 70
     1
  9
$SHADEDGE
 70
     3
  9
$SHADEDIF
 70
    70
  9
$TILEMODE
 70
     1
  9
$MAXACTVP
 70
    64
  9
$PINSBASE
 10
0.0
 20
0.0
 30
0.0
  9
$PLIMCHECK
 70
     0
  9
$PEXTMIN
 10
1.000000000000000E+20
 20
1.000000000000000E+20
 30
1.000000000000000E+20
  9
$PEXTMAX
 10
-1.000000000000000E+20
 20
-1.000000000000000E+20
 30
-1.000000000000000E+20
  9
$PLIMMIN
 10
0.0
 20
0.0
  9
$PLIMMAX
 10
12.0
 20
9.0
  9
$UNITMODE
 70
     0
  9
$VISRETAIN
 70
     1
  9
$PLINEGEN
 70
     0
  9
$PSLTSCALE
 70
     1
  9
$TREEDEPTH
 70
  3020
  9
$PICKSTYLE
 70
     1
  9
$CMLSTYLE
  2
STANDARD
  9
$CMLJUST
 70
     0
  9
$CMLSCALE
 40
1.0
  9
$PROXYGRAPHICS
 70
     1
  9
$MEASUREMENT
 70
     0
  0
ENDSEC
  0
SECTION
  2
CLASSES
  0
CLASS
  1
ACDBDICTIONARYWDFLT
  2
AcDbDictionaryWithDefault
  3
AutoCAD 2000
 90
        0
280
     0
281
     0
  0
CLASS
  1
ACDBPLACEHOLDER
  2
AcDbPlaceHolder
  3
AutoCAD 2000
 90
        0
280
     0
281
     0
  0
CLASS
  1
LAYOUT
  2
AcDbLayout
  3
AutoCAD 2000
 90
        0
280
     0
281
     0
  0
CLASS
  1
LONG_TRANSACTION
  2
AcDbLongTransaction
  3
AutoCAD 2000
 90
        0
280
     0
281
     0
  0
CLASS
  1
LWPOLYLINE
  2
AcDbPolyline
  3
AutoCAD 2000
 90
        0
280
     0
281
     1
  0
CLASS
  1
HATCH
  2
AcDbHatch
  3
AutoCAD 2000
 90
        0
280
     0
281
     1
  0
CLASS
  1
XRECORD
  2
AcDbXrecord
  3
AutoCAD 2000
 90
        0
280
     0
281
     0
  0
CLASS
  1
LONG_TRANSACTION
  2
AcDbLongTransaction
  3
AutoCAD 2000
 90
        0
280
     0
281
     0
  0
CLASS
  1
LWPOLYLINE
  2
AcDbPolyline
  3
AutoCAD 2000
 90
        0
280
     0
281
     1
  0
CLASS
  1
HATCH
  2
AcDbHatch
  3
AutoCAD 2000
 90
        0
280
     0
281
     1
  0
CLASS
  1
XRECORD
  2
AcDbXrecord
  3
AutoCAD 2000
 90
        0
280
     0
281
     0
  0
CLASS
  1
DICTIONARYVAR
  2
AcDbDictionaryVar
  3
AutoCAD 2000
 90
        0
280
     0
281
     0
  0
CLASS
  1
LONG_TRANSACTION
  2
AcDbLongTransaction
  3
AutoCAD 2000
 90
        0
280
     0
281
     0
  0
CLASS
  1
LWPOLYLINE
  2
AcDbPolyline
  3
AutoCAD 2000
 90
        0
280
     0
281
     1
  0
CLASS
  1
HATCH
  2
AcDbHatch
  3
AutoCAD 2000
 90
        0
280
     0
281
     1
  0
CLASS
  1
XRECORD
  2
AcDbXrecord
  3
AutoCAD 2000
 90
        0
280
     0
281
     0
  0
CLASS
  1
LONG_TRANSACTION
  2
AcDbLongTransaction
  3
AutoCAD 2000
 90
        0
280
     0
281
     0
  0
CLASS
  1
LWPOLYLINE
  2
AcDbPolyline
  3
AutoCAD 2000
 90
        0
280
     0
281
     1
  0
CLASS
  1
HATCH
  2
AcDbHatch
  3
AutoCAD 2000
 90
        0
280
     0
281
     1
  0
CLASS
  1
XRECORD
  2
AcDbXrecord
  3
AutoCAD 2000
 90
        0
280
     0
281
     0
  0
ENDSEC
  0
SECTION
  2
TABLES
  0
TABLE
  2
VPORT
  5
100
330
0
100
AcDbSymbolTable
 70
     2
  0
VPORT
  5
12889
330
100
100
AcDbSymbolTableRecord
100
AcDbViewportTableRecord
  2
*ACTIVE
 70
     0
 10
0.0
 20
0.0
 11
1.0
 21
1.0
 12
7713.187599386078
 22
8679.509613369017
 13
0.0
 23
0.0
 14
10.0
 24
10.0
 15
10.0
 25
10.0
 16
0.0
 26
0.0
 36
1.0
 17
0.0
 27
0.0
 37
0.0
 40
8511.86640128912
 41
1.584210526315789
 42
50.0
 43
0.0
 44
0.0
 50
0.0
 51
0.0
 71
     0
 72
   100
 73
     1
 74
     3
 75
     0
 76
     0
 77
     0
 78
     0
  0
ENDTAB
  0
TABLE
  2
LTYPE
  5
112
330
0
100
AcDbSymbolTable
 70
     5
  0
LTYPE
  5
113
330
112
100
AcDbSymbolTableRecord
100
AcDbLinetypeTableRecord
  2
BYBLOCK
 70
     0
  3

 72
    65
 73
     0
 40
0.0
  0
LTYPE
  5
114
330
112
100
AcDbSymbolTableRecord
100
AcDbLinetypeTableRecord
  2
BYLAYER
 70
     0
  3

 72
    65
 73
     0
 40
0.0
  0
LTYPE
  5
12792
330
112
100
AcDbSymbolTableRecord
100
AcDbLinetypeTableRecord
  2
CONTINUOUS
 70
     0
  3
Solid line
 72
    65
 73
     0
 40
0.0
  0
LTYPE
  5
115
330
112
100
AcDbSymbolTableRecord
100
AcDbLinetypeTableRecord
  2
LDASHDOT
 70
     0
  3
Hangil LType Dash Dot--- - --- - --- -
 72
    65
 73
     4
 40
2.0
 49
1.25
 74
     0
 49
-0.25
 74
     0
 49
0.25
 74
     0
 49
-0.25
 74
     0
  0
LTYPE
  5
116
330
112
100
AcDbSymbolTableRecord
100
AcDbLinetypeTableRecord
  2
DASH
 70
     0
  3
Hangil LType Dash -- -- -- -- --
 72
    65
 73
     2
 40
0.75
 49
0.5
 74
     0
 49
-0.25
 74
     0
  0
LTYPE
  5
117
330
112
100
AcDbSymbolTableRecord
100
AcDbLinetypeTableRecord
  2
DOT
 70
     0
  3
Hangil LType Dot - - - - - - - -
 72
    65
 73
     2
 40
1.0
 49
0.5
 74
     0
 49
-0.5
 74
     0
  0
LTYPE
  5
118
330
112
100
AcDbSymbolTableRecord
100
AcDbLinetypeTableRecord
  2
LDASHDOTDOT
 70
     0
  3
Hangil LType Dash Dot Dot --- - - --- - - --- -
 72
    65
 73
     6
 40
2.5
 49
1.25
 74
     0
 49
-0.25
 74
     0
 49
0.25
 74
     0
 49
-0.25
 74
     0
 49
0.25
 74
     0
 49
-0.25
 74
     0
  0
ENDTAB
  0
TABLE
  2
LAYER
  5
130
330
0
100
AcDbSymbolTable
 70
    16
  0
LAYER
  5
10
330
130
100
AcDbSymbolTableRecord
100
AcDbLayerTableRecord
  2
0
 70
     0
 62
     7
  6
CONTINUOUS
  0
LAYER
  5
131
330
130
100
AcDbSymbolTableRecord
100
AcDbLayerTableRecord
  2
CENTERLINE
 70
     0
 62
     1
  6
LDASHDOT
  0
LAYER
  5
133
330
130
100
AcDbSymbolTableRecord
100
AcDbLayerTableRecord
  2
CUTLINE
 70
     0
 62
     1
  6
LDASHDOT
  0
LAYER
  5
134
330
130
100
AcDbSymbolTableRecord
100
AcDbLayerTableRecord
  2
A_0
 70
     0
 62
     7
  6
CONTINUOUS
  0
LAYER
  5
135
330
130
100
AcDbSymbolTableRecord
100
AcDbLayerTableRecord
  2
MIDDLETITLE
 70
     0
 62
     6
  6
CONTINUOUS
  0
LAYER
  5
136
330
130
100
AcDbSymbolTableRecord
100
AcDbLayerTableRecord
  2
MRK
 70
     0
 62
     1
  6
CONTINUOUS
  0
LAYER
  5
137
330
130
100
AcDbSymbolTableRecord
100
AcDbLayerTableRecord
  2
DIMENSION
 70
     0
 62
     1
  6
CONTINUOUS
  0
LAYER
  5
138
330
130
100
AcDbSymbolTableRecord
100
AcDbLayerTableRecord
  2
MAINMEMBER
 70
     0
 62
     4
  6
CONTINUOUS
  0
LAYER
  5
139
330
130
100
AcDbSymbolTableRecord
100
AcDbLayerTableRecord
  2
FIELDSPLICE
 70
     0
 62
     7
  6
CONTINUOUS
  0
LAYER
  5
140
330
130
100
AcDbSymbolTableRecord
100
AcDbLayerTableRecord
  2
LARGETITLE
 70
     0
 62
     6
  6
CONTINUOUS
  0
LAYER
  5
141
330
130
100
AcDbSymbolTableRecord
100
AcDbLayerTableRecord
  2
TABLE
 70
     0
 62
     1
  6
CONTINUOUS
  0
LAYER
  5
142
330
130
100
AcDbSymbolTableRecord
100
AcDbLayerTableRecord
  2
DRL
 70
     0
 62
     7
  6
CONTINUOUS
  0
LAYER
  5
143
330
130
100
AcDbSymbolTableRecord
100
AcDbLayerTableRecord
  2
MAINMEMBER__1
 70
     0
 62
     4
  6
DASH
  0
LAYER
  5
144
330
130
100
AcDbSymbolTableRecord
100
AcDbLayerTableRecord
  2
TABLEOUTLINE
 70
     0
 62
    44
  6
CONTINUOUS
  0
LAYER
  5
145
330
130
100
AcDbSymbolTableRecord
100
AcDbLayerTableRecord
  2
FIELDSPLICE__1
 70
     0
 62
     7
  6
DASH
  0
LAYER
  5
146
330
130
100
AcDbSymbolTableRecord
100
AcDbLayerTableRecord
  2
SMALLTITLE
 70
     0
 62
     4
  6
CONTINUOUS
  0
ENDTAB
  0
TABLE
  2
STYLE
  5
157
330
0
100
AcDbSymbolTable
 70
     2
  0
STYLE
  5
158
330
157
100
AcDbSymbolTableRecord
100
AcDbTextStyleTableRecord
  2
A_STANDARD
 70
     0
 40
0.0
 41
1.0
 50
0.0
 71
     0
 42
0.0
  3
romans.shx
  4
ghs.shx
  0
STYLE
  5
12793
330
157
100
AcDbSymbolTableRecord
100
AcDbTextStyleTableRecord
  2
STANDARD
 70
     0
 40
0.0
 41
1.0
 50
0.0
 71
     0
 42
0.2
  3

  4

  0
ENDTAB
  0
TABLE
  2
VIEW
  5
169
330
0
100
AcDbSymbolTable
 70
     0
  0
ENDTAB
  0
TABLE
  2
UCS
  5
180
330
0
100
AcDbSymbolTable
 70
     0
  0
ENDTAB
  0
TABLE
  2
APPID
  5
191
330
0
100
AcDbSymbolTable
 70
     1
  0
APPID
  5
192
330
191
100
AcDbSymbolTableRecord
100
AcDbRegAppTableRecord
  2
ACAD
 70
     0
  0
ENDTAB
  0
TABLE
  2
DIMSTYLE
  5
203
330
0
100
AcDbSymbolTable
 70
     1
  0
DIMSTYLE
105
27
330
203
100
AcDbSymbolTableRecord
100
AcDbDimStyleTableRecord
  2
STANDARD
 70
     0
  3

  4

  5

  6

  7

 40
1.0
 41
0.18
 42
0.0625
 43
0.38
 44
20.0
 45
0.0
 46
0.0
 47
0.0
 48
0.0
140
0.0
141
0.09
142
0.0
143
25.4
144
1.0
145
10.0
146
1.0
147
0.09
 71
     0
 72
     0
 73
     1
 74
     1
 75
     0
 76
     0
 77
     0
 78
     0
170
     0
171
     2
172
     0
173
     0
174
     0
175
     0
176
     0
177
     0
178
     0
270
     2
271
     4
272
     4
273
     2
274
     2
340
158
275
     0
280
     0
281
     0
282
     0
283
     1
284
     0
285
     0
286
     0
287
     3
288
     0
  0
ENDTAB
  0
TABLE
  2
BLOCK_RECORD
  5
214
330
0
100
AcDbSymbolTable
 70
     0
  0
BLOCK_RECORD
  5
215
102
{ACAD_XDICTIONARY
360
127BE
102
}
330
214
100
AcDbSymbolTableRecord
100
AcDbBlockTableRecord
  2
*MODEL_SPACE
  0
BLOCK_RECORD
  5
216
102
{ACAD_XDICTIONARY
360
127C0
102
}
330
214
100
AcDbSymbolTableRecord
100
AcDbBlockTableRecord
  2
*PAPER_SPACE
  0
ENDTAB
  0
ENDSEC
  0
SECTION
  2
BLOCKS
  0
BLOCK
  5
227
330
215
100
AcDbEntity
  8
A_0
100
AcDbBlockBegin
  2
*MODEL_SPACE
 70
     0
 10
0.0
 20
0.0
 30
0.0
  3
*MODEL_SPACE
  1

  0
ENDBLK
  5
228
330
215
100
AcDbEntity
  8
0
100
AcDbBlockEnd
  0
BLOCK
  5
229
330
216
100
AcDbEntity
 67
     1
  8
A_0
100
AcDbBlockBegin
  2
*PAPER_SPACE
 70
     0
 10
0.0
 20
0.0
 30
0.0
  3
*PAPER_SPACE
  1

  0
ENDBLK
  5
230
330
216
100
AcDbEntity
 67
     1
  8
0
100
AcDbBlockEnd
  0
ENDSEC
  0
SECTION
  2
ENTITIES
  0
LINE
  5
10686
330
215
100
AcDbEntity
  8
MAINMEMBER
100
AcDbLine
 10
1045.0
 20
6989.993334947282
 30
0.0
 11
2155.0
 21
6989.993334947282
 31
0.0
  0
LINE
  5
10687
330
215
100
AcDbEntity
  8
MAINMEMBER
100
AcDbLine
 10
1045.0
 20
9629.993334947279
 30
0.0
 11
2155.0
 21
9629.993334947279
 31
0.0
  0
LINE
  5
10688
330
215
100
AcDbEntity
  8
MAINMEMBER
100
AcDbLine
 10
3147.5
 20
7237.393204947281
 30
0.0
 11
4052.5
 21
7358.59346494728
 31
0.0
  0
LINE
  5
10689
330
215
100
AcDbEntity
  8
MAINMEMBER
100
AcDbLine
 10
3147.5
 20
7249.393204947281
 30
0.0
 11
4052.5
 21
7370.593464947281
 31
0.0
  0
LINE
  5
10690
330
215
100
AcDbEntity
  8
MAINMEMBER
100
AcDbLine
 10
3147.5
 20
9461.393204947283
 30
0.0
 11
4052.5
 21
9582.593464947279
 31
0.0
  0
LINE
  5
10691
330
215
100
AcDbEntity
  8
MAINMEMBER
100
AcDbLine
 10
3147.5
 20
9449.393204947282
 30
0.0
 11
4052.5
 21
9570.593464947281
 31
0.0
  0
LINE
  5
10692
330
215
100
AcDbEntity
  8
MAINMEMBER
100
AcDbLine
 10
5062.5
 20
6989.993334947282
 30
0.0
 11
6137.5
 21
6989.993334947282
 31
0.0
  0
LINE
  5
10693
330
215
100
AcDbEntity
  8
MAINMEMBER
100
AcDbLine
 10
5062.5
 20
9629.993334947279
 30
0.0
 11
6137.5
 21
9629.993334947279
 31
0.0
  0
LINE
  5
10694
330
215
100
AcDbEntity
  8
MAINMEMBER
100
AcDbLine
 10
5062.5
 20
7902.993334947281
 30
0.0
 11
6137.5
 21
7902.993334947281
 31
0.0
  0
LINE
  5
10695
330
215
100
AcDbEntity
  8
MAINMEMBER
100
AcDbLine
 10
5062.5
 20
7916.993334947282
 30
0.0
 11
6137.5
 21
7916.993334947282
 31
0.0
  0
LINE
  5
10696
330
215
100
AcDbEntity
  8
MAINMEMBER
100
AcDbLine
 10
5062.5
 20
8702.993334947281
 30
0.0
 11
6137.5
 21
8702.993334947281
 31
0.0
  0
LINE
  5
10697
330
215
100
AcDbEntity
  8
MAINMEMBER
100
AcDbLine
 10
5062.5
 20
8716.993334947281
 30
0.0
 11
6137.5
 21
8716.993334947281
 31
0.0
  0
LINE
  5
10698
330
215
100
AcDbEntity
  8
MAINMEMBER
100
AcDbLine
 10
5062.5
 20
7097.993334947282
 30
0.0
 11
6137.5
 21
7097.993334947282
 31
0.0
  0
LINE
  5
10699
330
215
100
AcDbEntity
  8
MAINMEMBER
100
AcDbLine
 10
5062.5
 20
7109.993334947282
 30
0.0
 11
6137.5
 21
7109.993334947282
 31
0.0
  0
LINE
  5
10700
330
215
100
AcDbEntity
  8
MAINMEMBER
100
AcDbLine
 10
5062.5
 20
9521.99333494728
 30
0.0
 11
6137.5
 21
9521.99333494728
 31
0.0
  0
LINE
  5
10701
330
215
100
AcDbEntity
  8
MAINMEMBER
100
AcDbLine
 10
5062.5
 20
9509.993334947282
 30
0.0
 11
6137.5
 21
9509.993334947282
 31
0.0
  0
LINE
  5
10938
330
215
100
AcDbEntity
  8
MAINMEMBER__1
100
AcDbLine
 10
1600.0
 20
9629.993334947279
 30
0.0
 11
1600.0
 21
6989.993334947282
 31
0.0
  0
LINE
  5
10939
330
215
100
AcDbEntity
  8
MAINMEMBER__1
100
AcDbLine
 10
1045.0
 20
7502.993334947281
 30
0.0
 11
2155.0
 21
7502.993334947281
 31
0.0
  0
LINE
  5
10940
330
215
100
AcDbEntity
  8
MAINMEMBER__1
100
AcDbLine
 10
1045.0
 20
7516.993334947281
 30
0.0
 11
2155.0
 21
7516.993334947281
 31
0.0
  0
LINE
  5
10941
330
215
100
AcDbEntity
  8
MAINMEMBER__1
100
AcDbLine
 10
1045.0
 20
7902.993334947281
 30
0.0
 11
2155.0
 21
7902.993334947281
 31
0.0
  0
LINE
  5
10942
330
215
100
AcDbEntity
  8
MAINMEMBER__1
100
AcDbLine
 10
1045.0
 20
7916.993334947282
 30
0.0
 11
2155.0
 21
7916.993334947282
 31
0.0
  0
LINE
  5
10943
330
215
100
AcDbEntity
  8
MAINMEMBER__1
100
AcDbLine
 10
1045.0
 20
8302.993334947281
 30
0.0
 11
2155.0
 21
8302.993334947281
 31
0.0
  0
LINE
  5
10944
330
215
100
AcDbEntity
  8
MAINMEMBER__1
100
AcDbLine
 10
1045.0
 20
8316.993334947282
 30
0.0
 11
2155.0
 21
8316.993334947282
 31
0.0
  0
LINE
  5
10945
330
215
100
AcDbEntity
  8
MAINMEMBER__1
100
AcDbLine
 10
1045.0
 20
8702.993334947281
 30
0.0
 11
2155.0
 21
8702.993334947281
 31
0.0
  0
LINE
  5
10946
330
215
100
AcDbEntity
  8
MAINMEMBER__1
100
AcDbLine
 10
1045.0
 20
8716.993334947281
 30
0.0
 11
2155.0
 21
8716.993334947281
 31
0.0
  0
LINE
  5
10947
330
215
100
AcDbEntity
  8
MAINMEMBER__1
100
AcDbLine
 10
1045.0
 20
9102.993334947282
 30
0.0
 11
2155.0
 21
9102.993334947282
 31
0.0
  0
LINE
  5
10948
330
215
100
AcDbEntity
  8
MAINMEMBER__1
100
AcDbLine
 10
1045.0
 20
9116.993334947279
 30
0.0
 11
2155.0
 21
9116.993334947279
 31
0.0
  0
LINE
  5
10949
330
215
100
AcDbEntity
  8
MAINMEMBER__1
100
AcDbLine
 10
1045.0
 20
7097.993334947282
 30
0.0
 11
2155.0
 21
7097.993334947282
 31
0.0
  0
LINE
  5
10950
330
215
100
AcDbEntity
  8
MAINMEMBER__1
100
AcDbLine
 10
1045.0
 20
7109.993334947282
 30
0.0
 11
2155.0
 21
7109.993334947282
 31
0.0
  0
LINE
  5
10951
330
215
100
AcDbEntity
  8
MAINMEMBER__1
100
AcDbLine
 10
1045.0
 20
9521.99333494728
 30
0.0
 11
2155.0
 21
9521.99333494728
 31
0.0
  0
LINE
  5
10952
330
215
100
AcDbEntity
  8
MAINMEMBER__1
100
AcDbLine
 10
1045.0
 20
9509.993334947282
 30
0.0
 11
2155.0
 21
9509.993334947282
 31
0.0
  0
LINE
  5
10953
330
215
100
AcDbEntity
  8
MAINMEMBER__1
100
AcDbLine
 10
3600.0
 20
9521.99333494728
 30
0.0
 11
3600.0
 21
7297.993334947282
 31
0.0
  0
LINE
  5
10954
330
215
100
AcDbEntity
  8
MAINMEMBER__1
100
AcDbLine
 10
5600.0
 20
9629.993334947279
 30
0.0
 11
5600.0
 21
6989.993334947282
 31
0.0
  0
LINE
  5
10979
330
215
100
AcDbEntity
  8
DIMENSION
100
AcDbLine
 10
1245.0
 20
9649.993334947282
 30
0.0
 11
1245.0
 21
9859.993334947283
 31
0.0
  0
LINE
  5
10980
330
215
100
AcDbEntity
  8
DIMENSION
100
AcDbLine
 10
1955.0
 20
9649.993334947282
 30
0.0
 11
1955.0
 21
9859.993334947283
 31
0.0
  0
LINE
  5
10981
330
215
100
AcDbEntity
  8
DIMENSION
100
AcDbLine
 10
1245.0
 20
9849.99333494728
 30
0.0
 11
1955.0
 21
9849.99333494728
 31
0.0
  0
LINE
  5
10982
330
215
100
AcDbEntity
  8
DIMENSION
100
AcDbLine
 10
2175.0
 20
9629.993334947279
 30
0.0
 11
2385.0
 21
9629.993334947279
 31
0.0
  0
LINE
  5
10983
330
215
100
AcDbEntity
  8
DIMENSION
100
AcDbLine
 10
2175.0
 20
6989.993334947282
 30
0.0
 11
2385.0
 21
6989.993334947282
 31
0.0
  0
LINE
  5
10984
330
215
100
AcDbEntity
  8
DIMENSION
100
AcDbLine
 10
2375.0
 20
9629.993334947279
 30
0.0
 11
2375.0
 21
6989.993334947282
 31
0.0
  0
LINE
  5
10985
330
215
100
AcDbEntity
  8
DIMENSION
100
AcDbLine
 10
3432.5
 20
7256.218334947281
 30
0.0
 11
3432.5
 21
7046.218334947282
 31
0.0
  0
LINE
  5
10986
330
215
100
AcDbEntity
  8
DIMENSION
100
AcDbLine
 10
3767.5
 20
7256.218334947281
 30
0.0
 11
3767.5
 21
7046.218334947282
 31
0.0
  0
LINE
  5
10987
330
215
100
AcDbEntity
  8
DIMENSION
100
AcDbLine
 10
3432.5
 20
7056.218334947281
 30
0.0
 11
3767.5
 21
7056.218334947281
 31
0.0
  0
LINE
  5
10988
330
215
100
AcDbEntity
  8
DIMENSION
100
AcDbLine
 10
3347.5
 20
9574.818334947281
 30
0.0
 11
3347.5
 21
9784.818334947281
 31
0.0
  0
LINE
  5
10989
330
215
100
AcDbEntity
  8
DIMENSION
100
AcDbLine
 10
3852.5
 20
9574.818334947281
 30
0.0
 11
3852.5
 21
9784.818334947281
 31
0.0
  0
LINE
  5
10990
330
215
100
AcDbEntity
  8
DIMENSION
100
AcDbLine
 10
3347.5
 20
9774.818334947283
 30
0.0
 11
3852.5
 21
9774.818334947283
 31
0.0
  0
LINE
  5
10991
330
215
100
AcDbEntity
  8
DIMENSION
100
AcDbLine
 10
4072.5
 20
9449.993334947279
 30
0.0
 11
4282.5
 21
9449.993334947279
 31
0.0
  0
LINE
  5
10992
330
215
100
AcDbEntity
  8
DIMENSION
100
AcDbLine
 10
4072.5
 20
9169.993334947282
 30
0.0
 11
4282.5
 21
9169.993334947282
 31
0.0
  0
LINE
  5
10993
330
215
100
AcDbEntity
  8
DIMENSION
100
AcDbLine
 10
4272.499999999999
 20
9449.993334947279
 30
0.0
 11
4272.499999999999
 21
9169.993334947282
 31
0.0
  0
LINE
  5
10994
330
215
100
AcDbEntity
  8
DIMENSION
100
AcDbLine
 10
4072.5
 20
9099.99333494728
 30
0.0
 11
4282.5
 21
9099.99333494728
 31
0.0
  0
LINE
  5
10995
330
215
100
AcDbEntity
  8
DIMENSION
100
AcDbLine
 10
4072.5
 20
7719.993334947282
 30
0.0
 11
4282.5
 21
7719.993334947282
 31
0.0
  0
LINE
  5
10996
330
215
100
AcDbEntity
  8
DIMENSION
100
AcDbLine
 10
4272.499999999999
 20
9099.99333494728
 30
0.0
 11
4272.499999999999
 21
7719.993334947282
 31
0.0
  0
LINE
  5
10997
330
215
100
AcDbEntity
  8
DIMENSION
100
AcDbLine
 10
5262.5
 20
9649.993334947282
 30
0.0
 11
5262.5
 21
9859.993334947283
 31
0.0
  0
LINE
  5
10998
330
215
100
AcDbEntity
  8
DIMENSION
100
AcDbLine
 10
5937.5
 20
9649.993334947282
 30
0.0
 11
5937.5
 21
9859.993334947283
 31
0.0
  0
LINE
  5
10999
330
215
100
AcDbEntity
  8
DIMENSION
100
AcDbLine
 10
5262.5
 20
9849.99333494728
 30
0.0
 11
5937.5
 21
9849.99333494728
 31
0.0
  0
LINE
  5
11000
330
215
100
AcDbEntity
  8
DIMENSION
100
AcDbLine
 10
6157.5
 20
9629.993334947279
 30
0.0
 11
6367.5
 21
9629.993334947279
 31
0.0
  0
LINE
  5
11001
330
215
100
AcDbEntity
  8
DIMENSION
100
AcDbLine
 10
6157.5
 20
6989.993334947282
 30
0.0
 11
6367.5
 21
6989.993334947282
 31
0.0
  0
LINE
  5
11002
330
215
100
AcDbEntity
  8
DIMENSION
100
AcDbLine
 10
6357.5
 20
9629.993334947279
 30
0.0
 11
6357.5
 21
6989.993334947282
 31
0.0
  0
LINE
  5
11013
330
215
100
AcDbEntity
  8
CUTLINE
100
AcDbLine
 10
1045.0
 20
6989.993334947282
 30
0.0
 11
1045.0
 21
8249.993334947282
 31
0.0
  0
LINE
  5
11014
330
215
100
AcDbEntity
  8
CUTLINE
100
AcDbLine
 10
1045.0
 20
8369.993334947281
 30
0.0
 11
1045.0
 21
9629.993334947279
 31
0.0
  0
LINE
  5
11015
330
215
100
AcDbEntity
  8
CUTLINE
100
AcDbLine
 10
1045.0
 20
8249.993334947282
 30
0.0
 11
1005.0
 21
8189.993334947281
 31
0.0
  0
LINE
  5
11016
330
215
100
AcDbEntity
  8
CUTLINE
100
AcDbLine
 10
1005.0
 20
8189.993334947281
 30
0.0
 11
1085.0
 21
8429.993334947281
 31
0.0
  0
LINE
  5
11017
330
215
100
AcDbEntity
  8
CUTLINE
100
AcDbLine
 10
1085.0
 20
8429.993334947281
 30
0.0
 11
1045.0
 21
8369.993334947281
 31
0.0
  0
LINE
  5
11018
330
215
100
AcDbEntity
  8
CUTLINE
100
AcDbLine
 10
2155.0
 20
6989.993334947282
 30
0.0
 11
2155.0
 21
8249.993334947282
 31
0.0
  0
LINE
  5
11019
330
215
100
AcDbEntity
  8
CUTLINE
100
AcDbLine
 10
2155.0
 20
8369.993334947281
 30
0.0
 11
2155.0
 21
9629.993334947279
 31
0.0
  0
LINE
  5
11020
330
215
100
AcDbEntity
  8
CUTLINE
100
AcDbLine
 10
2155.0
 20
8249.993334947282
 30
0.0
 11
2115.0
 21
8189.993334947281
 31
0.0
  0
LINE
  5
11021
330
215
100
AcDbEntity
  8
CUTLINE
100
AcDbLine
 10
2115.0
 20
8189.993334947281
 30
0.0
 11
2195.0
 21
8429.993334947281
 31
0.0
  0
LINE
  5
11022
330
215
100
AcDbEntity
  8
CUTLINE
100
AcDbLine
 10
2195.0
 20
8429.993334947281
 30
0.0
 11
2155.0
 21
8369.993334947281
 31
0.0
  0
LINE
  5
11023
330
215
100
AcDbEntity
  8
CUTLINE
100
AcDbLine
 10
3147.5
 20
7264.743334947282
 30
0.0
 11
3147.5
 21
8334.743334947281
 31
0.0
  0
LINE
  5
11024
330
215
100
AcDbEntity
  8
CUTLINE
100
AcDbLine
 10
3147.5
 20
8394.743334947282
 30
0.0
 11
3147.5
 21
9464.743334947282
 31
0.0
  0
LINE
  5
11025
330
215
100
AcDbEntity
  8
CUTLINE
100
AcDbLine
 10
3147.5
 20
8334.743334947281
 30
0.0
 11
3127.5
 21
8304.74333494728
 31
0.0
  0
LINE
  5
11026
330
215
100
AcDbEntity
  8
CUTLINE
100
AcDbLine
 10
3127.5
 20
8304.74333494728
 30
0.0
 11
3167.5
 21
8424.743334947281
 31
0.0
  0
LINE
  5
11027
330
215
100
AcDbEntity
  8
CUTLINE
100
AcDbLine
 10
3167.5
 20
8424.743334947281
 30
0.0
 11
3147.5
 21
8394.743334947282
 31
0.0
  0
LINE
  5
11028
330
215
100
AcDbEntity
  8
CUTLINE
100
AcDbLine
 10
4052.5
 20
7355.243334947282
 30
0.0
 11
4052.5
 21
8425.24333494728
 31
0.0
  0
LINE
  5
11029
330
215
100
AcDbEntity
  8
CUTLINE
100
AcDbLine
 10
4052.5
 20
8485.243334947282
 30
0.0
 11
4052.5
 21
9555.243334947283
 31
0.0
  0
LINE
  5
11030
330
215
100
AcDbEntity
  8
CUTLINE
100
AcDbLine
 10
4052.5
 20
8425.24333494728
 30
0.0
 11
4032.5
 21
8395.243334947281
 31
0.0
  0
LINE
  5
11031
330
215
100
AcDbEntity
  8
CUTLINE
100
AcDbLine
 10
4032.5
 20
8395.243334947281
 30
0.0
 11
4072.5
 21
8515.243334947282
 31
0.0
  0
LINE
  5
11032
330
215
100
AcDbEntity
  8
CUTLINE
100
AcDbLine
 10
4072.5
 20
8515.243334947282
 30
0.0
 11
4052.5
 21
8485.243334947282
 31
0.0
  0
LINE
  5
11033
330
215
100
AcDbEntity
  8
CUTLINE
100
AcDbLine
 10
5062.5
 20
6989.993334947282
 30
0.0
 11
5062.5
 21
8249.993334947282
 31
0.0
  0
LINE
  5
11034
330
215
100
AcDbEntity
  8
CUTLINE
100
AcDbLine
 10
5062.5
 20
8369.993334947281
 30
0.0
 11
5062.5
 21
9629.993334947279
 31
0.0
  0
LINE
  5
11035
330
215
100
AcDbEntity
  8
CUTLINE
100
AcDbLine
 10
5062.5
 20
8249.993334947282
 30
0.0
 11
5022.5
 21
8189.993334947281
 31
0.0
  0
LINE
  5
11036
330
215
100
AcDbEntity
  8
CUTLINE
100
AcDbLine
 10
5022.5
 20
8189.993334947281
 30
0.0
 11
5102.5
 21
8429.993334947281
 31
0.0
  0
LINE
  5
11037
330
215
100
AcDbEntity
  8
CUTLINE
100
AcDbLine
 10
5102.5
 20
8429.993334947281
 30
0.0
 11
5062.5
 21
8369.993334947281
 31
0.0
  0
LINE
  5
11038
330
215
100
AcDbEntity
  8
CUTLINE
100
AcDbLine
 10
6137.5
 20
6989.993334947282
 30
0.0
 11
6137.5
 21
8249.993334947282
 31
0.0
  0
LINE
  5
11039
330
215
100
AcDbEntity
  8
CUTLINE
100
AcDbLine
 10
6137.5
 20
8369.993334947281
 30
0.0
 11
6137.5
 21
9629.993334947279
 31
0.0
  0
LINE
  5
11040
330
215
100
AcDbEntity
  8
CUTLINE
100
AcDbLine
 10
6137.5
 20
8249.993334947282
 30
0.0
 11
6097.5
 21
8189.993334947281
 31
0.0
  0
LINE
  5
11041
330
215
100
AcDbEntity
  8
CUTLINE
100
AcDbLine
 10
6097.5
 20
8189.993334947281
 30
0.0
 11
6177.5
 21
8429.993334947281
 31
0.0
  0
LINE
  5
11042
330
215
100
AcDbEntity
  8
CUTLINE
100
AcDbLine
 10
6177.5
 20
8429.993334947281
 30
0.0
 11
6137.5
 21
8369.993334947281
 31
0.0
  0
LINE
  5
11075
330
215
100
AcDbEntity
  8
FIELDSPLICE
100
AcDbLine
 10
1955.0
 20
6989.993334947282
 30
0.0
 11
1245.0
 21
6989.993334947282
 31
0.0
  0
LINE
  5
11076
330
215
100
AcDbEntity
  8
FIELDSPLICE
100
AcDbLine
 10
1245.0
 20
6989.993334947282
 30
0.0
 11
1245.0
 21
9629.993334947279
 31
0.0
  0
LINE
  5
11077
330
215
100
AcDbEntity
  8
FIELDSPLICE
100
AcDbLine
 10
1245.0
 20
9629.993334947279
 30
0.0
 11
1245.0
 21
9629.993334947279
 31
0.0
  0
LINE
  5
11078
330
215
100
AcDbEntity
  8
FIELDSPLICE
100
AcDbLine
 10
1245.0
 20
9629.993334947279
 30
0.0
 11
1955.0
 21
9629.993334947279
 31
0.0
  0
LINE
  5
11079
330
215
100
AcDbEntity
  8
FIELDSPLICE
100
AcDbLine
 10
1955.0
 20
9629.993334947279
 30
0.0
 11
1955.0
 21
6989.993334947282
 31
0.0
  0
LINE
  5
11080
330
215
100
AcDbEntity
  8
FIELDSPLICE
100
AcDbLine
 10
1955.0
 20
7069.993334947281
 30
0.0
 11
1955.0
 21
6989.993334947282
 31
0.0
  0
LINE
  5
11081
330
215
100
AcDbEntity
  8
FIELDSPLICE
100
AcDbLine
 10
1245.0
 20
7069.993334947281
 30
0.0
 11
1955.0
 21
7069.993334947281
 31
0.0
  0
LINE
  5
11082
330
215
100
AcDbEntity
  8
FIELDSPLICE
100
AcDbLine
 10
1245.0
 20
7069.993334947281
 30
0.0
 11
1245.0
 21
7069.993334947281
 31
0.0
  0
LINE
  5
11083
330
215
100
AcDbEntity
  8
FIELDSPLICE
100
AcDbLine
 10
1245.0
 20
6989.993334947282
 30
0.0
 11
1245.0
 21
7069.993334947281
 31
0.0
  0
LINE
  5
11084
330
215
100
AcDbEntity
  8
FIELDSPLICE
100
AcDbLine
 10
1955.0
 20
6989.993334947282
 30
0.0
 11
1245.0
 21
6989.993334947282
 31
0.0
  0
LINE
  5
11085
330
215
100
AcDbEntity
  8
FIELDSPLICE
100
AcDbLine
 10
1955.0
 20
9629.993334947279
 30
0.0
 11
1955.0
 21
9549.993334947279
 31
0.0
  0
LINE
  5
11086
330
215
100
AcDbEntity
  8
FIELDSPLICE
100
AcDbLine
 10
1245.0
 20
9629.993334947279
 30
0.0
 11
1955.0
 21
9629.993334947279
 31
0.0
  0
LINE
  5
11087
330
215
100
AcDbEntity
  8
FIELDSPLICE
100
AcDbLine
 10
1245.0
 20
9629.993334947279
 30
0.0
 11
1245.0
 21
9629.993334947279
 31
0.0
  0
LINE
  5
11088
330
215
100
AcDbEntity
  8
FIELDSPLICE
100
AcDbLine
 10
1245.0
 20
9549.993334947279
 30
0.0
 11
1245.0
 21
9629.993334947279
 31
0.0
  0
LINE
  5
11089
330
215
100
AcDbEntity
  8
FIELDSPLICE
100
AcDbLine
 10
1955.0
 20
9549.993334947279
 30
0.0
 11
1245.0
 21
9549.993334947279
 31
0.0
  0
LINE
  5
11090
330
215
100
AcDbEntity
  8
FIELDSPLICE
100
AcDbLine
 10
1955.0
 20
9453.49333494728
 30
0.0
 11
1955.0
 21
9173.493334947279
 31
0.0
  0
LINE
  5
11091
330
215
100
AcDbEntity
  8
FIELDSPLICE
100
AcDbLine
 10
1245.0
 20
9453.49333494728
 30
0.0
 11
1955.0
 21
9453.49333494728
 31
0.0
  0
LINE
  5
11092
330
215
100
AcDbEntity
  8
FIELDSPLICE
100
AcDbLine
 10
1245.0
 20
9453.49333494728
 30
0.0
 11
1245.0
 21
9453.49333494728
 31
0.0
  0
LINE
  5
11093
330
215
100
AcDbEntity
  8
FIELDSPLICE
100
AcDbLine
 10
1245.0
 20
9173.493334947279
 30
0.0
 11
1245.0
 21
9453.49333494728
 31
0.0
  0
LINE
  5
11094
330
215
100
AcDbEntity
  8
FIELDSPLICE
100
AcDbLine
 10
1955.0
 20
9173.493334947279
 30
0.0
 11
1245.0
 21
9173.493334947279
 31
0.0
  0
LINE
  5
11095
330
215
100
AcDbEntity
  8
FIELDSPLICE
100
AcDbLine
 10
1955.0
 20
9049.993334947279
 30
0.0
 11
1955.0
 21
8769.993334947281
 31
0.0
  0
LINE
  5
11096
330
215
100
AcDbEntity
  8
FIELDSPLICE
100
AcDbLine
 10
1245.0
 20
9049.993334947279
 30
0.0
 11
1955.0
 21
9049.993334947279
 31
0.0
  0
LINE
  5
11097
330
215
100
AcDbEntity
  8
FIELDSPLICE
100
AcDbLine
 10
1245.0
 20
9049.993334947279
 30
0.0
 11
1245.0
 21
9049.993334947279
 31
0.0
  0
LINE
  5
11098
330
215
100
AcDbEntity
  8
FIELDSPLICE
100
AcDbLine
 10
1245.0
 20
8769.993334947281
 30
0.0
 11
1245.0
 21
9049.993334947279
 31
0.0
  0
LINE
  5
11099
330
215
100
AcDbEntity
  8
FIELDSPLICE
100
AcDbLine
 10
1955.0
 20
8769.993334947281
 30
0.0
 11
1245.0
 21
8769.993334947281
 31
0.0
  0
LINE
  5
11100
330
215
100
AcDbEntity
  8
FIELDSPLICE
100
AcDbLine
 10
1955.0
 20
8649.99333494728
 30
0.0
 11
1955.0
 21
8369.993334947281
 31
0.0
  0
LINE
  5
11101
330
215
100
AcDbEntity
  8
FIELDSPLICE
100
AcDbLine
 10
1245.0
 20
8649.99333494728
 30
0.0
 11
1955.0
 21
8649.99333494728
 31
0.0
  0
LINE
  5
11102
330
215
100
AcDbEntity
  8
FIELDSPLICE
100
AcDbLine
 10
1245.0
 20
8649.99333494728
 30
0.0
 11
1245.0
 21
8649.99333494728
 31
0.0
  0
LINE
  5
11103
330
215
100
AcDbEntity
  8
FIELDSPLICE
100
AcDbLine
 10
1245.0
 20
8369.993334947281
 30
0.0
 11
1245.0
 21
8649.99333494728
 31
0.0
  0
LINE
  5
11104
330
215
100
AcDbEntity
  8
FIELDSPLICE
100
AcDbLine
 10
1955.0
 20
8369.993334947281
 30
0.0
 11
1245.0
 21
8369.993334947281
 31
0.0
  0
LINE
  5
11105
330
215
100
AcDbEntity
  8
FIELDSPLICE
100
AcDbLine
 10
1955.0
 20
8249.993334947282
 30
0.0
 11
1955.0
 21
7969.993334947282
 31
0.0
  0
LINE
  5
11106
330
215
100
AcDbEntity
  8
FIELDSPLICE
100
AcDbLine
 10
1245.0
 20
8249.993334947282
 30
0.0
 11
1955.0
 21
8249.993334947282
 31
0.0
  0
LINE
  5
11107
330
215
100
AcDbEntity
  8
FIELDSPLICE
100
AcDbLine
 10
1245.0
 20
8249.993334947282
 30
0.0
 11
1245.0
 21
8249.993334947282
 31
0.0
  0
LINE
  5
11108
330
215
100
AcDbEntity
  8
FIELDSPLICE
100
AcDbLine
 10
1245.0
 20
7969.993334947282
 30
0.0
 11
1245.0
 21
8249.993334947282
 31
0.0
  0
LINE
  5
11109
330
215
100
AcDbEntity
  8
FIELDSPLICE
100
AcDbLine
 10
1955.0
 20
7969.993334947282
 30
0.0
 11
1245.0
 21
7969.993334947282
 31
0.0
  0
LINE
  5
11110
330
215
100
AcDbEntity
  8
FIELDSPLICE
100
AcDbLine
 10
1955.0
 20
7849.993334947281
 30
0.0
 11
1955.0
 21
7569.993334947281
 31
0.0
  0
LINE
  5
11111
330
215
100
AcDbEntity
  8
FIELDSPLICE
100
AcDbLine
 10
1245.0
 20
7849.993334947281
 30
0.0
 11
1955.0
 21
7849.993334947281
 31
0.0
  0
LINE
  5
11112
330
215
100
AcDbEntity
  8
FIELDSPLICE
100
AcDbLine
 10
1245.0
 20
7849.993334947281
 30
0.0
 11
1245.0
 21
7849.993334947281
 31
0.0
  0
LINE
  5
11113
330
215
100
AcDbEntity
  8
FIELDSPLICE
100
AcDbLine
 10
1245.0
 20
7569.993334947281
 30
0.0
 11
1245.0
 21
7849.993334947281
 31
0.0
  0
LINE
  5
11114
330
215
100
AcDbEntity
  8
FIELDSPLICE
100
AcDbLine
 10
1955.0
 20
7569.993334947281
 30
0.0
 11
1245.0
 21
7569.993334947281
 31
0.0
  0
LINE
  5
11115
330
215
100
AcDbEntity
  8
FIELDSPLICE
100
AcDbLine
 10
1955.0
 20
7446.493334947281
 30
0.0
 11
1955.0
 21
7166.49333494728
 31
0.0
  0
LINE
  5
11116
330
215
100
AcDbEntity
  8
FIELDSPLICE
100
AcDbLine
 10
1245.0
 20
7446.493334947281
 30
0.0
 11
1955.0
 21
7446.493334947281
 31
0.0
  0
LINE
  5
11117
330
215
100
AcDbEntity
  8
FIELDSPLICE
100
AcDbLine
 10
1245.0
 20
7446.493334947281
 30
0.0
 11
1245.0
 21
7446.493334947281
 31
0.0
  0
LINE
  5
11118
330
215
100
AcDbEntity
  8
FIELDSPLICE
100
AcDbLine
 10
1245.0
 20
7166.49333494728
 30
0.0
 11
1245.0
 21
7446.493334947281
 31
0.0
  0
LINE
  5
11119
330
215
100
AcDbEntity
  8
FIELDSPLICE
100
AcDbLine
 10
1955.0
 20
7166.49333494728
 30
0.0
 11
1245.0
 21
7166.49333494728
 31
0.0
  0
LINE
  5
11120
330
215
100
AcDbEntity
  8
FIELDSPLICE
100
AcDbLine
 10
3852.5
 20
7402.818334947281
 30
0.0
 11
3347.5
 21
7337.168334947282
 31
0.0
  0
LINE
  5
11121
330
215
100
AcDbEntity
  8
FIELDSPLICE
100
AcDbLine
 10
3347.5
 20
7337.168334947282
 30
0.0
 11
3347.5
 21
7617.168334947281
 31
0.0
  0
LINE
  5
11122
330
215
100
AcDbEntity
  8
FIELDSPLICE
100
AcDbLine
 10
3347.5
 20
7617.168334947281
 30
0.0
 11
3347.5
 21
7617.168334947281
 31
0.0
  0
LINE
  5
11123
330
215
100
AcDbEntity
  8
FIELDSPLICE
100
AcDbLine
 10
3347.5
 20
7617.168334947281
 30
0.0
 11
3852.5
 21
7682.818334947281
 31
0.0
  0
LINE
  5
11124
330
215
100
AcDbEntity
  8
FIELDSPLICE
100
AcDbLine
 10
3852.5
 20
7682.818334947281
 30
0.0
 11
3852.5
 21
7402.818334947281
 31
0.0
  0
LINE
  5
11125
330
215
100
AcDbEntity
  8
FIELDSPLICE
100
AcDbLine
 10
3767.5
 20
7741.768334947282
 30
0.0
 11
3432.5
 21
7698.218334947282
 31
0.0
  0
LINE
  5
11126
330
215
100
AcDbEntity
  8
FIELDSPLICE
100
AcDbLine
 10
3432.5
 20
7698.218334947282
 30
0.0
 11
3432.5
 21
9078.218334947282
 31
0.0
  0
LINE
  5
11127
330
215
100
AcDbEntity
  8
FIELDSPLICE
100
AcDbLine
 10
3432.5
 20
9078.218334947282
 30
0.0
 11
3432.5
 21
9078.218334947282
 31
0.0
  0
LINE
  5
11128
330
215
100
AcDbEntity
  8
FIELDSPLICE
100
AcDbLine
 10
3432.5
 20
9078.218334947282
 30
0.0
 11
3767.5
 21
9121.768334947281
 31
0.0
  0
LINE
  5
11129
330
215
100
AcDbEntity
  8
FIELDSPLICE
100
AcDbLine
 10
3767.5
 20
9121.768334947281
 30
0.0
 11
3767.5
 21
7741.768334947282
 31
0.0
  0
LINE
  5
11130
330
215
100
AcDbEntity
  8
FIELDSPLICE
100
AcDbLine
 10
3852.5
 20
9202.818334947282
 30
0.0
 11
3347.5
 21
9137.168334947281
 31
0.0
  0
LINE
  5
11131
330
215
100
AcDbEntity
  8
FIELDSPLICE
100
AcDbLine
 10
3347.5
 20
9137.168334947281
 30
0.0
 11
3347.5
 21
9417.16833494728
 31
0.0
  0
LINE
  5
11132
330
215
100
AcDbEntity
  8
FIELDSPLICE
100
AcDbLine
 10
3347.5
 20
9417.16833494728
 30
0.0
 11
3347.5
 21
9417.16833494728
 31
0.0
  0
LINE
  5
11133
330
215
100
AcDbEntity
  8
FIELDSPLICE
100
AcDbLine
 10
3347.5
 20
9417.16833494728
 30
0.0
 11
3852.5
 21
9482.81833494728
 31
0.0
  0
LINE
  5
11134
330
215
100
AcDbEntity
  8
FIELDSPLICE
100
AcDbLine
 10
3852.5
 20
9482.81833494728
 30
0.0
 11
3852.5
 21
9202.818334947282
 31
0.0
  0
LINE
  5
11135
330
215
100
AcDbEntity
  8
FIELDSPLICE
100
AcDbLine
 10
5937.5
 20
9629.993334947279
 30
0.0
 11
5937.5
 21
9549.993334947279
 31
0.0
  0
LINE
  5
11136
330
215
100
AcDbEntity
  8
FIELDSPLICE
100
AcDbLine
 10
5262.5
 20
9629.993334947279
 30
0.0
 11
5937.5
 21
9629.993334947279
 31
0.0
  0
LINE
  5
11137
330
215
100
AcDbEntity
  8
FIELDSPLICE
100
AcDbLine
 10
5262.5
 20
9629.993334947279
 30
0.0
 11
5262.5
 21
9629.993334947279
 31
0.0
  0
LINE
  5
11138
330
215
100
AcDbEntity
  8
FIELDSPLICE
100
AcDbLine
 10
5262.5
 20
9549.993334947279
 30
0.0
 11
5262.5
 21
9629.993334947279
 31
0.0
  0
LINE
  5
11139
330
215
100
AcDbEntity
  8
FIELDSPLICE
100
AcDbLine
 10
5937.5
 20
9549.993334947279
 30
0.0
 11
5262.5
 21
9549.993334947279
 31
0.0
  0
LINE
  5
11140
330
215
100
AcDbEntity
  8
FIELDSPLICE
100
AcDbLine
 10
5937.5
 20
7069.993334947281
 30
0.0
 11
5937.5
 21
6989.993334947282
 31
0.0
  0
LINE
  5
11141
330
215
100
AcDbEntity
  8
FIELDSPLICE
100
AcDbLine
 10
5262.5
 20
7069.993334947281
 30
0.0
 11
5937.5
 21
7069.993334947281
 31
0.0
  0
LINE
  5
11142
330
215
100
AcDbEntity
  8
FIELDSPLICE
100
AcDbLine
 10
5262.5
 20
7069.993334947281
 30
0.0
 11
5262.5
 21
7069.993334947281
 31
0.0
  0
LINE
  5
11143
330
215
100
AcDbEntity
  8
FIELDSPLICE
100
AcDbLine
 10
5262.5
 20
6989.993334947282
 30
0.0
 11
5262.5
 21
7069.993334947281
 31
0.0
  0
LINE
  5
11144
330
215
100
AcDbEntity
  8
FIELDSPLICE
100
AcDbLine
 10
5937.5
 20
6989.993334947282
 30
0.0
 11
5262.5
 21
6989.993334947282
 31
0.0
  0
LINE
  5
11145
330
215
100
AcDbEntity
  8
FIELDSPLICE
100
AcDbLine
 10
5937.5
 20
9453.49333494728
 30
0.0
 11
5937.5
 21
8773.49333494728
 31
0.0
  0
LINE
  5
11146
330
215
100
AcDbEntity
  8
FIELDSPLICE
100
AcDbLine
 10
5262.5
 20
9453.49333494728
 30
0.0
 11
5937.5
 21
9453.49333494728
 31
0.0
  0
LINE
  5
11147
330
215
100
AcDbEntity
  8
FIELDSPLICE
100
AcDbLine
 10
5262.5
 20
9453.49333494728
 30
0.0
 11
5262.5
 21
9453.49333494728
 31
0.0
  0
LINE
  5
11148
330
215
100
AcDbEntity
  8
FIELDSPLICE
100
AcDbLine
 10
5262.5
 20
8773.49333494728
 30
0.0
 11
5262.5
 21
9453.49333494728
 31
0.0
  0
LINE
  5
11149
330
215
100
AcDbEntity
  8
FIELDSPLICE
100
AcDbLine
 10
5937.5
 20
8773.49333494728
 30
0.0
 11
5262.5
 21
8773.49333494728
 31
0.0
  0
LINE
  5
11150
330
215
100
AcDbEntity
  8
FIELDSPLICE
100
AcDbLine
 10
5937.5
 20
8649.99333494728
 30
0.0
 11
5937.5
 21
7969.993334947282
 31
0.0
  0
LINE
  5
11151
330
215
100
AcDbEntity
  8
FIELDSPLICE
100
AcDbLine
 10
5262.5
 20
8649.99333494728
 30
0.0
 11
5937.5
 21
8649.99333494728
 31
0.0
  0
LINE
  5
11152
330
215
100
AcDbEntity
  8
FIELDSPLICE
100
AcDbLine
 10
5262.5
 20
8649.99333494728
 30
0.0
 11
5262.5
 21
8649.99333494728
 31
0.0
  0
LINE
  5
11153
330
215
100
AcDbEntity
  8
FIELDSPLICE
100
AcDbLine
 10
5262.5
 20
7969.993334947282
 30
0.0
 11
5262.5
 21
8649.99333494728
 31
0.0
  0
LINE
  5
11154
330
215
100
AcDbEntity
  8
FIELDSPLICE
100
AcDbLine
 10
5937.5
 20
7969.993334947282
 30
0.0
 11
5262.5
 21
7969.993334947282
 31
0.0
  0
LINE
  5
11155
330
215
100
AcDbEntity
  8
FIELDSPLICE
100
AcDbLine
 10
5937.5
 20
7846.493334947282
 30
0.0
 11
5937.5
 21
7166.49333494728
 31
0.0
  0
LINE
  5
11156
330
215
100
AcDbEntity
  8
FIELDSPLICE
100
AcDbLine
 10
5262.5
 20
7846.493334947282
 30
0.0
 11
5937.5
 21
7846.493334947282
 31
0.0
  0
LINE
  5
11157
330
215
100
AcDbEntity
  8
FIELDSPLICE
100
AcDbLine
 10
5262.5
 20
7846.493334947282
 30
0.0
 11
5262.5
 21
7846.493334947282
 31
0.0
  0
LINE
  5
11158
330
215
100
AcDbEntity
  8
FIELDSPLICE
100
AcDbLine
 10
5262.5
 20
7166.49333494728
 30
0.0
 11
5262.5
 21
7846.493334947282
 31
0.0
  0
LINE
  5
11159
330
215
100
AcDbEntity
  8
FIELDSPLICE
100
AcDbLine
 10
5937.5
 20
7166.49333494728
 30
0.0
 11
5262.5
 21
7166.49333494728
 31
0.0
  0
LINE
  5
11160
330
215
100
AcDbEntity
  8
MRK
100
AcDbLine
 10
1285.0
 20
7029.993334947281
 30
0.0
 11
1915.0
 21
7029.993334947281
 31
0.0
  0
LINE
  5
11161
330
215
100
AcDbEntity
  8
MRK
100
AcDbLine
 10
1915.0
 20
7054.493334947281
 30
0.0
 11
1915.0
 21
7005.493334947281
 31
0.0
  0
LINE
  5
11162
330
215
100
AcDbEntity
  8
MRK
100
AcDbLine
 10
1830.0
 20
7054.493334947281
 30
0.0
 11
1830.0
 21
7005.493334947281
 31
0.0
  0
LINE
  5
11163
330
215
100
AcDbEntity
  8
MRK
100
AcDbLine
 10
1745.0
 20
7054.493334947281
 30
0.0
 11
1745.0
 21
7005.493334947281
 31
0.0
  0
LINE
  5
11164
330
215
100
AcDbEntity
  8
MRK
100
AcDbLine
 10
1660.0
 20
7054.493334947281
 30
0.0
 11
1660.0
 21
7005.493334947281
 31
0.0
  0
LINE
  5
11165
330
215
100
AcDbEntity
  8
MRK
100
AcDbLine
 10
1540.0
 20
7054.493334947281
 30
0.0
 11
1540.0
 21
7005.493334947281
 31
0.0
  0
LINE
  5
11166
330
215
100
AcDbEntity
  8
MRK
100
AcDbLine
 10
1455.0
 20
7054.493334947281
 30
0.0
 11
1455.0
 21
7005.493334947281
 31
0.0
  0
LINE
  5
11167
330
215
100
AcDbEntity
  8
MRK
100
AcDbLine
 10
1370.0
 20
7054.493334947281
 30
0.0
 11
1370.0
 21
7005.493334947281
 31
0.0
  0
LINE
  5
11168
330
215
100
AcDbEntity
  8
MRK
100
AcDbLine
 10
1285.0
 20
7054.493334947281
 30
0.0
 11
1285.0
 21
7005.493334947281
 31
0.0
  0
LINE
  5
11169
330
215
100
AcDbEntity
  8
MRK
100
AcDbLine
 10
1285.0
 20
9589.993334947282
 30
0.0
 11
1915.0
 21
9589.993334947282
 31
0.0
  0
LINE
  5
11170
330
215
100
AcDbEntity
  8
MRK
100
AcDbLine
 10
1915.0
 20
9614.49333494728
 30
0.0
 11
1915.0
 21
9565.49333494728
 31
0.0
  0
LINE
  5
11171
330
215
100
AcDbEntity
  8
MRK
100
AcDbLine
 10
1830.0
 20
9614.49333494728
 30
0.0
 11
1830.0
 21
9565.49333494728
 31
0.0
  0
LINE
  5
11172
330
215
100
AcDbEntity
  8
MRK
100
AcDbLine
 10
1745.0
 20
9614.49333494728
 30
0.0
 11
1745.0
 21
9565.49333494728
 31
0.0
  0
LINE
  5
11173
330
215
100
AcDbEntity
  8
MRK
100
AcDbLine
 10
1660.0
 20
9614.49333494728
 30
0.0
 11
1660.0
 21
9565.49333494728
 31
0.0
  0
LINE
  5
11174
330
215
100
AcDbEntity
  8
MRK
100
AcDbLine
 10
1540.0
 20
9614.49333494728
 30
0.0
 11
1540.0
 21
9565.49333494728
 31
0.0
  0
LINE
  5
11175
330
215
100
AcDbEntity
  8
MRK
100
AcDbLine
 10
1455.0
 20
9614.49333494728
 30
0.0
 11
1455.0
 21
9565.49333494728
 31
0.0
  0
LINE
  5
11176
330
215
100
AcDbEntity
  8
MRK
100
AcDbLine
 10
1370.0
 20
9614.49333494728
 30
0.0
 11
1370.0
 21
9565.49333494728
 31
0.0
  0
LINE
  5
11177
330
215
100
AcDbEntity
  8
MRK
100
AcDbLine
 10
1285.0
 20
9614.49333494728
 30
0.0
 11
1285.0
 21
9565.49333494728
 31
0.0
  0
LINE
  5
11178
330
215
100
AcDbEntity
  8
MRK
100
AcDbLine
 10
1285.0
 20
9413.493334947281
 30
0.0
 11
1915.0
 21
9413.493334947281
 31
0.0
  0
LINE
  5
11179
330
215
100
AcDbEntity
  8
MRK
100
AcDbLine
 10
1915.0
 20
9413.493334947281
 30
0.0
 11
1915.0
 21
9213.493334947282
 31
0.0
  0
LINE
  5
11180
330
215
100
AcDbEntity
  8
MRK
100
AcDbLine
 10
1830.0
 20
9413.493334947281
 30
0.0
 11
1830.0
 21
9213.493334947282
 31
0.0
  0
LINE
  5
11181
330
215
100
AcDbEntity
  8
MRK
100
AcDbLine
 10
1745.0
 20
9413.493334947281
 30
0.0
 11
1745.0
 21
9213.493334947282
 31
0.0
  0
LINE
  5
11182
330
215
100
AcDbEntity
  8
MRK
100
AcDbLine
 10
1660.0
 20
9413.493334947281
 30
0.0
 11
1660.0
 21
9213.493334947282
 31
0.0
  0
LINE
  5
11183
330
215
100
AcDbEntity
  8
MRK
100
AcDbLine
 10
1540.0
 20
9413.493334947281
 30
0.0
 11
1540.0
 21
9213.493334947282
 31
0.0
  0
LINE
  5
11184
330
215
100
AcDbEntity
  8
MRK
100
AcDbLine
 10
1455.0
 20
9413.493334947281
 30
0.0
 11
1455.0
 21
9213.493334947282
 31
0.0
  0
LINE
  5
11185
330
215
100
AcDbEntity
  8
MRK
100
AcDbLine
 10
1370.0
 20
9413.493334947281
 30
0.0
 11
1370.0
 21
9213.493334947282
 31
0.0
  0
LINE
  5
11186
330
215
100
AcDbEntity
  8
MRK
100
AcDbLine
 10
1285.0
 20
9413.493334947281
 30
0.0
 11
1285.0
 21
9213.493334947282
 31
0.0
  0
LINE
  5
11187
330
215
100
AcDbEntity
  8
MRK
100
AcDbLine
 10
1285.0
 20
9213.493334947282
 30
0.0
 11
1915.0
 21
9213.493334947282
 31
0.0
  0
LINE
  5
11188
330
215
100
AcDbEntity
  8
MRK
100
AcDbLine
 10
1285.0
 20
9313.493334947279
 30
0.0
 11
1915.0
 21
9313.493334947279
 31
0.0
  0
LINE
  5
11189
330
215
100
AcDbEntity
  8
MRK
100
AcDbLine
 10
1285.0
 20
9009.993334947282
 30
0.0
 11
1915.0
 21
9009.993334947282
 31
0.0
  0
LINE
  5
11190
330
215
100
AcDbEntity
  8
MRK
100
AcDbLine
 10
1915.0
 20
9009.993334947282
 30
0.0
 11
1915.0
 21
8809.993334947282
 31
0.0
  0
LINE
  5
11191
330
215
100
AcDbEntity
  8
MRK
100
AcDbLine
 10
1830.0
 20
9009.993334947282
 30
0.0
 11
1830.0
 21
8809.993334947282
 31
0.0
  0
LINE
  5
11192
330
215
100
AcDbEntity
  8
MRK
100
AcDbLine
 10
1745.0
 20
9009.993334947282
 30
0.0
 11
1745.0
 21
8809.993334947282
 31
0.0
  0
LINE
  5
11193
330
215
100
AcDbEntity
  8
MRK
100
AcDbLine
 10
1660.0
 20
9009.993334947282
 30
0.0
 11
1660.0
 21
8809.993334947282
 31
0.0
  0
LINE
  5
11194
330
215
100
AcDbEntity
  8
MRK
100
AcDbLine
 10
1540.0
 20
9009.993334947282
 30
0.0
 11
1540.0
 21
8809.993334947282
 31
0.0
  0
LINE
  5
11195
330
215
100
AcDbEntity
  8
MRK
100
AcDbLine
 10
1455.0
 20
9009.993334947282
 30
0.0
 11
1455.0
 21
8809.993334947282
 31
0.0
  0
LINE
  5
11196
330
215
100
AcDbEntity
  8
MRK
100
AcDbLine
 10
1370.0
 20
9009.993334947282
 30
0.0
 11
1370.0
 21
8809.993334947282
 31
0.0
  0
LINE
  5
11197
330
215
100
AcDbEntity
  8
MRK
100
AcDbLine
 10
1285.0
 20
9009.993334947282
 30
0.0
 11
1285.0
 21
8809.993334947282
 31
0.0
  0
LINE
  5
11198
330
215
100
AcDbEntity
  8
MRK
100
AcDbLine
 10
1285.0
 20
8809.993334947282
 30
0.0
 11
1915.0
 21
8809.993334947282
 31
0.0
  0
LINE
  5
11199
330
215
100
AcDbEntity
  8
MRK
100
AcDbLine
 10
1285.0
 20
8909.993334947282
 30
0.0
 11
1915.0
 21
8909.993334947282
 31
0.0
  0
LINE
  5
11200
330
215
100
AcDbEntity
  8
MRK
100
AcDbLine
 10
1285.0
 20
8609.993334947281
 30
0.0
 11
1915.0
 21
8609.993334947281
 31
0.0
  0
LINE
  5
11201
330
215
100
AcDbEntity
  8
MRK
100
AcDbLine
 10
1915.0
 20
8609.993334947281
 30
0.0
 11
1915.0
 21
8409.993334947282
 31
0.0
  0
LINE
  5
11202
330
215
100
AcDbEntity
  8
MRK
100
AcDbLine
 10
1830.0
 20
8609.993334947281
 30
0.0
 11
1830.0
 21
8409.993334947282
 31
0.0
  0
LINE
  5
11203
330
215
100
AcDbEntity
  8
MRK
100
AcDbLine
 10
1745.0
 20
8609.993334947281
 30
0.0
 11
1745.0
 21
8409.993334947282
 31
0.0
  0
LINE
  5
11204
330
215
100
AcDbEntity
  8
MRK
100
AcDbLine
 10
1660.0
 20
8609.993334947281
 30
0.0
 11
1660.0
 21
8409.993334947282
 31
0.0
  0
LINE
  5
11205
330
215
100
AcDbEntity
  8
MRK
100
AcDbLine
 10
1540.0
 20
8609.993334947281
 30
0.0
 11
1540.0
 21
8409.993334947282
 31
0.0
  0
LINE
  5
11206
330
215
100
AcDbEntity
  8
MRK
100
AcDbLine
 10
1455.0
 20
8609.993334947281
 30
0.0
 11
1455.0
 21
8409.993334947282
 31
0.0
  0
LINE
  5
11207
330
215
100
AcDbEntity
  8
MRK
100
AcDbLine
 10
1370.0
 20
8609.993334947281
 30
0.0
 11
1370.0
 21
8409.993334947282
 31
0.0
  0
LINE
  5
11208
330
215
100
AcDbEntity
  8
MRK
100
AcDbLine
 10
1285.0
 20
8609.993334947281
 30
0.0
 11
1285.0
 21
8409.993334947282
 31
0.0
  0
LINE
  5
11209
330
215
100
AcDbEntity
  8
MRK
100
AcDbLine
 10
1285.0
 20
8409.993334947282
 30
0.0
 11
1915.0
 21
8409.993334947282
 31
0.0
  0
LINE
  5
11210
330
215
100
AcDbEntity
  8
MRK
100
AcDbLine
 10
1285.0
 20
8509.993334947282
 30
0.0
 11
1915.0
 21
8509.993334947282
 31
0.0
  0
LINE
  5
11211
330
215
100
AcDbEntity
  8
MRK
100
AcDbLine
 10
1285.0
 20
8209.993334947283
 30
0.0
 11
1915.0
 21
8209.993334947283
 31
0.0
  0
LINE
  5
11212
330
215
100
AcDbEntity
  8
MRK
100
AcDbLine
 10
1915.0
 20
8209.993334947283
 30
0.0
 11
1915.0
 21
8009.993334947282
 31
0.0
  0
LINE
  5
11213
330
215
100
AcDbEntity
  8
MRK
100
AcDbLine
 10
1830.0
 20
8209.993334947283
 30
0.0
 11
1830.0
 21
8009.993334947282
 31
0.0
  0
LINE
  5
11214
330
215
100
AcDbEntity
  8
MRK
100
AcDbLine
 10
1745.0
 20
8209.993334947283
 30
0.0
 11
1745.0
 21
8009.993334947282
 31
0.0
  0
LINE
  5
11215
330
215
100
AcDbEntity
  8
MRK
100
AcDbLine
 10
1660.0
 20
8209.993334947283
 30
0.0
 11
1660.0
 21
8009.993334947282
 31
0.0
  0
LINE
  5
11216
330
215
100
AcDbEntity
  8
MRK
100
AcDbLine
 10
1540.0
 20
8209.993334947283
 30
0.0
 11
1540.0
 21
8009.993334947282
 31
0.0
  0
LINE
  5
11217
330
215
100
AcDbEntity
  8
MRK
100
AcDbLine
 10
1455.0
 20
8209.993334947283
 30
0.0
 11
1455.0
 21
8009.993334947282
 31
0.0
  0
LINE
  5
11218
330
215
100
AcDbEntity
  8
MRK
100
AcDbLine
 10
1370.0
 20
8209.993334947283
 30
0.0
 11
1370.0
 21
8009.993334947282
 31
0.0
  0
LINE
  5
11219
330
215
100
AcDbEntity
  8
MRK
100
AcDbLine
 10
1285.0
 20
8209.993334947283
 30
0.0
 11
1285.0
 21
8009.993334947282
 31
0.0
  0
LINE
  5
11220
330
215
100
AcDbEntity
  8
MRK
100
AcDbLine
 10
1285.0
 20
8009.993334947282
 30
0.0
 11
1915.0
 21
8009.993334947282
 31
0.0
  0
LINE
  5
11221
330
215
100
AcDbEntity
  8
MRK
100
AcDbLine
 10
1285.0
 20
8109.993334947281
 30
0.0
 11
1915.0
 21
8109.993334947281
 31
0.0
  0
LINE
  5
11222
330
215
100
AcDbEntity
  8
MRK
100
AcDbLine
 10
1285.0
 20
7809.993334947282
 30
0.0
 11
1915.0
 21
7809.993334947282
 31
0.0
  0
LINE
  5
11223
330
215
100
AcDbEntity
  8
MRK
100
AcDbLine
 10
1915.0
 20
7809.993334947282
 30
0.0
 11
1915.0
 21
7609.993334947282
 31
0.0
  0
LINE
  5
11224
330
215
100
AcDbEntity
  8
MRK
100
AcDbLine
 10
1830.0
 20
7809.993334947282
 30
0.0
 11
1830.0
 21
7609.993334947282
 31
0.0
  0
LINE
  5
11225
330
215
100
AcDbEntity
  8
MRK
100
AcDbLine
 10
1745.0
 20
7809.993334947282
 30
0.0
 11
1745.0
 21
7609.993334947282
 31
0.0
  0
LINE
  5
11226
330
215
100
AcDbEntity
  8
MRK
100
AcDbLine
 10
1660.0
 20
7809.993334947282
 30
0.0
 11
1660.0
 21
7609.993334947282
 31
0.0
  0
LINE
  5
11227
330
215
100
AcDbEntity
  8
MRK
100
AcDbLine
 10
1540.0
 20
7809.993334947282
 30
0.0
 11
1540.0
 21
7609.993334947282
 31
0.0
  0
LINE
  5
11228
330
215
100
AcDbEntity
  8
MRK
100
AcDbLine
 10
1455.0
 20
7809.993334947282
 30
0.0
 11
1455.0
 21
7609.993334947282
 31
0.0
  0
LINE
  5
11229
330
215
100
AcDbEntity
  8
MRK
100
AcDbLine
 10
1370.0
 20
7809.993334947282
 30
0.0
 11
1370.0
 21
7609.993334947282
 31
0.0
  0
LINE
  5
11230
330
215
100
AcDbEntity
  8
MRK
100
AcDbLine
 10
1285.0
 20
7809.993334947282
 30
0.0
 11
1285.0
 21
7609.993334947282
 31
0.0
  0
LINE
  5
11231
330
215
100
AcDbEntity
  8
MRK
100
AcDbLine
 10
1285.0
 20
7609.993334947282
 30
0.0
 11
1915.0
 21
7609.993334947282
 31
0.0
  0
LINE
  5
11232
330
215
100
AcDbEntity
  8
MRK
100
AcDbLine
 10
1285.0
 20
7709.993334947282
 30
0.0
 11
1915.0
 21
7709.993334947282
 31
0.0
  0
LINE
  5
11233
330
215
100
AcDbEntity
  8
MRK
100
AcDbLine
 10
1285.0
 20
7406.493334947281
 30
0.0
 11
1915.0
 21
7406.493334947281
 31
0.0
  0
LINE
  5
11234
330
215
100
AcDbEntity
  8
MRK
100
AcDbLine
 10
1915.0
 20
7406.493334947281
 30
0.0
 11
1915.0
 21
7206.493334947281
 31
0.0
  0
LINE
  5
11235
330
215
100
AcDbEntity
  8
MRK
100
AcDbLine
 10
1830.0
 20
7406.493334947281
 30
0.0
 11
1830.0
 21
7206.493334947281
 31
0.0
  0
LINE
  5
11236
330
215
100
AcDbEntity
  8
MRK
100
AcDbLine
 10
1745.0
 20
7406.493334947281
 30
0.0
 11
1745.0
 21
7206.493334947281
 31
0.0
  0
LINE
  5
11237
330
215
100
AcDbEntity
  8
MRK
100
AcDbLine
 10
1660.0
 20
7406.493334947281
 30
0.0
 11
1660.0
 21
7206.493334947281
 31
0.0
  0
LINE
  5
11238
330
215
100
AcDbEntity
  8
MRK
100
AcDbLine
 10
1540.0
 20
7406.493334947281
 30
0.0
 11
1540.0
 21
7206.493334947281
 31
0.0
  0
LINE
  5
11239
330
215
100
AcDbEntity
  8
MRK
100
AcDbLine
 10
1455.0
 20
7406.493334947281
 30
0.0
 11
1455.0
 21
7206.493334947281
 31
0.0
  0
LINE
  5
11240
330
215
100
AcDbEntity
  8
MRK
100
AcDbLine
 10
1370.0
 20
7406.493334947281
 30
0.0
 11
1370.0
 21
7206.493334947281
 31
0.0
  0
LINE
  5
11241
330
215
100
AcDbEntity
  8
MRK
100
AcDbLine
 10
1285.0
 20
7406.493334947281
 30
0.0
 11
1285.0
 21
7206.493334947281
 31
0.0
  0
LINE
  5
11242
330
215
100
AcDbEntity
  8
MRK
100
AcDbLine
 10
1285.0
 20
7206.493334947281
 30
0.0
 11
1915.0
 21
7206.493334947281
 31
0.0
  0
LINE
  5
11243
330
215
100
AcDbEntity
  8
MRK
100
AcDbLine
 10
1285.0
 20
7306.493334947281
 30
0.0
 11
1915.0
 21
7306.493334947281
 31
0.0
  0
LINE
  5
11244
330
215
100
AcDbEntity
  8
MRK
100
AcDbLine
 10
3387.5
 20
7482.368334947281
 30
0.0
 11
3812.5
 21
7537.618334947281
 31
0.0
  0
LINE
  5
11245
330
215
100
AcDbEntity
  8
MRK
100
AcDbLine
 10
3387.5
 20
7382.368334947281
 30
0.0
 11
3812.5
 21
7437.618334947281
 31
0.0
  0
LINE
  5
11246
330
215
100
AcDbEntity
  8
MRK
100
AcDbLine
 10
3387.5
 20
7582.36833494728
 30
0.0
 11
3387.5
 21
7382.368334947281
 31
0.0
  0
LINE
  5
11247
330
215
100
AcDbEntity
  8
MRK
100
AcDbLine
 10
3472.5
 20
7593.418334947282
 30
0.0
 11
3472.5
 21
7393.418334947281
 31
0.0
  0
LINE
  5
11248
330
215
100
AcDbEntity
  8
MRK
100
AcDbLine
 10
3557.5
 20
7604.468334947282
 30
0.0
 11
3557.5
 21
7404.468334947281
 31
0.0
  0
LINE
  5
11249
330
215
100
AcDbEntity
  8
MRK
100
AcDbLine
 10
3642.5
 20
7615.518334947282
 30
0.0
 11
3642.5
 21
7415.518334947282
 31
0.0
  0
LINE
  5
11250
330
215
100
AcDbEntity
  8
MRK
100
AcDbLine
 10
3727.5
 20
7626.568334947281
 30
0.0
 11
3727.5
 21
7426.568334947281
 31
0.0
  0
LINE
  5
11251
330
215
100
AcDbEntity
  8
MRK
100
AcDbLine
 10
3812.5
 20
7637.618334947281
 30
0.0
 11
3812.5
 21
7437.618334947281
 31
0.0
  0
LINE
  5
11252
330
215
100
AcDbEntity
  8
MRK
100
AcDbLine
 10
3387.5
 20
7582.36833494728
 30
0.0
 11
3812.5
 21
7637.618334947281
 31
0.0
  0
LINE
  5
11253
330
215
100
AcDbEntity
  8
MRK
100
AcDbLine
 10
3472.5
 20
8943.41833494728
 30
0.0
 11
3727.5
 21
8976.568334947282
 31
0.0
  0
LINE
  5
11254
330
215
100
AcDbEntity
  8
MRK
100
AcDbLine
 10
3472.5
 20
8843.41833494728
 30
0.0
 11
3727.5
 21
8876.568334947283
 31
0.0
  0
LINE
  5
11255
330
215
100
AcDbEntity
  8
MRK
100
AcDbLine
 10
3472.5
 20
8743.41833494728
 30
0.0
 11
3727.5
 21
8776.568334947283
 31
0.0
  0
LINE
  5
11256
330
215
100
AcDbEntity
  8
MRK
100
AcDbLine
 10
3472.5
 20
8643.418334947282
 30
0.0
 11
3727.5
 21
8676.568334947281
 31
0.0
  0
LINE
  5
11257
330
215
100
AcDbEntity
  8
MRK
100
AcDbLine
 10
3472.5
 20
8543.418334947283
 30
0.0
 11
3727.5
 21
8576.56833494728
 31
0.0
  0
LINE
  5
11258
330
215
100
AcDbEntity
  8
MRK
100
AcDbLine
 10
3472.5
 20
8443.41833494728
 30
0.0
 11
3727.5
 21
8476.568334947282
 31
0.0
  0
LINE
  5
11259
330
215
100
AcDbEntity
  8
MRK
100
AcDbLine
 10
3472.5
 20
8343.41833494728
 30
0.0
 11
3727.5
 21
8376.568334947283
 31
0.0
  0
LINE
  5
11260
330
215
100
AcDbEntity
  8
MRK
100
AcDbLine
 10
3472.5
 20
8243.41833494728
 30
0.0
 11
3727.5
 21
8276.568334947283
 31
0.0
  0
LINE
  5
11261
330
215
100
AcDbEntity
  8
MRK
100
AcDbLine
 10
3472.5
 20
8143.418334947282
 30
0.0
 11
3727.5
 21
8176.568334947281
 31
0.0
  0
LINE
  5
11262
330
215
100
AcDbEntity
  8
MRK
100
AcDbLine
 10
3472.5
 20
8043.418334947281
 30
0.0
 11
3727.5
 21
8076.56833494728
 31
0.0
  0
LINE
  5
11263
330
215
100
AcDbEntity
  8
MRK
100
AcDbLine
 10
3472.5
 20
7943.418334947281
 30
0.0
 11
3727.5
 21
7976.56833494728
 31
0.0
  0
LINE
  5
11264
330
215
100
AcDbEntity
  8
MRK
100
AcDbLine
 10
3472.5
 20
7843.418334947282
 30
0.0
 11
3727.5
 21
7876.568334947281
 31
0.0
  0
LINE
  5
11265
330
215
100
AcDbEntity
  8
MRK
100
AcDbLine
 10
3472.5
 20
7743.418334947282
 30
0.0
 11
3727.5
 21
7776.568334947281
 31
0.0
  0
LINE
  5
11266
330
215
100
AcDbEntity
  8
MRK
100
AcDbLine
 10
3472.5
 20
9043.418334947281
 30
0.0
 11
3472.5
 21
7743.418334947282
 31
0.0
  0
LINE
  5
11267
330
215
100
AcDbEntity
  8
MRK
100
AcDbLine
 10
3557.5
 20
9054.46833494728
 30
0.0
 11
3557.5
 21
7754.468334947282
 31
0.0
  0
LINE
  5
11268
330
215
100
AcDbEntity
  8
MRK
100
AcDbLine
 10
3642.5
 20
9065.518334947281
 30
0.0
 11
3642.5
 21
7765.51833494728
 31
0.0
  0
LINE
  5
11269
330
215
100
AcDbEntity
  8
MRK
100
AcDbLine
 10
3727.5
 20
9076.56833494728
 30
0.0
 11
3727.5
 21
7776.568334947281
 31
0.0
  0
LINE
  5
11270
330
215
100
AcDbEntity
  8
MRK
100
AcDbLine
 10
3472.5
 20
9043.418334947281
 30
0.0
 11
3727.5
 21
9076.56833494728
 31
0.0
  0
LINE
  5
11271
330
215
100
AcDbEntity
  8
MRK
100
AcDbLine
 10
3387.5
 20
9282.368334947282
 30
0.0
 11
3812.5
 21
9337.618334947279
 31
0.0
  0
LINE
  5
11272
330
215
100
AcDbEntity
  8
MRK
100
AcDbLine
 10
3387.5
 20
9182.368334947282
 30
0.0
 11
3812.5
 21
9237.61833494728
 31
0.0
  0
LINE
  5
11273
330
215
100
AcDbEntity
  8
MRK
100
AcDbLine
 10
3387.5
 20
9382.36833494728
 30
0.0
 11
3387.5
 21
9182.368334947282
 31
0.0
  0
LINE
  5
11274
330
215
100
AcDbEntity
  8
MRK
100
AcDbLine
 10
3472.5
 20
9393.418334947281
 30
0.0
 11
3472.5
 21
9193.41833494728
 31
0.0
  0
LINE
  5
11275
330
215
100
AcDbEntity
  8
MRK
100
AcDbLine
 10
3557.5
 20
9404.46833494728
 30
0.0
 11
3557.5
 21
9204.468334947282
 31
0.0
  0
LINE
  5
11276
330
215
100
AcDbEntity
  8
MRK
100
AcDbLine
 10
3642.5
 20
9415.518334947281
 30
0.0
 11
3642.5
 21
9215.518334947281
 31
0.0
  0
LINE
  5
11277
330
215
100
AcDbEntity
  8
MRK
100
AcDbLine
 10
3727.5
 20
9426.568334947281
 30
0.0
 11
3727.5
 21
9226.56833494728
 31
0.0
  0
LINE
  5
11278
330
215
100
AcDbEntity
  8
MRK
100
AcDbLine
 10
3812.5
 20
9437.618334947279
 30
0.0
 11
3812.5
 21
9237.61833494728
 31
0.0
  0
LINE
  5
11279
330
215
100
AcDbEntity
  8
MRK
100
AcDbLine
 10
3387.5
 20
9382.36833494728
 30
0.0
 11
3812.5
 21
9437.618334947279
 31
0.0
  0
LINE
  5
11280
330
215
100
AcDbEntity
  8
MRK
100
AcDbLine
 10
5302.5
 20
9589.993334947282
 30
0.0
 11
5897.5
 21
9589.993334947282
 31
0.0
  0
LINE
  5
11281
330
215
100
AcDbEntity
  8
MRK
100
AcDbLine
 10
5897.5
 20
9614.49333494728
 30
0.0
 11
5897.5
 21
9565.49333494728
 31
0.0
  0
LINE
  5
11282
330
215
100
AcDbEntity
  8
MRK
100
AcDbLine
 10
5812.5
 20
9614.49333494728
 30
0.0
 11
5812.5
 21
9565.49333494728
 31
0.0
  0
LINE
  5
11283
330
215
100
AcDbEntity
  8
MRK
100
AcDbLine
 10
5727.5
 20
9614.49333494728
 30
0.0
 11
5727.5
 21
9565.49333494728
 31
0.0
  0
LINE
  5
11284
330
215
100
AcDbEntity
  8
MRK
100
AcDbLine
 10
5642.5
 20
9614.49333494728
 30
0.0
 11
5642.5
 21
9565.49333494728
 31
0.0
  0
LINE
  5
11285
330
215
100
AcDbEntity
  8
MRK
100
AcDbLine
 10
5557.5
 20
9614.49333494728
 30
0.0
 11
5557.5
 21
9565.49333494728
 31
0.0
  0
LINE
  5
11286
330
215
100
AcDbEntity
  8
MRK
100
AcDbLine
 10
5472.5
 20
9614.49333494728
 30
0.0
 11
5472.5
 21
9565.49333494728
 31
0.0
  0
LINE
  5
11287
330
215
100
AcDbEntity
  8
MRK
100
AcDbLine
 10
5387.5
 20
9614.49333494728
 30
0.0
 11
5387.5
 21
9565.49333494728
 31
0.0
  0
LINE
  5
11288
330
215
100
AcDbEntity
  8
MRK
100
AcDbLine
 10
5302.5
 20
9614.49333494728
 30
0.0
 11
5302.5
 21
9565.49333494728
 31
0.0
  0
LINE
  5
11289
330
215
100
AcDbEntity
  8
MRK
100
AcDbLine
 10
5302.5
 20
7029.993334947281
 30
0.0
 11
5897.5
 21
7029.993334947281
 31
0.0
  0
LINE
  5
11290
330
215
100
AcDbEntity
  8
MRK
100
AcDbLine
 10
5897.5
 20
7054.493334947281
 30
0.0
 11
5897.5
 21
7005.493334947281
 31
0.0
  0
LINE
  5
11291
330
215
100
AcDbEntity
  8
MRK
100
AcDbLine
 10
5812.5
 20
7054.493334947281
 30
0.0
 11
5812.5
 21
7005.493334947281
 31
0.0
  0
LINE
  5
11292
330
215
100
AcDbEntity
  8
MRK
100
AcDbLine
 10
5727.5
 20
7054.493334947281
 30
0.0
 11
5727.5
 21
7005.493334947281
 31
0.0
  0
LINE
  5
11293
330
215
100
AcDbEntity
  8
MRK
100
AcDbLine
 10
5642.5
 20
7054.493334947281
 30
0.0
 11
5642.5
 21
7005.493334947281
 31
0.0
  0
LINE
  5
11294
330
215
100
AcDbEntity
  8
MRK
100
AcDbLine
 10
5557.5
 20
7054.493334947281
 30
0.0
 11
5557.5
 21
7005.493334947281
 31
0.0
  0
LINE
  5
11295
330
215
100
AcDbEntity
  8
MRK
100
AcDbLine
 10
5472.5
 20
7054.493334947281
 30
0.0
 11
5472.5
 21
7005.493334947281
 31
0.0
  0
LINE
  5
11296
330
215
100
AcDbEntity
  8
MRK
100
AcDbLine
 10
5387.5
 20
7054.493334947281
 30
0.0
 11
5387.5
 21
7005.493334947281
 31
0.0
  0
LINE
  5
11297
330
215
100
AcDbEntity
  8
MRK
100
AcDbLine
 10
5302.5
 20
7054.493334947281
 30
0.0
 11
5302.5
 21
7005.493334947281
 31
0.0
  0
LINE
  5
11298
330
215
100
AcDbEntity
  8
MRK
100
AcDbLine
 10
5302.5
 20
9413.493334947281
 30
0.0
 11
5897.5
 21
9413.493334947281
 31
0.0
  0
LINE
  5
11299
330
215
100
AcDbEntity
  8
MRK
100
AcDbLine
 10
5897.5
 20
9413.493334947281
 30
0.0
 11
5897.5
 21
8813.493334947281
 31
0.0
  0
LINE
  5
11300
330
215
100
AcDbEntity
  8
MRK
100
AcDbLine
 10
5812.5
 20
9413.493334947281
 30
0.0
 11
5812.5
 21
8813.493334947281
 31
0.0
  0
LINE
  5
11301
330
215
100
AcDbEntity
  8
MRK
100
AcDbLine
 10
5727.5
 20
9413.493334947281
 30
0.0
 11
5727.5
 21
8813.493334947281
 31
0.0
  0
LINE
  5
11302
330
215
100
AcDbEntity
  8
MRK
100
AcDbLine
 10
5642.5
 20
9413.493334947281
 30
0.0
 11
5642.5
 21
8813.493334947281
 31
0.0
  0
LINE
  5
11303
330
215
100
AcDbEntity
  8
MRK
100
AcDbLine
 10
5557.5
 20
9413.493334947281
 30
0.0
 11
5557.5
 21
8813.493334947281
 31
0.0
  0
LINE
  5
11304
330
215
100
AcDbEntity
  8
MRK
100
AcDbLine
 10
5472.5
 20
9413.493334947281
 30
0.0
 11
5472.5
 21
8813.493334947281
 31
0.0
  0
LINE
  5
11305
330
215
100
AcDbEntity
  8
MRK
100
AcDbLine
 10
5387.5
 20
9413.493334947281
 30
0.0
 11
5387.5
 21
8813.493334947281
 31
0.0
  0
LINE
  5
11306
330
215
100
AcDbEntity
  8
MRK
100
AcDbLine
 10
5302.5
 20
9413.493334947281
 30
0.0
 11
5302.5
 21
8813.493334947281
 31
0.0
  0
LINE
  5
11307
330
215
100
AcDbEntity
  8
MRK
100
AcDbLine
 10
5302.5
 20
8813.493334947281
 30
0.0
 11
5897.5
 21
8813.493334947281
 31
0.0
  0
LINE
  5
11308
330
215
100
AcDbEntity
  8
MRK
100
AcDbLine
 10
5302.5
 20
8913.493334947281
 30
0.0
 11
5897.5
 21
8913.493334947281
 31
0.0
  0
LINE
  5
11309
330
215
100
AcDbEntity
  8
MRK
100
AcDbLine
 10
5302.5
 20
9013.493334947282
 30
0.0
 11
5897.5
 21
9013.493334947282
 31
0.0
  0
LINE
  5
11310
330
215
100
AcDbEntity
  8
MRK
100
AcDbLine
 10
5302.5
 20
9113.493334947282
 30
0.0
 11
5897.5
 21
9113.493334947282
 31
0.0
  0
LINE
  5
11311
330
215
100
AcDbEntity
  8
MRK
100
AcDbLine
 10
5302.5
 20
9213.493334947282
 30
0.0
 11
5897.5
 21
9213.493334947282
 31
0.0
  0
LINE
  5
11312
330
215
100
AcDbEntity
  8
MRK
100
AcDbLine
 10
5302.5
 20
9313.493334947279
 30
0.0
 11
5897.5
 21
9313.493334947279
 31
0.0
  0
LINE
  5
11313
330
215
100
AcDbEntity
  8
MRK
100
AcDbLine
 10
5302.5
 20
8609.993334947281
 30
0.0
 11
5897.5
 21
8609.993334947281
 31
0.0
  0
LINE
  5
11314
330
215
100
AcDbEntity
  8
MRK
100
AcDbLine
 10
5897.5
 20
8609.993334947281
 30
0.0
 11
5897.5
 21
8009.993334947282
 31
0.0
  0
LINE
  5
11315
330
215
100
AcDbEntity
  8
MRK
100
AcDbLine
 10
5812.5
 20
8609.993334947281
 30
0.0
 11
5812.5
 21
8009.993334947282
 31
0.0
  0
LINE
  5
11316
330
215
100
AcDbEntity
  8
MRK
100
AcDbLine
 10
5727.5
 20
8609.993334947281
 30
0.0
 11
5727.5
 21
8009.993334947282
 31
0.0
  0
LINE
  5
11317
330
215
100
AcDbEntity
  8
MRK
100
AcDbLine
 10
5642.5
 20
8609.993334947281
 30
0.0
 11
5642.5
 21
8009.993334947282
 31
0.0
  0
LINE
  5
11318
330
215
100
AcDbEntity
  8
MRK
100
AcDbLine
 10
5557.5
 20
8609.993334947281
 30
0.0
 11
5557.5
 21
8009.993334947282
 31
0.0
  0
LINE
  5
11319
330
215
100
AcDbEntity
  8
MRK
100
AcDbLine
 10
5472.5
 20
8609.993334947281
 30
0.0
 11
5472.5
 21
8009.993334947282
 31
0.0
  0
LINE
  5
11320
330
215
100
AcDbEntity
  8
MRK
100
AcDbLine
 10
5387.5
 20
8609.993334947281
 30
0.0
 11
5387.5
 21
8009.993334947282
 31
0.0
  0
LINE
  5
11321
330
215
100
AcDbEntity
  8
MRK
100
AcDbLine
 10
5302.5
 20
8609.993334947281
 30
0.0
 11
5302.5
 21
8009.993334947282
 31
0.0
  0
LINE
  5
11322
330
215
100
AcDbEntity
  8
MRK
100
AcDbLine
 10
5302.5
 20
8009.993334947282
 30
0.0
 11
5897.5
 21
8009.993334947282
 31
0.0
  0
LINE
  5
11323
330
215
100
AcDbEntity
  8
MRK
100
AcDbLine
 10
5302.5
 20
8109.993334947281
 30
0.0
 11
5897.5
 21
8109.993334947281
 31
0.0
  0
LINE
  5
11324
330
215
100
AcDbEntity
  8
MRK
100
AcDbLine
 10
5302.5
 20
8209.993334947283
 30
0.0
 11
5897.5
 21
8209.993334947283
 31
0.0
  0
LINE
  5
11325
330
215
100
AcDbEntity
  8
MRK
100
AcDbLine
 10
5302.5
 20
8309.993334947282
 30
0.0
 11
5897.5
 21
8309.993334947282
 31
0.0
  0
LINE
  5
11326
330
215
100
AcDbEntity
  8
MRK
100
AcDbLine
 10
5302.5
 20
8409.993334947282
 30
0.0
 11
5897.5
 21
8409.993334947282
 31
0.0
  0
LINE
  5
11327
330
215
100
AcDbEntity
  8
MRK
100
AcDbLine
 10
5302.5
 20
8509.993334947282
 30
0.0
 11
5897.5
 21
8509.993334947282
 31
0.0
  0
LINE
  5
11328
330
215
100
AcDbEntity
  8
MRK
100
AcDbLine
 10
5302.5
 20
7806.493334947281
 30
0.0
 11
5897.5
 21
7806.493334947281
 31
0.0
  0
LINE
  5
11329
330
215
100
AcDbEntity
  8
MRK
100
AcDbLine
 10
5897.5
 20
7806.493334947281
 30
0.0
 11
5897.5
 21
7206.493334947281
 31
0.0
  0
LINE
  5
11330
330
215
100
AcDbEntity
  8
MRK
100
AcDbLine
 10
5812.5
 20
7806.493334947281
 30
0.0
 11
5812.5
 21
7206.493334947281
 31
0.0
  0
LINE
  5
11331
330
215
100
AcDbEntity
  8
MRK
100
AcDbLine
 10
5727.5
 20
7806.493334947281
 30
0.0
 11
5727.5
 21
7206.493334947281
 31
0.0
  0
LINE
  5
11332
330
215
100
AcDbEntity
  8
MRK
100
AcDbLine
 10
5642.5
 20
7806.493334947281
 30
0.0
 11
5642.5
 21
7206.493334947281
 31
0.0
  0
LINE
  5
11333
330
215
100
AcDbEntity
  8
MRK
100
AcDbLine
 10
5557.5
 20
7806.493334947281
 30
0.0
 11
5557.5
 21
7206.493334947281
 31
0.0
  0
LINE
  5
11334
330
215
100
AcDbEntity
  8
MRK
100
AcDbLine
 10
5472.5
 20
7806.493334947281
 30
0.0
 11
5472.5
 21
7206.493334947281
 31
0.0
  0
LINE
  5
11335
330
215
100
AcDbEntity
  8
MRK
100
AcDbLine
 10
5387.5
 20
7806.493334947281
 30
0.0
 11
5387.5
 21
7206.493334947281
 31
0.0
  0
LINE
  5
11336
330
215
100
AcDbEntity
  8
MRK
100
AcDbLine
 10
5302.5
 20
7806.493334947281
 30
0.0
 11
5302.5
 21
7206.493334947281
 31
0.0
  0
LINE
  5
11337
330
215
100
AcDbEntity
  8
MRK
100
AcDbLine
 10
5302.5
 20
7206.493334947281
 30
0.0
 11
5897.5
 21
7206.493334947281
 31
0.0
  0
LINE
  5
11338
330
215
100
AcDbEntity
  8
MRK
100
AcDbLine
 10
5302.5
 20
7306.493334947281
 30
0.0
 11
5897.5
 21
7306.493334947281
 31
0.0
  0
LINE
  5
11339
330
215
100
AcDbEntity
  8
MRK
100
AcDbLine
 10
5302.5
 20
7406.493334947281
 30
0.0
 11
5897.5
 21
7406.493334947281
 31
0.0
  0
LINE
  5
11340
330
215
100
AcDbEntity
  8
MRK
100
AcDbLine
 10
5302.5
 20
7506.493334947281
 30
0.0
 11
5897.5
 21
7506.493334947281
 31
0.0
  0
LINE
  5
11341
330
215
100
AcDbEntity
  8
MRK
100
AcDbLine
 10
5302.5
 20
7606.49333494728
 30
0.0
 11
5897.5
 21
7606.49333494728
 31
0.0
  0
LINE
  5
11342
330
215
100
AcDbEntity
  8
MRK
100
AcDbLine
 10
5302.5
 20
7706.493334947281
 30
0.0
 11
5897.5
 21
7706.493334947281
 31
0.0
  0
LINE
  5
11343
330
215
100
AcDbEntity
  8
FIELDSPLICE__1
100
AcDbLine
 10
5937.5
 20
6989.993334947282
 30
0.0
 11
5262.5
 21
6989.993334947282
 31
0.0
  0
LINE
  5
11344
330
215
100
AcDbEntity
  8
FIELDSPLICE__1
100
AcDbLine
 10
5262.5
 20
6989.993334947282
 30
0.0
 11
5262.5
 21
9629.993334947279
 31
0.0
  0
LINE
  5
11345
330
215
100
AcDbEntity
  8
FIELDSPLICE__1
100
AcDbLine
 10
5262.5
 20
9629.993334947279
 30
0.0
 11
5262.5
 21
9629.993334947279
 31
0.0
  0
LINE
  5
11346
330
215
100
AcDbEntity
  8
FIELDSPLICE__1
100
AcDbLine
 10
5262.5
 20
9629.993334947279
 30
0.0
 11
5937.5
 21
9629.993334947279
 31
0.0
  0
LINE
  5
11347
330
215
100
AcDbEntity
  8
FIELDSPLICE__1
100
AcDbLine
 10
5937.5
 20
9629.993334947279
 30
0.0
 11
5937.5
 21
6989.993334947282
 31
0.0
  0
LWPOLYLINE
  5
11468
330
215
100
AcDbEntity
  8
MAINMEMBER
100
AcDbPolyline
 90
        4
 70
     1
 43
0.0
 10
3246.519908999998
 20
9474.654241947281
 10
3950.237245
 20
9568.898136947282
 10
3948.909865999999
 20
9578.809647947281
 10
3245.19253
 20
9484.565753947279
  0
LWPOLYLINE
  5
11472
330
215
100
AcDbEntity
  8
MAINMEMBER
100
AcDbPolyline
 90
        4
 70
     1
 43
0.0
 10
3249.468711
 20
9452.959875947282
 10
3953.186046999999
 20
9547.203770947282
 10
3951.858667999999
 20
9557.115281947281
 10
3248.141332
 20
9462.871387947279
  0
LWPOLYLINE
  5
11476
330
215
100
AcDbEntity
  8
MAINMEMBER
100
AcDbPolyline
 90
        4
 70
     1
 43
0.0
 10
3265.486478
 20
7265.194300947282
 10
3934.513521999999
 20
7354.792368947279
 10
3933.186143
 20
7364.703880947281
 10
3264.159099
 20
7275.105811947281
  0
LWPOLYLINE
  5
11480
330
215
100
AcDbEntity
  8
MAINMEMBER
100
AcDbPolyline
 90
        4
 70
     1
 43
0.0
 10
3268.43528
 20
7243.499933947281
 10
3937.462324
 20
7333.098002947281
 10
3936.134945
 20
7343.009514947282
 10
3267.107901000001
 20
7253.411445947282
  0
LWPOLYLINE
  5
11634
330
215
100
AcDbEntity
  8
DIMENSION
100
AcDbPolyline
 90
        2
 70
     1
 43
12.0
 10
1251.0
 20
9849.99333494728
 42
1.0
 10
1239.0
 20
9849.99333494728
 42
1.0
  0
LWPOLYLINE
  5
11636
330
215
100
AcDbEntity
  8
DIMENSION
100
AcDbPolyline
 90
        2
 70
     1
 43
12.0
 10
1961.0
 20
9849.99333494728
 42
1.0
 10
1949.0
 20
9849.99333494728
 42
1.0
  0
LWPOLYLINE
  5
11638
330
215
100
AcDbEntity
  8
DIMENSION
100
AcDbPolyline
 90
        2
 70
     1
 43
12.0
 10
2381.0
 20
9629.993334947279
 42
1.0
 10
2369.0
 20
9629.993334947279
 42
1.0
  0
LWPOLYLINE
  5
11640
330
215
100
AcDbEntity
  8
DIMENSION
100
AcDbPolyline
 90
        2
 70
     1
 43
12.0
 10
2381.0
 20
6989.993334947282
 42
1.0
 10
2369.0
 20
6989.993334947282
 42
1.0
  0
LWPOLYLINE
  5
11642
330
215
100
AcDbEntity
  8
DIMENSION
100
AcDbPolyline
 90
        2
 70
     1
 43
12.0
 10
3438.499999999998
 20
7056.218334947281
 42
1.0
 10
3426.5
 20
7056.218334947281
 42
1.0
  0
LWPOLYLINE
  5
11644
330
215
100
AcDbEntity
  8
DIMENSION
100
AcDbPolyline
 90
        2
 70
     1
 43
12.0
 10
3773.5
 20
7056.218334947281
 42
1.0
 10
3761.5
 20
7056.218334947281
 42
1.0
  0
LWPOLYLINE
  5
11646
330
215
100
AcDbEntity
  8
DIMENSION
100
AcDbPolyline
 90
        2
 70
     1
 43
12.0
 10
3353.5
 20
9774.818334947283
 42
1.0
 10
3341.499999999998
 20
9774.818334947283
 42
1.0
  0
LWPOLYLINE
  5
11648
330
215
100
AcDbEntity
  8
DIMENSION
100
AcDbPolyline
 90
        2
 70
     1
 43
12.0
 10
3858.5
 20
9774.818334947283
 42
1.0
 10
3846.5
 20
9774.818334947283
 42
1.0
  0
LWPOLYLINE
  5
11650
330
215
100
AcDbEntity
  8
DIMENSION
100
AcDbPolyline
 90
        2
 70
     1
 43
12.0
 10
4278.5
 20
9449.993334947279
 42
1.0
 10
4266.499999999999
 20
9449.993334947279
 42
1.0
  0
LWPOLYLINE
  5
11652
330
215
100
AcDbEntity
  8
DIMENSION
100
AcDbPolyline
 90
        2
 70
     1
 43
12.0
 10
4278.5
 20
9169.993334947282
 42
1.0
 10
4266.499999999999
 20
9169.993334947282
 42
1.0
  0
LWPOLYLINE
  5
11654
330
215
100
AcDbEntity
  8
DIMENSION
100
AcDbPolyline
 90
        2
 70
     1
 43
12.0
 10
4278.5
 20
9099.99333494728
 42
1.0
 10
4266.499999999999
 20
9099.99333494728
 42
1.0
  0
LWPOLYLINE
  5
11656
330
215
100
AcDbEntity
  8
DIMENSION
100
AcDbPolyline
 90
        2
 70
     1
 43
12.0
 10
4278.5
 20
7719.993334947282
 42
1.0
 10
4266.499999999999
 20
7719.993334947282
 42
1.0
  0
LWPOLYLINE
  5
11658
330
215
100
AcDbEntity
  8
DIMENSION
100
AcDbPolyline
 90
        2
 70
     1
 43
12.0
 10
5268.5
 20
9849.99333494728
 42
1.0
 10
5256.499999999999
 20
9849.99333494728
 42
1.0
  0
LWPOLYLINE
  5
11660
330
215
100
AcDbEntity
  8
DIMENSION
100
AcDbPolyline
 90
        2
 70
     1
 43
12.0
 10
5943.5
 20
9849.99333494728
 42
1.0
 10
5931.499999999999
 20
9849.99333494728
 42
1.0
  0
LWPOLYLINE
  5
11662
330
215
100
AcDbEntity
  8
DIMENSION
100
AcDbPolyline
 90
        2
 70
     1
 43
12.0
 10
6363.5
 20
9629.993334947279
 42
1.0
 10
6351.5
 20
9629.993334947279
 42
1.0
  0
LWPOLYLINE
  5
11664
330
215
100
AcDbEntity
  8
DIMENSION
100
AcDbPolyline
 90
        2
 70
     1
 43
12.0
 10
6363.5
 20
6989.993334947282
 42
1.0
 10
6351.5
 20
6989.993334947282
 42
1.0
  0
LWPOLYLINE
  5
11686
330
215
100
AcDbEntity
  8
DRL
100
AcDbPolyline
 90
        2
 70
     1
 43
12.25
 10
1376.125
 20
7029.993334947281
 42
1.0
 10
1363.875
 20
7029.993334947281
 42
1.0
  0
LWPOLYLINE
  5
11688
330
215
100
AcDbEntity
  8
DRL
100
AcDbPolyline
 90
        2
 70
     1
 43
12.25
 10
1291.125
 20
7029.993334947281
 42
1.0
 10
1278.875
 20
7029.993334947281
 42
1.0
  0
LWPOLYLINE
  5
11690
330
215
100
AcDbEntity
  8
DRL
100
AcDbPolyline
 90
        2
 70
     1
 43
12.25
 10
1921.124999999999
 20
7029.993334947281
 42
1.0
 10
1908.875
 20
7029.993334947281
 42
1.0
  0
LWPOLYLINE
  5
11692
330
215
100
AcDbEntity
  8
DRL
100
AcDbPolyline
 90
        2
 70
     1
 43
12.25
 10
1836.125
 20
7029.993334947281
 42
1.0
 10
1823.875
 20
7029.993334947281
 42
1.0
  0
LWPOLYLINE
  5
11694
330
215
100
AcDbEntity
  8
DRL
100
AcDbPolyline
 90
        2
 70
     1
 43
12.25
 10
1751.125
 20
7029.993334947281
 42
1.0
 10
1738.875
 20
7029.993334947281
 42
1.0
  0
LWPOLYLINE
  5
11696
330
215
100
AcDbEntity
  8
DRL
100
AcDbPolyline
 90
        2
 70
     1
 43
12.25
 10
1666.125
 20
7029.993334947281
 42
1.0
 10
1653.875
 20
7029.993334947281
 42
1.0
  0
LWPOLYLINE
  5
11698
330
215
100
AcDbEntity
  8
DRL
100
AcDbPolyline
 90
        2
 70
     1
 43
12.25
 10
1546.124999999999
 20
7029.993334947281
 42
1.0
 10
1533.875
 20
7029.993334947281
 42
1.0
  0
LWPOLYLINE
  5
11700
330
215
100
AcDbEntity
  8
DRL
100
AcDbPolyline
 90
        2
 70
     1
 43
12.25
 10
1461.125
 20
7029.993334947281
 42
1.0
 10
1448.875
 20
7029.993334947281
 42
1.0
  0
LWPOLYLINE
  5
11702
330
215
100
AcDbEntity
  8
DRL
100
AcDbPolyline
 90
        2
 70
     1
 43
12.25
 10
1376.125
 20
9589.993334947282
 42
1.0
 10
1363.875
 20
9589.993334947282
 42
1.0
  0
LWPOLYLINE
  5
11704
330
215
100
AcDbEntity
  8
DRL
100
AcDbPolyline
 90
        2
 70
     1
 43
12.25
 10
1291.125
 20
9589.993334947282
 42
1.0
 10
1278.875
 20
9589.993334947282
 42
1.0
  0
LWPOLYLINE
  5
11706
330
215
100
AcDbEntity
  8
DRL
100
AcDbPolyline
 90
        2
 70
     1
 43
12.25
 10
1921.124999999999
 20
9589.993334947282
 42
1.0
 10
1908.875
 20
9589.993334947282
 42
1.0
  0
LWPOLYLINE
  5
11708
330
215
100
AcDbEntity
  8
DRL
100
AcDbPolyline
 90
        2
 70
     1
 43
12.25
 10
1836.125
 20
9589.993334947282
 42
1.0
 10
1823.875
 20
9589.993334947282
 42
1.0
  0
LWPOLYLINE
  5
11710
330
215
100
AcDbEntity
  8
DRL
100
AcDbPolyline
 90
        2
 70
     1
 43
12.25
 10
1751.125
 20
9589.993334947282
 42
1.0
 10
1738.875
 20
9589.993334947282
 42
1.0
  0
LWPOLYLINE
  5
11712
330
215
100
AcDbEntity
  8
DRL
100
AcDbPolyline
 90
        2
 70
     1
 43
12.25
 10
1666.125
 20
9589.993334947282
 42
1.0
 10
1653.875
 20
9589.993334947282
 42
1.0
  0
LWPOLYLINE
  5
11714
330
215
100
AcDbEntity
  8
DRL
100
AcDbPolyline
 90
        2
 70
     1
 43
12.25
 10
1546.124999999999
 20
9589.993334947282
 42
1.0
 10
1533.875
 20
9589.993334947282
 42
1.0
  0
LWPOLYLINE
  5
11716
330
215
100
AcDbEntity
  8
DRL
100
AcDbPolyline
 90
        2
 70
     1
 43
12.25
 10
1461.125
 20
9589.993334947282
 42
1.0
 10
1448.875
 20
9589.993334947282
 42
1.0
  0
LWPOLYLINE
  5
11718
330
215
100
AcDbEntity
  8
DRL
100
AcDbPolyline
 90
        2
 70
     1
 43
12.25
 10
1376.125
 20
9413.493334947281
 42
1.0
 10
1363.875
 20
9413.493334947281
 42
1.0
  0
LWPOLYLINE
  5
11720
330
215
100
AcDbEntity
  8
DRL
100
AcDbPolyline
 90
        2
 70
     1
 43
12.25
 10
1291.125
 20
9413.493334947281
 42
1.0
 10
1278.875
 20
9413.493334947281
 42
1.0
  0
LWPOLYLINE
  5
11722
330
215
100
AcDbEntity
  8
DRL
100
AcDbPolyline
 90
        2
 70
     1
 43
12.25
 10
1921.124999999999
 20
9213.493334947282
 42
1.0
 10
1908.875
 20
9213.493334947282
 42
1.0
  0
LWPOLYLINE
  5
11724
330
215
100
AcDbEntity
  8
DRL
100
AcDbPolyline
 90
        2
 70
     1
 43
12.25
 10
1836.125
 20
9213.493334947282
 42
1.0
 10
1823.875
 20
9213.493334947282
 42
1.0
  0
LWPOLYLINE
  5
11726
330
215
100
AcDbEntity
  8
DRL
100
AcDbPolyline
 90
        2
 70
     1
 43
12.25
 10
1751.125
 20
9213.493334947282
 42
1.0
 10
1738.875
 20
9213.493334947282
 42
1.0
  0
LWPOLYLINE
  5
11728
330
215
100
AcDbEntity
  8
DRL
100
AcDbPolyline
 90
        2
 70
     1
 43
12.25
 10
1666.125
 20
9213.493334947282
 42
1.0
 10
1653.875
 20
9213.493334947282
 42
1.0
  0
LWPOLYLINE
  5
11730
330
215
100
AcDbEntity
  8
DRL
100
AcDbPolyline
 90
        2
 70
     1
 43
12.25
 10
1546.124999999999
 20
9213.493334947282
 42
1.0
 10
1533.875
 20
9213.493334947282
 42
1.0
  0
LWPOLYLINE
  5
11732
330
215
100
AcDbEntity
  8
DRL
100
AcDbPolyline
 90
        2
 70
     1
 43
12.25
 10
1461.125
 20
9213.493334947282
 42
1.0
 10
1448.875
 20
9213.493334947282
 42
1.0
  0
LWPOLYLINE
  5
11734
330
215
100
AcDbEntity
  8
DRL
100
AcDbPolyline
 90
        2
 70
     1
 43
12.25
 10
1376.125
 20
9213.493334947282
 42
1.0
 10
1363.875
 20
9213.493334947282
 42
1.0
  0
LWPOLYLINE
  5
11736
330
215
100
AcDbEntity
  8
DRL
100
AcDbPolyline
 90
        2
 70
     1
 43
12.25
 10
1291.125
 20
9213.493334947282
 42
1.0
 10
1278.875
 20
9213.493334947282
 42
1.0
  0
LWPOLYLINE
  5
11738
330
215
100
AcDbEntity
  8
DRL
100
AcDbPolyline
 90
        2
 70
     1
 43
12.25
 10
1921.124999999999
 20
9313.493334947279
 42
1.0
 10
1908.875
 20
9313.493334947279
 42
1.0
  0
LWPOLYLINE
  5
11740
330
215
100
AcDbEntity
  8
DRL
100
AcDbPolyline
 90
        2
 70
     1
 43
12.25
 10
1836.125
 20
9313.493334947279
 42
1.0
 10
1823.875
 20
9313.493334947279
 42
1.0
  0
LWPOLYLINE
  5
11742
330
215
100
AcDbEntity
  8
DRL
100
AcDbPolyline
 90
        2
 70
     1
 43
12.25
 10
1751.125
 20
9313.493334947279
 42
1.0
 10
1738.875
 20
9313.493334947279
 42
1.0
  0
LWPOLYLINE
  5
11744
330
215
100
AcDbEntity
  8
DRL
100
AcDbPolyline
 90
        2
 70
     1
 43
12.25
 10
1666.125
 20
9313.493334947279
 42
1.0
 10
1653.875
 20
9313.493334947279
 42
1.0
  0
LWPOLYLINE
  5
11746
330
215
100
AcDbEntity
  8
DRL
100
AcDbPolyline
 90
        2
 70
     1
 43
12.25
 10
1546.124999999999
 20
9313.493334947279
 42
1.0
 10
1533.875
 20
9313.493334947279
 42
1.0
  0
LWPOLYLINE
  5
11748
330
215
100
AcDbEntity
  8
DRL
100
AcDbPolyline
 90
        2
 70
     1
 43
12.25
 10
1461.125
 20
9313.493334947279
 42
1.0
 10
1448.875
 20
9313.493334947279
 42
1.0
  0
LWPOLYLINE
  5
11750
330
215
100
AcDbEntity
  8
DRL
100
AcDbPolyline
 90
        2
 70
     1
 43
12.25
 10
1376.125
 20
9313.493334947279
 42
1.0
 10
1363.875
 20
9313.493334947279
 42
1.0
  0
LWPOLYLINE
  5
11752
330
215
100
AcDbEntity
  8
DRL
100
AcDbPolyline
 90
        2
 70
     1
 43
12.25
 10
1291.125
 20
9313.493334947279
 42
1.0
 10
1278.875
 20
9313.493334947279
 42
1.0
  0
LWPOLYLINE
  5
11754
330
215
100
AcDbEntity
  8
DRL
100
AcDbPolyline
 90
        2
 70
     1
 43
12.25
 10
1921.124999999999
 20
9413.493334947281
 42
1.0
 10
1908.875
 20
9413.493334947281
 42
1.0
  0
LWPOLYLINE
  5
11756
330
215
100
AcDbEntity
  8
DRL
100
AcDbPolyline
 90
        2
 70
     1
 43
12.25
 10
1836.125
 20
9413.493334947281
 42
1.0
 10
1823.875
 20
9413.493334947281
 42
1.0
  0
LWPOLYLINE
  5
11758
330
215
100
AcDbEntity
  8
DRL
100
AcDbPolyline
 90
        2
 70
     1
 43
12.25
 10
1751.125
 20
9413.493334947281
 42
1.0
 10
1738.875
 20
9413.493334947281
 42
1.0
  0
LWPOLYLINE
  5
11760
330
215
100
AcDbEntity
  8
DRL
100
AcDbPolyline
 90
        2
 70
     1
 43
12.25
 10
1666.125
 20
9413.493334947281
 42
1.0
 10
1653.875
 20
9413.493334947281
 42
1.0
  0
LWPOLYLINE
  5
11762
330
215
100
AcDbEntity
  8
DRL
100
AcDbPolyline
 90
        2
 70
     1
 43
12.25
 10
1546.124999999999
 20
9413.493334947281
 42
1.0
 10
1533.875
 20
9413.493334947281
 42
1.0
  0
LWPOLYLINE
  5
11764
330
215
100
AcDbEntity
  8
DRL
100
AcDbPolyline
 90
        2
 70
     1
 43
12.25
 10
1461.125
 20
9413.493334947281
 42
1.0
 10
1448.875
 20
9413.493334947281
 42
1.0
  0
LWPOLYLINE
  5
11766
330
215
100
AcDbEntity
  8
DRL
100
AcDbPolyline
 90
        2
 70
     1
 43
12.25
 10
1376.125
 20
9009.993334947282
 42
1.0
 10
1363.875
 20
9009.993334947282
 42
1.0
  0
LWPOLYLINE
  5
11768
330
215
100
AcDbEntity
  8
DRL
100
AcDbPolyline
 90
        2
 70
     1
 43
12.25
 10
1291.125
 20
9009.993334947282
 42
1.0
 10
1278.875
 20
9009.993334947282
 42
1.0
  0
LWPOLYLINE
  5
11770
330
215
100
AcDbEntity
  8
DRL
100
AcDbPolyline
 90
        2
 70
     1
 43
12.25
 10
1921.124999999999
 20
8809.993334947282
 42
1.0
 10
1908.875
 20
8809.993334947282
 42
1.0
  0
LWPOLYLINE
  5
11772
330
215
100
AcDbEntity
  8
DRL
100
AcDbPolyline
 90
        2
 70
     1
 43
12.25
 10
1836.125
 20
8809.993334947282
 42
1.0
 10
1823.875
 20
8809.993334947282
 42
1.0
  0
LWPOLYLINE
  5
11774
330
215
100
AcDbEntity
  8
DRL
100
AcDbPolyline
 90
        2
 70
     1
 43
12.25
 10
1751.125
 20
8809.993334947282
 42
1.0
 10
1738.875
 20
8809.993334947282
 42
1.0
  0
LWPOLYLINE
  5
11776
330
215
100
AcDbEntity
  8
DRL
100
AcDbPolyline
 90
        2
 70
     1
 43
12.25
 10
1666.125
 20
8809.993334947282
 42
1.0
 10
1653.875
 20
8809.993334947282
 42
1.0
  0
LWPOLYLINE
  5
11778
330
215
100
AcDbEntity
  8
DRL
100
AcDbPolyline
 90
        2
 70
     1
 43
12.25
 10
1546.124999999999
 20
8809.993334947282
 42
1.0
 10
1533.875
 20
8809.993334947282
 42
1.0
  0
LWPOLYLINE
  5
11780
330
215
100
AcDbEntity
  8
DRL
100
AcDbPolyline
 90
        2
 70
     1
 43
12.25
 10
1461.125
 20
8809.993334947282
 42
1.0
 10
1448.875
 20
8809.993334947282
 42
1.0
  0
LWPOLYLINE
  5
11782
330
215
100
AcDbEntity
  8
DRL
100
AcDbPolyline
 90
        2
 70
     1
 43
12.25
 10
1376.125
 20
8809.993334947282
 42
1.0
 10
1363.875
 20
8809.993334947282
 42
1.0
  0
LWPOLYLINE
  5
11784
330
215
100
AcDbEntity
  8
DRL
100
AcDbPolyline
 90
        2
 70
     1
 43
12.25
 10
1291.125
 20
8809.993334947282
 42
1.0
 10
1278.875
 20
8809.993334947282
 42
1.0
  0
LWPOLYLINE
  5
11786
330
215
100
AcDbEntity
  8
DRL
100
AcDbPolyline
 90
        2
 70
     1
 43
12.25
 10
1921.124999999999
 20
8909.993334947282
 42
1.0
 10
1908.875
 20
8909.993334947282
 42
1.0
  0
LWPOLYLINE
  5
11788
330
215
100
AcDbEntity
  8
DRL
100
AcDbPolyline
 90
        2
 70
     1
 43
12.25
 10
1836.125
 20
8909.993334947282
 42
1.0
 10
1823.875
 20
8909.993334947282
 42
1.0
  0
LWPOLYLINE
  5
11790
330
215
100
AcDbEntity
  8
DRL
100
AcDbPolyline
 90
        2
 70
     1
 43
12.25
 10
1751.125
 20
8909.993334947282
 42
1.0
 10
1738.875
 20
8909.993334947282
 42
1.0
  0
LWPOLYLINE
  5
11792
330
215
100
AcDbEntity
  8
DRL
100
AcDbPolyline
 90
        2
 70
     1
 43
12.25
 10
1666.125
 20
8909.993334947282
 42
1.0
 10
1653.875
 20
8909.993334947282
 42
1.0
  0
LWPOLYLINE
  5
11794
330
215
100
AcDbEntity
  8
DRL
100
AcDbPolyline
 90
        2
 70
     1
 43
12.25
 10
1546.124999999999
 20
8909.993334947282
 42
1.0
 10
1533.875
 20
8909.993334947282
 42
1.0
  0
LWPOLYLINE
  5
11796
330
215
100
AcDbEntity
  8
DRL
100
AcDbPolyline
 90
        2
 70
     1
 43
12.25
 10
1461.125
 20
8909.993334947282
 42
1.0
 10
1448.875
 20
8909.993334947282
 42
1.0
  0
LWPOLYLINE
  5
11798
330
215
100
AcDbEntity
  8
DRL
100
AcDbPolyline
 90
        2
 70
     1
 43
12.25
 10
1376.125
 20
8909.993334947282
 42
1.0
 10
1363.875
 20
8909.993334947282
 42
1.0
  0
LWPOLYLINE
  5
11800
330
215
100
AcDbEntity
  8
DRL
100
AcDbPolyline
 90
        2
 70
     1
 43
12.25
 10
1291.125
 20
8909.993334947282
 42
1.0
 10
1278.875
 20
8909.993334947282
 42
1.0
  0
LWPOLYLINE
  5
11802
330
215
100
AcDbEntity
  8
DRL
100
AcDbPolyline
 90
        2
 70
     1
 43
12.25
 10
1921.124999999999
 20
9009.993334947282
 42
1.0
 10
1908.875
 20
9009.993334947282
 42
1.0
  0
LWPOLYLINE
  5
11804
330
215
100
AcDbEntity
  8
DRL
100
AcDbPolyline
 90
        2
 70
     1
 43
12.25
 10
1836.125
 20
9009.993334947282
 42
1.0
 10
1823.875
 20
9009.993334947282
 42
1.0
  0
LWPOLYLINE
  5
11806
330
215
100
AcDbEntity
  8
DRL
100
AcDbPolyline
 90
        2
 70
     1
 43
12.25
 10
1751.125
 20
9009.993334947282
 42
1.0
 10
1738.875
 20
9009.993334947282
 42
1.0
  0
LWPOLYLINE
  5
11808
330
215
100
AcDbEntity
  8
DRL
100
AcDbPolyline
 90
        2
 70
     1
 43
12.25
 10
1666.125
 20
9009.993334947282
 42
1.0
 10
1653.875
 20
9009.993334947282
 42
1.0
  0
LWPOLYLINE
  5
11810
330
215
100
AcDbEntity
  8
DRL
100
AcDbPolyline
 90
        2
 70
     1
 43
12.25
 10
1546.124999999999
 20
9009.993334947282
 42
1.0
 10
1533.875
 20
9009.993334947282
 42
1.0
  0
LWPOLYLINE
  5
11812
330
215
100
AcDbEntity
  8
DRL
100
AcDbPolyline
 90
        2
 70
     1
 43
12.25
 10
1461.125
 20
9009.993334947282
 42
1.0
 10
1448.875
 20
9009.993334947282
 42
1.0
  0
LWPOLYLINE
  5
11814
330
215
100
AcDbEntity
  8
DRL
100
AcDbPolyline
 90
        2
 70
     1
 43
12.25
 10
1376.125
 20
8609.993334947281
 42
1.0
 10
1363.875
 20
8609.993334947281
 42
1.0
  0
LWPOLYLINE
  5
11816
330
215
100
AcDbEntity
  8
DRL
100
AcDbPolyline
 90
        2
 70
     1
 43
12.25
 10
1291.125
 20
8609.993334947281
 42
1.0
 10
1278.875
 20
8609.993334947281
 42
1.0
  0
LWPOLYLINE
  5
11818
330
215
100
AcDbEntity
  8
DRL
100
AcDbPolyline
 90
        2
 70
     1
 43
12.25
 10
1921.124999999999
 20
8409.993334947282
 42
1.0
 10
1908.875
 20
8409.993334947282
 42
1.0
  0
LWPOLYLINE
  5
11820
330
215
100
AcDbEntity
  8
DRL
100
AcDbPolyline
 90
        2
 70
     1
 43
12.25
 10
1836.125
 20
8409.993334947282
 42
1.0
 10
1823.875
 20
8409.993334947282
 42
1.0
  0
LWPOLYLINE
  5
11822
330
215
100
AcDbEntity
  8
DRL
100
AcDbPolyline
 90
        2
 70
     1
 43
12.25
 10
1751.125
 20
8409.993334947282
 42
1.0
 10
1738.875
 20
8409.993334947282
 42
1.0
  0
LWPOLYLINE
  5
11824
330
215
100
AcDbEntity
  8
DRL
100
AcDbPolyline
 90
        2
 70
     1
 43
12.25
 10
1666.125
 20
8409.993334947282
 42
1.0
 10
1653.875
 20
8409.993334947282
 42
1.0
  0
LWPOLYLINE
  5
11826
330
215
100
AcDbEntity
  8
DRL
100
AcDbPolyline
 90
        2
 70
     1
 43
12.25
 10
1546.124999999999
 20
8409.993334947282
 42
1.0
 10
1533.875
 20
8409.993334947282
 42
1.0
  0
LWPOLYLINE
  5
11828
330
215
100
AcDbEntity
  8
DRL
100
AcDbPolyline
 90
        2
 70
     1
 43
12.25
 10
1461.125
 20
8409.993334947282
 42
1.0
 10
1448.875
 20
8409.993334947282
 42
1.0
  0
LWPOLYLINE
  5
11830
330
215
100
AcDbEntity
  8
DRL
100
AcDbPolyline
 90
        2
 70
     1
 43
12.25
 10
1376.125
 20
8409.993334947282
 42
1.0
 10
1363.875
 20
8409.993334947282
 42
1.0
  0
LWPOLYLINE
  5
11832
330
215
100
AcDbEntity
  8
DRL
100
AcDbPolyline
 90
        2
 70
     1
 43
12.25
 10
1291.125
 20
8409.993334947282
 42
1.0
 10
1278.875
 20
8409.993334947282
 42
1.0
  0
LWPOLYLINE
  5
11834
330
215
100
AcDbEntity
  8
DRL
100
AcDbPolyline
 90
        2
 70
     1
 43
12.25
 10
1921.124999999999
 20
8509.993334947282
 42
1.0
 10
1908.875
 20
8509.993334947282
 42
1.0
  0
LWPOLYLINE
  5
11836
330
215
100
AcDbEntity
  8
DRL
100
AcDbPolyline
 90
        2
 70
     1
 43
12.25
 10
1836.125
 20
8509.993334947282
 42
1.0
 10
1823.875
 20
8509.993334947282
 42
1.0
  0
LWPOLYLINE
  5
11838
330
215
100
AcDbEntity
  8
DRL
100
AcDbPolyline
 90
        2
 70
     1
 43
12.25
 10
1751.125
 20
8509.993334947282
 42
1.0
 10
1738.875
 20
8509.993334947282
 42
1.0
  0
LWPOLYLINE
  5
11840
330
215
100
AcDbEntity
  8
DRL
100
AcDbPolyline
 90
        2
 70
     1
 43
12.25
 10
1666.125
 20
8509.993334947282
 42
1.0
 10
1653.875
 20
8509.993334947282
 42
1.0
  0
LWPOLYLINE
  5
11842
330
215
100
AcDbEntity
  8
DRL
100
AcDbPolyline
 90
        2
 70
     1
 43
12.25
 10
1546.124999999999
 20
8509.993334947282
 42
1.0
 10
1533.875
 20
8509.993334947282
 42
1.0
  0
LWPOLYLINE
  5
11844
330
215
100
AcDbEntity
  8
DRL
100
AcDbPolyline
 90
        2
 70
     1
 43
12.25
 10
1461.125
 20
8509.993334947282
 42
1.0
 10
1448.875
 20
8509.993334947282
 42
1.0
  0
LWPOLYLINE
  5
11846
330
215
100
AcDbEntity
  8
DRL
100
AcDbPolyline
 90
        2
 70
     1
 43
12.25
 10
1376.125
 20
8509.993334947282
 42
1.0
 10
1363.875
 20
8509.993334947282
 42
1.0
  0
LWPOLYLINE
  5
11848
330
215
100
AcDbEntity
  8
DRL
100
AcDbPolyline
 90
        2
 70
     1
 43
12.25
 10
1291.125
 20
8509.993334947282
 42
1.0
 10
1278.875
 20
8509.993334947282
 42
1.0
  0
LWPOLYLINE
  5
11850
330
215
100
AcDbEntity
  8
DRL
100
AcDbPolyline
 90
        2
 70
     1
 43
12.25
 10
1921.124999999999
 20
8609.993334947281
 42
1.0
 10
1908.875
 20
8609.993334947281
 42
1.0
  0
LWPOLYLINE
  5
11852
330
215
100
AcDbEntity
  8
DRL
100
AcDbPolyline
 90
        2
 70
     1
 43
12.25
 10
1836.125
 20
8609.993334947281
 42
1.0
 10
1823.875
 20
8609.993334947281
 42
1.0
  0
LWPOLYLINE
  5
11854
330
215
100
AcDbEntity
  8
DRL
100
AcDbPolyline
 90
        2
 70
     1
 43
12.25
 10
1751.125
 20
8609.993334947281
 42
1.0
 10
1738.875
 20
8609.993334947281
 42
1.0
  0
LWPOLYLINE
  5
11856
330
215
100
AcDbEntity
  8
DRL
100
AcDbPolyline
 90
        2
 70
     1
 43
12.25
 10
1666.125
 20
8609.993334947281
 42
1.0
 10
1653.875
 20
8609.993334947281
 42
1.0
  0
LWPOLYLINE
  5
11858
330
215
100
AcDbEntity
  8
DRL
100
AcDbPolyline
 90
        2
 70
     1
 43
12.25
 10
1546.124999999999
 20
8609.993334947281
 42
1.0
 10
1533.875
 20
8609.993334947281
 42
1.0
  0
LWPOLYLINE
  5
11860
330
215
100
AcDbEntity
  8
DRL
100
AcDbPolyline
 90
        2
 70
     1
 43
12.25
 10
1461.125
 20
8609.993334947281
 42
1.0
 10
1448.875
 20
8609.993334947281
 42
1.0
  0
LWPOLYLINE
  5
11862
330
215
100
AcDbEntity
  8
DRL
100
AcDbPolyline
 90
        2
 70
     1
 43
12.25
 10
1376.125
 20
8209.993334947283
 42
1.0
 10
1363.875
 20
8209.993334947283
 42
1.0
  0
LWPOLYLINE
  5
11864
330
215
100
AcDbEntity
  8
DRL
100
AcDbPolyline
 90
        2
 70
     1
 43
12.25
 10
1291.125
 20
8209.993334947283
 42
1.0
 10
1278.875
 20
8209.993334947283
 42
1.0
  0
LWPOLYLINE
  5
11866
330
215
100
AcDbEntity
  8
DRL
100
AcDbPolyline
 90
        2
 70
     1
 43
12.25
 10
1921.124999999999
 20
8009.993334947282
 42
1.0
 10
1908.875
 20
8009.993334947282
 42
1.0
  0
LWPOLYLINE
  5
11868
330
215
100
AcDbEntity
  8
DRL
100
AcDbPolyline
 90
        2
 70
     1
 43
12.25
 10
1836.125
 20
8009.993334947282
 42
1.0
 10
1823.875
 20
8009.993334947282
 42
1.0
  0
LWPOLYLINE
  5
11870
330
215
100
AcDbEntity
  8
DRL
100
AcDbPolyline
 90
        2
 70
     1
 43
12.25
 10
1751.125
 20
8009.993334947282
 42
1.0
 10
1738.875
 20
8009.993334947282
 42
1.0
  0
LWPOLYLINE
  5
11872
330
215
100
AcDbEntity
  8
DRL
100
AcDbPolyline
 90
        2
 70
     1
 43
12.25
 10
1666.125
 20
8009.993334947282
 42
1.0
 10
1653.875
 20
8009.993334947282
 42
1.0
  0
LWPOLYLINE
  5
11874
330
215
100
AcDbEntity
  8
DRL
100
AcDbPolyline
 90
        2
 70
     1
 43
12.25
 10
1546.124999999999
 20
8009.993334947282
 42
1.0
 10
1533.875
 20
8009.993334947282
 42
1.0
  0
LWPOLYLINE
  5
11876
330
215
100
AcDbEntity
  8
DRL
100
AcDbPolyline
 90
        2
 70
     1
 43
12.25
 10
1461.125
 20
8009.993334947282
 42
1.0
 10
1448.875
 20
8009.993334947282
 42
1.0
  0
LWPOLYLINE
  5
11878
330
215
100
AcDbEntity
  8
DRL
100
AcDbPolyline
 90
        2
 70
     1
 43
12.25
 10
1376.125
 20
8009.993334947282
 42
1.0
 10
1363.875
 20
8009.993334947282
 42
1.0
  0
LWPOLYLINE
  5
11880
330
215
100
AcDbEntity
  8
DRL
100
AcDbPolyline
 90
        2
 70
     1
 43
12.25
 10
1291.125
 20
8009.993334947282
 42
1.0
 10
1278.875
 20
8009.993334947282
 42
1.0
  0
LWPOLYLINE
  5
11882
330
215
100
AcDbEntity
  8
DRL
100
AcDbPolyline
 90
        2
 70
     1
 43
12.25
 10
1921.124999999999
 20
8109.993334947281
 42
1.0
 10
1908.875
 20
8109.993334947281
 42
1.0
  0
LWPOLYLINE
  5
11884
330
215
100
AcDbEntity
  8
DRL
100
AcDbPolyline
 90
        2
 70
     1
 43
12.25
 10
1836.125
 20
8109.993334947281
 42
1.0
 10
1823.875
 20
8109.993334947281
 42
1.0
  0
LWPOLYLINE
  5
11886
330
215
100
AcDbEntity
  8
DRL
100
AcDbPolyline
 90
        2
 70
     1
 43
12.25
 10
1751.125
 20
8109.993334947281
 42
1.0
 10
1738.875
 20
8109.993334947281
 42
1.0
  0
LWPOLYLINE
  5
11888
330
215
100
AcDbEntity
  8
DRL
100
AcDbPolyline
 90
        2
 70
     1
 43
12.25
 10
1666.125
 20
8109.993334947281
 42
1.0
 10
1653.875
 20
8109.993334947281
 42
1.0
  0
LWPOLYLINE
  5
11890
330
215
100
AcDbEntity
  8
DRL
100
AcDbPolyline
 90
        2
 70
     1
 43
12.25
 10
1546.124999999999
 20
8109.993334947281
 42
1.0
 10
1533.875
 20
8109.993334947281
 42
1.0
  0
LWPOLYLINE
  5
11892
330
215
100
AcDbEntity
  8
DRL
100
AcDbPolyline
 90
        2
 70
     1
 43
12.25
 10
1461.125
 20
8109.993334947281
 42
1.0
 10
1448.875
 20
8109.993334947281
 42
1.0
  0
LWPOLYLINE
  5
11894
330
215
100
AcDbEntity
  8
DRL
100
AcDbPolyline
 90
        2
 70
     1
 43
12.25
 10
1376.125
 20
8109.993334947281
 42
1.0
 10
1363.875
 20
8109.993334947281
 42
1.0
  0
LWPOLYLINE
  5
11896
330
215
100
AcDbEntity
  8
DRL
100
AcDbPolyline
 90
        2
 70
     1
 43
12.25
 10
1291.125
 20
8109.993334947281
 42
1.0
 10
1278.875
 20
8109.993334947281
 42
1.0
  0
LWPOLYLINE
  5
11898
330
215
100
AcDbEntity
  8
DRL
100
AcDbPolyline
 90
        2
 70
     1
 43
12.25
 10
1921.124999999999
 20
8209.993334947283
 42
1.0
 10
1908.875
 20
8209.993334947283
 42
1.0
  0
LWPOLYLINE
  5
11900
330
215
100
AcDbEntity
  8
DRL
100
AcDbPolyline
 90
        2
 70
     1
 43
12.25
 10
1836.125
 20
8209.993334947283
 42
1.0
 10
1823.875
 20
8209.993334947283
 42
1.0
  0
LWPOLYLINE
  5
11902
330
215
100
AcDbEntity
  8
DRL
100
AcDbPolyline
 90
        2
 70
     1
 43
12.25
 10
1751.125
 20
8209.993334947283
 42
1.0
 10
1738.875
 20
8209.993334947283
 42
1.0
  0
LWPOLYLINE
  5
11904
330
215
100
AcDbEntity
  8
DRL
100
AcDbPolyline
 90
        2
 70
     1
 43
12.25
 10
1666.125
 20
8209.993334947283
 42
1.0
 10
1653.875
 20
8209.993334947283
 42
1.0
  0
LWPOLYLINE
  5
11906
330
215
100
AcDbEntity
  8
DRL
100
AcDbPolyline
 90
        2
 70
     1
 43
12.25
 10
1546.124999999999
 20
8209.993334947283
 42
1.0
 10
1533.875
 20
8209.993334947283
 42
1.0
  0
LWPOLYLINE
  5
11908
330
215
100
AcDbEntity
  8
DRL
100
AcDbPolyline
 90
        2
 70
     1
 43
12.25
 10
1461.125
 20
8209.993334947283
 42
1.0
 10
1448.875
 20
8209.993334947283
 42
1.0
  0
LWPOLYLINE
  5
11910
330
215
100
AcDbEntity
  8
DRL
100
AcDbPolyline
 90
        2
 70
     1
 43
12.25
 10
1376.125
 20
7809.993334947282
 42
1.0
 10
1363.875
 20
7809.993334947282
 42
1.0
  0
LWPOLYLINE
  5
11912
330
215
100
AcDbEntity
  8
DRL
100
AcDbPolyline
 90
        2
 70
     1
 43
12.25
 10
1291.125
 20
7809.993334947282
 42
1.0
 10
1278.875
 20
7809.993334947282
 42
1.0
  0
LWPOLYLINE
  5
11914
330
215
100
AcDbEntity
  8
DRL
100
AcDbPolyline
 90
        2
 70
     1
 43
12.25
 10
1921.124999999999
 20
7609.993334947282
 42
1.0
 10
1908.875
 20
7609.993334947282
 42
1.0
  0
LWPOLYLINE
  5
11916
330
215
100
AcDbEntity
  8
DRL
100
AcDbPolyline
 90
        2
 70
     1
 43
12.25
 10
1836.125
 20
7609.993334947282
 42
1.0
 10
1823.875
 20
7609.993334947282
 42
1.0
  0
LWPOLYLINE
  5
11918
330
215
100
AcDbEntity
  8
DRL
100
AcDbPolyline
 90
        2
 70
     1
 43
12.25
 10
1751.125
 20
7609.993334947282
 42
1.0
 10
1738.875
 20
7609.993334947282
 42
1.0
  0
LWPOLYLINE
  5
11920
330
215
100
AcDbEntity
  8
DRL
100
AcDbPolyline
 90
        2
 70
     1
 43
12.25
 10
1666.125
 20
7609.993334947282
 42
1.0
 10
1653.875
 20
7609.993334947282
 42
1.0
  0
LWPOLYLINE
  5
11922
330
215
100
AcDbEntity
  8
DRL
100
AcDbPolyline
 90
        2
 70
     1
 43
12.25
 10
1546.124999999999
 20
7609.993334947282
 42
1.0
 10
1533.875
 20
7609.993334947282
 42
1.0
  0
LWPOLYLINE
  5
11924
330
215
100
AcDbEntity
  8
DRL
100
AcDbPolyline
 90
        2
 70
     1
 43
12.25
 10
1461.125
 20
7609.993334947282
 42
1.0
 10
1448.875
 20
7609.993334947282
 42
1.0
  0
LWPOLYLINE
  5
11926
330
215
100
AcDbEntity
  8
DRL
100
AcDbPolyline
 90
        2
 70
     1
 43
12.25
 10
1376.125
 20
7609.993334947282
 42
1.0
 10
1363.875
 20
7609.993334947282
 42
1.0
  0
LWPOLYLINE
  5
11928
330
215
100
AcDbEntity
  8
DRL
100
AcDbPolyline
 90
        2
 70
     1
 43
12.25
 10
1291.125
 20
7609.993334947282
 42
1.0
 10
1278.875
 20
7609.993334947282
 42
1.0
  0
LWPOLYLINE
  5
11930
330
215
100
AcDbEntity
  8
DRL
100
AcDbPolyline
 90
        2
 70
     1
 43
12.25
 10
1921.124999999999
 20
7709.993334947282
 42
1.0
 10
1908.875
 20
7709.993334947282
 42
1.0
  0
LWPOLYLINE
  5
11932
330
215
100
AcDbEntity
  8
DRL
100
AcDbPolyline
 90
        2
 70
     1
 43
12.25
 10
1836.125
 20
7709.993334947282
 42
1.0
 10
1823.875
 20
7709.993334947282
 42
1.0
  0
LWPOLYLINE
  5
11934
330
215
100
AcDbEntity
  8
DRL
100
AcDbPolyline
 90
        2
 70
     1
 43
12.25
 10
1751.125
 20
7709.993334947282
 42
1.0
 10
1738.875
 20
7709.993334947282
 42
1.0
  0
LWPOLYLINE
  5
11936
330
215
100
AcDbEntity
  8
DRL
100
AcDbPolyline
 90
        2
 70
     1
 43
12.25
 10
1666.125
 20
7709.993334947282
 42
1.0
 10
1653.875
 20
7709.993334947282
 42
1.0
  0
LWPOLYLINE
  5
11938
330
215
100
AcDbEntity
  8
DRL
100
AcDbPolyline
 90
        2
 70
     1
 43
12.25
 10
1546.124999999999
 20
7709.993334947282
 42
1.0
 10
1533.875
 20
7709.993334947282
 42
1.0
  0
LWPOLYLINE
  5
11940
330
215
100
AcDbEntity
  8
DRL
100
AcDbPolyline
 90
        2
 70
     1
 43
12.25
 10
1461.125
 20
7709.993334947282
 42
1.0
 10
1448.875
 20
7709.993334947282
 42
1.0
  0
LWPOLYLINE
  5
11942
330
215
100
AcDbEntity
  8
DRL
100
AcDbPolyline
 90
        2
 70
     1
 43
12.25
 10
1376.125
 20
7709.993334947282
 42
1.0
 10
1363.875
 20
7709.993334947282
 42
1.0
  0
LWPOLYLINE
  5
11944
330
215
100
AcDbEntity
  8
DRL
100
AcDbPolyline
 90
        2
 70
     1
 43
12.25
 10
1291.125
 20
7709.993334947282
 42
1.0
 10
1278.875
 20
7709.993334947282
 42
1.0
  0
LWPOLYLINE
  5
11946
330
215
100
AcDbEntity
  8
DRL
100
AcDbPolyline
 90
        2
 70
     1
 43
12.25
 10
1921.124999999999
 20
7809.993334947282
 42
1.0
 10
1908.875
 20
7809.993334947282
 42
1.0
  0
LWPOLYLINE
  5
11948
330
215
100
AcDbEntity
  8
DRL
100
AcDbPolyline
 90
        2
 70
     1
 43
12.25
 10
1836.125
 20
7809.993334947282
 42
1.0
 10
1823.875
 20
7809.993334947282
 42
1.0
  0
LWPOLYLINE
  5
11950
330
215
100
AcDbEntity
  8
DRL
100
AcDbPolyline
 90
        2
 70
     1
 43
12.25
 10
1751.125
 20
7809.993334947282
 42
1.0
 10
1738.875
 20
7809.993334947282
 42
1.0
  0
LWPOLYLINE
  5
11952
330
215
100
AcDbEntity
  8
DRL
100
AcDbPolyline
 90
        2
 70
     1
 43
12.25
 10
1666.125
 20
7809.993334947282
 42
1.0
 10
1653.875
 20
7809.993334947282
 42
1.0
  0
LWPOLYLINE
  5
11954
330
215
100
AcDbEntity
  8
DRL
100
AcDbPolyline
 90
        2
 70
     1
 43
12.25
 10
1546.124999999999
 20
7809.993334947282
 42
1.0
 10
1533.875
 20
7809.993334947282
 42
1.0
  0
LWPOLYLINE
  5
11956
330
215
100
AcDbEntity
  8
DRL
100
AcDbPolyline
 90
        2
 70
     1
 43
12.25
 10
1461.125
 20
7809.993334947282
 42
1.0
 10
1448.875
 20
7809.993334947282
 42
1.0
  0
LWPOLYLINE
  5
11958
330
215
100
AcDbEntity
  8
DRL
100
AcDbPolyline
 90
        2
 70
     1
 43
12.25
 10
1376.125
 20
7406.493334947281
 42
1.0
 10
1363.875
 20
7406.493334947281
 42
1.0
  0
LWPOLYLINE
  5
11960
330
215
100
AcDbEntity
  8
DRL
100
AcDbPolyline
 90
        2
 70
     1
 43
12.25
 10
1291.125
 20
7406.493334947281
 42
1.0
 10
1278.875
 20
7406.493334947281
 42
1.0
  0
LWPOLYLINE
  5
11962
330
215
100
AcDbEntity
  8
DRL
100
AcDbPolyline
 90
        2
 70
     1
 43
12.25
 10
1921.124999999999
 20
7206.493334947281
 42
1.0
 10
1908.875
 20
7206.493334947281
 42
1.0
  0
LWPOLYLINE
  5
11964
330
215
100
AcDbEntity
  8
DRL
100
AcDbPolyline
 90
        2
 70
     1
 43
12.25
 10
1836.125
 20
7206.493334947281
 42
1.0
 10
1823.875
 20
7206.493334947281
 42
1.0
  0
LWPOLYLINE
  5
11966
330
215
100
AcDbEntity
  8
DRL
100
AcDbPolyline
 90
        2
 70
     1
 43
12.25
 10
1751.125
 20
7206.493334947281
 42
1.0
 10
1738.875
 20
7206.493334947281
 42
1.0
  0
LWPOLYLINE
  5
11968
330
215
100
AcDbEntity
  8
DRL
100
AcDbPolyline
 90
        2
 70
     1
 43
12.25
 10
1666.125
 20
7206.493334947281
 42
1.0
 10
1653.875
 20
7206.493334947281
 42
1.0
  0
LWPOLYLINE
  5
11970
330
215
100
AcDbEntity
  8
DRL
100
AcDbPolyline
 90
        2
 70
     1
 43
12.25
 10
1546.124999999999
 20
7206.493334947281
 42
1.0
 10
1533.875
 20
7206.493334947281
 42
1.0
  0
LWPOLYLINE
  5
11972
330
215
100
AcDbEntity
  8
DRL
100
AcDbPolyline
 90
        2
 70
     1
 43
12.25
 10
1461.125
 20
7206.493334947281
 42
1.0
 10
1448.875
 20
7206.493334947281
 42
1.0
  0
LWPOLYLINE
  5
11974
330
215
100
AcDbEntity
  8
DRL
100
AcDbPolyline
 90
        2
 70
     1
 43
12.25
 10
1376.125
 20
7206.493334947281
 42
1.0
 10
1363.875
 20
7206.493334947281
 42
1.0
  0
LWPOLYLINE
  5
11976
330
215
100
AcDbEntity
  8
DRL
100
AcDbPolyline
 90
        2
 70
     1
 43
12.25
 10
1291.125
 20
7206.493334947281
 42
1.0
 10
1278.875
 20
7206.493334947281
 42
1.0
  0
LWPOLYLINE
  5
11978
330
215
100
AcDbEntity
  8
DRL
100
AcDbPolyline
 90
        2
 70
     1
 43
12.25
 10
1921.124999999999
 20
7306.493334947281
 42
1.0
 10
1908.875
 20
7306.493334947281
 42
1.0
  0
LWPOLYLINE
  5
11980
330
215
100
AcDbEntity
  8
DRL
100
AcDbPolyline
 90
        2
 70
     1
 43
12.25
 10
1836.125
 20
7306.493334947281
 42
1.0
 10
1823.875
 20
7306.493334947281
 42
1.0
  0
LWPOLYLINE
  5
11982
330
215
100
AcDbEntity
  8
DRL
100
AcDbPolyline
 90
        2
 70
     1
 43
12.25
 10
1751.125
 20
7306.493334947281
 42
1.0
 10
1738.875
 20
7306.493334947281
 42
1.0
  0
LWPOLYLINE
  5
11984
330
215
100
AcDbEntity
  8
DRL
100
AcDbPolyline
 90
        2
 70
     1
 43
12.25
 10
1666.125
 20
7306.493334947281
 42
1.0
 10
1653.875
 20
7306.493334947281
 42
1.0
  0
LWPOLYLINE
  5
11986
330
215
100
AcDbEntity
  8
DRL
100
AcDbPolyline
 90
        2
 70
     1
 43
12.25
 10
1546.124999999999
 20
7306.493334947281
 42
1.0
 10
1533.875
 20
7306.493334947281
 42
1.0
  0
LWPOLYLINE
  5
11988
330
215
100
AcDbEntity
  8
DRL
100
AcDbPolyline
 90
        2
 70
     1
 43
12.25
 10
1461.125
 20
7306.493334947281
 42
1.0
 10
1448.875
 20
7306.493334947281
 42
1.0
  0
LWPOLYLINE
  5
11990
330
215
100
AcDbEntity
  8
DRL
100
AcDbPolyline
 90
        2
 70
     1
 43
12.25
 10
1376.125
 20
7306.493334947281
 42
1.0
 10
1363.875
 20
7306.493334947281
 42
1.0
  0
LWPOLYLINE
  5
11992
330
215
100
AcDbEntity
  8
DRL
100
AcDbPolyline
 90
        2
 70
     1
 43
12.25
 10
1291.125
 20
7306.493334947281
 42
1.0
 10
1278.875
 20
7306.493334947281
 42
1.0
  0
LWPOLYLINE
  5
11994
330
215
100
AcDbEntity
  8
DRL
100
AcDbPolyline
 90
        2
 70
     1
 43
12.25
 10
1921.124999999999
 20
7406.493334947281
 42
1.0
 10
1908.875
 20
7406.493334947281
 42
1.0
  0
LWPOLYLINE
  5
11996
330
215
100
AcDbEntity
  8
DRL
100
AcDbPolyline
 90
        2
 70
     1
 43
12.25
 10
1836.125
 20
7406.493334947281
 42
1.0
 10
1823.875
 20
7406.493334947281
 42
1.0
  0
LWPOLYLINE
  5
11998
330
215
100
AcDbEntity
  8
DRL
100
AcDbPolyline
 90
        2
 70
     1
 43
12.25
 10
1751.125
 20
7406.493334947281
 42
1.0
 10
1738.875
 20
7406.493334947281
 42
1.0
  0
LWPOLYLINE
  5
12000
330
215
100
AcDbEntity
  8
DRL
100
AcDbPolyline
 90
        2
 70
     1
 43
12.25
 10
1666.125
 20
7406.493334947281
 42
1.0
 10
1653.875
 20
7406.493334947281
 42
1.0
  0
LWPOLYLINE
  5
12002
330
215
100
AcDbEntity
  8
DRL
100
AcDbPolyline
 90
        2
 70
     1
 43
12.25
 10
1546.124999999999
 20
7406.493334947281
 42
1.0
 10
1533.875
 20
7406.493334947281
 42
1.0
  0
LWPOLYLINE
  5
12004
330
215
100
AcDbEntity
  8
DRL
100
AcDbPolyline
 90
        2
 70
     1
 43
12.25
 10
1461.125
 20
7406.493334947281
 42
1.0
 10
1448.875
 20
7406.493334947281
 42
1.0
  0
LWPOLYLINE
  5
12006
330
215
100
AcDbEntity
  8
DRL
100
AcDbPolyline
 90
        2
 70
     1
 43
12.25
 10
3563.625
 20
7604.468334947282
 42
1.0
 10
3551.375
 20
7604.468334947282
 42
1.0
  0
LWPOLYLINE
  5
12008
330
215
100
AcDbEntity
  8
DRL
100
AcDbPolyline
 90
        2
 70
     1
 43
12.25
 10
3648.625
 20
7615.518334947282
 42
1.0
 10
3636.375
 20
7615.518334947282
 42
1.0
  0
LWPOLYLINE
  5
12010
330
215
100
AcDbEntity
  8
DRL
100
AcDbPolyline
 90
        2
 70
     1
 43
12.25
 10
3733.624999999998
 20
7626.568334947281
 42
1.0
 10
3721.375
 20
7626.568334947281
 42
1.0
  0
LWPOLYLINE
  5
12012
330
215
100
AcDbEntity
  8
DRL
100
AcDbPolyline
 90
        2
 70
     1
 43
12.25
 10
3818.625
 20
7637.618334947281
 42
1.0
 10
3806.375
 20
7637.618334947281
 42
1.0
  0
LWPOLYLINE
  5
12014
330
215
100
AcDbEntity
  8
DRL
100
AcDbPolyline
 90
        2
 70
     1
 43
12.25
 10
3393.625
 20
7482.368334947281
 42
1.0
 10
3381.375
 20
7482.368334947281
 42
1.0
  0
LWPOLYLINE
  5
12016
330
215
100
AcDbEntity
  8
DRL
100
AcDbPolyline
 90
        2
 70
     1
 43
12.25
 10
3478.625
 20
7493.418334947282
 42
1.0
 10
3466.375
 20
7493.418334947282
 42
1.0
  0
LWPOLYLINE
  5
12018
330
215
100
AcDbEntity
  8
DRL
100
AcDbPolyline
 90
        2
 70
     1
 43
12.25
 10
3563.625
 20
7504.468334947282
 42
1.0
 10
3551.375
 20
7504.468334947282
 42
1.0
  0
LWPOLYLINE
  5
12020
330
215
100
AcDbEntity
  8
DRL
100
AcDbPolyline
 90
        2
 70
     1
 43
12.25
 10
3648.625
 20
7515.51833494728
 42
1.0
 10
3636.375
 20
7515.51833494728
 42
1.0
  0
LWPOLYLINE
  5
12022
330
215
100
AcDbEntity
  8
DRL
100
AcDbPolyline
 90
        2
 70
     1
 43
12.25
 10
3733.624999999998
 20
7526.568334947281
 42
1.0
 10
3721.375
 20
7526.568334947281
 42
1.0
  0
LWPOLYLINE
  5
12024
330
215
100
AcDbEntity
  8
DRL
100
AcDbPolyline
 90
        2
 70
     1
 43
12.25
 10
3818.625
 20
7537.618334947281
 42
1.0
 10
3806.375
 20
7537.618334947281
 42
1.0
  0
LWPOLYLINE
  5
12026
330
215
100
AcDbEntity
  8
DRL
100
AcDbPolyline
 90
        2
 70
     1
 43
12.25
 10
3393.625
 20
7382.368334947281
 42
1.0
 10
3381.375
 20
7382.368334947281
 42
1.0
  0
LWPOLYLINE
  5
12028
330
215
100
AcDbEntity
  8
DRL
100
AcDbPolyline
 90
        2
 70
     1
 43
12.25
 10
3478.625
 20
7393.418334947281
 42
1.0
 10
3466.375
 20
7393.418334947281
 42
1.0
  0
LWPOLYLINE
  5
12030
330
215
100
AcDbEntity
  8
DRL
100
AcDbPolyline
 90
        2
 70
     1
 43
12.25
 10
3563.625
 20
7404.468334947281
 42
1.0
 10
3551.375
 20
7404.468334947281
 42
1.0
  0
LWPOLYLINE
  5
12032
330
215
100
AcDbEntity
  8
DRL
100
AcDbPolyline
 90
        2
 70
     1
 43
12.25
 10
3648.625
 20
7415.518334947282
 42
1.0
 10
3636.375
 20
7415.518334947282
 42
1.0
  0
LWPOLYLINE
  5
12034
330
215
100
AcDbEntity
  8
DRL
100
AcDbPolyline
 90
        2
 70
     1
 43
12.25
 10
3733.624999999998
 20
7426.568334947281
 42
1.0
 10
3721.375
 20
7426.568334947281
 42
1.0
  0
LWPOLYLINE
  5
12036
330
215
100
AcDbEntity
  8
DRL
100
AcDbPolyline
 90
        2
 70
     1
 43
12.25
 10
3818.625
 20
7437.618334947281
 42
1.0
 10
3806.375
 20
7437.618334947281
 42
1.0
  0
LWPOLYLINE
  5
12038
330
215
100
AcDbEntity
  8
DRL
100
AcDbPolyline
 90
        2
 70
     1
 43
12.25
 10
3393.625
 20
7582.36833494728
 42
1.0
 10
3381.375
 20
7582.36833494728
 42
1.0
  0
LWPOLYLINE
  5
12040
330
215
100
AcDbEntity
  8
DRL
100
AcDbPolyline
 90
        2
 70
     1
 43
12.25
 10
3478.625
 20
7593.418334947282
 42
1.0
 10
3466.375
 20
7593.418334947282
 42
1.0
  0
LWPOLYLINE
  5
12042
330
215
100
AcDbEntity
  8
DRL
100
AcDbPolyline
 90
        2
 70
     1
 43
12.25
 10
3648.625
 20
9065.518334947281
 42
1.0
 10
3636.375
 20
9065.518334947281
 42
1.0
  0
LWPOLYLINE
  5
12044
330
215
100
AcDbEntity
  8
DRL
100
AcDbPolyline
 90
        2
 70
     1
 43
12.25
 10
3733.624999999998
 20
9076.56833494728
 42
1.0
 10
3721.375
 20
9076.56833494728
 42
1.0
  0
LWPOLYLINE
  5
12046
330
215
100
AcDbEntity
  8
DRL
100
AcDbPolyline
 90
        2
 70
     1
 43
12.25
 10
3478.625
 20
8943.41833494728
 42
1.0
 10
3466.375
 20
8943.41833494728
 42
1.0
  0
LWPOLYLINE
  5
12048
330
215
100
AcDbEntity
  8
DRL
100
AcDbPolyline
 90
        2
 70
     1
 43
12.25
 10
3563.625
 20
8954.468334947282
 42
1.0
 10
3551.375
 20
8954.468334947282
 42
1.0
  0
LWPOLYLINE
  5
12050
330
215
100
AcDbEntity
  8
DRL
100
AcDbPolyline
 90
        2
 70
     1
 43
12.25
 10
3648.625
 20
8965.518334947281
 42
1.0
 10
3636.375
 20
8965.518334947281
 42
1.0
  0
LWPOLYLINE
  5
12052
330
215
100
AcDbEntity
  8
DRL
100
AcDbPolyline
 90
        2
 70
     1
 43
12.25
 10
3733.624999999998
 20
8976.568334947282
 42
1.0
 10
3721.375
 20
8976.568334947282
 42
1.0
  0
LWPOLYLINE
  5
12054
330
215
100
AcDbEntity
  8
DRL
100
AcDbPolyline
 90
        2
 70
     1
 43
12.25
 10
3478.625
 20
8843.41833494728
 42
1.0
 10
3466.375
 20
8843.41833494728
 42
1.0
  0
LWPOLYLINE
  5
12056
330
215
100
AcDbEntity
  8
DRL
100
AcDbPolyline
 90
        2
 70
     1
 43
12.25
 10
3563.625
 20
8854.468334947283
 42
1.0
 10
3551.375
 20
8854.468334947283
 42
1.0
  0
LWPOLYLINE
  5
12058
330
215
100
AcDbEntity
  8
DRL
100
AcDbPolyline
 90
        2
 70
     1
 43
12.25
 10
3648.625
 20
8865.51833494728
 42
1.0
 10
3636.375
 20
8865.51833494728
 42
1.0
  0
LWPOLYLINE
  5
12060
330
215
100
AcDbEntity
  8
DRL
100
AcDbPolyline
 90
        2
 70
     1
 43
12.25
 10
3733.624999999998
 20
8876.568334947283
 42
1.0
 10
3721.375
 20
8876.568334947283
 42
1.0
  0
LWPOLYLINE
  5
12062
330
215
100
AcDbEntity
  8
DRL
100
AcDbPolyline
 90
        2
 70
     1
 43
12.25
 10
3478.625
 20
8743.41833494728
 42
1.0
 10
3466.375
 20
8743.41833494728
 42
1.0
  0
LWPOLYLINE
  5
12064
330
215
100
AcDbEntity
  8
DRL
100
AcDbPolyline
 90
        2
 70
     1
 43
12.25
 10
3563.625
 20
8754.468334947281
 42
1.0
 10
3551.375
 20
8754.468334947281
 42
1.0
  0
LWPOLYLINE
  5
12066
330
215
100
AcDbEntity
  8
DRL
100
AcDbPolyline
 90
        2
 70
     1
 43
12.25
 10
3648.625
 20
8765.51833494728
 42
1.0
 10
3636.375
 20
8765.51833494728
 42
1.0
  0
LWPOLYLINE
  5
12068
330
215
100
AcDbEntity
  8
DRL
100
AcDbPolyline
 90
        2
 70
     1
 43
12.25
 10
3733.624999999998
 20
8776.568334947283
 42
1.0
 10
3721.375
 20
8776.568334947283
 42
1.0
  0
LWPOLYLINE
  5
12070
330
215
100
AcDbEntity
  8
DRL
100
AcDbPolyline
 90
        2
 70
     1
 43
12.25
 10
3478.625
 20
8643.418334947282
 42
1.0
 10
3466.375
 20
8643.418334947282
 42
1.0
  0
LWPOLYLINE
  5
12072
330
215
100
AcDbEntity
  8
DRL
100
AcDbPolyline
 90
        2
 70
     1
 43
12.25
 10
3563.625
 20
8654.46833494728
 42
1.0
 10
3551.375
 20
8654.46833494728
 42
1.0
  0
LWPOLYLINE
  5
12074
330
215
100
AcDbEntity
  8
DRL
100
AcDbPolyline
 90
        2
 70
     1
 43
12.25
 10
3648.625
 20
8665.518334947281
 42
1.0
 10
3636.375
 20
8665.518334947281
 42
1.0
  0
LWPOLYLINE
  5
12076
330
215
100
AcDbEntity
  8
DRL
100
AcDbPolyline
 90
        2
 70
     1
 43
12.25
 10
3733.624999999998
 20
8676.568334947281
 42
1.0
 10
3721.375
 20
8676.568334947281
 42
1.0
  0
LWPOLYLINE
  5
12078
330
215
100
AcDbEntity
  8
DRL
100
AcDbPolyline
 90
        2
 70
     1
 43
12.25
 10
3478.625
 20
8543.418334947283
 42
1.0
 10
3466.375
 20
8543.418334947283
 42
1.0
  0
LWPOLYLINE
  5
12080
330
215
100
AcDbEntity
  8
DRL
100
AcDbPolyline
 90
        2
 70
     1
 43
12.25
 10
3563.625
 20
8554.46833494728
 42
1.0
 10
3551.375
 20
8554.46833494728
 42
1.0
  0
LWPOLYLINE
  5
12082
330
215
100
AcDbEntity
  8
DRL
100
AcDbPolyline
 90
        2
 70
     1
 43
12.25
 10
3648.625
 20
8565.518334947281
 42
1.0
 10
3636.375
 20
8565.518334947281
 42
1.0
  0
LWPOLYLINE
  5
12084
330
215
100
AcDbEntity
  8
DRL
100
AcDbPolyline
 90
        2
 70
     1
 43
12.25
 10
3733.624999999998
 20
8576.56833494728
 42
1.0
 10
3721.375
 20
8576.56833494728
 42
1.0
  0
LWPOLYLINE
  5
12086
330
215
100
AcDbEntity
  8
DRL
100
AcDbPolyline
 90
        2
 70
     1
 43
12.25
 10
3478.625
 20
8443.41833494728
 42
1.0
 10
3466.375
 20
8443.41833494728
 42
1.0
  0
LWPOLYLINE
  5
12088
330
215
100
AcDbEntity
  8
DRL
100
AcDbPolyline
 90
        2
 70
     1
 43
12.25
 10
3563.625
 20
8454.468334947282
 42
1.0
 10
3551.375
 20
8454.468334947282
 42
1.0
  0
LWPOLYLINE
  5
12090
330
215
100
AcDbEntity
  8
DRL
100
AcDbPolyline
 90
        2
 70
     1
 43
12.25
 10
3648.625
 20
8465.518334947281
 42
1.0
 10
3636.375
 20
8465.518334947281
 42
1.0
  0
LWPOLYLINE
  5
12092
330
215
100
AcDbEntity
  8
DRL
100
AcDbPolyline
 90
        2
 70
     1
 43
12.25
 10
3733.624999999998
 20
8476.568334947282
 42
1.0
 10
3721.375
 20
8476.568334947282
 42
1.0
  0
LWPOLYLINE
  5
12094
330
215
100
AcDbEntity
  8
DRL
100
AcDbPolyline
 90
        2
 70
     1
 43
12.25
 10
3478.625
 20
8343.41833494728
 42
1.0
 10
3466.375
 20
8343.41833494728
 42
1.0
  0
LWPOLYLINE
  5
12096
330
215
100
AcDbEntity
  8
DRL
100
AcDbPolyline
 90
        2
 70
     1
 43
12.25
 10
3563.625
 20
8354.468334947283
 42
1.0
 10
3551.375
 20
8354.468334947283
 42
1.0
  0
LWPOLYLINE
  5
12098
330
215
100
AcDbEntity
  8
DRL
100
AcDbPolyline
 90
        2
 70
     1
 43
12.25
 10
3648.625
 20
8365.51833494728
 42
1.0
 10
3636.375
 20
8365.51833494728
 42
1.0
  0
LWPOLYLINE
  5
12100
330
215
100
AcDbEntity
  8
DRL
100
AcDbPolyline
 90
        2
 70
     1
 43
12.25
 10
3733.624999999998
 20
8376.568334947283
 42
1.0
 10
3721.375
 20
8376.568334947283
 42
1.0
  0
LWPOLYLINE
  5
12102
330
215
100
AcDbEntity
  8
DRL
100
AcDbPolyline
 90
        2
 70
     1
 43
12.25
 10
3478.625
 20
8243.41833494728
 42
1.0
 10
3466.375
 20
8243.41833494728
 42
1.0
  0
LWPOLYLINE
  5
12104
330
215
100
AcDbEntity
  8
DRL
100
AcDbPolyline
 90
        2
 70
     1
 43
12.25
 10
3563.625
 20
8254.468334947281
 42
1.0
 10
3551.375
 20
8254.468334947281
 42
1.0
  0
LWPOLYLINE
  5
12106
330
215
100
AcDbEntity
  8
DRL
100
AcDbPolyline
 90
        2
 70
     1
 43
12.25
 10
3648.625
 20
8265.51833494728
 42
1.0
 10
3636.375
 20
8265.51833494728
 42
1.0
  0
LWPOLYLINE
  5
12108
330
215
100
AcDbEntity
  8
DRL
100
AcDbPolyline
 90
        2
 70
     1
 43
12.25
 10
3733.624999999998
 20
8276.568334947283
 42
1.0
 10
3721.375
 20
8276.568334947283
 42
1.0
  0
LWPOLYLINE
  5
12110
330
215
100
AcDbEntity
  8
DRL
100
AcDbPolyline
 90
        2
 70
     1
 43
12.25
 10
3478.625
 20
8143.418334947282
 42
1.0
 10
3466.375
 20
8143.418334947282
 42
1.0
  0
LWPOLYLINE
  5
12112
330
215
100
AcDbEntity
  8
DRL
100
AcDbPolyline
 90
        2
 70
     1
 43
12.25
 10
3563.625
 20
8154.46833494728
 42
1.0
 10
3551.375
 20
8154.46833494728
 42
1.0
  0
LWPOLYLINE
  5
12114
330
215
100
AcDbEntity
  8
DRL
100
AcDbPolyline
 90
        2
 70
     1
 43
12.25
 10
3648.625
 20
8165.518334947282
 42
1.0
 10
3636.375
 20
8165.518334947282
 42
1.0
  0
LWPOLYLINE
  5
12116
330
215
100
AcDbEntity
  8
DRL
100
AcDbPolyline
 90
        2
 70
     1
 43
12.25
 10
3733.624999999998
 20
8176.568334947281
 42
1.0
 10
3721.375
 20
8176.568334947281
 42
1.0
  0
LWPOLYLINE
  5
12118
330
215
100
AcDbEntity
  8
DRL
100
AcDbPolyline
 90
        2
 70
     1
 43
12.25
 10
3478.625
 20
8043.418334947281
 42
1.0
 10
3466.375
 20
8043.418334947281
 42
1.0
  0
LWPOLYLINE
  5
12120
330
215
100
AcDbEntity
  8
DRL
100
AcDbPolyline
 90
        2
 70
     1
 43
12.25
 10
3563.625
 20
8054.46833494728
 42
1.0
 10
3551.375
 20
8054.46833494728
 42
1.0
  0
LWPOLYLINE
  5
12122
330
215
100
AcDbEntity
  8
DRL
100
AcDbPolyline
 90
        2
 70
     1
 43
12.25
 10
3648.625
 20
8065.518334947283
 42
1.0
 10
3636.375
 20
8065.518334947283
 42
1.0
  0
LWPOLYLINE
  5
12124
330
215
100
AcDbEntity
  8
DRL
100
AcDbPolyline
 90
        2
 70
     1
 43
12.25
 10
3733.624999999998
 20
8076.56833494728
 42
1.0
 10
3721.375
 20
8076.56833494728
 42
1.0
  0
LWPOLYLINE
  5
12126
330
215
100
AcDbEntity
  8
DRL
100
AcDbPolyline
 90
        2
 70
     1
 43
12.25
 10
3478.625
 20
7943.418334947281
 42
1.0
 10
3466.375
 20
7943.418334947281
 42
1.0
  0
LWPOLYLINE
  5
12128
330
215
100
AcDbEntity
  8
DRL
100
AcDbPolyline
 90
        2
 70
     1
 43
12.25
 10
3563.625
 20
7954.46833494728
 42
1.0
 10
3551.375
 20
7954.46833494728
 42
1.0
  0
LWPOLYLINE
  5
12130
330
215
100
AcDbEntity
  8
DRL
100
AcDbPolyline
 90
        2
 70
     1
 43
12.25
 10
3648.625
 20
7965.51833494728
 42
1.0
 10
3636.375
 20
7965.51833494728
 42
1.0
  0
LWPOLYLINE
  5
12132
330
215
100
AcDbEntity
  8
DRL
100
AcDbPolyline
 90
        2
 70
     1
 43
12.25
 10
3733.624999999998
 20
7976.56833494728
 42
1.0
 10
3721.375
 20
7976.56833494728
 42
1.0
  0
LWPOLYLINE
  5
12134
330
215
100
AcDbEntity
  8
DRL
100
AcDbPolyline
 90
        2
 70
     1
 43
12.25
 10
3478.625
 20
7843.418334947282
 42
1.0
 10
3466.375
 20
7843.418334947282
 42
1.0
  0
LWPOLYLINE
  5
12136
330
215
100
AcDbEntity
  8
DRL
100
AcDbPolyline
 90
        2
 70
     1
 43
12.25
 10
3563.625
 20
7854.468334947282
 42
1.0
 10
3551.375
 20
7854.468334947282
 42
1.0
  0
LWPOLYLINE
  5
12138
330
215
100
AcDbEntity
  8
DRL
100
AcDbPolyline
 90
        2
 70
     1
 43
12.25
 10
3648.625
 20
7865.518334947282
 42
1.0
 10
3636.375
 20
7865.518334947282
 42
1.0
  0
LWPOLYLINE
  5
12140
330
215
100
AcDbEntity
  8
DRL
100
AcDbPolyline
 90
        2
 70
     1
 43
12.25
 10
3733.624999999998
 20
7876.568334947281
 42
1.0
 10
3721.375
 20
7876.568334947281
 42
1.0
  0
LWPOLYLINE
  5
12142
330
215
100
AcDbEntity
  8
DRL
100
AcDbPolyline
 90
        2
 70
     1
 43
12.25
 10
3478.625
 20
7743.418334947282
 42
1.0
 10
3466.375
 20
7743.418334947282
 42
1.0
  0
LWPOLYLINE
  5
12144
330
215
100
AcDbEntity
  8
DRL
100
AcDbPolyline
 90
        2
 70
     1
 43
12.25
 10
3563.625
 20
7754.468334947282
 42
1.0
 10
3551.375
 20
7754.468334947282
 42
1.0
  0
LWPOLYLINE
  5
12146
330
215
100
AcDbEntity
  8
DRL
100
AcDbPolyline
 90
        2
 70
     1
 43
12.25
 10
3648.625
 20
7765.51833494728
 42
1.0
 10
3636.375
 20
7765.51833494728
 42
1.0
  0
LWPOLYLINE
  5
12148
330
215
100
AcDbEntity
  8
DRL
100
AcDbPolyline
 90
        2
 70
     1
 43
12.25
 10
3733.624999999998
 20
7776.568334947281
 42
1.0
 10
3721.375
 20
7776.568334947281
 42
1.0
  0
LWPOLYLINE
  5
12150
330
215
100
AcDbEntity
  8
DRL
100
AcDbPolyline
 90
        2
 70
     1
 43
12.25
 10
3478.625
 20
9043.418334947281
 42
1.0
 10
3466.375
 20
9043.418334947281
 42
1.0
  0
LWPOLYLINE
  5
12152
330
215
100
AcDbEntity
  8
DRL
100
AcDbPolyline
 90
        2
 70
     1
 43
12.25
 10
3563.625
 20
9054.46833494728
 42
1.0
 10
3551.375
 20
9054.46833494728
 42
1.0
  0
LWPOLYLINE
  5
12154
330
215
100
AcDbEntity
  8
DRL
100
AcDbPolyline
 90
        2
 70
     1
 43
12.25
 10
3563.625
 20
9404.46833494728
 42
1.0
 10
3551.375
 20
9404.46833494728
 42
1.0
  0
LWPOLYLINE
  5
12156
330
215
100
AcDbEntity
  8
DRL
100
AcDbPolyline
 90
        2
 70
     1
 43
12.25
 10
3648.625
 20
9415.518334947281
 42
1.0
 10
3636.375
 20
9415.518334947281
 42
1.0
  0
LWPOLYLINE
  5
12158
330
215
100
AcDbEntity
  8
DRL
100
AcDbPolyline
 90
        2
 70
     1
 43
12.25
 10
3733.624999999998
 20
9426.568334947281
 42
1.0
 10
3721.375
 20
9426.568334947281
 42
1.0
  0
LWPOLYLINE
  5
12160
330
215
100
AcDbEntity
  8
DRL
100
AcDbPolyline
 90
        2
 70
     1
 43
12.25
 10
3818.625
 20
9437.618334947279
 42
1.0
 10
3806.375
 20
9437.618334947279
 42
1.0
  0
LWPOLYLINE
  5
12162
330
215
100
AcDbEntity
  8
DRL
100
AcDbPolyline
 90
        2
 70
     1
 43
12.25
 10
3393.625
 20
9282.368334947282
 42
1.0
 10
3381.375
 20
9282.368334947282
 42
1.0
  0
LWPOLYLINE
  5
12164
330
215
100
AcDbEntity
  8
DRL
100
AcDbPolyline
 90
        2
 70
     1
 43
12.25
 10
3478.625
 20
9293.418334947281
 42
1.0
 10
3466.375
 20
9293.418334947281
 42
1.0
  0
LWPOLYLINE
  5
12166
330
215
100
AcDbEntity
  8
DRL
100
AcDbPolyline
 90
        2
 70
     1
 43
12.25
 10
3563.625
 20
9304.46833494728
 42
1.0
 10
3551.375
 20
9304.46833494728
 42
1.0
  0
LWPOLYLINE
  5
12168
330
215
100
AcDbEntity
  8
DRL
100
AcDbPolyline
 90
        2
 70
     1
 43
12.25
 10
3648.625
 20
9315.518334947281
 42
1.0
 10
3636.375
 20
9315.518334947281
 42
1.0
  0
LWPOLYLINE
  5
12170
330
215
100
AcDbEntity
  8
DRL
100
AcDbPolyline
 90
        2
 70
     1
 43
12.25
 10
3733.624999999998
 20
9326.56833494728
 42
1.0
 10
3721.375
 20
9326.56833494728
 42
1.0
  0
LWPOLYLINE
  5
12172
330
215
100
AcDbEntity
  8
DRL
100
AcDbPolyline
 90
        2
 70
     1
 43
12.25
 10
3818.625
 20
9337.618334947279
 42
1.0
 10
3806.375
 20
9337.618334947279
 42
1.0
  0
LWPOLYLINE
  5
12174
330
215
100
AcDbEntity
  8
DRL
100
AcDbPolyline
 90
        2
 70
     1
 43
12.25
 10
3393.625
 20
9182.368334947282
 42
1.0
 10
3381.375
 20
9182.368334947282
 42
1.0
  0
LWPOLYLINE
  5
12176
330
215
100
AcDbEntity
  8
DRL
100
AcDbPolyline
 90
        2
 70
     1
 43
12.25
 10
3478.625
 20
9193.41833494728
 42
1.0
 10
3466.375
 20
9193.41833494728
 42
1.0
  0
LWPOLYLINE
  5
12178
330
215
100
AcDbEntity
  8
DRL
100
AcDbPolyline
 90
        2
 70
     1
 43
12.25
 10
3563.625
 20
9204.468334947282
 42
1.0
 10
3551.375
 20
9204.468334947282
 42
1.0
  0
LWPOLYLINE
  5
12180
330
215
100
AcDbEntity
  8
DRL
100
AcDbPolyline
 90
        2
 70
     1
 43
12.25
 10
3648.625
 20
9215.518334947281
 42
1.0
 10
3636.375
 20
9215.518334947281
 42
1.0
  0
LWPOLYLINE
  5
12182
330
215
100
AcDbEntity
  8
DRL
100
AcDbPolyline
 90
        2
 70
     1
 43
12.25
 10
3733.624999999998
 20
9226.56833494728
 42
1.0
 10
3721.375
 20
9226.56833494728
 42
1.0
  0
LWPOLYLINE
  5
12184
330
215
100
AcDbEntity
  8
DRL
100
AcDbPolyline
 90
        2
 70
     1
 43
12.25
 10
3818.625
 20
9237.61833494728
 42
1.0
 10
3806.375
 20
9237.61833494728
 42
1.0
  0
LWPOLYLINE
  5
12186
330
215
100
AcDbEntity
  8
DRL
100
AcDbPolyline
 90
        2
 70
     1
 43
12.25
 10
3393.625
 20
9382.36833494728
 42
1.0
 10
3381.375
 20
9382.36833494728
 42
1.0
  0
LWPOLYLINE
  5
12188
330
215
100
AcDbEntity
  8
DRL
100
AcDbPolyline
 90
        2
 70
     1
 43
12.25
 10
3478.625
 20
9393.418334947281
 42
1.0
 10
3466.375
 20
9393.418334947281
 42
1.0
  0
LWPOLYLINE
  5
12190
330
215
100
AcDbEntity
  8
DRL
100
AcDbPolyline
 90
        2
 70
     1
 43
12.25
 10
5393.625
 20
9589.993334947282
 42
1.0
 10
5381.375
 20
9589.993334947282
 42
1.0
  0
LWPOLYLINE
  5
12192
330
215
100
AcDbEntity
  8
DRL
100
AcDbPolyline
 90
        2
 70
     1
 43
12.25
 10
5308.625
 20
9589.993334947282
 42
1.0
 10
5296.375000000001
 20
9589.993334947282
 42
1.0
  0
LWPOLYLINE
  5
12194
330
215
100
AcDbEntity
  8
DRL
100
AcDbPolyline
 90
        2
 70
     1
 43
12.25
 10
5903.625
 20
9589.993334947282
 42
1.0
 10
5891.375
 20
9589.993334947282
 42
1.0
  0
LWPOLYLINE
  5
12196
330
215
100
AcDbEntity
  8
DRL
100
AcDbPolyline
 90
        2
 70
     1
 43
12.25
 10
5818.625
 20
9589.993334947282
 42
1.0
 10
5806.375
 20
9589.993334947282
 42
1.0
  0
LWPOLYLINE
  5
12198
330
215
100
AcDbEntity
  8
DRL
100
AcDbPolyline
 90
        2
 70
     1
 43
12.25
 10
5733.624999999999
 20
9589.993334947282
 42
1.0
 10
5721.375
 20
9589.993334947282
 42
1.0
  0
LWPOLYLINE
  5
12200
330
215
100
AcDbEntity
  8
DRL
100
AcDbPolyline
 90
        2
 70
     1
 43
12.25
 10
5648.625
 20
9589.993334947282
 42
1.0
 10
5636.375000000001
 20
9589.993334947282
 42
1.0
  0
LWPOLYLINE
  5
12202
330
215
100
AcDbEntity
  8
DRL
100
AcDbPolyline
 90
        2
 70
     1
 43
12.25
 10
5563.625
 20
9589.993334947282
 42
1.0
 10
5551.375
 20
9589.993334947282
 42
1.0
  0
LWPOLYLINE
  5
12204
330
215
100
AcDbEntity
  8
DRL
100
AcDbPolyline
 90
        2
 70
     1
 43
12.25
 10
5478.625
 20
9589.993334947282
 42
1.0
 10
5466.375
 20
9589.993334947282
 42
1.0
  0
LWPOLYLINE
  5
12206
330
215
100
AcDbEntity
  8
DRL
100
AcDbPolyline
 90
        2
 70
     1
 43
12.25
 10
5393.625
 20
7029.993334947281
 42
1.0
 10
5381.375
 20
7029.993334947281
 42
1.0
  0
LWPOLYLINE
  5
12208
330
215
100
AcDbEntity
  8
DRL
100
AcDbPolyline
 90
        2
 70
     1
 43
12.25
 10
5308.625
 20
7029.993334947281
 42
1.0
 10
5296.375000000001
 20
7029.993334947281
 42
1.0
  0
LWPOLYLINE
  5
12210
330
215
100
AcDbEntity
  8
DRL
100
AcDbPolyline
 90
        2
 70
     1
 43
12.25
 10
5903.625
 20
7029.993334947281
 42
1.0
 10
5891.375
 20
7029.993334947281
 42
1.0
  0
LWPOLYLINE
  5
12212
330
215
100
AcDbEntity
  8
DRL
100
AcDbPolyline
 90
        2
 70
     1
 43
12.25
 10
5818.625
 20
7029.993334947281
 42
1.0
 10
5806.375
 20
7029.993334947281
 42
1.0
  0
LWPOLYLINE
  5
12214
330
215
100
AcDbEntity
  8
DRL
100
AcDbPolyline
 90
        2
 70
     1
 43
12.25
 10
5733.624999999999
 20
7029.993334947281
 42
1.0
 10
5721.375
 20
7029.993334947281
 42
1.0
  0
LWPOLYLINE
  5
12216
330
215
100
AcDbEntity
  8
DRL
100
AcDbPolyline
 90
        2
 70
     1
 43
12.25
 10
5648.625
 20
7029.993334947281
 42
1.0
 10
5636.375000000001
 20
7029.993334947281
 42
1.0
  0
LWPOLYLINE
  5
12218
330
215
100
AcDbEntity
  8
DRL
100
AcDbPolyline
 90
        2
 70
     1
 43
12.25
 10
5563.625
 20
7029.993334947281
 42
1.0
 10
5551.375
 20
7029.993334947281
 42
1.0
  0
LWPOLYLINE
  5
12220
330
215
100
AcDbEntity
  8
DRL
100
AcDbPolyline
 90
        2
 70
     1
 43
12.25
 10
5478.625
 20
7029.993334947281
 42
1.0
 10
5466.375
 20
7029.993334947281
 42
1.0
  0
LWPOLYLINE
  5
12222
330
215
100
AcDbEntity
  8
DRL
100
AcDbPolyline
 90
        2
 70
     1
 43
12.25
 10
5393.625
 20
9413.493334947281
 42
1.0
 10
5381.375
 20
9413.493334947281
 42
1.0
  0
LWPOLYLINE
  5
12224
330
215
100
AcDbEntity
  8
DRL
100
AcDbPolyline
 90
        2
 70
     1
 43
12.25
 10
5308.625
 20
9413.493334947281
 42
1.0
 10
5296.375000000001
 20
9413.493334947281
 42
1.0
  0
LWPOLYLINE
  5
12226
330
215
100
AcDbEntity
  8
DRL
100
AcDbPolyline
 90
        2
 70
     1
 43
12.25
 10
5903.625
 20
8813.493334947281
 42
1.0
 10
5891.375
 20
8813.493334947281
 42
1.0
  0
LWPOLYLINE
  5
12228
330
215
100
AcDbEntity
  8
DRL
100
AcDbPolyline
 90
        2
 70
     1
 43
12.25
 10
5818.625
 20
8813.493334947281
 42
1.0
 10
5806.375
 20
8813.493334947281
 42
1.0
  0
LWPOLYLINE
  5
12230
330
215
100
AcDbEntity
  8
DRL
100
AcDbPolyline
 90
        2
 70
     1
 43
12.25
 10
5733.624999999999
 20
8813.493334947281
 42
1.0
 10
5721.375
 20
8813.493334947281
 42
1.0
  0
LWPOLYLINE
  5
12232
330
215
100
AcDbEntity
  8
DRL
100
AcDbPolyline
 90
        2
 70
     1
 43
12.25
 10
5648.625
 20
8813.493334947281
 42
1.0
 10
5636.375000000001
 20
8813.493334947281
 42
1.0
  0
LWPOLYLINE
  5
12234
330
215
100
AcDbEntity
  8
DRL
100
AcDbPolyline
 90
        2
 70
     1
 43
12.25
 10
5563.625
 20
8813.493334947281
 42
1.0
 10
5551.375
 20
8813.493334947281
 42
1.0
  0
LWPOLYLINE
  5
12236
330
215
100
AcDbEntity
  8
DRL
100
AcDbPolyline
 90
        2
 70
     1
 43
12.25
 10
5478.625
 20
8813.493334947281
 42
1.0
 10
5466.375
 20
8813.493334947281
 42
1.0
  0
LWPOLYLINE
  5
12238
330
215
100
AcDbEntity
  8
DRL
100
AcDbPolyline
 90
        2
 70
     1
 43
12.25
 10
5393.625
 20
8813.493334947281
 42
1.0
 10
5381.375
 20
8813.493334947281
 42
1.0
  0
LWPOLYLINE
  5
12240
330
215
100
AcDbEntity
  8
DRL
100
AcDbPolyline
 90
        2
 70
     1
 43
12.25
 10
5308.625
 20
8813.493334947281
 42
1.0
 10
5296.375000000001
 20
8813.493334947281
 42
1.0
  0
LWPOLYLINE
  5
12242
330
215
100
AcDbEntity
  8
DRL
100
AcDbPolyline
 90
        2
 70
     1
 43
12.25
 10
5903.625
 20
8913.493334947281
 42
1.0
 10
5891.375
 20
8913.493334947281
 42
1.0
  0
LWPOLYLINE
  5
12244
330
215
100
AcDbEntity
  8
DRL
100
AcDbPolyline
 90
        2
 70
     1
 43
12.25
 10
5818.625
 20
8913.493334947281
 42
1.0
 10
5806.375
 20
8913.493334947281
 42
1.0
  0
LWPOLYLINE
  5
12246
330
215
100
AcDbEntity
  8
DRL
100
AcDbPolyline
 90
        2
 70
     1
 43
12.25
 10
5733.624999999999
 20
8913.493334947281
 42
1.0
 10
5721.375
 20
8913.493334947281
 42
1.0
  0
LWPOLYLINE
  5
12248
330
215
100
AcDbEntity
  8
DRL
100
AcDbPolyline
 90
        2
 70
     1
 43
12.25
 10
5648.625
 20
8913.493334947281
 42
1.0
 10
5636.375000000001
 20
8913.493334947281
 42
1.0
  0
LWPOLYLINE
  5
12250
330
215
100
AcDbEntity
  8
DRL
100
AcDbPolyline
 90
        2
 70
     1
 43
12.25
 10
5563.625
 20
8913.493334947281
 42
1.0
 10
5551.375
 20
8913.493334947281
 42
1.0
  0
LWPOLYLINE
  5
12252
330
215
100
AcDbEntity
  8
DRL
100
AcDbPolyline
 90
        2
 70
     1
 43
12.25
 10
5478.625
 20
8913.493334947281
 42
1.0
 10
5466.375
 20
8913.493334947281
 42
1.0
  0
LWPOLYLINE
  5
12254
330
215
100
AcDbEntity
  8
DRL
100
AcDbPolyline
 90
        2
 70
     1
 43
12.25
 10
5393.625
 20
8913.493334947281
 42
1.0
 10
5381.375
 20
8913.493334947281
 42
1.0
  0
LWPOLYLINE
  5
12256
330
215
100
AcDbEntity
  8
DRL
100
AcDbPolyline
 90
        2
 70
     1
 43
12.25
 10
5308.625
 20
8913.493334947281
 42
1.0
 10
5296.375000000001
 20
8913.493334947281
 42
1.0
  0
LWPOLYLINE
  5
12258
330
215
100
AcDbEntity
  8
DRL
100
AcDbPolyline
 90
        2
 70
     1
 43
12.25
 10
5903.625
 20
9013.493334947282
 42
1.0
 10
5891.375
 20
9013.493334947282
 42
1.0
  0
LWPOLYLINE
  5
12260
330
215
100
AcDbEntity
  8
DRL
100
AcDbPolyline
 90
        2
 70
     1
 43
12.25
 10
5818.625
 20
9013.493334947282
 42
1.0
 10
5806.375
 20
9013.493334947282
 42
1.0
  0
LWPOLYLINE
  5
12262
330
215
100
AcDbEntity
  8
DRL
100
AcDbPolyline
 90
        2
 70
     1
 43
12.25
 10
5733.624999999999
 20
9013.493334947282
 42
1.0
 10
5721.375
 20
9013.493334947282
 42
1.0
  0
LWPOLYLINE
  5
12264
330
215
100
AcDbEntity
  8
DRL
100
AcDbPolyline
 90
        2
 70
     1
 43
12.25
 10
5648.625
 20
9013.493334947282
 42
1.0
 10
5636.375000000001
 20
9013.493334947282
 42
1.0
  0
LWPOLYLINE
  5
12266
330
215
100
AcDbEntity
  8
DRL
100
AcDbPolyline
 90
        2
 70
     1
 43
12.25
 10
5563.625
 20
9013.493334947282
 42
1.0
 10
5551.375
 20
9013.493334947282
 42
1.0
  0
LWPOLYLINE
  5
12268
330
215
100
AcDbEntity
  8
DRL
100
AcDbPolyline
 90
        2
 70
     1
 43
12.25
 10
5478.625
 20
9013.493334947282
 42
1.0
 10
5466.375
 20
9013.493334947282
 42
1.0
  0
LWPOLYLINE
  5
12270
330
215
100
AcDbEntity
  8
DRL
100
AcDbPolyline
 90
        2
 70
     1
 43
12.25
 10
5393.625
 20
9013.493334947282
 42
1.0
 10
5381.375
 20
9013.493334947282
 42
1.0
  0
LWPOLYLINE
  5
12272
330
215
100
AcDbEntity
  8
DRL
100
AcDbPolyline
 90
        2
 70
     1
 43
12.25
 10
5308.625
 20
9013.493334947282
 42
1.0
 10
5296.375000000001
 20
9013.493334947282
 42
1.0
  0
LWPOLYLINE
  5
12274
330
215
100
AcDbEntity
  8
DRL
100
AcDbPolyline
 90
        2
 70
     1
 43
12.25
 10
5903.625
 20
9113.493334947282
 42
1.0
 10
5891.375
 20
9113.493334947282
 42
1.0
  0
LWPOLYLINE
  5
12276
330
215
100
AcDbEntity
  8
DRL
100
AcDbPolyline
 90
        2
 70
     1
 43
12.25
 10
5818.625
 20
9113.493334947282
 42
1.0
 10
5806.375
 20
9113.493334947282
 42
1.0
  0
LWPOLYLINE
  5
12278
330
215
100
AcDbEntity
  8
DRL
100
AcDbPolyline
 90
        2
 70
     1
 43
12.25
 10
5733.624999999999
 20
9113.493334947282
 42
1.0
 10
5721.375
 20
9113.493334947282
 42
1.0
  0
LWPOLYLINE
  5
12280
330
215
100
AcDbEntity
  8
DRL
100
AcDbPolyline
 90
        2
 70
     1
 43
12.25
 10
5648.625
 20
9113.493334947282
 42
1.0
 10
5636.375000000001
 20
9113.493334947282
 42
1.0
  0
LWPOLYLINE
  5
12282
330
215
100
AcDbEntity
  8
DRL
100
AcDbPolyline
 90
        2
 70
     1
 43
12.25
 10
5563.625
 20
9113.493334947282
 42
1.0
 10
5551.375
 20
9113.493334947282
 42
1.0
  0
LWPOLYLINE
  5
12284
330
215
100
AcDbEntity
  8
DRL
100
AcDbPolyline
 90
        2
 70
     1
 43
12.25
 10
5478.625
 20
9113.493334947282
 42
1.0
 10
5466.375
 20
9113.493334947282
 42
1.0
  0
LWPOLYLINE
  5
12286
330
215
100
AcDbEntity
  8
DRL
100
AcDbPolyline
 90
        2
 70
     1
 43
12.25
 10
5393.625
 20
9113.493334947282
 42
1.0
 10
5381.375
 20
9113.493334947282
 42
1.0
  0
LWPOLYLINE
  5
12288
330
215
100
AcDbEntity
  8
DRL
100
AcDbPolyline
 90
        2
 70
     1
 43
12.25
 10
5308.625
 20
9113.493334947282
 42
1.0
 10
5296.375000000001
 20
9113.493334947282
 42
1.0
  0
LWPOLYLINE
  5
12290
330
215
100
AcDbEntity
  8
DRL
100
AcDbPolyline
 90
        2
 70
     1
 43
12.25
 10
5903.625
 20
9213.493334947282
 42
1.0
 10
5891.375
 20
9213.493334947282
 42
1.0
  0
LWPOLYLINE
  5
12292
330
215
100
AcDbEntity
  8
DRL
100
AcDbPolyline
 90
        2
 70
     1
 43
12.25
 10
5818.625
 20
9213.493334947282
 42
1.0
 10
5806.375
 20
9213.493334947282
 42
1.0
  0
LWPOLYLINE
  5
12294
330
215
100
AcDbEntity
  8
DRL
100
AcDbPolyline
 90
        2
 70
     1
 43
12.25
 10
5733.624999999999
 20
9213.493334947282
 42
1.0
 10
5721.375
 20
9213.493334947282
 42
1.0
  0
LWPOLYLINE
  5
12296
330
215
100
AcDbEntity
  8
DRL
100
AcDbPolyline
 90
        2
 70
     1
 43
12.25
 10
5648.625
 20
9213.493334947282
 42
1.0
 10
5636.375000000001
 20
9213.493334947282
 42
1.0
  0
LWPOLYLINE
  5
12298
330
215
100
AcDbEntity
  8
DRL
100
AcDbPolyline
 90
        2
 70
     1
 43
12.25
 10
5563.625
 20
9213.493334947282
 42
1.0
 10
5551.375
 20
9213.493334947282
 42
1.0
  0
LWPOLYLINE
  5
12300
330
215
100
AcDbEntity
  8
DRL
100
AcDbPolyline
 90
        2
 70
     1
 43
12.25
 10
5478.625
 20
9213.493334947282
 42
1.0
 10
5466.375
 20
9213.493334947282
 42
1.0
  0
LWPOLYLINE
  5
12302
330
215
100
AcDbEntity
  8
DRL
100
AcDbPolyline
 90
        2
 70
     1
 43
12.25
 10
5393.625
 20
9213.493334947282
 42
1.0
 10
5381.375
 20
9213.493334947282
 42
1.0
  0
LWPOLYLINE
  5
12304
330
215
100
AcDbEntity
  8
DRL
100
AcDbPolyline
 90
        2
 70
     1
 43
12.25
 10
5308.625
 20
9213.493334947282
 42
1.0
 10
5296.375000000001
 20
9213.493334947282
 42
1.0
  0
LWPOLYLINE
  5
12306
330
215
100
AcDbEntity
  8
DRL
100
AcDbPolyline
 90
        2
 70
     1
 43
12.25
 10
5903.625
 20
9313.493334947279
 42
1.0
 10
5891.375
 20
9313.493334947279
 42
1.0
  0
LWPOLYLINE
  5
12308
330
215
100
AcDbEntity
  8
DRL
100
AcDbPolyline
 90
        2
 70
     1
 43
12.25
 10
5818.625
 20
9313.493334947279
 42
1.0
 10
5806.375
 20
9313.493334947279
 42
1.0
  0
LWPOLYLINE
  5
12310
330
215
100
AcDbEntity
  8
DRL
100
AcDbPolyline
 90
        2
 70
     1
 43
12.25
 10
5733.624999999999
 20
9313.493334947279
 42
1.0
 10
5721.375
 20
9313.493334947279
 42
1.0
  0
LWPOLYLINE
  5
12312
330
215
100
AcDbEntity
  8
DRL
100
AcDbPolyline
 90
        2
 70
     1
 43
12.25
 10
5648.625
 20
9313.493334947279
 42
1.0
 10
5636.375000000001
 20
9313.493334947279
 42
1.0
  0
LWPOLYLINE
  5
12314
330
215
100
AcDbEntity
  8
DRL
100
AcDbPolyline
 90
        2
 70
     1
 43
12.25
 10
5563.625
 20
9313.493334947279
 42
1.0
 10
5551.375
 20
9313.493334947279
 42
1.0
  0
LWPOLYLINE
  5
12316
330
215
100
AcDbEntity
  8
DRL
100
AcDbPolyline
 90
        2
 70
     1
 43
12.25
 10
5478.625
 20
9313.493334947279
 42
1.0
 10
5466.375
 20
9313.493334947279
 42
1.0
  0
LWPOLYLINE
  5
12318
330
215
100
AcDbEntity
  8
DRL
100
AcDbPolyline
 90
        2
 70
     1
 43
12.25
 10
5393.625
 20
9313.493334947279
 42
1.0
 10
5381.375
 20
9313.493334947279
 42
1.0
  0
LWPOLYLINE
  5
12320
330
215
100
AcDbEntity
  8
DRL
100
AcDbPolyline
 90
        2
 70
     1
 43
12.25
 10
5308.625
 20
9313.493334947279
 42
1.0
 10
5296.375000000001
 20
9313.493334947279
 42
1.0
  0
LWPOLYLINE
  5
12322
330
215
100
AcDbEntity
  8
DRL
100
AcDbPolyline
 90
        2
 70
     1
 43
12.25
 10
5903.625
 20
9413.493334947281
 42
1.0
 10
5891.375
 20
9413.493334947281
 42
1.0
  0
LWPOLYLINE
  5
12324
330
215
100
AcDbEntity
  8
DRL
100
AcDbPolyline
 90
        2
 70
     1
 43
12.25
 10
5818.625
 20
9413.493334947281
 42
1.0
 10
5806.375
 20
9413.493334947281
 42
1.0
  0
LWPOLYLINE
  5
12326
330
215
100
AcDbEntity
  8
DRL
100
AcDbPolyline
 90
        2
 70
     1
 43
12.25
 10
5733.624999999999
 20
9413.493334947281
 42
1.0
 10
5721.375
 20
9413.493334947281
 42
1.0
  0
LWPOLYLINE
  5
12328
330
215
100
AcDbEntity
  8
DRL
100
AcDbPolyline
 90
        2
 70
     1
 43
12.25
 10
5648.625
 20
9413.493334947281
 42
1.0
 10
5636.375000000001
 20
9413.493334947281
 42
1.0
  0
LWPOLYLINE
  5
12330
330
215
100
AcDbEntity
  8
DRL
100
AcDbPolyline
 90
        2
 70
     1
 43
12.25
 10
5563.625
 20
9413.493334947281
 42
1.0
 10
5551.375
 20
9413.493334947281
 42
1.0
  0
LWPOLYLINE
  5
12332
330
215
100
AcDbEntity
  8
DRL
100
AcDbPolyline
 90
        2
 70
     1
 43
12.25
 10
5478.625
 20
9413.493334947281
 42
1.0
 10
5466.375
 20
9413.493334947281
 42
1.0
  0
LWPOLYLINE
  5
12334
330
215
100
AcDbEntity
  8
DRL
100
AcDbPolyline
 90
        2
 70
     1
 43
12.25
 10
5393.625
 20
8609.993334947281
 42
1.0
 10
5381.375
 20
8609.993334947281
 42
1.0
  0
LWPOLYLINE
  5
12336
330
215
100
AcDbEntity
  8
DRL
100
AcDbPolyline
 90
        2
 70
     1
 43
12.25
 10
5308.625
 20
8609.993334947281
 42
1.0
 10
5296.375000000001
 20
8609.993334947281
 42
1.0
  0
LWPOLYLINE
  5
12338
330
215
100
AcDbEntity
  8
DRL
100
AcDbPolyline
 90
        2
 70
     1
 43
12.25
 10
5903.625
 20
8009.993334947282
 42
1.0
 10
5891.375
 20
8009.993334947282
 42
1.0
  0
LWPOLYLINE
  5
12340
330
215
100
AcDbEntity
  8
DRL
100
AcDbPolyline
 90
        2
 70
     1
 43
12.25
 10
5818.625
 20
8009.993334947282
 42
1.0
 10
5806.375
 20
8009.993334947282
 42
1.0
  0
LWPOLYLINE
  5
12342
330
215
100
AcDbEntity
  8
DRL
100
AcDbPolyline
 90
        2
 70
     1
 43
12.25
 10
5733.624999999999
 20
8009.993334947282
 42
1.0
 10
5721.375
 20
8009.993334947282
 42
1.0
  0
LWPOLYLINE
  5
12344
330
215
100
AcDbEntity
  8
DRL
100
AcDbPolyline
 90
        2
 70
     1
 43
12.25
 10
5648.625
 20
8009.993334947282
 42
1.0
 10
5636.375000000001
 20
8009.993334947282
 42
1.0
  0
LWPOLYLINE
  5
12346
330
215
100
AcDbEntity
  8
DRL
100
AcDbPolyline
 90
        2
 70
     1
 43
12.25
 10
5563.625
 20
8009.993334947282
 42
1.0
 10
5551.375
 20
8009.993334947282
 42
1.0
  0
LWPOLYLINE
  5
12348
330
215
100
AcDbEntity
  8
DRL
100
AcDbPolyline
 90
        2
 70
     1
 43
12.25
 10
5478.625
 20
8009.993334947282
 42
1.0
 10
5466.375
 20
8009.993334947282
 42
1.0
  0
LWPOLYLINE
  5
12350
330
215
100
AcDbEntity
  8
DRL
100
AcDbPolyline
 90
        2
 70
     1
 43
12.25
 10
5393.625
 20
8009.993334947282
 42
1.0
 10
5381.375
 20
8009.993334947282
 42
1.0
  0
LWPOLYLINE
  5
12352
330
215
100
AcDbEntity
  8
DRL
100
AcDbPolyline
 90
        2
 70
     1
 43
12.25
 10
5308.625
 20
8009.993334947282
 42
1.0
 10
5296.375000000001
 20
8009.993334947282
 42
1.0
  0
LWPOLYLINE
  5
12354
330
215
100
AcDbEntity
  8
DRL
100
AcDbPolyline
 90
        2
 70
     1
 43
12.25
 10
5903.625
 20
8109.993334947281
 42
1.0
 10
5891.375
 20
8109.993334947281
 42
1.0
  0
LWPOLYLINE
  5
12356
330
215
100
AcDbEntity
  8
DRL
100
AcDbPolyline
 90
        2
 70
     1
 43
12.25
 10
5818.625
 20
8109.993334947281
 42
1.0
 10
5806.375
 20
8109.993334947281
 42
1.0
  0
LWPOLYLINE
  5
12358
330
215
100
AcDbEntity
  8
DRL
100
AcDbPolyline
 90
        2
 70
     1
 43
12.25
 10
5733.624999999999
 20
8109.993334947281
 42
1.0
 10
5721.375
 20
8109.993334947281
 42
1.0
  0
LWPOLYLINE
  5
12360
330
215
100
AcDbEntity
  8
DRL
100
AcDbPolyline
 90
        2
 70
     1
 43
12.25
 10
5648.625
 20
8109.993334947281
 42
1.0
 10
5636.375000000001
 20
8109.993334947281
 42
1.0
  0
LWPOLYLINE
  5
12362
330
215
100
AcDbEntity
  8
DRL
100
AcDbPolyline
 90
        2
 70
     1
 43
12.25
 10
5563.625
 20
8109.993334947281
 42
1.0
 10
5551.375
 20
8109.993334947281
 42
1.0
  0
LWPOLYLINE
  5
12364
330
215
100
AcDbEntity
  8
DRL
100
AcDbPolyline
 90
        2
 70
     1
 43
12.25
 10
5478.625
 20
8109.993334947281
 42
1.0
 10
5466.375
 20
8109.993334947281
 42
1.0
  0
LWPOLYLINE
  5
12366
330
215
100
AcDbEntity
  8
DRL
100
AcDbPolyline
 90
        2
 70
     1
 43
12.25
 10
5393.625
 20
8109.993334947281
 42
1.0
 10
5381.375
 20
8109.993334947281
 42
1.0
  0
LWPOLYLINE
  5
12368
330
215
100
AcDbEntity
  8
DRL
100
AcDbPolyline
 90
        2
 70
     1
 43
12.25
 10
5308.625
 20
8109.993334947281
 42
1.0
 10
5296.375000000001
 20
8109.993334947281
 42
1.0
  0
LWPOLYLINE
  5
12370
330
215
100
AcDbEntity
  8
DRL
100
AcDbPolyline
 90
        2
 70
     1
 43
12.25
 10
5903.625
 20
8209.993334947283
 42
1.0
 10
5891.375
 20
8209.993334947283
 42
1.0
  0
LWPOLYLINE
  5
12372
330
215
100
AcDbEntity
  8
DRL
100
AcDbPolyline
 90
        2
 70
     1
 43
12.25
 10
5818.625
 20
8209.993334947283
 42
1.0
 10
5806.375
 20
8209.993334947283
 42
1.0
  0
LWPOLYLINE
  5
12374
330
215
100
AcDbEntity
  8
DRL
100
AcDbPolyline
 90
        2
 70
     1
 43
12.25
 10
5733.624999999999
 20
8209.993334947283
 42
1.0
 10
5721.375
 20
8209.993334947283
 42
1.0
  0
LWPOLYLINE
  5
12376
330
215
100
AcDbEntity
  8
DRL
100
AcDbPolyline
 90
        2
 70
     1
 43
12.25
 10
5648.625
 20
8209.993334947283
 42
1.0
 10
5636.375000000001
 20
8209.993334947283
 42
1.0
  0
LWPOLYLINE
  5
12378
330
215
100
AcDbEntity
  8
DRL
100
AcDbPolyline
 90
        2
 70
     1
 43
12.25
 10
5563.625
 20
8209.993334947283
 42
1.0
 10
5551.375
 20
8209.993334947283
 42
1.0
  0
LWPOLYLINE
  5
12380
330
215
100
AcDbEntity
  8
DRL
100
AcDbPolyline
 90
        2
 70
     1
 43
12.25
 10
5478.625
 20
8209.993334947283
 42
1.0
 10
5466.375
 20
8209.993334947283
 42
1.0
  0
LWPOLYLINE
  5
12382
330
215
100
AcDbEntity
  8
DRL
100
AcDbPolyline
 90
        2
 70
     1
 43
12.25
 10
5393.625
 20
8209.993334947283
 42
1.0
 10
5381.375
 20
8209.993334947283
 42
1.0
  0
LWPOLYLINE
  5
12384
330
215
100
AcDbEntity
  8
DRL
100
AcDbPolyline
 90
        2
 70
     1
 43
12.25
 10
5308.625
 20
8209.993334947283
 42
1.0
 10
5296.375000000001
 20
8209.993334947283
 42
1.0
  0
LWPOLYLINE
  5
12386
330
215
100
AcDbEntity
  8
DRL
100
AcDbPolyline
 90
        2
 70
     1
 43
12.25
 10
5903.625
 20
8309.993334947282
 42
1.0
 10
5891.375
 20
8309.993334947282
 42
1.0
  0
LWPOLYLINE
  5
12388
330
215
100
AcDbEntity
  8
DRL
100
AcDbPolyline
 90
        2
 70
     1
 43
12.25
 10
5818.625
 20
8309.993334947282
 42
1.0
 10
5806.375
 20
8309.993334947282
 42
1.0
  0
LWPOLYLINE
  5
12390
330
215
100
AcDbEntity
  8
DRL
100
AcDbPolyline
 90
        2
 70
     1
 43
12.25
 10
5733.624999999999
 20
8309.993334947282
 42
1.0
 10
5721.375
 20
8309.993334947282
 42
1.0
  0
LWPOLYLINE
  5
12392
330
215
100
AcDbEntity
  8
DRL
100
AcDbPolyline
 90
        2
 70
     1
 43
12.25
 10
5648.625
 20
8309.993334947282
 42
1.0
 10
5636.375000000001
 20
8309.993334947282
 42
1.0
  0
LWPOLYLINE
  5
12394
330
215
100
AcDbEntity
  8
DRL
100
AcDbPolyline
 90
        2
 70
     1
 43
12.25
 10
5563.625
 20
8309.993334947282
 42
1.0
 10
5551.375
 20
8309.993334947282
 42
1.0
  0
LWPOLYLINE
  5
12396
330
215
100
AcDbEntity
  8
DRL
100
AcDbPolyline
 90
        2
 70
     1
 43
12.25
 10
5478.625
 20
8309.993334947282
 42
1.0
 10
5466.375
 20
8309.993334947282
 42
1.0
  0
LWPOLYLINE
  5
12398
330
215
100
AcDbEntity
  8
DRL
100
AcDbPolyline
 90
        2
 70
     1
 43
12.25
 10
5393.625
 20
8309.993334947282
 42
1.0
 10
5381.375
 20
8309.993334947282
 42
1.0
  0
LWPOLYLINE
  5
12400
330
215
100
AcDbEntity
  8
DRL
100
AcDbPolyline
 90
        2
 70
     1
 43
12.25
 10
5308.625
 20
8309.993334947282
 42
1.0
 10
5296.375000000001
 20
8309.993334947282
 42
1.0
  0
LWPOLYLINE
  5
12402
330
215
100
AcDbEntity
  8
DRL
100
AcDbPolyline
 90
        2
 70
     1
 43
12.25
 10
5903.625
 20
8409.993334947282
 42
1.0
 10
5891.375
 20
8409.993334947282
 42
1.0
  0
LWPOLYLINE
  5
12404
330
215
100
AcDbEntity
  8
DRL
100
AcDbPolyline
 90
        2
 70
     1
 43
12.25
 10
5818.625
 20
8409.993334947282
 42
1.0
 10
5806.375
 20
8409.993334947282
 42
1.0
  0
LWPOLYLINE
  5
12406
330
215
100
AcDbEntity
  8
DRL
100
AcDbPolyline
 90
        2
 70
     1
 43
12.25
 10
5733.624999999999
 20
8409.993334947282
 42
1.0
 10
5721.375
 20
8409.993334947282
 42
1.0
  0
LWPOLYLINE
  5
12408
330
215
100
AcDbEntity
  8
DRL
100
AcDbPolyline
 90
        2
 70
     1
 43
12.25
 10
5648.625
 20
8409.993334947282
 42
1.0
 10
5636.375000000001
 20
8409.993334947282
 42
1.0
  0
LWPOLYLINE
  5
12410
330
215
100
AcDbEntity
  8
DRL
100
AcDbPolyline
 90
        2
 70
     1
 43
12.25
 10
5563.625
 20
8409.993334947282
 42
1.0
 10
5551.375
 20
8409.993334947282
 42
1.0
  0
LWPOLYLINE
  5
12412
330
215
100
AcDbEntity
  8
DRL
100
AcDbPolyline
 90
        2
 70
     1
 43
12.25
 10
5478.625
 20
8409.993334947282
 42
1.0
 10
5466.375
 20
8409.993334947282
 42
1.0
  0
LWPOLYLINE
  5
12414
330
215
100
AcDbEntity
  8
DRL
100
AcDbPolyline
 90
        2
 70
     1
 43
12.25
 10
5393.625
 20
8409.993334947282
 42
1.0
 10
5381.375
 20
8409.993334947282
 42
1.0
  0
LWPOLYLINE
  5
12416
330
215
100
AcDbEntity
  8
DRL
100
AcDbPolyline
 90
        2
 70
     1
 43
12.25
 10
5308.625
 20
8409.993334947282
 42
1.0
 10
5296.375000000001
 20
8409.993334947282
 42
1.0
  0
LWPOLYLINE
  5
12418
330
215
100
AcDbEntity
  8
DRL
100
AcDbPolyline
 90
        2
 70
     1
 43
12.25
 10
5903.625
 20
8509.993334947282
 42
1.0
 10
5891.375
 20
8509.993334947282
 42
1.0
  0
LWPOLYLINE
  5
12420
330
215
100
AcDbEntity
  8
DRL
100
AcDbPolyline
 90
        2
 70
     1
 43
12.25
 10
5818.625
 20
8509.993334947282
 42
1.0
 10
5806.375
 20
8509.993334947282
 42
1.0
  0
LWPOLYLINE
  5
12422
330
215
100
AcDbEntity
  8
DRL
100
AcDbPolyline
 90
        2
 70
     1
 43
12.25
 10
5733.624999999999
 20
8509.993334947282
 42
1.0
 10
5721.375
 20
8509.993334947282
 42
1.0
  0
LWPOLYLINE
  5
12424
330
215
100
AcDbEntity
  8
DRL
100
AcDbPolyline
 90
        2
 70
     1
 43
12.25
 10
5648.625
 20
8509.993334947282
 42
1.0
 10
5636.375000000001
 20
8509.993334947282
 42
1.0
  0
LWPOLYLINE
  5
12426
330
215
100
AcDbEntity
  8
DRL
100
AcDbPolyline
 90
        2
 70
     1
 43
12.25
 10
5563.625
 20
8509.993334947282
 42
1.0
 10
5551.375
 20
8509.993334947282
 42
1.0
  0
LWPOLYLINE
  5
12428
330
215
100
AcDbEntity
  8
DRL
100
AcDbPolyline
 90
        2
 70
     1
 43
12.25
 10
5478.625
 20
8509.993334947282
 42
1.0
 10
5466.375
 20
8509.993334947282
 42
1.0
  0
LWPOLYLINE
  5
12430
330
215
100
AcDbEntity
  8
DRL
100
AcDbPolyline
 90
        2
 70
     1
 43
12.25
 10
5393.625
 20
8509.993334947282
 42
1.0
 10
5381.375
 20
8509.993334947282
 42
1.0
  0
LWPOLYLINE
  5
12432
330
215
100
AcDbEntity
  8
DRL
100
AcDbPolyline
 90
        2
 70
     1
 43
12.25
 10
5308.625
 20
8509.993334947282
 42
1.0
 10
5296.375000000001
 20
8509.993334947282
 42
1.0
  0
LWPOLYLINE
  5
12434
330
215
100
AcDbEntity
  8
DRL
100
AcDbPolyline
 90
        2
 70
     1
 43
12.25
 10
5903.625
 20
8609.993334947281
 42
1.0
 10
5891.375
 20
8609.993334947281
 42
1.0
  0
LWPOLYLINE
  5
12436
330
215
100
AcDbEntity
  8
DRL
100
AcDbPolyline
 90
        2
 70
     1
 43
12.25
 10
5818.625
 20
8609.993334947281
 42
1.0
 10
5806.375
 20
8609.993334947281
 42
1.0
  0
LWPOLYLINE
  5
12438
330
215
100
AcDbEntity
  8
DRL
100
AcDbPolyline
 90
        2
 70
     1
 43
12.25
 10
5733.624999999999
 20
8609.993334947281
 42
1.0
 10
5721.375
 20
8609.993334947281
 42
1.0
  0
LWPOLYLINE
  5
12440
330
215
100
AcDbEntity
  8
DRL
100
AcDbPolyline
 90
        2
 70
     1
 43
12.25
 10
5648.625
 20
8609.993334947281
 42
1.0
 10
5636.375000000001
 20
8609.993334947281
 42
1.0
  0
LWPOLYLINE
  5
12442
330
215
100
AcDbEntity
  8
DRL
100
AcDbPolyline
 90
        2
 70
     1
 43
12.25
 10
5563.625
 20
8609.993334947281
 42
1.0
 10
5551.375
 20
8609.993334947281
 42
1.0
  0
LWPOLYLINE
  5
12444
330
215
100
AcDbEntity
  8
DRL
100
AcDbPolyline
 90
        2
 70
     1
 43
12.25
 10
5478.625
 20
8609.993334947281
 42
1.0
 10
5466.375
 20
8609.993334947281
 42
1.0
  0
LWPOLYLINE
  5
12446
330
215
100
AcDbEntity
  8
DRL
100
AcDbPolyline
 90
        2
 70
     1
 43
12.25
 10
5393.625
 20
7806.493334947281
 42
1.0
 10
5381.375
 20
7806.493334947281
 42
1.0
  0
LWPOLYLINE
  5
12448
330
215
100
AcDbEntity
  8
DRL
100
AcDbPolyline
 90
        2
 70
     1
 43
12.25
 10
5308.625
 20
7806.493334947281
 42
1.0
 10
5296.375000000001
 20
7806.493334947281
 42
1.0
  0
LWPOLYLINE
  5
12450
330
215
100
AcDbEntity
  8
DRL
100
AcDbPolyline
 90
        2
 70
     1
 43
12.25
 10
5903.625
 20
7206.493334947281
 42
1.0
 10
5891.375
 20
7206.493334947281
 42
1.0
  0
LWPOLYLINE
  5
12452
330
215
100
AcDbEntity
  8
DRL
100
AcDbPolyline
 90
        2
 70
     1
 43
12.25
 10
5818.625
 20
7206.493334947281
 42
1.0
 10
5806.375
 20
7206.493334947281
 42
1.0
  0
LWPOLYLINE
  5
12454
330
215
100
AcDbEntity
  8
DRL
100
AcDbPolyline
 90
        2
 70
     1
 43
12.25
 10
5733.624999999999
 20
7206.493334947281
 42
1.0
 10
5721.375
 20
7206.493334947281
 42
1.0
  0
LWPOLYLINE
  5
12456
330
215
100
AcDbEntity
  8
DRL
100
AcDbPolyline
 90
        2
 70
     1
 43
12.25
 10
5648.625
 20
7206.493334947281
 42
1.0
 10
5636.375000000001
 20
7206.493334947281
 42
1.0
  0
LWPOLYLINE
  5
12458
330
215
100
AcDbEntity
  8
DRL
100
AcDbPolyline
 90
        2
 70
     1
 43
12.25
 10
5563.625
 20
7206.493334947281
 42
1.0
 10
5551.375
 20
7206.493334947281
 42
1.0
  0
LWPOLYLINE
  5
12460
330
215
100
AcDbEntity
  8
DRL
100
AcDbPolyline
 90
        2
 70
     1
 43
12.25
 10
5478.625
 20
7206.493334947281
 42
1.0
 10
5466.375
 20
7206.493334947281
 42
1.0
  0
LWPOLYLINE
  5
12462
330
215
100
AcDbEntity
  8
DRL
100
AcDbPolyline
 90
        2
 70
     1
 43
12.25
 10
5393.625
 20
7206.493334947281
 42
1.0
 10
5381.375
 20
7206.493334947281
 42
1.0
  0
LWPOLYLINE
  5
12464
330
215
100
AcDbEntity
  8
DRL
100
AcDbPolyline
 90
        2
 70
     1
 43
12.25
 10
5308.625
 20
7206.493334947281
 42
1.0
 10
5296.375000000001
 20
7206.493334947281
 42
1.0
  0
LWPOLYLINE
  5
12466
330
215
100
AcDbEntity
  8
DRL
100
AcDbPolyline
 90
        2
 70
     1
 43
12.25
 10
5903.625
 20
7306.493334947281
 42
1.0
 10
5891.375
 20
7306.493334947281
 42
1.0
  0
LWPOLYLINE
  5
12468
330
215
100
AcDbEntity
  8
DRL
100
AcDbPolyline
 90
        2
 70
     1
 43
12.25
 10
5818.625
 20
7306.493334947281
 42
1.0
 10
5806.375
 20
7306.493334947281
 42
1.0
  0
LWPOLYLINE
  5
12470
330
215
100
AcDbEntity
  8
DRL
100
AcDbPolyline
 90
        2
 70
     1
 43
12.25
 10
5733.624999999999
 20
7306.493334947281
 42
1.0
 10
5721.375
 20
7306.493334947281
 42
1.0
  0
LWPOLYLINE
  5
12472
330
215
100
AcDbEntity
  8
DRL
100
AcDbPolyline
 90
        2
 70
     1
 43
12.25
 10
5648.625
 20
7306.493334947281
 42
1.0
 10
5636.375000000001
 20
7306.493334947281
 42
1.0
  0
LWPOLYLINE
  5
12474
330
215
100
AcDbEntity
  8
DRL
100
AcDbPolyline
 90
        2
 70
     1
 43
12.25
 10
5563.625
 20
7306.493334947281
 42
1.0
 10
5551.375
 20
7306.493334947281
 42
1.0
  0
LWPOLYLINE
  5
12476
330
215
100
AcDbEntity
  8
DRL
100
AcDbPolyline
 90
        2
 70
     1
 43
12.25
 10
5478.625
 20
7306.493334947281
 42
1.0
 10
5466.375
 20
7306.493334947281
 42
1.0
  0
LWPOLYLINE
  5
12478
330
215
100
AcDbEntity
  8
DRL
100
AcDbPolyline
 90
        2
 70
     1
 43
12.25
 10
5393.625
 20
7306.493334947281
 42
1.0
 10
5381.375
 20
7306.493334947281
 42
1.0
  0
LWPOLYLINE
  5
12480
330
215
100
AcDbEntity
  8
DRL
100
AcDbPolyline
 90
        2
 70
     1
 43
12.25
 10
5308.625
 20
7306.493334947281
 42
1.0
 10
5296.375000000001
 20
7306.493334947281
 42
1.0
  0
LWPOLYLINE
  5
12482
330
215
100
AcDbEntity
  8
DRL
100
AcDbPolyline
 90
        2
 70
     1
 43
12.25
 10
5903.625
 20
7406.493334947281
 42
1.0
 10
5891.375
 20
7406.493334947281
 42
1.0
  0
LWPOLYLINE
  5
12484
330
215
100
AcDbEntity
  8
DRL
100
AcDbPolyline
 90
        2
 70
     1
 43
12.25
 10
5818.625
 20
7406.493334947281
 42
1.0
 10
5806.375
 20
7406.493334947281
 42
1.0
  0
LWPOLYLINE
  5
12486
330
215
100
AcDbEntity
  8
DRL
100
AcDbPolyline
 90
        2
 70
     1
 43
12.25
 10
5733.624999999999
 20
7406.493334947281
 42
1.0
 10
5721.375
 20
7406.493334947281
 42
1.0
  0
LWPOLYLINE
  5
12488
330
215
100
AcDbEntity
  8
DRL
100
AcDbPolyline
 90
        2
 70
     1
 43
12.25
 10
5648.625
 20
7406.493334947281
 42
1.0
 10
5636.375000000001
 20
7406.493334947281
 42
1.0
  0
LWPOLYLINE
  5
12490
330
215
100
AcDbEntity
  8
DRL
100
AcDbPolyline
 90
        2
 70
     1
 43
12.25
 10
5563.625
 20
7406.493334947281
 42
1.0
 10
5551.375
 20
7406.493334947281
 42
1.0
  0
LWPOLYLINE
  5
12492
330
215
100
AcDbEntity
  8
DRL
100
AcDbPolyline
 90
        2
 70
     1
 43
12.25
 10
5478.625
 20
7406.493334947281
 42
1.0
 10
5466.375
 20
7406.493334947281
 42
1.0
  0
LWPOLYLINE
  5
12494
330
215
100
AcDbEntity
  8
DRL
100
AcDbPolyline
 90
        2
 70
     1
 43
12.25
 10
5393.625
 20
7406.493334947281
 42
1.0
 10
5381.375
 20
7406.493334947281
 42
1.0
  0
LWPOLYLINE
  5
12496
330
215
100
AcDbEntity
  8
DRL
100
AcDbPolyline
 90
        2
 70
     1
 43
12.25
 10
5308.625
 20
7406.493334947281
 42
1.0
 10
5296.375000000001
 20
7406.493334947281
 42
1.0
  0
LWPOLYLINE
  5
12498
330
215
100
AcDbEntity
  8
DRL
100
AcDbPolyline
 90
        2
 70
     1
 43
12.25
 10
5903.625
 20
7506.493334947281
 42
1.0
 10
5891.375
 20
7506.493334947281
 42
1.0
  0
LWPOLYLINE
  5
12500
330
215
100
AcDbEntity
  8
DRL
100
AcDbPolyline
 90
        2
 70
     1
 43
12.25
 10
5818.625
 20
7506.493334947281
 42
1.0
 10
5806.375
 20
7506.493334947281
 42
1.0
  0
LWPOLYLINE
  5
12502
330
215
100
AcDbEntity
  8
DRL
100
AcDbPolyline
 90
        2
 70
     1
 43
12.25
 10
5733.624999999999
 20
7506.493334947281
 42
1.0
 10
5721.375
 20
7506.493334947281
 42
1.0
  0
LWPOLYLINE
  5
12504
330
215
100
AcDbEntity
  8
DRL
100
AcDbPolyline
 90
        2
 70
     1
 43
12.25
 10
5648.625
 20
7506.493334947281
 42
1.0
 10
5636.375000000001
 20
7506.493334947281
 42
1.0
  0
LWPOLYLINE
  5
12506
330
215
100
AcDbEntity
  8
DRL
100
AcDbPolyline
 90
        2
 70
     1
 43
12.25
 10
5563.625
 20
7506.493334947281
 42
1.0
 10
5551.375
 20
7506.493334947281
 42
1.0
  0
LWPOLYLINE
  5
12508
330
215
100
AcDbEntity
  8
DRL
100
AcDbPolyline
 90
        2
 70
     1
 43
12.25
 10
5478.625
 20
7506.493334947281
 42
1.0
 10
5466.375
 20
7506.493334947281
 42
1.0
  0
LWPOLYLINE
  5
12510
330
215
100
AcDbEntity
  8
DRL
100
AcDbPolyline
 90
        2
 70
     1
 43
12.25
 10
5393.625
 20
7506.493334947281
 42
1.0
 10
5381.375
 20
7506.493334947281
 42
1.0
  0
LWPOLYLINE
  5
12512
330
215
100
AcDbEntity
  8
DRL
100
AcDbPolyline
 90
        2
 70
     1
 43
12.25
 10
5308.625
 20
7506.493334947281
 42
1.0
 10
5296.375000000001
 20
7506.493334947281
 42
1.0
  0
LWPOLYLINE
  5
12514
330
215
100
AcDbEntity
  8
DRL
100
AcDbPolyline
 90
        2
 70
     1
 43
12.25
 10
5903.625
 20
7606.49333494728
 42
1.0
 10
5891.375
 20
7606.49333494728
 42
1.0
  0
LWPOLYLINE
  5
12516
330
215
100
AcDbEntity
  8
DRL
100
AcDbPolyline
 90
        2
 70
     1
 43
12.25
 10
5818.625
 20
7606.49333494728
 42
1.0
 10
5806.375
 20
7606.49333494728
 42
1.0
  0
LWPOLYLINE
  5
12518
330
215
100
AcDbEntity
  8
DRL
100
AcDbPolyline
 90
        2
 70
     1
 43
12.25
 10
5733.624999999999
 20
7606.49333494728
 42
1.0
 10
5721.375
 20
7606.49333494728
 42
1.0
  0
LWPOLYLINE
  5
12520
330
215
100
AcDbEntity
  8
DRL
100
AcDbPolyline
 90
        2
 70
     1
 43
12.25
 10
5648.625
 20
7606.49333494728
 42
1.0
 10
5636.375000000001
 20
7606.49333494728
 42
1.0
  0
LWPOLYLINE
  5
12522
330
215
100
AcDbEntity
  8
DRL
100
AcDbPolyline
 90
        2
 70
     1
 43
12.25
 10
5563.625
 20
7606.49333494728
 42
1.0
 10
5551.375
 20
7606.49333494728
 42
1.0
  0
LWPOLYLINE
  5
12524
330
215
100
AcDbEntity
  8
DRL
100
AcDbPolyline
 90
        2
 70
     1
 43
12.25
 10
5478.625
 20
7606.49333494728
 42
1.0
 10
5466.375
 20
7606.49333494728
 42
1.0
  0
LWPOLYLINE
  5
12526
330
215
100
AcDbEntity
  8
DRL
100
AcDbPolyline
 90
        2
 70
     1
 43
12.25
 10
5393.625
 20
7606.49333494728
 42
1.0
 10
5381.375
 20
7606.49333494728
 42
1.0
  0
LWPOLYLINE
  5
12528
330
215
100
AcDbEntity
  8
DRL
100
AcDbPolyline
 90
        2
 70
     1
 43
12.25
 10
5308.625
 20
7606.49333494728
 42
1.0
 10
5296.375000000001
 20
7606.49333494728
 42
1.0
  0
LWPOLYLINE
  5
12530
330
215
100
AcDbEntity
  8
DRL
100
AcDbPolyline
 90
        2
 70
     1
 43
12.25
 10
5903.625
 20
7706.493334947281
 42
1.0
 10
5891.375
 20
7706.493334947281
 42
1.0
  0
LWPOLYLINE
  5
12532
330
215
100
AcDbEntity
  8
DRL
100
AcDbPolyline
 90
        2
 70
     1
 43
12.25
 10
5818.625
 20
7706.493334947281
 42
1.0
 10
5806.375
 20
7706.493334947281
 42
1.0
  0
LWPOLYLINE
  5
12534
330
215
100
AcDbEntity
  8
DRL
100
AcDbPolyline
 90
        2
 70
     1
 43
12.25
 10
5733.624999999999
 20
7706.493334947281
 42
1.0
 10
5721.375
 20
7706.493334947281
 42
1.0
  0
LWPOLYLINE
  5
12536
330
215
100
AcDbEntity
  8
DRL
100
AcDbPolyline
 90
        2
 70
     1
 43
12.25
 10
5648.625
 20
7706.493334947281
 42
1.0
 10
5636.375000000001
 20
7706.493334947281
 42
1.0
  0
LWPOLYLINE
  5
12538
330
215
100
AcDbEntity
  8
DRL
100
AcDbPolyline
 90
        2
 70
     1
 43
12.25
 10
5563.625
 20
7706.493334947281
 42
1.0
 10
5551.375
 20
7706.493334947281
 42
1.0
  0
LWPOLYLINE
  5
12540
330
215
100
AcDbEntity
  8
DRL
100
AcDbPolyline
 90
        2
 70
     1
 43
12.25
 10
5478.625
 20
7706.493334947281
 42
1.0
 10
5466.375
 20
7706.493334947281
 42
1.0
  0
LWPOLYLINE
  5
12542
330
215
100
AcDbEntity
  8
DRL
100
AcDbPolyline
 90
        2
 70
     1
 43
12.25
 10
5393.625
 20
7706.493334947281
 42
1.0
 10
5381.375
 20
7706.493334947281
 42
1.0
  0
LWPOLYLINE
  5
12544
330
215
100
AcDbEntity
  8
DRL
100
AcDbPolyline
 90
        2
 70
     1
 43
12.25
 10
5308.625
 20
7706.493334947281
 42
1.0
 10
5296.375000000001
 20
7706.493334947281
 42
1.0
  0
LWPOLYLINE
  5
12546
330
215
100
AcDbEntity
  8
DRL
100
AcDbPolyline
 90
        2
 70
     1
 43
12.25
 10
5903.625
 20
7806.493334947281
 42
1.0
 10
5891.375
 20
7806.493334947281
 42
1.0
  0
LWPOLYLINE
  5
12548
330
215
100
AcDbEntity
  8
DRL
100
AcDbPolyline
 90
        2
 70
     1
 43
12.25
 10
5818.625
 20
7806.493334947281
 42
1.0
 10
5806.375
 20
7806.493334947281
 42
1.0
  0
LWPOLYLINE
  5
12550
330
215
100
AcDbEntity
  8
DRL
100
AcDbPolyline
 90
        2
 70
     1
 43
12.25
 10
5733.624999999999
 20
7806.493334947281
 42
1.0
 10
5721.375
 20
7806.493334947281
 42
1.0
  0
LWPOLYLINE
  5
12552
330
215
100
AcDbEntity
  8
DRL
100
AcDbPolyline
 90
        2
 70
     1
 43
12.25
 10
5648.625
 20
7806.493334947281
 42
1.0
 10
5636.375000000001
 20
7806.493334947281
 42
1.0
  0
LWPOLYLINE
  5
12554
330
215
100
AcDbEntity
  8
DRL
100
AcDbPolyline
 90
        2
 70
     1
 43
12.25
 10
5563.625
 20
7806.493334947281
 42
1.0
 10
5551.375
 20
7806.493334947281
 42
1.0
  0
LWPOLYLINE
  5
12556
330
215
100
AcDbEntity
  8
DRL
100
AcDbPolyline
 90
        2
 70
     1
 43
12.25
 10
5478.625
 20
7806.493334947281
 42
1.0
 10
5466.375
 20
7806.493334947281
 42
1.0
  0
TEXT
  5
12562
330
215
100
AcDbEntity
  8
DIMENSION
 62
     4
100
AcDbText
 10
6160.0
 20
9213.541657
 30
0.0
 40
54.0
  1

 50
90.0
 41
0.8
 72
     1
 11
6160.0
 21
9213.541657
 31
0.0
100
AcDbText
  0
TEXT
  5
12565
330
215
100
AcDbEntity
  8
DIMENSION
 62
     4
100
AcDbText
 10
2355.0
 20
8289.421906375853
 30
0.0
 40
54.0
  1
L
 50
90.0
 41
0.8
 72
     1
 11
2355.0
 21
8309.993334947282
 31
0.0
100
AcDbText
  0
TEXT
  5
12566
330
215
100
AcDbEntity
  8
DIMENSION
 62
     4
100
AcDbText
 10
4252.5
 20
8370.907620661567
 30
0.0
 40
54.0
  1
L2
 50
90.0
 41
0.8
 72
     1
 11
4252.5
 21
8409.993334947282
 31
0.0
100
AcDbText
  0
TEXT
  5
12567
330
215
100
AcDbEntity
  8
DIMENSION
 62
     4
100
AcDbText
 10
4252.5
 20
9277.079049232996
 30
0.0
 40
54.0
  1
L1
 50
90.0
 41
0.8
 72
     1
 11
4252.5
 21
9309.993334947282
 31
0.0
100
AcDbText
  0
TEXT
  5
12568
330
215
100
AcDbEntity
  8
DIMENSION
 62
     4
100
AcDbText
 10
6337.5
 20
8289.421906375853
 30
0.0
 40
54.0
  1
L
 50
90.0
 41
0.8
 72
     1
 11
6337.5
 21
8309.993334947282
 31
0.0
100
AcDbText
  0
TEXT
  5
12569
330
215
100
AcDbEntity
  8
DIMENSION
 62
     4
100
AcDbText
 10
5575.314285714285
 20
9869.993334947281
 30
0.0
 40
54.0
  1
W
 41
0.8
 72
     1
 11
5600.0
 21
9869.993334947281
 31
0.0
100
AcDbText
  0
TEXT
  5
12570
330
215
100
AcDbEntity
  8
DIMENSION
 62
     4
100
AcDbText
 10
3555.771428571429
 20
7076.218334947282
 30
0.0
 40
54.0
  1
W2
 41
0.8
 72
     1
 11
3600.0
 21
7076.218334947282
 31
0.0
100
AcDbText
  0
TEXT
  5
12571
330
215
100
AcDbEntity
  8
DIMENSION
 62
     4
100
AcDbText
 10
3561.942857142857
 20
9794.818334947285
 30
0.0
 40
54.0
  1
W1
 41
0.8
 72
     1
 11
3600.0
 21
9794.818334947285
 31
0.0
100
AcDbText
  0
TEXT
  5
12572
330
215
100
AcDbEntity
  8
DIMENSION
 62
     4
100
AcDbText
 10
1575.314285714285
 20
9869.993334947281
 30
0.0
 40
54.0
  1
W
 41
0.8
 72
     1
 11
1600.0
 21
9869.993334947281
 31
0.0
100
AcDbText
  0
TEXT
  5
12574
330
215
100
AcDbEntity
  8
DIMENSION
 62
     4
100
AcDbText
 10
6300.0
 20
5943.845599999999
 30
0.0
 40
54.0
  1

 41
0.8
 72
     1
 11
6300.0
 21
5943.845599999999
 31
0.0
100
AcDbText
  0
TEXT
  5
12577
330
215
100
AcDbEntity
  8
DIMENSION
 62
     4
100
AcDbText
 10
6500.0
 20
9463.541657
 30
0.0
 40
54.0
  1

 41
0.8
 72
     1
 11
6500.0
 21
9463.541657
 31
0.0
100
AcDbText
  0
TEXT
  5
12584
330
215
100
AcDbEntity
  8
MIDDLETITLE
 62
     6
100
AcDbText
 10
1853.0
 20
10256.0
 30
0.0
 40
100.0
  1

 41
0.8
 72
     1
 11
1853.0
 21
10256.0
 31
0.0
100
AcDbText
  0
TEXT
  5
12586
330
215
100
AcDbEntity
  8
MIDDLETITLE
 62
     6
100
AcDbText
 10
5403.079198
 20
10317.958006
 30
0.0
 40
100.0
  1

 41
0.8
 72
     1
 11
5403.079198
 21
10317.958006
 31
0.0
100
AcDbText
  0
TEXT
  5
12588
330
215
100
AcDbEntity
  8
MIDDLETITLE
 62
     6
100
AcDbText
 10
5403.079198
 20
7454.190407999998
 30
0.0
 40
100.0
  1

 41
0.8
 72
     1
 11
5403.079198
 21
7454.190407999998
 31
0.0
100
AcDbText
  0
TEXT
  5
12590
330
215
100
AcDbEntity
  8
MIDDLETITLE
 62
     6
100
AcDbText
 10
11800.0
 20
9810.0
 30
0.0
 40
100.0
  1

 41
0.8
 72
     1
 11
11800.0
 21
9810.0
 31
0.0
100
AcDbText
  0
TEXT
  5
12591
330
215
100
AcDbEntity
  8
MIDDLETITLE
 62
     6
100
AcDbText
 10
1515.111111111111
 20
10273.99333494728
 30
0.0
 40
100.0
  1
  
 41
0.8
 72
     1
 11
1696.0
 21
10273.99333494728
 31
0.0
100
AcDbText
  0
TEXT
  5
12592
330
215
100
AcDbEntity
  8
MIDDLETITLE
 62
     6
100
AcDbText
 10
1696.0
 20
4224.0
 30
0.0
 40
100.0
  1

 41
0.8
 72
     1
 11
1696.0
 21
4224.0
 31
0.0
100
AcDbText
  0
TEXT
  5
12593
330
215
100
AcDbEntity
  8
MIDDLETITLE
 62
     6
100
AcDbText
 10
3526.888888888889
 20
10198.81833494728
 30
0.0
 40
100.0
  1
  
 41
0.8
 72
     1
 11
3706.0
 21
10198.81833494728
 31
0.0
100
AcDbText
  0
TEXT
  5
12594
330
215
100
AcDbEntity
  8
MIDDLETITLE
 62
     6
100
AcDbText
 10
3706.0
 20
4148.825
 30
0.0
 40
100.0
  1

 41
0.8
 72
     1
 11
3706.0
 21
4148.825
 31
0.0
100
AcDbText
  0
TEXT
  5
12595
330
215
100
AcDbEntity
  8
MIDDLETITLE
 62
     6
100
AcDbText
 10
5513.333333333333
 20
10273.99333494728
 30
0.0
 40
100.0
  1
  
 41
0.8
 72
     1
 11
5696.0
 21
10273.99333494728
 31
0.0
100
AcDbText
  0
TEXT
  5
12596
330
215
100
AcDbEntity
  8
MIDDLETITLE
 62
     6
100
AcDbText
 10
5696.0
 20
4224.0
 30
0.0
 40
100.0
  1

 41
0.8
 72
     1
 11
5696.0
 21
4224.0
 31
0.0
100
AcDbText
  0
TEXT
  5
12597
330
215
100
AcDbEntity
  8
MIDDLETITLE
 62
     6
100
AcDbText
 10
11086.28571428571
 20
10259.99333494727
 30
0.0
 40
100.0
  1
   : 
 41
0.8
 72
     1
 11
11800.0
 21
10259.99333494727
 31
0.0
100
AcDbText
  0
TEXT
  5
12598
330
215
100
AcDbEntity
  8
MIDDLETITLE
 62
     6
100
AcDbText
 10
11800.0
 20
4210.0
 30
0.0
 40
100.0
  1

 41
0.8
 72
     1
 11
11800.0
 21
4210.0
 31
0.0
100
AcDbText
  0
TEXT
  5
12602
330
215
100
AcDbEntity
  8
SMALLTITLE
 62
     4
100
AcDbText
 10
1696.0
 20
10133.99333494727
 30
0.0
 40
60.0
  1
S = 1 : 20
 41
0.8
100
AcDbText
  0
TEXT
  5
12603
330
215
100
AcDbEntity
  8
SMALLTITLE
 62
     4
100
AcDbText
 10
3706.0
 20
10058.81833494728
 30
0.0
 40
60.0
  1
S = 1 : 20
 41
0.8
100
AcDbText
  0
TEXT
  5
12604
330
215
100
AcDbEntity
  8
SMALLTITLE
 62
     4
100
AcDbText
 10
5696.0
 20
10133.99333494727
 30
0.0
 40
60.0
  1
S = 1 : 20
 41
0.8
100
AcDbText
  0
TEXT
  5
12824
330
215
100
AcDbEntity
  8
TABLE
 62
     4
100
AcDbText
 10
11669.48185375167
 20
9781.746761662745
 30
0.0
 40
60.0
  1
3)  
 41
0.8
 72
     1
 11
11917.63423470406
 21
9781.746761662745
 31
0.0
100
AcDbText
  0
LINE
  5
12826
330
215
100
AcDbEntity
  8
TABLE
100
AcDbLine
 10
8600.0
 20
8609.993334947281
 30
0.0
 11
14421.09658501594
 21
8609.993334947281
 31
0.0
  0
LINE
  5
12827
330
215
100
AcDbEntity
  8
TABLE
100
AcDbLine
 10
8600.0
 20
8809.993334947282
 30
0.0
 11
14421.09658501594
 21
8809.993334947282
 31
0.0
  0
LINE
  5
12828
330
215
100
AcDbEntity
  8
TABLE
100
AcDbLine
 10
8600.0
 20
9009.993334947282
 30
0.0
 11
14421.09658501594
 21
9009.993334947282
 31
0.0
  0
LINE
  5
12829
330
215
100
AcDbEntity
  8
TABLE
100
AcDbLine
 10
8600.0
 20
9209.993334947283
 30
0.0
 11
14421.09658501594
 21
9209.993334947283
 31
0.0
  0
LINE
  5
1282A
330
215
100
AcDbEntity
  8
TABLE
100
AcDbLine
 10
8600.0
 20
9409.993334947282
 30
0.0
 11
14421.09658501594
 21
9409.993334947282
 31
0.0
  0
LINE
  5
1282B
330
215
100
AcDbEntity
  8
TABLE
100
AcDbLine
 10
8600.0
 20
9609.993334947283
 30
0.0
 11
14421.09658501594
 21
9609.993334947283
 31
0.0
  0
LWPOLYLINE
  5
1282C
330
215
100
AcDbEntity
  8
TABLEOUTLINE
100
AcDbPolyline
 90
        4
 70
     1
 43
0.0
 10
8600.0
 20
9909.993334947282
 10
14421.09658501594
 20
9909.993334947282
 10
14421.09658501594
 20
8409.993334947282
 10
8600.0
 20
8409.993334947282
  0
LINE
  5
1282D
330
215
100
AcDbEntity
  8
TABLE
100
AcDbLine
 10
9400.0
 20
9909.993334947282
 30
0.0
 11
9400.0
 21
8409.993334947282
 31
0.0
  0
TEXT
  5
1282E
330
215
100
AcDbEntity
  8
TABLE
 62
     4
100
AcDbText
 10
8785.333333333333
 20
8879.993334947281
 30
0.0
 40
60.0
  1
 
 41
0.8
 72
     1
 11
9000.0
 21
8879.993334947281
 31
0.0
100
AcDbText
  0
TEXT
  5
1282F
330
215
100
AcDbEntity
  8
TABLE
 62
     4
100
AcDbText
 10
8816.0
 20
8679.993334947281
 30
0.0
 40
60.0
  1
 
 41
0.8
 72
     1
 11
9000.0
 21
8679.993334947281
 31
0.0
100
AcDbText
  0
TEXT
  5
12830
330
215
100
AcDbEntity
  8
TABLE
 62
     4
100
AcDbText
 10
8752.533333333333
 20
8479.993334947279
 30
0.0
 40
60.0
  1
 
 41
0.8
 72
     1
 11
9000.0
 21
8479.993334947279
 31
0.0
100
AcDbText
  0
TEXT
  5
12832
330
215
100
AcDbEntity
  8
TABLE
 62
     4
100
AcDbText
 10
8717.904761904762
 20
9479.993334947279
 30
0.0
 40
60.0
  1
 ()
 41
0.8
 72
     1
 11
9000.0
 21
9479.993334947279
 31
0.0
100
AcDbText
  0
TEXT
  5
12833
330
215
100
AcDbEntity
  8
TABLE
 62
     4
100
AcDbText
 10
8717.904761904762
 20
9279.993334947279
 30
0.0
 40
60.0
  1
 ()
 41
0.8
 72
     1
 11
9000.0
 21
9279.993334947279
 31
0.0
100
AcDbText
  0
TEXT
  5
12834
330
215
100
AcDbEntity
  8
TABLE
 62
     4
100
AcDbText
 10
8816.0
 20
9079.99333494728
 30
0.0
 40
60.0
  1
 
 41
0.8
 72
     1
 11
9000.0
 21
9079.99333494728
 31
0.0
100
AcDbText
  0
TEXT
  5
12835
330
215
100
AcDbEntity
  8
TABLE
 62
     4
100
AcDbText
 10
8941.600000000001
 20
9729.99333494728
 30
0.0
 40
60.0
  1

 41
0.8
 72
     1
 11
9000.0
 21
9729.99333494728
 31
0.0
100
AcDbText
  0
TEXT
  5
12836
330
215
100
AcDbEntity
  8
TABLE
 62
     4
100
AcDbText
 10
10646.25243916309
 20
9671.863213164241
 30
0.0
 40
60.0
  1
  ( )
 41
0.8
 72
     1
 11
10863.85243916309
 21
9671.863213164241
 31
0.0
100
AcDbText
  0
TEXT
  5
12839
330
215
100
AcDbEntity
  8
TABLE
 62
     4
100
AcDbText
 10
10570.93629005435
 20
8474.802896437578
 30
0.0
 40
60.0
  1
W*L*2+(W+L)*T*2
 41
0.8
 72
     1
 11
10892.07914719721
 21
8474.802896437578
 31
0.0
100
AcDbText
  0
TEXT
  5
1283B
330
215
100
AcDbEntity
  8
TABLE
 62
     4
100
AcDbText
 10
10753.76158935069
 20
9279.993334947279
 30
0.0
 40
60.0
  1
-W*L
 41
0.8
 72
     1
 11
10852.0473036364
 21
9279.993334947279
 31
0.0
100
AcDbText
  0
TEXT
  5
1283C
330
215
100
AcDbEntity
  8
TABLE
 62
     4
100
AcDbText
 10
10672.5000582107
 20
9781.746761662745
 30
0.0
 40
60.0
  1
2) 
 41
0.8
 72
     1
 11
10863.85243916309
 21
9781.746761662745
 31
0.0
100
AcDbText
  0
LINE
  5
1283D
330
215
100
AcDbEntity
  8
TABLE
100
AcDbLine
 10
10404.21931700318
 20
9909.993334947282
 30
0.0
 11
10404.21931700318
 21
8409.993334947282
 31
0.0
  0
TEXT
  5
1283E
330
215
100
AcDbEntity
  8
TABLE
 62
     4
100
AcDbText
 10
9579.968771536602
 20
8474.802896437578
 30
0.0
 40
60.0
  1
W*L*2+(W+L)*T*2
 41
0.8
 72
     1
 11
9901.111628679458
 21
8474.802896437578
 31
0.0
100
AcDbText
  0
TEXT
  5
12844
330
215
100
AcDbEntity
  8
TABLE
 62
     4
100
AcDbText
 10
9655.284920645337
 20
9671.863213164241
 30
0.0
 40
60.0
  1
  ( )
 41
0.8
 72
     1
 11
9872.884920645338
 21
9671.863213164241
 31
0.0
100
AcDbText
  0
TEXT
  5
12845
330
215
100
AcDbEntity
  8
TABLE
 62
     4
100
AcDbText
 10
9654.103968264386
 20
9781.746761662745
 30
0.0
 40
60.0
  1
1)  
 41
0.8
 72
     1
 11
9872.884920645338
 21
9781.746761662745
 31
0.0
100
AcDbText
  0
LINE
  5
12846
330
215
100
AcDbEntity
  8
TABLE
100
AcDbLine
 10
11408.43863400637
 20
9909.993334947282
 30
0.0
 11
11408.43863400637
 21
8409.993334947282
 31
0.0
  0
TEXT
  5
12847
330
215
100
AcDbEntity
  8
TABLE
 62
     4
100
AcDbText
 10
11748.03423470406
 20
9671.863213164241
 30
0.0
 40
60.0
  1
 ( )
 41
0.8
 72
     1
 11
11917.63423470406
 21
9671.863213164241
 31
0.0
100
AcDbText
  0
LINE
  5
12848
330
215
100
AcDbEntity
  8
TABLE
100
AcDbLine
 10
12412.65795100956
 20
9909.993334947282
 30
0.0
 11
12412.65795100956
 21
8409.993334947282
 31
0.0
  0
LINE
  5
12849
330
215
100
AcDbEntity
  8
TABLE
100
AcDbLine
 10
13416.87726801275
 20
9909.993334947282
 30
0.0
 11
13416.87726801275
 21
8409.993334947282
 31
0.0
  0
TEXT
  5
1284A
330
215
100
AcDbEntity
  8
TABLE
 62
     4
100
AcDbText
 10
12623.30426515786
 20
9781.746761662745
 30
0.0
 40
60.0
  1
4) 
 41
0.8
 72
     1
 11
12844.25664611025
 21
9781.746761662745
 31
0.0
100
AcDbText
  0
TEXT
  5
1284B
330
215
100
AcDbEntity
  8
TABLE
 62
     4
100
AcDbText
 10
12545.46222107663
 20
9671.863213164241
 30
0.0
 40
60.0
  1
  ()
 41
0.8
 72
     1
 11
12867.83882400126
 21
9671.863213164241
 31
0.0
100
AcDbText
  0
TEXT
  5
1284E
330
215
100
AcDbEntity
  8
TABLE
 62
     4
100
AcDbText
 10
13706.62835779396
 20
9781.746761662745
 30
0.0
 40
60.0
  1
5) 
 41
0.8
 72
     1
 11
13928.11407207968
 21
9781.746761662745
 31
0.0
100
AcDbText
  0
TEXT
  5
12850
330
215
100
AcDbEntity
  8
TABLE
 62
     4
100
AcDbText
 10
13673.4855006511
 20
9671.863213164241
 30
0.0
 40
60.0
  1
  ()
 41
0.8
 72
     1
 11
13928.11407207968
 21
9671.863213164241
 31
0.0
100
AcDbText
  0
TEXT
  5
12851
330
215
100
AcDbEntity
  8
TABLE
 62
     4
100
AcDbText
 10
10753.76158935069
 20
9079.99333494728
 30
0.0
 40
60.0
  1
-W*L
 41
0.8
 72
     1
 11
10852.0473036364
 21
9079.99333494728
 31
0.0
100
AcDbText
  0
TEXT
  5
12852
330
215
100
AcDbEntity
  8
TABLE
 62
     4
100
AcDbText
 10
10753.76158935069
 20
8879.993334947281
 30
0.0
 40
60.0
  1
-W*L
 41
0.8
 72
     1
 11
10852.0473036364
 21
8879.993334947281
 31
0.0
100
AcDbText
  0
TEXT
  5
12853
330
215
100
AcDbEntity
  8
TABLE
 62
     4
100
AcDbText
 10
10753.76158935069
 20
8679.993334947281
 30
0.0
 40
60.0
  1
-W*L
 41
0.8
 72
     1
 11
10852.0473036364
 21
8679.993334947281
 31
0.0
100
AcDbText
  0
TEXT
  5
12854
330
215
100
AcDbEntity
  8
TABLE
 62
     4
100
AcDbText
 10
11583.77091982076
 20
9479.993334947279
 30
0.0
 40
60.0
  1
W*L*2+(W+L)*T*2
 41
0.8
 72
     1
 11
11904.91377696362
 21
9479.993334947279
 31
0.0
100
AcDbText
  0
TEXT
  5
12855
330
215
100
AcDbEntity
  8
TABLE
 62
     4
100
AcDbText
 10
11583.77091982076
 20
9279.993334947279
 30
0.0
 40
60.0
  1
W*L*2+(W+L)*T*2
 41
0.8
 72
     1
 11
11904.91377696362
 21
9279.993334947279
 31
0.0
100
AcDbText
  0
TEXT
  5
12856
330
215
100
AcDbEntity
  8
TABLE
 62
     4
100
AcDbText
 10
11583.77091982076
 20
9079.99333494728
 30
0.0
 40
60.0
  1
W*L*2+(W+L)*T*2
 41
0.8
 72
     1
 11
11904.91377696362
 21
9079.99333494728
 31
0.0
100
AcDbText
  0
TEXT
  5
12857
330
215
100
AcDbEntity
  8
TABLE
 62
     4
100
AcDbText
 10
11583.77091982076
 20
8879.993334947281
 30
0.0
 40
60.0
  1
W*L*2+(W+L)*T*2
 41
0.8
 72
     1
 11
11904.91377696362
 21
8879.993334947281
 31
0.0
100
AcDbText
  0
TEXT
  5
12858
330
215
100
AcDbEntity
  8
TABLE
 62
     4
100
AcDbText
 10
11583.77091982076
 20
8679.993334947281
 30
0.0
 40
60.0
  1
W*L*2+(W+L)*T*2
 41
0.8
 72
     1
 11
11904.91377696362
 21
8679.993334947281
 31
0.0
100
AcDbText
  0
TEXT
  5
12859
330
215
100
AcDbEntity
  8
TABLE
 62
     4
100
AcDbText
 10
12629.13309396681
 20
9279.993334947279
 30
0.0
 40
60.0
  1
W*L+(W+L)*T*2
 41
0.8
 72
     1
 11
12909.1330939668
 21
9279.993334947279
 31
0.0
100
AcDbText
  0
TEXT
  5
1285A
330
215
100
AcDbEntity
  8
TABLE
 62
     4
100
AcDbText
 10
12629.13309396681
 20
9079.99333494728
 30
0.0
 40
60.0
  1
W*L+(W+L)*T*2
 41
0.8
 72
     1
 11
12909.1330939668
 21
9079.99333494728
 31
0.0
100
AcDbText
  0
TEXT
  5
1285B
330
215
100
AcDbEntity
  8
TABLE
 62
     4
100
AcDbText
 10
12629.13309396681
 20
8879.993334947281
 30
0.0
 40
60.0
  1
W*L+(W+L)*T*2
 41
0.8
 72
     1
 11
12909.1330939668
 21
8879.993334947281
 31
0.0
100
AcDbText
  0
TEXT
  5
1285C
330
215
100
AcDbEntity
  8
TABLE
 62
     4
100
AcDbText
 10
12629.13309396681
 20
8679.993334947281
 30
0.0
 40
60.0
  1
W*L+(W+L)*T*2
 41
0.8
 72
     1
 11
12909.1330939668
 21
8679.993334947281
 31
0.0
100
AcDbText
  0
ENDSEC
  0
SECTION
  2
OBJECTS
  0
DICTIONARY
  5
12785
330
0
100
AcDbDictionary
  3
ACAD_GROUP
350
12786
  3
ACAD_LAYOUT
350
12798
  3
ACAD_MLINESTYLE
350
12787
  3
ACAD_PLOTSETTINGS
350
12799
  3
ACAD_PLOTSTYLENAME
350
12796
  3
ACDBHEADERROUNDTRIPXREC
350
1288A
  3
ACDBVARIABLEDICTIONARY
350
1285D
  0
DICTIONARY
  5
127BE
330
215
100
AcDbDictionary
280
     1
  3
ACAD_LAYOUTSELFREF
360
128AA
  0
DICTIONARY
  5
127C0
330
216
100
AcDbDictionary
280
     1
  3
ACAD_LAYOUTSELFREF
360
128AB
  0
DICTIONARY
  5
12786
102
{ACAD_REACTORS
330
12785
102
}
330
12785
100
AcDbDictionary
  0
DICTIONARY
  5
12798
102
{ACAD_REACTORS
330
12785
102
}
330
12785
100
AcDbDictionary
  0
DICTIONARY
  5
12787
102
{ACAD_REACTORS
330
12785
102
}
330
12785
100
AcDbDictionary
  3
STANDARD
350
12788
  0
DICTIONARY
  5
12799
102
{ACAD_REACTORS
330
12785
102
}
330
12785
100
AcDbDictionary
  0
ACDBDICTIONARYWDFLT
  5
12796
102
{ACAD_REACTORS
330
12785
102
}
330
12785
100
AcDbDictionary
281
     1
  3
Normal
350
12797
100
AcDbDictionaryWithDefault
340
12797
  0
DICTIONARY
  5
1288A
102
{ACAD_REACTORS
330
12785
102
}
330
12785
100
AcDbDictionary
  3
CEPSNTYPE
350
12894
  3
FINGERPRINTGUID
350
12895
  3
HYPERLINKBASE
350
1288D
  3
INSUNITS
350
12893
  3
LAYOUTDICT
350
1288F
  3
LWETCUNION
350
12892
  3
PLOTSETDICT
350
12890
  3
PLOTSTYLNAMDICT
350
12891
  3
PSVPSCALE
350
12897
  3
PUCSBASE
350
1289A
  3
PUCSORGBACK
350
128A0
  3
PUCSORGBOTTOM
350
1289C
  3
PUCSORGFRONT
350
1289F
  3
PUCSORGLEFT
350
1289D
  3
PUCSORGRIGHT
350
1289E
  3
PUCSORGTOP
350
1289B
  3
PUCSORTHOREF
350
12898
  3
PUCSORTHOVIEW
350
12899
  3
STYLESHEET
350
1288E
  3
TSTACKALIGN
350
1288B
  3
TSTACKSIZE
350
1288C
  3
UCSBASE
350
128A3
  3
UCSORGBACK
350
128A9
  3
UCSORGBOTTOM
350
128A5
  3
UCSORGFRONT
350
128A8
  3
UCSORGLEFT
350
128A6
  3
UCSORGRIGHT
350
128A7
  3
UCSORGTOP
350
128A4
  3
UCSORTHOREF
350
128A1
  3
UCSORTHOVIEW
350
128A2
  3
VERSIONGUID
350
12896
  0
DICTIONARY
  5
1285D
102
{ACAD_REACTORS
330
12785
102
}
330
12785
100
AcDbDictionary
  3
DIMASSOC
350
1285E
  0
XRECORD
  5
128AA
102
{ACAD_REACTORS
330
127BE
102
}
330
127BE
100
AcDbXrecord
340
215
  0
XRECORD
  5
128AB
102
{ACAD_REACTORS
330
127C0
102
}
330
127C0
100
AcDbXrecord
340
216
  0
MLINESTYLE
  5
12788
102
{ACAD_REACTORS
330
12787
102
}
330
12787
100
AcDbMlineStyle
  2
STANDARD
 70
     0
  3

 62
   256
 51
90.0
 52
90.0
 71
     2
 49
0.5
 62
   256
  6
BYLAYER
 49
-0.5
 62
   256
  6
BYLAYER
  0
ACDBPLACEHOLDER
  5
12797
102
{ACAD_REACTORS
330
12796
102
}
330
12796
100
AcDbPlaceHolder
280
     0
  0
XRECORD
  5
12894
102
{ACAD_REACTORS
330
1288A
102
}
330
1288A
100
AcDbXrecord
 90
        0
  0
XRECORD
  5
12895
102
{ACAD_REACTORS
330
1288A
102
}
330
1288A
100
AcDbXrecord
  1
{F27ED015-18B3-4C4E-8545-5CF046C1FFC9}
  0
XRECORD
  5
1288D
102
{ACAD_REACTORS
330
1288A
102
}
330
1288A
100
AcDbXrecord
  1

  0
XRECORD
  5
12893
102
{ACAD_REACTORS
330
1288A
102
}
330
1288A
100
AcDbXrecord
 90
        0
  0
XRECORD
  5
1288F
102
{ACAD_REACTORS
330
1288A
102
}
330
1288A
100
AcDbXrecord
340
12798
  0
XRECORD
  5
12892
102
{ACAD_REACTORS
330
1288A
102
}
330
1288A
100
AcDbXrecord
 90
    10781
  0
XRECORD
  5
12890
102
{ACAD_REACTORS
330
1288A
102
}
330
1288A
100
AcDbXrecord
340
12799
  0
XRECORD
  5
12891
102
{ACAD_REACTORS
330
1288A
102
}
330
1288A
100
AcDbXrecord
340
12796
  0
XRECORD
  5
12897
102
{ACAD_REACTORS
330
1288A
102
}
330
1288A
100
AcDbXrecord
 40
0.0
  0
XRECORD
  5
1289A
102
{ACAD_REACTORS
330
1288A
102
}
330
1288A
100
AcDbXrecord
340
0
  0
XRECORD
  5
128A0
102
{ACAD_REACTORS
330
1288A
102
}
330
1288A
100
AcDbXrecord
 10
0.0
 20
0.0
 30
0.0
  0
XRECORD
  5
1289C
102
{ACAD_REACTORS
330
1288A
102
}
330
1288A
100
AcDbXrecord
 10
0.0
 20
0.0
 30
0.0
  0
XRECORD
  5
1289F
102
{ACAD_REACTORS
330
1288A
102
}
330
1288A
100
AcDbXrecord
 10
0.0
 20
0.0
 30
0.0
  0
XRECORD
  5
1289D
102
{ACAD_REACTORS
330
1288A
102
}
330
1288A
100
AcDbXrecord
 10
0.0
 20
0.0
 30
0.0
  0
XRECORD
  5
1289E
102
{ACAD_REACTORS
330
1288A
102
}
330
1288A
100
AcDbXrecord
 10
0.0
 20
0.0
 30
0.0
  0
XRECORD
  5
1289B
102
{ACAD_REACTORS
330
1288A
102
}
330
1288A
100
AcDbXrecord
 10
0.0
 20
0.0
 30
0.0
  0
XRECORD
  5
12898
102
{ACAD_REACTORS
330
1288A
102
}
330
1288A
100
AcDbXrecord
340
0
  0
XRECORD
  5
12899
102
{ACAD_REACTORS
330
1288A
102
}
330
1288A
100
AcDbXrecord
 70
     0
  0
XRECORD
  5
1288E
102
{ACAD_REACTORS
330
1288A
102
}
330
1288A
100
AcDbXrecord
  1

  0
XRECORD
  5
1288B
102
{ACAD_REACTORS
330
1288A
102
}
330
1288A
100
AcDbXrecord
 90
        1
  0
XRECORD
  5
1288C
102
{ACAD_REACTORS
330
1288A
102
}
330
1288A
100
AcDbXrecord
 90
       70
  0
XRECORD
  5
128A3
102
{ACAD_REACTORS
330
1288A
102
}
330
1288A
100
AcDbXrecord
340
0
  0
XRECORD
  5
128A9
102
{ACAD_REACTORS
330
1288A
102
}
330
1288A
100
AcDbXrecord
 10
0.0
 20
0.0
 30
0.0
  0
XRECORD
  5
128A5
102
{ACAD_REACTORS
330
1288A
102
}
330
1288A
100
AcDbXrecord
 10
0.0
 20
0.0
 30
0.0
  0
XRECORD
  5
128A8
102
{ACAD_REACTORS
330
1288A
102
}
330
1288A
100
AcDbXrecord
 10
0.0
 20
0.0
 30
0.0
  0
XRECORD
  5
128A6
102
{ACAD_REACTORS
330
1288A
102
}
330
1288A
100
AcDbXrecord
 10
0.0
 20
0.0
 30
0.0
  0
XRECORD
  5
128A7
102
{ACAD_REACTORS
330
1288A
102
}
330
1288A
100
AcDbXrecord
 10
0.0
 20
0.0
 30
0.0
  0
XRECORD
  5
128A4
102
{ACAD_REACTORS
330
1288A
102
}
330
1288A
100
AcDbXrecord
 10
0.0
 20
0.0
 30
0.0
  0
XRECORD
  5
128A1
102
{ACAD_REACTORS
330
1288A
102
}
330
1288A
100
AcDbXrecord
340
0
  0
XRECORD
  5
128A2
102
{ACAD_REACTORS
330
1288A
102
}
330
1288A
100
AcDbXrecord
 70
     0
  0
XRECORD
  5
12896
102
{ACAD_REACTORS
330
1288A
102
}
330
1288A
100
AcDbXrecord
  1
{8ACF54C4-8C81-41B0-B942-34DD7A739137}
  0
DICTIONARYVAR
  5
1285E
102
{ACAD_REACTORS
330
1285D
102
}
330
1285D
100
DictionaryVariables
280
     0
  1
1
  0
ENDSEC
  0
EOF
