  0
SECTION
  2
HEADER
  9
$ACADVER
  1
AC1014
  9
$ACADMAINTVER
 70
     9
  9
$DWGCODEPAGE
  3
ANSI_949
  9
$INSBASE
 10
0.0
 20
0.0
 30
0.0
  9
$EXTMIN
 10
378.0496611842536
 20
5148.737216271384
 30
-0.0000000000000058
  9
$EXTMAX
 10
14769.85721450981
 20
10829.87734577371
 30
0.0000000000000104
  9
$LIMMIN
 10
0.0
 20
0.0
  9
$LIMMAX
 10
16820.0
 20
11880.0
  9
$ORTHOMODE
 70
     1
  9
$REGENMODE
 70
     1
  9
$FILLMODE
 70
     1
  9
$QTEXTMODE
 70
     0
  9
$MIRRTEXT
 70
     0
  9
$DRAGMODE
 70
     2
  9
$LTSCALE
 40
110.0
  9
$OSMODE
 70
    37
  9
$ATTMODE
 70
     1
  9
$TEXTSIZE
 40
0.2
  9
$TRACEWID
 40
0.05
  9
$TEXTSTYLE
  7
STANDARD
  9
$CLAYER
  8
0
  9
$CELTYPE
  6
CONTINUOUS
  9
$CECOLOR
 62
   256
  9
$CELTSCALE
 40
1.0
  9
$DELOBJ
 70
     1
  9
$DISPSILH
 70
     0
  9
$DIMSCALE
 40
20.0
  9
$DIMASZ
 40
1.0
  9
$DIMEXO
 40
0.0
  9
$DIMDLI
 40
0.0
  9
$DIMRND
 40
0.0
  9
$DIMDLE
 40
0.0
  9
$DIMEXE
 40
0.0
  9
$DIMTP
 40
0.0
  9
$DIMTM
 40
0.0
  9
$DIMTXT
 40
2.799999999999998
  9
$DIMCEN
 40
1.0
  9
$DIMTSZ
 40
0.0
  9
$DIMTOL
 70
     0
  9
$DIMLIM
 70
     0
  9
$DIMTIH
 70
     0
  9
$DIMTOH
 70
     0
  9
$DIMSE1
 70
     0
  9
$DIMSE2
 70
     0
  9
$DIMTAD
 70
     3
  9
$DIMZIN
 70
     8
  9
$DIMBLK
  1

  9
$DIMASO
 70
     1
  9
$DIMSHO
 70
     1
  9
$DIMPOST
  1

  9
$DIMAPOST
  1

  9
$DIMALT
 70
     0
  9
$DIMALTD
 70
     2
  9
$DIMALTF
 40
25.4
  9
$DIMLFAC
 40
1.0
  9
$DIMTOFL
 70
     1
  9
$DIMTVP
 40
0.0
  9
$DIMTIX
 70
     1
  9
$DIMSOXD
 70
     0
  9
$DIMSAH
 70
     0
  9
$DIMBLK1
  1

  9
$DIMBLK2
  1

  9
$DIMSTYLE
  2
STANDARD
  9
$DIMCLRD
 70
     1
  9
$DIMCLRE
 70
     1
  9
$DIMCLRT
 70
     4
  9
$DIMTFAC
 40
1.0
  9
$DIMGAP
 40
1.0
  9
$DIMJUST
 70
     0
  9
$DIMSD1
 70
     0
  9
$DIMSD2
 70
     0
  9
$DIMTOLJ
 70
     1
  9
$DIMTZIN
 70
     0
  9
$DIMALTZ
 70
     0
  9
$DIMALTTZ
 70
     0
  9
$DIMFIT
 70
     3
  9
$DIMUPT
 70
     0
  9
$DIMUNIT
 70
     2
  9
$DIMDEC
 70
     1
  9
$DIMTDEC
 70
     4
  9
$DIMALTU
 70
     2
  9
$DIMALTTD
 70
     2
  9
$DIMTXSTY
  7
STANDARD
  9
$DIMAUNIT
 70
     0
  9
$LUNITS
 70
     2
  9
$LUPREC
 70
     4
  9
$SKETCHINC
 40
0.1
  9
$FILLETRAD
 40
0.0
  9
$AUNITS
 70
     0
  9
$AUPREC
 70
     0
  9
$MENU
  1
.
  9
$ELEVATION
 40
0.0
  9
$PELEVATION
 40
0.0
  9
$THICKNESS
 40
0.0
  9
$LIMCHECK
 70
     0
  9
$BLIPMODE
 70
     0
  9
$CHAMFERA
 40
0.0
  9
$CHAMFERB
 40
0.0
  9
$CHAMFERC
 40
0.0
  9
$CHAMFERD
 40
0.0
  9
$SKPOLY
 70
     0
  9
$TDCREATE
 40
2452807.472509849
  9
$TDUPDATE
 40
2454055.438993588
  9
$TDINDWG
 40
0.0091725231
  9
$TDUSRTIMER
 40
0.0091720486
  9
$USRTIMER
 70
     1
  9
$ANGBASE
 50
0.0
  9
$ANGDIR
 70
     0
  9
$PDMODE
 70
     0
  9
$PDSIZE
 40
0.0
  9
$PLINEWID
 40
0.0
  9
$COORDS
 70
     1
  9
$SPLFRAME
 70
     0
  9
$SPLINETYPE
 70
     6
  9
$SPLINESEGS
 70
     8
  9
$ATTDIA
 70
     0
  9
$ATTREQ
 70
     1
  9
$HANDLING
 70
 22529
  9
$HANDSEED
  5
1230F
  9
$SURFTAB1
 70
     6
  9
$SURFTAB2
 70
     6
  9
$SURFTYPE
 70
     6
  9
$SURFU
 70
     6
  9
$SURFV
 70
     6
  9
$UCSNAME
  2

  9
$UCSORG
 10
0.0
 20
0.0
 30
0.0
  9
$UCSXDIR
 10
1.0
 20
0.0
 30
0.0
  9
$UCSYDIR
 10
0.0
 20
1.0
 30
0.0
  9
$PUCSNAME
  2

  9
$PUCSORG
 10
0.0
 20
0.0
 30
0.0
  9
$PUCSXDIR
 10
1.0
 20
0.0
 30
0.0
  9
$PUCSYDIR
 10
0.0
 20
1.0
 30
0.0
  9
$USERI1
 70
     0
  9
$USERI2
 70
     0
  9
$USERI3
 70
     0
  9
$USERI4
 70
     0
  9
$USERI5
 70
     0
  9
$USERR1
 40
0.0
  9
$USERR2
 40
0.0
  9
$USERR3
 40
0.0
  9
$USERR4
 40
0.0
  9
$USERR5
 40
0.0
  9
$WORLDVIEW
 70
     1
  9
$SHADEDGE
 70
     3
  9
$SHADEDIF
 70
    70
  9
$TILEMODE
 70
     1
  9
$MAXACTVP
 70
    64
  9
$PINSBASE
 10
0.0
 20
0.0
 30
0.0
  9
$PLIMCHECK
 70
     0
  9
$PEXTMIN
 10
1.000000000000000E+20
 20
1.000000000000000E+20
 30
1.000000000000000E+20
  9
$PEXTMAX
 10
-1.000000000000000E+20
 20
-1.000000000000000E+20
 30
-1.000000000000000E+20
  9
$PLIMMIN
 10
0.0
 20
0.0
  9
$PLIMMAX
 10
12.0
 20
9.0
  9
$UNITMODE
 70
     0
  9
$VISRETAIN
 70
     1
  9
$PLINEGEN
 70
     0
  9
$PSLTSCALE
 70
     1
  9
$TREEDEPTH
 70
  3020
  9
$PICKSTYLE
 70
     1
  9
$CMLSTYLE
  2
STANDARD
  9
$CMLJUST
 70
     0
  9
$CMLSCALE
 40
1.0
  9
$PROXYGRAPHICS
 70
     1
  9
$MEASUREMENT
 70
     0
  0
ENDSEC
  0
SECTION
  2
CLASSES
  0
CLASS
  1
ACDBDICTIONARYWDFLT
  2
AcDbDictionaryWithDefault
  3
AutoCAD 2000
 90
        0
280
     0
281
     0
  0
CLASS
  1
ACDBPLACEHOLDER
  2
AcDbPlaceHolder
  3
AutoCAD 2000
 90
        0
280
     0
281
     0
  0
CLASS
  1
LAYOUT
  2
AcDbLayout
  3
AutoCAD 2000
 90
        0
280
     0
281
     0
  0
CLASS
  1
LONG_TRANSACTION
  2
AcDbLongTransaction
  3
AutoCAD 2000
 90
        0
280
     0
281
     0
  0
CLASS
  1
LWPOLYLINE
  2
AcDbPolyline
  3
AutoCAD 2000
 90
        0
280
     0
281
     1
  0
CLASS
  1
HATCH
  2
AcDbHatch
  3
AutoCAD 2000
 90
        0
280
     0
281
     1
  0
CLASS
  1
XRECORD
  2
AcDbXrecord
  3
AutoCAD 2000
 90
        0
280
     0
281
     0
  0
CLASS
  1
LONG_TRANSACTION
  2
AcDbLongTransaction
  3
AutoCAD 2000
 90
        0
280
     0
281
     0
  0
CLASS
  1
LWPOLYLINE
  2
AcDbPolyline
  3
AutoCAD 2000
 90
        0
280
     0
281
     1
  0
CLASS
  1
HATCH
  2
AcDbHatch
  3
AutoCAD 2000
 90
        0
280
     0
281
     1
  0
CLASS
  1
XRECORD
  2
AcDbXrecord
  3
AutoCAD 2000
 90
        0
280
     0
281
     0
  0
CLASS
  1
DICTIONARYVAR
  2
AcDbDictionaryVar
  3
AutoCAD 2000
 90
        0
280
     0
281
     0
  0
CLASS
  1
LONG_TRANSACTION
  2
AcDbLongTransaction
  3
AutoCAD 2000
 90
        0
280
     0
281
     0
  0
CLASS
  1
LWPOLYLINE
  2
AcDbPolyline
  3
AutoCAD 2000
 90
        0
280
     0
281
     1
  0
CLASS
  1
HATCH
  2
AcDbHatch
  3
AutoCAD 2000
 90
        0
280
     0
281
     1
  0
CLASS
  1
XRECORD
  2
AcDbXrecord
  3
AutoCAD 2000
 90
        0
280
     0
281
     0
  0
CLASS
  1
LONG_TRANSACTION
  2
AcDbLongTransaction
  3
AutoCAD 2000
 90
        0
280
     0
281
     0
  0
CLASS
  1
LWPOLYLINE
  2
AcDbPolyline
  3
AutoCAD 2000
 90
        0
280
     0
281
     1
  0
CLASS
  1
HATCH
  2
AcDbHatch
  3
AutoCAD 2000
 90
        0
280
     0
281
     1
  0
CLASS
  1
XRECORD
  2
AcDbXrecord
  3
AutoCAD 2000
 90
        0
280
     0
281
     0
  0
CLASS
  1
LONG_TRANSACTION
  2
AcDbLongTransaction
  3
AutoCAD 2000
 90
        0
280
     0
281
     0
  0
CLASS
  1
LWPOLYLINE
  2
AcDbPolyline
  3
AutoCAD 2000
 90
        0
280
     0
281
     1
  0
CLASS
  1
HATCH
  2
AcDbHatch
  3
AutoCAD 2000
 90
        0
280
     0
281
     1
  0
CLASS
  1
XRECORD
  2
AcDbXrecord
  3
AutoCAD 2000
 90
        0
280
     0
281
     0
  0
CLASS
  1
LONG_TRANSACTION
  2
AcDbLongTransaction
  3
AutoCAD 2000
 90
        0
280
     0
281
     0
  0
CLASS
  1
LWPOLYLINE
  2
AcDbPolyline
  3
AutoCAD 2000
 90
        0
280
     0
281
     1
  0
CLASS
  1
HATCH
  2
AcDbHatch
  3
AutoCAD 2000
 90
        0
280
     0
281
     1
  0
CLASS
  1
XRECORD
  2
AcDbXrecord
  3
AutoCAD 2000
 90
        0
280
     0
281
     0
  0
ENDSEC
  0
SECTION
  2
TABLES
  0
TABLE
  2
VPORT
  5
100
330
0
100
AcDbSymbolTable
 70
     2
  0
VPORT
  5
122EC
330
100
100
AcDbSymbolTableRecord
100
AcDbViewportTableRecord
  2
*ACTIVE
 70
     0
 10
0.0
 20
0.0
 11
1.0
 21
1.0
 12
7573.953437847034
 22
7989.307281022547
 13
0.0
 23
0.0
 14
10.0
 24
10.0
 15
10.0
 25
10.0
 16
0.0
 26
0.0
 36
1.0
 17
0.0
 27
0.0
 37
0.0
 40
9129.741937632514
 41
1.584210526315789
 42
50.0
 43
0.0
 44
0.0
 50
0.0
 51
0.0
 71
     0
 72
   100
 73
     1
 74
     3
 75
     0
 76
     0
 77
     0
 78
     0
  0
ENDTAB
  0
TABLE
  2
LTYPE
  5
112
330
0
100
AcDbSymbolTable
 70
     5
  0
LTYPE
  5
113
330
112
100
AcDbSymbolTableRecord
100
AcDbLinetypeTableRecord
  2
BYBLOCK
 70
     0
  3

 72
    65
 73
     0
 40
0.0
  0
LTYPE
  5
114
330
112
100
AcDbSymbolTableRecord
100
AcDbLinetypeTableRecord
  2
BYLAYER
 70
     0
  3

 72
    65
 73
     0
 40
0.0
  0
LTYPE
  5
12207
330
112
100
AcDbSymbolTableRecord
100
AcDbLinetypeTableRecord
  2
CONTINUOUS
 70
     0
  3
Solid line
 72
    65
 73
     0
 40
0.0
  0
LTYPE
  5
115
330
112
100
AcDbSymbolTableRecord
100
AcDbLinetypeTableRecord
  2
LDASHDOT
 70
     0
  3
Hangil LType Dash Dot--- - --- - --- -
 72
    65
 73
     4
 40
2.0
 49
1.25
 74
     0
 49
-0.25
 74
     0
 49
0.25
 74
     0
 49
-0.25
 74
     0
  0
LTYPE
  5
116
330
112
100
AcDbSymbolTableRecord
100
AcDbLinetypeTableRecord
  2
DASH
 70
     0
  3
Hangil LType Dash -- -- -- -- --
 72
    65
 73
     2
 40
0.75
 49
0.5
 74
     0
 49
-0.25
 74
     0
  0
LTYPE
  5
117
330
112
100
AcDbSymbolTableRecord
100
AcDbLinetypeTableRecord
  2
DOT
 70
     0
  3
Hangil LType Dot - - - - - - - -
 72
    65
 73
     2
 40
1.0
 49
0.5
 74
     0
 49
-0.5
 74
     0
  0
LTYPE
  5
118
330
112
100
AcDbSymbolTableRecord
100
AcDbLinetypeTableRecord
  2
LDASHDOTDOT
 70
     0
  3
Hangil LType Dash Dot Dot --- - - --- - - --- -
 72
    65
 73
     6
 40
2.5
 49
1.25
 74
     0
 49
-0.25
 74
     0
 49
0.25
 74
     0
 49
-0.25
 74
     0
 49
0.25
 74
     0
 49
-0.25
 74
     0
  0
ENDTAB
  0
TABLE
  2
LAYER
  5
130
330
0
100
AcDbSymbolTable
 70
    15
  0
LAYER
  5
10
330
130
100
AcDbSymbolTableRecord
100
AcDbLayerTableRecord
  2
0
 70
     0
 62
     7
  6
CONTINUOUS
  0
LAYER
  5
132
330
130
100
AcDbSymbolTableRecord
100
AcDbLayerTableRecord
  2
CUTLINE
 70
     0
 62
     1
  6
LDASHDOT
  0
LAYER
  5
133
330
130
100
AcDbSymbolTableRecord
100
AcDbLayerTableRecord
  2
A_0
 70
     0
 62
     7
  6
CONTINUOUS
  0
LAYER
  5
134
330
130
100
AcDbSymbolTableRecord
100
AcDbLayerTableRecord
  2
MRK
 70
     0
 62
     1
  6
CONTINUOUS
  0
LAYER
  5
135
330
130
100
AcDbSymbolTableRecord
100
AcDbLayerTableRecord
  2
MIDDLETITLE
 70
     0
 62
     6
  6
CONTINUOUS
  0
LAYER
  5
136
330
130
100
AcDbSymbolTableRecord
100
AcDbLayerTableRecord
  2
SYMBOLMARK
 70
     0
 62
     1
  6
CONTINUOUS
  0
LAYER
  5
137
330
130
100
AcDbSymbolTableRecord
100
AcDbLayerTableRecord
  2
DIMENSION
 70
     0
 62
     1
  6
CONTINUOUS
  0
LAYER
  5
138
330
130
100
AcDbSymbolTableRecord
100
AcDbLayerTableRecord
  2
MAINMEMBER
 70
     0
 62
     4
  6
CONTINUOUS
  0
LAYER
  5
139
330
130
100
AcDbSymbolTableRecord
100
AcDbLayerTableRecord
  2
FIELDSPLICE
 70
     0
 62
     7
  6
CONTINUOUS
  0
LAYER
  5
140
330
130
100
AcDbSymbolTableRecord
100
AcDbLayerTableRecord
  2
LARGETITLE
 70
     0
 62
     6
  6
CONTINUOUS
  0
LAYER
  5
141
330
130
100
AcDbSymbolTableRecord
100
AcDbLayerTableRecord
  2
TABLE
 70
     0
 62
     1
  6
CONTINUOUS
  0
LAYER
  5
142
330
130
100
AcDbSymbolTableRecord
100
AcDbLayerTableRecord
  2
DRL
 70
     0
 62
     7
  6
CONTINUOUS
  0
LAYER
  5
143
330
130
100
AcDbSymbolTableRecord
100
AcDbLayerTableRecord
  2
MAINMEMBER__1
 70
     0
 62
     4
  6
DASH
  0
LAYER
  5
144
330
130
100
AcDbSymbolTableRecord
100
AcDbLayerTableRecord
  2
TABLEOUTLINE
 70
     0
 62
    44
  6
CONTINUOUS
  0
LAYER
  5
145
330
130
100
AcDbSymbolTableRecord
100
AcDbLayerTableRecord
  2
SMALLTITLE
 70
     0
 62
     4
  6
CONTINUOUS
  0
ENDTAB
  0
TABLE
  2
STYLE
  5
156
330
0
100
AcDbSymbolTable
 70
     2
  0
STYLE
  5
157
330
156
100
AcDbSymbolTableRecord
100
AcDbTextStyleTableRecord
  2
A_STANDARD
 70
     0
 40
0.0
 41
1.0
 50
0.0
 71
     0
 42
0.0
  3
romans.shx
  4
ghs.shx
  0
STYLE
  5
12208
330
156
100
AcDbSymbolTableRecord
100
AcDbTextStyleTableRecord
  2
STANDARD
 70
     0
 40
0.0
 41
1.0
 50
0.0
 71
     0
 42
0.2
  3

  4

  0
ENDTAB
  0
TABLE
  2
VIEW
  5
168
330
0
100
AcDbSymbolTable
 70
     0
  0
ENDTAB
  0
TABLE
  2
UCS
  5
179
330
0
100
AcDbSymbolTable
 70
     0
  0
ENDTAB
  0
TABLE
  2
APPID
  5
190
330
0
100
AcDbSymbolTable
 70
     1
  0
APPID
  5
191
330
190
100
AcDbSymbolTableRecord
100
AcDbRegAppTableRecord
  2
ACAD
 70
     0
  0
ENDTAB
  0
TABLE
  2
DIMSTYLE
  5
202
330
0
100
AcDbSymbolTable
 70
     1
  0
DIMSTYLE
105
27
330
202
100
AcDbSymbolTableRecord
100
AcDbDimStyleTableRecord
  2
STANDARD
 70
     0
  3

  4

  5

  6

  7

 40
1.0
 41
0.18
 42
0.0625
 43
0.38
 44
20.0
 45
0.0
 46
0.0
 47
0.0
 48
0.0
140
0.0
141
0.09
142
0.0
143
25.4
144
1.0
145
10.0
146
1.0
147
0.09
 71
     0
 72
     0
 73
     1
 74
     1
 75
     0
 76
     0
 77
     0
 78
     0
170
     0
171
     2
172
     0
173
     0
174
     0
175
     0
176
     0
177
     0
178
     0
270
     2
271
     4
272
     4
273
     2
274
     2
340
157
275
     0
280
     0
281
     0
282
     0
283
     1
284
     0
285
     0
286
     0
287
     3
288
     0
  0
ENDTAB
  0
TABLE
  2
BLOCK_RECORD
  5
213
330
0
100
AcDbSymbolTable
 70
     0
  0
BLOCK_RECORD
  5
214
102
{ACAD_XDICTIONARY
360
12233
102
}
330
213
100
AcDbSymbolTableRecord
100
AcDbBlockTableRecord
  2
*MODEL_SPACE
  0
BLOCK_RECORD
  5
215
102
{ACAD_XDICTIONARY
360
12235
102
}
330
213
100
AcDbSymbolTableRecord
100
AcDbBlockTableRecord
  2
*PAPER_SPACE
  0
ENDTAB
  0
ENDSEC
  0
SECTION
  2
BLOCKS
  0
BLOCK
  5
226
330
214
100
AcDbEntity
  8
A_0
100
AcDbBlockBegin
  2
*MODEL_SPACE
 70
     0
 10
0.0
 20
0.0
 30
0.0
  3
*MODEL_SPACE
  1

  0
ENDBLK
  5
227
330
214
100
AcDbEntity
  8
0
100
AcDbBlockEnd
  0
BLOCK
  5
228
330
215
100
AcDbEntity
 67
     1
  8
A_0
100
AcDbBlockBegin
  2
*PAPER_SPACE
 70
     0
 10
0.0
 20
0.0
 30
0.0
  3
*PAPER_SPACE
  1

  0
ENDBLK
  5
229
330
215
100
AcDbEntity
 67
     1
  8
0
100
AcDbBlockEnd
  0
ENDSEC
  0
SECTION
  2
ENTITIES
  0
LINE
  5
10539
330
214
100
AcDbEntity
  8
MAINMEMBER
100
AcDbLine
 10
1442.633412150022
 20
9321.619205992552
 30
0.0
 11
1442.633412150022
 21
9021.619205992553
 31
0.0
  0
LINE
  5
10540
330
214
100
AcDbEntity
  8
MAINMEMBER
100
AcDbLine
 10
1442.633412150022
 20
9021.619205992553
 30
0.0
 11
3390.440459150021
 21
9021.619205992553
 31
0.0
  0
LINE
  5
10541
330
214
100
AcDbEntity
  8
MAINMEMBER
100
AcDbLine
 10
1442.633412150022
 20
9321.619205992552
 30
0.0
 11
3390.440459150021
 21
9321.619205992552
 31
0.0
  0
LINE
  5
10542
330
214
100
AcDbEntity
  8
MAINMEMBER
100
AcDbLine
 10
998.6712851500216
 20
9471.699605992553
 30
0.0
 11
1012.94257615002
 21
9476.318075992553
 31
0.0
  0
LINE
  5
10543
330
214
100
AcDbEntity
  8
MAINMEMBER
100
AcDbLine
 10
1192.672274150021
 20
8872.227443992553
 30
0.0
 11
998.6712851500216
 21
9471.699605992553
 31
0.0
  0
LINE
  5
10544
330
214
100
AcDbEntity
  8
MAINMEMBER
100
AcDbLine
 10
1206.943564150019
 20
8876.845913992552
 30
0.0
 11
1192.672274150021
 21
8872.227443992553
 31
0.0
  0
LINE
  5
10545
330
214
100
AcDbEntity
  8
MAINMEMBER
100
AcDbLine
 10
1442.625406150022
 20
9022.910961992554
 30
0.0
 11
1300.619326150022
 21
8973.394575992552
 31
0.0
  0
LINE
  5
10546
330
214
100
AcDbEntity
  8
MAINMEMBER
100
AcDbLine
 10
1441.805705150021
 20
9322.909841992553
 30
0.0
 11
1442.625406150022
 21
9022.910961992554
 31
0.0
  0
LINE
  5
10547
330
214
100
AcDbEntity
  8
MAINMEMBER
100
AcDbLine
 10
1117.272219150021
 20
9392.992205992552
 30
0.0
 11
1441.805705150021
 21
9322.909841992553
 31
0.0
  0
LINE
  5
10548
330
214
100
AcDbEntity
  8
MAINMEMBER
100
AcDbLine
 10
5338.247506150024
 20
9177.619205992552
 30
0.0
 11
3390.440459150021
 21
9177.619205992552
 31
0.0
  0
LINE
  5
10549
330
214
100
AcDbEntity
  8
MAINMEMBER
100
AcDbLine
 10
5338.247506150024
 20
9165.619205992554
 30
0.0
 11
3390.440459150021
 21
9165.619205992554
 31
0.0
  0
LINE
  5
10550
330
214
100
AcDbEntity
  8
MAINMEMBER
100
AcDbLine
 10
5338.247506150024
 20
9321.619205992552
 30
0.0
 11
5338.247506150024
 21
9021.619205992553
 31
0.0
  0
LINE
  5
10551
330
214
100
AcDbEntity
  8
MAINMEMBER
100
AcDbLine
 10
5338.247506150024
 20
9021.619205992553
 30
0.0
 11
3390.440459150021
 21
9021.619205992553
 31
0.0
  0
LINE
  5
10552
330
214
100
AcDbEntity
  8
MAINMEMBER
100
AcDbLine
 10
5338.247506150024
 20
9321.619205992552
 30
0.0
 11
3390.440459150021
 21
9321.619205992552
 31
0.0
  0
LINE
  5
10553
330
214
100
AcDbEntity
  8
MAINMEMBER
100
AcDbLine
 10
5699.523234150023
 20
9471.930831992553
 30
0.0
 11
5685.301277150021
 21
9467.16261099255
 31
0.0
  0
LINE
  5
10554
330
214
100
AcDbEntity
  8
MAINMEMBER
100
AcDbLine
 10
5900.871950150023
 20
8871.376988992553
 30
0.0
 11
5699.523234150023
 21
9471.930831992553
 31
0.0
  0
LINE
  5
10555
330
214
100
AcDbEntity
  8
MAINMEMBER
100
AcDbLine
 10
5886.649993150022
 20
8866.608768992552
 30
0.0
 11
5900.871950150023
 21
8871.376988992553
 31
0.0
  0
LINE
  5
10556
330
214
100
AcDbEntity
  8
MAINMEMBER
100
AcDbLine
 10
5337.400261150021
 20
9022.921172992552
 30
0.0
 11
5778.75100515002
 21
8946.182113992552
 31
0.0
  0
LINE
  5
10557
330
214
100
AcDbEntity
  8
MAINMEMBER
100
AcDbLine
 10
5338.222103150022
 20
9322.920046992553
 30
0.0
 11
5337.400261150021
 21
9022.921172992552
 31
0.0
  0
LINE
  5
10558
330
214
100
AcDbEntity
  8
MAINMEMBER
100
AcDbLine
 10
5583.554793150022
 20
9382.337281992553
 30
0.0
 11
5338.222103150022
 21
9322.920046992553
 31
0.0
  0
LINE
  5
10559
330
214
100
AcDbEntity
  8
MAINMEMBER
100
AcDbLine
 10
5798.197597150023
 20
9177.619205992552
 30
0.0
 11
5338.247506150024
 21
9177.947448992552
 31
0.0
  0
LINE
  5
10560
330
214
100
AcDbEntity
  8
MAINMEMBER
100
AcDbLine
 10
5802.220858150021
 20
9165.619205992554
 30
0.0
 11
5338.247506150024
 21
9165.290962992553
 31
0.0
  0
LINE
  5
10561
330
214
100
AcDbEntity
  8
MAINMEMBER
100
AcDbLine
 10
2785.889656150022
 20
9171.619205992554
 30
0.0
 11
2785.889656150022
 21
9171.619205992554
 31
0.0
  0
LINE
  5
10562
330
214
100
AcDbEntity
  8
MAINMEMBER
100
AcDbLine
 10
2785.889656150022
 20
9171.619205992554
 30
0.0
 11
2785.889656150022
 21
9171.619205992554
 31
0.0
  0
LINE
  5
10563
330
214
100
AcDbEntity
  8
MAINMEMBER
100
AcDbLine
 10
2785.889656150022
 20
9171.619205992554
 30
0.0
 11
2785.889656150022
 21
9171.619205992554
 31
0.0
  0
LINE
  5
10564
330
214
100
AcDbEntity
  8
MAINMEMBER
100
AcDbLine
 10
2785.889656150022
 20
9171.619205992554
 30
0.0
 11
2785.889656150022
 21
9171.619205992554
 31
0.0
  0
LINE
  5
10565
330
214
100
AcDbEntity
  8
MAINMEMBER
100
AcDbLine
 10
2785.889656150022
 20
9171.619205992554
 30
0.0
 11
2785.889656150022
 21
9171.619205992554
 31
0.0
  0
LINE
  5
10566
330
214
100
AcDbEntity
  8
MAINMEMBER
100
AcDbLine
 10
2785.889656150022
 20
9171.619205992554
 30
0.0
 11
2785.889656150022
 21
9171.619205992554
 31
0.0
  0
LINE
  5
10567
330
214
100
AcDbEntity
  8
MAINMEMBER
100
AcDbLine
 10
2785.889656150022
 20
9171.619205992554
 30
0.0
 11
2785.889656150022
 21
9171.619205992554
 31
0.0
  0
LINE
  5
10568
330
214
100
AcDbEntity
  8
MAINMEMBER
100
AcDbLine
 10
2785.889656150022
 20
9171.619205992554
 30
0.0
 11
2785.889656150022
 21
9171.619205992554
 31
0.0
  0
LINE
  5
10569
330
214
100
AcDbEntity
  8
MAINMEMBER
100
AcDbLine
 10
5119.655861150022
 20
6034.200398992553
 30
0.0
 11
5119.655861150022
 21
6022.200398992552
 31
0.0
  0
LINE
  5
10570
330
214
100
AcDbEntity
  8
MAINMEMBER
100
AcDbLine
 10
4857.155861150022
 20
6014.867255992553
 30
0.0
 11
5119.655861150022
 21
6022.200398992552
 31
0.0
  0
LINE
  5
10571
330
214
100
AcDbEntity
  8
MAINMEMBER
100
AcDbLine
 10
4857.155861150022
 20
6026.867255992552
 30
0.0
 11
5119.655861150022
 21
6034.200398992553
 31
0.0
  0
LINE
  5
10572
330
214
100
AcDbEntity
  8
MAINMEMBER
100
AcDbLine
 10
5119.655861150022
 20
7484.200398992553
 30
0.0
 11
5119.655861150022
 21
7496.200398992552
 31
0.0
  0
LINE
  5
10573
330
214
100
AcDbEntity
  8
MAINMEMBER
100
AcDbLine
 10
4857.155861150022
 20
7488.867255992552
 30
0.0
 11
5119.655861150022
 21
7496.200398992552
 31
0.0
  0
LINE
  5
10574
330
214
100
AcDbEntity
  8
MAINMEMBER
100
AcDbLine
 10
4857.155861150022
 20
7476.867255992553
 30
0.0
 11
5119.655861150022
 21
7484.200398992553
 31
0.0
  0
LINE
  5
10575
330
214
100
AcDbEntity
  8
MAINMEMBER
100
AcDbLine
 10
4837.155861150023
 20
6014.308540992552
 30
0.0
 11
4857.155861150022
 21
6014.867255992553
 31
0.0
  0
LINE
  5
10576
330
214
100
AcDbEntity
  8
MAINMEMBER
100
AcDbLine
 10
4837.155861150023
 20
6026.308540992552
 30
0.0
 11
4857.155861150022
 21
6026.867255992552
 31
0.0
  0
LINE
  5
10577
330
214
100
AcDbEntity
  8
MAINMEMBER
100
AcDbLine
 10
4837.155861150023
 20
7488.308540992552
 30
0.0
 11
4857.155861150022
 21
7488.867255992552
 31
0.0
  0
LINE
  5
10578
330
214
100
AcDbEntity
  8
MAINMEMBER
100
AcDbLine
 10
4837.155861150023
 20
7476.308540992552
 30
0.0
 11
4857.155861150022
 21
7476.867255992553
 31
0.0
  0
LINE
  5
10579
330
214
100
AcDbEntity
  8
MAINMEMBER
100
AcDbLine
 10
3420.46274315002
 20
5974.732113992552
 30
0.0
 11
4837.155861150023
 21
6014.308540992552
 31
0.0
  0
LINE
  5
10580
330
214
100
AcDbEntity
  8
MAINMEMBER
100
AcDbLine
 10
3420.46274315002
 20
5986.732113992553
 30
0.0
 11
4837.155861150023
 21
6026.308540992552
 31
0.0
  0
LINE
  5
10581
330
214
100
AcDbEntity
  8
MAINMEMBER
100
AcDbLine
 10
3420.46274315002
 20
7448.732113992551
 30
0.0
 11
4837.155861150023
 21
7488.308540992552
 31
0.0
  0
LINE
  5
10582
330
214
100
AcDbEntity
  8
MAINMEMBER
100
AcDbLine
 10
3420.46274315002
 20
7436.732113992552
 30
0.0
 11
4837.155861150023
 21
7476.308540992552
 31
0.0
  0
LINE
  5
10583
330
214
100
AcDbEntity
  8
MAINMEMBER
100
AcDbLine
 10
3270.462743150023
 20
5970.541746992552
 30
0.0
 11
3420.46274315002
 21
5974.732113992552
 31
0.0
  0
LINE
  5
10584
330
214
100
AcDbEntity
  8
MAINMEMBER
100
AcDbLine
 10
3270.462743150023
 20
5982.541746992552
 30
0.0
 11
3420.46274315002
 21
5986.732113992553
 31
0.0
  0
LINE
  5
10585
330
214
100
AcDbEntity
  8
MAINMEMBER
100
AcDbLine
 10
3270.462743150023
 20
7444.541746992553
 30
0.0
 11
3420.46274315002
 21
7448.732113992551
 31
0.0
  0
LINE
  5
10586
330
214
100
AcDbEntity
  8
MAINMEMBER
100
AcDbLine
 10
3270.462743150023
 20
7432.541746992552
 30
0.0
 11
3420.46274315002
 21
7436.732113992552
 31
0.0
  0
LINE
  5
10587
330
214
100
AcDbEntity
  8
MAINMEMBER
100
AcDbLine
 10
3120.462743150023
 20
5966.351379992552
 30
0.0
 11
3270.462743150023
 21
5970.541746992552
 31
0.0
  0
LINE
  5
10588
330
214
100
AcDbEntity
  8
MAINMEMBER
100
AcDbLine
 10
3120.462743150023
 20
5978.351379992552
 30
0.0
 11
3270.462743150023
 21
5982.541746992552
 31
0.0
  0
LINE
  5
10589
330
214
100
AcDbEntity
  8
MAINMEMBER
100
AcDbLine
 10
3120.462743150023
 20
7440.351379992552
 30
0.0
 11
3270.462743150023
 21
7444.541746992553
 31
0.0
  0
LINE
  5
10590
330
214
100
AcDbEntity
  8
MAINMEMBER
100
AcDbLine
 10
3120.462743150023
 20
7428.351379992553
 30
0.0
 11
3270.462743150023
 21
7432.541746992552
 31
0.0
  0
LINE
  5
10591
330
214
100
AcDbEntity
  8
MAINMEMBER
100
AcDbLine
 10
1702.155861150022
 20
5926.729870992552
 30
0.0
 11
3120.462743150023
 21
5966.351379992552
 31
0.0
  0
LINE
  5
10592
330
214
100
AcDbEntity
  8
MAINMEMBER
100
AcDbLine
 10
1702.155861150022
 20
5938.729870992553
 30
0.0
 11
3120.462743150023
 21
5978.351379992552
 31
0.0
  0
LINE
  5
10593
330
214
100
AcDbEntity
  8
MAINMEMBER
100
AcDbLine
 10
1702.155861150022
 20
7400.729870992552
 30
0.0
 11
3120.462743150023
 21
7440.351379992552
 31
0.0
  0
LINE
  5
10594
330
214
100
AcDbEntity
  8
MAINMEMBER
100
AcDbLine
 10
1702.155861150022
 20
7388.729870992553
 30
0.0
 11
3120.462743150023
 21
7428.351379992553
 31
0.0
  0
LINE
  5
10595
330
214
100
AcDbEntity
  8
MAINMEMBER
100
AcDbLine
 10
1682.155861150022
 20
5926.171155992552
 30
0.0
 11
1702.155861150022
 21
5926.729870992552
 31
0.0
  0
LINE
  5
10596
330
214
100
AcDbEntity
  8
MAINMEMBER
100
AcDbLine
 10
1682.155861150022
 20
5938.171155992552
 30
0.0
 11
1702.155861150022
 21
5938.729870992553
 31
0.0
  0
LINE
  5
10597
330
214
100
AcDbEntity
  8
MAINMEMBER
100
AcDbLine
 10
1682.155861150022
 20
7400.171155992552
 30
0.0
 11
1702.155861150022
 21
7400.729870992552
 31
0.0
  0
LINE
  5
10598
330
214
100
AcDbEntity
  8
MAINMEMBER
100
AcDbLine
 10
1682.155861150022
 20
7388.171155992552
 30
0.0
 11
1702.155861150022
 21
7388.729870992553
 31
0.0
  0
LINE
  5
10599
330
214
100
AcDbEntity
  8
MAINMEMBER
100
AcDbLine
 10
1419.655861150022
 20
5930.838012992552
 30
0.0
 11
1419.655861150022
 21
5918.838012992552
 31
0.0
  0
LINE
  5
10600
330
214
100
AcDbEntity
  8
MAINMEMBER
100
AcDbLine
 10
1419.655861150022
 20
5918.838012992552
 30
0.0
 11
1682.155861150022
 21
5926.171155992552
 31
0.0
  0
LINE
  5
10601
330
214
100
AcDbEntity
  8
MAINMEMBER
100
AcDbLine
 10
1419.655861150022
 20
5930.838012992552
 30
0.0
 11
1682.155861150022
 21
5938.171155992552
 31
0.0
  0
LINE
  5
10602
330
214
100
AcDbEntity
  8
MAINMEMBER
100
AcDbLine
 10
1419.655861150022
 20
7380.838012992552
 30
0.0
 11
1419.655861150022
 21
7392.838012992553
 31
0.0
  0
LINE
  5
10603
330
214
100
AcDbEntity
  8
MAINMEMBER
100
AcDbLine
 10
1419.655861150022
 20
7392.838012992553
 30
0.0
 11
1682.155861150022
 21
7400.171155992552
 31
0.0
  0
LINE
  5
10604
330
214
100
AcDbEntity
  8
MAINMEMBER
100
AcDbLine
 10
1419.655861150022
 20
7380.838012992552
 30
0.0
 11
1682.155861150022
 21
7388.171155992552
 31
0.0
  0
LINE
  5
10605
330
214
100
AcDbEntity
  8
MAINMEMBER
100
AcDbLine
 10
1419.655861150022
 20
5940.838012992553
 30
0.0
 11
1419.655861150022
 21
7370.838012992553
 31
0.0
  0
LINE
  5
10606
330
214
100
AcDbEntity
  8
MAINMEMBER
100
AcDbLine
 10
1429.651961150022
 20
5931.117261992553
 30
0.0
 11
1419.655861150022
 21
5940.838012992553
 31
0.0
  0
LINE
  5
10607
330
214
100
AcDbEntity
  8
MAINMEMBER
100
AcDbLine
 10
1702.155861150022
 20
5938.729870992553
 30
0.0
 11
1429.651961150022
 21
5931.117261992553
 31
0.0
  0
LINE
  5
10608
330
214
100
AcDbEntity
  8
MAINMEMBER
100
AcDbLine
 10
4837.155861150023
 20
6026.308540992552
 30
0.0
 11
1702.155861150022
 21
5938.729870992553
 31
0.0
  0
LINE
  5
10609
330
214
100
AcDbEntity
  8
MAINMEMBER
100
AcDbLine
 10
5109.659761150022
 20
6033.921149992552
 30
0.0
 11
4837.155861150023
 21
6026.308540992552
 31
0.0
  0
LINE
  5
10610
330
214
100
AcDbEntity
  8
MAINMEMBER
100
AcDbLine
 10
5119.655861150022
 20
6044.200398992552
 30
0.0
 11
5109.659761150022
 21
6033.921149992552
 31
0.0
  0
LINE
  5
10611
330
214
100
AcDbEntity
  8
MAINMEMBER
100
AcDbLine
 10
5119.655861150022
 20
7474.200398992552
 30
0.0
 11
5119.655861150022
 21
6044.200398992552
 31
0.0
  0
LINE
  5
10612
330
214
100
AcDbEntity
  8
MAINMEMBER
100
AcDbLine
 10
5109.659761150022
 20
7483.921149992553
 30
0.0
 11
5119.655861150022
 21
7474.200398992552
 31
0.0
  0
LINE
  5
10613
330
214
100
AcDbEntity
  8
MAINMEMBER
100
AcDbLine
 10
4837.155861150023
 20
7476.308540992552
 30
0.0
 11
5109.659761150022
 21
7483.921149992553
 31
0.0
  0
LINE
  5
10614
330
214
100
AcDbEntity
  8
MAINMEMBER
100
AcDbLine
 10
1702.155861150022
 20
7388.729870992553
 30
0.0
 11
4837.155861150023
 21
7476.308540992552
 31
0.0
  0
LINE
  5
10615
330
214
100
AcDbEntity
  8
MAINMEMBER
100
AcDbLine
 10
1429.651961150022
 20
7381.117261992553
 30
0.0
 11
1702.155861150022
 21
7388.729870992553
 31
0.0
  0
LINE
  5
10616
330
214
100
AcDbEntity
  8
MAINMEMBER
100
AcDbLine
 10
1419.655861150022
 20
7370.838012992553
 30
0.0
 11
1429.651961150022
 21
7381.117261992553
 31
0.0
  0
LINE
  5
10617
330
214
100
AcDbEntity
  8
MAINMEMBER
100
AcDbLine
 10
2442.055497150022
 20
7621.590648992553
 30
0.0
 11
2442.055497150022
 21
7621.590648992553
 31
0.0
  0
LINE
  5
10618
330
214
100
AcDbEntity
  8
MAINMEMBER
100
AcDbLine
 10
2647.675350150022
 20
7427.144057992551
 30
0.0
 11
2442.055497150022
 21
7621.590648992553
 31
0.0
  0
LINE
  5
10619
330
214
100
AcDbEntity
  8
MAINMEMBER
100
AcDbLine
 10
2747.636372150022
 20
7429.935820992553
 30
0.0
 11
2647.675350150022
 21
7427.144057992551
 31
0.0
  0
LINE
  5
10620
330
214
100
AcDbEntity
  8
MAINMEMBER
100
AcDbLine
 10
2942.082962150023
 20
7635.555673992552
 30
0.0
 11
2747.636372150022
 21
7429.935820992553
 31
0.0
  0
LINE
  5
10621
330
214
100
AcDbEntity
  8
MAINMEMBER
100
AcDbLine
 10
2942.082962150023
 20
7635.555673992552
 30
0.0
 11
2942.082962150023
 21
7635.555673992552
 31
0.0
  0
LINE
  5
10622
330
214
100
AcDbEntity
  8
MAINMEMBER
100
AcDbLine
 10
2747.636372150022
 20
7429.935820992553
 30
0.0
 11
2942.082962150023
 21
7635.555673992552
 31
0.0
  0
LINE
  5
10623
330
214
100
AcDbEntity
  8
MAINMEMBER
100
AcDbLine
 10
2647.675350150022
 20
7427.144057992551
 30
0.0
 11
2747.636372150022
 21
7429.935820992553
 31
0.0
  0
LINE
  5
10624
330
214
100
AcDbEntity
  8
MAINMEMBER
100
AcDbLine
 10
2442.055497150022
 20
7621.590648992553
 30
0.0
 11
2647.675350150022
 21
7427.144057992551
 31
0.0
  0
LINE
  5
10625
330
214
100
AcDbEntity
  8
MAINMEMBER
100
AcDbLine
 10
3585.055497150022
 20
7653.521244992552
 30
0.0
 11
3585.055497150022
 21
7653.521244992552
 31
0.0
  0
LINE
  5
10626
330
214
100
AcDbEntity
  8
MAINMEMBER
100
AcDbLine
 10
3790.675350150022
 20
7459.074654992552
 30
0.0
 11
3585.055497150022
 21
7653.521244992552
 31
0.0
  0
LINE
  5
10627
330
214
100
AcDbEntity
  8
MAINMEMBER
100
AcDbLine
 10
3890.63637215002
 20
7461.866417992553
 30
0.0
 11
3790.675350150022
 21
7459.074654992552
 31
0.0
  0
LINE
  5
10628
330
214
100
AcDbEntity
  8
MAINMEMBER
100
AcDbLine
 10
4085.082962150023
 20
7667.486269992553
 30
0.0
 11
3890.63637215002
 21
7461.866417992553
 31
0.0
  0
LINE
  5
10629
330
214
100
AcDbEntity
  8
MAINMEMBER
100
AcDbLine
 10
4085.082962150023
 20
7667.486269992553
 30
0.0
 11
4085.082962150023
 21
7667.486269992553
 31
0.0
  0
LINE
  5
10630
330
214
100
AcDbEntity
  8
MAINMEMBER
100
AcDbLine
 10
3890.63637215002
 20
7461.866417992553
 30
0.0
 11
4085.082962150023
 21
7667.486269992553
 31
0.0
  0
LINE
  5
10631
330
214
100
AcDbEntity
  8
MAINMEMBER
100
AcDbLine
 10
3790.675350150022
 20
7459.074654992552
 30
0.0
 11
3890.63637215002
 21
7461.866417992553
 31
0.0
  0
LINE
  5
10632
330
214
100
AcDbEntity
  8
MAINMEMBER
100
AcDbLine
 10
3585.055497150022
 20
7653.521244992552
 30
0.0
 11
3790.675350150022
 21
7459.074654992552
 31
0.0
  0
LINE
  5
10633
330
214
100
AcDbEntity
  8
MAINMEMBER
100
AcDbLine
 10
1089.655861150021
 20
7383.619205992552
 30
0.0
 11
1419.655861150022
 21
7392.838012992553
 31
0.0
  0
LINE
  5
10634
330
214
100
AcDbEntity
  8
MAINMEMBER
100
AcDbLine
 10
1089.655861150021
 20
7371.619205992553
 30
0.0
 11
1419.655861150022
 21
7380.838012992552
 31
0.0
  0
LINE
  5
10635
330
214
100
AcDbEntity
  8
MAINMEMBER
100
AcDbLine
 10
1089.655861150021
 20
7383.619205992552
 30
0.0
 11
1089.655861150021
 21
7371.619205992553
 31
0.0
  0
LINE
  5
10636
330
214
100
AcDbEntity
  8
MAINMEMBER
100
AcDbLine
 10
1419.655861150022
 20
7392.838012992553
 30
0.0
 11
1419.655861150022
 21
7380.838012992552
 31
0.0
  0
LINE
  5
10637
330
214
100
AcDbEntity
  8
MAINMEMBER
100
AcDbLine
 10
981.6558611500225
 20
5918.602141992553
 30
0.0
 11
981.6558611500225
 21
5906.602141992553
 31
0.0
  0
LINE
  5
10638
330
214
100
AcDbEntity
  8
MAINMEMBER
100
AcDbLine
 10
981.6558611500225
 20
5918.602141992553
 30
0.0
 11
1419.655861150022
 21
5930.838012992552
 31
0.0
  0
LINE
  5
10639
330
214
100
AcDbEntity
  8
MAINMEMBER
100
AcDbLine
 10
981.6558611500225
 20
5906.602141992553
 30
0.0
 11
1419.655861150022
 21
5918.838012992552
 31
0.0
  0
LINE
  5
10640
330
214
100
AcDbEntity
  8
MAINMEMBER
100
AcDbLine
 10
1419.655861150022
 20
5930.838012992552
 30
0.0
 11
1419.655861150022
 21
5918.838012992552
 31
0.0
  0
LINE
  5
10641
330
214
100
AcDbEntity
  8
MAINMEMBER
100
AcDbLine
 10
5119.655861150022
 20
7496.200398992552
 30
0.0
 11
5449.655861150024
 21
7505.419205992552
 31
0.0
  0
LINE
  5
10642
330
214
100
AcDbEntity
  8
MAINMEMBER
100
AcDbLine
 10
5119.655861150022
 20
7484.200398992553
 30
0.0
 11
5449.655861150024
 21
7493.419205992552
 31
0.0
  0
LINE
  5
10643
330
214
100
AcDbEntity
  8
MAINMEMBER
100
AcDbLine
 10
5119.655861150022
 20
7496.200398992552
 30
0.0
 11
5119.655861150022
 21
7484.200398992553
 31
0.0
  0
LINE
  5
10644
330
214
100
AcDbEntity
  8
MAINMEMBER
100
AcDbLine
 10
5449.655861150024
 20
7505.419205992552
 30
0.0
 11
5449.655861150024
 21
7493.419205992552
 31
0.0
  0
LINE
  5
10645
330
214
100
AcDbEntity
  8
MAINMEMBER
100
AcDbLine
 10
5557.655861150022
 20
6046.436269992552
 30
0.0
 11
5557.655861150022
 21
6034.436269992553
 31
0.0
  0
LINE
  5
10646
330
214
100
AcDbEntity
  8
MAINMEMBER
100
AcDbLine
 10
5557.655861150022
 20
6046.436269992552
 30
0.0
 11
5119.655861150022
 21
6034.200398992553
 31
0.0
  0
LINE
  5
10647
330
214
100
AcDbEntity
  8
MAINMEMBER
100
AcDbLine
 10
5557.655861150022
 20
6034.436269992553
 30
0.0
 11
5119.655861150022
 21
6022.200398992552
 31
0.0
  0
LINE
  5
10648
330
214
100
AcDbEntity
  8
MAINMEMBER
100
AcDbLine
 10
5119.655861150022
 20
6034.200398992553
 30
0.0
 11
5119.655861150022
 21
6022.200398992552
 31
0.0
  0
LINE
  5
10649
330
214
100
AcDbEntity
  8
MAINMEMBER
100
AcDbLine
 10
981.6558611500225
 20
5953.602141992553
 30
0.0
 11
981.6558611500225
 21
7336.619205992552
 31
0.0
  0
LINE
  5
10650
330
214
100
AcDbEntity
  8
MAINMEMBER
100
AcDbLine
 10
1409.659761150022
 20
5930.558763992553
 30
0.0
 11
1016.64221215002
 21
5919.579512992553
 31
0.0
  0
LINE
  5
10651
330
214
100
AcDbEntity
  8
MAINMEMBER
100
AcDbLine
 10
1419.655861150022
 20
5940.838012992553
 30
0.0
 11
1409.659761150022
 21
5930.558763992553
 31
0.0
  0
LINE
  5
10652
330
214
100
AcDbEntity
  8
MAINMEMBER
100
AcDbLine
 10
1419.655861150022
 20
7370.838012992553
 30
0.0
 11
1419.655861150022
 21
5940.838012992553
 31
0.0
  0
LINE
  5
10653
330
214
100
AcDbEntity
  8
MAINMEMBER
100
AcDbLine
 10
1409.659761150022
 20
7380.558763992552
 30
0.0
 11
1419.655861150022
 21
7370.838012992553
 31
0.0
  0
LINE
  5
10654
330
214
100
AcDbEntity
  8
MAINMEMBER
100
AcDbLine
 10
1124.655861150021
 20
7372.596957992552
 30
0.0
 11
1409.659761150022
 21
7380.558763992552
 31
0.0
  0
LINE
  5
10655
330
214
100
AcDbEntity
  8
MAINMEMBER
100
AcDbLine
 10
981.6558611500225
 20
7336.619205992552
 30
0.0
 11
1089.655861150021
 21
7336.619205992552
 31
0.0
  0
LINE
  5
10656
330
214
100
AcDbEntity
  8
MAINMEMBER
100
AcDbLine
 10
5119.655861150022
 20
6044.200398992552
 30
0.0
 11
5119.655861150022
 21
7474.200398992552
 31
0.0
  0
LINE
  5
10657
330
214
100
AcDbEntity
  8
MAINMEMBER
100
AcDbLine
 10
5129.651961150024
 20
6034.479647992553
 30
0.0
 11
5119.655861150022
 21
6044.200398992552
 31
0.0
  0
LINE
  5
10658
330
214
100
AcDbEntity
  8
MAINMEMBER
100
AcDbLine
 10
5522.669510150024
 20
6045.458898992553
 30
0.0
 11
5129.651961150024
 21
6034.479647992553
 31
0.0
  0
LINE
  5
10659
330
214
100
AcDbEntity
  8
MAINMEMBER
100
AcDbLine
 10
5557.655861150022
 20
7458.419205992552
 30
0.0
 11
5557.655861150022
 21
6081.436269992552
 31
0.0
  0
LINE
  5
10660
330
214
100
AcDbEntity
  8
MAINMEMBER
100
AcDbLine
 10
5449.655861150024
 20
7458.419205992552
 30
0.0
 11
5557.655861150022
 21
7458.419205992552
 31
0.0
  0
LINE
  5
10661
330
214
100
AcDbEntity
  8
MAINMEMBER
100
AcDbLine
 10
5129.651961150024
 20
7484.479647992554
 30
0.0
 11
5414.655861150023
 21
7492.441453992551
 31
0.0
  0
LINE
  5
10662
330
214
100
AcDbEntity
  8
MAINMEMBER
100
AcDbLine
 10
5119.655861150022
 20
7474.200398992552
 30
0.0
 11
5129.651961150024
 21
7484.479647992554
 31
0.0
  0
LINE
  5
10663
330
214
100
AcDbEntity
  8
MAINMEMBER
100
AcDbLine
 10
1383.859413150021
 20
5862.774940992553
 30
0.0
 11
1392.36086515002
 21
5857.509457992552
 31
0.0
  0
LINE
  5
10664
330
214
100
AcDbEntity
  8
MAINMEMBER
100
AcDbLine
 10
1095.452309150022
 20
5397.123562992552
 30
0.0
 11
1103.953761150021
 21
5391.858079992552
 31
0.0
  0
LINE
  5
10665
330
214
100
AcDbEntity
  8
MAINMEMBER
100
AcDbLine
 10
1392.36086515002
 20
5857.509457992552
 30
0.0
 11
1103.953761150021
 21
5391.858079992552
 31
0.0
  0
LINE
  5
10666
330
214
100
AcDbEntity
  8
MAINMEMBER
100
AcDbLine
 10
981.6558611500225
 20
5381.619205992553
 30
0.0
 11
981.6558611500225
 21
5871.602141992553
 31
0.0
  0
LINE
  5
10667
330
214
100
AcDbEntity
  8
MAINMEMBER
100
AcDbLine
 10
991.6558611500224
 20
5371.619205992551
 30
0.0
 11
981.6558611500225
 21
5381.619205992553
 31
0.0
  0
LINE
  5
10668
330
214
100
AcDbEntity
  8
MAINMEMBER
100
AcDbLine
 10
1079.655861150021
 20
5371.619205992551
 30
0.0
 11
991.6558611500224
 21
5371.619205992551
 31
0.0
  0
LINE
  5
10669
330
214
100
AcDbEntity
  8
MAINMEMBER
100
AcDbLine
 10
1079.655861150021
 20
5371.619205992551
 30
0.0
 11
1079.655861150021
 21
5371.619205992551
 31
0.0
  0
LINE
  5
10670
330
214
100
AcDbEntity
  8
MAINMEMBER
100
AcDbLine
 10
1399.655861150022
 20
5888.279297992553
 30
0.0
 11
1079.655861150021
 21
5371.619205992551
 31
0.0
  0
LINE
  5
10671
330
214
100
AcDbEntity
  8
MAINMEMBER
100
AcDbLine
 10
1399.655861150022
 20
5908.279297992553
 30
0.0
 11
1399.655861150022
 21
5888.279297992553
 31
0.0
  0
LINE
  5
10672
330
214
100
AcDbEntity
  8
MAINMEMBER
100
AcDbLine
 10
1389.659761150022
 20
5918.000048992553
 30
0.0
 11
1399.655861150022
 21
5908.279297992553
 31
0.0
  0
LINE
  5
10673
330
214
100
AcDbEntity
  8
MAINMEMBER
100
AcDbLine
 10
1016.64221215002
 20
5907.579512992553
 30
0.0
 11
1389.659761150022
 21
5918.000048992553
 31
0.0
  0
LINE
  5
10674
330
214
100
AcDbEntity
  8
MAINMEMBER
100
AcDbLine
 10
5155.842629150021
 20
5967.500678992553
 30
0.0
 11
5147.423151150022
 21
5962.105089992552
 31
0.0
  0
LINE
  5
10675
330
214
100
AcDbEntity
  8
MAINMEMBER
100
AcDbLine
 10
5443.469093150024
 20
5518.677640992553
 30
0.0
 11
5435.049615150022
 21
5513.282051992553
 31
0.0
  0
LINE
  5
10676
330
214
100
AcDbEntity
  8
MAINMEMBER
100
AcDbLine
 10
5147.423151150022
 20
5962.105089992552
 30
0.0
 11
5435.049615150022
 21
5513.282051992553
 31
0.0
  0
LINE
  5
10677
330
214
100
AcDbEntity
  8
MAINMEMBER
100
AcDbLine
 10
5139.655861150022
 20
5992.759113992552
 30
0.0
 11
5139.655861150022
 21
6012.759113992553
 31
0.0
  0
LINE
  5
10678
330
214
100
AcDbEntity
  8
MAINMEMBER
100
AcDbLine
 10
5459.655861150022
 20
5493.419205992553
 30
0.0
 11
5139.655861150022
 21
5992.759113992552
 31
0.0
  0
LINE
  5
10679
330
214
100
AcDbEntity
  8
MAINMEMBER
100
AcDbLine
 10
5459.655861150022
 20
5493.419205992553
 30
0.0
 11
5459.655861150022
 21
5493.419205992553
 31
0.0
  0
LINE
  5
10680
330
214
100
AcDbEntity
  8
MAINMEMBER
100
AcDbLine
 10
5547.655861150023
 20
5493.419205992553
 30
0.0
 11
5459.655861150022
 21
5493.419205992553
 31
0.0
  0
LINE
  5
10681
330
214
100
AcDbEntity
  8
MAINMEMBER
100
AcDbLine
 10
5557.655861150022
 20
5503.419205992553
 30
0.0
 11
5547.655861150023
 21
5493.419205992553
 31
0.0
  0
LINE
  5
10682
330
214
100
AcDbEntity
  8
MAINMEMBER
100
AcDbLine
 10
5557.655861150022
 20
5999.436269992552
 30
0.0
 11
5557.655861150022
 21
5503.419205992553
 31
0.0
  0
LINE
  5
10683
330
214
100
AcDbEntity
  8
MAINMEMBER
100
AcDbLine
 10
5149.651961150023
 20
6023.038362992553
 30
0.0
 11
5522.669510150024
 21
6033.458898992552
 31
0.0
  0
LINE
  5
10684
330
214
100
AcDbEntity
  8
MAINMEMBER
100
AcDbLine
 10
5139.655861150022
 20
6012.759113992553
 30
0.0
 11
5149.651961150023
 21
6023.038362992553
 31
0.0
  0
LINE
  5
10685
330
214
100
AcDbEntity
  8
MAINMEMBER
100
AcDbLine
 10
1089.655861150021
 20
5359.619205992554
 30
0.0
 11
489.6558611500221
 21
5359.619205992554
 31
0.0
  0
LINE
  5
10686
330
214
100
AcDbEntity
  8
MAINMEMBER
100
AcDbLine
 10
1089.655861150021
 20
5371.619205992551
 30
0.0
 11
1089.655861150021
 21
5359.619205992554
 31
0.0
  0
LINE
  5
10687
330
214
100
AcDbEntity
  8
MAINMEMBER
100
AcDbLine
 10
489.6558611500221
 20
5371.619205992551
 30
0.0
 11
1089.655861150021
 21
5371.619205992551
 31
0.0
  0
LINE
  5
10688
330
214
100
AcDbEntity
  8
MAINMEMBER
100
AcDbLine
 10
1089.655861150021
 20
7383.619205992552
 30
0.0
 11
489.6558611500221
 21
7383.619205992552
 31
0.0
  0
LINE
  5
10689
330
214
100
AcDbEntity
  8
MAINMEMBER
100
AcDbLine
 10
1089.655861150021
 20
7371.619205992553
 30
0.0
 11
1089.655861150021
 21
7383.619205992552
 31
0.0
  0
LINE
  5
10690
330
214
100
AcDbEntity
  8
MAINMEMBER
100
AcDbLine
 10
489.6558611500221
 20
7371.619205992553
 30
0.0
 11
1089.655861150021
 21
7371.619205992553
 31
0.0
  0
LINE
  5
10691
330
214
100
AcDbEntity
  8
MAINMEMBER
100
AcDbLine
 10
981.6558611500225
 20
7371.619205992553
 30
0.0
 11
981.6558611500225
 21
5371.619205992551
 31
0.0
  0
LINE
  5
10692
330
214
100
AcDbEntity
  8
MAINMEMBER
100
AcDbLine
 10
969.6558611500222
 20
7371.619205992553
 30
0.0
 11
969.6558611500222
 21
5371.619205992551
 31
0.0
  0
LINE
  5
10693
330
214
100
AcDbEntity
  8
MAINMEMBER
100
AcDbLine
 10
5449.655861150024
 20
5481.419205992551
 30
0.0
 11
6049.655861150022
 21
5481.419205992551
 31
0.0
  0
LINE
  5
10694
330
214
100
AcDbEntity
  8
MAINMEMBER
100
AcDbLine
 10
5449.655861150024
 20
5493.419205992553
 30
0.0
 11
5449.655861150024
 21
5481.419205992551
 31
0.0
  0
LINE
  5
10695
330
214
100
AcDbEntity
  8
MAINMEMBER
100
AcDbLine
 10
6049.655861150022
 20
5493.419205992553
 30
0.0
 11
5449.655861150024
 21
5493.419205992553
 31
0.0
  0
LINE
  5
10696
330
214
100
AcDbEntity
  8
MAINMEMBER
100
AcDbLine
 10
5449.655861150024
 20
7505.419205992552
 30
0.0
 11
6049.655861150022
 21
7505.419205992552
 31
0.0
  0
LINE
  5
10697
330
214
100
AcDbEntity
  8
MAINMEMBER
100
AcDbLine
 10
5449.655861150024
 20
7493.419205992552
 30
0.0
 11
5449.655861150024
 21
7505.419205992552
 31
0.0
  0
LINE
  5
10698
330
214
100
AcDbEntity
  8
MAINMEMBER
100
AcDbLine
 10
6049.655861150022
 20
7493.419205992552
 30
0.0
 11
5449.655861150024
 21
7493.419205992552
 31
0.0
  0
LINE
  5
10699
330
214
100
AcDbEntity
  8
MAINMEMBER
100
AcDbLine
 10
5557.655861150022
 20
7493.419205992552
 30
0.0
 11
5557.655861150022
 21
5493.419205992553
 31
0.0
  0
LINE
  5
10700
330
214
100
AcDbEntity
  8
MAINMEMBER
100
AcDbLine
 10
5569.655861150022
 20
7493.419205992552
 30
0.0
 11
5569.655861150022
 21
5493.419205992553
 31
0.0
  0
LINE
  5
10715
330
214
100
AcDbEntity
  8
MAINMEMBER__1
100
AcDbLine
 10
1442.633412150022
 20
9177.619205992552
 30
0.0
 11
3390.440459150021
 21
9177.619205992552
 31
0.0
  0
LINE
  5
10716
330
214
100
AcDbEntity
  8
MAINMEMBER__1
100
AcDbLine
 10
1442.633412150022
 20
9165.619205992554
 30
0.0
 11
3390.440459150021
 21
9165.619205992554
 31
0.0
  0
LINE
  5
10717
330
214
100
AcDbEntity
  8
MAINMEMBER__1
100
AcDbLine
 10
980.3268781500227
 20
9177.619205992552
 30
0.0
 11
1442.633412150022
 21
9177.619205992552
 31
0.0
  0
LINE
  5
10718
330
214
100
AcDbEntity
  8
MAINMEMBER__1
100
AcDbLine
 10
984.210314150023
 20
9165.619205992554
 30
0.0
 11
1442.633412150022
 21
9165.619205992554
 31
0.0
  0
LINE
  5
10719
330
214
100
AcDbEntity
  8
MAINMEMBER__1
100
AcDbLine
 10
3846.655861150022
 20
7448.638150992552
 30
0.0
 11
3846.655861150022
 21
5998.638150992552
 31
0.0
  0
LINE
  5
10720
330
214
100
AcDbEntity
  8
MAINMEMBER__1
100
AcDbLine
 10
3834.655861150022
 20
7448.302921992553
 30
0.0
 11
3834.655861150022
 21
5998.302921992551
 31
0.0
  0
LINE
  5
10721
330
214
100
AcDbEntity
  8
MAINMEMBER__1
100
AcDbLine
 10
2703.65586115002
 20
7416.707554992552
 30
0.0
 11
2703.65586115002
 21
5966.707554992552
 31
0.0
  0
LINE
  5
10722
330
214
100
AcDbEntity
  8
MAINMEMBER__1
100
AcDbLine
 10
2691.655861150021
 20
7416.372324992552
 30
0.0
 11
2691.655861150021
 21
5966.372324992552
 31
0.0
  0
LINE
  5
10723
330
214
100
AcDbEntity
  8
MAINMEMBER__1
100
AcDbLine
 10
3275.655861150021
 20
5991.275239992552
 30
0.0
 11
3275.655861150021
 21
6411.763171992553
 31
0.0
  0
LINE
  5
10724
330
214
100
AcDbEntity
  8
MAINMEMBER__1
100
AcDbLine
 10
3263.655861150022
 20
5991.275239992552
 30
0.0
 11
3263.655861150022
 21
6411.763171992553
 31
0.0
  0
LINE
  5
10725
330
214
100
AcDbEntity
  8
MAINMEMBER__1
100
AcDbLine
 10
3275.655861150021
 20
6420.519205992552
 30
0.0
 11
3275.655861150021
 21
6411.763171992553
 31
0.0
  0
LINE
  5
10726
330
214
100
AcDbEntity
  8
MAINMEMBER__1
100
AcDbLine
 10
3263.655861150022
 20
6420.519205992552
 30
0.0
 11
3275.655861150021
 21
6420.519205992552
 31
0.0
  0
LINE
  5
10727
330
214
100
AcDbEntity
  8
MAINMEMBER__1
100
AcDbLine
 10
3263.655861150022
 20
6420.519205992552
 30
0.0
 11
3263.655861150022
 21
6411.763171992553
 31
0.0
  0
LINE
  5
10728
330
214
100
AcDbEntity
  8
MAINMEMBER__1
100
AcDbLine
 10
3329.655861150021
 20
6017.543341992551
 30
0.0
 11
3299.655861150021
 21
5991.275239992552
 31
0.0
  0
LINE
  5
10729
330
214
100
AcDbEntity
  8
MAINMEMBER__1
100
AcDbLine
 10
3329.655861150021
 20
6385.495069992552
 30
0.0
 11
3329.655861150021
 21
6017.543341992551
 31
0.0
  0
LINE
  5
10730
330
214
100
AcDbEntity
  8
MAINMEMBER__1
100
AcDbLine
 10
3299.655861150021
 20
6411.763171992553
 30
0.0
 11
3329.655861150021
 21
6385.495069992552
 31
0.0
  0
LINE
  5
10731
330
214
100
AcDbEntity
  8
MAINMEMBER__1
100
AcDbLine
 10
3239.655861150021
 20
6411.763171992553
 30
0.0
 11
3299.655861150021
 21
6411.763171992553
 31
0.0
  0
LINE
  5
10732
330
214
100
AcDbEntity
  8
MAINMEMBER__1
100
AcDbLine
 10
3209.655861150022
 20
6385.495069992552
 30
0.0
 11
3239.655861150021
 21
6411.763171992553
 31
0.0
  0
LINE
  5
10733
330
214
100
AcDbEntity
  8
MAINMEMBER__1
100
AcDbLine
 10
3209.655861150022
 20
6017.543341992551
 30
0.0
 11
3209.655861150022
 21
6385.495069992552
 31
0.0
  0
LINE
  5
10734
330
214
100
AcDbEntity
  8
MAINMEMBER__1
100
AcDbLine
 10
3239.655861150021
 20
5991.275239992552
 30
0.0
 11
3209.655861150022
 21
6017.543341992551
 31
0.0
  0
LINE
  5
10735
330
214
100
AcDbEntity
  8
MAINMEMBER__1
100
AcDbLine
 10
3239.655861150021
 20
5991.275239992552
 30
0.0
 11
3299.655861150021
 21
5991.275239992552
 31
0.0
  0
LINE
  5
10736
330
214
100
AcDbEntity
  8
MAINMEMBER__1
100
AcDbLine
 10
3275.655861150021
 20
5982.686820992552
 30
0.0
 11
3275.655861150021
 21
5991.275239992552
 31
0.0
  0
LINE
  5
10737
330
214
100
AcDbEntity
  8
MAINMEMBER__1
100
AcDbLine
 10
3263.655861150022
 20
5982.351590992553
 30
0.0
 11
3275.655861150021
 21
5982.686820992552
 31
0.0
  0
LINE
  5
10738
330
214
100
AcDbEntity
  8
MAINMEMBER__1
100
AcDbLine
 10
3263.655861150022
 20
5982.351590992553
 30
0.0
 11
3263.655861150022
 21
5991.275239992552
 31
0.0
  0
LINE
  5
10739
330
214
100
AcDbEntity
  8
MAINMEMBER__1
100
AcDbLine
 10
2969.655861150021
 20
6420.519205992552
 30
0.0
 11
2969.655861150021
 21
6432.519205992552
 31
0.0
  0
LINE
  5
10740
330
214
100
AcDbEntity
  8
MAINMEMBER__1
100
AcDbLine
 10
3569.655861150021
 20
6420.519205992552
 30
0.0
 11
2969.655861150021
 21
6420.519205992552
 31
0.0
  0
LINE
  5
10741
330
214
100
AcDbEntity
  8
MAINMEMBER__1
100
AcDbLine
 10
3569.655861150021
 20
6432.519205992552
 30
0.0
 11
3569.655861150021
 21
6420.519205992552
 31
0.0
  0
LINE
  5
10742
330
214
100
AcDbEntity
  8
MAINMEMBER__1
100
AcDbLine
 10
2969.655861150021
 20
6432.519205992552
 30
0.0
 11
3569.655861150021
 21
6432.519205992552
 31
0.0
  0
LINE
  5
10743
330
214
100
AcDbEntity
  8
MAINMEMBER__1
100
AcDbLine
 10
3275.655861150021
 20
7432.686820992552
 30
0.0
 11
3275.655861150021
 21
6432.519205992552
 31
0.0
  0
LINE
  5
10744
330
214
100
AcDbEntity
  8
MAINMEMBER__1
100
AcDbLine
 10
3263.655861150022
 20
7432.351590992553
 30
0.0
 11
3263.655861150022
 21
6432.519205992552
 31
0.0
  0
LINE
  5
10833
330
214
100
AcDbEntity
  8
FIELDSPLICE
100
AcDbLine
 10
1180.133412150021
 20
9145.619205992552
 30
0.0
 11
1705.133412150021
 21
9145.619205992552
 31
0.0
  0
LINE
  5
10834
330
214
100
AcDbEntity
  8
FIELDSPLICE
100
AcDbLine
 10
1180.133412150021
 20
9021.619205992553
 30
0.0
 11
1180.133412150021
 21
9145.619205992552
 31
0.0
  0
LINE
  5
10835
330
214
100
AcDbEntity
  8
FIELDSPLICE
100
AcDbLine
 10
1705.133412150021
 20
9021.619205992553
 30
0.0
 11
1180.133412150021
 21
9021.619205992553
 31
0.0
  0
LINE
  5
10836
330
214
100
AcDbEntity
  8
FIELDSPLICE
100
AcDbLine
 10
1705.133412150021
 20
9145.619205992552
 30
0.0
 11
1705.133412150021
 21
9021.619205992553
 31
0.0
  0
LINE
  5
10837
330
214
100
AcDbEntity
  8
FIELDSPLICE
100
AcDbLine
 10
1180.133412150021
 20
9197.619205992552
 30
0.0
 11
1705.133412150021
 21
9197.619205992552
 31
0.0
  0
LINE
  5
10838
330
214
100
AcDbEntity
  8
FIELDSPLICE
100
AcDbLine
 10
1180.133412150021
 20
9321.619205992552
 30
0.0
 11
1180.133412150021
 21
9197.619205992552
 31
0.0
  0
LINE
  5
10839
330
214
100
AcDbEntity
  8
FIELDSPLICE
100
AcDbLine
 10
1705.133412150021
 20
9321.619205992552
 30
0.0
 11
1180.133412150021
 21
9321.619205992552
 31
0.0
  0
LINE
  5
10840
330
214
100
AcDbEntity
  8
FIELDSPLICE
100
AcDbLine
 10
1705.133412150021
 20
9197.619205992552
 30
0.0
 11
1705.133412150021
 21
9321.619205992552
 31
0.0
  0
LINE
  5
10841
330
214
100
AcDbEntity
  8
FIELDSPLICE
100
AcDbLine
 10
1180.133412150021
 20
9321.619205992552
 30
0.0
 11
1705.133412150021
 21
9321.619205992552
 31
0.0
  0
LINE
  5
10842
330
214
100
AcDbEntity
  8
FIELDSPLICE
100
AcDbLine
 10
1180.133412150021
 20
9021.619205992553
 30
0.0
 11
1180.133412150021
 21
9321.619205992552
 31
0.0
  0
LINE
  5
10843
330
214
100
AcDbEntity
  8
FIELDSPLICE
100
AcDbLine
 10
1705.133412150021
 20
9021.619205992553
 30
0.0
 11
1180.133412150021
 21
9021.619205992553
 31
0.0
  0
LINE
  5
10844
330
214
100
AcDbEntity
  8
FIELDSPLICE
100
AcDbLine
 10
1705.133412150021
 20
9321.619205992552
 30
0.0
 11
1705.133412150021
 21
9021.619205992553
 31
0.0
  0
LINE
  5
10845
330
214
100
AcDbEntity
  8
FIELDSPLICE
100
AcDbLine
 10
5075.747506150023
 20
9197.619205992552
 30
0.0
 11
5600.747506150025
 21
9197.619205992552
 31
0.0
  0
LINE
  5
10846
330
214
100
AcDbEntity
  8
FIELDSPLICE
100
AcDbLine
 10
5075.747506150023
 20
9321.619205992552
 30
0.0
 11
5075.747506150023
 21
9197.619205992552
 31
0.0
  0
LINE
  5
10847
330
214
100
AcDbEntity
  8
FIELDSPLICE
100
AcDbLine
 10
5600.747506150025
 20
9321.619205992552
 30
0.0
 11
5075.747506150023
 21
9321.619205992552
 31
0.0
  0
LINE
  5
10848
330
214
100
AcDbEntity
  8
FIELDSPLICE
100
AcDbLine
 10
5600.747506150025
 20
9197.619205992552
 30
0.0
 11
5600.747506150025
 21
9321.619205992552
 31
0.0
  0
LINE
  5
10849
330
214
100
AcDbEntity
  8
FIELDSPLICE
100
AcDbLine
 10
5075.747506150023
 20
9145.619205992552
 30
0.0
 11
5600.747506150025
 21
9145.619205992552
 31
0.0
  0
LINE
  5
10850
330
214
100
AcDbEntity
  8
FIELDSPLICE
100
AcDbLine
 10
5075.747506150023
 20
9021.619205992553
 30
0.0
 11
5075.747506150023
 21
9145.619205992552
 31
0.0
  0
LINE
  5
10851
330
214
100
AcDbEntity
  8
FIELDSPLICE
100
AcDbLine
 10
5600.747506150025
 20
9021.619205992553
 30
0.0
 11
5075.747506150023
 21
9021.619205992553
 31
0.0
  0
LINE
  5
10852
330
214
100
AcDbEntity
  8
FIELDSPLICE
100
AcDbLine
 10
5600.747506150025
 20
9145.619205992552
 30
0.0
 11
5600.747506150025
 21
9021.619205992553
 31
0.0
  0
LINE
  5
10853
330
214
100
AcDbEntity
  8
FIELDSPLICE
100
AcDbLine
 10
5075.747506150023
 20
9197.619205992552
 30
0.0
 11
5600.747506150025
 21
9197.619205992552
 31
0.0
  0
LINE
  5
10854
330
214
100
AcDbEntity
  8
FIELDSPLICE
100
AcDbLine
 10
5075.747506150023
 20
9321.619205992552
 30
0.0
 11
5075.747506150023
 21
9197.619205992552
 31
0.0
  0
LINE
  5
10855
330
214
100
AcDbEntity
  8
FIELDSPLICE
100
AcDbLine
 10
5600.747506150025
 20
9321.619205992552
 30
0.0
 11
5075.747506150023
 21
9321.619205992552
 31
0.0
  0
LINE
  5
10856
330
214
100
AcDbEntity
  8
FIELDSPLICE
100
AcDbLine
 10
5600.747506150025
 20
9197.619205992552
 30
0.0
 11
5600.747506150025
 21
9321.619205992552
 31
0.0
  0
LINE
  5
10857
330
214
100
AcDbEntity
  8
FIELDSPLICE
100
AcDbLine
 10
1157.155861150022
 20
7395.504870992552
 30
0.0
 11
1682.155861150022
 21
7410.171155992554
 31
0.0
  0
LINE
  5
10858
330
214
100
AcDbEntity
  8
FIELDSPLICE
100
AcDbLine
 10
1157.155861150022
 20
7385.504870992552
 30
0.0
 11
1682.155861150022
 21
7400.171155992552
 31
0.0
  0
LINE
  5
10859
330
214
100
AcDbEntity
  8
FIELDSPLICE
100
AcDbLine
 10
1157.155861150022
 20
7395.504870992552
 30
0.0
 11
1157.155861150022
 21
7385.504870992552
 31
0.0
  0
LINE
  5
10860
330
214
100
AcDbEntity
  8
FIELDSPLICE
100
AcDbLine
 10
1682.155861150022
 20
7410.171155992554
 30
0.0
 11
1682.155861150022
 21
7400.171155992552
 31
0.0
  0
LINE
  5
10861
330
214
100
AcDbEntity
  8
FIELDSPLICE
100
AcDbLine
 10
1157.155861150022
 20
7373.504870992552
 30
0.0
 11
1682.155861150022
 21
7388.171155992552
 31
0.0
  0
LINE
  5
10862
330
214
100
AcDbEntity
  8
FIELDSPLICE
100
AcDbLine
 10
1157.155861150022
 20
7363.504870992551
 30
0.0
 11
1682.155861150022
 21
7378.171155992553
 31
0.0
  0
LINE
  5
10863
330
214
100
AcDbEntity
  8
FIELDSPLICE
100
AcDbLine
 10
1157.155861150022
 20
7373.504870992552
 30
0.0
 11
1157.155861150022
 21
7363.504870992551
 31
0.0
  0
LINE
  5
10864
330
214
100
AcDbEntity
  8
FIELDSPLICE
100
AcDbLine
 10
1682.155861150022
 20
7388.171155992552
 30
0.0
 11
1682.155861150022
 21
7378.171155992553
 31
0.0
  0
LINE
  5
10865
330
214
100
AcDbEntity
  8
FIELDSPLICE
100
AcDbLine
 10
1157.155861150022
 20
5935.504870992552
 30
0.0
 11
1682.155861150022
 21
5950.171155992553
 31
0.0
  0
LINE
  5
10866
330
214
100
AcDbEntity
  8
FIELDSPLICE
100
AcDbLine
 10
1157.155861150022
 20
5923.504870992552
 30
0.0
 11
1682.155861150022
 21
5938.171155992552
 31
0.0
  0
LINE
  5
10867
330
214
100
AcDbEntity
  8
FIELDSPLICE
100
AcDbLine
 10
1157.155861150022
 20
5935.504870992552
 30
0.0
 11
1157.155861150022
 21
5923.504870992552
 31
0.0
  0
LINE
  5
10868
330
214
100
AcDbEntity
  8
FIELDSPLICE
100
AcDbLine
 10
1682.155861150022
 20
5950.171155992553
 30
0.0
 11
1682.155861150022
 21
5938.171155992552
 31
0.0
  0
LINE
  5
10869
330
214
100
AcDbEntity
  8
FIELDSPLICE
100
AcDbLine
 10
1157.155861150022
 20
5911.504870992552
 30
0.0
 11
1682.155861150022
 21
5926.171155992552
 31
0.0
  0
LINE
  5
10870
330
214
100
AcDbEntity
  8
FIELDSPLICE
100
AcDbLine
 10
1157.155861150022
 20
5899.504870992553
 30
0.0
 11
1682.155861150022
 21
5914.171155992552
 31
0.0
  0
LINE
  5
10871
330
214
100
AcDbEntity
  8
FIELDSPLICE
100
AcDbLine
 10
1157.155861150022
 20
5911.504870992552
 30
0.0
 11
1157.155861150022
 21
5899.504870992553
 31
0.0
  0
LINE
  5
10872
330
214
100
AcDbEntity
  8
FIELDSPLICE
100
AcDbLine
 10
1682.155861150022
 20
5926.171155992552
 30
0.0
 11
1682.155861150022
 21
5914.171155992552
 31
0.0
  0
LINE
  5
10873
330
214
100
AcDbEntity
  8
FIELDSPLICE
100
AcDbLine
 10
4857.155861150022
 20
7498.867255992553
 30
0.0
 11
5382.155861150022
 21
7513.533540992551
 31
0.0
  0
LINE
  5
10874
330
214
100
AcDbEntity
  8
FIELDSPLICE
100
AcDbLine
 10
4857.155861150022
 20
7488.867255992552
 30
0.0
 11
5382.155861150022
 21
7503.533540992553
 31
0.0
  0
LINE
  5
10875
330
214
100
AcDbEntity
  8
FIELDSPLICE
100
AcDbLine
 10
4857.155861150022
 20
7498.867255992553
 30
0.0
 11
4857.155861150022
 21
7488.867255992552
 31
0.0
  0
LINE
  5
10876
330
214
100
AcDbEntity
  8
FIELDSPLICE
100
AcDbLine
 10
5382.155861150022
 20
7513.533540992551
 30
0.0
 11
5382.155861150022
 21
7503.533540992553
 31
0.0
  0
LINE
  5
10877
330
214
100
AcDbEntity
  8
FIELDSPLICE
100
AcDbLine
 10
4857.155861150022
 20
7476.867255992553
 30
0.0
 11
5382.155861150022
 21
7491.533540992553
 31
0.0
  0
LINE
  5
10878
330
214
100
AcDbEntity
  8
FIELDSPLICE
100
AcDbLine
 10
4857.155861150022
 20
7466.867255992553
 30
0.0
 11
5382.155861150022
 21
7481.533540992552
 31
0.0
  0
LINE
  5
10879
330
214
100
AcDbEntity
  8
FIELDSPLICE
100
AcDbLine
 10
4857.155861150022
 20
7476.867255992553
 30
0.0
 11
4857.155861150022
 21
7466.867255992553
 31
0.0
  0
LINE
  5
10880
330
214
100
AcDbEntity
  8
FIELDSPLICE
100
AcDbLine
 10
5382.155861150022
 20
7491.533540992553
 30
0.0
 11
5382.155861150022
 21
7481.533540992552
 31
0.0
  0
LINE
  5
10881
330
214
100
AcDbEntity
  8
FIELDSPLICE
100
AcDbLine
 10
4857.155861150022
 20
6038.867255992553
 30
0.0
 11
5382.155861150022
 21
6053.533540992553
 31
0.0
  0
LINE
  5
10882
330
214
100
AcDbEntity
  8
FIELDSPLICE
100
AcDbLine
 10
4857.155861150022
 20
6026.867255992552
 30
0.0
 11
5382.155861150022
 21
6041.533540992553
 31
0.0
  0
LINE
  5
10883
330
214
100
AcDbEntity
  8
FIELDSPLICE
100
AcDbLine
 10
4857.155861150022
 20
6038.867255992553
 30
0.0
 11
4857.155861150022
 21
6026.867255992552
 31
0.0
  0
LINE
  5
10884
330
214
100
AcDbEntity
  8
FIELDSPLICE
100
AcDbLine
 10
5382.155861150022
 20
6053.533540992553
 30
0.0
 11
5382.155861150022
 21
6041.533540992553
 31
0.0
  0
LINE
  5
10885
330
214
100
AcDbEntity
  8
FIELDSPLICE
100
AcDbLine
 10
4857.155861150022
 20
6014.867255992553
 30
0.0
 11
5382.155861150022
 21
6029.533540992552
 31
0.0
  0
LINE
  5
10886
330
214
100
AcDbEntity
  8
FIELDSPLICE
100
AcDbLine
 10
4857.155861150022
 20
6002.867255992552
 30
0.0
 11
5382.155861150022
 21
6017.533540992553
 31
0.0
  0
LINE
  5
10887
330
214
100
AcDbEntity
  8
FIELDSPLICE
100
AcDbLine
 10
4857.155861150022
 20
6014.867255992553
 30
0.0
 11
4857.155861150022
 21
6002.867255992552
 31
0.0
  0
LINE
  5
10888
330
214
100
AcDbEntity
  8
FIELDSPLICE
100
AcDbLine
 10
5382.155861150022
 20
6029.533540992552
 30
0.0
 11
5382.155861150022
 21
6017.533540992553
 31
0.0
  0
LINE
  5
10889
330
214
100
AcDbEntity
  8
FIELDSPLICE
100
AcDbLine
 10
1242.155861150022
 20
7300.879411992553
 30
0.0
 11
1597.155861150022
 21
7310.796613992554
 31
0.0
  0
LINE
  5
10890
330
214
100
AcDbEntity
  8
FIELDSPLICE
100
AcDbLine
 10
1242.155861150022
 20
6000.879411992553
 30
0.0
 11
1242.155861150022
 21
7300.879411992553
 31
0.0
  0
LINE
  5
10891
330
214
100
AcDbEntity
  8
FIELDSPLICE
100
AcDbLine
 10
1597.155861150022
 20
6010.796613992553
 30
0.0
 11
1242.155861150022
 21
6000.879411992553
 31
0.0
  0
LINE
  5
10892
330
214
100
AcDbEntity
  8
FIELDSPLICE
100
AcDbLine
 10
1597.155861150022
 20
7310.796613992554
 30
0.0
 11
1597.155861150022
 21
6010.796613992553
 31
0.0
  0
LINE
  5
10893
330
214
100
AcDbEntity
  8
FIELDSPLICE
100
AcDbLine
 10
4942.155861150022
 20
7404.241797992551
 30
0.0
 11
5297.15586115002
 21
7414.158999992553
 31
0.0
  0
LINE
  5
10894
330
214
100
AcDbEntity
  8
FIELDSPLICE
100
AcDbLine
 10
4942.155861150022
 20
6104.241797992552
 30
0.0
 11
4942.155861150022
 21
7404.241797992551
 31
0.0
  0
LINE
  5
10895
330
214
100
AcDbEntity
  8
FIELDSPLICE
100
AcDbLine
 10
5297.15586115002
 20
6114.15899999255
 30
0.0
 11
4942.155861150022
 21
6104.241797992552
 31
0.0
  0
LINE
  5
10896
330
214
100
AcDbEntity
  8
FIELDSPLICE
100
AcDbLine
 10
5297.15586115002
 20
7414.158999992553
 30
0.0
 11
5297.15586115002
 21
6114.15899999255
 31
0.0
  0
LINE
  5
10967
330
214
100
AcDbEntity
  8
MRK
100
AcDbLine
 10
1230.133412150022
 20
9259.619205992553
 30
0.0
 11
1655.133412150021
 21
9259.619205992553
 31
0.0
  0
LINE
  5
10968
330
214
100
AcDbEntity
  8
MRK
100
AcDbLine
 10
1655.133412150021
 20
9259.619205992553
 30
0.0
 11
1655.133412150021
 21
9083.619205992553
 31
0.0
  0
LINE
  5
10969
330
214
100
AcDbEntity
  8
MRK
100
AcDbLine
 10
1570.133412150022
 20
9259.619205992553
 30
0.0
 11
1570.133412150022
 21
9083.619205992553
 31
0.0
  0
LINE
  5
10970
330
214
100
AcDbEntity
  8
MRK
100
AcDbLine
 10
1485.133412150021
 20
9259.619205992553
 30
0.0
 11
1485.133412150021
 21
9083.619205992553
 31
0.0
  0
LINE
  5
10971
330
214
100
AcDbEntity
  8
MRK
100
AcDbLine
 10
1400.133412150021
 20
9259.619205992553
 30
0.0
 11
1400.133412150021
 21
9083.619205992553
 31
0.0
  0
LINE
  5
10972
330
214
100
AcDbEntity
  8
MRK
100
AcDbLine
 10
1315.133412150021
 20
9259.619205992553
 30
0.0
 11
1315.133412150021
 21
9083.619205992553
 31
0.0
  0
LINE
  5
10973
330
214
100
AcDbEntity
  8
MRK
100
AcDbLine
 10
1230.133412150022
 20
9259.619205992553
 30
0.0
 11
1230.133412150022
 21
9083.619205992553
 31
0.0
  0
LINE
  5
10974
330
214
100
AcDbEntity
  8
MRK
100
AcDbLine
 10
1230.133412150022
 20
9083.619205992553
 30
0.0
 11
1655.133412150021
 21
9083.619205992553
 31
0.0
  0
LINE
  5
10975
330
214
100
AcDbEntity
  8
MRK
100
AcDbLine
 10
5125.747506150023
 20
9259.619205992553
 30
0.0
 11
5550.747506150024
 21
9259.619205992553
 31
0.0
  0
LINE
  5
10976
330
214
100
AcDbEntity
  8
MRK
100
AcDbLine
 10
5550.747506150024
 20
9259.619205992553
 30
0.0
 11
5550.747506150024
 21
9259.619205992553
 31
0.0
  0
LINE
  5
10977
330
214
100
AcDbEntity
  8
MRK
100
AcDbLine
 10
5465.747506150023
 20
9259.619205992553
 30
0.0
 11
5465.747506150023
 21
9259.619205992553
 31
0.0
  0
LINE
  5
10978
330
214
100
AcDbEntity
  8
MRK
100
AcDbLine
 10
5380.747506150023
 20
9259.619205992553
 30
0.0
 11
5380.747506150023
 21
9259.619205992553
 31
0.0
  0
LINE
  5
10979
330
214
100
AcDbEntity
  8
MRK
100
AcDbLine
 10
5295.747506150024
 20
9259.619205992553
 30
0.0
 11
5295.747506150024
 21
9259.619205992553
 31
0.0
  0
LINE
  5
10980
330
214
100
AcDbEntity
  8
MRK
100
AcDbLine
 10
5210.747506150021
 20
9259.619205992553
 30
0.0
 11
5210.747506150021
 21
9259.619205992553
 31
0.0
  0
LINE
  5
10981
330
214
100
AcDbEntity
  8
MRK
100
AcDbLine
 10
5125.747506150023
 20
9259.619205992553
 30
0.0
 11
5125.747506150023
 21
9259.619205992553
 31
0.0
  0
LINE
  5
10982
330
214
100
AcDbEntity
  8
MRK
100
AcDbLine
 10
5125.747506150023
 20
9083.619205992553
 30
0.0
 11
5550.747506150024
 21
9083.619205992553
 31
0.0
  0
LINE
  5
10983
330
214
100
AcDbEntity
  8
MRK
100
AcDbLine
 10
5550.747506150024
 20
9083.619205992553
 30
0.0
 11
5550.747506150024
 21
9083.619205992553
 31
0.0
  0
LINE
  5
10984
330
214
100
AcDbEntity
  8
MRK
100
AcDbLine
 10
5465.747506150023
 20
9083.619205992553
 30
0.0
 11
5465.747506150023
 21
9083.619205992553
 31
0.0
  0
LINE
  5
10985
330
214
100
AcDbEntity
  8
MRK
100
AcDbLine
 10
5380.747506150023
 20
9083.619205992553
 30
0.0
 11
5380.747506150023
 21
9083.619205992553
 31
0.0
  0
LINE
  5
10986
330
214
100
AcDbEntity
  8
MRK
100
AcDbLine
 10
5295.747506150024
 20
9083.619205992553
 30
0.0
 11
5295.747506150024
 21
9083.619205992553
 31
0.0
  0
LINE
  5
10987
330
214
100
AcDbEntity
  8
MRK
100
AcDbLine
 10
5210.747506150021
 20
9083.619205992553
 30
0.0
 11
5210.747506150021
 21
9083.619205992553
 31
0.0
  0
LINE
  5
10988
330
214
100
AcDbEntity
  8
MRK
100
AcDbLine
 10
5125.747506150023
 20
9083.619205992553
 30
0.0
 11
5125.747506150023
 21
9083.619205992553
 31
0.0
  0
LINE
  5
10989
330
214
100
AcDbEntity
  8
MRK
100
AcDbLine
 10
1292.155861150022
 20
7252.276200992551
 30
0.0
 11
1547.155861150022
 21
7259.399824992553
 31
0.0
  0
LINE
  5
10990
330
214
100
AcDbEntity
  8
MRK
100
AcDbLine
 10
1547.155861150022
 20
7259.399824992553
 30
0.0
 11
1547.155861150022
 21
6059.399824992553
 31
0.0
  0
LINE
  5
10991
330
214
100
AcDbEntity
  8
MRK
100
AcDbLine
 10
1462.155861150022
 20
7257.025283992553
 30
0.0
 11
1462.155861150022
 21
6057.025283992551
 31
0.0
  0
LINE
  5
10992
330
214
100
AcDbEntity
  8
MRK
100
AcDbLine
 10
1377.155861150022
 20
7254.650742992554
 30
0.0
 11
1377.155861150022
 21
6054.650742992551
 31
0.0
  0
LINE
  5
10993
330
214
100
AcDbEntity
  8
MRK
100
AcDbLine
 10
1292.155861150022
 20
7252.276200992551
 30
0.0
 11
1292.155861150022
 21
6052.276200992553
 31
0.0
  0
LINE
  5
10994
330
214
100
AcDbEntity
  8
MRK
100
AcDbLine
 10
1292.155861150022
 20
6052.276200992553
 30
0.0
 11
1547.155861150022
 21
6059.399824992553
 31
0.0
  0
LINE
  5
10995
330
214
100
AcDbEntity
  8
MRK
100
AcDbLine
 10
1292.155861150022
 20
6152.276200992552
 30
0.0
 11
1547.155861150022
 21
6159.399824992553
 31
0.0
  0
LINE
  5
10996
330
214
100
AcDbEntity
  8
MRK
100
AcDbLine
 10
1292.155861150022
 20
6252.276200992553
 30
0.0
 11
1547.155861150022
 21
6259.399824992552
 31
0.0
  0
LINE
  5
10997
330
214
100
AcDbEntity
  8
MRK
100
AcDbLine
 10
1292.155861150022
 20
6352.276200992553
 30
0.0
 11
1547.155861150022
 21
6359.399824992553
 31
0.0
  0
LINE
  5
10998
330
214
100
AcDbEntity
  8
MRK
100
AcDbLine
 10
1292.155861150022
 20
6452.276200992551
 30
0.0
 11
1547.155861150022
 21
6459.399824992553
 31
0.0
  0
LINE
  5
10999
330
214
100
AcDbEntity
  8
MRK
100
AcDbLine
 10
1292.155861150022
 20
6552.276200992551
 30
0.0
 11
1547.155861150022
 21
6559.399824992553
 31
0.0
  0
LINE
  5
11000
330
214
100
AcDbEntity
  8
MRK
100
AcDbLine
 10
1292.155861150022
 20
6652.276200992552
 30
0.0
 11
1547.155861150022
 21
6659.399824992553
 31
0.0
  0
LINE
  5
11001
330
214
100
AcDbEntity
  8
MRK
100
AcDbLine
 10
1292.155861150022
 20
6752.276200992551
 30
0.0
 11
1547.155861150022
 21
6759.399824992553
 31
0.0
  0
LINE
  5
11002
330
214
100
AcDbEntity
  8
MRK
100
AcDbLine
 10
1292.155861150022
 20
6852.276200992553
 30
0.0
 11
1547.155861150022
 21
6859.399824992554
 31
0.0
  0
LINE
  5
11003
330
214
100
AcDbEntity
  8
MRK
100
AcDbLine
 10
1292.155861150022
 20
6952.276200992551
 30
0.0
 11
1547.155861150022
 21
6959.399824992553
 31
0.0
  0
LINE
  5
11004
330
214
100
AcDbEntity
  8
MRK
100
AcDbLine
 10
1292.155861150022
 20
7052.276200992551
 30
0.0
 11
1547.155861150022
 21
7059.399824992553
 31
0.0
  0
LINE
  5
11005
330
214
100
AcDbEntity
  8
MRK
100
AcDbLine
 10
1292.155861150022
 20
7152.276200992552
 30
0.0
 11
1547.155861150022
 21
7159.399824992553
 31
0.0
  0
LINE
  5
11006
330
214
100
AcDbEntity
  8
MRK
100
AcDbLine
 10
4992.155861150022
 20
7355.638586992552
 30
0.0
 11
5247.155861150022
 21
7362.762210992551
 31
0.0
  0
LINE
  5
11007
330
214
100
AcDbEntity
  8
MRK
100
AcDbLine
 10
5247.155861150022
 20
7362.762210992551
 30
0.0
 11
5247.155861150022
 21
6162.762210992553
 31
0.0
  0
LINE
  5
11008
330
214
100
AcDbEntity
  8
MRK
100
AcDbLine
 10
5162.155861150022
 20
7360.387668992551
 30
0.0
 11
5162.155861150022
 21
6160.387668992552
 31
0.0
  0
LINE
  5
11009
330
214
100
AcDbEntity
  8
MRK
100
AcDbLine
 10
5077.155861150022
 20
7358.013127992553
 30
0.0
 11
5077.155861150022
 21
6158.013127992553
 31
0.0
  0
LINE
  5
11010
330
214
100
AcDbEntity
  8
MRK
100
AcDbLine
 10
4992.155861150022
 20
7355.638586992552
 30
0.0
 11
4992.155861150022
 21
6155.638586992552
 31
0.0
  0
LINE
  5
11011
330
214
100
AcDbEntity
  8
MRK
100
AcDbLine
 10
4992.155861150022
 20
6155.638586992552
 30
0.0
 11
5247.155861150022
 21
6162.762210992553
 31
0.0
  0
LINE
  5
11012
330
214
100
AcDbEntity
  8
MRK
100
AcDbLine
 10
4992.155861150022
 20
6255.638586992553
 30
0.0
 11
5247.155861150022
 21
6262.762210992552
 31
0.0
  0
LINE
  5
11013
330
214
100
AcDbEntity
  8
MRK
100
AcDbLine
 10
4992.155861150022
 20
6355.638586992553
 30
0.0
 11
5247.155861150022
 21
6362.762210992553
 31
0.0
  0
LINE
  5
11014
330
214
100
AcDbEntity
  8
MRK
100
AcDbLine
 10
4992.155861150022
 20
6455.638586992552
 30
0.0
 11
5247.155861150022
 21
6462.762210992552
 31
0.0
  0
LINE
  5
11015
330
214
100
AcDbEntity
  8
MRK
100
AcDbLine
 10
4992.155861150022
 20
6555.638586992552
 30
0.0
 11
5247.155861150022
 21
6562.762210992552
 31
0.0
  0
LINE
  5
11016
330
214
100
AcDbEntity
  8
MRK
100
AcDbLine
 10
4992.155861150022
 20
6655.638586992552
 30
0.0
 11
5247.155861150022
 21
6662.762210992551
 31
0.0
  0
LINE
  5
11017
330
214
100
AcDbEntity
  8
MRK
100
AcDbLine
 10
4992.155861150022
 20
6755.638586992552
 30
0.0
 11
5247.155861150022
 21
6762.762210992552
 31
0.0
  0
LINE
  5
11018
330
214
100
AcDbEntity
  8
MRK
100
AcDbLine
 10
4992.155861150022
 20
6855.638586992552
 30
0.0
 11
5247.155861150022
 21
6862.762210992553
 31
0.0
  0
LINE
  5
11019
330
214
100
AcDbEntity
  8
MRK
100
AcDbLine
 10
4992.155861150022
 20
6955.638586992552
 30
0.0
 11
5247.155861150022
 21
6962.762210992552
 31
0.0
  0
LINE
  5
11020
330
214
100
AcDbEntity
  8
MRK
100
AcDbLine
 10
4992.155861150022
 20
7055.638586992552
 30
0.0
 11
5247.155861150022
 21
7062.762210992552
 31
0.0
  0
LINE
  5
11021
330
214
100
AcDbEntity
  8
MRK
100
AcDbLine
 10
4992.155861150022
 20
7155.638586992552
 30
0.0
 11
5247.155861150022
 21
7162.762210992553
 31
0.0
  0
LINE
  5
11022
330
214
100
AcDbEntity
  8
MRK
100
AcDbLine
 10
4992.155861150022
 20
7255.638586992552
 30
0.0
 11
5247.155861150022
 21
7262.762210992551
 31
0.0
  0
LINE
  5
11075
330
214
100
AcDbEntity
  8
DIMENSION
100
AcDbLine
 10
1095.744303150022
 20
8651.619205992552
 30
0.0
 11
1095.744303150022
 21
8441.619205992552
 31
0.0
  0
LINE
  5
11076
330
214
100
AcDbEntity
  8
DIMENSION
100
AcDbLine
 10
1442.289372150022
 20
8651.619205992552
 30
0.0
 11
1442.289372150022
 21
8441.619205992552
 31
0.0
  0
LINE
  5
11077
330
214
100
AcDbEntity
  8
DIMENSION
100
AcDbLine
 10
1095.744303150022
 20
8451.619205992553
 30
0.0
 11
1442.289372150022
 21
8451.619205992553
 31
0.0
  0
LINE
  5
11078
330
214
100
AcDbEntity
  8
DIMENSION
100
AcDbLine
 10
5800.256869150022
 20
8651.619205992552
 30
0.0
 11
5800.256869150022
 21
8441.619205992552
 31
0.0
  0
LINE
  5
11079
330
214
100
AcDbEntity
  8
DIMENSION
100
AcDbLine
 10
5340.297049150023
 20
8651.619205992552
 30
0.0
 11
5340.297049150023
 21
8441.619205992552
 31
0.0
  0
LINE
  5
11080
330
214
100
AcDbEntity
  8
DIMENSION
100
AcDbLine
 10
5800.256869150022
 20
8451.619205992553
 30
0.0
 11
5340.297049150023
 21
8451.619205992553
 31
0.0
  0
LINE
  5
11081
330
214
100
AcDbEntity
  8
DIMENSION
100
AcDbLine
 10
901.2710891500226
 20
9021.619205992553
 30
0.0
 11
691.2710891500227
 21
9021.619205992553
 31
0.0
  0
LINE
  5
11082
330
214
100
AcDbEntity
  8
DIMENSION
100
AcDbLine
 10
901.2710891500226
 20
9321.619205992552
 30
0.0
 11
691.2710891500227
 21
9321.619205992552
 31
0.0
  0
LINE
  5
11083
330
214
100
AcDbEntity
  8
DIMENSION
100
AcDbLine
 10
701.2710891500208
 20
9021.619205992553
 30
0.0
 11
701.2710891500208
 21
9321.619205992552
 31
0.0
  0
LINE
  5
11084
330
214
100
AcDbEntity
  8
DIMENSION
100
AcDbLine
 10
652.8863181500219
 20
8871.619205992553
 30
0.0
 11
442.8863181500219
 21
8871.619205992553
 31
0.0
  0
LINE
  5
11085
330
214
100
AcDbEntity
  8
DIMENSION
100
AcDbLine
 10
652.8863181500219
 20
9471.619205992553
 30
0.0
 11
442.8863181500219
 21
9471.619205992553
 31
0.0
  0
LINE
  5
11086
330
214
100
AcDbEntity
  8
DIMENSION
100
AcDbLine
 10
452.8863181500219
 20
8871.619205992553
 30
0.0
 11
452.8863181500219
 21
9471.619205992553
 31
0.0
  0
LINE
  5
11087
330
214
100
AcDbEntity
  8
DIMENSION
100
AcDbLine
 10
5919.815668150022
 20
8871.619205992553
 30
0.0
 11
6129.815668150023
 21
8871.619205992553
 31
0.0
  0
LINE
  5
11088
330
214
100
AcDbEntity
  8
DIMENSION
100
AcDbLine
 10
5919.815668150022
 20
9471.619205992553
 30
0.0
 11
6129.815668150023
 21
9471.619205992553
 31
0.0
  0
LINE
  5
11089
330
214
100
AcDbEntity
  8
DIMENSION
100
AcDbLine
 10
6119.815668150022
 20
8871.619205992553
 30
0.0
 11
6119.815668150022
 21
9471.619205992553
 31
0.0
  0
LINE
  5
11090
330
214
100
AcDbEntity
  8
DIMENSION
100
AcDbLine
 10
5566.630297150021
 20
9396.619205992553
 30
0.0
 11
5474.254264150022
 21
9556.619205992552
 31
0.0
  0
LINE
  5
11091
330
214
100
AcDbEntity
  8
DIMENSION
100
AcDbLine
 10
5474.254264150022
 20
9556.619205992552
 30
0.0
 11
5180.494264150021
 21
9556.619205992552
 31
0.0
  0
LINE
  5
11092
330
214
100
AcDbEntity
  8
DIMENSION
100
AcDbLine
 10
1206.071689150021
 20
9396.619205992553
 30
0.0
 11
1298.447722150021
 21
9556.619205992552
 31
0.0
  0
LINE
  5
11093
330
214
100
AcDbEntity
  8
DIMENSION
100
AcDbLine
 10
1298.447722150021
 20
9556.619205992552
 30
0.0
 11
1592.207722150019
 21
9556.619205992552
 31
0.0
  0
LINE
  5
11094
330
214
100
AcDbEntity
  8
DIMENSION
100
AcDbLine
 10
1639.655861150022
 20
5930.838012992552
 30
0.0
 11
1849.655861150021
 21
5930.838012992552
 31
0.0
  0
LINE
  5
11095
330
214
100
AcDbEntity
  8
DIMENSION
100
AcDbLine
 10
1639.655861150022
 20
7380.838012992552
 30
0.0
 11
1849.655861150021
 21
7380.838012992552
 31
0.0
  0
LINE
  5
11096
330
214
100
AcDbEntity
  8
DIMENSION
100
AcDbLine
 10
1839.655861150022
 20
5930.838012992552
 30
0.0
 11
1839.655861150022
 21
7380.838012992552
 31
0.0
  0
LINE
  5
11097
330
214
100
AcDbEntity
  8
DIMENSION
100
AcDbLine
 10
1639.655861150022
 20
5918.838012992552
 30
0.0
 11
1849.655861150021
 21
5918.838012992552
 31
0.0
  0
LINE
  5
11098
330
214
100
AcDbEntity
  8
DIMENSION
100
AcDbLine
 10
1639.655861150022
 20
5371.619205992551
 30
0.0
 11
1849.655861150021
 21
5371.619205992551
 31
0.0
  0
LINE
  5
11099
330
214
100
AcDbEntity
  8
DIMENSION
100
AcDbLine
 10
1839.655861150022
 20
5918.838012992552
 30
0.0
 11
1839.655861150022
 21
5371.619205992551
 31
0.0
  0
LINE
  5
11100
330
214
100
AcDbEntity
  8
DIMENSION
100
AcDbLine
 10
1419.655861150022
 20
5360.838012992553
 30
0.0
 11
1419.655861150022
 21
5150.838012992553
 31
0.0
  0
LINE
  5
11101
330
214
100
AcDbEntity
  8
DIMENSION
100
AcDbLine
 10
5119.655861150022
 20
5360.838012992553
 30
0.0
 11
5119.655861150022
 21
5150.838012992553
 31
0.0
  0
LINE
  5
11102
330
214
100
AcDbEntity
  8
DIMENSION
100
AcDbLine
 10
1419.655861150022
 20
5160.838012992552
 30
0.0
 11
5119.655861150022
 21
5160.838012992552
 31
0.0
  0
LINE
  5
11103
330
214
100
AcDbEntity
  8
DIMENSION
100
AcDbLine
 10
1419.655861150022
 20
5360.838012992553
 30
0.0
 11
1419.655861150022
 21
5150.838012992553
 31
0.0
  0
LINE
  5
11104
330
214
100
AcDbEntity
  8
DIMENSION
100
AcDbLine
 10
1079.655861150021
 20
5360.838012992553
 30
0.0
 11
1079.655861150021
 21
5150.838012992553
 31
0.0
  0
LINE
  5
11105
330
214
100
AcDbEntity
  8
DIMENSION
100
AcDbLine
 10
1419.655861150022
 20
5160.838012992552
 30
0.0
 11
1079.655861150021
 21
5160.838012992552
 31
0.0
  0
LINE
  5
11106
330
214
100
AcDbEntity
  8
DIMENSION
100
AcDbLine
 10
1419.655861150022
 20
7400.838012992553
 30
0.0
 11
1419.655861150022
 21
7610.838012992552
 31
0.0
  0
LINE
  5
11107
330
214
100
AcDbEntity
  8
DIMENSION
100
AcDbLine
 10
1089.655861150021
 20
7400.838012992553
 30
0.0
 11
1089.655861150021
 21
7610.838012992552
 31
0.0
  0
LINE
  5
11108
330
214
100
AcDbEntity
  8
DIMENSION
100
AcDbLine
 10
1419.655861150022
 20
7600.838012992553
 30
0.0
 11
1089.655861150021
 21
7600.838012992553
 31
0.0
  0
LINE
  5
11109
330
214
100
AcDbEntity
  8
DIMENSION
100
AcDbLine
 10
1199.655861150022
 20
5649.838012992553
 30
0.0
 11
1315.125902150022
 21
5449.838012992553
 31
0.0
  0
LINE
  5
11110
330
214
100
AcDbEntity
  8
DIMENSION
100
AcDbLine
 10
1315.125902150022
 20
5449.838012992553
 30
0.0
 11
1712.565902150021
 21
5449.838012992553
 31
0.0
  0
LINE
  5
11133
330
214
100
AcDbEntity
  8
TABLE
100
AcDbLine
 10
9169.655861150022
 20
10371.61920599255
 30
0.0
 11
9169.655861150022
 21
6871.619205992553
 31
0.0
  0
LINE
  5
11134
330
214
100
AcDbEntity
  8
TABLE
100
AcDbLine
 10
10327.48134528314
 20
10371.61920599255
 30
0.0
 11
10327.48134528314
 21
6871.619205992553
 31
0.0
  0
LINE
  5
11135
330
214
100
AcDbEntity
  8
TABLE
100
AcDbLine
 10
11535.52786145541
 20
10371.61920599255
 30
0.0
 11
11535.52786145541
 21
6871.619205992553
 31
0.0
  0
LINE
  5
11138
330
214
100
AcDbEntity
  8
TABLE
100
AcDbLine
 10
12648.61181260491
 20
10371.61920599255
 30
0.0
 11
12648.61181260491
 21
6871.619205992553
 31
0.0
  0
LINE
  5
11139
330
214
100
AcDbEntity
  8
TABLE
100
AcDbLine
 10
13592.99754257335
 20
10371.61920599255
 30
0.0
 11
13592.99754257335
 21
6871.619205992553
 31
0.0
  0
LINE
  5
11140
330
214
100
AcDbEntity
  8
TABLE
100
AcDbLine
 10
8369.655861150022
 20
10071.61920599255
 30
0.0
 11
14769.65586115002
 21
10071.61920599255
 31
0.0
  0
LINE
  5
11141
330
214
100
AcDbEntity
  8
TABLE
100
AcDbLine
 10
8369.655861150022
 20
9871.619205992553
 30
0.0
 11
14769.65586115002
 21
9871.619205992553
 31
0.0
  0
LINE
  5
11142
330
214
100
AcDbEntity
  8
TABLE
100
AcDbLine
 10
8369.655861150022
 20
9671.619205992556
 30
0.0
 11
14769.65586115002
 21
9671.619205992556
 31
0.0
  0
LINE
  5
11143
330
214
100
AcDbEntity
  8
TABLE
100
AcDbLine
 10
8369.655861150022
 20
9471.619205992553
 30
0.0
 11
14769.65586115002
 21
9471.619205992553
 31
0.0
  0
LINE
  5
11144
330
214
100
AcDbEntity
  8
TABLE
100
AcDbLine
 10
8369.655861150022
 20
9271.619205992553
 30
0.0
 11
14769.65586115002
 21
9271.619205992553
 31
0.0
  0
LINE
  5
11145
330
214
100
AcDbEntity
  8
TABLE
100
AcDbLine
 10
8369.655861150022
 20
9071.619205992552
 30
0.0
 11
14769.65586115002
 21
9071.619205992552
 31
0.0
  0
LINE
  5
11146
330
214
100
AcDbEntity
  8
TABLE
100
AcDbLine
 10
8369.655861150022
 20
8871.619205992553
 30
0.0
 11
14769.65586115002
 21
8871.619205992553
 31
0.0
  0
LINE
  5
11147
330
214
100
AcDbEntity
  8
TABLE
100
AcDbLine
 10
8369.655861150022
 20
8671.619205992554
 30
0.0
 11
14769.65586115002
 21
8671.619205992554
 31
0.0
  0
LINE
  5
11148
330
214
100
AcDbEntity
  8
TABLE
100
AcDbLine
 10
8369.655861150022
 20
8471.619205992553
 30
0.0
 11
14769.65586115002
 21
8471.619205992553
 31
0.0
  0
LINE
  5
11149
330
214
100
AcDbEntity
  8
TABLE
100
AcDbLine
 10
8369.655861150022
 20
8271.619205992553
 30
0.0
 11
14769.65586115002
 21
8271.619205992553
 31
0.0
  0
LINE
  5
11150
330
214
100
AcDbEntity
  8
TABLE
100
AcDbLine
 10
8369.655861150022
 20
8071.619205992552
 30
0.0
 11
14769.65586115002
 21
8071.619205992552
 31
0.0
  0
LINE
  5
11151
330
214
100
AcDbEntity
  8
TABLE
100
AcDbLine
 10
8369.655861150022
 20
7871.619205992553
 30
0.0
 11
14769.65586115002
 21
7871.619205992553
 31
0.0
  0
LINE
  5
11152
330
214
100
AcDbEntity
  8
TABLE
100
AcDbLine
 10
8369.655861150022
 20
7671.619205992553
 30
0.0
 11
14769.65586115002
 21
7671.619205992553
 31
0.0
  0
LINE
  5
11153
330
214
100
AcDbEntity
  8
TABLE
100
AcDbLine
 10
8369.655861150022
 20
7471.619205992553
 30
0.0
 11
14769.65586115002
 21
7471.619205992553
 31
0.0
  0
LINE
  5
11154
330
214
100
AcDbEntity
  8
TABLE
100
AcDbLine
 10
8369.655861150022
 20
7271.619205992553
 30
0.0
 11
14769.65586115002
 21
7271.619205992553
 31
0.0
  0
LINE
  5
11155
330
214
100
AcDbEntity
  8
TABLE
100
AcDbLine
 10
8369.655861150022
 20
7071.619205992553
 30
0.0
 11
14769.65586115002
 21
7071.619205992553
 31
0.0
  0
LINE
  5
11156
330
214
100
AcDbEntity
  8
CUTLINE
100
AcDbLine
 10
509.6558611500221
 20
6431.619205992553
 30
0.0
 11
489.6558611500221
 21
6401.619205992552
 31
0.0
  0
LINE
  5
11157
330
214
100
AcDbEntity
  8
CUTLINE
100
AcDbLine
 10
469.6558611500221
 20
6311.619205992553
 30
0.0
 11
509.6558611500221
 21
6431.619205992553
 31
0.0
  0
LINE
  5
11158
330
214
100
AcDbEntity
  8
CUTLINE
100
AcDbLine
 10
489.6558611500221
 20
6341.619205992553
 30
0.0
 11
469.6558611500221
 21
6311.619205992553
 31
0.0
  0
LINE
  5
11159
330
214
100
AcDbEntity
  8
CUTLINE
100
AcDbLine
 10
489.6558611500221
 20
6401.619205992552
 30
0.0
 11
489.6558611500221
 21
7383.619205992552
 31
0.0
  0
LINE
  5
11160
330
214
100
AcDbEntity
  8
CUTLINE
100
AcDbLine
 10
489.6558611500221
 20
5359.619205992554
 30
0.0
 11
489.6558611500221
 21
6341.619205992553
 31
0.0
  0
LINE
  5
11161
330
214
100
AcDbEntity
  8
CUTLINE
100
AcDbLine
 10
6069.655861150022
 20
6553.419205992553
 30
0.0
 11
6049.655861150022
 21
6523.419205992553
 31
0.0
  0
LINE
  5
11162
330
214
100
AcDbEntity
  8
CUTLINE
100
AcDbLine
 10
6029.655861150022
 20
6433.419205992553
 30
0.0
 11
6069.655861150022
 21
6553.419205992553
 31
0.0
  0
LINE
  5
11163
330
214
100
AcDbEntity
  8
CUTLINE
100
AcDbLine
 10
6049.655861150022
 20
6463.419205992552
 30
0.0
 11
6029.655861150022
 21
6433.419205992553
 31
0.0
  0
LINE
  5
11164
330
214
100
AcDbEntity
  8
CUTLINE
100
AcDbLine
 10
6049.655861150022
 20
6523.419205992553
 30
0.0
 11
6049.655861150022
 21
7505.419205992552
 31
0.0
  0
LINE
  5
11165
330
214
100
AcDbEntity
  8
CUTLINE
100
AcDbLine
 10
6049.655861150022
 20
5481.419205992551
 30
0.0
 11
6049.655861150022
 21
6463.419205992552
 31
0.0
  0
LINE
  5
11166
330
214
100
AcDbEntity
  8
SYMBOLMARK
100
AcDbLine
 10
684.6558611500222
 20
6657.010252992552
 30
0.0
 11
774.6558611500222
 21
6657.010252992552
 31
0.0
  0
LINE
  5
11167
330
214
100
AcDbEntity
  8
SYMBOLMARK
100
AcDbLine
 10
774.6558611500222
 20
6657.010252992552
 30
0.0
 11
819.6558611500222
 21
6734.952538992551
 31
0.0
  0
LINE
  5
11168
330
214
100
AcDbEntity
  8
SYMBOLMARK
100
AcDbLine
 10
819.6558611500222
 20
6734.952538992551
 30
0.0
 11
774.6558611500222
 21
6812.894825992552
 31
0.0
  0
LINE
  5
11169
330
214
100
AcDbEntity
  8
SYMBOLMARK
100
AcDbLine
 10
774.6558611500222
 20
6812.894825992552
 30
0.0
 11
684.6558611500222
 21
6812.894825992552
 31
0.0
  0
LINE
  5
11170
330
214
100
AcDbEntity
  8
SYMBOLMARK
100
AcDbLine
 10
684.6558611500222
 20
6812.894825992552
 30
0.0
 11
639.6558611500222
 21
6734.952538992551
 31
0.0
  0
LINE
  5
11171
330
214
100
AcDbEntity
  8
SYMBOLMARK
100
AcDbLine
 10
639.6558611500222
 20
6734.952538992551
 30
0.0
 11
684.6558611500222
 21
6657.010252992552
 31
0.0
  0
LINE
  5
11172
330
214
100
AcDbEntity
  8
SYMBOLMARK
100
AcDbLine
 10
5764.655861150022
 20
6778.810252992553
 30
0.0
 11
5854.655861150022
 21
6778.810252992553
 31
0.0
  0
LINE
  5
11173
330
214
100
AcDbEntity
  8
SYMBOLMARK
100
AcDbLine
 10
5854.655861150022
 20
6778.810252992553
 30
0.0
 11
5899.655861150023
 21
6856.752538992552
 31
0.0
  0
LINE
  5
11174
330
214
100
AcDbEntity
  8
SYMBOLMARK
100
AcDbLine
 10
5899.655861150023
 20
6856.752538992552
 30
0.0
 11
5854.655861150022
 21
6934.694825992552
 31
0.0
  0
LINE
  5
11175
330
214
100
AcDbEntity
  8
SYMBOLMARK
100
AcDbLine
 10
5854.655861150022
 20
6934.694825992552
 30
0.0
 11
5764.655861150022
 21
6934.694825992552
 31
0.0
  0
LINE
  5
11176
330
214
100
AcDbEntity
  8
SYMBOLMARK
100
AcDbLine
 10
5764.655861150022
 20
6934.694825992552
 30
0.0
 11
5719.655861150022
 21
6856.752538992552
 31
0.0
  0
LINE
  5
11177
330
214
100
AcDbEntity
  8
SYMBOLMARK
100
AcDbLine
 10
5719.655861150022
 20
6856.752538992552
 30
0.0
 11
5764.655861150022
 21
6778.810252992553
 31
0.0
  0
LWPOLYLINE
  5
11202
330
214
100
AcDbEntity
  8
MAINMEMBER
100
AcDbPolyline
 90
        4
 70
     1
 43
0.0
 10
2791.889656150022
 20
9165.619205992554
 10
2779.889656150022
 20
9165.619205992554
 10
2779.889656150022
 20
9035.619205992553
 10
2791.889656150022
 20
9035.619205992553
  0
LWPOLYLINE
  5
11206
330
214
100
AcDbEntity
  8
MAINMEMBER
100
AcDbPolyline
 90
        4
 70
     1
 43
0.0
 10
2791.889656150022
 20
9177.619205992552
 10
2779.889656150022
 20
9177.619205992552
 10
2779.889656150022
 20
9307.619205992553
 10
2791.889656150022
 20
9307.619205992553
  0
LWPOLYLINE
  5
11210
330
214
100
AcDbEntity
  8
MAINMEMBER
100
AcDbPolyline
 90
        4
 70
     1
 43
0.0
 10
3993.252635150023
 20
9165.619205992554
 10
3981.252635150024
 20
9165.619205992554
 10
3981.252635150024
 20
9035.619205992553
 10
3993.252635150023
 20
9035.619205992553
  0
LWPOLYLINE
  5
11214
330
214
100
AcDbEntity
  8
MAINMEMBER
100
AcDbPolyline
 90
        4
 70
     1
 43
0.0
 10
3993.252635150023
 20
9177.619205992552
 10
3981.252635150024
 20
9177.619205992552
 10
3981.252635150024
 20
9307.619205992553
 10
3993.252635150023
 20
9307.619205992553
  0
LWPOLYLINE
  5
11217
330
214
100
AcDbEntity
  8
MAINMEMBER
100
AcDbPolyline
 90
        3
 70
     0
 43
0.0
 10
1222.812424150022
 20
8781.389745992553
 10
1014.723815150021
 20
9422.677860992553
 10
945.8877561500212
 20
9637.138019992557
  0
LWPOLYLINE
  5
11220
330
214
100
AcDbEntity
  8
MAINMEMBER
100
AcDbPolyline
 90
        3
 70
     0
 43
0.0
 10
1120.164019150021
 20
8747.814383992553
 10
911.9176661500222
 20
9389.588650992553
 10
843.0284841500222
 20
9604.214317992553
  0
LWPOLYLINE
  5
11223
330
214
100
AcDbEntity
  8
MAINMEMBER
100
AcDbPolyline
 90
        3
 70
     0
 43
0.0
 10
1108.758641150022
 20
8744.083787992552
 10
900.4947611500224
 20
9385.912072992551
 10
831.5996761500223
 20
9600.55612899255
  0
LWPOLYLINE
  5
11226
330
214
100
AcDbEntity
  8
MAINMEMBER
100
AcDbPolyline
 90
        3
 70
     0
 43
0.0
 10
5939.645657150022
 20
8757.722040992552
 10
5732.776330150021
 20
9373.252998992553
 10
5664.314391150021
 20
9578.973843992553
  0
LWPOLYLINE
  5
11229
330
214
100
AcDbEntity
  8
MAINMEMBER
100
AcDbPolyline
 90
        3
 70
     0
 43
0.0
 10
5939.645657150022
 20
8757.722040992552
 10
5732.776330150021
 20
9373.252998992553
 10
5664.314391150021
 20
9578.973843992553
  0
LWPOLYLINE
  5
11232
330
214
100
AcDbEntity
  8
MAINMEMBER
100
AcDbPolyline
 90
        3
 70
     0
 43
0.0
 10
5951.012039150022
 20
8761.569814992553
 10
5744.159543150022
 20
9377.050690992552
 10
5675.703286150022
 20
9582.754460992552
  0
LWPOLYLINE
  5
11240
330
214
100
AcDbEntity
  8
TABLEOUTLINE
100
AcDbPolyline
 90
        4
 70
     1
 43
0.0
 10
8369.655861150022
 20
10371.61920599255
 10
14769.65586115002
 20
10371.61920599255
 10
14769.65586115002
 20
6871.619205992553
 10
8369.655861150022
 20
6871.619205992553
  0
ARC
  5
11264
330
214
100
AcDbEntity
  8
MAINMEMBER
100
AcDbCircle
 10
1350.006816150022
 20
8831.758153992552
 30
0.0
 40
150.0
100
AcDbArc
 50
109.2232555217
 51
162.5072530971
  0
ARC
  5
11265
330
214
100
AcDbEntity
  8
MAINMEMBER
100
AcDbCircle
 10
1148.934570150021
 20
9539.612447992553
 30
0.0
 40
150.0
100
AcDbArc
 50
204.9585490958
 51
257.8142123258999
  0
ARC
  5
11266
330
214
100
AcDbEntity
  8
MAINMEMBER
100
AcDbCircle
 10
5753.055546150023
 20
8798.399356992552
 30
0.0
 40
150.0
100
AcDbArc
 50
27.047525541
 51
80.1364098232
  0
ARC
  5
11267
330
214
100
AcDbEntity
  8
MAINMEMBER
100
AcDbCircle
 10
5548.246981150022
 20
9528.122598992553
 30
0.0
 40
150.0
100
AcDbArc
 50
283.6143425553
 51
336.0211172375
  0
ARC
  5
11268
330
214
100
AcDbEntity
  8
MAINMEMBER
100
AcDbCircle
 10
981.6558611500225
 20
5918.602141992553
 30
0.0
 40
35.0
100
AcDbArc
 50
1.600186101599998
 51
90.0
  0
ARC
  5
11269
330
214
100
AcDbEntity
  8
MAINMEMBER
100
AcDbCircle
 10
1089.669521150022
 20
7371.619202992552
 30
0.0
 40
35.0
100
AcDbArc
 50
269.9776384774
 51
1.6008149065
  0
ARC
  5
11270
330
214
100
AcDbEntity
  8
MAINMEMBER
100
AcDbCircle
 10
5557.655861150022
 20
6046.436269992552
 30
0.0
 40
35.0
100
AcDbArc
 50
90.0
 51
181.6001861015998
  0
ARC
  5
11271
330
214
100
AcDbEntity
  8
MAINMEMBER
100
AcDbCircle
 10
5449.64220115002
 20
7493.419202992552
 30
0.0
 40
35.0
100
AcDbArc
 50
181.6008061758999
 51
270.0223612786999
  0
ARC
  5
11272
330
214
100
AcDbEntity
  8
MAINMEMBER
100
AcDbCircle
 10
981.6558611500225
 20
5906.602141992553
 30
0.0
 40
35.0
100
AcDbArc
 50
270.0
 51
1.600186101599998
  0
ARC
  5
11273
330
214
100
AcDbEntity
  8
MAINMEMBER
100
AcDbCircle
 10
5557.655861150022
 20
6034.436269992553
 30
0.0
 40
35.0
100
AcDbArc
 50
181.6001861015998
 51
270.0
  0
LWPOLYLINE
  5
11514
330
214
100
AcDbEntity
  8
DRL
100
AcDbPolyline
 90
        2
 70
     1
 43
12.25
 10
1321.258412150021
 20
9259.619205992553
 42
1.0
 10
1309.008412150022
 20
9259.619205992553
 42
1.0
  0
LWPOLYLINE
  5
11516
330
214
100
AcDbEntity
  8
DRL
100
AcDbPolyline
 90
        2
 70
     1
 43
12.25
 10
1236.258412150021
 20
9259.619205992553
 42
1.0
 10
1224.008412150022
 20
9259.619205992553
 42
1.0
  0
LWPOLYLINE
  5
11518
330
214
100
AcDbEntity
  8
DRL
100
AcDbPolyline
 90
        2
 70
     1
 43
12.25
 10
1661.258412150021
 20
9083.619205992553
 42
1.0
 10
1649.008412150022
 20
9083.619205992553
 42
1.0
  0
LWPOLYLINE
  5
11520
330
214
100
AcDbEntity
  8
DRL
100
AcDbPolyline
 90
        2
 70
     1
 43
12.25
 10
1576.258412150022
 20
9083.619205992553
 42
1.0
 10
1564.008412150021
 20
9083.619205992553
 42
1.0
  0
LWPOLYLINE
  5
11522
330
214
100
AcDbEntity
  8
DRL
100
AcDbPolyline
 90
        2
 70
     1
 43
12.25
 10
1491.258412150022
 20
9083.619205992553
 42
1.0
 10
1479.008412150021
 20
9083.619205992553
 42
1.0
  0
LWPOLYLINE
  5
11524
330
214
100
AcDbEntity
  8
DRL
100
AcDbPolyline
 90
        2
 70
     1
 43
12.25
 10
1406.258412150022
 20
9083.619205992553
 42
1.0
 10
1394.008412150022
 20
9083.619205992553
 42
1.0
  0
LWPOLYLINE
  5
11526
330
214
100
AcDbEntity
  8
DRL
100
AcDbPolyline
 90
        2
 70
     1
 43
12.25
 10
1321.258412150021
 20
9083.619205992553
 42
1.0
 10
1309.008412150022
 20
9083.619205992553
 42
1.0
  0
LWPOLYLINE
  5
11528
330
214
100
AcDbEntity
  8
DRL
100
AcDbPolyline
 90
        2
 70
     1
 43
12.25
 10
1236.258412150021
 20
9083.619205992553
 42
1.0
 10
1224.008412150022
 20
9083.619205992553
 42
1.0
  0
LWPOLYLINE
  5
11530
330
214
100
AcDbEntity
  8
DRL
100
AcDbPolyline
 90
        2
 70
     1
 43
12.25
 10
1661.258412150021
 20
9259.619205992553
 42
1.0
 10
1649.008412150022
 20
9259.619205992553
 42
1.0
  0
LWPOLYLINE
  5
11532
330
214
100
AcDbEntity
  8
DRL
100
AcDbPolyline
 90
        2
 70
     1
 43
12.25
 10
1576.258412150022
 20
9259.619205992553
 42
1.0
 10
1564.008412150021
 20
9259.619205992553
 42
1.0
  0
LWPOLYLINE
  5
11534
330
214
100
AcDbEntity
  8
DRL
100
AcDbPolyline
 90
        2
 70
     1
 43
12.25
 10
1491.258412150022
 20
9259.619205992553
 42
1.0
 10
1479.008412150021
 20
9259.619205992553
 42
1.0
  0
LWPOLYLINE
  5
11536
330
214
100
AcDbEntity
  8
DRL
100
AcDbPolyline
 90
        2
 70
     1
 43
12.25
 10
1406.258412150022
 20
9259.619205992553
 42
1.0
 10
1394.008412150022
 20
9259.619205992553
 42
1.0
  0
LWPOLYLINE
  5
11538
330
214
100
AcDbEntity
  8
DRL
100
AcDbPolyline
 90
        2
 70
     1
 43
12.25
 10
5216.872506150024
 20
9259.619205992553
 42
1.0
 10
5204.622506150023
 20
9259.619205992553
 42
1.0
  0
LWPOLYLINE
  5
11540
330
214
100
AcDbEntity
  8
DRL
100
AcDbPolyline
 90
        2
 70
     1
 43
12.25
 10
5131.872506150024
 20
9259.619205992553
 42
1.0
 10
5119.622506150023
 20
9259.619205992553
 42
1.0
  0
LWPOLYLINE
  5
11542
330
214
100
AcDbEntity
  8
DRL
100
AcDbPolyline
 90
        2
 70
     1
 43
12.25
 10
5556.872506150025
 20
9259.619205992553
 42
1.0
 10
5544.622506150023
 20
9259.619205992553
 42
1.0
  0
LWPOLYLINE
  5
11544
330
214
100
AcDbEntity
  8
DRL
100
AcDbPolyline
 90
        2
 70
     1
 43
12.25
 10
5471.872506150024
 20
9259.619205992553
 42
1.0
 10
5459.622506150023
 20
9259.619205992553
 42
1.0
  0
LWPOLYLINE
  5
11546
330
214
100
AcDbEntity
  8
DRL
100
AcDbPolyline
 90
        2
 70
     1
 43
12.25
 10
5386.872506150023
 20
9259.619205992553
 42
1.0
 10
5374.622506150024
 20
9259.619205992553
 42
1.0
  0
LWPOLYLINE
  5
11548
330
214
100
AcDbEntity
  8
DRL
100
AcDbPolyline
 90
        2
 70
     1
 43
12.25
 10
5301.872506150022
 20
9259.619205992553
 42
1.0
 10
5289.622506150021
 20
9259.619205992553
 42
1.0
  0
LWPOLYLINE
  5
11550
330
214
100
AcDbEntity
  8
DRL
100
AcDbPolyline
 90
        2
 70
     1
 43
12.25
 10
5216.872506150024
 20
9083.619205992553
 42
1.0
 10
5204.622506150023
 20
9083.619205992553
 42
1.0
  0
LWPOLYLINE
  5
11552
330
214
100
AcDbEntity
  8
DRL
100
AcDbPolyline
 90
        2
 70
     1
 43
12.25
 10
5131.872506150024
 20
9083.619205992553
 42
1.0
 10
5119.622506150023
 20
9083.619205992553
 42
1.0
  0
LWPOLYLINE
  5
11554
330
214
100
AcDbEntity
  8
DRL
100
AcDbPolyline
 90
        2
 70
     1
 43
12.25
 10
5556.872506150025
 20
9083.619205992553
 42
1.0
 10
5544.622506150023
 20
9083.619205992553
 42
1.0
  0
LWPOLYLINE
  5
11556
330
214
100
AcDbEntity
  8
DRL
100
AcDbPolyline
 90
        2
 70
     1
 43
12.25
 10
5471.872506150024
 20
9083.619205992553
 42
1.0
 10
5459.622506150023
 20
9083.619205992553
 42
1.0
  0
LWPOLYLINE
  5
11558
330
214
100
AcDbEntity
  8
DRL
100
AcDbPolyline
 90
        2
 70
     1
 43
12.25
 10
5386.872506150023
 20
9083.619205992553
 42
1.0
 10
5374.622506150024
 20
9083.619205992553
 42
1.0
  0
LWPOLYLINE
  5
11560
330
214
100
AcDbEntity
  8
DRL
100
AcDbPolyline
 90
        2
 70
     1
 43
12.25
 10
5301.872506150022
 20
9083.619205992553
 42
1.0
 10
5289.622506150021
 20
9083.619205992553
 42
1.0
  0
LWPOLYLINE
  5
11562
330
214
100
AcDbEntity
  8
DRL
100
AcDbPolyline
 90
        2
 70
     1
 43
12.25
 10
1383.280861150022
 20
7254.650742992554
 42
1.0
 10
1371.030861150022
 20
7254.650742992554
 42
1.0
  0
LWPOLYLINE
  5
11564
330
214
100
AcDbEntity
  8
DRL
100
AcDbPolyline
 90
        2
 70
     1
 43
12.25
 10
1298.280861150022
 20
7252.276200992551
 42
1.0
 10
1286.030861150022
 20
7252.276200992551
 42
1.0
  0
LWPOLYLINE
  5
11566
330
214
100
AcDbEntity
  8
DRL
100
AcDbPolyline
 90
        2
 70
     1
 43
12.25
 10
1553.280861150021
 20
6059.399824992553
 42
1.0
 10
1541.030861150022
 20
6059.399824992553
 42
1.0
  0
LWPOLYLINE
  5
11568
330
214
100
AcDbEntity
  8
DRL
100
AcDbPolyline
 90
        2
 70
     1
 43
12.25
 10
1468.280861150022
 20
6057.025283992551
 42
1.0
 10
1456.030861150021
 20
6057.025283992551
 42
1.0
  0
LWPOLYLINE
  5
11570
330
214
100
AcDbEntity
  8
DRL
100
AcDbPolyline
 90
        2
 70
     1
 43
12.25
 10
1383.280861150022
 20
6054.650742992551
 42
1.0
 10
1371.030861150022
 20
6054.650742992551
 42
1.0
  0
LWPOLYLINE
  5
11572
330
214
100
AcDbEntity
  8
DRL
100
AcDbPolyline
 90
        2
 70
     1
 43
12.25
 10
1298.280861150022
 20
6052.276200992553
 42
1.0
 10
1286.030861150022
 20
6052.276200992553
 42
1.0
  0
LWPOLYLINE
  5
11574
330
214
100
AcDbEntity
  8
DRL
100
AcDbPolyline
 90
        2
 70
     1
 43
12.25
 10
1553.280861150021
 20
6159.399824992553
 42
1.0
 10
1541.030861150022
 20
6159.399824992553
 42
1.0
  0
LWPOLYLINE
  5
11576
330
214
100
AcDbEntity
  8
DRL
100
AcDbPolyline
 90
        2
 70
     1
 43
12.25
 10
1468.280861150022
 20
6157.025283992552
 42
1.0
 10
1456.030861150021
 20
6157.025283992552
 42
1.0
  0
LWPOLYLINE
  5
11578
330
214
100
AcDbEntity
  8
DRL
100
AcDbPolyline
 90
        2
 70
     1
 43
12.25
 10
1383.280861150022
 20
6154.650742992551
 42
1.0
 10
1371.030861150022
 20
6154.650742992551
 42
1.0
  0
LWPOLYLINE
  5
11580
330
214
100
AcDbEntity
  8
DRL
100
AcDbPolyline
 90
        2
 70
     1
 43
12.25
 10
1298.280861150022
 20
6152.276200992552
 42
1.0
 10
1286.030861150022
 20
6152.276200992552
 42
1.0
  0
LWPOLYLINE
  5
11582
330
214
100
AcDbEntity
  8
DRL
100
AcDbPolyline
 90
        2
 70
     1
 43
12.25
 10
1553.280861150021
 20
6259.399824992552
 42
1.0
 10
1541.030861150022
 20
6259.399824992552
 42
1.0
  0
LWPOLYLINE
  5
11584
330
214
100
AcDbEntity
  8
DRL
100
AcDbPolyline
 90
        2
 70
     1
 43
12.25
 10
1468.280861150022
 20
6257.025283992552
 42
1.0
 10
1456.030861150021
 20
6257.025283992552
 42
1.0
  0
LWPOLYLINE
  5
11586
330
214
100
AcDbEntity
  8
DRL
100
AcDbPolyline
 90
        2
 70
     1
 43
12.25
 10
1383.280861150022
 20
6254.650742992552
 42
1.0
 10
1371.030861150022
 20
6254.650742992552
 42
1.0
  0
LWPOLYLINE
  5
11588
330
214
100
AcDbEntity
  8
DRL
100
AcDbPolyline
 90
        2
 70
     1
 43
12.25
 10
1298.280861150022
 20
6252.276200992553
 42
1.0
 10
1286.030861150022
 20
6252.276200992553
 42
1.0
  0
LWPOLYLINE
  5
11590
330
214
100
AcDbEntity
  8
DRL
100
AcDbPolyline
 90
        2
 70
     1
 43
12.25
 10
1553.280861150021
 20
6359.399824992553
 42
1.0
 10
1541.030861150022
 20
6359.399824992553
 42
1.0
  0
LWPOLYLINE
  5
11592
330
214
100
AcDbEntity
  8
DRL
100
AcDbPolyline
 90
        2
 70
     1
 43
12.25
 10
1468.280861150022
 20
6357.025283992552
 42
1.0
 10
1456.030861150021
 20
6357.025283992552
 42
1.0
  0
LWPOLYLINE
  5
11594
330
214
100
AcDbEntity
  8
DRL
100
AcDbPolyline
 90
        2
 70
     1
 43
12.25
 10
1383.280861150022
 20
6354.650742992551
 42
1.0
 10
1371.030861150022
 20
6354.650742992551
 42
1.0
  0
LWPOLYLINE
  5
11596
330
214
100
AcDbEntity
  8
DRL
100
AcDbPolyline
 90
        2
 70
     1
 43
12.25
 10
1298.280861150022
 20
6352.276200992553
 42
1.0
 10
1286.030861150022
 20
6352.276200992553
 42
1.0
  0
LWPOLYLINE
  5
11598
330
214
100
AcDbEntity
  8
DRL
100
AcDbPolyline
 90
        2
 70
     1
 43
12.25
 10
1553.280861150021
 20
6459.399824992553
 42
1.0
 10
1541.030861150022
 20
6459.399824992553
 42
1.0
  0
LWPOLYLINE
  5
11600
330
214
100
AcDbEntity
  8
DRL
100
AcDbPolyline
 90
        2
 70
     1
 43
12.25
 10
1468.280861150022
 20
6457.025283992553
 42
1.0
 10
1456.030861150021
 20
6457.025283992553
 42
1.0
  0
LWPOLYLINE
  5
11602
330
214
100
AcDbEntity
  8
DRL
100
AcDbPolyline
 90
        2
 70
     1
 43
12.25
 10
1383.280861150022
 20
6454.650742992552
 42
1.0
 10
1371.030861150022
 20
6454.650742992552
 42
1.0
  0
LWPOLYLINE
  5
11604
330
214
100
AcDbEntity
  8
DRL
100
AcDbPolyline
 90
        2
 70
     1
 43
12.25
 10
1298.280861150022
 20
6452.276200992551
 42
1.0
 10
1286.030861150022
 20
6452.276200992551
 42
1.0
  0
LWPOLYLINE
  5
11606
330
214
100
AcDbEntity
  8
DRL
100
AcDbPolyline
 90
        2
 70
     1
 43
12.25
 10
1553.280861150021
 20
6559.399824992553
 42
1.0
 10
1541.030861150022
 20
6559.399824992553
 42
1.0
  0
LWPOLYLINE
  5
11608
330
214
100
AcDbEntity
  8
DRL
100
AcDbPolyline
 90
        2
 70
     1
 43
12.25
 10
1468.280861150022
 20
6557.025283992553
 42
1.0
 10
1456.030861150021
 20
6557.025283992553
 42
1.0
  0
LWPOLYLINE
  5
11610
330
214
100
AcDbEntity
  8
DRL
100
AcDbPolyline
 90
        2
 70
     1
 43
12.25
 10
1383.280861150022
 20
6554.650742992553
 42
1.0
 10
1371.030861150022
 20
6554.650742992553
 42
1.0
  0
LWPOLYLINE
  5
11612
330
214
100
AcDbEntity
  8
DRL
100
AcDbPolyline
 90
        2
 70
     1
 43
12.25
 10
1298.280861150022
 20
6552.276200992551
 42
1.0
 10
1286.030861150022
 20
6552.276200992551
 42
1.0
  0
LWPOLYLINE
  5
11614
330
214
100
AcDbEntity
  8
DRL
100
AcDbPolyline
 90
        2
 70
     1
 43
12.25
 10
1553.280861150021
 20
6659.399824992553
 42
1.0
 10
1541.030861150022
 20
6659.399824992553
 42
1.0
  0
LWPOLYLINE
  5
11616
330
214
100
AcDbEntity
  8
DRL
100
AcDbPolyline
 90
        2
 70
     1
 43
12.25
 10
1468.280861150022
 20
6657.025283992552
 42
1.0
 10
1456.030861150021
 20
6657.025283992552
 42
1.0
  0
LWPOLYLINE
  5
11618
330
214
100
AcDbEntity
  8
DRL
100
AcDbPolyline
 90
        2
 70
     1
 43
12.25
 10
1383.280861150022
 20
6654.650742992552
 42
1.0
 10
1371.030861150022
 20
6654.650742992552
 42
1.0
  0
LWPOLYLINE
  5
11620
330
214
100
AcDbEntity
  8
DRL
100
AcDbPolyline
 90
        2
 70
     1
 43
12.25
 10
1298.280861150022
 20
6652.276200992552
 42
1.0
 10
1286.030861150022
 20
6652.276200992552
 42
1.0
  0
LWPOLYLINE
  5
11622
330
214
100
AcDbEntity
  8
DRL
100
AcDbPolyline
 90
        2
 70
     1
 43
12.25
 10
1553.280861150021
 20
6759.399824992553
 42
1.0
 10
1541.030861150022
 20
6759.399824992553
 42
1.0
  0
LWPOLYLINE
  5
11624
330
214
100
AcDbEntity
  8
DRL
100
AcDbPolyline
 90
        2
 70
     1
 43
12.25
 10
1468.280861150022
 20
6757.025283992553
 42
1.0
 10
1456.030861150021
 20
6757.025283992553
 42
1.0
  0
LWPOLYLINE
  5
11626
330
214
100
AcDbEntity
  8
DRL
100
AcDbPolyline
 90
        2
 70
     1
 43
12.25
 10
1383.280861150022
 20
6754.650742992552
 42
1.0
 10
1371.030861150022
 20
6754.650742992552
 42
1.0
  0
LWPOLYLINE
  5
11628
330
214
100
AcDbEntity
  8
DRL
100
AcDbPolyline
 90
        2
 70
     1
 43
12.25
 10
1298.280861150022
 20
6752.276200992551
 42
1.0
 10
1286.030861150022
 20
6752.276200992551
 42
1.0
  0
LWPOLYLINE
  5
11630
330
214
100
AcDbEntity
  8
DRL
100
AcDbPolyline
 90
        2
 70
     1
 43
12.25
 10
1553.280861150021
 20
6859.399824992554
 42
1.0
 10
1541.030861150022
 20
6859.399824992554
 42
1.0
  0
LWPOLYLINE
  5
11632
330
214
100
AcDbEntity
  8
DRL
100
AcDbPolyline
 90
        2
 70
     1
 43
12.25
 10
1468.280861150022
 20
6857.025283992553
 42
1.0
 10
1456.030861150021
 20
6857.025283992553
 42
1.0
  0
LWPOLYLINE
  5
11634
330
214
100
AcDbEntity
  8
DRL
100
AcDbPolyline
 90
        2
 70
     1
 43
12.25
 10
1383.280861150022
 20
6854.650742992553
 42
1.0
 10
1371.030861150022
 20
6854.650742992553
 42
1.0
  0
LWPOLYLINE
  5
11636
330
214
100
AcDbEntity
  8
DRL
100
AcDbPolyline
 90
        2
 70
     1
 43
12.25
 10
1298.280861150022
 20
6852.276200992553
 42
1.0
 10
1286.030861150022
 20
6852.276200992553
 42
1.0
  0
LWPOLYLINE
  5
11638
330
214
100
AcDbEntity
  8
DRL
100
AcDbPolyline
 90
        2
 70
     1
 43
12.25
 10
1553.280861150021
 20
6959.399824992553
 42
1.0
 10
1541.030861150022
 20
6959.399824992553
 42
1.0
  0
LWPOLYLINE
  5
11640
330
214
100
AcDbEntity
  8
DRL
100
AcDbPolyline
 90
        2
 70
     1
 43
12.25
 10
1468.280861150022
 20
6957.025283992553
 42
1.0
 10
1456.030861150021
 20
6957.025283992553
 42
1.0
  0
LWPOLYLINE
  5
11642
330
214
100
AcDbEntity
  8
DRL
100
AcDbPolyline
 90
        2
 70
     1
 43
12.25
 10
1383.280861150022
 20
6954.650742992552
 42
1.0
 10
1371.030861150022
 20
6954.650742992552
 42
1.0
  0
LWPOLYLINE
  5
11644
330
214
100
AcDbEntity
  8
DRL
100
AcDbPolyline
 90
        2
 70
     1
 43
12.25
 10
1298.280861150022
 20
6952.276200992551
 42
1.0
 10
1286.030861150022
 20
6952.276200992551
 42
1.0
  0
LWPOLYLINE
  5
11646
330
214
100
AcDbEntity
  8
DRL
100
AcDbPolyline
 90
        2
 70
     1
 43
12.25
 10
1553.280861150021
 20
7059.399824992553
 42
1.0
 10
1541.030861150022
 20
7059.399824992553
 42
1.0
  0
LWPOLYLINE
  5
11648
330
214
100
AcDbEntity
  8
DRL
100
AcDbPolyline
 90
        2
 70
     1
 43
12.25
 10
1468.280861150022
 20
7057.025283992553
 42
1.0
 10
1456.030861150021
 20
7057.025283992553
 42
1.0
  0
LWPOLYLINE
  5
11650
330
214
100
AcDbEntity
  8
DRL
100
AcDbPolyline
 90
        2
 70
     1
 43
12.25
 10
1383.280861150022
 20
7054.650742992554
 42
1.0
 10
1371.030861150022
 20
7054.650742992554
 42
1.0
  0
LWPOLYLINE
  5
11652
330
214
100
AcDbEntity
  8
DRL
100
AcDbPolyline
 90
        2
 70
     1
 43
12.25
 10
1298.280861150022
 20
7052.276200992551
 42
1.0
 10
1286.030861150022
 20
7052.276200992551
 42
1.0
  0
LWPOLYLINE
  5
11654
330
214
100
AcDbEntity
  8
DRL
100
AcDbPolyline
 90
        2
 70
     1
 43
12.25
 10
1553.280861150021
 20
7159.399824992553
 42
1.0
 10
1541.030861150022
 20
7159.399824992553
 42
1.0
  0
LWPOLYLINE
  5
11656
330
214
100
AcDbEntity
  8
DRL
100
AcDbPolyline
 90
        2
 70
     1
 43
12.25
 10
1468.280861150022
 20
7157.025283992552
 42
1.0
 10
1456.030861150021
 20
7157.025283992552
 42
1.0
  0
LWPOLYLINE
  5
11658
330
214
100
AcDbEntity
  8
DRL
100
AcDbPolyline
 90
        2
 70
     1
 43
12.25
 10
1383.280861150022
 20
7154.650742992554
 42
1.0
 10
1371.030861150022
 20
7154.650742992554
 42
1.0
  0
LWPOLYLINE
  5
11660
330
214
100
AcDbEntity
  8
DRL
100
AcDbPolyline
 90
        2
 70
     1
 43
12.25
 10
1298.280861150022
 20
7152.276200992552
 42
1.0
 10
1286.030861150022
 20
7152.276200992552
 42
1.0
  0
LWPOLYLINE
  5
11662
330
214
100
AcDbEntity
  8
DRL
100
AcDbPolyline
 90
        2
 70
     1
 43
12.25
 10
1553.280861150021
 20
7259.399824992553
 42
1.0
 10
1541.030861150022
 20
7259.399824992553
 42
1.0
  0
LWPOLYLINE
  5
11664
330
214
100
AcDbEntity
  8
DRL
100
AcDbPolyline
 90
        2
 70
     1
 43
12.25
 10
1468.280861150022
 20
7257.025283992553
 42
1.0
 10
1456.030861150021
 20
7257.025283992553
 42
1.0
  0
LWPOLYLINE
  5
11666
330
214
100
AcDbEntity
  8
DRL
100
AcDbPolyline
 90
        2
 70
     1
 43
12.25
 10
5083.280861150022
 20
7358.013127992553
 42
1.0
 10
5071.030861150022
 20
7358.013127992553
 42
1.0
  0
LWPOLYLINE
  5
11668
330
214
100
AcDbEntity
  8
DRL
100
AcDbPolyline
 90
        2
 70
     1
 43
12.25
 10
4998.280861150022
 20
7355.638586992552
 42
1.0
 10
4986.030861150022
 20
7355.638586992552
 42
1.0
  0
LWPOLYLINE
  5
11670
330
214
100
AcDbEntity
  8
DRL
100
AcDbPolyline
 90
        2
 70
     1
 43
12.25
 10
5253.28086115002
 20
6162.762210992553
 42
1.0
 10
5241.030861150022
 20
6162.762210992553
 42
1.0
  0
LWPOLYLINE
  5
11672
330
214
100
AcDbEntity
  8
DRL
100
AcDbPolyline
 90
        2
 70
     1
 43
12.25
 10
5168.280861150022
 20
6160.387668992552
 42
1.0
 10
5156.030861150023
 20
6160.387668992552
 42
1.0
  0
LWPOLYLINE
  5
11674
330
214
100
AcDbEntity
  8
DRL
100
AcDbPolyline
 90
        2
 70
     1
 43
12.25
 10
5083.280861150022
 20
6158.013127992553
 42
1.0
 10
5071.030861150022
 20
6158.013127992553
 42
1.0
  0
LWPOLYLINE
  5
11676
330
214
100
AcDbEntity
  8
DRL
100
AcDbPolyline
 90
        2
 70
     1
 43
12.25
 10
4998.280861150022
 20
6155.638586992552
 42
1.0
 10
4986.030861150022
 20
6155.638586992552
 42
1.0
  0
LWPOLYLINE
  5
11678
330
214
100
AcDbEntity
  8
DRL
100
AcDbPolyline
 90
        2
 70
     1
 43
12.25
 10
5253.28086115002
 20
6262.762210992552
 42
1.0
 10
5241.030861150022
 20
6262.762210992552
 42
1.0
  0
LWPOLYLINE
  5
11680
330
214
100
AcDbEntity
  8
DRL
100
AcDbPolyline
 90
        2
 70
     1
 43
12.25
 10
5168.280861150022
 20
6260.387668992553
 42
1.0
 10
5156.030861150023
 20
6260.387668992553
 42
1.0
  0
LWPOLYLINE
  5
11682
330
214
100
AcDbEntity
  8
DRL
100
AcDbPolyline
 90
        2
 70
     1
 43
12.25
 10
5083.280861150022
 20
6258.013127992553
 42
1.0
 10
5071.030861150022
 20
6258.013127992553
 42
1.0
  0
LWPOLYLINE
  5
11684
330
214
100
AcDbEntity
  8
DRL
100
AcDbPolyline
 90
        2
 70
     1
 43
12.25
 10
4998.280861150022
 20
6255.638586992553
 42
1.0
 10
4986.030861150022
 20
6255.638586992553
 42
1.0
  0
LWPOLYLINE
  5
11686
330
214
100
AcDbEntity
  8
DRL
100
AcDbPolyline
 90
        2
 70
     1
 43
12.25
 10
5253.28086115002
 20
6362.762210992553
 42
1.0
 10
5241.030861150022
 20
6362.762210992553
 42
1.0
  0
LWPOLYLINE
  5
11688
330
214
100
AcDbEntity
  8
DRL
100
AcDbPolyline
 90
        2
 70
     1
 43
12.25
 10
5168.280861150022
 20
6360.387668992553
 42
1.0
 10
5156.030861150023
 20
6360.387668992553
 42
1.0
  0
LWPOLYLINE
  5
11690
330
214
100
AcDbEntity
  8
DRL
100
AcDbPolyline
 90
        2
 70
     1
 43
12.25
 10
5083.280861150022
 20
6358.013127992553
 42
1.0
 10
5071.030861150022
 20
6358.013127992553
 42
1.0
  0
LWPOLYLINE
  5
11692
330
214
100
AcDbEntity
  8
DRL
100
AcDbPolyline
 90
        2
 70
     1
 43
12.25
 10
4998.280861150022
 20
6355.638586992553
 42
1.0
 10
4986.030861150022
 20
6355.638586992553
 42
1.0
  0
LWPOLYLINE
  5
11694
330
214
100
AcDbEntity
  8
DRL
100
AcDbPolyline
 90
        2
 70
     1
 43
12.25
 10
5253.28086115002
 20
6462.762210992552
 42
1.0
 10
5241.030861150022
 20
6462.762210992552
 42
1.0
  0
LWPOLYLINE
  5
11696
330
214
100
AcDbEntity
  8
DRL
100
AcDbPolyline
 90
        2
 70
     1
 43
12.25
 10
5168.280861150022
 20
6460.387668992552
 42
1.0
 10
5156.030861150023
 20
6460.387668992552
 42
1.0
  0
LWPOLYLINE
  5
11698
330
214
100
AcDbEntity
  8
DRL
100
AcDbPolyline
 90
        2
 70
     1
 43
12.25
 10
5083.280861150022
 20
6458.013127992552
 42
1.0
 10
5071.030861150022
 20
6458.013127992552
 42
1.0
  0
LWPOLYLINE
  5
11700
330
214
100
AcDbEntity
  8
DRL
100
AcDbPolyline
 90
        2
 70
     1
 43
12.25
 10
4998.280861150022
 20
6455.638586992552
 42
1.0
 10
4986.030861150022
 20
6455.638586992552
 42
1.0
  0
LWPOLYLINE
  5
11702
330
214
100
AcDbEntity
  8
DRL
100
AcDbPolyline
 90
        2
 70
     1
 43
12.25
 10
5253.28086115002
 20
6562.762210992552
 42
1.0
 10
5241.030861150022
 20
6562.762210992552
 42
1.0
  0
LWPOLYLINE
  5
11704
330
214
100
AcDbEntity
  8
DRL
100
AcDbPolyline
 90
        2
 70
     1
 43
12.25
 10
5168.280861150022
 20
6560.387668992553
 42
1.0
 10
5156.030861150023
 20
6560.387668992553
 42
1.0
  0
LWPOLYLINE
  5
11706
330
214
100
AcDbEntity
  8
DRL
100
AcDbPolyline
 90
        2
 70
     1
 43
12.25
 10
5083.280861150022
 20
6558.013127992552
 42
1.0
 10
5071.030861150022
 20
6558.013127992552
 42
1.0
  0
LWPOLYLINE
  5
11708
330
214
100
AcDbEntity
  8
DRL
100
AcDbPolyline
 90
        2
 70
     1
 43
12.25
 10
4998.280861150022
 20
6555.638586992552
 42
1.0
 10
4986.030861150022
 20
6555.638586992552
 42
1.0
  0
LWPOLYLINE
  5
11710
330
214
100
AcDbEntity
  8
DRL
100
AcDbPolyline
 90
        2
 70
     1
 43
12.25
 10
5253.28086115002
 20
6662.762210992551
 42
1.0
 10
5241.030861150022
 20
6662.762210992551
 42
1.0
  0
LWPOLYLINE
  5
11712
330
214
100
AcDbEntity
  8
DRL
100
AcDbPolyline
 90
        2
 70
     1
 43
12.25
 10
5168.280861150022
 20
6660.387668992552
 42
1.0
 10
5156.030861150023
 20
6660.387668992552
 42
1.0
  0
LWPOLYLINE
  5
11714
330
214
100
AcDbEntity
  8
DRL
100
AcDbPolyline
 90
        2
 70
     1
 43
12.25
 10
5083.280861150022
 20
6658.013127992552
 42
1.0
 10
5071.030861150022
 20
6658.013127992552
 42
1.0
  0
LWPOLYLINE
  5
11716
330
214
100
AcDbEntity
  8
DRL
100
AcDbPolyline
 90
        2
 70
     1
 43
12.25
 10
4998.280861150022
 20
6655.638586992552
 42
1.0
 10
4986.030861150022
 20
6655.638586992552
 42
1.0
  0
LWPOLYLINE
  5
11718
330
214
100
AcDbEntity
  8
DRL
100
AcDbPolyline
 90
        2
 70
     1
 43
12.25
 10
5253.28086115002
 20
6762.762210992552
 42
1.0
 10
5241.030861150022
 20
6762.762210992552
 42
1.0
  0
LWPOLYLINE
  5
11720
330
214
100
AcDbEntity
  8
DRL
100
AcDbPolyline
 90
        2
 70
     1
 43
12.25
 10
5168.280861150022
 20
6760.387668992553
 42
1.0
 10
5156.030861150023
 20
6760.387668992553
 42
1.0
  0
LWPOLYLINE
  5
11722
330
214
100
AcDbEntity
  8
DRL
100
AcDbPolyline
 90
        2
 70
     1
 43
12.25
 10
5083.280861150022
 20
6758.013127992552
 42
1.0
 10
5071.030861150022
 20
6758.013127992552
 42
1.0
  0
LWPOLYLINE
  5
11724
330
214
100
AcDbEntity
  8
DRL
100
AcDbPolyline
 90
        2
 70
     1
 43
12.25
 10
4998.280861150022
 20
6755.638586992552
 42
1.0
 10
4986.030861150022
 20
6755.638586992552
 42
1.0
  0
LWPOLYLINE
  5
11726
330
214
100
AcDbEntity
  8
DRL
100
AcDbPolyline
 90
        2
 70
     1
 43
12.25
 10
5253.28086115002
 20
6862.762210992553
 42
1.0
 10
5241.030861150022
 20
6862.762210992553
 42
1.0
  0
LWPOLYLINE
  5
11728
330
214
100
AcDbEntity
  8
DRL
100
AcDbPolyline
 90
        2
 70
     1
 43
12.25
 10
5168.280861150022
 20
6860.387668992551
 42
1.0
 10
5156.030861150023
 20
6860.387668992551
 42
1.0
  0
LWPOLYLINE
  5
11730
330
214
100
AcDbEntity
  8
DRL
100
AcDbPolyline
 90
        2
 70
     1
 43
12.25
 10
5083.280861150022
 20
6858.013127992553
 42
1.0
 10
5071.030861150022
 20
6858.013127992553
 42
1.0
  0
LWPOLYLINE
  5
11732
330
214
100
AcDbEntity
  8
DRL
100
AcDbPolyline
 90
        2
 70
     1
 43
12.25
 10
4998.280861150022
 20
6855.638586992552
 42
1.0
 10
4986.030861150022
 20
6855.638586992552
 42
1.0
  0
LWPOLYLINE
  5
11734
330
214
100
AcDbEntity
  8
DRL
100
AcDbPolyline
 90
        2
 70
     1
 43
12.25
 10
5253.28086115002
 20
6962.762210992552
 42
1.0
 10
5241.030861150022
 20
6962.762210992552
 42
1.0
  0
LWPOLYLINE
  5
11736
330
214
100
AcDbEntity
  8
DRL
100
AcDbPolyline
 90
        2
 70
     1
 43
12.25
 10
5168.280861150022
 20
6960.387668992551
 42
1.0
 10
5156.030861150023
 20
6960.387668992551
 42
1.0
  0
LWPOLYLINE
  5
11738
330
214
100
AcDbEntity
  8
DRL
100
AcDbPolyline
 90
        2
 70
     1
 43
12.25
 10
5083.280861150022
 20
6958.013127992552
 42
1.0
 10
5071.030861150022
 20
6958.013127992552
 42
1.0
  0
LWPOLYLINE
  5
11740
330
214
100
AcDbEntity
  8
DRL
100
AcDbPolyline
 90
        2
 70
     1
 43
12.25
 10
4998.280861150022
 20
6955.638586992552
 42
1.0
 10
4986.030861150022
 20
6955.638586992552
 42
1.0
  0
LWPOLYLINE
  5
11742
330
214
100
AcDbEntity
  8
DRL
100
AcDbPolyline
 90
        2
 70
     1
 43
12.25
 10
5253.28086115002
 20
7062.762210992552
 42
1.0
 10
5241.030861150022
 20
7062.762210992552
 42
1.0
  0
LWPOLYLINE
  5
11744
330
214
100
AcDbEntity
  8
DRL
100
AcDbPolyline
 90
        2
 70
     1
 43
12.25
 10
5168.280861150022
 20
7060.387668992553
 42
1.0
 10
5156.030861150023
 20
7060.387668992553
 42
1.0
  0
LWPOLYLINE
  5
11746
330
214
100
AcDbEntity
  8
DRL
100
AcDbPolyline
 90
        2
 70
     1
 43
12.25
 10
5083.280861150022
 20
7058.013127992552
 42
1.0
 10
5071.030861150022
 20
7058.013127992552
 42
1.0
  0
LWPOLYLINE
  5
11748
330
214
100
AcDbEntity
  8
DRL
100
AcDbPolyline
 90
        2
 70
     1
 43
12.25
 10
4998.280861150022
 20
7055.638586992552
 42
1.0
 10
4986.030861150022
 20
7055.638586992552
 42
1.0
  0
LWPOLYLINE
  5
11750
330
214
100
AcDbEntity
  8
DRL
100
AcDbPolyline
 90
        2
 70
     1
 43
12.25
 10
5253.28086115002
 20
7162.762210992553
 42
1.0
 10
5241.030861150022
 20
7162.762210992553
 42
1.0
  0
LWPOLYLINE
  5
11752
330
214
100
AcDbEntity
  8
DRL
100
AcDbPolyline
 90
        2
 70
     1
 43
12.25
 10
5168.280861150022
 20
7160.387668992552
 42
1.0
 10
5156.030861150023
 20
7160.387668992552
 42
1.0
  0
LWPOLYLINE
  5
11754
330
214
100
AcDbEntity
  8
DRL
100
AcDbPolyline
 90
        2
 70
     1
 43
12.25
 10
5083.280861150022
 20
7158.013127992552
 42
1.0
 10
5071.030861150022
 20
7158.013127992552
 42
1.0
  0
LWPOLYLINE
  5
11756
330
214
100
AcDbEntity
  8
DRL
100
AcDbPolyline
 90
        2
 70
     1
 43
12.25
 10
4998.280861150022
 20
7155.638586992552
 42
1.0
 10
4986.030861150022
 20
7155.638586992552
 42
1.0
  0
LWPOLYLINE
  5
11758
330
214
100
AcDbEntity
  8
DRL
100
AcDbPolyline
 90
        2
 70
     1
 43
12.25
 10
5253.28086115002
 20
7262.762210992551
 42
1.0
 10
5241.030861150022
 20
7262.762210992551
 42
1.0
  0
LWPOLYLINE
  5
11760
330
214
100
AcDbEntity
  8
DRL
100
AcDbPolyline
 90
        2
 70
     1
 43
12.25
 10
5168.280861150022
 20
7260.387668992551
 42
1.0
 10
5156.030861150023
 20
7260.387668992551
 42
1.0
  0
LWPOLYLINE
  5
11762
330
214
100
AcDbEntity
  8
DRL
100
AcDbPolyline
 90
        2
 70
     1
 43
12.25
 10
5083.280861150022
 20
7258.013127992552
 42
1.0
 10
5071.030861150022
 20
7258.013127992552
 42
1.0
  0
LWPOLYLINE
  5
11764
330
214
100
AcDbEntity
  8
DRL
100
AcDbPolyline
 90
        2
 70
     1
 43
12.25
 10
4998.280861150022
 20
7255.638586992552
 42
1.0
 10
4986.030861150022
 20
7255.638586992552
 42
1.0
  0
LWPOLYLINE
  5
11766
330
214
100
AcDbEntity
  8
DRL
100
AcDbPolyline
 90
        2
 70
     1
 43
12.25
 10
5253.28086115002
 20
7362.762210992551
 42
1.0
 10
5241.030861150022
 20
7362.762210992551
 42
1.0
  0
LWPOLYLINE
  5
11768
330
214
100
AcDbEntity
  8
DRL
100
AcDbPolyline
 90
        2
 70
     1
 43
12.25
 10
5168.280861150022
 20
7360.387668992551
 42
1.0
 10
5156.030861150023
 20
7360.387668992551
 42
1.0
  0
LWPOLYLINE
  5
11846
330
214
100
AcDbEntity
  8
DIMENSION
100
AcDbPolyline
 90
        2
 70
     1
 43
12.0
 10
1101.744303150022
 20
8451.619205992553
 42
1.0
 10
1089.744303150022
 20
8451.619205992553
 42
1.0
  0
LWPOLYLINE
  5
11848
330
214
100
AcDbEntity
  8
DIMENSION
100
AcDbPolyline
 90
        2
 70
     1
 43
12.0
 10
1448.289372150022
 20
8451.619205992553
 42
1.0
 10
1436.289372150021
 20
8451.619205992553
 42
1.0
  0
LWPOLYLINE
  5
11850
330
214
100
AcDbEntity
  8
DIMENSION
100
AcDbPolyline
 90
        2
 70
     1
 43
12.0
 10
5806.256869150021
 20
8451.619205992553
 42
1.0
 10
5794.256869150022
 20
8451.619205992553
 42
1.0
  0
LWPOLYLINE
  5
11852
330
214
100
AcDbEntity
  8
DIMENSION
100
AcDbPolyline
 90
        2
 70
     1
 43
12.0
 10
5346.297049150023
 20
8451.619205992553
 42
1.0
 10
5334.297049150023
 20
8451.619205992553
 42
1.0
  0
LWPOLYLINE
  5
11854
330
214
100
AcDbEntity
  8
DIMENSION
100
AcDbPolyline
 90
        2
 70
     1
 43
12.0
 10
707.2710891500222
 20
9021.619205992553
 42
1.0
 10
695.2710891500218
 20
9021.619205992553
 42
1.0
  0
LWPOLYLINE
  5
11856
330
214
100
AcDbEntity
  8
DIMENSION
100
AcDbPolyline
 90
        2
 70
     1
 43
12.0
 10
707.2710891500222
 20
9321.619205992552
 42
1.0
 10
695.2710891500218
 20
9321.619205992552
 42
1.0
  0
LWPOLYLINE
  5
11858
330
214
100
AcDbEntity
  8
DIMENSION
100
AcDbPolyline
 90
        2
 70
     1
 43
12.0
 10
458.8863181500221
 20
8871.619205992553
 42
1.0
 10
446.8863181500221
 20
8871.619205992553
 42
1.0
  0
LWPOLYLINE
  5
11860
330
214
100
AcDbEntity
  8
DIMENSION
100
AcDbPolyline
 90
        2
 70
     1
 43
12.0
 10
458.8863181500221
 20
9471.619205992553
 42
1.0
 10
446.8863181500221
 20
9471.619205992553
 42
1.0
  0
LWPOLYLINE
  5
11862
330
214
100
AcDbEntity
  8
DIMENSION
100
AcDbPolyline
 90
        2
 70
     1
 43
12.0
 10
6125.815668150022
 20
8871.619205992553
 42
1.0
 10
6113.815668150022
 20
8871.619205992553
 42
1.0
  0
LWPOLYLINE
  5
11864
330
214
100
AcDbEntity
  8
DIMENSION
100
AcDbPolyline
 90
        2
 70
     1
 43
12.0
 10
6125.815668150022
 20
9471.619205992553
 42
1.0
 10
6113.815668150022
 20
9471.619205992553
 42
1.0
  0
LWPOLYLINE
  5
11866
330
214
100
AcDbEntity
  8
DIMENSION
100
AcDbPolyline
 90
        2
 70
     1
 43
12.0
 10
1845.655861150022
 20
5930.838012992552
 42
1.0
 10
1833.655861150021
 20
5930.838012992552
 42
1.0
  0
LWPOLYLINE
  5
11868
330
214
100
AcDbEntity
  8
DIMENSION
100
AcDbPolyline
 90
        2
 70
     1
 43
12.0
 10
1845.655861150022
 20
7380.838012992552
 42
1.0
 10
1833.655861150021
 20
7380.838012992552
 42
1.0
  0
LWPOLYLINE
  5
11870
330
214
100
AcDbEntity
  8
DIMENSION
100
AcDbPolyline
 90
        2
 70
     1
 43
12.0
 10
1845.655861150022
 20
5918.838012992552
 42
1.0
 10
1833.655861150021
 20
5918.838012992552
 42
1.0
  0
LWPOLYLINE
  5
11872
330
214
100
AcDbEntity
  8
DIMENSION
100
AcDbPolyline
 90
        2
 70
     1
 43
12.0
 10
1845.655861150022
 20
5371.619205992551
 42
1.0
 10
1833.655861150021
 20
5371.619205992551
 42
1.0
  0
LWPOLYLINE
  5
11874
330
214
100
AcDbEntity
  8
DIMENSION
100
AcDbPolyline
 90
        2
 70
     1
 43
12.0
 10
1425.655861150022
 20
5160.838012992552
 42
1.0
 10
1413.655861150022
 20
5160.838012992552
 42
1.0
  0
LWPOLYLINE
  5
11876
330
214
100
AcDbEntity
  8
DIMENSION
100
AcDbPolyline
 90
        2
 70
     1
 43
12.0
 10
5125.655861150022
 20
5160.838012992552
 42
1.0
 10
5113.655861150022
 20
5160.838012992552
 42
1.0
  0
LWPOLYLINE
  5
11878
330
214
100
AcDbEntity
  8
DIMENSION
100
AcDbPolyline
 90
        2
 70
     1
 43
12.0
 10
1425.655861150022
 20
5160.838012992552
 42
1.0
 10
1413.655861150022
 20
5160.838012992552
 42
1.0
  0
LWPOLYLINE
  5
11880
330
214
100
AcDbEntity
  8
DIMENSION
100
AcDbPolyline
 90
        2
 70
     1
 43
12.0
 10
1085.655861150022
 20
5160.838012992552
 42
1.0
 10
1073.655861150021
 20
5160.838012992552
 42
1.0
  0
LWPOLYLINE
  5
11882
330
214
100
AcDbEntity
  8
DIMENSION
100
AcDbPolyline
 90
        2
 70
     1
 43
12.0
 10
1425.655861150022
 20
7600.838012992553
 42
1.0
 10
1413.655861150022
 20
7600.838012992553
 42
1.0
  0
LWPOLYLINE
  5
11884
330
214
100
AcDbEntity
  8
DIMENSION
100
AcDbPolyline
 90
        2
 70
     1
 43
12.0
 10
1095.655861150022
 20
7600.838012992553
 42
1.0
 10
1083.655861150022
 20
7600.838012992553
 42
1.0
  0
SOLID
  5
11888
330
214
100
AcDbEntity
  8
MAINMEMBER
100
AcDbTrace
 10
2785.889656150022
 20
9171.619205992554
 30
0.0
 11
2785.889656150022
 21
9171.619205992554
 31
0.0
 12
2785.889656150022
 22
9171.619205992554
 32
0.0
 13
2785.889656150022
 23
9171.619205992554
 33
0.0
  0
SOLID
  5
11889
330
214
100
AcDbEntity
  8
MAINMEMBER
100
AcDbTrace
 10
2785.889656150022
 20
9171.619205992554
 30
0.0
 11
2785.889656150022
 21
9171.619205992554
 31
0.0
 12
2785.889656150022
 22
9171.619205992554
 32
0.0
 13
2785.889656150022
 23
9171.619205992554
 33
0.0
  0
SOLID
  5
11892
330
214
100
AcDbEntity
  8
DIMENSION
100
AcDbTrace
 10
5566.630297150021
 20
9396.619205992553
 30
0.0
 11
5549.558500150022
 21
9442.188424992554
 31
0.0
 12
5566.630297150021
 22
9396.619205992553
 32
0.0
 13
5535.702093150022
 23
9434.188424992553
 33
0.0
  0
SOLID
  5
11893
330
214
100
AcDbEntity
  8
DIMENSION
100
AcDbTrace
 10
1206.071689150021
 20
9396.619205992553
 30
0.0
 11
1236.999892150022
 21
9434.188424992553
 31
0.0
 12
1206.071689150021
 22
9396.619205992553
 32
0.0
 13
1223.143486150022
 23
9442.188424992554
 33
0.0
  0
SOLID
  5
11894
330
214
100
AcDbEntity
  8
DIMENSION
100
AcDbTrace
 10
1199.655861150022
 20
5649.838012992553
 30
0.0
 11
1216.727658150023
 21
5604.268793992552
 31
0.0
 12
1199.655861150022
 22
5649.838012992553
 32
0.0
 13
1230.584064150021
 23
5612.268793992552
 33
0.0
  0
TEXT
  5
11896
330
214
100
AcDbEntity
  8
DIMENSION
 62
     4
100
AcDbText
 10
8669.655861150022
 20
6694.619205992552
 30
0.0
 40
54.0
  1
1. D : ANCHOR BAR , HB ; ANCHOR BAR 
 41
0.8
100
AcDbText
  0
TEXT
  5
11897
330
214
100
AcDbEntity
  8
DIMENSION
 62
     4
100
AcDbText
 10
8413.99871829288
 20
6694.619205992552
 30
0.0
 40
54.0
  1
NOTE)
 41
0.8
 72
     1
 11
8509.655861150022
 21
6694.619205992552
 31
0.0
100
AcDbText
  0
TEXT
  5
11898
330
214
100
AcDbEntity
  8
DIMENSION
 62
     4
100
AcDbText
 10
3249.084432578591
 20
5180.838012992552
 30
0.0
 40
54.0
  1
L
 41
0.8
 72
     1
 11
3269.65586115002
 21
5180.838012992552
 31
0.0
100
AcDbText
  0
TEXT
  5
11899
330
214
100
AcDbEntity
  8
DIMENSION
 62
     4
100
AcDbText
 10
1182.798718292879
 20
5180.838012992552
 30
0.0
 40
54.0
  1
GW3
 41
0.8
 72
     1
 11
1249.655861150022
 21
5180.838012992552
 31
0.0
100
AcDbText
  0
TEXT
  5
11900
330
214
100
AcDbEntity
  8
DIMENSION
 62
     4
100
AcDbText
 10
1193.970146864307
 20
7620.838012992553
 30
0.0
 40
54.0
  1
GW1
 41
0.8
 72
     1
 11
1254.655861150022
 21
7620.838012992553
 31
0.0
100
AcDbText
  0
TEXT
  5
11901
330
214
100
AcDbEntity
  8
DIMENSION
 62
     4
100
AcDbText
 10
1321.125902150022
 20
5469.838012992553
 30
0.0
 40
54.0
  1
 
 41
0.8
 72
     1
 11
1513.845902150022
 21
5469.838012992553
 31
0.0
100
AcDbText
  0
TEXT
  5
11902
330
214
100
AcDbEntity
  8
DIMENSION
 62
     4
100
AcDbText
 10
1420.245902150022
 20
5379.838012992553
 30
0.0
 40
54.0
  1
L*T*W
 41
0.8
 72
     1
 11
1513.845902150022
 21
5379.838012992553
 31
0.0
100
AcDbText
  0
TEXT
  5
11903
330
214
100
AcDbEntity
  8
DIMENSION
 62
     4
100
AcDbText
 10
1208.331122864307
 20
8471.619205992553
 30
0.0
 40
54.0
  1
GW1
 41
0.8
 72
     1
 11
1269.016837150022
 21
8471.619205992553
 31
0.0
100
AcDbText
  0
TEXT
  5
11904
330
214
100
AcDbEntity
  8
DIMENSION
 62
     4
100
AcDbText
 10
5503.419816292879
 20
8471.619205992553
 30
0.0
 40
54.0
  1
GW2
 41
0.8
 72
     1
 11
5570.276959150022
 21
8471.619205992553
 31
0.0
100
AcDbText
  0
TEXT
  5
11905
330
214
100
AcDbEntity
  8
DIMENSION
 62
     4
100
AcDbText
 10
5267.717121292879
 20
9576.619205992553
 30
0.0
 40
54.0
  1
GL2
 41
0.8
 72
     1
 11
5327.374264150021
 21
9576.619205992553
 31
0.0
100
AcDbText
  0
TEXT
  5
11906
330
214
100
AcDbEntity
  8
DIMENSION
 62
     4
100
AcDbText
 10
5180.494264150021
 20
9466.619205992552
 30
0.0
 40
54.0
  1
()
 41
0.8
 72
     1
 11
5327.374264150021
 21
9466.619205992552
 31
0.0
100
AcDbText
  0
TEXT
  5
11907
330
214
100
AcDbEntity
  8
DIMENSION
 62
     4
100
AcDbText
 10
1391.842007864308
 20
9576.619205992553
 30
0.0
 40
54.0
  1
GL1
 41
0.8
 72
     1
 11
1445.327722150023
 21
9576.619205992553
 31
0.0
100
AcDbText
  0
TEXT
  5
11908
330
214
100
AcDbEntity
  8
DIMENSION
 62
     4
100
AcDbText
 10
1298.447722150022
 20
9466.619205992552
 30
0.0
 40
54.0
  1
()
 41
0.8
 72
     1
 11
1445.327722150023
 21
9466.619205992552
 31
0.0
100
AcDbText
  0
TEXT
  5
11924
330
214
100
AcDbEntity
  8
DIMENSION
 62
     4
100
AcDbText
 10
1819.655861150021
 20
6597.209441563982
 30
0.0
 40
54.0
  1
GH1
 50
90.0
 41
0.8
 72
     1
 11
1819.655861150021
 21
6655.838012992552
 31
0.0
100
AcDbText
  0
TEXT
  5
11925
330
214
100
AcDbEntity
  8
DIMENSION
 62
     4
100
AcDbText
 10
1819.655861150021
 20
5580.428609992551
 30
0.0
 40
54.0
  1
GH2
 50
90.0
 41
0.8
 72
     1
 11
1819.655861150021
 21
5645.228609992552
 31
0.0
100
AcDbText
  0
TEXT
  5
11926
330
214
100
AcDbEntity
  8
DIMENSION
 62
     4
100
AcDbText
 10
681.2710891500227
 20
9114.019205992553
 30
0.0
 40
54.0
  1
GB1
 50
90.0
 41
0.8
 72
     1
 11
681.2710891500227
 21
9171.619205992554
 31
0.0
100
AcDbText
  0
TEXT
  5
11927
330
214
100
AcDbEntity
  8
DIMENSION
 62
     4
100
AcDbText
 10
432.8863181500219
 20
9107.847777421126
 30
0.0
 40
54.0
  1
GB2
 50
90.0
 41
0.8
 72
     1
 11
432.8863181500219
 21
9171.619205992554
 31
0.0
100
AcDbText
  0
TEXT
  5
11928
330
214
100
AcDbEntity
  8
DIMENSION
 62
     4
100
AcDbText
 10
6099.815668150023
 20
9107.847777421126
 30
0.0
 40
54.0
  1
GB3
 50
90.0
 41
0.8
 72
     1
 11
6099.815668150023
 21
9171.619205992554
 31
0.0
100
AcDbText
  0
TEXT
  5
11939
330
214
100
AcDbEntity
  8
MIDDLETITLE
 62
     6
100
AcDbText
 10
2763.230721999999
 20
11469.0
 30
0.0
 40
100.0
  1

 41
0.8
 72
     1
 11
2763.230721999999
 21
11469.0
 31
0.0
100
AcDbText
  0
TEXT
  5
11941
330
214
100
AcDbEntity
  8
MIDDLETITLE
 62
     6
100
AcDbText
 10
2698.62198
 20
9907.042993000004
 30
0.0
 40
100.0
  1

 41
0.8
 72
     1
 11
2698.62198
 21
9907.042993000004
 31
0.0
100
AcDbText
  0
TEXT
  5
11943
330
214
100
AcDbEntity
  8
MIDDLETITLE
 62
     6
100
AcDbText
 10
2508.956604999999
 20
6769.0
 30
0.0
 40
100.0
  1

 41
0.8
 72
     1
 11
2508.956604999999
 21
6769.0
 31
0.0
100
AcDbText
  0
TEXT
  5
11945
330
214
100
AcDbEntity
  8
MIDDLETITLE
 62
     6
100
AcDbText
 10
11800.0
 20
11210.0
 30
0.0
 40
100.0
  1

 41
0.8
 72
     1
 11
11800.0
 21
11210.0
 31
0.0
100
AcDbText
  0
TEXT
  5
11946
330
214
100
AcDbEntity
  8
MIDDLETITLE
 62
     6
100
AcDbText
 10
3101.573215372245
 20
9987.138019992556
 30
0.0
 40
100.0
  1

 41
0.8
 72
     1
 11
3255.350993150023
 21
9987.138019992556
 31
0.0
100
AcDbText
  0
TEXT
  5
11947
330
214
100
AcDbEntity
  8
MIDDLETITLE
 62
     6
100
AcDbText
 10
3485.695132
 20
4875.518814
 30
0.0
 40
100.0
  1

 41
0.8
 72
     1
 11
3485.695132
 21
4875.518814
 31
0.0
100
AcDbText
  0
TEXT
  5
11948
330
214
100
AcDbEntity
  8
MIDDLETITLE
 62
     6
100
AcDbText
 10
3114.100305594464
 20
8024.838012992551
 30
0.0
 40
100.0
  1

 41
0.8
 72
     1
 11
3269.65586115002
 21
8024.838012992551
 31
0.0
100
AcDbText
  0
TEXT
  5
11949
330
214
100
AcDbEntity
  8
MIDDLETITLE
 62
     6
100
AcDbText
 10
3500.0
 20
2913.218807
 30
0.0
 40
100.0
  1

 41
0.8
 72
     1
 11
3500.0
 21
2913.218807
 31
0.0
100
AcDbText
  0
TEXT
  5
11950
330
214
100
AcDbEntity
  8
MIDDLETITLE
 62
     6
100
AcDbText
 10
10910.6082421024
 20
10721.61920599255
 30
0.0
 40
100.0
  1
   : 
 41
0.8
 72
     1
 11
11569.65586115002
 21
10721.61920599255
 31
0.0
100
AcDbText
  0
TEXT
  5
11951
330
214
100
AcDbEntity
  8
MIDDLETITLE
 62
     6
100
AcDbText
 10
11800.0
 20
5610.0
 30
0.0
 40
100.0
  1

 41
0.8
 72
     1
 11
11800.0
 21
5610.0
 31
0.0
100
AcDbText
  0
TEXT
  5
11955
330
214
100
AcDbEntity
  8
SMALLTITLE
 62
     4
100
AcDbText
 10
3255.350993150023
 20
9847.138019992554
 30
0.0
 40
60.0
  1
S = 1 : 20
 41
0.8
100
AcDbText
  0
TEXT
  5
11956
330
214
100
AcDbEntity
  8
SMALLTITLE
 62
     4
100
AcDbText
 10
3269.65586115002
 20
7884.838012992553
 30
0.0
 40
60.0
  1
S = 1 : 20
 41
0.8
100
AcDbText
  0
TEXT
  5
12024
330
214
100
AcDbEntity
  8
TABLE
 62
     4
100
AcDbText
 10
8711.255861150023
 20
10191.61920599255
 30
0.0
 40
60.0
  1

 41
0.8
 72
     1
 11
8769.655861150022
 21
10191.61920599255
 31
0.0
100
AcDbText
  0
TEXT
  5
12027
330
214
100
AcDbEntity
  8
TABLE
 62
     4
100
AcDbText
 10
11966.81230503909
 20
10130.19541955454
 30
0.0
 40
60.0
  1
 ( )
 41
0.8
 72
     1
 11
12136.41230503909
 21
10130.19541955454
 31
0.0
100
AcDbText
  0
TEXT
  5
12028
330
214
100
AcDbEntity
  8
TABLE
 62
     4
100
AcDbText
 10
11856.87172649108
 20
10245.56840801269
 30
0.0
 40
60.0
  1
3)  
 41
0.8
 72
     1
 11
12105.02410744346
 21
10245.56840801269
 31
0.0
100
AcDbText
  0
TEXT
  5
12031
330
214
100
AcDbEntity
  8
TABLE
 62
     4
100
AcDbText
 10
9546.662675728832
 20
10130.19541955454
 30
0.0
 40
60.0
  1
  ( )
 41
0.8
 72
     1
 11
9764.262675728833
 21
10130.19541955454
 31
0.0
100
AcDbText
  0
TEXT
  5
12032
330
214
100
AcDbEntity
  8
TABLE
 62
     4
100
AcDbText
 10
9514.093525752226
 20
10245.56840801269
 30
0.0
 40
60.0
  1
1)  
 41
0.8
 72
     1
 11
9732.874478133178
 21
10245.56840801269
 31
0.0
100
AcDbText
  0
TEXT
  5
12033
330
214
100
AcDbEntity
  8
TABLE
 62
     4
100
AcDbText
 10
10742.15388132014
 20
10130.19541955454
 30
0.0
 40
60.0
  1
  ( )
 41
0.8
 72
     1
 11
10959.75388132014
 21
10130.19541955454
 31
0.0
100
AcDbText
  0
TEXT
  5
12034
330
214
100
AcDbEntity
  8
TABLE
 62
     4
100
AcDbText
 10
10737.0133027721
 20
10245.56840801269
 30
0.0
 40
60.0
  1
2) 
 41
0.8
 72
     1
 11
10928.36568372449
 21
10245.56840801269
 31
0.0
100
AcDbText
  0
TEXT
  5
12035
330
214
100
AcDbEntity
  8
TABLE
 62
     4
100
AcDbText
 10
12832.95506047702
 20
10130.19541955454
 30
0.0
 40
60.0
  1
  ()
 41
0.8
 72
     1
 11
13155.33166340166
 21
10130.19541955454
 31
0.0
100
AcDbText
  0
TEXT
  5
12036
330
214
100
AcDbEntity
  8
TABLE
 62
     4
100
AcDbText
 10
12902.99108485362
 20
10245.56840801269
 30
0.0
 40
60.0
  1
4) 
 41
0.8
 72
     1
 11
13123.943465806
 21
10245.56840801269
 31
0.0
100
AcDbText
  0
TEXT
  5
12037
330
214
100
AcDbEntity
  8
TABLE
 62
     4
100
AcDbText
 10
13901.58758812797
 20
10130.19541955454
 30
0.0
 40
60.0
  1
  ()
 41
0.8
 72
     1
 11
14156.21615955654
 21
10130.19541955454
 31
0.0
100
AcDbText
  0
TEXT
  5
12038
330
214
100
AcDbEntity
  8
TABLE
 62
     4
100
AcDbText
 10
13903.34224767516
 20
10245.56840801269
 30
0.0
 40
60.0
  1
5) 
 41
0.8
 72
     1
 11
14124.82796196088
 21
10245.56840801269
 31
0.0
100
AcDbText
  0
TEXT
  5
12039
330
214
100
AcDbEntity
  8
TABLE
 62
     4
100
AcDbText
 10
8612.855861150022
 20
9941.619205992552
 30
0.0
 40
60.0
  1

 41
0.8
 72
     1
 11
8769.655861150022
 21
9941.619205992552
 31
0.0
100
AcDbText
  0
TEXT
  5
12040
330
214
100
AcDbEntity
  8
TABLE
 62
     4
100
AcDbText
 10
9582.017335276033
 20
9941.619205992552
 30
0.0
 40
60.0
  1
GH1*L*2
 41
0.8
 72
     1
 11
9732.874478133178
 21
9941.619205992552
 31
0.0
100
AcDbText
  0
TEXT
  5
12041
330
214
100
AcDbEntity
  8
TABLE
 62
     4
100
AcDbText
 10
10777.50854086734
 20
9941.619205992552
 30
0.0
 40
60.0
  1
GH1*L*2
 41
0.8
 72
     1
 11
10928.36568372449
 21
9941.619205992552
 31
0.0
100
AcDbText
  0
TEXT
  5
12042
330
214
100
AcDbEntity
  8
TABLE
 62
     4
100
AcDbText
 10
8611.789194483355
 20
9741.619205992552
 30
0.0
 40
60.0
  1

 41
0.8
 72
     1
 11
8769.655861150022
 21
9741.619205992552
 31
0.0
100
AcDbText
  0
TEXT
  5
12043
330
214
100
AcDbEntity
  8
TABLE
 62
     4
100
AcDbText
 10
9622.017335276034
 20
9741.619205992552
 30
0.0
 40
60.0
  1
GB1*L
 41
0.8
 72
     1
 11
9732.874478133178
 21
9741.619205992552
 31
0.0
100
AcDbText
  0
TEXT
  5
12044
330
214
100
AcDbEntity
  8
TABLE
 62
     4
100
AcDbText
 10
10817.50854086734
 20
9741.619205992552
 30
0.0
 40
60.0
  1
GB1*L
 41
0.8
 72
     1
 11
10928.36568372449
 21
9741.619205992552
 31
0.0
100
AcDbText
  0
TEXT
  5
12045
330
214
100
AcDbEntity
  8
TABLE
 62
     4
100
AcDbText
 10
13889.39939053231
 20
9741.619205992552
 30
0.0
 40
60.0
  1
GB1*L+L*T*2
 41
0.8
 72
     1
 11
14124.82796196088
 21
9741.619205992552
 31
0.0
100
AcDbText
  0
TEXT
  5
12046
330
214
100
AcDbEntity
  8
TABLE
 62
     4
100
AcDbText
 10
8610.722527816689
 20
9541.619205992551
 30
0.0
 40
60.0
  1

 41
0.8
 72
     1
 11
8769.655861150022
 21
9541.619205992551
 31
0.0
100
AcDbText
  0
TEXT
  5
12047
330
214
100
AcDbEntity
  8
TABLE
 62
     4
100
AcDbText
 10
9456.303049561748
 20
9541.619205992551
 30
0.0
 40
60.0
  1
GB1*L*2+L*T*2
 41
0.8
 72
     1
 11
9732.874478133178
 21
9541.619205992551
 31
0.0
100
AcDbText
  0
TEXT
  5
12048
330
214
100
AcDbEntity
  8
TABLE
 62
     4
100
AcDbText
 10
10651.79425515306
 20
9541.619205992551
 30
0.0
 40
60.0
  1
GB1*L*2+L*T*2
 41
0.8
 72
     1
 11
10928.36568372449
 21
9541.619205992551
 31
0.0
100
AcDbText
  0
TEXT
  5
12049
330
214
100
AcDbEntity
  8
TABLE
 62
     4
100
AcDbText
 10
8614.455861150021
 20
9341.619205992552
 30
0.0
 40
60.0
  1

 41
0.8
 72
     1
 11
8769.655861150022
 21
9341.619205992552
 31
0.0
100
AcDbText
  0
TEXT
  5
12050
330
214
100
AcDbEntity
  8
TABLE
 62
     4
100
AcDbText
 10
9390.017335276034
 20
9341.619205992552
 30
0.0
 40
60.0
  1
GB1*GH1*2+GH1*T
 41
0.8
 72
     1
 11
9732.874478133178
 21
9341.619205992552
 31
0.0
100
AcDbText
  0
TEXT
  5
12051
330
214
100
AcDbEntity
  8
TABLE
 62
     4
100
AcDbText
 10
10585.50854086734
 20
9341.619205992552
 30
0.0
 40
60.0
  1
GB1*GH1*2+GH1*T
 41
0.8
 72
     1
 11
10928.36568372449
 21
9341.619205992552
 31
0.0
100
AcDbText
  0
TEXT
  5
12052
330
214
100
AcDbEntity
  8
TABLE
 62
     4
100
AcDbText
 10
8614.455861150021
 20
9141.619205992553
 30
0.0
 40
60.0
  1

 41
0.8
 72
     1
 11
8769.655861150022
 21
9141.619205992553
 31
0.0
100
AcDbText
  0
TEXT
  5
12053
330
214
100
AcDbEntity
  8
TABLE
 62
     4
100
AcDbText
 10
9495.160192418891
 20
9141.619205992553
 30
0.0
 40
60.0
  1
GB1*L*2+L*T
 41
0.8
 72
     1
 11
9732.874478133178
 21
9141.619205992553
 31
0.0
100
AcDbText
  0
TEXT
  5
12054
330
214
100
AcDbEntity
  8
TABLE
 62
     4
100
AcDbText
 10
10690.6513980102
 20
9141.619205992553
 30
0.0
 40
60.0
  1
GB1*L*2+L*T
 41
0.8
 72
     1
 11
10928.36568372449
 21
9141.619205992553
 31
0.0
100
AcDbText
  0
TEXT
  5
12055
330
214
100
AcDbEntity
  8
TABLE
 62
     4
100
AcDbText
 10
8511.560623054784
 20
8941.619205992552
 30
0.0
 40
60.0
  1
()
 41
0.8
 72
     1
 11
8769.655861150022
 21
8941.619205992552
 31
0.0
100
AcDbText
  0
TEXT
  5
12057
330
214
100
AcDbEntity
  8
TABLE
 62
     4
100
AcDbText
 10
11695.8812503006
 20
8939.097048698696
 30
0.0
 40
60.0
  1
GB1*L*2+(GB1+L)*T*2
 41
0.8
 72
     1
 11
12105.02410744346
 21
8939.097048698696
 31
0.0
100
AcDbText
  0
TEXT
  5
12058
330
214
100
AcDbEntity
  8
TABLE
 62
     4
100
AcDbText
 10
8510.493956388119
 20
8741.619205992552
 30
0.0
 40
60.0
  1
()
 41
0.8
 72
     1
 11
8769.655861150022
 21
8741.619205992552
 31
0.0
100
AcDbText
  0
TEXT
  5
12061
330
214
100
AcDbEntity
  8
TABLE
 62
     4
100
AcDbText
 10
10786.6513980102
 20
8741.619205992552
 30
0.0
 40
60.0
  1
-GB1*L
 41
0.8
 72
     1
 11
10928.36568372449
 21
8741.619205992552
 31
0.0
100
AcDbText
  0
TEXT
  5
12062
330
214
100
AcDbEntity
  8
TABLE
 62
     4
100
AcDbText
 10
12799.37203723457
 20
8741.619205992552
 30
0.0
 40
60.0
  1
GB1*L+(W+L)*T*2
 41
0.8
 72
     1
 11
13123.943465806
 21
8741.619205992552
 31
0.0
100
AcDbText
  0
TEXT
  5
12063
330
214
100
AcDbEntity
  8
TABLE
 62
     4
100
AcDbText
 10
8609.655861150022
 20
8541.619205992551
 30
0.0
 40
60.0
  1

 41
0.8
 72
     1
 11
8769.655861150022
 21
8541.619205992551
 31
0.0
100
AcDbText
  0
TEXT
  5
12066
330
214
100
AcDbEntity
  8
TABLE
 62
     4
100
AcDbText
 10
10786.6513980102
 20
8541.619205992551
 30
0.0
 40
60.0
  1
-GB1*L
 41
0.8
 72
     1
 11
10928.36568372449
 21
8541.619205992551
 31
0.0
100
AcDbText
  0
TEXT
  5
12067
330
214
100
AcDbEntity
  8
TABLE
 62
     4
100
AcDbText
 10
12799.37203723457
 20
8541.619205992551
 30
0.0
 40
60.0
  1
GB1*L+(W+L)*T*2
 41
0.8
 72
     1
 11
13123.943465806
 21
8541.619205992551
 31
0.0
100
AcDbText
  0
TEXT
  5
12068
330
214
100
AcDbEntity
  8
TABLE
 62
     4
100
AcDbText
 10
8610.722527816689
 20
8341.619205992552
 30
0.0
 40
60.0
  1

 41
0.8
 72
     1
 11
8769.655861150022
 21
8341.619205992552
 31
0.0
100
AcDbText
  0
TEXT
  5
12071
330
214
100
AcDbEntity
  8
TABLE
 62
     4
100
AcDbText
 10
10786.6513980102
 20
8341.619205992552
 30
0.0
 40
60.0
  1
-GB1*L
 41
0.8
 72
     1
 11
10928.36568372449
 21
8341.619205992552
 31
0.0
100
AcDbText
  0
TEXT
  5
12072
330
214
100
AcDbEntity
  8
TABLE
 62
     4
100
AcDbText
 10
12799.37203723457
 20
8341.619205992552
 30
0.0
 40
60.0
  1
GB1*L+(W+L)*T*2
 41
0.8
 72
     1
 11
13123.943465806
 21
8341.619205992552
 31
0.0
100
AcDbText
  0
TEXT
  5
12073
330
214
100
AcDbEntity
  8
TABLE
 62
     4
100
AcDbText
 10
8535.370146864307
 20
8141.619205992553
 30
0.0
 40
60.0
  1
ANCHOR BAR
 41
0.8
 72
     1
 11
8769.655861150022
 21
8141.619205992553
 31
0.0
100
AcDbText
  0
TEXT
  5
12074
330
214
100
AcDbEntity
  8
TABLE
 62
     4
100
AcDbText
 10
13730.54224767516
 20
8141.619205992553
 30
0.0
 40
60.0
  1
PI*D*HB+PI*(D/2) *2
 41
0.8
 72
     1
 11
14124.82796196088
 21
8141.619205992553
 31
0.0
100
AcDbText
  0
TEXT
  5
12075
330
214
100
AcDbEntity
  8
TABLE
 62
     4
100
AcDbText
 10
8521.122527816689
 20
7941.619205992552
 30
0.0
 40
60.0
  1
 
 41
0.8
 72
     1
 11
8769.655861150022
 21
7941.619205992552
 31
0.0
100
AcDbText
  0
TEXT
  5
12076
330
214
100
AcDbEntity
  8
TABLE
 62
     4
100
AcDbText
 10
9527.160192418891
 20
7941.619205992552
 30
0.0
 40
60.0
  1
GH1*GW2*2
 41
0.8
 72
     1
 11
9732.874478133178
 21
7941.619205992552
 31
0.0
100
AcDbText
  0
TEXT
  5
12077
330
214
100
AcDbEntity
  8
TABLE
 62
     4
100
AcDbText
 10
10722.6513980102
 20
7941.619205992552
 30
0.0
 40
60.0
  1
GH1*GW2*2
 41
0.8
 72
     1
 11
10928.36568372449
 21
7941.619205992552
 31
0.0
100
AcDbText
  0
TEXT
  5
12078
330
214
100
AcDbEntity
  8
TABLE
 62
     4
100
AcDbText
 10
8585.655861150021
 20
7741.619205992552
 30
0.0
 40
60.0
  1
 
 41
0.8
 72
     1
 11
8769.655861150022
 21
7741.619205992552
 31
0.0
100
AcDbText
  0
TEXT
  5
12079
330
214
100
AcDbEntity
  8
TABLE
 62
     4
100
AcDbText
 10
9394.588763847464
 20
7741.619205992552
 30
0.0
 40
60.0
  1
(GB1+GB2)/2*GW1
 41
0.8
 72
     1
 11
9732.874478133178
 21
7741.619205992552
 31
0.0
100
AcDbText
  0
TEXT
  5
12080
330
214
100
AcDbEntity
  8
TABLE
 62
     4
100
AcDbText
 10
10590.07996943877
 20
7741.619205992552
 30
0.0
 40
60.0
  1
(GB1+GB2)/2*GW1
 41
0.8
 72
     1
 11
10928.36568372449
 21
7741.619205992552
 31
0.0
100
AcDbText
  0
TEXT
  5
12082
330
214
100
AcDbEntity
  8
TABLE
 62
     4
100
AcDbText
 10
13673.89810414753
 20
7732.822397911927
 30
0.0
 40
60.0
  1
(GB1*GB2)/2*GW1+GL1*T*2
 41
0.8
 72
     1
 11
14181.3266755761
 21
7732.822397911927
 31
0.0
100
AcDbText
  0
TEXT
  5
12083
330
214
100
AcDbEntity
  8
TABLE
 62
     4
100
AcDbText
 10
8585.655861150021
 20
7541.619205992552
 30
0.0
 40
60.0
  1
 
 41
0.8
 72
     1
 11
8769.655861150022
 21
7541.619205992552
 31
0.0
100
AcDbText
  0
TEXT
  5
12085
330
214
100
AcDbEntity
  8
TABLE
 62
     4
100
AcDbText
 10
9214.017335276034
 20
7545.371633116547
 30
0.0
 40
60.0
  1
(GB1+GB3)/2*GW2+GL2*T*2
 41
0.8
 72
     1
 11
9732.874478133178
 21
7545.371633116547
 31
0.0
100
AcDbText
  0
TEXT
  5
12087
330
214
100
AcDbEntity
  8
TABLE
 62
     4
100
AcDbText
 10
10409.50854086734
 20
7539.097015514241
 30
0.0
 40
60.0
  1
(GB1+GB3)/2*GW2+GL2*T*2
 41
0.8
 72
     1
 11
10928.36568372449
 21
7539.097015514241
 31
0.0
100
AcDbText
  0
TEXT
  5
12088
330
214
100
AcDbEntity
  8
TABLE
 62
     4
100
AcDbText
 10
8552.855861150023
 20
7341.619205992552
 30
0.0
 40
60.0
  1
 
 41
0.8
 72
     1
 11
8769.655861150022
 21
7341.619205992552
 31
0.0
100
AcDbText
  0
TEXT
  5
12089
330
214
100
AcDbEntity
  8
TABLE
 62
     4
100
AcDbText
 10
9527.160192418891
 20
7341.619205992552
 30
0.0
 40
60.0
  1
GH2*GW2*2
 41
0.8
 72
     1
 11
9732.874478133178
 21
7341.619205992552
 31
0.0
100
AcDbText
  0
TEXT
  5
12090
330
214
100
AcDbEntity
  8
TABLE
 62
     4
100
AcDbText
 10
10722.6513980102
 20
7341.619205992552
 30
0.0
 40
60.0
  1
GH2*GW2*2
 41
0.8
 72
     1
 11
10928.36568372449
 21
7341.619205992552
 31
0.0
100
AcDbText
  0
TEXT
  5
12091
330
214
100
AcDbEntity
  8
TABLE
 62
     4
100
AcDbText
 10
8555.522527816689
 20
7141.619205992552
 30
0.0
 40
60.0
  1
 
 41
0.8
 72
     1
 11
8769.655861150022
 21
7141.619205992552
 31
0.0
100
AcDbText
  0
TEXT
  5
12092
330
214
100
AcDbEntity
  8
TABLE
 62
     4
100
AcDbText
 10
9411.731620990321
 20
7141.619205992552
 30
0.0
 40
60.0
  1
W*L*2+(W+L)*T*2
 41
0.8
 72
     1
 11
9732.874478133178
 21
7141.619205992552
 31
0.0
100
AcDbText
  0
TEXT
  5
12093
330
214
100
AcDbEntity
  8
TABLE
 62
     4
100
AcDbText
 10
10562.6513980102
 20
7141.619205992552
 30
0.0
 40
60.0
  1
GB1*L*2+(W+L)*T*2
 41
0.8
 72
     1
 11
10928.36568372449
 21
7141.619205992552
 31
0.0
100
AcDbText
  0
TEXT
  5
12094
330
214
100
AcDbEntity
  8
TABLE
 62
     4
100
AcDbText
 10
8587.255861150023
 20
6941.619205992552
 30
0.0
 40
60.0
  1
 
 41
0.8
 72
     1
 11
8769.655861150022
 21
6941.619205992552
 31
0.0
100
AcDbText
  0
TEXT
  5
12095
330
214
100
AcDbEntity
  8
TABLE
 62
     4
100
AcDbText
 10
9479.160192418891
 20
6941.619205992552
 30
0.0
 40
60.0
  1
GH2*GW3/2*2
 41
0.8
 72
     1
 11
9732.874478133178
 21
6941.619205992552
 31
0.0
100
AcDbText
  0
TEXT
  5
12096
330
214
100
AcDbEntity
  8
TABLE
 62
     4
100
AcDbText
 10
10674.6513980102
 20
6941.619205992552
 30
0.0
 40
60.0
  1
GH2*GW3/2*2
 41
0.8
 72
     1
 11
10928.36568372449
 21
6941.619205992552
 31
0.0
100
AcDbText
  0
TEXT
  5
12097
330
214
100
AcDbEntity
  8
SYMBOLMARK
 62
     2
100
AcDbText
 10
689.6558611500222
 20
6704.952538992552
 30
0.0
 40
60.0
  1
G1
 41
0.8
 72
     1
 11
729.6558611500223
 21
6704.952538992552
 31
0.0
100
AcDbText
  0
TEXT
  5
12098
330
214
100
AcDbEntity
  8
SYMBOLMARK
 62
     2
100
AcDbText
 10
5762.798718292879
 20
6826.75253899255
 30
0.0
 40
60.0
  1
G2
 41
0.8
 72
     1
 11
5809.655861150022
 21
6826.75253899255
 31
0.0
100
AcDbText
  0
TEXT
  5
12268
330
214
100
AcDbEntity
  8
TABLE
 62
     4
100
AcDbText
 10
11695.8812503006
 20
8739.097048698699
 30
0.0
 40
60.0
  1
GB1*L*2+(GB1+L)*T*2
 41
0.8
 72
     1
 11
12105.02410744346
 21
8739.097048698699
 31
0.0
100
AcDbText
  0
TEXT
  5
12269
330
214
100
AcDbEntity
  8
TABLE
 62
     4
100
AcDbText
 10
11695.8812503006
 20
8539.097048698698
 30
0.0
 40
60.0
  1
GB1*L*2+(GB1+L)*T*2
 41
0.8
 72
     1
 11
12105.02410744346
 21
8539.097048698698
 31
0.0
100
AcDbText
  0
TEXT
  5
1226A
330
214
100
AcDbEntity
  8
TABLE
 62
     4
100
AcDbText
 10
11695.8812503006
 20
8339.097048698697
 30
0.0
 40
60.0
  1
GB1*L*2+(GB1+L)*T*2
 41
0.8
 72
     1
 11
12105.02410744346
 21
8339.097048698697
 31
0.0
100
AcDbText
  0
TEXT
  5
1226B
330
214
100
AcDbEntity
  8
TABLE
 62
     4
100
AcDbText
 10
14347.45003300395
 20
8195.006899188012
 30
0.0
 40
40.0
  1
2
 41
0.8
 72
     1
 11
14362.68812824205
 21
8195.006899188012
 31
0.0
100
AcDbText
  0
ENDSEC
  0
SECTION
  2
OBJECTS
  0
DICTIONARY
  5
12200
330
0
100
AcDbDictionary
  3
ACAD_GROUP
350
12201
  3
ACAD_LAYOUT
350
1220D
  3
ACAD_MLINESTYLE
350
12202
  3
ACAD_PLOTSETTINGS
350
1220E
  3
ACAD_PLOTSTYLENAME
350
1220B
  3
ACDBHEADERROUNDTRIPXREC
350
122ED
  3
ACDBVARIABLEDICTIONARY
350
1226C
  0
DICTIONARY
  5
12233
330
214
100
AcDbDictionary
280
     1
  3
ACAD_LAYOUTSELFREF
360
1230D
  0
DICTIONARY
  5
12235
330
215
100
AcDbDictionary
280
     1
  3
ACAD_LAYOUTSELFREF
360
1230E
  0
DICTIONARY
  5
12201
102
{ACAD_REACTORS
330
12200
102
}
330
12200
100
AcDbDictionary
  0
DICTIONARY
  5
1220D
102
{ACAD_REACTORS
330
12200
102
}
330
12200
100
AcDbDictionary
  0
DICTIONARY
  5
12202
102
{ACAD_REACTORS
330
12200
102
}
330
12200
100
AcDbDictionary
  3
STANDARD
350
12203
  0
DICTIONARY
  5
1220E
102
{ACAD_REACTORS
330
12200
102
}
330
12200
100
AcDbDictionary
  0
ACDBDICTIONARYWDFLT
  5
1220B
102
{ACAD_REACTORS
330
12200
102
}
330
12200
100
AcDbDictionary
281
     1
  3
Normal
350
1220C
100
AcDbDictionaryWithDefault
340
1220C
  0
DICTIONARY
  5
122ED
102
{ACAD_REACTORS
330
12200
102
}
330
12200
100
AcDbDictionary
  3
CEPSNTYPE
350
122F7
  3
FINGERPRINTGUID
350
122F8
  3
HYPERLINKBASE
350
122F0
  3
INSUNITS
350
122F6
  3
LAYOUTDICT
350
122F2
  3
LWETCUNION
350
122F5
  3
PLOTSETDICT
350
122F3
  3
PLOTSTYLNAMDICT
350
122F4
  3
PSVPSCALE
350
122FA
  3
PUCSBASE
350
122FD
  3
PUCSORGBACK
350
12303
  3
PUCSORGBOTTOM
350
122FF
  3
PUCSORGFRONT
350
12302
  3
PUCSORGLEFT
350
12300
  3
PUCSORGRIGHT
350
12301
  3
PUCSORGTOP
350
122FE
  3
PUCSORTHOREF
350
122FB
  3
PUCSORTHOVIEW
350
122FC
  3
STYLESHEET
350
122F1
  3
TSTACKALIGN
350
122EE
  3
TSTACKSIZE
350
122EF
  3
UCSBASE
350
12306
  3
UCSORGBACK
350
1230C
  3
UCSORGBOTTOM
350
12308
  3
UCSORGFRONT
350
1230B
  3
UCSORGLEFT
350
12309
  3
UCSORGRIGHT
350
1230A
  3
UCSORGTOP
350
12307
  3
UCSORTHOREF
350
12304
  3
UCSORTHOVIEW
350
12305
  3
VERSIONGUID
350
122F9
  0
DICTIONARY
  5
1226C
102
{ACAD_REACTORS
330
12200
102
}
330
12200
100
AcDbDictionary
  3
DIMASSOC
350
1226D
  0
XRECORD
  5
1230D
102
{ACAD_REACTORS
330
12233
102
}
330
12233
100
AcDbXrecord
340
214
  0
XRECORD
  5
1230E
102
{ACAD_REACTORS
330
12235
102
}
330
12235
100
AcDbXrecord
340
215
  0
MLINESTYLE
  5
12203
102
{ACAD_REACTORS
330
12202
102
}
330
12202
100
AcDbMlineStyle
  2
STANDARD
 70
     0
  3

 62
   256
 51
90.0
 52
90.0
 71
     2
 49
0.5
 62
   256
  6
BYLAYER
 49
-0.5
 62
   256
  6
BYLAYER
  0
ACDBPLACEHOLDER
  5
1220C
102
{ACAD_REACTORS
330
1220B
102
}
330
1220B
100
AcDbPlaceHolder
280
     0
  0
XRECORD
  5
122F7
102
{ACAD_REACTORS
330
122ED
102
}
330
122ED
100
AcDbXrecord
 90
        0
  0
XRECORD
  5
122F8
102
{ACAD_REACTORS
330
122ED
102
}
330
122ED
100
AcDbXrecord
  1
{B29A6FEE-B42B-4824-8D6E-F8C2C164B7BA}
  0
XRECORD
  5
122F0
102
{ACAD_REACTORS
330
122ED
102
}
330
122ED
100
AcDbXrecord
  1

  0
XRECORD
  5
122F6
102
{ACAD_REACTORS
330
122ED
102
}
330
122ED
100
AcDbXrecord
 90
        0
  0
XRECORD
  5
122F2
102
{ACAD_REACTORS
330
122ED
102
}
330
122ED
100
AcDbXrecord
340
1220D
  0
XRECORD
  5
122F5
102
{ACAD_REACTORS
330
122ED
102
}
330
122ED
100
AcDbXrecord
 90
    10781
  0
XRECORD
  5
122F3
102
{ACAD_REACTORS
330
122ED
102
}
330
122ED
100
AcDbXrecord
340
1220E
  0
XRECORD
  5
122F4
102
{ACAD_REACTORS
330
122ED
102
}
330
122ED
100
AcDbXrecord
340
1220B
  0
XRECORD
  5
122FA
102
{ACAD_REACTORS
330
122ED
102
}
330
122ED
100
AcDbXrecord
 40
0.0
  0
XRECORD
  5
122FD
102
{ACAD_REACTORS
330
122ED
102
}
330
122ED
100
AcDbXrecord
340
0
  0
XRECORD
  5
12303
102
{ACAD_REACTORS
330
122ED
102
}
330
122ED
100
AcDbXrecord
 10
0.0
 20
0.0
 30
0.0
  0
XRECORD
  5
122FF
102
{ACAD_REACTORS
330
122ED
102
}
330
122ED
100
AcDbXrecord
 10
0.0
 20
0.0
 30
0.0
  0
XRECORD
  5
12302
102
{ACAD_REACTORS
330
122ED
102
}
330
122ED
100
AcDbXrecord
 10
0.0
 20
0.0
 30
0.0
  0
XRECORD
  5
12300
102
{ACAD_REACTORS
330
122ED
102
}
330
122ED
100
AcDbXrecord
 10
0.0
 20
0.0
 30
0.0
  0
XRECORD
  5
12301
102
{ACAD_REACTORS
330
122ED
102
}
330
122ED
100
AcDbXrecord
 10
0.0
 20
0.0
 30
0.0
  0
XRECORD
  5
122FE
102
{ACAD_REACTORS
330
122ED
102
}
330
122ED
100
AcDbXrecord
 10
0.0
 20
0.0
 30
0.0
  0
XRECORD
  5
122FB
102
{ACAD_REACTORS
330
122ED
102
}
330
122ED
100
AcDbXrecord
340
0
  0
XRECORD
  5
122FC
102
{ACAD_REACTORS
330
122ED
102
}
330
122ED
100
AcDbXrecord
 70
     0
  0
XRECORD
  5
122F1
102
{ACAD_REACTORS
330
122ED
102
}
330
122ED
100
AcDbXrecord
  1

  0
XRECORD
  5
122EE
102
{ACAD_REACTORS
330
122ED
102
}
330
122ED
100
AcDbXrecord
 90
        1
  0
XRECORD
  5
122EF
102
{ACAD_REACTORS
330
122ED
102
}
330
122ED
100
AcDbXrecord
 90
       70
  0
XRECORD
  5
12306
102
{ACAD_REACTORS
330
122ED
102
}
330
122ED
100
AcDbXrecord
340
0
  0
XRECORD
  5
1230C
102
{ACAD_REACTORS
330
122ED
102
}
330
122ED
100
AcDbXrecord
 10
0.0
 20
0.0
 30
0.0
  0
XRECORD
  5
12308
102
{ACAD_REACTORS
330
122ED
102
}
330
122ED
100
AcDbXrecord
 10
0.0
 20
0.0
 30
0.0
  0
XRECORD
  5
1230B
102
{ACAD_REACTORS
330
122ED
102
}
330
122ED
100
AcDbXrecord
 10
0.0
 20
0.0
 30
0.0
  0
XRECORD
  5
12309
102
{ACAD_REACTORS
330
122ED
102
}
330
122ED
100
AcDbXrecord
 10
0.0
 20
0.0
 30
0.0
  0
XRECORD
  5
1230A
102
{ACAD_REACTORS
330
122ED
102
}
330
122ED
100
AcDbXrecord
 10
0.0
 20
0.0
 30
0.0
  0
XRECORD
  5
12307
102
{ACAD_REACTORS
330
122ED
102
}
330
122ED
100
AcDbXrecord
 10
0.0
 20
0.0
 30
0.0
  0
XRECORD
  5
12304
102
{ACAD_REACTORS
330
122ED
102
}
330
122ED
100
AcDbXrecord
340
0
  0
XRECORD
  5
12305
102
{ACAD_REACTORS
330
122ED
102
}
330
122ED
100
AcDbXrecord
 70
     0
  0
XRECORD
  5
122F9
102
{ACAD_REACTORS
330
122ED
102
}
330
122ED
100
AcDbXrecord
  1
{4254ABB3-81C3-4680-87A8-B9671E95441D}
  0
DICTIONARYVAR
  5
1226D
102
{ACAD_REACTORS
330
1226C
102
}
330
1226C
100
DictionaryVariables
280
     0
  1
1
  0
ENDSEC
  0
EOF
