  0
SECTION
  2
HEADER
  9
$ACADVER
  1
AC1014
  9
$ACADMAINTVER
 70
     9
  9
$DWGCODEPAGE
  3
ANSI_949
  9
$INSBASE
 10
0.0
 20
0.0
 30
0.0
  9
$EXTMIN
 10
4960.585982436999
 20
2085.199615048706
 30
-0.0000000000000058
  9
$EXTMAX
 10
15941.47739409641
 20
10249.7992200984
 30
0.0000000000000104
  9
$LIMMIN
 10
0.0
 20
0.0
  9
$LIMMAX
 10
16820.0
 20
11880.0
  9
$ORTHOMODE
 70
     1
  9
$REGENMODE
 70
     1
  9
$FILLMODE
 70
     1
  9
$QTEXTMODE
 70
     0
  9
$MIRRTEXT
 70
     0
  9
$DRAGMODE
 70
     2
  9
$LTSCALE
 40
110.0
  9
$OSMODE
 70
    37
  9
$ATTMODE
 70
     1
  9
$TEXTSIZE
 40
0.2
  9
$TRACEWID
 40
0.05
  9
$TEXTSTYLE
  7
STANDARD
  9
$CLAYER
  8
MAINMEMBER
  9
$CELTYPE
  6
CONTINUOUS
  9
$CECOLOR
 62
   256
  9
$CELTSCALE
 40
1.0
  9
$DELOBJ
 70
     1
  9
$DISPSILH
 70
     0
  9
$DIMSCALE
 40
20.0
  9
$DIMASZ
 40
1.0
  9
$DIMEXO
 40
0.0
  9
$DIMDLI
 40
0.0
  9
$DIMRND
 40
0.0
  9
$DIMDLE
 40
0.0
  9
$DIMEXE
 40
0.0
  9
$DIMTP
 40
0.0
  9
$DIMTM
 40
0.0
  9
$DIMTXT
 40
2.799999999999998
  9
$DIMCEN
 40
1.0
  9
$DIMTSZ
 40
0.0
  9
$DIMTOL
 70
     0
  9
$DIMLIM
 70
     0
  9
$DIMTIH
 70
     0
  9
$DIMTOH
 70
     0
  9
$DIMSE1
 70
     0
  9
$DIMSE2
 70
     0
  9
$DIMTAD
 70
     3
  9
$DIMZIN
 70
     8
  9
$DIMBLK
  1

  9
$DIMASO
 70
     1
  9
$DIMSHO
 70
     1
  9
$DIMPOST
  1

  9
$DIMAPOST
  1

  9
$DIMALT
 70
     0
  9
$DIMALTD
 70
     2
  9
$DIMALTF
 40
25.4
  9
$DIMLFAC
 40
1.0
  9
$DIMTOFL
 70
     1
  9
$DIMTVP
 40
0.0
  9
$DIMTIX
 70
     1
  9
$DIMSOXD
 70
     0
  9
$DIMSAH
 70
     0
  9
$DIMBLK1
  1

  9
$DIMBLK2
  1

  9
$DIMSTYLE
  2
STANDARD
  9
$DIMCLRD
 70
     1
  9
$DIMCLRE
 70
     1
  9
$DIMCLRT
 70
     4
  9
$DIMTFAC
 40
1.0
  9
$DIMGAP
 40
1.0
  9
$DIMJUST
 70
     0
  9
$DIMSD1
 70
     0
  9
$DIMSD2
 70
     0
  9
$DIMTOLJ
 70
     1
  9
$DIMTZIN
 70
     0
  9
$DIMALTZ
 70
     0
  9
$DIMALTTZ
 70
     0
  9
$DIMFIT
 70
     3
  9
$DIMUPT
 70
     0
  9
$DIMUNIT
 70
     2
  9
$DIMDEC
 70
     1
  9
$DIMTDEC
 70
     4
  9
$DIMALTU
 70
     2
  9
$DIMALTTD
 70
     2
  9
$DIMTXSTY
  7
STANDARD
  9
$DIMAUNIT
 70
     0
  9
$LUNITS
 70
     2
  9
$LUPREC
 70
     4
  9
$SKETCHINC
 40
0.1
  9
$FILLETRAD
 40
0.0
  9
$AUNITS
 70
     0
  9
$AUPREC
 70
     0
  9
$MENU
  1
.
  9
$ELEVATION
 40
0.0
  9
$PELEVATION
 40
0.0
  9
$THICKNESS
 40
0.0
  9
$LIMCHECK
 70
     0
  9
$BLIPMODE
 70
     0
  9
$CHAMFERA
 40
0.0
  9
$CHAMFERB
 40
0.0
  9
$CHAMFERC
 40
0.0
  9
$CHAMFERD
 40
0.0
  9
$SKPOLY
 70
     0
  9
$TDCREATE
 40
2452807.472504630
  9
$TDUPDATE
 40
2454055.438317777
  9
$TDINDWG
 40
0.1104618634
  9
$TDUSRTIMER
 40
0.1104603125
  9
$USRTIMER
 70
     1
  9
$ANGBASE
 50
0.0
  9
$ANGDIR
 70
     0
  9
$PDMODE
 70
     0
  9
$PDSIZE
 40
0.0
  9
$PLINEWID
 40
0.0
  9
$COORDS
 70
     1
  9
$SPLFRAME
 70
     0
  9
$SPLINETYPE
 70
     6
  9
$SPLINESEGS
 70
     8
  9
$ATTDIA
 70
     0
  9
$ATTREQ
 70
     1
  9
$HANDLING
 70
 22529
  9
$HANDSEED
  5
11493
  9
$SURFTAB1
 70
     6
  9
$SURFTAB2
 70
     6
  9
$SURFTYPE
 70
     6
  9
$SURFU
 70
     6
  9
$SURFV
 70
     6
  9
$UCSNAME
  2

  9
$UCSORG
 10
0.0
 20
0.0
 30
0.0
  9
$UCSXDIR
 10
1.0
 20
0.0
 30
0.0
  9
$UCSYDIR
 10
0.0
 20
1.0
 30
0.0
  9
$PUCSNAME
  2

  9
$PUCSORG
 10
0.0
 20
0.0
 30
0.0
  9
$PUCSXDIR
 10
1.0
 20
0.0
 30
0.0
  9
$PUCSYDIR
 10
0.0
 20
1.0
 30
0.0
  9
$USERI1
 70
     0
  9
$USERI2
 70
     0
  9
$USERI3
 70
     0
  9
$USERI4
 70
     0
  9
$USERI5
 70
     0
  9
$USERR1
 40
0.0
  9
$USERR2
 40
0.0
  9
$USERR3
 40
0.0
  9
$USERR4
 40
0.0
  9
$USERR5
 40
0.0
  9
$WORLDVIEW
 70
     1
  9
$SHADEDGE
 70
     3
  9
$SHADEDIF
 70
    70
  9
$TILEMODE
 70
     1
  9
$MAXACTVP
 70
    64
  9
$PINSBASE
 10
0.0
 20
0.0
 30
0.0
  9
$PLIMCHECK
 70
     0
  9
$PEXTMIN
 10
1.000000000000000E+20
 20
1.000000000000000E+20
 30
1.000000000000000E+20
  9
$PEXTMAX
 10
-1.000000000000000E+20
 20
-1.000000000000000E+20
 30
-1.000000000000000E+20
  9
$PLIMMIN
 10
0.0
 20
0.0
  9
$PLIMMAX
 10
12.0
 20
9.0
  9
$UNITMODE
 70
     0
  9
$VISRETAIN
 70
     1
  9
$PLINEGEN
 70
     0
  9
$PSLTSCALE
 70
     1
  9
$TREEDEPTH
 70
  3020
  9
$PICKSTYLE
 70
     1
  9
$CMLSTYLE
  2
STANDARD
  9
$CMLJUST
 70
     0
  9
$CMLSCALE
 40
1.0
  9
$PROXYGRAPHICS
 70
     1
  9
$MEASUREMENT
 70
     0
  0
ENDSEC
  0
SECTION
  2
CLASSES
  0
CLASS
  1
ACDBDICTIONARYWDFLT
  2
AcDbDictionaryWithDefault
  3
AutoCAD 2000
 90
        0
280
     0
281
     0
  0
CLASS
  1
ACDBPLACEHOLDER
  2
AcDbPlaceHolder
  3
AutoCAD 2000
 90
        0
280
     0
281
     0
  0
CLASS
  1
LAYOUT
  2
AcDbLayout
  3
AutoCAD 2000
 90
        0
280
     0
281
     0
  0
CLASS
  1
LONG_TRANSACTION
  2
AcDbLongTransaction
  3
AutoCAD 2000
 90
        0
280
     0
281
     0
  0
CLASS
  1
LWPOLYLINE
  2
AcDbPolyline
  3
AutoCAD 2000
 90
        0
280
     0
281
     1
  0
CLASS
  1
HATCH
  2
AcDbHatch
  3
AutoCAD 2000
 90
        0
280
     0
281
     1
  0
CLASS
  1
XRECORD
  2
AcDbXrecord
  3
AutoCAD 2000
 90
        0
280
     0
281
     0
  0
CLASS
  1
DICTIONARYVAR
  2
AcDbDictionaryVar
  3
AutoCAD 2000
 90
        0
280
     0
281
     0
  0
CLASS
  1
LONG_TRANSACTION
  2
AcDbLongTransaction
  3
AutoCAD 2000
 90
        0
280
     0
281
     0
  0
CLASS
  1
LWPOLYLINE
  2
AcDbPolyline
  3
AutoCAD 2000
 90
        0
280
     0
281
     1
  0
CLASS
  1
HATCH
  2
AcDbHatch
  3
AutoCAD 2000
 90
        0
280
     0
281
     1
  0
CLASS
  1
XRECORD
  2
AcDbXrecord
  3
AutoCAD 2000
 90
        0
280
     0
281
     0
  0
CLASS
  1
LONG_TRANSACTION
  2
AcDbLongTransaction
  3
AutoCAD 2000
 90
        0
280
     0
281
     0
  0
CLASS
  1
LWPOLYLINE
  2
AcDbPolyline
  3
AutoCAD 2000
 90
        0
280
     0
281
     1
  0
CLASS
  1
HATCH
  2
AcDbHatch
  3
AutoCAD 2000
 90
        0
280
     0
281
     1
  0
CLASS
  1
XRECORD
  2
AcDbXrecord
  3
AutoCAD 2000
 90
        0
280
     0
281
     0
  0
CLASS
  1
LONG_TRANSACTION
  2
AcDbLongTransaction
  3
AutoCAD 2000
 90
        0
280
     0
281
     0
  0
CLASS
  1
LWPOLYLINE
  2
AcDbPolyline
  3
AutoCAD 2000
 90
        0
280
     0
281
     1
  0
CLASS
  1
HATCH
  2
AcDbHatch
  3
AutoCAD 2000
 90
        0
280
     0
281
     1
  0
CLASS
  1
XRECORD
  2
AcDbXrecord
  3
AutoCAD 2000
 90
        0
280
     0
281
     0
  0
CLASS
  1
LONG_TRANSACTION
  2
AcDbLongTransaction
  3
AutoCAD 2000
 90
        0
280
     0
281
     0
  0
CLASS
  1
LWPOLYLINE
  2
AcDbPolyline
  3
AutoCAD 2000
 90
        0
280
     0
281
     1
  0
CLASS
  1
HATCH
  2
AcDbHatch
  3
AutoCAD 2000
 90
        0
280
     0
281
     1
  0
CLASS
  1
XRECORD
  2
AcDbXrecord
  3
AutoCAD 2000
 90
        0
280
     0
281
     0
  0
CLASS
  1
LONG_TRANSACTION
  2
AcDbLongTransaction
  3
AutoCAD 2000
 90
        0
280
     0
281
     0
  0
CLASS
  1
LWPOLYLINE
  2
AcDbPolyline
  3
AutoCAD 2000
 90
        0
280
     0
281
     1
  0
CLASS
  1
HATCH
  2
AcDbHatch
  3
AutoCAD 2000
 90
        0
280
     0
281
     1
  0
CLASS
  1
XRECORD
  2
AcDbXrecord
  3
AutoCAD 2000
 90
        0
280
     0
281
     0
  0
CLASS
  1
LONG_TRANSACTION
  2
AcDbLongTransaction
  3
AutoCAD 2000
 90
        0
280
     0
281
     0
  0
CLASS
  1
LWPOLYLINE
  2
AcDbPolyline
  3
AutoCAD 2000
 90
        0
280
     0
281
     1
  0
CLASS
  1
HATCH
  2
AcDbHatch
  3
AutoCAD 2000
 90
        0
280
     0
281
     1
  0
CLASS
  1
XRECORD
  2
AcDbXrecord
  3
AutoCAD 2000
 90
        0
280
     0
281
     0
  0
CLASS
  1
LONG_TRANSACTION
  2
AcDbLongTransaction
  3
AutoCAD 2000
 90
        0
280
     0
281
     0
  0
CLASS
  1
LWPOLYLINE
  2
AcDbPolyline
  3
AutoCAD 2000
 90
        0
280
     0
281
     1
  0
CLASS
  1
HATCH
  2
AcDbHatch
  3
AutoCAD 2000
 90
        0
280
     0
281
     1
  0
CLASS
  1
XRECORD
  2
AcDbXrecord
  3
AutoCAD 2000
 90
        0
280
     0
281
     0
  0
ENDSEC
  0
SECTION
  2
TABLES
  0
TABLE
  2
VPORT
  5
100
330
0
100
AcDbSymbolTable
 70
     2
  0
VPORT
  5
11470
330
100
100
AcDbSymbolTableRecord
100
AcDbViewportTableRecord
  2
*ACTIVE
 70
     0
 10
0.0
 20
0.0
 11
1.0
 21
1.0
 12
10451.0316882667
 22
6167.499417573558
 13
0.0
 23
0.0
 14
10.0
 24
10.0
 15
10.0
 25
10.0
 16
0.0
 26
0.0
 36
1.0
 17
0.0
 27
0.0
 37
0.0
 40
8228.972269478475
 41
1.584210526315789
 42
50.0
 43
0.0
 44
0.0
 50
0.0
 51
0.0
 71
     0
 72
   100
 73
     1
 74
     3
 75
     0
 76
     0
 77
     0
 78
     0
  0
ENDTAB
  0
TABLE
  2
LTYPE
  5
112
330
0
100
AcDbSymbolTable
 70
     5
  0
LTYPE
  5
113
330
112
100
AcDbSymbolTableRecord
100
AcDbLinetypeTableRecord
  2
BYBLOCK
 70
     0
  3

 72
    65
 73
     0
 40
0.0
  0
LTYPE
  5
114
330
112
100
AcDbSymbolTableRecord
100
AcDbLinetypeTableRecord
  2
BYLAYER
 70
     0
  3

 72
    65
 73
     0
 40
0.0
  0
LTYPE
  5
11073
330
112
100
AcDbSymbolTableRecord
100
AcDbLinetypeTableRecord
  2
CONTINUOUS
 70
     0
  3
Solid line
 72
    65
 73
     0
 40
0.0
  0
LTYPE
  5
115
330
112
100
AcDbSymbolTableRecord
100
AcDbLinetypeTableRecord
  2
LDASHDOT
 70
     0
  3
Hangil LType Dash Dot--- - --- - --- -
 72
    65
 73
     4
 40
2.0
 49
1.25
 74
     0
 49
-0.25
 74
     0
 49
0.25
 74
     0
 49
-0.25
 74
     0
  0
LTYPE
  5
116
330
112
100
AcDbSymbolTableRecord
100
AcDbLinetypeTableRecord
  2
DASH
 70
     0
  3
Hangil LType Dash -- -- -- -- --
 72
    65
 73
     2
 40
0.75
 49
0.5
 74
     0
 49
-0.25
 74
     0
  0
LTYPE
  5
117
330
112
100
AcDbSymbolTableRecord
100
AcDbLinetypeTableRecord
  2
DOT
 70
     0
  3
Hangil LType Dot - - - - - - - -
 72
    65
 73
     2
 40
1.0
 49
0.5
 74
     0
 49
-0.5
 74
     0
  0
LTYPE
  5
118
330
112
100
AcDbSymbolTableRecord
100
AcDbLinetypeTableRecord
  2
LDASHDOTDOT
 70
     0
  3
Hangil LType Dash Dot Dot --- - - --- - - --- -
 72
    65
 73
     6
 40
2.5
 49
1.25
 74
     0
 49
-0.25
 74
     0
 49
0.25
 74
     0
 49
-0.25
 74
     0
 49
0.25
 74
     0
 49
-0.25
 74
     0
  0
ENDTAB
  0
TABLE
  2
LAYER
  5
130
330
0
100
AcDbSymbolTable
 70
    10
  0
LAYER
  5
10
330
130
100
AcDbSymbolTableRecord
100
AcDbLayerTableRecord
  2
0
 70
     0
 62
     7
  6
CONTINUOUS
  0
LAYER
  5
132
330
130
100
AcDbSymbolTableRecord
100
AcDbLayerTableRecord
  2
A_0
 70
     0
 62
     7
  6
CONTINUOUS
  0
LAYER
  5
133
330
130
100
AcDbSymbolTableRecord
100
AcDbLayerTableRecord
  2
MIDDLETITLE
 70
     0
 62
     6
  6
CONTINUOUS
  0
LAYER
  5
134
330
130
100
AcDbSymbolTableRecord
100
AcDbLayerTableRecord
  2
DIMENSION
 70
     0
 62
     1
  6
CONTINUOUS
  0
LAYER
  5
135
330
130
100
AcDbSymbolTableRecord
100
AcDbLayerTableRecord
  2
MAINMEMBER
 70
     0
 62
     4
  6
CONTINUOUS
  0
LAYER
  5
136
330
130
100
AcDbSymbolTableRecord
100
AcDbLayerTableRecord
  2
LARGETITLE
 70
     0
 62
     6
  6
CONTINUOUS
  0
LAYER
  5
137
330
130
100
AcDbSymbolTableRecord
100
AcDbLayerTableRecord
  2
TABLE
 70
     0
 62
     1
  6
CONTINUOUS
  0
LAYER
  5
138
330
130
100
AcDbSymbolTableRecord
100
AcDbLayerTableRecord
  2
MAINMEMBER__1
 70
     0
 62
     4
  6
DASH
  0
LAYER
  5
139
330
130
100
AcDbSymbolTableRecord
100
AcDbLayerTableRecord
  2
TABLEOUTLINE
 70
     0
 62
    44
  6
CONTINUOUS
  0
LAYER
  5
140
330
130
100
AcDbSymbolTableRecord
100
AcDbLayerTableRecord
  2
SMALLTITLE
 70
     0
 62
     4
  6
CONTINUOUS
  0
ENDTAB
  0
TABLE
  2
STYLE
  5
151
330
0
100
AcDbSymbolTable
 70
     2
  0
STYLE
  5
152
330
151
100
AcDbSymbolTableRecord
100
AcDbTextStyleTableRecord
  2
A_STANDARD
 70
     0
 40
0.0
 41
1.0
 50
0.0
 71
     0
 42
0.0
  3
romans.shx
  4
ghs.shx
  0
STYLE
  5
11074
330
151
100
AcDbSymbolTableRecord
100
AcDbTextStyleTableRecord
  2
STANDARD
 70
     0
 40
0.0
 41
1.0
 50
0.0
 71
     0
 42
0.2
  3

  4

  0
ENDTAB
  0
TABLE
  2
VIEW
  5
163
330
0
100
AcDbSymbolTable
 70
     0
  0
ENDTAB
  0
TABLE
  2
UCS
  5
174
330
0
100
AcDbSymbolTable
 70
     0
  0
ENDTAB
  0
TABLE
  2
APPID
  5
185
330
0
100
AcDbSymbolTable
 70
     1
  0
APPID
  5
186
330
185
100
AcDbSymbolTableRecord
100
AcDbRegAppTableRecord
  2
ACAD
 70
     0
  0
ENDTAB
  0
TABLE
  2
DIMSTYLE
  5
197
330
0
100
AcDbSymbolTable
 70
     1
  0
DIMSTYLE
105
27
330
197
100
AcDbSymbolTableRecord
100
AcDbDimStyleTableRecord
  2
STANDARD
 70
     0
  3

  4

  5

  6

  7

 40
1.0
 41
0.18
 42
0.0625
 43
0.38
 44
20.0
 45
0.0
 46
0.0
 47
0.0
 48
0.0
140
0.0
141
0.09
142
0.0
143
25.4
144
1.0
145
10.0
146
1.0
147
0.09
 71
     0
 72
     0
 73
     1
 74
     1
 75
     0
 76
     0
 77
     0
 78
     0
170
     0
171
     2
172
     0
173
     0
174
     0
175
     0
176
     0
177
     0
178
     0
270
     2
271
     4
272
     4
273
     2
274
     2
340
152
275
     0
280
     0
281
     0
282
     0
283
     1
284
     0
285
     0
286
     0
287
     3
288
     0
  0
ENDTAB
  0
TABLE
  2
BLOCK_RECORD
  5
208
330
0
100
AcDbSymbolTable
 70
     0
  0
BLOCK_RECORD
  5
209
102
{ACAD_XDICTIONARY
360
1109F
102
}
330
208
100
AcDbSymbolTableRecord
100
AcDbBlockTableRecord
  2
*MODEL_SPACE
  0
BLOCK_RECORD
  5
210
102
{ACAD_XDICTIONARY
360
110A1
102
}
330
208
100
AcDbSymbolTableRecord
100
AcDbBlockTableRecord
  2
*PAPER_SPACE
  0
ENDTAB
  0
ENDSEC
  0
SECTION
  2
BLOCKS
  0
BLOCK
  5
221
330
209
100
AcDbEntity
  8
A_0
100
AcDbBlockBegin
  2
*MODEL_SPACE
 70
     0
 10
0.0
 20
0.0
 30
0.0
  3
*MODEL_SPACE
  1

  0
ENDBLK
  5
222
330
209
100
AcDbEntity
  8
0
100
AcDbBlockEnd
  0
BLOCK
  5
223
330
210
100
AcDbEntity
 67
     1
  8
A_0
100
AcDbBlockBegin
  2
*PAPER_SPACE
 70
     0
 10
0.0
 20
0.0
 30
0.0
  3
*PAPER_SPACE
  1

  0
ENDBLK
  5
224
330
210
100
AcDbEntity
 67
     1
  8
0
100
AcDbBlockEnd
  0
ENDSEC
  0
SECTION
  2
ENTITIES
  0
LINE
  5
10396
330
209
100
AcDbEntity
  8
MAINMEMBER
100
AcDbLine
 10
6164.83163570307
 20
9580.25077329909
 30
0.0
 11
6164.83163570307
 21
9720.250773299092
 31
0.0
  0
LINE
  5
10397
330
209
100
AcDbEntity
  8
MAINMEMBER
100
AcDbLine
 10
6142.83163570307
 20
9580.25077329909
 30
0.0
 11
6142.83163570307
 21
9720.250773299092
 31
0.0
  0
LINE
  5
10398
330
209
100
AcDbEntity
  8
MAINMEMBER
100
AcDbLine
 10
6224.831635703072
 20
9580.25077329909
 30
0.0
 11
6224.831635703072
 21
9720.250773299092
 31
0.0
  0
LINE
  5
10399
330
209
100
AcDbEntity
  8
MAINMEMBER
100
AcDbLine
 10
6202.831635703073
 20
9580.25077329909
 30
0.0
 11
6202.831635703073
 21
9720.250773299092
 31
0.0
  0
LINE
  5
10400
330
209
100
AcDbEntity
  8
MAINMEMBER
100
AcDbLine
 10
6284.83163570307
 20
9580.25077329909
 30
0.0
 11
6284.83163570307
 21
9720.250773299092
 31
0.0
  0
LINE
  5
10401
330
209
100
AcDbEntity
  8
MAINMEMBER
100
AcDbLine
 10
6262.831635703072
 20
9580.25077329909
 30
0.0
 11
6262.831635703072
 21
9720.250773299092
 31
0.0
  0
LINE
  5
10542
330
209
100
AcDbEntity
  8
DIMENSION
100
AcDbLine
 10
6088.614548500705
 20
9755.952866628817
 30
0.0
 11
6088.614548500705
 21
9965.952866628819
 31
0.0
  0
LINE
  5
10543
330
209
100
AcDbEntity
  8
DIMENSION
100
AcDbLine
 10
6535.599387617017
 20
9755.952866628817
 30
0.0
 11
6535.599387617017
 21
9965.952866628819
 31
0.0
  0
LINE
  5
10544
330
209
100
AcDbEntity
  8
DIMENSION
100
AcDbLine
 10
6088.614548500705
 20
9955.95286662882
 30
0.0
 11
6535.599387617017
 21
9955.95286662882
 31
0.0
  0
LINE
  5
10552
330
209
100
AcDbEntity
  8
DIMENSION
100
AcDbLine
 10
6768.890252350437
 20
7586.313940473495
 30
0.0
 11
6768.890252350437
 21
7654.199654473493
 31
0.0
  0
LINE
  5
10553
330
209
100
AcDbEntity
  8
DIMENSION
100
AcDbLine
 10
6568.890252350437
 20
7636.753672654887
 30
0.0
 11
6778.890252350436
 21
7636.753672654887
 31
0.0
  0
LINE
  5
10554
330
209
100
AcDbEntity
  8
DIMENSION
100
AcDbLine
 10
6568.890252350437
 20
7666.199654473492
 30
0.0
 11
6778.890252350436
 21
7666.199654473492
 31
0.0
  0
LINE
  5
10555
330
209
100
AcDbEntity
  8
DIMENSION
100
AcDbLine
 10
6768.890252350437
 20
7654.199654473493
 30
0.0
 11
6768.890252350437
 21
7666.199654473492
 31
0.0
  0
LINE
  5
10591
330
209
100
AcDbEntity
  8
TABLE
100
AcDbLine
 10
10919.81646822042
 20
9600.0
 30
0.0
 11
10919.81646822042
 21
7900.0
 31
0.0
  0
LINE
  5
10592
330
209
100
AcDbEntity
  8
TABLE
100
AcDbLine
 10
11924.03578522361
 20
9600.0
 30
0.0
 11
11924.03578522361
 21
7900.0
 31
0.0
  0
LINE
  5
10598
330
209
100
AcDbEntity
  8
TABLE
100
AcDbLine
 10
10119.81646822042
 20
9300.0
 30
0.0
 11
15940.91305323637
 21
9300.0
 31
0.0
  0
LINE
  5
10599
330
209
100
AcDbEntity
  8
TABLE
100
AcDbLine
 10
10119.81646822042
 20
9100.0
 30
0.0
 11
15940.91305323637
 21
9100.0
 31
0.0
  0
LINE
  5
10600
330
209
100
AcDbEntity
  8
TABLE
100
AcDbLine
 10
10119.81646822042
 20
8900.0
 30
0.0
 11
15940.91305323637
 21
8900.0
 31
0.0
  0
LINE
  5
10601
330
209
100
AcDbEntity
  8
TABLE
100
AcDbLine
 10
10119.81646822042
 20
8700.0
 30
0.0
 11
15940.91305323637
 21
8700.0
 31
0.0
  0
LINE
  5
10602
330
209
100
AcDbEntity
  8
TABLE
100
AcDbLine
 10
10119.81646822042
 20
8500.0
 30
0.0
 11
15940.91305323637
 21
8500.0
 31
0.0
  0
LINE
  5
10603
330
209
100
AcDbEntity
  8
TABLE
100
AcDbLine
 10
10119.81646822042
 20
8300.0
 30
0.0
 11
15940.91305323637
 21
8300.0
 31
0.0
  0
LINE
  5
10604
330
209
100
AcDbEntity
  8
TABLE
100
AcDbLine
 10
10119.81646822042
 20
8100.0
 30
0.0
 11
15940.91305323637
 21
8100.0
 31
0.0
  0
LWPOLYLINE
  5
10658
330
209
100
AcDbEntity
  8
MAINMEMBER
100
AcDbPolyline
 90
        4
 70
     1
 43
0.0
 10
6137.831635703072
 20
9720.250773299092
 10
6169.831635703072
 20
9720.250773299092
 10
6169.831635703072
 20
9730.25077329909
 10
6137.831635703072
 20
9730.25077329909
  0
LWPOLYLINE
  5
10662
330
209
100
AcDbEntity
  8
MAINMEMBER
100
AcDbPolyline
 90
        4
 70
     1
 43
0.0
 10
6197.83163570307
 20
9720.250773299092
 10
6229.83163570307
 20
9720.250773299092
 10
6229.83163570307
 20
9730.25077329909
 10
6197.83163570307
 20
9730.25077329909
  0
LWPOLYLINE
  5
10666
330
209
100
AcDbEntity
  8
MAINMEMBER
100
AcDbPolyline
 90
        4
 70
     1
 43
0.0
 10
6257.83163570307
 20
9720.250773299092
 10
6289.83163570307
 20
9720.250773299092
 10
6289.83163570307
 20
9730.25077329909
 10
6257.83163570307
 20
9730.25077329909
  0
LWPOLYLINE
  5
10718
330
209
100
AcDbEntity
  8
TABLEOUTLINE
100
AcDbPolyline
 90
        4
 70
     1
 43
0.0
 10
10119.81646822042
 20
9600.0
 10
15940.91305323637
 20
9600.0
 10
15940.91305323637
 20
7900.0
 10
10119.81646822042
 20
7900.0
  0
LWPOLYLINE
  5
10740
330
209
100
AcDbEntity
  8
DIMENSION
100
AcDbPolyline
 90
        2
 70
     1
 43
12.0
 10
6094.614548500707
 20
9955.95286662882
 42
1.0
 10
6082.614548500707
 20
9955.95286662882
 42
1.0
  0
LWPOLYLINE
  5
10742
330
209
100
AcDbEntity
  8
DIMENSION
100
AcDbPolyline
 90
        2
 70
     1
 43
12.0
 10
6541.599387617019
 20
9955.95286662882
 42
1.0
 10
6529.599387617017
 20
9955.95286662882
 42
1.0
  0
LWPOLYLINE
  5
10752
330
209
100
AcDbEntity
  8
DIMENSION
100
AcDbPolyline
 90
        2
 70
     1
 43
12.0
 10
6774.890252350437
 20
7640.009997003698
 42
1.0
 10
6762.890252350437
 20
7640.009997003698
 42
1.0
  0
LWPOLYLINE
  5
10754
330
209
100
AcDbEntity
  8
DIMENSION
100
AcDbPolyline
 90
        2
 70
     1
 43
12.0
 10
6774.890252350437
 20
7666.199654473492
 42
1.0
 10
6762.890252350437
 20
7666.199654473492
 42
1.0
  0
LWPOLYLINE
  5
10756
330
209
100
AcDbEntity
  8
DIMENSION
100
AcDbPolyline
 90
        2
 70
     1
 43
12.0
 10
6774.890252350437
 20
7666.199654473492
 42
1.0
 10
6762.890252350437
 20
7666.199654473492
 42
1.0
  0
SOLID
  5
10833
330
209
100
AcDbEntity
  8
MAINMEMBER
100
AcDbTrace
 10
6312.451950839342
 20
7552.992105082883
 30
0.0
 11
6372.451950839341
 21
7492.992105082881
 31
0.0
 12
6252.451950839343
 22
7492.992105082881
 32
0.0
 13
6252.451950839343
 23
7492.992105082881
 33
0.0
  0
TEXT
  5
10838
330
209
100
AcDbEntity
  8
DIMENSION
 62
     4
100
AcDbText
 10
2350.0
 20
8800.0
 30
0.0
 40
54.0
  1

 50
90.0
 41
0.8
 72
     1
 11
2350.0
 21
8800.0
 31
0.0
100
AcDbText
  0
TEXT
  5
10842
330
209
100
AcDbEntity
  8
DIMENSION
 62
     4
100
AcDbText
 10
4720.0
 20
7194.0
 30
0.0
 40
54.0
  1

 50
90.0
 41
0.8
 72
     1
 11
4720.0
 21
7194.0
 31
0.0
100
AcDbText
  0
TEXT
  5
10843
330
209
100
AcDbEntity
  8
DIMENSION
 62
     4
100
AcDbText
 10
6748.890252350436
 20
7560.6824170038
 30
0.0
 40
54.0
  1
TL
 50
90.0
 41
0.8
 72
     1
 11
6748.890252350436
 21
7594.625274146657
 31
0.0
100
AcDbText
  0
TEXT
  5
10847
330
209
100
AcDbEntity
  8
DIMENSION
 62
     4
100
AcDbText
 10
4720.0
 20
3642.0
 30
0.0
 40
54.0
  1

 50
90.0
 41
0.8
 72
     1
 11
4720.0
 21
3642.0
 31
0.0
100
AcDbText
  0
TEXT
  5
10855
330
209
100
AcDbEntity
  8
DIMENSION
 62
     4
100
AcDbText
 10
5814.987743696153
 20
7012.250773299084
 30
0.0
 40
54.0
  1
NOTE)
 41
0.8
 72
     1
 11
5910.644886553296
 21
7012.250773299084
 31
0.0
100
AcDbText
  0
TEXT
  5
10857
330
209
100
AcDbEntity
  8
DIMENSION
 62
     4
100
AcDbText
 10
6273.350233759323
 20
9968.052368073381
 30
0.0
 40
54.0
  1
WU
 41
0.8
 72
     1
 11
6318.607376616466
 21
9968.052368073381
 31
0.0
100
AcDbText
  0
TEXT
  5
10859
330
209
100
AcDbEntity
  8
DIMENSION
 62
     4
100
AcDbText
 10
2800.0
 20
7590.0
 30
0.0
 40
54.0
  1

 41
0.8
 72
     1
 11
2800.0
 21
7590.0
 31
0.0
100
AcDbText
  0
TEXT
  5
10861
330
209
100
AcDbEntity
  8
DIMENSION
 62
     4
100
AcDbText
 10
1940.0
 20
9000.0
 30
0.0
 40
54.0
  1

 41
0.8
 72
     1
 11
1940.0
 21
9000.0
 31
0.0
100
AcDbText
  0
TEXT
  5
10870
330
209
100
AcDbEntity
  8
DIMENSION
 62
     4
100
AcDbText
 10
6170.644886553294
 20
7012.250773299084
 30
0.0
 40
54.0
  1
전단연결재 : HB=STUD의 높이, D=STUD의 직경
 41
0.8
100
AcDbText
  0
TEXT
  5
10871
330
209
100
AcDbEntity
  8
DIMENSION
 62
     4
100
AcDbText
 10
6070.644886553296
 20
7012.250773299084
 30
0.0
 40
54.0
  1
1.
 41
0.8
100
AcDbText
  0
TEXT
  5
10872
330
209
100
AcDbEntity
  8
MIDDLETITLE
 62
     6
100
AcDbText
 10
6065.471395722715
 20
10142.81073091073
 30
0.0
 40
100.0
  1
정 면 도
 41
0.8
 72
     1
 11
6301.02695127827
 21
10142.81073091073
 31
0.0
100
AcDbText
  0
TEXT
  5
10873
330
209
100
AcDbEntity
  8
MIDDLETITLE
 62
     6
100
AcDbText
 10
3169.0
 20
9856.0
 30
0.0
 40
100.0
  1

 41
0.8
 72
     1
 11
3169.0
 21
9856.0
 31
0.0
100
AcDbText
  0
TEXT
  5
10874
330
209
100
AcDbEntity
  8
MIDDLETITLE
 62
     6
100
AcDbText
 10
12160.07930458476
 20
9950.0
 30
0.0
 40
100.0
  1
도장 산출 근거 : 일반
 41
0.8
 72
     1
 11
12766.23803474349
 21
9950.0
 31
0.0
100
AcDbText
  0
TEXT
  5
10875
330
209
100
AcDbEntity
  8
MIDDLETITLE
 62
     6
100
AcDbText
 10
11800.0
 20
9810.0
 30
0.0
 40
100.0
  1

 41
0.8
 72
     1
 11
11800.0
 21
9810.0
 31
0.0
100
AcDbText
  0
TEXT
  5
10876
330
209
100
AcDbEntity
  8
MIDDLETITLE
 62
     6
100
AcDbText
 10
5266.829339237955
 20
5396.365637130156
 30
0.0
 40
100.0
  1
정 면 도
 41
0.8
 72
     1
 11
5502.384894793511
 21
5396.365637130156
 31
0.0
100
AcDbText
  0
TEXT
  5
10877
330
209
100
AcDbEntity
  8
MIDDLETITLE
 62
     6
100
AcDbText
 10
3200.0
 20
4656.0
 30
0.0
 40
100.0
  1

 41
0.8
 72
     1
 11
3200.0
 21
4656.0
 31
0.0
100
AcDbText
  0
TEXT
  5
10878
330
209
100
AcDbEntity
  8
MIDDLETITLE
 62
     6
100
AcDbText
 10
12107.19041569587
 20
4750.0
 30
0.0
 40
100.0
  1
도장 산출 근거 : 단면도
 41
0.8
 72
     1
 11
12766.23803474349
 21
4750.0
 31
0.0
100
AcDbText
  0
TEXT
  5
10879
330
209
100
AcDbEntity
  8
MIDDLETITLE
 62
     6
100
AcDbText
 10
11800.0
 20
4610.0
 30
0.0
 40
100.0
  1

 41
0.8
 72
     1
 11
11800.0
 21
4610.0
 31
0.0
100
AcDbText
  0
TEXT
  5
10882
330
209
100
AcDbEntity
  8
TABLE
 62
     4
100
AcDbText
 10
10461.41646822042
 20
9420.0
 30
0.0
 40
60.0
  1
구분
 41
0.8
 72
     1
 11
10519.81646822042
 21
9420.0
 31
0.0
100
AcDbText
  0
TEXT
  5
10885
330
209
100
AcDbEntity
  8
TABLE
 62
     4
100
AcDbText
 10
13267.85070292447
 20
9361.869878216955
 30
0.0
 40
60.0
  1
 (공 장)
 41
0.8
 72
     1
 11
13437.45070292448
 21
9361.869878216955
 31
0.0
100
AcDbText
  0
TEXT
  5
10886
330
209
100
AcDbEntity
  8
TABLE
 62
     4
100
AcDbText
 10
13189.2983219721
 20
9471.753426715459
 30
0.0
 40
60.0
  1
3) 연결판 도장
 41
0.8
 72
     1
 11
13437.45070292448
 21
9471.753426715459
 31
0.0
100
AcDbText
  0
TEXT
  5
10889
330
209
100
AcDbEntity
  8
TABLE
 62
     4
100
AcDbText
 10
11175.10138886574
 20
9361.869878216955
 30
0.0
 40
60.0
  1
  (공 장)
 41
0.8
 72
     1
 11
11392.70138886574
 21
9361.869878216955
 31
0.0
100
AcDbText
  0
TEXT
  5
10890
330
209
100
AcDbEntity
  8
TABLE
 62
     4
100
AcDbText
 10
11173.92043648478
 20
9471.753426715459
 30
0.0
 40
60.0
  1
1) 외부 도장
 41
0.8
 72
     1
 11
11392.70138886574
 21
9471.753426715459
 31
0.0
100
AcDbText
  0
TEXT
  5
10891
330
209
100
AcDbEntity
  8
TABLE
 62
     4
100
AcDbText
 10
12166.0689073835
 20
9361.869878216955
 30
0.0
 40
60.0
  1
  (현 장)
 41
0.8
 72
     1
 11
12383.6689073835
 21
9361.869878216955
 31
0.0
100
AcDbText
  0
TEXT
  5
10892
330
209
100
AcDbEntity
  8
TABLE
 62
     4
100
AcDbText
 10
12192.31652643111
 20
9471.753426715459
 30
0.0
 40
60.0
  1
2) 외부도장
 41
0.8
 72
     1
 11
12383.6689073835
 21
9471.753426715459
 31
0.0
100
AcDbText
  0
TEXT
  5
10893
330
209
100
AcDbEntity
  8
TABLE
 62
     4
100
AcDbText
 10
14065.27868929705
 20
9361.869878216955
 30
0.0
 40
60.0
  1
  연결도장(현장)
 41
0.8
 72
     1
 11
14387.65529222169
 21
9361.869878216955
 31
0.0
100
AcDbText
  0
TEXT
  5
10894
330
209
100
AcDbEntity
  8
TABLE
 62
     4
100
AcDbText
 10
14143.12073337828
 20
9471.753426715459
 30
0.0
 40
60.0
  1
4) 외부볼트및
 41
0.8
 72
     1
 11
14364.07311433067
 21
9471.753426715459
 31
0.0
100
AcDbText
  0
TEXT
  5
10895
330
209
100
AcDbEntity
  8
TABLE
 62
     4
100
AcDbText
 10
15193.30196887152
 20
9361.869878216955
 30
0.0
 40
60.0
  1
  도장(공장)
 41
0.8
 72
     1
 11
15447.9305403001
 21
9361.869878216955
 31
0.0
100
AcDbText
  0
TEXT
  5
10896
330
209
100
AcDbEntity
  8
TABLE
 62
     4
100
AcDbText
 10
15226.44482601438
 20
9471.753426715459
 30
0.0
 40
60.0
  1
5) 외부포장면
 41
0.8
 72
     1
 11
15447.9305403001
 21
9471.753426715459
 31
0.0
100
AcDbText
  0
TEXT
  5
10897
330
209
100
AcDbEntity
  8
TABLE
 62
     4
100
AcDbText
 10
10364.08313488708
 20
9170.0
 30
0.0
 40
60.0
  1
상부플랜지
 41
0.8
 72
     1
 11
10519.81646822042
 21
9170.0
 31
0.0
100
AcDbText
  0
TEXT
  5
10901
330
209
100
AcDbEntity
  8
TABLE
 62
     4
100
AcDbText
 10
15204.52821493404
 20
9170.0
 30
0.0
 40
60.0
  1
(WU+TU*2)*LA
 41
0.8
 72
     1
 11
15465.09964350547
 21
9170.0
 31
0.0
100
AcDbText
  0
TEXT
  5
10902
330
209
100
AcDbEntity
  8
TABLE
 62
     4
100
AcDbText
 10
10363.01646822042
 20
8970.0
 30
0.0
 40
60.0
  1
하부플랜지
 41
0.8
 72
     1
 11
10519.81646822042
 21
8970.0
 31
0.0
100
AcDbText
  0
TEXT
  5
10906
330
209
100
AcDbEntity
  8
TABLE
 62
     4
100
AcDbText
 10
10364.08313488708
 20
8770.0
 30
0.0
 40
60.0
  1
웨브플랜지
 41
0.8
 72
     1
 11
10519.81646822042
 21
8770.0
 31
0.0
100
AcDbText
  0
TEXT
  5
10914
330
209
100
AcDbEntity
  8
TABLE
 62
     4
100
AcDbText
 10
10364.61646822042
 20
8570.0
 30
0.0
 40
60.0
  1
수평보강재
 41
0.8
 72
     1
 11
10519.81646822042
 21
8570.0
 31
0.0
100
AcDbText
  0
TEXT
  5
10916
330
209
100
AcDbEntity
  8
TABLE
 62
     4
100
AcDbText
 10
10301.5307539347
 20
8370.0
 30
0.0
 40
60.0
  1
SOLE PLATE
 41
0.8
 72
     1
 11
10519.81646822042
 21
8370.0
 31
0.0
100
AcDbText
  0
TEXT
  5
10918
330
209
100
AcDbEntity
  8
TABLE
 62
     4
100
AcDbText
 10
11044.92809689988
 20
8364.809561490298
 30
0.0
 40
60.0
  1
WP*LP+(WP+LP)*T*2
 41
0.8
 72
     1
 11
11420.92809689988
 21
8364.809561490298
 31
0.0
100
AcDbText
  0
TEXT
  5
10920
330
209
100
AcDbEntity
  8
TABLE
 62
     4
100
AcDbText
 10
12040.60006675666
 20
8364.809561490298
 30
0.0
 40
60.0
  1
WP*LP+(WP+LP)*T*2
 41
0.8
 72
     1
 11
12416.60006675666
 21
8364.809561490298
 31
0.0
100
AcDbText
  0
TEXT
  5
10921
330
209
100
AcDbEntity
  8
TABLE
 62
     4
100
AcDbText
 10
10338.48313488708
 20
8170.0
 30
0.0
 40
60.0
  1
전단 연결재
 41
0.8
 72
     1
 11
10519.81646822042
 21
8170.0
 31
0.0
100
AcDbText
  0
TEXT
  5
10922
330
209
100
AcDbEntity
  8
TABLE
 62
     4
100
AcDbText
 10
15103.44745945185
 20
8170.0
 30
0.0
 40
60.0
  1
PI*D*HB+PI*(D/2)
 41
0.8
 72
     1
 11
15431.44745945186
 21
8170.0
 31
0.0
100
AcDbText
  0
TEXT
  5
10923
330
209
100
AcDbEntity
  8
TABLE
 62
     4
100
AcDbText
 10
10302.67361107756
 20
7970.0
 30
0.0
 40
60.0
  1
FACE PLATE
 41
0.8
 72
     1
 11
10519.81646822042
 21
7970.0
 31
0.0
100
AcDbText
  0
TEXT
  5
10951
330
209
100
AcDbEntity
  8
TABLE
 62
     4
100
AcDbText
 10
10364.61646822042
 20
3910.543436354463
 30
0.0
 40
60.0
  1
수직보강재
 41
0.8
 72
     1
 11
10519.81646822042
 21
3910.543436354463
 31
0.0
100
AcDbText
  0
TEXT
  5
10953
330
209
100
AcDbEntity
  8
TABLE
 62
     4
100
AcDbText
 10
10340.95932536327
 20
3710.543436354463
 30
0.0
 40
60.0
  1
수직보강재*
 41
0.8
 72
     1
 11
10519.81646822042
 21
3710.543436354463
 31
0.0
100
AcDbText
  0
LINE
  5
110AF
330
209
100
AcDbEntity
  8
MAINMEMBER
  6
CONTINUOUS
100
AcDbLine
 10
6224.831635703072
 20
9580.25077329909
 30
0.0
 11
6262.831635703072
 21
9580.25077329909
 31
0.0
  0
LWPOLYLINE
  5
110B1
330
209
100
AcDbEntity
  8
MAINMEMBER
  6
CONTINUOUS
100
AcDbPolyline
 90
        4
 70
     1
 43
0.0
 10
6294.094327516086
 20
9554.354693484979
 10
6330.809574162596
 20
9554.354693484979
 10
6330.809574162596
 20
7665.906076817806
 10
6294.094327516086
 20
7665.906076817806
  0
LWPOLYLINE
  5
110B2
330
209
100
AcDbEntity
  8
MAINMEMBER
  6
CONTINUOUS
100
AcDbPolyline
 90
        4
 70
     1
 43
0.0
 10
6088.331635703069
 20
9580.25077329909
 10
6536.572265975614
 20
9580.25077329909
 10
6536.572265975614
 20
9554.354693484979
 10
6088.331635703069
 20
9554.354693484979
  0
LINE
  5
110B3
330
209
100
AcDbEntity
  8
MAINMEMBER
100
AcDbLine
 10
6460.072265975617
 20
9580.25077329909
 30
0.0
 11
6460.072265975617
 21
9720.250773299092
 31
0.0
  0
LINE
  5
110B4
330
209
100
AcDbEntity
  8
MAINMEMBER
100
AcDbLine
 10
6482.072265975614
 20
9580.25077329909
 30
0.0
 11
6482.072265975614
 21
9720.250773299092
 31
0.0
  0
LWPOLYLINE
  5
110B5
330
209
100
AcDbEntity
  8
MAINMEMBER
100
AcDbPolyline
 90
        4
 70
     1
 43
0.0
 10
6487.072265975614
 20
9720.250773299092
 10
6455.072265975613
 20
9720.250773299092
 10
6455.072265975613
 20
9730.25077329909
 10
6487.072265975614
 20
9730.25077329909
  0
LINE
  5
110B6
330
209
100
AcDbEntity
  8
MAINMEMBER
  6
CONTINUOUS
100
AcDbLine
 10
6400.072265975613
 20
9580.25077329909
 30
0.0
 11
6362.072265975614
 21
9580.25077329909
 31
0.0
  0
LINE
  5
110B7
330
209
100
AcDbEntity
  8
MAINMEMBER
100
AcDbLine
 10
6340.072265975614
 20
9580.25077329909
 30
0.0
 11
6340.072265975614
 21
9720.250773299092
 31
0.0
  0
LINE
  5
110B8
330
209
100
AcDbEntity
  8
MAINMEMBER
100
AcDbLine
 10
6362.072265975614
 20
9580.25077329909
 30
0.0
 11
6362.072265975614
 21
9720.250773299092
 31
0.0
  0
LWPOLYLINE
  5
110B9
330
209
100
AcDbEntity
  8
MAINMEMBER
100
AcDbPolyline
 90
        4
 70
     1
 43
0.0
 10
6367.072265975614
 20
9720.250773299092
 10
6335.072265975614
 20
9720.250773299092
 10
6335.072265975614
 20
9730.25077329909
 10
6367.072265975614
 20
9730.25077329909
  0
LINE
  5
110BA
330
209
100
AcDbEntity
  8
MAINMEMBER
100
AcDbLine
 10
6400.072265975613
 20
9580.25077329909
 30
0.0
 11
6400.072265975613
 21
9720.250773299092
 31
0.0
  0
LINE
  5
110BB
330
209
100
AcDbEntity
  8
MAINMEMBER
100
AcDbLine
 10
6422.072265975613
 20
9580.25077329909
 30
0.0
 11
6422.072265975613
 21
9720.250773299092
 31
0.0
  0
LWPOLYLINE
  5
110BC
330
209
100
AcDbEntity
  8
MAINMEMBER
100
AcDbPolyline
 90
        4
 70
     1
 43
0.0
 10
6427.072265975614
 20
9720.250773299092
 10
6395.072265975613
 20
9720.250773299092
 10
6395.072265975613
 20
9730.25077329909
 10
6427.072265975614
 20
9730.25077329909
  0
LWPOLYLINE
  5
110BF
330
209
100
AcDbEntity
  8
MAINMEMBER
  6
CONTINUOUS
100
AcDbPolyline
 90
        4
 70
     1
 43
0.0
 10
6136.017279128602
 20
7636.217854590626
 10
6488.886622550082
 20
7636.217854590626
 10
6488.886622550082
 20
7552.992105082883
 10
6136.017279128602
 20
7552.992105082883
  0
TEXT
  5
110C0
330
209
100
AcDbEntity
  8
DIMENSION
 62
     4
100
AcDbText
 10
6646.012369802267
 20
7784.907439657563
 30
0.0
 40
54.0
  1
WP*T*LP
 41
0.8
 72
     1
 11
6779.726655516552
 21
7784.907439657563
 31
0.0
100
AcDbText
  0
TEXT
  5
110C1
330
209
100
AcDbEntity
  8
DIMENSION
 62
     4
100
AcDbText
 10
6583.269512659409
 20
7874.907439657564
 30
0.0
 40
54.0
  1
SOLE PLATE
 41
0.8
 72
     1
 11
6779.726655516552
 21
7874.907439657564
 31
0.0
100
AcDbText
  0
LINE
  5
110C2
330
209
100
AcDbEntity
  8
DIMENSION
100
AcDbLine
 10
6588.722272189376
 20
7854.907439657563
 30
0.0
 11
6975.155227516551
 21
7854.907439657563
 31
0.0
  0
SOLID
  5
110C3
330
209
100
AcDbEntity
  8
DIMENSION
100
AcDbTrace
 10
6480.931768714937
 20
7650.017956374178
 30
0.0
 11
6510.360119637602
 21
7688.773241974631
 31
0.0
 12
6480.931768714937
 22
7650.017956374178
 32
0.0
 13
6496.200116149743
 23
7696.222691700876
 33
0.0
  0
LINE
  5
110C4
330
209
100
AcDbEntity
  8
DIMENSION
100
AcDbLine
 10
6480.931768714937
 20
7650.017956374185
 30
0.0
 11
6588.722272189376
 21
7854.907439657563
 31
0.0
  0
LINE
  5
110C5
330
209
100
AcDbEntity
  8
DIMENSION
100
AcDbLine
 10
5868.33163570307
 20
7666.057787054995
 30
0.0
 11
5868.33163570307
 21
9554.354693484979
 31
0.0
  0
LINE
  5
110C6
330
209
100
AcDbEntity
  8
DIMENSION
100
AcDbLine
 10
6068.331635703072
 20
7666.057787054993
 30
0.0
 11
5858.331635703073
 21
7666.057787054993
 31
0.0
  0
LWPOLYLINE
  5
110C7
330
209
100
AcDbEntity
  8
DIMENSION
100
AcDbPolyline
 90
        2
 70
     1
 43
12.0
 10
5874.331635703073
 20
7666.057787054993
 42
1.0
 10
5862.33163570307
 20
7666.057787054993
 42
1.0
  0
LINE
  5
110C9
330
209
100
AcDbEntity
  8
DIMENSION
100
AcDbLine
 10
6068.331635703072
 20
9554.354693484979
 30
0.0
 11
5858.331635703073
 21
9554.354693484979
 31
0.0
  0
TEXT
  5
110CA
330
209
100
AcDbEntity
  8
DIMENSION
 62
     4
100
AcDbText
 10
5848.331635703073
 20
8531.72612205641
 30
0.0
 40
54.0
  1
H
 50
90.0
 41
0.8
 72
     1
 11
5848.331635703073
 21
8554.354693484979
 31
0.0
100
AcDbText
  0
LWPOLYLINE
  5
110CB
330
209
100
AcDbEntity
  8
DIMENSION
100
AcDbPolyline
 90
        2
 70
     1
 43
12.0
 10
5874.331635703073
 20
9554.354693484979
 42
1.0
 10
5862.33163570307
 20
9554.354693484979
 42
1.0
  0
LWPOLYLINE
  5
110CC
330
209
100
AcDbEntity
  8
DIMENSION
100
AcDbPolyline
 90
        2
 70
     1
 43
12.0
 10
6742.572265975613
 20
9554.354693484979
 42
1.0
 10
6730.572265975614
 20
9554.354693484979
 42
1.0
  0
LWPOLYLINE
  5
110CD
330
209
100
AcDbEntity
  8
DIMENSION
100
AcDbPolyline
 90
        2
 70
     1
 43
12.0
 10
6742.572265975613
 20
9554.354693484979
 42
1.0
 10
6730.572265975614
 20
9554.354693484979
 42
1.0
  0
LINE
  5
110CE
330
209
100
AcDbEntity
  8
DIMENSION
100
AcDbLine
 10
6536.572265975614
 20
9580.25077329909
 30
0.0
 11
6746.572265975614
 21
9580.25077329909
 31
0.0
  0
LINE
  5
110CF
330
209
100
AcDbEntity
  8
DIMENSION
100
AcDbLine
 10
6536.572265975614
 20
9554.354693484979
 30
0.0
 11
6746.572265975614
 21
9554.354693484979
 31
0.0
  0
TEXT
  5
110D0
330
209
100
AcDbEntity
  8
DIMENSION
 62
     4
100
AcDbText
 10
6718.94896165744
 20
9584.882143661472
 30
0.0
 40
54.0
  1
TU
 50
90.0
 41
0.8
 72
     1
 11
6718.94896165744
 21
9620.882143661473
 31
0.0
100
AcDbText
  0
LWPOLYLINE
  5
110D1
330
209
100
AcDbEntity
  8
DIMENSION
100
AcDbPolyline
 90
        2
 70
     1
 43
12.0
 10
6742.572265975613
 20
9580.25077329909
 42
1.0
 10
6730.572265975614
 20
9580.25077329909
 42
1.0
  0
LINE
  5
110D2
330
209
100
AcDbEntity
  8
DIMENSION
100
AcDbLine
 10
6736.572265975614
 20
9554.354693484979
 30
0.0
 11
6736.572265975614
 21
9644.526122484981
 31
0.0
  0
LWPOLYLINE
  5
110D5
330
209
100
AcDbEntity
  8
MAINMEMBER
  6
CONTINUOUS
100
AcDbPolyline
 90
        4
 70
     1
 43
0.0
 10
6060.952552277401
 20
7665.906076817806
 10
6563.951349401283
 20
7665.906076817806
 10
6563.951349401283
 20
7636.217854590626
 10
6060.952552277401
 20
7636.217854590626
  0
LINE
  5
110D6
330
209
100
AcDbEntity
  8
DIMENSION
100
AcDbLine
 10
6561.816161804978
 20
7286.968092584672
 30
0.0
 11
6561.816161804978
 21
7496.968092584674
 31
0.0
  0
LINE
  5
110D7
330
209
100
AcDbEntity
  8
DIMENSION
100
AcDbLine
 10
6061.148310881502
 20
7286.968092584672
 30
0.0
 11
6061.148310881502
 21
7496.968092584674
 31
0.0
  0
TEXT
  5
110D8
330
209
100
AcDbEntity
  8
DIMENSION
 62
     4
100
AcDbText
 10
6271.335875200574
 20
7299.067594029236
 30
0.0
 40
54.0
  1
WL
 41
0.8
 72
     1
 11
6314.535875200574
 21
7299.067594029236
 31
0.0
100
AcDbText
  0
LINE
  5
110D9
330
209
100
AcDbEntity
  8
DIMENSION
100
AcDbLine
 10
6061.148310881502
 20
7286.968092584672
 30
0.0
 11
6561.816161804978
 21
7286.968092584672
 31
0.0
  0
LWPOLYLINE
  5
110DA
330
209
100
AcDbEntity
  8
DIMENSION
100
AcDbPolyline
 90
        2
 70
     1
 43
12.0
 10
6067.148310881502
 20
7286.968092584672
 42
1.0
 10
6055.148310881502
 20
7286.968092584672
 42
1.0
  0
LWPOLYLINE
  5
110DB
330
209
100
AcDbEntity
  8
DIMENSION
100
AcDbPolyline
 90
        2
 70
     1
 43
12.0
 10
6567.816161804978
 20
7286.968092584672
 42
1.0
 10
6555.816161804978
 20
7286.968092584672
 42
1.0
  0
LWPOLYLINE
  5
11106
330
209
100
AcDbEntity
  8
MAINMEMBER
  6
CONTINUOUS
100
AcDbPolyline
 90
        4
 70
     0
 43
0.0
 10
6294.094327516086
 20
8799.04182065607
 10
6102.863767625514
 20
8799.04182065607
 10
6102.863767625514
 20
8832.458808472196
 10
6294.094327516086
 20
8832.458808472196
  0
LWPOLYLINE
  5
11107
330
209
100
AcDbEntity
  8
MAINMEMBER
  6
CONTINUOUS
100
AcDbPolyline
 90
        4
 70
     0
 43
0.0
 10
6330.809574162596
 20
8832.458808472196
 10
6522.040134053169
 20
8832.458808472196
 10
6522.040134053169
 20
8799.04182065607
 10
6330.809574162596
 20
8799.04182065607
  0
LINE
  5
11108
330
209
100
AcDbEntity
  8
DIMENSION
100
AcDbLine
 10
6522.040134053169
 20
8834.487802474676
 30
0.0
 11
6732.04013405317
 21
8834.487802474676
 31
0.0
  0
LINE
  5
11109
330
209
100
AcDbEntity
  8
DIMENSION
100
AcDbLine
 10
6522.040134053169
 20
8799.04182065607
 30
0.0
 11
6732.04013405317
 21
8799.04182065607
 31
0.0
  0
LWPOLYLINE
  5
1110A
330
209
100
AcDbEntity
  8
DIMENSION
100
AcDbPolyline
 90
        2
 70
     1
 43
12.0
 10
6728.040134053173
 20
8828.487802474676
 42
1.0
 10
6716.040134053172
 20
8828.487802474676
 42
1.0
  0
LWPOLYLINE
  5
1110B
330
209
100
AcDbEntity
  8
DIMENSION
100
AcDbPolyline
 90
        2
 70
     1
 43
12.0
 10
6728.040134053173
 20
8834.487802474676
 42
1.0
 10
6716.040134053172
 20
8834.487802474676
 42
1.0
  0
LWPOLYLINE
  5
1110C
330
209
100
AcDbEntity
  8
DIMENSION
100
AcDbPolyline
 90
        2
 70
     1
 43
12.0
 10
6728.040134053173
 20
8802.298145004883
 42
1.0
 10
6716.040134053172
 20
8802.298145004883
 42
1.0
  0
TEXT
  5
1110D
330
209
100
AcDbEntity
  8
DIMENSION
 62
     4
100
AcDbText
 10
6702.040134053174
 20
8720.913422147839
 30
0.0
 40
54.0
  1
TH
 50
90.0
 41
0.8
 72
     1
 11
6702.040134053174
 21
8756.913422147839
 31
0.0
100
AcDbText
  0
LINE
  5
1110E
330
209
100
AcDbEntity
  8
DIMENSION
100
AcDbLine
 10
6722.04013405317
 20
8816.487802474675
 30
0.0
 11
6722.04013405317
 21
8828.487802474676
 31
0.0
  0
LINE
  5
1110F
330
209
100
AcDbEntity
  8
DIMENSION
100
AcDbLine
 10
6722.04013405317
 20
8748.60208847468
 30
0.0
 11
6722.04013405317
 21
8816.487802474675
 31
0.0
  0
LINE
  5
11110
330
209
100
AcDbEntity
  8
DIMENSION
100
AcDbLine
 10
6330.809574162596
 20
8589.041820656069
 30
0.0
 11
6522.040134053169
 21
8589.041820656069
 31
0.0
  0
TEXT
  5
11111
330
209
100
AcDbEntity
  8
DIMENSION
 62
     4
100
AcDbText
 10
6380.561253402007
 20
8601.141322100632
 30
0.0
 40
54.0
  1
WH
 41
0.8
 72
     1
 11
6425.81839625915
 21
8601.141322100632
 31
0.0
100
AcDbText
  0
LWPOLYLINE
  5
11112
330
209
100
AcDbEntity
  8
DIMENSION
100
AcDbPolyline
 90
        2
 70
     1
 43
12.0
 10
6336.809574162598
 20
8589.041820656069
 42
1.0
 10
6324.8095741626
 20
8589.041820656069
 42
1.0
  0
LINE
  5
11113
330
209
100
AcDbEntity
  8
DIMENSION
100
AcDbLine
 10
6330.809574162596
 20
8589.041820656069
 30
0.0
 11
6330.809574162596
 21
8799.04182065607
 31
0.0
  0
LWPOLYLINE
  5
11114
330
209
100
AcDbEntity
  8
DIMENSION
100
AcDbPolyline
 90
        2
 70
     1
 43
12.0
 10
6528.04013405317
 20
8589.041820656069
 42
1.0
 10
6516.040134053174
 20
8589.041820656069
 42
1.0
  0
LINE
  5
11115
330
209
100
AcDbEntity
  8
DIMENSION
100
AcDbLine
 10
6522.040134053169
 20
8589.041820656069
 30
0.0
 11
6522.040134053169
 21
8799.04182065607
 31
0.0
  0
LINE
  5
11117
330
209
100
AcDbEntity
  8
DIMENSION
100
AcDbLine
 10
5702.145969664481
 20
4847.609662588424
 30
0.0
 11
5702.145969664481
 21
5057.609662588426
 31
0.0
  0
LINE
  5
11118
330
209
100
AcDbEntity
  8
DIMENSION
100
AcDbLine
 10
5255.161130548171
 20
4847.609662588424
 30
0.0
 11
5255.161130548171
 21
5057.609662588426
 31
0.0
  0
LINE
  5
1111B
330
209
100
AcDbEntity
  8
DIMENSION
100
AcDbLine
 10
5703.118848023077
 20
4646.011489444584
 30
0.0
 11
5913.118848023078
 21
4646.011489444584
 31
0.0
  0
LINE
  5
1111C
330
209
100
AcDbEntity
  8
DIMENSION
100
AcDbLine
 10
5703.118848023077
 20
4671.907569258694
 30
0.0
 11
5913.118848023078
 21
4671.907569258694
 31
0.0
  0
TEXT
  5
1111F
330
209
100
AcDbEntity
  8
DIMENSION
 62
     4
100
AcDbText
 10
5954.990994335034
 20
2103.907569258692
 30
0.0
 40
54.0
  1
전단연결재 : HB=STUD의 높이, D=STUD의 직경
 41
0.8
100
AcDbText
  0
LINE
  5
11122
330
209
100
AcDbEntity
  8
DIMENSION
100
AcDbLine
 10
5034.878217750534
 20
2757.714583014601
 30
0.0
 11
5034.878217750534
 21
4646.011489444584
 31
0.0
  0
LWPOLYLINE
  5
11123
330
209
100
AcDbEntity
  8
MAINMEMBER
  6
CONTINUOUS
100
AcDbPolyline
 90
        4
 70
     1
 43
0.0
 10
5460.64090956355
 20
4646.011489444584
 10
5497.356156210062
 20
4646.011489444584
 10
5497.356156210062
 20
2757.562872777413
 10
5460.64090956355
 20
2757.562872777413
  0
TEXT
  5
11124
330
209
100
AcDbEntity
  8
DIMENSION
 62
     4
100
AcDbText
 10
5854.990994335037
 20
2103.907569258692
 30
0.0
 40
54.0
  1
1.
 41
0.8
100
AcDbText
  0
TEXT
  5
11125
330
209
100
AcDbEntity
  8
DIMENSION
 62
     4
100
AcDbText
 10
5599.333851477894
 20
2103.907569258692
 30
0.0
 40
54.0
  1
NOTE)
 41
0.8
 72
     1
 11
5694.990994335037
 21
2103.907569258692
 31
0.0
100
AcDbText
  0
LINE
  5
11126
330
209
100
AcDbEntity
  8
DIMENSION
100
AcDbLine
 10
5234.878217750535
 20
2757.714583014599
 30
0.0
 11
5024.878217750536
 21
2757.714583014599
 31
0.0
  0
LWPOLYLINE
  5
11127
330
209
100
AcDbEntity
  8
DIMENSION
100
AcDbPolyline
 90
        2
 70
     1
 43
12.0
 10
5040.878217750536
 20
2757.714583014599
 42
1.0
 10
5028.878217750534
 20
2757.714583014599
 42
1.0
  0
SOLID
  5
11128
330
209
100
AcDbEntity
  8
MAINMEMBER
100
AcDbTrace
 10
5478.998532886806
 20
2644.64890104249
 30
0.0
 11
5538.998532886805
 21
2584.648901042487
 31
0.0
 12
5418.998532886806
 22
2584.648901042487
 32
0.0
 13
5418.998532886806
 23
2584.648901042487
 33
0.0
  0
LINE
  5
11129
330
209
100
AcDbEntity
  8
DIMENSION
100
AcDbLine
 10
5227.694892928965
 20
2378.624888544278
 30
0.0
 11
5728.362743852442
 21
2378.624888544278
 31
0.0
  0
TEXT
  5
1112A
330
209
100
AcDbEntity
  8
DIMENSION
 62
     4
100
AcDbText
 10
5437.882457248038
 20
2390.724389988843
 30
0.0
 40
54.0
  1
WL
 41
0.8
 72
     1
 11
5481.082457248038
 21
2390.724389988843
 31
0.0
100
AcDbText
  0
LWPOLYLINE
  5
1112B
330
209
100
AcDbEntity
  8
DIMENSION
100
AcDbPolyline
 90
        2
 70
     1
 43
12.0
 10
5233.694892928965
 20
2378.624888544278
 42
1.0
 10
5221.694892928965
 20
2378.624888544278
 42
1.0
  0
LINE
  5
1112C
330
209
100
AcDbEntity
  8
DIMENSION
100
AcDbLine
 10
5227.694892928965
 20
2378.624888544278
 30
0.0
 11
5227.694892928965
 21
2588.624888544281
 31
0.0
  0
LWPOLYLINE
  5
1112D
330
209
100
AcDbEntity
  8
DIMENSION
100
AcDbPolyline
 90
        2
 70
     1
 43
12.0
 10
5734.362743852442
 20
2378.624888544278
 42
1.0
 10
5722.362743852442
 20
2378.624888544278
 42
1.0
  0
LINE
  5
1112E
330
209
100
AcDbEntity
  8
DIMENSION
100
AcDbLine
 10
5728.362743852442
 20
2378.624888544278
 30
0.0
 11
5728.362743852442
 21
2588.624888544281
 31
0.0
  0
LWPOLYLINE
  5
1112F
330
209
100
AcDbEntity
  8
MAINMEMBER
  6
CONTINUOUS
100
AcDbPolyline
 90
        4
 70
     1
 43
0.0
 10
5227.499134324865
 20
2757.562872777413
 10
5730.497931448748
 20
2757.562872777413
 10
5730.497931448748
 20
2727.87465055023
 10
5227.499134324865
 20
2727.87465055023
  0
LWPOLYLINE
  5
11130
330
209
100
AcDbEntity
  8
MAINMEMBER
  6
CONTINUOUS
100
AcDbPolyline
 90
        4
 70
     1
 43
0.0
 10
5302.563861176066
 20
2727.87465055023
 10
5655.433204597546
 20
2727.87465055023
 10
5655.433204597546
 20
2644.64890104249
 10
5302.563861176066
 20
2644.64890104249
  0
TEXT
  5
11133
330
209
100
AcDbEntity
  8
DIMENSION
 62
     4
100
AcDbText
 10
5014.878217750535
 20
3623.382918016013
 30
0.0
 40
54.0
  1
H
 50
90.0
 41
0.8
 72
     1
 11
5014.878217750535
 21
3646.011489444585
 31
0.0
100
AcDbText
  0
LINE
  5
1113C
330
209
100
AcDbEntity
  8
DIMENSION
100
AcDbLine
 10
5234.878217750535
 20
4646.011489444584
 30
0.0
 11
5024.878217750536
 21
4646.011489444584
 31
0.0
  0
LWPOLYLINE
  5
1113D
330
209
100
AcDbEntity
  8
DIMENSION
100
AcDbPolyline
 90
        2
 70
     1
 43
12.0
 10
5040.878217750536
 20
4646.011489444584
 42
1.0
 10
5028.878217750534
 20
4646.011489444584
 42
1.0
  0
LWPOLYLINE
  5
1113E
330
209
100
AcDbEntity
  8
MAINMEMBER
  6
CONTINUOUS
100
AcDbPolyline
 90
        4
 70
     1
 43
0.0
 10
5254.878217750533
 20
4671.907569258694
 10
5703.118848023077
 20
4671.907569258694
 10
5703.118848023077
 20
4646.011489444584
 10
5254.878217750533
 20
4646.011489444584
  0
LWPOLYLINE
  5
1113F
330
209
100
AcDbEntity
  8
MAINMEMBER
100
AcDbPolyline
 90
        4
 70
     1
 43
0.0
 10
5424.378217750533
 20
4811.907569258694
 10
5456.378217750533
 20
4811.907569258694
 10
5456.378217750533
 20
4821.907569258694
 10
5424.378217750533
 20
4821.907569258694
  0
LINE
  5
11140
330
209
100
AcDbEntity
  8
MAINMEMBER
100
AcDbLine
 10
5429.378217750535
 20
4671.907569258694
 30
0.0
 11
5429.378217750535
 21
4811.907569258694
 31
0.0
  0
LINE
  5
11141
330
209
100
AcDbEntity
  8
MAINMEMBER
100
AcDbLine
 10
5451.378217750534
 20
4671.907569258694
 30
0.0
 11
5451.378217750534
 21
4811.907569258694
 31
0.0
  0
LINE
  5
11142
330
209
100
AcDbEntity
  8
MAINMEMBER
100
AcDbLine
 10
5369.378217750536
 20
4671.907569258694
 30
0.0
 11
5369.378217750536
 21
4811.907569258694
 31
0.0
  0
LINE
  5
11143
330
209
100
AcDbEntity
  8
MAINMEMBER
100
AcDbLine
 10
5391.378217750535
 20
4671.907569258694
 30
0.0
 11
5391.378217750535
 21
4811.907569258694
 31
0.0
  0
LINE
  5
11144
330
209
100
AcDbEntity
  8
MAINMEMBER
100
AcDbLine
 10
5309.378217750534
 20
4671.907569258694
 30
0.0
 11
5309.378217750534
 21
4811.907569258694
 31
0.0
  0
LINE
  5
11145
330
209
100
AcDbEntity
  8
MAINMEMBER
100
AcDbLine
 10
5331.378217750533
 20
4671.907569258694
 30
0.0
 11
5331.378217750533
 21
4811.907569258694
 31
0.0
  0
LINE
  5
11146
330
209
100
AcDbEntity
  8
MAINMEMBER
  6
CONTINUOUS
100
AcDbLine
 10
5391.378217750535
 20
4671.907569258694
 30
0.0
 11
5429.378217750535
 21
4671.907569258694
 31
0.0
  0
LWPOLYLINE
  5
11147
330
209
100
AcDbEntity
  8
MAINMEMBER
100
AcDbPolyline
 90
        4
 70
     1
 43
0.0
 10
5364.378217750534
 20
4811.907569258694
 10
5396.378217750534
 20
4811.907569258694
 10
5396.378217750534
 20
4821.907569258694
 10
5364.378217750534
 20
4821.907569258694
  0
LWPOLYLINE
  5
11148
330
209
100
AcDbEntity
  8
MAINMEMBER
100
AcDbPolyline
 90
        4
 70
     1
 43
0.0
 10
5304.378217750535
 20
4811.907569258694
 10
5336.378217750535
 20
4811.907569258694
 10
5336.378217750535
 20
4821.907569258694
 10
5304.378217750535
 20
4821.907569258694
  0
LINE
  5
11149
330
209
100
AcDbEntity
  8
MAINMEMBER
100
AcDbLine
 10
5588.618848023077
 20
4671.907569258694
 30
0.0
 11
5588.618848023077
 21
4811.907569258694
 31
0.0
  0
LINE
  5
1114A
330
209
100
AcDbEntity
  8
MAINMEMBER
100
AcDbLine
 10
5566.618848023078
 20
4671.907569258694
 30
0.0
 11
5566.618848023078
 21
4811.907569258694
 31
0.0
  0
LINE
  5
1114B
330
209
100
AcDbEntity
  8
MAINMEMBER
100
AcDbLine
 10
5528.618848023078
 20
4671.907569258694
 30
0.0
 11
5528.618848023078
 21
4811.907569258694
 31
0.0
  0
LINE
  5
1114C
330
209
100
AcDbEntity
  8
MAINMEMBER
100
AcDbLine
 10
5506.618848023077
 20
4671.907569258694
 30
0.0
 11
5506.618848023077
 21
4811.907569258694
 31
0.0
  0
LINE
  5
1114D
330
209
100
AcDbEntity
  8
MAINMEMBER
100
AcDbLine
 10
5648.618848023078
 20
4671.907569258694
 30
0.0
 11
5648.618848023078
 21
4811.907569258694
 31
0.0
  0
LINE
  5
1114E
330
209
100
AcDbEntity
  8
MAINMEMBER
100
AcDbLine
 10
5626.618848023078
 20
4671.907569258694
 30
0.0
 11
5626.618848023078
 21
4811.907569258694
 31
0.0
  0
LINE
  5
1114F
330
209
100
AcDbEntity
  8
MAINMEMBER
  6
CONTINUOUS
100
AcDbLine
 10
5566.618848023078
 20
4671.907569258694
 30
0.0
 11
5528.618848023078
 21
4671.907569258694
 31
0.0
  0
LWPOLYLINE
  5
11150
330
209
100
AcDbEntity
  8
MAINMEMBER
100
AcDbPolyline
 90
        4
 70
     1
 43
0.0
 10
5593.618848023077
 20
4811.907569258694
 10
5561.618848023077
 20
4811.907569258694
 10
5561.618848023077
 20
4821.907569258694
 10
5593.618848023077
 20
4821.907569258694
  0
LWPOLYLINE
  5
11151
330
209
100
AcDbEntity
  8
MAINMEMBER
100
AcDbPolyline
 90
        4
 70
     1
 43
0.0
 10
5533.618848023078
 20
4811.907569258694
 10
5501.618848023078
 20
4811.907569258694
 10
5501.618848023078
 20
4821.907569258694
 10
5533.618848023078
 20
4821.907569258694
  0
LWPOLYLINE
  5
11152
330
209
100
AcDbEntity
  8
MAINMEMBER
100
AcDbPolyline
 90
        4
 70
     1
 43
0.0
 10
5653.618848023078
 20
4811.907569258694
 10
5621.618848023078
 20
4811.907569258694
 10
5621.618848023078
 20
4821.907569258694
 10
5653.618848023078
 20
4821.907569258694
  0
LINE
  5
11160
330
209
100
AcDbEntity
  8
DIMENSION
100
AcDbLine
 10
5903.118848023077
 20
4646.011489444584
 30
0.0
 11
5903.118848023077
 21
4736.182918444585
 31
0.0
  0
TEXT
  5
11161
330
209
100
AcDbEntity
  8
DIMENSION
 62
     4
100
AcDbText
 10
5885.495543704905
 20
4676.538939621079
 30
0.0
 40
54.0
  1
TU
 50
90.0
 41
0.8
 72
     1
 11
5885.495543704905
 21
4712.538939621079
 31
0.0
100
AcDbText
  0
LWPOLYLINE
  5
11162
330
209
100
AcDbEntity
  8
DIMENSION
100
AcDbPolyline
 90
        2
 70
     1
 43
12.0
 10
5909.118848023077
 20
4671.907569258694
 42
1.0
 10
5897.118848023078
 20
4671.907569258694
 42
1.0
  0
LWPOLYLINE
  5
11163
330
209
100
AcDbEntity
  8
DIMENSION
100
AcDbPolyline
 90
        2
 70
     1
 43
12.0
 10
5909.118848023077
 20
4646.011489444584
 42
1.0
 10
5897.118848023078
 20
4646.011489444584
 42
1.0
  0
LWPOLYLINE
  5
11164
330
209
100
AcDbEntity
  8
DIMENSION
100
AcDbPolyline
 90
        2
 70
     1
 43
12.0
 10
5909.118848023077
 20
4646.011489444584
 42
1.0
 10
5897.118848023078
 20
4646.011489444584
 42
1.0
  0
TEXT
  5
11166
330
209
100
AcDbEntity
  8
DIMENSION
 62
     4
100
AcDbText
 10
5439.896815806786
 20
5059.709164032986
 30
0.0
 40
54.0
  1
WU
 41
0.8
 72
     1
 11
5485.153958663929
 21
5059.709164032986
 31
0.0
100
AcDbText
  0
LINE
  5
11167
330
209
100
AcDbEntity
  8
DIMENSION
100
AcDbLine
 10
5255.161130548171
 20
5047.609662588426
 30
0.0
 11
5702.145969664481
 21
5047.609662588426
 31
0.0
  0
LWPOLYLINE
  5
11168
330
209
100
AcDbEntity
  8
DIMENSION
100
AcDbPolyline
 90
        2
 70
     1
 43
12.0
 10
5261.16113054817
 20
5047.609662588426
 42
1.0
 10
5249.161130548171
 20
5047.609662588426
 42
1.0
  0
LWPOLYLINE
  5
11169
330
209
100
AcDbEntity
  8
DIMENSION
100
AcDbPolyline
 90
        2
 70
     1
 43
12.0
 10
5708.145969664482
 20
5047.609662588426
 42
1.0
 10
5696.145969664481
 20
5047.609662588426
 42
1.0
  0
TEXT
  5
111BD
330
209
100
AcDbEntity
  8
TABLE
 62
     4
100
AcDbText
 10
10332.34980155375
 20
3510.543436354463
 30
0.0
 40
60.0
  1
동바리용고리
 41
0.8
 72
     1
 11
10519.81646822042
 21
3510.543436354463
 31
0.0
100
AcDbText
  0
TEXT
  5
111BF
330
209
100
AcDbEntity
  8
TABLE
 62
     4
100
AcDbText
 10
11090.16217620563
 20
3515.478529408638
 30
0.0
 40
60.0
  1
L*W*2+(L+W*2)*T
 41
0.8
 72
     1
 11
11415.87646191992
 21
3515.478529408638
 31
0.0
100
AcDbText
  0
TEXT
  5
111C1
330
209
100
AcDbEntity
  8
TABLE
 62
     4
100
AcDbText
 10
12108.96535031064
 20
3515.478529408638
 30
0.0
 40
60.0
  1
L*W*2+(L+W*2)*T
 41
0.8
 72
     1
 11
12434.67963602493
 21
3515.478529408638
 31
0.0
100
AcDbText
  0
LINE
  5
111C3
330
209
100
AcDbEntity
  8
MAINMEMBER
  6
CONTINUOUS
100
AcDbLine
 10
5254.878217750533
 20
4612.688883777507
 30
0.0
 11
5254.878217750533
 21
2790.885478444492
 31
0.0
  0
LINE
  5
111C4
330
209
100
AcDbEntity
  8
MAINMEMBER
  6
CONTINUOUS
100
AcDbLine
 10
5703.118848023077
 20
4612.688883777507
 30
0.0
 11
5703.118848023077
 21
2790.885478444492
 31
0.0
  0
LINE
  5
111C5
330
209
100
AcDbEntity
  8
MAINMEMBER
  6
CONTINUOUS
100
AcDbLine
 10
5254.878217750533
 20
4612.688883777507
 30
0.0
 11
5288.385231813943
 21
4646.011489444584
 31
0.0
  0
LINE
  5
111C6
330
209
100
AcDbEntity
  8
MAINMEMBER
  6
CONTINUOUS
100
AcDbLine
 10
5703.118848023077
 20
4612.688883777506
 30
0.0
 11
5669.611833959669
 21
4646.011489444584
 31
0.0
  0
LINE
  5
111C7
330
209
100
AcDbEntity
  8
MAINMEMBER
  6
CONTINUOUS
100
AcDbLine
 10
5703.118848023077
 20
2790.885478444492
 30
0.0
 11
5669.611833959669
 21
2757.562872777413
 31
0.0
  0
LINE
  5
111C8
330
209
100
AcDbEntity
  8
MAINMEMBER
  6
CONTINUOUS
100
AcDbLine
 10
5254.878217750533
 20
2790.885478444491
 30
0.0
 11
5288.385231813943
 21
2757.562872777413
 31
0.0
  0
ARC
  5
111CA
330
209
100
AcDbEntity
  8
MAINMEMBER
  6
CONTINUOUS
100
AcDbCircle
 10
5460.64090956355
 20
2757.562872777413
 30
0.0
 40
23.24046090504447
100
AcDbArc
 50
90.0
 51
180.0
  0
ARC
  5
111CB
330
209
100
AcDbEntity
  8
MAINMEMBER
  6
CONTINUOUS
100
AcDbCircle
 10
5497.356156210062
 20
2757.562872777413
 30
0.0
 40
23.24046090504447
100
AcDbArc
 50
0.000000000000007
 51
90.0
  0
ARC
  5
111CC
330
209
100
AcDbEntity
  8
MAINMEMBER
  6
CONTINUOUS
100
AcDbCircle
 10
5460.64090956355
 20
4646.011489444584
 30
0.0
 40
23.24046090504447
100
AcDbArc
 50
180.0
 51
270.0
  0
ARC
  5
111CD
330
209
100
AcDbEntity
  8
MAINMEMBER
  6
CONTINUOUS
100
AcDbCircle
 10
5497.356156210062
 20
4646.011489444584
 30
0.0
 40
23.24046090504447
100
AcDbArc
 50
270.0
 51
0.0
  0
TEXT
  5
111CE
330
209
100
AcDbEntity
  8
DIMENSION
 62
     4
100
AcDbText
 10
5322.41845968581
 20
3713.886682555563
 30
0.0
 40
54.0
  1
WV
 41
0.8
 72
     1
 11
5366.647031114382
 21
3713.886682555563
 31
0.0
100
AcDbText
  0
LINE
  5
111CF
330
209
100
AcDbEntity
  8
DIMENSION
100
AcDbLine
 10
5260.878217750533
 20
3701.787181110999
 30
0.0
 11
5460.64090956355
 21
3701.787181110999
 31
0.0
  0
LWPOLYLINE
  5
111D0
330
209
100
AcDbEntity
  8
DIMENSION
100
AcDbPolyline
 90
        2
 70
     1
 43
12.0
 10
5266.878217750535
 20
3701.787181110999
 42
1.0
 10
5254.878217750533
 20
3701.787181110999
 42
1.0
  0
LWPOLYLINE
  5
111D1
330
209
100
AcDbEntity
  8
DIMENSION
100
AcDbPolyline
 90
        2
 70
     1
 43
12.0
 10
5466.64090956355
 20
3701.787181110999
 42
1.0
 10
5454.640909563551
 20
3701.787181110999
 42
1.0
  0
LWPOLYLINE
  5
111D3
330
209
100
AcDbEntity
  8
DIMENSION
100
AcDbPolyline
 90
        2
 70
     1
 43
12.0
 10
5491.356156210063
 20
3701.787181110999
 42
-1.0
 10
5503.356156210062
 20
3701.787181110999
 42
-1.0
  0
LINE
  5
111D4
330
209
100
AcDbEntity
  8
DIMENSION
100
AcDbLine
 10
5697.118848023078
 20
3701.787181110999
 30
0.0
 11
5497.356156210062
 21
3701.787181110999
 31
0.0
  0
LWPOLYLINE
  5
111D5
330
209
100
AcDbEntity
  8
DIMENSION
100
AcDbPolyline
 90
        2
 70
     1
 43
12.0
 10
5691.118848023077
 20
3701.787181110999
 42
-1.0
 10
5703.118848023077
 20
3701.787181110999
 42
-1.0
  0
TEXT
  5
111D6
330
209
100
AcDbEntity
  8
DIMENSION
 62
     4
100
AcDbText
 10
5555.35003465923
 20
3713.886682555563
 30
0.0
 40
54.0
  1
WV
 41
0.8
 72
     1
 11
5599.578606087802
 21
3713.886682555563
 31
0.0
100
AcDbText
  0
TEXT
  5
112D3
330
209
100
AcDbEntity
  8
DIMENSION
 62
     4
100
AcDbText
 10
6362.018706023826
 20
9199.046413329552
 30
0.0
 40
54.0
  1
T
 41
0.8
 72
     1
 11
6378.475848880968
 21
9199.046413329552
 31
0.0
100
AcDbText
  0
LINE
  5
112D4
330
209
100
AcDbEntity
  8
DIMENSION
100
AcDbLine
 10
6408.730033379214
 20
9186.946911884986
 30
0.0
 11
6294.094327516086
 21
9186.946911884986
 31
0.0
  0
LWPOLYLINE
  5
112D5
330
209
100
AcDbEntity
  8
DIMENSION
100
AcDbPolyline
 90
        2
 70
     1
 43
12.0
 10
6324.8095741626
 20
9186.946911884986
 42
-1.0
 10
6336.809574162598
 20
9186.946911884986
 42
-1.0
  0
LWPOLYLINE
  5
112D6
330
209
100
AcDbEntity
  8
DIMENSION
100
AcDbPolyline
 90
        2
 70
     1
 43
12.0
 10
6288.094327516088
 20
9186.946911884986
 42
-1.0
 10
6300.094327516086
 20
9186.946911884986
 42
-1.0
  0
TEXT
  5
11302
330
209
100
AcDbEntity
  8
TABLE
 62
     4
100
AcDbText
 10
15687.7106055073
 20
8224.815222084609
 30
0.0
 40
40.0
  1
2
 41
0.8
 72
     1
 11
15702.9487007454
 21
8224.815222084609
 31
0.0
100
AcDbText
  0
TEXT
  5
11303
330
209
100
AcDbEntity
  8
TABLE
 62
     4
100
AcDbText
 10
12088.30612496381
 20
8970.0
 30
0.0
 40
60.0
  1
(WL*2-T+TL*2)*LA
 41
0.8
 72
     1
 11
12426.59183924953
 21
8970.0
 31
0.0
100
AcDbText
  0
TEXT
  5
11304
330
209
100
AcDbEntity
  8
TABLE
 62
     4
100
AcDbText
 10
11241.33860644604
 20
9170.0
 30
0.0
 40
60.0
  1
(WU-T)*LA
 41
0.8
 72
     1
 11
11435.62432073176
 21
9170.0
 31
0.0
100
AcDbText
  0
TEXT
  5
11305
330
209
100
AcDbEntity
  8
TABLE
 62
     4
100
AcDbText
 10
12232.30612496381
 20
9170.0
 30
0.0
 40
60.0
  1
(WU-T)*LA
 41
0.8
 72
     1
 11
12426.59183924953
 21
9170.0
 31
0.0
100
AcDbText
  0
TEXT
  5
11306
330
209
100
AcDbEntity
  8
TABLE
 62
     4
100
AcDbText
 10
11097.33860644604
 20
8970.0
 30
0.0
 40
60.0
  1
(WL*2-T+TL*2)*LA
 41
0.8
 72
     1
 11
11435.62432073176
 21
8970.0
 31
0.0
100
AcDbText
  0
TEXT
  5
11307
330
209
100
AcDbEntity
  8
TABLE
 62
     4
100
AcDbText
 10
11309.91003501747
 20
8770.0
 30
0.0
 40
60.0
  1
LA*H*2
 41
0.8
 72
     1
 11
11435.62432073176
 21
8770.0
 31
0.0
100
AcDbText
  0
TEXT
  5
11308
330
209
100
AcDbEntity
  8
TABLE
 62
     4
100
AcDbText
 10
12300.87755353524
 20
8770.0
 30
0.0
 40
60.0
  1
LA*H*2
 41
0.8
 72
     1
 11
12426.59183924953
 21
8770.0
 31
0.0
100
AcDbText
  0
TEXT
  5
11309
330
209
100
AcDbEntity
  8
TABLE
 62
     4
100
AcDbText
 10
11154.4814635889
 20
8570.0
 30
0.0
 40
60.0
  1
WH*LA*2+LA*TH
 41
0.8
 72
     1
 11
11435.62432073176
 21
8570.0
 31
0.0
100
AcDbText
  0
TEXT
  5
1130A
330
209
100
AcDbEntity
  8
TABLE
 62
     4
100
AcDbText
 10
11099.78523975702
 20
7964.809561490298
 30
0.0
 40
60.0
  1
W*L*2+(W+L)*T*2
 41
0.8
 72
     1
 11
11420.92809689988
 21
7964.809561490298
 31
0.0
100
AcDbText
  0
TEXT
  5
1130B
330
209
100
AcDbEntity
  8
TABLE
 62
     4
100
AcDbText
 10
12090.75275827476
 20
7964.809561490298
 30
0.0
 40
60.0
  1
W*L*2+(W+L)*T*2
 41
0.8
 72
     1
 11
12411.89561541762
 21
7964.809561490298
 31
0.0
100
AcDbText
  0
LINE
  5
1130C
330
209
100
AcDbEntity
  8
TABLE
100
AcDbLine
 10
12928.25510222677
 20
9600.0
 30
0.0
 11
12928.25510222677
 21
7900.0
 31
0.0
  0
LINE
  5
1130D
330
209
100
AcDbEntity
  8
TABLE
100
AcDbLine
 10
13932.47441922998
 20
9600.0
 30
0.0
 11
13932.47441922998
 21
7900.0
 31
0.0
  0
LINE
  5
1130E
330
209
100
AcDbEntity
  8
TABLE
100
AcDbLine
 10
14936.69373623318
 20
9600.0
 30
0.0
 11
14936.69373623318
 21
7900.0
 31
0.0
  0
LWPOLYLINE
  5
11310
330
209
100
AcDbEntity
  8
TABLEOUTLINE
100
AcDbPolyline
 90
        4
 70
     1
 43
0.0
 10
10119.81646822042
 20
4340.543436354463
 10
15940.91305323637
 20
4340.543436354463
 10
15940.91305323637
 20
3440.543436354463
 10
10119.81646822042
 20
3440.543436354463
  0
LINE
  5
11311
330
209
100
AcDbEntity
  8
TABLE
100
AcDbLine
 10
10119.81646822042
 20
4040.543436354463
 30
0.0
 11
15940.91305323637
 21
4040.543436354463
 31
0.0
  0
LINE
  5
11312
330
209
100
AcDbEntity
  8
TABLE
100
AcDbLine
 10
10119.81646822042
 20
3840.543436354463
 30
0.0
 11
15940.91305323637
 21
3840.543436354463
 31
0.0
  0
LINE
  5
11313
330
209
100
AcDbEntity
  8
TABLE
100
AcDbLine
 10
10119.81646822042
 20
3640.543436354462
 30
0.0
 11
15940.91305323637
 21
3640.543436354462
 31
0.0
  0
TEXT
  5
11319
330
209
100
AcDbEntity
  8
TABLE
 62
     4
100
AcDbText
 10
12192.31652643111
 20
4212.296863069923
 30
0.0
 40
60.0
  1
2) 외부도장
 41
0.8
 72
     1
 11
12383.6689073835
 21
4212.296863069923
 31
0.0
100
AcDbText
  0
TEXT
  5
1131E
330
209
100
AcDbEntity
  8
TABLE
 62
     4
100
AcDbText
 10
11173.92043648478
 20
4212.296863069923
 30
0.0
 40
60.0
  1
1) 외부 도장
 41
0.8
 72
     1
 11
11392.70138886574
 21
4212.296863069923
 31
0.0
100
AcDbText
  0
TEXT
  5
1131F
330
209
100
AcDbEntity
  8
TABLE
 62
     4
100
AcDbText
 10
11045.91003501747
 20
3710.543436354463
 30
0.0
 40
60.0
  1
(WV-HV-H2*H2/2)*2
 41
0.8
 72
     1
 11
11435.62432073176
 21
3710.543436354463
 31
0.0
100
AcDbText
  0
LINE
  5
11323
330
209
100
AcDbEntity
  8
TABLE
100
AcDbLine
 10
10919.81646822042
 20
4340.543436354463
 30
0.0
 11
10919.81646822042
 21
3440.543436354463
 31
0.0
  0
TEXT
  5
1132B
330
209
100
AcDbEntity
  8
TABLE
 62
     4
100
AcDbText
 10
10461.41646822042
 20
4160.543436354463
 30
0.0
 40
60.0
  1
구분
 41
0.8
 72
     1
 11
10519.81646822042
 21
4160.543436354463
 31
0.0
100
AcDbText
  0
LINE
  5
1132C
330
209
100
AcDbEntity
  8
TABLE
100
AcDbLine
 10
11924.03578522361
 20
4340.543436354463
 30
0.0
 11
11924.03578522361
 21
3440.543436354463
 31
0.0
  0
TEXT
  5
1132D
330
209
100
AcDbEntity
  8
TABLE
 62
     4
100
AcDbText
 10
11169.33860644604
 20
3910.543436354463
 30
0.0
 40
60.0
  1
WV*HV*2+H*TV
 41
0.8
 72
     1
 11
11435.62432073176
 21
3910.543436354463
 31
0.0
100
AcDbText
  0
TEXT
  5
1132F
330
209
100
AcDbEntity
  8
TABLE
 62
     4
100
AcDbText
 10
11175.10138886574
 20
4102.41331457142
 30
0.0
 40
60.0
  1
  (공 장)
 41
0.8
 72
     1
 11
11392.70138886574
 21
4102.41331457142
 31
0.0
100
AcDbText
  0
TEXT
  5
11331
330
209
100
AcDbEntity
  8
TABLE
 62
     4
100
AcDbText
 10
12166.0689073835
 20
4102.41331457142
 30
0.0
 40
60.0
  1
  (현 장)
 41
0.8
 72
     1
 11
12383.6689073835
 21
4102.41331457142
 31
0.0
100
AcDbText
  0
LINE
  5
11332
330
209
100
AcDbEntity
  8
TABLE
100
AcDbLine
 10
12928.25510222677
 20
4340.543436354463
 30
0.0
 11
12928.25510222677
 21
3440.543436354463
 31
0.0
  0
TEXT
  5
11333
330
209
100
AcDbEntity
  8
TABLE
 62
     4
100
AcDbText
 10
13189.2983219721
 20
4212.296863069923
 30
0.0
 40
60.0
  1
3) 연결판 도장
 41
0.8
 72
     1
 11
13437.45070292448
 21
4212.296863069923
 31
0.0
100
AcDbText
  0
TEXT
  5
11334
330
209
100
AcDbEntity
  8
TABLE
 62
     4
100
AcDbText
 10
13267.85070292447
 20
4102.41331457142
 30
0.0
 40
60.0
  1
 (공 장)
 41
0.8
 72
     1
 11
13437.45070292448
 21
4102.41331457142
 31
0.0
100
AcDbText
  0
LINE
  5
11335
330
209
100
AcDbEntity
  8
TABLE
100
AcDbLine
 10
14936.69373623318
 20
4340.543436354463
 30
0.0
 11
14936.69373623318
 21
3440.543436354463
 31
0.0
  0
LINE
  5
11336
330
209
100
AcDbEntity
  8
TABLE
100
AcDbLine
 10
13932.47441922998
 20
4340.543436354463
 30
0.0
 11
13932.47441922998
 21
3440.543436354463
 31
0.0
  0
TEXT
  5
11337
330
209
100
AcDbEntity
  8
TABLE
 62
     4
100
AcDbText
 10
14065.27868929705
 20
4102.41331457142
 30
0.0
 40
60.0
  1
  연결도장(현장)
 41
0.8
 72
     1
 11
14387.65529222169
 21
4102.41331457142
 31
0.0
100
AcDbText
  0
TEXT
  5
11338
330
209
100
AcDbEntity
  8
TABLE
 62
     4
100
AcDbText
 10
14143.12073337828
 20
4212.296863069923
 30
0.0
 40
60.0
  1
4) 외부볼트및
 41
0.8
 72
     1
 11
14364.07311433067
 21
4212.296863069923
 31
0.0
100
AcDbText
  0
TEXT
  5
1133A
330
209
100
AcDbEntity
  8
TABLE
 62
     4
100
AcDbText
 10
15204.52821493404
 20
3910.543436354463
 30
0.0
 40
60.0
  1
(WU+TU*2)*LA
 41
0.8
 72
     1
 11
15465.09964350547
 21
3910.543436354463
 31
0.0
100
AcDbText
  0
TEXT
  5
1133B
330
209
100
AcDbEntity
  8
TABLE
 62
     4
100
AcDbText
 10
15226.44482601438
 20
4212.296863069923
 30
0.0
 40
60.0
  1
5) 외부포장면
 41
0.8
 72
     1
 11
15447.9305403001
 21
4212.296863069923
 31
0.0
100
AcDbText
  0
TEXT
  5
1133C
330
209
100
AcDbEntity
  8
TABLE
 62
     4
100
AcDbText
 10
15193.30196887152
 20
4102.41331457142
 30
0.0
 40
60.0
  1
  도장(공장)
 41
0.8
 72
     1
 11
15447.9305403001
 21
4102.41331457142
 31
0.0
100
AcDbText
  0
TEXT
  5
1133D
330
209
100
AcDbEntity
  8
TABLE
 62
     4
100
AcDbText
 10
12173.55792344923
 20
3910.543436354463
 30
0.0
 40
60.0
  1
WV*HV*2+H*TV
 41
0.8
 72
     1
 11
12439.84363773495
 21
3910.543436354463
 31
0.0
100
AcDbText
  0
TEXT
  5
1133E
330
209
100
AcDbEntity
  8
TABLE
 62
     4
100
AcDbText
 10
12050.12935202066
 20
3710.543436354463
 30
0.0
 40
60.0
  1
(WV-HV-H2*H2/2)*2
 41
0.8
 72
     1
 11
12439.84363773495
 21
3710.543436354463
 31
0.0
100
AcDbText
  0
LINE
  5
11387
330
209
100
AcDbEntity
  8
DIMENSION
100
AcDbLine
 10
7776.846120654792
 20
2940.085103685372
 30
0.0
 11
7986.846120654793
 21
2940.085103685372
 31
0.0
  0
LINE
  5
11388
330
209
100
AcDbEntity
  8
DIMENSION
100
AcDbLine
 10
7776.846120654792
 20
2757.562872777413
 30
0.0
 11
7986.846120654793
 21
2757.562872777413
 31
0.0
  0
LINE
  5
11389
330
209
100
AcDbEntity
  8
MAINMEMBER
  6
CONTINUOUS
100
AcDbLine
 10
7749.467037229123
 20
4612.688883777507
 30
0.0
 11
7749.467037229123
 21
2940.085103685372
 31
0.0
  0
LINE
  5
1138A
330
209
100
AcDbEntity
  8
MAINMEMBER
  6
CONTINUOUS
100
AcDbLine
 10
7301.226406956577
 20
4612.688883777507
 30
0.0
 11
7301.226406956577
 21
2940.085103685374
 31
0.0
  0
LWPOLYLINE
  5
1138B
330
209
100
AcDbEntity
  8
MAINMEMBER
  6
CONTINUOUS
100
AcDbPolyline
 90
        4
 70
     1
 43
0.0
 10
7506.989098769594
 20
4646.011489444584
 10
7543.704345416107
 20
4646.011489444584
 10
7543.704345416107
 20
2757.562872777413
 10
7506.989098769594
 20
2757.562872777413
  0
LINE
  5
1138C
330
209
100
AcDbEntity
  8
DIMENSION
100
AcDbLine
 10
7081.226406956578
 20
2757.714583014601
 30
0.0
 11
7081.226406956578
 21
4646.011489444584
 31
0.0
  0
LINE
  5
1138D
330
209
100
AcDbEntity
  8
DIMENSION
100
AcDbLine
 10
7281.22640695658
 20
2757.714583014599
 30
0.0
 11
7071.22640695658
 21
2757.714583014599
 31
0.0
  0
LWPOLYLINE
  5
1138E
330
209
100
AcDbEntity
  8
DIMENSION
100
AcDbPolyline
 90
        2
 70
     1
 43
12.0
 10
7087.22640695658
 20
2757.714583014599
 42
1.0
 10
7075.226406956578
 20
2757.714583014599
 42
1.0
  0
LWPOLYLINE
  5
1138F
330
209
100
AcDbEntity
  8
MAINMEMBER
  6
CONTINUOUS
100
AcDbPolyline
 90
        4
 70
     1
 43
0.0
 10
7348.912050382111
 20
2727.87465055023
 10
7701.781393803591
 20
2727.87465055023
 10
7701.781393803591
 20
2644.64890104249
 10
7348.912050382111
 20
2644.64890104249
  0
TEXT
  5
11390
330
209
100
AcDbEntity
  8
DIMENSION
 62
     4
100
AcDbText
 10
7484.230646454083
 20
2390.724389988843
 30
0.0
 40
54.0
  1
WL
 41
0.8
 72
     1
 11
7527.430646454082
 21
2390.724389988843
 31
0.0
100
AcDbText
  0
LINE
  5
11391
330
209
100
AcDbEntity
  8
DIMENSION
100
AcDbLine
 10
7274.043082135008
 20
2378.624888544278
 30
0.0
 11
7774.710933058486
 21
2378.624888544278
 31
0.0
  0
SOLID
  5
11392
330
209
100
AcDbEntity
  8
MAINMEMBER
100
AcDbTrace
 10
7525.346722092852
 20
2644.64890104249
 30
0.0
 11
7585.346722092849
 21
2584.648901042487
 31
0.0
 12
7465.34672209285
 22
2584.648901042487
 32
0.0
 13
7465.34672209285
 23
2584.648901042487
 33
0.0
  0
LINE
  5
11393
330
209
100
AcDbEntity
  8
DIMENSION
100
AcDbLine
 10
7274.043082135008
 20
2378.624888544278
 30
0.0
 11
7274.043082135008
 21
2588.624888544281
 31
0.0
  0
LWPOLYLINE
  5
11394
330
209
100
AcDbEntity
  8
DIMENSION
100
AcDbPolyline
 90
        2
 70
     1
 43
12.0
 10
7280.043082135009
 20
2378.624888544278
 42
1.0
 10
7268.04308213501
 20
2378.624888544278
 42
1.0
  0
LINE
  5
11395
330
209
100
AcDbEntity
  8
DIMENSION
100
AcDbLine
 10
7774.710933058486
 20
2378.624888544278
 30
0.0
 11
7774.710933058486
 21
2588.624888544281
 31
0.0
  0
LWPOLYLINE
  5
11396
330
209
100
AcDbEntity
  8
DIMENSION
100
AcDbPolyline
 90
        2
 70
     1
 43
12.0
 10
7780.710933058486
 20
2378.624888544278
 42
1.0
 10
7768.710933058486
 20
2378.624888544278
 42
1.0
  0
LWPOLYLINE
  5
11398
330
209
100
AcDbEntity
  8
MAINMEMBER
  6
CONTINUOUS
100
AcDbPolyline
 90
        4
 70
     1
 43
0.0
 10
7273.84732353091
 20
2757.562872777413
 10
7776.846120654792
 20
2757.562872777413
 10
7776.846120654792
 20
2727.87465055023
 10
7273.84732353091
 20
2727.87465055023
  0
TEXT
  5
1139C
330
209
100
AcDbEntity
  8
DIMENSION
 62
     4
100
AcDbText
 10
7061.226406956579
 20
3623.382918016013
 30
0.0
 40
54.0
  1
H
 50
90.0
 41
0.8
 72
     1
 11
7061.226406956579
 21
3646.011489444585
 31
0.0
100
AcDbText
  0
LWPOLYLINE
  5
1139D
330
209
100
AcDbEntity
  8
DIMENSION
100
AcDbPolyline
 90
        2
 70
     1
 43
12.0
 10
7512.989098769593
 20
3701.787181110999
 42
1.0
 10
7500.989098769593
 20
3701.787181110999
 42
1.0
  0
LINE
  5
1139E
330
209
100
AcDbEntity
  8
DIMENSION
100
AcDbLine
 10
7307.226406956577
 20
3701.787181110999
 30
0.0
 11
7506.989098769594
 21
3701.787181110999
 31
0.0
  0
LWPOLYLINE
  5
1139F
330
209
100
AcDbEntity
  8
DIMENSION
100
AcDbPolyline
 90
        2
 70
     1
 43
12.0
 10
7313.22640695658
 20
3701.787181110999
 42
1.0
 10
7301.226406956577
 20
3701.787181110999
 42
1.0
  0
TEXT
  5
113A0
330
209
100
AcDbEntity
  8
DIMENSION
 62
     4
100
AcDbText
 10
7368.766648891856
 20
3713.886682555563
 30
0.0
 40
54.0
  1
WV
 41
0.8
 72
     1
 11
7412.995220320429
 21
3713.886682555563
 31
0.0
100
AcDbText
  0
TEXT
  5
113A1
330
209
100
AcDbEntity
  8
DIMENSION
 62
     4
100
AcDbText
 10
7601.698223865274
 20
3713.886682555563
 30
0.0
 40
54.0
  1
WV
 41
0.8
 72
     1
 11
7645.926795293846
 21
3713.886682555563
 31
0.0
100
AcDbText
  0
LINE
  5
113A2
330
209
100
AcDbEntity
  8
DIMENSION
100
AcDbLine
 10
7743.467037229122
 20
3701.787181110999
 30
0.0
 11
7543.704345416107
 21
3701.787181110999
 31
0.0
  0
LWPOLYLINE
  5
113A3
330
209
100
AcDbEntity
  8
DIMENSION
100
AcDbPolyline
 90
        2
 70
     1
 43
12.0
 10
7537.704345416108
 20
3701.787181110999
 42
-1.0
 10
7549.704345416107
 20
3701.787181110999
 42
-1.0
  0
LWPOLYLINE
  5
113A4
330
209
100
AcDbEntity
  8
DIMENSION
100
AcDbPolyline
 90
        2
 70
     1
 43
12.0
 10
7737.467037229122
 20
3701.787181110999
 42
-1.0
 10
7749.467037229123
 20
3701.787181110999
 42
-1.0
  0
LINE
  5
113A5
330
209
100
AcDbEntity
  8
DIMENSION
100
AcDbLine
 10
7301.509319754217
 20
4847.609662588424
 30
0.0
 11
7301.509319754217
 21
5057.609662588426
 31
0.0
  0
LINE
  5
113A6
330
209
100
AcDbEntity
  8
DIMENSION
100
AcDbLine
 10
7748.494158870527
 20
4847.609662588424
 30
0.0
 11
7748.494158870527
 21
5057.609662588426
 31
0.0
  0
LINE
  5
113A7
330
209
100
AcDbEntity
  8
DIMENSION
100
AcDbLine
 10
7281.22640695658
 20
4646.011489444584
 30
0.0
 11
7071.22640695658
 21
4646.011489444584
 31
0.0
  0
LWPOLYLINE
  5
113A8
330
209
100
AcDbEntity
  8
DIMENSION
100
AcDbPolyline
 90
        2
 70
     1
 43
12.0
 10
7087.22640695658
 20
4646.011489444584
 42
1.0
 10
7075.226406956578
 20
4646.011489444584
 42
1.0
  0
ARC
  5
113A9
330
209
100
AcDbEntity
  8
MAINMEMBER
  6
CONTINUOUS
100
AcDbCircle
 10
7506.989098769594
 20
4646.011489444584
 30
0.0
 40
23.24046090504447
100
AcDbArc
 50
180.0
 51
270.0
  0
LWPOLYLINE
  5
113AA
330
209
100
AcDbEntity
  8
MAINMEMBER
100
AcDbPolyline
 90
        4
 70
     1
 43
0.0
 10
7470.726406956576
 20
4811.907569258694
 10
7502.726406956577
 20
4811.907569258694
 10
7502.726406956577
 20
4821.907569258694
 10
7470.726406956576
 20
4821.907569258694
  0
LWPOLYLINE
  5
113AB
330
209
100
AcDbEntity
  8
MAINMEMBER
  6
CONTINUOUS
100
AcDbPolyline
 90
        4
 70
     1
 43
0.0
 10
7301.226406956577
 20
4671.907569258694
 10
7749.467037229123
 20
4671.907569258694
 10
7749.467037229123
 20
4646.011489444584
 10
7301.226406956577
 20
4646.011489444584
  0
LINE
  5
113AC
330
209
100
AcDbEntity
  8
MAINMEMBER
100
AcDbLine
 10
7377.726406956577
 20
4671.907569258694
 30
0.0
 11
7377.726406956577
 21
4811.907569258694
 31
0.0
  0
LINE
  5
113AD
330
209
100
AcDbEntity
  8
MAINMEMBER
100
AcDbLine
 10
7355.726406956581
 20
4671.907569258694
 30
0.0
 11
7355.726406956581
 21
4811.907569258694
 31
0.0
  0
LINE
  5
113AE
330
209
100
AcDbEntity
  8
MAINMEMBER
100
AcDbLine
 10
7437.72640695658
 20
4671.907569258694
 30
0.0
 11
7437.72640695658
 21
4811.907569258694
 31
0.0
  0
LINE
  5
113AF
330
209
100
AcDbEntity
  8
MAINMEMBER
100
AcDbLine
 10
7415.726406956579
 20
4671.907569258694
 30
0.0
 11
7415.726406956579
 21
4811.907569258694
 31
0.0
  0
LINE
  5
113B0
330
209
100
AcDbEntity
  8
MAINMEMBER
100
AcDbLine
 10
7497.726406956577
 20
4671.907569258694
 30
0.0
 11
7497.726406956577
 21
4811.907569258694
 31
0.0
  0
LINE
  5
113B1
330
209
100
AcDbEntity
  8
MAINMEMBER
100
AcDbLine
 10
7475.726406956581
 20
4671.907569258694
 30
0.0
 11
7475.726406956581
 21
4811.907569258694
 31
0.0
  0
LINE
  5
113B2
330
209
100
AcDbEntity
  8
MAINMEMBER
  6
CONTINUOUS
100
AcDbLine
 10
7301.226406956577
 20
4612.688883777507
 30
0.0
 11
7334.733421019987
 21
4646.011489444584
 31
0.0
  0
LINE
  5
113B3
330
209
100
AcDbEntity
  8
MAINMEMBER
  6
CONTINUOUS
100
AcDbLine
 10
7437.72640695658
 20
4671.907569258694
 30
0.0
 11
7475.726406956581
 21
4671.907569258694
 31
0.0
  0
LWPOLYLINE
  5
113B4
330
209
100
AcDbEntity
  8
MAINMEMBER
100
AcDbPolyline
 90
        4
 70
     1
 43
0.0
 10
7350.726406956581
 20
4811.907569258694
 10
7382.72640695658
 20
4811.907569258694
 10
7382.72640695658
 20
4821.907569258694
 10
7350.726406956581
 20
4821.907569258694
  0
LWPOLYLINE
  5
113B5
330
209
100
AcDbEntity
  8
MAINMEMBER
100
AcDbPolyline
 90
        4
 70
     1
 43
0.0
 10
7410.72640695658
 20
4811.907569258694
 10
7442.726406956578
 20
4811.907569258694
 10
7442.726406956578
 20
4821.907569258694
 10
7410.72640695658
 20
4821.907569258694
  0
LINE
  5
113B6
330
209
100
AcDbEntity
  8
MAINMEMBER
100
AcDbLine
 10
7672.967037229122
 20
4671.907569258694
 30
0.0
 11
7672.967037229122
 21
4811.907569258694
 31
0.0
  0
LINE
  5
113B7
330
209
100
AcDbEntity
  8
MAINMEMBER
100
AcDbLine
 10
7694.967037229123
 20
4671.907569258694
 30
0.0
 11
7694.967037229123
 21
4811.907569258694
 31
0.0
  0
LINE
  5
113B8
330
209
100
AcDbEntity
  8
MAINMEMBER
100
AcDbLine
 10
7552.967037229122
 20
4671.907569258694
 30
0.0
 11
7552.967037229122
 21
4811.907569258694
 31
0.0
  0
LINE
  5
113B9
330
209
100
AcDbEntity
  8
MAINMEMBER
100
AcDbLine
 10
7574.967037229122
 20
4671.907569258694
 30
0.0
 11
7574.967037229122
 21
4811.907569258694
 31
0.0
  0
LINE
  5
113BA
330
209
100
AcDbEntity
  8
MAINMEMBER
100
AcDbLine
 10
7612.967037229122
 20
4671.907569258694
 30
0.0
 11
7612.967037229122
 21
4811.907569258694
 31
0.0
  0
LINE
  5
113BB
330
209
100
AcDbEntity
  8
MAINMEMBER
100
AcDbLine
 10
7634.967037229124
 20
4671.907569258694
 30
0.0
 11
7634.967037229124
 21
4811.907569258694
 31
0.0
  0
ARC
  5
113BC
330
209
100
AcDbEntity
  8
MAINMEMBER
  6
CONTINUOUS
100
AcDbCircle
 10
7543.704345416107
 20
4646.011489444584
 30
0.0
 40
23.24046090504447
100
AcDbArc
 50
270.0
 51
0.0
  0
LINE
  5
113BD
330
209
100
AcDbEntity
  8
MAINMEMBER
  6
CONTINUOUS
100
AcDbLine
 10
7612.967037229122
 20
4671.907569258694
 30
0.0
 11
7574.967037229122
 21
4671.907569258694
 31
0.0
  0
LINE
  5
113BE
330
209
100
AcDbEntity
  8
MAINMEMBER
  6
CONTINUOUS
100
AcDbLine
 10
7749.467037229123
 20
4612.688883777506
 30
0.0
 11
7715.960023165713
 21
4646.011489444584
 31
0.0
  0
LWPOLYLINE
  5
113BF
330
209
100
AcDbEntity
  8
MAINMEMBER
100
AcDbPolyline
 90
        4
 70
     1
 43
0.0
 10
7579.967037229121
 20
4811.907569258694
 10
7547.967037229122
 20
4811.907569258694
 10
7547.967037229122
 20
4821.907569258694
 10
7579.967037229121
 20
4821.907569258694
  0
LWPOLYLINE
  5
113C0
330
209
100
AcDbEntity
  8
MAINMEMBER
100
AcDbPolyline
 90
        4
 70
     1
 43
0.0
 10
7639.967037229124
 20
4811.907569258694
 10
7607.967037229122
 20
4811.907569258694
 10
7607.967037229122
 20
4821.907569258694
 10
7639.967037229124
 20
4821.907569258694
  0
LWPOLYLINE
  5
113C1
330
209
100
AcDbEntity
  8
MAINMEMBER
100
AcDbPolyline
 90
        4
 70
     1
 43
0.0
 10
7699.967037229122
 20
4811.907569258694
 10
7667.967037229122
 20
4811.907569258694
 10
7667.967037229122
 20
4821.907569258694
 10
7699.967037229122
 20
4821.907569258694
  0
TEXT
  5
113C2
330
209
100
AcDbEntity
  8
MIDDLETITLE
 62
     6
100
AcDbText
 10
7313.177528444001
 20
5396.365637130156
 30
0.0
 40
100.0
  1
정 면 도
 41
0.8
 72
     1
 11
7548.733083999557
 21
5396.365637130156
 31
0.0
100
AcDbText
  0
LINE
  5
113C3
330
209
100
AcDbEntity
  8
DIMENSION
100
AcDbLine
 10
7301.509319754217
 20
5047.609662588426
 30
0.0
 11
7748.494158870527
 21
5047.609662588426
 31
0.0
  0
TEXT
  5
113C4
330
209
100
AcDbEntity
  8
DIMENSION
 62
     4
100
AcDbText
 10
7486.24500501283
 20
5059.709164032986
 30
0.0
 40
54.0
  1
WU
 41
0.8
 72
     1
 11
7531.502147869973
 21
5059.709164032986
 31
0.0
100
AcDbText
  0
LWPOLYLINE
  5
113C5
330
209
100
AcDbEntity
  8
DIMENSION
100
AcDbPolyline
 90
        2
 70
     1
 43
12.0
 10
7307.509319754214
 20
5047.609662588426
 42
1.0
 10
7295.509319754216
 20
5047.609662588426
 42
1.0
  0
LWPOLYLINE
  5
113C6
330
209
100
AcDbEntity
  8
DIMENSION
100
AcDbPolyline
 90
        2
 70
     1
 43
12.0
 10
7754.494158870527
 20
5047.609662588426
 42
1.0
 10
7742.494158870527
 20
5047.609662588426
 42
1.0
  0
LWPOLYLINE
  5
113C7
330
209
100
AcDbEntity
  8
DIMENSION
100
AcDbPolyline
 90
        2
 70
     1
 43
12.0
 10
7982.846120654791
 20
2757.562872777413
 42
1.0
 10
7970.846120654792
 20
2757.562872777413
 42
1.0
  0
LWPOLYLINE
  5
113C8
330
209
100
AcDbEntity
  8
DIMENSION
100
AcDbPolyline
 90
        2
 70
     1
 43
12.0
 10
7982.846120654791
 20
2757.562872777413
 42
1.0
 10
7970.846120654792
 20
2757.562872777413
 42
1.0
  0
LWPOLYLINE
  5
113C9
330
209
100
AcDbEntity
  8
DIMENSION
100
AcDbPolyline
 90
        2
 70
     1
 43
12.0
 10
7982.846120654791
 20
2940.085103685372
 42
1.0
 10
7970.846120654792
 20
2940.085103685372
 42
1.0
  0
TEXT
  5
113CA
330
209
100
AcDbEntity
  8
DIMENSION
 62
     4
100
AcDbText
 10
7959.222816336619
 20
2804.612623678274
 30
0.0
 40
54.0
  1
H2
 50
90.0
 41
0.8
 72
     1
 11
7959.222816336619
 21
2848.841195106846
 31
0.0
100
AcDbText
  0
LINE
  5
113CB
330
209
100
AcDbEntity
  8
DIMENSION
100
AcDbLine
 10
7976.846120654792
 20
2757.562872777413
 30
0.0
 11
7976.846120654792
 21
2940.085103685372
 31
0.0
  0
LINE
  5
113F0
330
209
100
AcDbEntity
  8
MAINMEMBER
  6
CONTINUOUS
100
AcDbLine
 10
7566.944806321152
 20
2757.562872777413
 30
0.0
 11
7749.467037229123
 21
2940.085103685372
 31
0.0
  0
LINE
  5
113F1
330
209
100
AcDbEntity
  8
MAINMEMBER
  6
CONTINUOUS
100
AcDbLine
 10
7483.748637864549
 20
2757.562872777413
 30
0.0
 11
7301.226406956577
 21
2940.085103685374
 31
0.0
  0
ENDSEC
  0
SECTION
  2
OBJECTS
  0
DICTIONARY
  5
11066
330
0
100
AcDbDictionary
  3
ACAD_GROUP
350
11067
  3
ACAD_LAYOUT
350
11079
  3
ACAD_MLINESTYLE
350
11068
  3
ACAD_PLOTSETTINGS
350
1107A
  3
ACAD_PLOTSTYLENAME
350
11077
  3
ACDBHEADERROUNDTRIPXREC
350
11471
  3
ACDBVARIABLEDICTIONARY
350
110AA
  0
DICTIONARY
  5
1109F
330
209
100
AcDbDictionary
280
     1
  3
ACAD_LAYOUTSELFREF
360
11491
  0
DICTIONARY
  5
110A1
330
210
100
AcDbDictionary
280
     1
  3
ACAD_LAYOUTSELFREF
360
11492
  0
DICTIONARY
  5
11067
102
{ACAD_REACTORS
330
11066
102
}
330
11066
100
AcDbDictionary
  0
DICTIONARY
  5
11079
102
{ACAD_REACTORS
330
11066
102
}
330
11066
100
AcDbDictionary
  0
DICTIONARY
  5
11068
102
{ACAD_REACTORS
330
11066
102
}
330
11066
100
AcDbDictionary
  3
STANDARD
350
11069
  0
DICTIONARY
  5
1107A
102
{ACAD_REACTORS
330
11066
102
}
330
11066
100
AcDbDictionary
  0
ACDBDICTIONARYWDFLT
  5
11077
102
{ACAD_REACTORS
330
11066
102
}
330
11066
100
AcDbDictionary
281
     1
  3
Normal
350
11078
100
AcDbDictionaryWithDefault
340
11078
  0
DICTIONARY
  5
11471
102
{ACAD_REACTORS
330
11066
102
}
330
11066
100
AcDbDictionary
  3
CEPSNTYPE
350
1147B
  3
FINGERPRINTGUID
350
1147C
  3
HYPERLINKBASE
350
11474
  3
INSUNITS
350
1147A
  3
LAYOUTDICT
350
11476
  3
LWETCUNION
350
11479
  3
PLOTSETDICT
350
11477
  3
PLOTSTYLNAMDICT
350
11478
  3
PSVPSCALE
350
1147E
  3
PUCSBASE
350
11481
  3
PUCSORGBACK
350
11487
  3
PUCSORGBOTTOM
350
11483
  3
PUCSORGFRONT
350
11486
  3
PUCSORGLEFT
350
11484
  3
PUCSORGRIGHT
350
11485
  3
PUCSORGTOP
350
11482
  3
PUCSORTHOREF
350
1147F
  3
PUCSORTHOVIEW
350
11480
  3
STYLESHEET
350
11475
  3
TSTACKALIGN
350
11472
  3
TSTACKSIZE
350
11473
  3
UCSBASE
350
1148A
  3
UCSORGBACK
350
11490
  3
UCSORGBOTTOM
350
1148C
  3
UCSORGFRONT
350
1148F
  3
UCSORGLEFT
350
1148D
  3
UCSORGRIGHT
350
1148E
  3
UCSORGTOP
350
1148B
  3
UCSORTHOREF
350
11488
  3
UCSORTHOVIEW
350
11489
  3
VERSIONGUID
350
1147D
  0
DICTIONARY
  5
110AA
102
{ACAD_REACTORS
330
11066
102
}
330
11066
100
AcDbDictionary
  3
DIMASSOC
350
112D7
  3
SORTENTS
350
110AB
  0
XRECORD
  5
11491
102
{ACAD_REACTORS
330
1109F
102
}
330
1109F
100
AcDbXrecord
340
209
  0
XRECORD
  5
11492
102
{ACAD_REACTORS
330
110A1
102
}
330
110A1
100
AcDbXrecord
340
210
  0
MLINESTYLE
  5
11069
102
{ACAD_REACTORS
330
11068
102
}
330
11068
100
AcDbMlineStyle
  2
STANDARD
 70
     0
  3

 62
   256
 51
90.0
 52
90.0
 71
     2
 49
0.5
 62
   256
  6
BYLAYER
 49
-0.5
 62
   256
  6
BYLAYER
  0
ACDBPLACEHOLDER
  5
11078
102
{ACAD_REACTORS
330
11077
102
}
330
11077
100
AcDbPlaceHolder
280
     0
  0
XRECORD
  5
1147B
102
{ACAD_REACTORS
330
11471
102
}
330
11471
100
AcDbXrecord
 90
        0
  0
XRECORD
  5
1147C
102
{ACAD_REACTORS
330
11471
102
}
330
11471
100
AcDbXrecord
  1
{A0D50600-9221-4E97-AF07-C2CADED30F09}
  0
XRECORD
  5
11474
102
{ACAD_REACTORS
330
11471
102
}
330
11471
100
AcDbXrecord
  1

  0
XRECORD
  5
1147A
102
{ACAD_REACTORS
330
11471
102
}
330
11471
100
AcDbXrecord
 90
        0
  0
XRECORD
  5
11476
102
{ACAD_REACTORS
330
11471
102
}
330
11471
100
AcDbXrecord
340
11079
  0
XRECORD
  5
11479
102
{ACAD_REACTORS
330
11471
102
}
330
11471
100
AcDbXrecord
 90
    10781
  0
XRECORD
  5
11477
102
{ACAD_REACTORS
330
11471
102
}
330
11471
100
AcDbXrecord
340
1107A
  0
XRECORD
  5
11478
102
{ACAD_REACTORS
330
11471
102
}
330
11471
100
AcDbXrecord
340
11077
  0
XRECORD
  5
1147E
102
{ACAD_REACTORS
330
11471
102
}
330
11471
100
AcDbXrecord
 40
0.0
  0
XRECORD
  5
11481
102
{ACAD_REACTORS
330
11471
102
}
330
11471
100
AcDbXrecord
340
0
  0
XRECORD
  5
11487
102
{ACAD_REACTORS
330
11471
102
}
330
11471
100
AcDbXrecord
 10
0.0
 20
0.0
 30
0.0
  0
XRECORD
  5
11483
102
{ACAD_REACTORS
330
11471
102
}
330
11471
100
AcDbXrecord
 10
0.0
 20
0.0
 30
0.0
  0
XRECORD
  5
11486
102
{ACAD_REACTORS
330
11471
102
}
330
11471
100
AcDbXrecord
 10
0.0
 20
0.0
 30
0.0
  0
XRECORD
  5
11484
102
{ACAD_REACTORS
330
11471
102
}
330
11471
100
AcDbXrecord
 10
0.0
 20
0.0
 30
0.0
  0
XRECORD
  5
11485
102
{ACAD_REACTORS
330
11471
102
}
330
11471
100
AcDbXrecord
 10
0.0
 20
0.0
 30
0.0
  0
XRECORD
  5
11482
102
{ACAD_REACTORS
330
11471
102
}
330
11471
100
AcDbXrecord
 10
0.0
 20
0.0
 30
0.0
  0
XRECORD
  5
1147F
102
{ACAD_REACTORS
330
11471
102
}
330
11471
100
AcDbXrecord
340
0
  0
XRECORD
  5
11480
102
{ACAD_REACTORS
330
11471
102
}
330
11471
100
AcDbXrecord
 70
     0
  0
XRECORD
  5
11475
102
{ACAD_REACTORS
330
11471
102
}
330
11471
100
AcDbXrecord
  1

  0
XRECORD
  5
11472
102
{ACAD_REACTORS
330
11471
102
}
330
11471
100
AcDbXrecord
 90
        1
  0
XRECORD
  5
11473
102
{ACAD_REACTORS
330
11471
102
}
330
11471
100
AcDbXrecord
 90
       70
  0
XRECORD
  5
1148A
102
{ACAD_REACTORS
330
11471
102
}
330
11471
100
AcDbXrecord
340
0
  0
XRECORD
  5
11490
102
{ACAD_REACTORS
330
11471
102
}
330
11471
100
AcDbXrecord
 10
0.0
 20
0.0
 30
0.0
  0
XRECORD
  5
1148C
102
{ACAD_REACTORS
330
11471
102
}
330
11471
100
AcDbXrecord
 10
0.0
 20
0.0
 30
0.0
  0
XRECORD
  5
1148F
102
{ACAD_REACTORS
330
11471
102
}
330
11471
100
AcDbXrecord
 10
0.0
 20
0.0
 30
0.0
  0
XRECORD
  5
1148D
102
{ACAD_REACTORS
330
11471
102
}
330
11471
100
AcDbXrecord
 10
0.0
 20
0.0
 30
0.0
  0
XRECORD
  5
1148E
102
{ACAD_REACTORS
330
11471
102
}
330
11471
100
AcDbXrecord
 10
0.0
 20
0.0
 30
0.0
  0
XRECORD
  5
1148B
102
{ACAD_REACTORS
330
11471
102
}
330
11471
100
AcDbXrecord
 10
0.0
 20
0.0
 30
0.0
  0
XRECORD
  5
11488
102
{ACAD_REACTORS
330
11471
102
}
330
11471
100
AcDbXrecord
340
0
  0
XRECORD
  5
11489
102
{ACAD_REACTORS
330
11471
102
}
330
11471
100
AcDbXrecord
 70
     0
  0
XRECORD
  5
1147D
102
{ACAD_REACTORS
330
11471
102
}
330
11471
100
AcDbXrecord
  1
{16010E6B-A24F-4BF6-8C81-91246D949F68}
  0
DICTIONARYVAR
  5
112D7
102
{ACAD_REACTORS
330
110AA
102
}
330
110AA
100
DictionaryVariables
280
     0
  1
1
  0
DICTIONARYVAR
  5
110AB
102
{ACAD_REACTORS
330
110AA
102
}
330
110AA
100
DictionaryVariables
280
     0
  1
96
  0
ENDSEC
  0
EOF
